<?xml version="1.0" standalone="no"?>
<!DOCTYPE svg PUBLIC "-//W3C//DTD SVG 20010904//EN"
 "http://www.w3.org/TR/2001/REC-SVG-20010904/DTD/svg10.dtd">
<svg version="1.0" xmlns="http://www.w3.org/2000/svg"
 width="700.000000pt" height="700.000000pt" viewBox="0 0 700.000000 700.000000"
 preserveAspectRatio="xMidYMid meet">
<metadata>
Created by potrace 1.11, written by Peter Selinger 2001-2013
</metadata>
<g transform="translate(0.000000,700.000000) scale(0.100000,-0.100000)"
fill="#000000" stroke="none">
<path d="M1840 6638 c-295 -46 -516 -129 -740 -280 -335 -225 -576 -559 -689
-953 -20 -72 -34 -142 -50 -255 -10 -71 -7 -377 4 -425 3 -16 8 -43 10 -60 7
-59 33 -161 61 -245 l29 -85 268 -1 c147 0 267 1 267 3 0 1 -17 37 -39 80
-202 405 -159 891 111 1255 399 538 1156 652 1692 254 177 -131 328 -324 403
-516 56 -143 76 -235 86 -397 2 -23 7 -46 11 -50 12 -13 476 -11 477 1 17 283
80 478 222 684 175 255 499 460 787 499 19 2 58 8 85 12 28 4 88 6 135 5 347
-8 647 -145 878 -399 403 -442 423 -1100 47 -1570 -189 -236 -499 -411 -784
-441 -43 -4 -124 -12 -147 -13 -7 -1 -10 -81 -10 -242 l0 -241 105 6 c399 22
772 186 1066 467 51 50 113 115 137 147 23 31 46 59 49 62 17 13 122 186 163
267 76 150 139 358 163 538 16 121 8 381 -16 510 -124 673 -633 1202 -1301
1354 -47 10 -116 23 -155 27 -90 11 -329 11 -420 1 -187 -22 -410 -92 -580
-183 -153 -81 -254 -155 -399 -289 -45 -42 -156 -175 -211 -254 l-57 -82 -45
68 c-265 397 -698 669 -1178 738 -68 10 -377 12 -435 3z"/>
<path d="M3259 4315 c-1 -11 -1 -144 -1 -296 l0 -276 -292 -1 c-160 0 -293 -1
-296 -1 -3 -1 -5 -109 -5 -241 l-1 -240 51 -1 c27 0 160 -1 295 -2 l245 -2 0
-293 c0 -160 2 -293 5 -293 3 -1 112 -2 243 -3 l237 -1 0 25 c0 14 1 147 1
296 l0 272 295 -2 c190 -1 294 3 295 9 7 61 2 468 -5 473 -5 3 -138 6 -295 6
l-286 1 -2 210 c-1 116 -2 248 -2 295 l-1 85 -240 0 c-234 1 -240 0 -241 -20z"/>
<path d="M1877 3734 c-1 -1 -29 -4 -62 -8 -88 -9 -251 -51 -363 -92 -396 -148
-734 -453 -922 -833 -77 -154 -138 -339 -155 -466 -4 -28 -11 -72 -15 -100 -9
-53 -6 -372 3 -415 3 -14 8 -42 11 -62 3 -21 11 -57 16 -80 6 -24 13 -52 15
-63 9 -37 57 -180 77 -225 171 -392 461 -694 841 -877 130 -63 334 -125 457
-140 25 -3 64 -9 88 -13 44 -8 352 -6 387 3 11 3 41 8 67 11 70 9 221 50 315
85 229 84 418 207 604 391 102 100 222 249 240 297 5 13 11 23 13 23 2 0 34
-42 69 -92 234 -336 584 -577 982 -677 44 -11 103 -23 130 -27 28 -3 59 -9 70
-11 35 -9 344 -11 388 -3 23 4 65 11 92 14 232 28 522 152 753 323 76 56 249
223 292 282 14 19 30 40 37 46 17 17 123 183 123 193 0 4 10 23 23 42 52 77
145 339 162 452 4 23 8 45 10 48 17 28 26 371 13 485 -15 123 -47 259 -87 366
l-21 55 -262 -2 c-145 -1 -264 -2 -265 -3 -1 0 18 -43 42 -93 42 -89 87 -226
98 -298 17 -105 20 -144 19 -237 -2 -298 -119 -593 -319 -805 -53 -57 -140
-136 -172 -156 -14 -9 -28 -19 -31 -22 -22 -26 -206 -119 -295 -149 -432 -146
-907 -40 -1231 276 -144 141 -229 272 -297 455 -45 122 -64 222 -76 404 -1 11
-480 16 -482 5 -1 -3 -3 -33 -4 -66 -29 -505 -383 -948 -870 -1090 -774 -224
-1547 355 -1549 1160 0 189 34 341 115 514 186 398 579 666 1019 695 36 3 67
5 71 5 3 1 5 109 5 242 l0 240 -83 -3 c-46 -1 -85 -3 -86 -4z"/>
</g>
</svg>
