<?xml version="1.0" standalone="no"?>
<!DOCTYPE svg PUBLIC "-//W3C//DTD SVG 1.1//EN" "http://www.w3.org/Graphics/SVG/1.1/DTD/svg11.dtd" >
<svg xmlns="http://www.w3.org/2000/svg">
<metadata>
Created by FontPrep 20130207 at Tue May 10 19:19:50 2016
 By Guillaume Coquoz
Copyright (c) 2013 by Juan Pablo del Peral (huertatipografica.com.ar)
</metadata>
<defs>
<font id="7e43c89fc064d9714b58c0e7b195ae9d" horiz-adv-x='1024' >
  <font-face 
    font-family="AlegreyaSansSC-ThinItalic"
    font-weight="250"
    font-style="italic"
    font-stretch="normal"
    units-per-em="2048"
    panose-1="0 0 3 0 0 0 0 0 0 0"
    ascent="1638"
    descent="-410"
    x-height="1006"
    cap-height="1305"
    bbox="-578 -543 2286 1908"
    underline-thickness="0"
    underline-position="0"
    slope="-7"
    unicode-range="U+0020-F6D8"
  />
<missing-glyph horiz-adv-x="745" 
d="M135 68h408v1228h-408v-1228zM68 0v1364h542v-1364h-542z" />
    <glyph glyph-name="Idieresis" unicode="&#xa8;I" horiz-adv-x="481" 
d="M205 0h-41l164 1305h41zM526 1599q0 -41 -41 -41t-41 42q0 40 41 40t41 -41zM317 1599q0 -41 -41 -40q-40 1 -40 41t40 40t41 -41z" />
    <glyph glyph-name="Odieresis" unicode="&#xa8;O" horiz-adv-x="1226" 
d="M544 31q184 0 312 93q129 93 197 264q67 172 67 404t-100 357t-286 125t-314 -90q-127 -90 -195 -259q-67 -169 -67 -403t101 -362t285 -129zM540 -10q-202 0 -314 137t-112 388q1 510 282 705q138 95 341 95t315 -133t112 -382t-74 -431q-72 -183 -210 -281t-340 -98z
M948 1599q0 -41 -41 -41t-41 42q0 40 41 40t41 -41zM641 1599q0 -41 -41 -41t-41 42q0 40 41 40t41 -41z" />
    <glyph glyph-name="Yacute" unicode="&#xb4;Y" horiz-adv-x="960" 
d="M487 506l-63 -506h-41l49 399l14 103l-288 803h51l14 -54l246 -684h10l447 684l28 54h54zM834 1683l-5 -10q-137 -78 -356 -190l-10 6l-14 31q186 90 360 192l10 -4z" />
    <glyph glyph-name="idieresis" unicode="&#xa8;i" horiz-adv-x="477" 
d="M201 0h-41l41 307l86 699h41l-86 -697zM492 1300q0 -40 -41 -40t-41 40t41 41q41 0 41 -41zM283 1300q0 -40 -41 -40t-41 40t41 41q41 0 41 -41z" />
    <glyph glyph-name="odieresis" unicode="&#xa8;o" horiz-adv-x="1091" 
d="M162 410q0 -182 82 -280t237 -97q217 1 340 151t123 418q0 180 -84 276t-244 95q-216 -1 -335 -148t-119 -415zM987 608q0 -288 -133 -452t-371 -164q-176 0 -271 108t-95 306q0 288 132 448t372 160q176 -1 271 -107t95 -299zM840 1300q0 -40 -41 -40t-41 40t41 41
q41 0 41 -41zM532 1300q0 -41 -40 -40q-41 0 -41 40q1 40 41 41q40 0 40 -41z" />
    <glyph glyph-name="yacute" unicode="&#xb4;y" horiz-adv-x="876" 
d="M434 379l-49 -379h-41l41 305l10 82l-245 619h51l12 -43l205 -519h8l360 519l25 43h51zM711 1427l-2 -10q-141 -141 -295 -276l-11 2l-22 26q141 119 299 281l10 -2z" />
    <glyph glyph-name="Itilde" unicode="&#x7e;I" horiz-adv-x="481" 
d="M205 0h-41l164 1305h41zM247 1612q-19 0 -65 -49l-32 -33h-7l-18 22v9l96 96l12 4q33 -4 146 -41t132 -37t58 43l39 39h6l19 -23v-8l-96 -96l-13 -4q-34 4 -146 41t-131 37z" />
    <glyph glyph-name="itilde" unicode="&#x7e;i" horiz-adv-x="477" 
d="M201 0h-41l41 307l86 699h41l-86 -697zM212 1313q-19 0 -65 -49l-32 -33h-6l-19 22v9l96 96l13 4q33 -4 145 -41t132 -37q19 0 59 43l38 39h7l18 -23v-8l-96 -96l-13 -4q-33 4 -145 41t-132 37z" />
    <glyph glyph-name="Utilde" unicode="&#x7e;U" horiz-adv-x="1193" 
d="M556 -8q-194 0 -292 95t-98 273q0 59 8 109l27 190l82 646h41l-109 -836q-8 -70 -8 -100q0 -162 87 -249t261 -87q174 1 287 113t141 323l104 836h41l-84 -666l-20 -170q-22 -227 -148 -352t-320 -125zM587 1618q-19 0 -65 -45l-43 -39h-8l-18 22v9l106 96l12 4
q41 -4 169 -41t148 -37t64 45l43 39h9l18 -22v-9l-107 -96l-12 -4q-41 4 -169 41t-147 37z" />
    <glyph glyph-name="utilde" unicode="&#x7e;u" horiz-adv-x="1069" 
d="M205 293q1 -261 285 -261q144 0 234 86q91 85 112 244l82 644h40l-81 -646q-17 -174 -121 -270t-268 -96t-244 75q-82 75 -82 216q0 37 6 75l22 148l62 498h43l-86 -644q-4 -25 -4 -69zM484 1319q-20 0 -64 -45l-43 -39h-8l-19 22v9l107 96l12 4q41 -4 169 -41t147 -37
t65 45l43 39h8l19 -22v-9l-107 -96l-12 -4q-41 4 -169 41t-148 37z" />
    <glyph glyph-name="Etilde" unicode="&#x7e;E" horiz-adv-x="884" 
d="M293 696h457l6 -8l-13 -33h-454l-78 -614h559l6 -8l-12 -33h-600l164 1305h596l4 -9l-13 -32h-550zM524 1618q-20 0 -65 -45l-43 -39h-8l-19 22v9l107 96l12 4q41 -4 169 -41t147 -37t65 45l43 39h8l18 -22v-9l-106 -96l-12 -4q-41 4 -169 41q-127 37 -147 37z" />
    <glyph glyph-name="etilde" unicode="&#x7e;e" horiz-adv-x="813" 
d="M268 541h379l4 -9l-10 -32h-377l-59 -461h465l6 -6l-12 -33h-504l127 1006h499l7 -9l-13 -32l-456 2zM421 1319q-19 0 -65 -45l-43 -39h-8l-18 22v9l106 96l13 4q40 -4 168 -41t148 -37t64 45l43 39h9l18 -22v-9l-106 -96l-13 -4q-41 4 -169 41t-147 37z" />
    <glyph glyph-name="Ytilde" unicode="&#x7e;Y" horiz-adv-x="960" 
d="M487 506l-63 -506h-41l49 399l14 103l-288 803h51l14 -54l246 -684h10l447 684l28 54h54zM470 1618q-20 0 -64 -45l-44 -39h-8l-18 22v9l106 96l13 4q41 -4 169 -41t147 -37t65 45l43 39h8l18 -22v-9l-106 -96l-13 -4q-40 4 -168 41t-148 37z" />
    <glyph glyph-name="ytilde" unicode="&#x7e;y" horiz-adv-x="876" 
d="M434 379l-49 -379h-41l41 305l10 82l-245 619h51l12 -43l205 -519h8l360 519l25 43h51zM390 1319q-20 0 -64 -45l-43 -39h-9l-18 22v9l106 96l13 4q41 -4 169 -41t147 -37t65 45l43 39h8l18 -22v-9l-106 -96l-12 -4q-41 4 -169 41t-148 37z" />
    <glyph glyph-name="Gtilde" unicode="&#x7e;G" horiz-adv-x="1177" 
d="M545 -8q-211 0 -322 135t-110 385q0 250 78 430q79 180 227 276t340 95q190 0 352 -111l-16 -37h-15q-156 106 -311 107q-193 0 -331 -90t-211 -260q-72 -170 -72 -404t100 -361q100 -126 274 -126t387 61l31 232l19 159l41 4l-54 -426q-137 -41 -221 -55t-186 -14z
M591 1618q-19 0 -65 -45l-43 -39h-8l-18 22v9l106 96l12 4q41 -4 169 -41t148 -37t64 45l43 39h9l18 -22v-9l-106 -96l-13 -4q-41 4 -169 41t-147 37z" />
    <glyph glyph-name="gtilde" unicode="&#x7e;g" horiz-adv-x="1050" 
d="M659 973q-239 -1 -369 -149t-130 -418q0 -180 84 -278t226 -97q142 0 314 47l21 172l18 125l41 4l-18 -127l-25 -205q-197 -53 -355 -53q-159 0 -254 105t-95 300q0 293 141 453t401 160q144 0 283 -84l-16 -37h-11q-135 82 -256 82zM497 1319q-19 0 -65 -45l-43 -39h-8
l-19 22v9l107 96l12 4q41 -4 169 -41t148 -37t64 45l43 39h8l19 -22v-9l-107 -96l-12 -4q-41 4 -169 41t-147 37z" />
    <glyph glyph-name=".notdef" horiz-adv-x="745" 
d="M135 68h408v1228h-408v-1228zM68 0v1364h542v-1364h-542z" />
    <glyph glyph-name=".null" horiz-adv-x="0" 
 />
    <glyph glyph-name="nonmarkingreturn" horiz-adv-x="681" 
 />
    <glyph glyph-name="space" unicode=" " horiz-adv-x="307" 
 />
    <glyph glyph-name="exclam" unicode="!" horiz-adv-x="509" 
d="M252 37q0 -41 -41 -41t-41 41t41 41t41 -41zM272 406h-32l-9 10l129 917l9 6h28l4 -6z" />
    <glyph glyph-name="quotedbl" unicode="&#x22;" horiz-adv-x="454" 
d="M401 997l-34 -4l-5 8l60 295l37 4l4 -8zM203 997l-35 -4l-4 8l59 295l37 4l4 -8z" />
    <glyph glyph-name="numbersign" unicode="#" horiz-adv-x="983" 
d="M393 766l-65 -264h241l68 264h-244zM610 502h248l6 -6l-4 -35h-260l-100 -395h-33l-6 8l98 387h-242l-100 -395h-33l-6 8l98 387h-229l-6 6l4 35h242l67 264h-229l-6 6l4 35h242l94 371h33l4 -11l-90 -360h241l94 371h33l4 -11l-90 -360h248l6 -6l-4 -35h-262z" />
    <glyph glyph-name="dollar" unicode="$" horiz-adv-x="837" 
d="M618 268q0 76 -46 120t-134 89l-59 -438q106 14 172.5 83.5t66.5 145.5zM223 748q0 -74 46 -118t137 -89l59 426q-109 -10 -175.5 -77.5t-66.5 -141.5zM659 268q0 -98 -80.5 -178t-205.5 -94l-37 -250h-31l-8 8l35 240h-4q-145 0 -244 74l4 41l10 2q96 -76 232 -76h6
l63 461q-106 53 -161.5 106t-55.5 148t80 172t207 86l41 282h33l8 -10l-37 -270q105 -4 191 -45l-15 -37l-12 -2q-74 39 -170 43l-64 -447q102 -51 158.5 -103.5t56.5 -150.5z" />
    <glyph glyph-name="percent" unicode="%" horiz-adv-x="1636" 
d="M989 281q0 -121 53.5 -184.5t155.5 -63.5q135 0 211 99t76 276q0 121 -53.5 184t-155.5 63q-135 0 -211 -99t-76 -275zM1522 416q0 -197 -87 -309.5t-247 -112.5q-117 0 -177.5 71.5t-60.5 206.5q0 197 89 309.5t247 112.5q115 0 175.5 -71.5t60.5 -206.5zM199 893
q0 -121 53 -184.5t156 -63.5q135 0 210.5 99.5t75.5 275.5q0 121 -53 184.5t-156 63.5q-135 0 -210.5 -99.5t-75.5 -275.5zM731 1028q0 -197 -87 -309.5t-247 -112.5q-117 0 -177 72t-60 207q0 197 89 309.5t247 112.5q114 0 174.5 -72t60.5 -207zM1395 1343l-1182 -1527
l-16 8l-7 18l1180 1528l21 -10z" />
    <glyph glyph-name="ampersand" unicode="&#x26;" horiz-adv-x="1560" 
d="M168 535q0 -39 2 -58q201 70 383 187q98 78 88 188q-2 55 -46 88t-122 33t-149.5 -55.5t-113.5 -154.5t-42 -228zM653 -20q-166 0 -282.5 69.5t-180 195t-63.5 277.5t48 260.5t129 170t174 61.5t149.5 -46t56.5 -114t-37 -129q209 147 373 336.5t254 394.5h8
q10 -18 16 -41q-98 -215 -272 -409.5t-394 -343t-458 -228.5q29 -188 153 -299.5t303 -111.5t305 71.5t190.5 202.5t56.5 301q-121 27 -164 27q-135 0 -193 -158l-10 -4l-27 20q39 92 89.5 134t136.5 49q49 0 226 -38t228 -38q135 0 193 158l10 4l27 -21q-39 -92 -89 -134
t-136 -48q-70 0 -250 41q6 -182 -65 -320.5t-205 -214t-300 -75.5z" />
    <glyph glyph-name="quotesingle" unicode="'" horiz-adv-x="256" 
d="M203 997l-35 -4l-4 8l59 295l37 4l4 -8z" />
    <glyph glyph-name="parenleft" unicode="(" horiz-adv-x="573" 
d="M209 297q0 -195 58.5 -327t187.5 -232l-2 -8l-21 -23h-8q-135 111 -195.5 246t-60.5 338q0 348 96 618.5t363 448.5h8l16 -23l-2 -8q-258 -172 -349 -435t-91 -595z" />
    <glyph glyph-name="parenright" unicode=")" horiz-adv-x="575" 
d="M383 768q0 195 -58 327t-188 232l2 8l21 23h8q136 -111 196 -246t60 -338q0 -348 -96 -618t-363 -449h-8l-16 23l2 8q258 172 349 435t91 595z" />
    <glyph glyph-name="asterisk" unicode="*" horiz-adv-x="747" 
d="M428 1085l-137 -174q-20 6 -39 21l-2 6l156 174l24 -14zM641 926q-14 -20 -31 -31h-6l-119 201l23 18l10 -4zM756 1223l-2 -4l-228 -52l-10 27l6 8l213 60q13 -14 21 -39zM389 1165l-10 -2l-209 78q0 29 6 43l6 4l213 -94zM471 1229l-29 -4l-6 10l10 223q20 6 43 6l5 -4z
" />
    <glyph glyph-name="plus" unicode="+" horiz-adv-x="978" 
d="M524 573h383l6 -6l-8 -35h-387l-47 -387l-35 -4l-6 6l47 385h-383l-6 7l8 34h387l47 388l35 4l6 -7z" />
    <glyph glyph-name="comma" unicode="," horiz-adv-x="471" 
d="M248 -14q0 -86 -135 -191l-21 23l2 6q111 82 111 160q0 41 -62 69v8q10 14 27 23q78 -35 78 -98z" />
    <glyph glyph-name="hyphen" unicode="-" horiz-adv-x="638" 
d="M584 535l-512 -68l-6 8l4 33l510 67l6 -8z" />
    <glyph glyph-name="period" unicode="." horiz-adv-x="471" 
d="M223 37q0 -41 -41 -41t-41 41t41 41t41 -41z" />
    <glyph glyph-name="slash" unicode="/" horiz-adv-x="595" 
d="M80 -225h-33l-6 8l528 1599h33l6 -10z" />
    <glyph glyph-name="zero" unicode="0" horiz-adv-x="1103" 
d="M156 416q0 -184 89 -283.5t259 -99.5q217 0 335.5 144.5t118.5 402.5q0 188 -89 290.5t-257 102.5q-215 0 -335.5 -147.5t-120.5 -409.5zM999 590q0 -285 -130 -441.5t-369 -156.5q-184 0 -284.5 107.5t-100.5 306.5q0 287 130 447.5t371 160.5q185 0 284 -109.5
t99 -314.5z" />
    <glyph glyph-name="one" unicode="1" horiz-adv-x="671" 
d="M446 1001l-122 -1001h-41l116 954l-309 -92l-10 6l4 33l356 109z" />
    <glyph glyph-name="two" unicode="2" horiz-adv-x="899" 
d="M719 822q0 -83 -69.5 -186.5t-227.5 -270.5l-297 -318l4 -6h479l160 2l4 -8l-12 -37l-168 2h-455l-78 -2l-4 4l4 33l332 356q156 168 221.5 258.5t65.5 160.5t-47 113.5t-131 43.5q-166 0 -307 -158h-9l-4 35q147 164 324 164q96 0 155.5 -51.5t59.5 -134.5z" />
    <glyph glyph-name="three" unicode="3" horiz-adv-x="802" 
d="M410 453q243 -55 243 -274q0 -108 -60.5 -195.5t-165.5 -137t-217 -49.5t-198 17l-2 34l6 7q241 -44 365.5 12.5t177.5 134.5t53 184t-80.5 170t-234.5 72h-96l-6 6l6 33h88q68 0 147.5 43t134 116.5t54.5 157.5t-55.5 133.5t-145.5 49.5q-135 0 -283 -129h-8l-2 39
q158 133 281 133t189.5 -59.5t66.5 -157.5t-72 -190.5t-184 -143.5z" />
    <glyph glyph-name="four" unicode="4" horiz-adv-x="937" 
d="M655 926h-8l-555 -682h479zM823 201l-145 2h-70l-49 -391l-4 -7l-33 -6l-4 6l49 398h-440l-86 -2l-6 8l4 35l620 762h46l-93 -762h215l9 -8z" />
    <glyph glyph-name="five" unicode="5" horiz-adv-x="825" 
d="M680 209q0 -117 -63.5 -211t-178 -147.5t-262.5 -53.5q-70 0 -147 15l-4 34l8 7q229 -40 360 19.5t188.5 143.5t57.5 186t-76 166t-233 103l-148 35l-6 10l60 475l20 17l100 -2h279l133 2l4 -4l-8 -37l-8 -4l-84 2h-400l-55 -422l131 -31q170 -39 251 -112.5t81 -190.5z
" />
    <glyph glyph-name="six" unicode="6" horiz-adv-x="931" 
d="M152 354q0 -156 69.5 -240.5t201.5 -84.5t240.5 79.5t108.5 280.5q0 123 -68.5 189.5t-193.5 66.5q-180 0 -342 -139q-16 -72 -16 -152zM496 686q156 0 236.5 -75.5t80.5 -217.5q0 -90 -35 -182t-121.5 -157.5t-236.5 -65.5t-229.5 94t-79.5 256t65.5 324.5t226 312
t426.5 237.5h9l14 -22v-8q-287 -97 -448.5 -259.5t-219.5 -351.5l6 -6q150 121 306 121z" />
    <glyph glyph-name="seven" unicode="7" horiz-adv-x="821" 
d="M750 1006l75 2l-4 -37l-579 -1010l-95 -176l-41 12v8l666 1160h-526l-119 -2l-6 10l10 35l131 -2h488z" />
    <glyph glyph-name="eight" unicode="8" horiz-adv-x="933" 
d="M139 284q0 -124 73.5 -187.5t213.5 -63.5t232 83t92 215t-87.5 181t-191.5 94q-145 -51 -238.5 -124.5t-93.5 -197.5zM258 910q0 -108 55.5 -161t163.5 -102q297 94 297 309q0 100 -59 154.5t-177 54.5t-199 -73.5t-81 -181.5zM815 958q0 -225 -283 -329v-6
q84 -37 171.5 -91t87.5 -202q0 -96 -47.5 -173t-133.5 -121t-214 -44t-213 74.5t-85 201.5q0 240 324 357v6q-100 45 -151.5 105.5t-51.5 162.5q0 137 93.5 222t226.5 85t204.5 -64.5t71.5 -183.5z" />
    <glyph glyph-name="nine" unicode="9" horiz-adv-x="931" 
d="M519 979q-132 0 -210 -57q-139 -102 -139 -304q0 -124 69 -190t193 -66q180 1 342 140q16 72 17 151q0 156 -70 241t-202 85zM129 614q0 90 35 182t122 158q86 66 236 66t230 -94t80 -256q-1 -366 -292 -637q-161 -150 -427 -238h-9l-14 23v8q287 96 449 259t219 351
l-6 6q-150 -120 -306 -120t-237 76q-80 76 -80 216z" />
    <glyph glyph-name="colon" unicode=":" horiz-adv-x="468" 
d="M223 37q0 -41 -41 -41t-41 41t41 41t41 -41zM293 604q0 -41 -41 -41t-41 41t41 41t41 -41z" />
    <glyph glyph-name="semicolon" unicode=";" horiz-adv-x="471" 
d="M246 -14q0 -86 -135 -191l-21 23l2 6q111 82 111 160q0 41 -62 69v8q10 14 27 23q78 -35 78 -98zM291 604q0 -41 -41 -41t-41 41t41 41t41 -41z" />
    <glyph glyph-name="less" unicode="&#x3c;" horiz-adv-x="1024" 
d="M930 893l-799 -336l-2 -8l727 -313l-16 -31l-9 -4l-757 327l6 45l6 9l840 350l10 -29z" />
    <glyph glyph-name="equal" unicode="=" horiz-adv-x="980" 
d="M938 680h-813l-6 6l4 35h813l6 -6zM901 385h-813l-6 6l4 35h813l6 -6z" />
    <glyph glyph-name="greater" unicode="&#x3e;" horiz-adv-x="1026" 
d="M973 573l-6 -45l-838 -327l-8 4l-8 31l805 313v8l-717 336l-4 10l18 29l754 -350z" />
    <glyph glyph-name="question" unicode="?" horiz-adv-x="661" 
d="M283 37q0 -41 -41 -41t-41 41t41 41t41 -41zM711 1051q0 -166 -193 -289l-213 -135l-4 -6l-16 -222l-35 -2l-4 9l14 229l12 18l226 142q170 106 170 247q0 111 -104.5 178.5t-301.5 79.5l-4 7l14 26l15 6q198 -16 311 -92t113 -196z" />
    <glyph glyph-name="at" unicode="@" horiz-adv-x="1648" 
d="M510 326q0 -120 14.5 -174t34 -78.5t34.5 -24.5t141 140t306 499l7 53l14 144l-123 10q-129 -2 -226.5 -87t-149.5 -223.5t-52 -258.5zM1563 582q0 -270 -158 -421t-457 -169l74 563h-10q-190 -362 -414 -563h-23q-55 41 -80.5 106.5t-25.5 211.5t54.5 290.5t159.5 235
t251 100.5h8l133 -10l27 14l10 -6l-94 -717l-17 -184q254 25 387.5 165t133.5 384q0 176 -75 309t-215 206.5t-349 73.5t-384 -98t-271.5 -273t-96.5 -402.5t97.5 -393.5t276.5 -254t417 -88l2 -8l-27 -33q-240 4 -422 100.5t-283.5 268.5t-101.5 408t101.5 423t286 289
t404.5 102t369.5 -79.5t230.5 -222t81 -328.5z" />
    <glyph glyph-name="A" unicode="A" horiz-adv-x="1073" 
d="M651 1235h-6l-377 -758h549zM915 0l-12 88l-76 348h-579l-174 -348l-41 -88h-49l653 1305h43l283 -1305h-48z" />
    <glyph glyph-name="B" unicode="B" horiz-adv-x="964" 
d="M823 399q0 113 -68.5 179.5t-197.5 76.5h-268l-78 -614q78 -6 160 -6q215 0 333.5 96t118.5 268zM807 1024q0 120 -61.5 181t-167.5 61h-211l-72 -564l248 -6q127 27 195.5 117.5t68.5 210.5zM866 406q0 -195 -127 -303.5t-362 -108.5q-115 0 -213 6l166 1305l237 4
q135 0 209 -67.5t74 -190.5q0 -276 -229 -367q116 -18 180.5 -89t64.5 -189z" />
    <glyph glyph-name="C" unicode="C" horiz-adv-x="1017" 
d="M714 1272q-177 0 -303 -91q-257 -186 -257 -663q0 -236 97 -361.5t287 -125.5t365 137l15 -4l-9 -37q-188 -137 -385 -137t-304 136t-107 386t71.5 429t206.5 275.5t327 96.5t326 -121l-18 -35h-14q-121 115 -298 115z" />
    <glyph glyph-name="D" unicode="D" horiz-adv-x="1247" 
d="M1143 796.5q0 231.5 -110.5 354.5t-319.5 123q-160 0 -348 -10l-156 -1225l330 -8q188 0 324 94t208 267t72 404.5zM1186 804q0 -247 -77 -430.5t-224.5 -283.5t-352.5 -100q-154 0 -368 10l164 1305l389 10q227 0 348 -132t121 -379z" />
    <glyph glyph-name="E" unicode="E" horiz-adv-x="884" 
d="M293 696h457l6 -8l-13 -33h-454l-78 -614h559l6 -8l-12 -33h-600l164 1305h596l4 -9l-13 -32h-550z" />
    <glyph glyph-name="F" unicode="F" horiz-adv-x="806" 
d="M291 676h438l4 -8l-12 -33h-436l-80 -635h-41l164 1305h575l6 -9l-12 -32h-532z" />
    <glyph glyph-name="G" unicode="G" horiz-adv-x="1177" 
d="M154 517.5q0 -234.5 100 -360.5t274 -126t387 61l31 232l19 159l41 4l-54 -426q-137 -41 -221 -55t-186 -14q-211 0 -321.5 135t-110.5 385t78.5 430t227 275.5t339 95.5t352.5 -111l-16 -37h-15q-156 106 -311 107q-193 0 -331 -90t-210.5 -260t-72.5 -404.5z" />
    <glyph glyph-name="H" unicode="H" horiz-adv-x="1310" 
d="M1198 1305l-164 -1305h-41l82 643h-788l-82 -643h-41l164 1305h41l-78 -621h788l78 621h41z" />
    <glyph glyph-name="I" unicode="I" horiz-adv-x="481" 
d="M205 0h-41l164 1305h41z" />
    <glyph glyph-name="J" unicode="J" horiz-adv-x="532" 
d="M410 1305l-134 -1069q-18 -143 -89.5 -242.5t-223.5 -194.5l-18 23v12q139 86 208.5 180.5t84.5 221.5l127 1028h-256l-9 8l11 33h299z" />
    <glyph glyph-name="K" unicode="K" horiz-adv-x="989" 
d="M913 10v-8q-8 -8 -28 -16l-8 2q-305 367 -529 706v6l543 508l96 97h66l-647 -611q237 -362 507 -684zM205 0h-41l166 1305h41z" />
    <glyph glyph-name="L" unicode="L" horiz-adv-x="774" 
d="M702 0h-540l164 1305h41l-158 -1264h500l6 -8z" />
    <glyph glyph-name="M" unicode="M" horiz-adv-x="1519" 
d="M1268 0l12 399l16 807h-8l-543 -1040h-51l-272 1040h-8l-275 -1206h-43l299 1305h47l279 -1080h8l567 1080h50l-35 -1305h-43z" />
    <glyph glyph-name="N" unicode="N" horiz-adv-x="1310" 
d="M1030 0h-39l-622 1219h-9l-155 -1219h-41l166 1305h39l622 -1219h8l158 1217l41 4z" />
    <glyph glyph-name="O" unicode="O" horiz-adv-x="1226" 
d="M158 522q0 -234 101 -362.5t284.5 -128.5t312.5 93t196.5 264t67.5 403.5t-100 357.5t-286.5 125t-313.5 -90t-194.5 -259t-67.5 -403zM1163 800q0 -249 -72.5 -431.5t-211 -280.5t-340 -98t-313 137t-111.5 388t71.5 430t210 274.5t341 95.5t314 -133t111.5 -382z" />
    <glyph glyph-name="P" unicode="P" horiz-adv-x="950" 
d="M868 993q0 127 -66.5 198t-191.5 77l-245 -2l-91 -715h230q170 16 267 136t97 306zM909 1001q0 -231 -122.5 -361t-348.5 -130h-168l-65 -510h-41l164 1305l272 4q150 0 229.5 -80t79.5 -228z" />
    <glyph glyph-name="Q" unicode="Q" horiz-adv-x="1212" 
d="M544 31q184 0 312.5 93t196 264.5t67.5 403.5t-100 357t-286 125t-313.5 -90t-195 -259t-67.5 -403t101 -362.5t285 -128.5zM1333 -373h-8q-207 27 -393.5 121t-333.5 244q-16 -2 -51 -2q-209 0 -320.5 137t-111.5 388t71.5 430t210.5 274.5t341 95.5t313.5 -133
t111.5 -381q0 -342 -134 -553t-378 -250q294 -283 705 -334l-2 -12q-18 -25 -21 -25z" />
    <glyph glyph-name="R" unicode="R" horiz-adv-x="1011" 
d="M870 981q0 275 -260 287l-245 -2l-86 -686h274q152 41 234.5 150.5t82.5 250.5zM911 992.5q0 -158.5 -88 -278.5t-250 -169q123 -274 281 -535l-2 -8q-10 -10 -27 -16l-10 4q-166 281 -287 549h-256l-67 -539h-41l164 1305l272 4q150 0 230.5 -79t80.5 -237.5z" />
    <glyph glyph-name="S" unicode="S" horiz-adv-x="866" 
d="M344 33q102 0 185 43t129.5 112.5t46.5 145.5t-34 130t-82 91t-134 90q-85 53 -137 92q-122 93 -123 242q0 92 51 168t139 120t204.5 43.5t225.5 -59.5l-12 -37l-15 -2q-94 57 -202.5 57.5t-186 -41.5t-120.5 -109.5t-43 -138.5t32.5 -122t78.5 -87t132 -87
q85 -51 139 -92q126 -97 127 -250q0 -94 -54 -175t-147 -128q-92 -47 -186 -47q-186 0 -301 96l6 39l13 4q106 -98 268 -98z" />
    <glyph glyph-name="T" unicode="T" horiz-adv-x="921" 
d="M958 1264h-374l-160 -1264h-41l160 1264h-379l-6 8l12 33h795l6 -9z" />
    <glyph glyph-name="U" unicode="U" horiz-adv-x="1193" 
d="M556.5 -8q-193.5 0 -292 95t-98.5 273q0 59 8 109l27 190l82 646h41l-109 -836q-8 -70 -8 -100q0 -162 87 -249t261 -87t286.5 112.5t141.5 323.5l104 836h41l-84 -666l-20 -170q-23 -227 -148.5 -352t-319 -125z" />
    <glyph glyph-name="V" unicode="V" horiz-adv-x="1040" 
d="M430 0l-285 1305h48l14 -88l250 -1147h8l573 1147l37 88h49l-649 -1305h-45z" />
    <glyph glyph-name="W" unicode="W" horiz-adv-x="1708" 
d="M1104 0l-186 897h-9l-436 -897h-45l-276 1305h47l14 -88l244 -1147h8l436 895l-74 340h45l15 -88l241 -1147h9l565 1147l39 88h47l-643 -1305h-41z" />
    <glyph glyph-name="X" unicode="X" horiz-adv-x="1099" 
d="M948 0h-51l-33 78l-303 565l-440 -569l-51 -74h-56l527 678l-330 627h53l33 -72l274 -524l400 514l55 82h55l-487 -631z" />
    <glyph glyph-name="Y" unicode="Y" horiz-adv-x="960" 
d="M487 506l-63 -506h-41l49 399l14 103l-288 803h51l14 -54l246 -684h10l447 684l28 54h54z" />
    <glyph glyph-name="Z" unicode="Z" horiz-adv-x="987" 
d="M70 41h635l133 2l8 -10l-12 -33h-754l-70 -2l4 37l928 1229h-614l-113 -2l-8 10l12 35l125 -2h586l71 2l-4 -37z" />
    <glyph glyph-name="bracketleft" unicode="[" horiz-adv-x="577" 
d="M641 1284l-268 -18l-180 -1481l262 -18l-2 -31l-11 -8l-297 20l193 1555l301 20l6 -8z" />
    <glyph glyph-name="backslash" unicode="\" horiz-adv-x="737" 
d="M629 -217l-6 -8h-33l-418 1597l6 10h33z" />
    <glyph glyph-name="bracketright" unicode="]" horiz-adv-x="577" 
d="M-49 -233l268 18l180 1481l-262 18l2 31l11 8l296 -20l-192 -1555l-301 -20l-6 8z" />
    <glyph glyph-name="asciicircum" unicode="^" horiz-adv-x="833" 
d="M752 240l-33 -11l-225 717h-9l-424 -708l-10 -7l-26 15l442 745l8 6h45l236 -749z" />
    <glyph glyph-name="underscore" unicode="_" horiz-adv-x="931" 
d="M874 -217h-983l-4 6l9 35h983l4 -6z" />
    <glyph glyph-name="grave" unicode="`" 
d="M655 1090l-22 -27l-10 -2q-154 135 -295 276l-2 11l20 20l10 2q158 -161 299 -280z" />
    <glyph glyph-name="a" unicode="a" horiz-adv-x="968" 
d="M557 944h-6l-303 -575h448zM780 0l-12 72l-61 258h-480l-135 -258l-33 -72h-47l527 1006h45l243 -1006h-47z" />
    <glyph glyph-name="b" unicode="b" horiz-adv-x="876" 
d="M705 305q0 178 -222 197l-217 -2l-61 -461q63 -6 135 -6q172 0 268.5 72.5t96.5 199.5zM686 786q0 184 -192 183h-168l-56 -426l207 -4q98 18 153.5 86.5t55.5 160.5zM748 309q0 -150 -106.5 -231.5t-299.5 -81.5q-125 0 -182 4l129 1006l203 2q115 0 178 -54.5
t63 -150.5q0 -203 -188 -277q96 -14 149.5 -69.5t53.5 -147.5z" />
    <glyph glyph-name="c" unicode="c" horiz-adv-x="917" 
d="M612 973q-215 0 -332.5 -149.5t-117.5 -417.5q0 -180 80 -277.5t234.5 -97.5t301.5 104l10 -4l-8 -37q-150 -102 -313.5 -102t-255.5 106.5t-92 302.5q0 287 129 449t366 162q160 0 273 -90l-17 -37h-12q-100 88 -246 88z" />
    <glyph glyph-name="d" unicode="d" horiz-adv-x="1112" 
d="M965 608q0 176 -92.5 270.5t-264.5 94.5l-282 -8l-119 -926q135 -8 270 -8q230 0 359 154.5t129 422.5zM1008 612q0 -289 -141.5 -454.5t-395.5 -165.5q-170 0 -309 8l127 1006l321 8q191 0 294.5 -105.5t103.5 -296.5z" />
    <glyph glyph-name="e" unicode="e" horiz-adv-x="813" 
d="M268 541h379l4 -9l-10 -32h-377l-59 -461h465l6 -6l-12 -33h-504l127 1006h499l7 -9l-13 -32l-456 2z" />
    <glyph glyph-name="f" unicode="f" horiz-adv-x="729" 
d="M256 522h201l157 2l4 -8l-10 -33h-356l-64 -483h-41l129 1006h482l2 -9l-10 -32l-437 2z" />
    <glyph glyph-name="g" unicode="g" horiz-adv-x="1050" 
d="M659 973q-238 0 -368.5 -148.5t-130.5 -418.5q0 -180 84 -277.5t226 -97.5t314 47l21 172l18 125l41 4l-18 -127l-25 -205q-197 -53 -355.5 -53t-253.5 105.5t-95 299.5q0 293 141 453t401 160q144 0 283 -84l-16 -37h-11q-135 82 -256 82z" />
    <glyph glyph-name="h" unicode="h" horiz-adv-x="1159" 
d="M926 309l-41 -309h-41l41 307l22 185h-643l-63 -492h-41l41 307l86 699h41l-60 -476h643l60 476h41z" />
    <glyph glyph-name="i" unicode="i" horiz-adv-x="477" 
d="M201 0h-41l41 307l86 699h41l-86 -697z" />
    <glyph glyph-name="j" unicode="j" horiz-adv-x="534" 
d="M362 1006l-100 -824q-14 -113 -66.5 -189.5t-164.5 -148.5l-19 27v10q98 66 147.5 136.5t61.5 166.5l96 783h-208l-7 6l11 33h249z" />
    <glyph glyph-name="k" unicode="k" horiz-adv-x="899" 
d="M793 10l-5 -8q-6 -4 -32 -14l-6 4q-248 274 -439 540v7l443 391l77 76h58l-524 -471q190 -273 428 -525zM201 0h-41l41 307l86 699h41l-86 -697z" />
    <glyph glyph-name="l" unicode="l" horiz-adv-x="718" 
d="M610 0h-452l129 1006h41l-123 -967h413l3 -6z" />
    <glyph glyph-name="m" unicode="m" horiz-adv-x="1331" 
d="M1073 0l10 307l4 608h-8l-432 -788h-47l-227 788h-8l-218 -915h-43l238 1006h49l236 -820h6l377 680l75 140h48l-19 -1006h-41z" />
    <glyph glyph-name="n" unicode="n" horiz-adv-x="1159" 
d="M881 0h-41l-516 924h-5l-118 -924h-41l129 1006h41l516 -924h8l117 922l41 4l-92 -727z" />
    <glyph glyph-name="o" unicode="o" horiz-adv-x="1091" 
d="M162 410q0 -182 82 -279.5t237 -97.5q217 0 340 150.5t123 418.5q0 180 -84 275.5t-244 95.5q-217 0 -335.5 -147.5t-118.5 -415.5zM987 608q0 -289 -133 -452.5t-371 -163.5q-176 0 -271 108.5t-95 305.5q0 287 132 447.5t372 160.5q176 0 271 -106.5t95 -299.5z" />
    <glyph glyph-name="p" unicode="p" horiz-adv-x="868" 
d="M737 760q0 199 -213 211l-198 -2l-70 -541h188q138 14 215.5 102t77.5 230zM782 764q0 -168 -104.5 -271.5t-284.5 -103.5h-141l-49 -389h-41l127 1006l229 2q125 0 194.5 -64.5t69.5 -179.5z" />
    <glyph glyph-name="q" unicode="q" horiz-adv-x="1079" 
d="M944 602q0 180 -84 275.5t-244 95.5q-217 0 -335.5 -147.5t-118.5 -415.5q0 -182 82 -279.5t237 -97.5q217 0 340 150.5t123 418.5zM117 406q0 287 132 447.5t372 160.5q176 0 271 -106.5t95 -299.5q0 -260 -107.5 -419.5t-306.5 -190.5q109 -102 249.5 -168t293.5 -84
l-2 -10l-16 -25h-8q-158 20 -304.5 94t-261.5 189l-41 -2q-176 0 -271 108.5t-95 305.5z" />
    <glyph glyph-name="r" unicode="r" horiz-adv-x="921" 
d="M739 764q0 195 -217 207l-196 -2l-66 -514l221 -2q123 31 190.5 111.5t67.5 199.5zM782 762q0 -121 -71.5 -212t-202.5 -130q104 -211 235 -410v-8l-30 -14l-13 6q-137 219 -235 418h-211l-51 -412h-41l127 1006l225 2q127 0 197.5 -62.5t70.5 -183.5z" />
    <glyph glyph-name="s" unicode="s" horiz-adv-x="792" 
d="M498.5 969q-89.5 0 -150.5 -33t-94 -85t-33 -117t49 -108q48 -44 136 -88q88 -42 133 -72q108 -71 108 -192q0 -74 -42 -138t-116.5 -103t-166.5 -39q-143 0 -240 74l4 41l10 2q94 -76 228 -76q80 0 145.5 34.5t101 91t35.5 123t-50 109.5t-138 88t-132 75
q-106 72 -106 187q0 72 40 132.5t110.5 97.5t168 37t193.5 -45l-14 -37l-12 -2q-78 43 -167.5 43z" />
    <glyph glyph-name="t" unicode="t" horiz-adv-x="841" 
d="M815 965l-164 2h-143l-123 -967h-41l123 967h-148l-165 -2l-4 8l10 33h663l2 -9z" />
    <glyph glyph-name="u" unicode="u" horiz-adv-x="1069" 
d="M205 293q1 -260 285 -260q144 0 234.5 85t111.5 244l82 644h40l-81 -646q-18 -174 -122 -270t-267 -96t-244.5 74.5t-81.5 216.5q0 37 6 75l22 148l62 498h43l-86 -644q-4 -25 -4 -69z" />
    <glyph glyph-name="v" unicode="v" horiz-adv-x="942" 
d="M381 0l-242 1006h47l11 -72l211 -873h4l460 873l35 72h47l-530 -1006h-43z" />
    <glyph glyph-name="w" unicode="w" horiz-adv-x="1490" 
d="M942 0l-164 678h-6l-348 -678h-43l-236 1006h48l8 -72l207 -871h4l352 680l-62 263h46l12 -74l205 -869h8l450 871l33 72h45l-516 -1006h-43z" />
    <glyph glyph-name="x" unicode="x" horiz-adv-x="989" 
d="M819 0h-51l-33 61l-248 424l-352 -426l-43 -59h-55l428 526l-279 480h56l28 -58l226 -393l319 385l47 66h58l-402 -490z" />
    <glyph glyph-name="y" unicode="y" horiz-adv-x="876" 
d="M434 379l-49 -379h-41l41 305l10 82l-245 619h51l12 -43l205 -519h8l360 519l25 43h51z" />
    <glyph glyph-name="z" unicode="z" horiz-adv-x="892" 
d="M94 39h516l115 2l6 -8l-10 -33h-625l-61 -2l4 35l752 934h-502l-96 -2l-7 8l11 35l108 -2h483l62 2l-6 -37z" />
    <glyph glyph-name="braceleft" unicode="{" horiz-adv-x="577" 
d="M354 -301q-168 0 -168 178q0 92 50 252q43 152 43 205q0 145 -170 166l4 37q117 14 169 77.5t52 204.5l-2 193q0 172 56 248.5t169 76.5q39 0 74 -10l6 -6l-12 -35q-55 10 -80 10q-90 0 -131 -64.5t-41 -221.5l2 -195q0 -125 -41 -193.5t-125 -101.5v-4q111 -45 110 -178
q0 -55 -46 -227t-46 -232q0 -139 127 -139q25 0 82 10l4 -35q-21 -16 -86 -16z" />
    <glyph glyph-name="bar" unicode="|" horiz-adv-x="657" 
d="M492 1616l-267 -2159h-35l-4 8l265 2151l36 4z" />
    <glyph glyph-name="braceright" unicode="}" horiz-adv-x="575" 
d="M236 1337q168 0 167 -178q0 -85 -46 -245q-46 -159 -46 -212q0 -145 170 -165l-4 -37q-117 -14 -169 -78t-52 -205l2 -192q0 -172 -56 -249t-169 -77q-39 0 -74 10l-6 6l12 35q55 -10 80 -10q90 0 131 64t41 223l-2 194q0 125 41 194t125 101v4q-111 45 -111 178
q0 56 46 228t46 231q0 139 -126 139q-25 0 -82 -10l-4 35q21 16 86 16z" />
    <glyph glyph-name="asciitilde" unicode="~" horiz-adv-x="985" 
d="M675 528q34 0 136 95h12l15 -21v-8l-133 -111l-13 -4q-47 4 -202 48t-182 44t-97 -59l-39 -35h-12l-15 19v10l131 108l13 7q25 -4 190 -46q162 -47 196 -47z" />
    <glyph glyph-name="nonbreakingspace" unicode="&#xa0;" horiz-adv-x="307" 
 />
    <glyph glyph-name="exclamdown" unicode="&#xa1;" horiz-adv-x="509" 
d="M254 899q0 41 41 41t41 -41t-41 -41t-41 41zM233 530h33l8 -10l-129 -917l-8 -6h-28l-5 6z" />
    <glyph glyph-name="cent" unicode="&#xa2;" horiz-adv-x="778" 
d="M154 378q0 -255 161 -255h2l146 854q-148 -35 -228.5 -189.5t-80.5 -409.5zM113 407q0 234 90 402t268 209l53 313h33l10 -10l-53 -297q41 4 61 4l121 -39l11 -14l-13 -29l-10 -6q-82 47 -139 47l-37 -2l-150 -858q133 27 232 205h12l16 -23q-59 -102 -122.5 -152.5
t-143.5 -66.5l-57 -323h-31l-8 8l55 309h-10q-59 10 -123.5 49.5t-64.5 273.5z" />
    <glyph glyph-name="sterling" unicode="&#xa3;" horiz-adv-x="786" 
d="M561 1169q-217 0 -250 -254l-30 -243h258l4 -8l-11 -33h-256l-45 -365q-18 -152 -108 -221v-4h385l141 2l6 -10l-10 -33h-629l-6 8l10 29q70 10 114 69.5t56 159.5l46 365h-138l-6 8l10 33h138l30 243q39 295 291 295q90 0 199 -39l-10 -38l-7 -5q-80 41 -182 41z" />
    <glyph glyph-name="currency" unicode="&#xa4;" horiz-adv-x="892" 
d="M256 720q0 -75 57.5 -134.5t132.5 -59.5t133 34t94 92t36 132t-57.5 133.5t-132.5 59.5t-133 -34t-94 -91t-36 -132zM750 763q0 -100 -88 -181l118 -136l-2 -10l-24 -20l-11 2l-116 133q-78 -66 -176.5 -66t-163.5 66l-152 -135l-10 2l-16 20l2 11l149 133
q-45 58 -45 156t88 186l-119 135l4 10l21 18h10l119 -135q78 66 174 66t166 -64l149 133l11 -2l16 -20l-2 -10l-147 -131q45 -61 45 -161z" />
    <glyph glyph-name="yen" unicode="&#xa5;" horiz-adv-x="937" 
d="M893 567l-10 -35h-314l-106 -153l-8 -72h399l6 -6l-10 -35h-401l-35 -266h-41l35 266h-371l-4 6l8 35h373l10 80l-59 145h-295l-4 7l8 34h274l-176 433h51l13 -43l210 -519h9l366 519l27 43h51l-301 -433h289z" />
    <glyph glyph-name="brokenbar" unicode="&#xa6;" horiz-adv-x="657" 
d="M225 -543h-35l-4 8l105 857l35 6l6 -11zM385 754l-35 -4l-6 6l107 860l36 4l5 -4z" />
    <glyph glyph-name="section" unicode="&#xa7;" horiz-adv-x="833" 
d="M182 616.5q0 -67.5 48.5 -126t139.5 -138.5t111 -102q203 96 203 237q0 72 -48 132.5t-139 140.5t-112 102q-96 -49 -149.5 -113.5t-53.5 -132zM590 1270q-80 0 -137.5 -32t-88 -81t-30.5 -106t44 -111.5t142 -140.5t151.5 -155t53.5 -152q0 -162 -217 -273
q70 -84 70 -161t-43 -138t-117 -98t-184 -37t-203 72l10 34l12 7q88 -72 209 -72q80 0 142.5 31.5t96.5 82t34 112.5t-46.5 119.5t-144.5 142.5t-150.5 150.5t-52.5 147.5t58.5 154t158.5 125q-68 82 -68 157t41.5 134t111 94t156.5 35t179 -41l-12 -39l-12 -2
q-84 41 -164 41z" />
    <glyph glyph-name="dieresis" unicode="&#xa8;" 
d="M686 1221q0 -41 -41 -41t-41 41t41 41t41 -41zM379 1221q0 -41 -41 -41t-41 41t41 41t41 -41z" />
    <glyph glyph-name="copyright" unicode="&#xa9;" horiz-adv-x="1409" 
d="M726 911q-118 0 -186.5 -78.5t-68.5 -228t66.5 -228.5t184.5 -79t208 65l8 -2l-4 -38q-106 -66 -209 -66q-143 0 -219 90t-76 258t79 258t228 90q109 0 201 -59l-10 -37h-10q-74 55 -192 55zM164 600q0 -174 68.5 -306t194.5 -205t292 -73t292 73t195.5 205t69.5 306
t-69.5 306t-195.5 205t-292 73t-292 -73t-194.5 -205t-68.5 -306zM1317 600q0 -186 -75 -327.5t-210 -219.5t-313 -78t-313.5 78t-209 219.5t-73.5 327.5t73.5 327.5t209 219.5t313.5 78t313 -78t210 -219.5t75 -327.5z" />
    <glyph glyph-name="ordfeminine" unicode="&#xaa;" horiz-adv-x="612" 
d="M186 911q0 -75 18 -113t34 -38q14 0 59 50q114 126 225 347l13 117l-82 6q-121 -2 -194 -110t-73 -259zM522 856l-10 -139l-47 -6l45 346h-8q-117 -219 -260 -346h-17q-43 27 -60 69t-18 121q0 168 81 286t225 130h6l88 -8l28 12l9 -4z" />
    <glyph glyph-name="guillemotleft" unicode="&#xab;" horiz-adv-x="745" 
d="M399 473l359 338l22 -18l-2 -13l-336 -323l258 -324l-2 -12l-26 -19l-277 349zM100 473l359 338l22 -18l-2 -13l-336 -323l258 -324l-2 -12l-26 -19l-277 349z" />
    <glyph glyph-name="logicalnot" unicode="&#xac;" horiz-adv-x="983" 
d="M813 145l-35 -4l-6 6l47 385h-733l-4 7l8 34h764l10 -12z" />
    <glyph glyph-name="softhyphen" unicode="&#xad;" horiz-adv-x="638" 
d="M584 535l-512 -68l-6 8l4 33l510 67l6 -8z" />
    <glyph glyph-name="registered" unicode="&#xae;" horiz-adv-x="884" 
d="M451 1081q74 25 73 90q0 76 -88 80l-65 -2l-2 -164zM369 1044v-26l2 -123h-45v393h120q123 0 123 -112q0 -88 -84 -123q53 -84 109 -150v-6l-43 -8q-19 13 -111 155h-71zM766 1077.5q0 145.5 -88 233.5t-233.5 88t-234.5 -88t-89 -233.5t89 -234.5t234.5 -89t233.5 89
t88 234.5zM805 1077q0 -164 -98.5 -263t-262 -99t-263 99t-99.5 263t99.5 262.5t263 98.5t262 -98.5t98.5 -262.5z" />
    <glyph glyph-name="macron" unicode="&#xaf;" 
d="M788 1202h-587l-6 6l4 35h587l7 -6z" />
    <glyph glyph-name="degree" unicode="&#xb0;" horiz-adv-x="604" 
d="M166 1042q0 -66 54 -121t122 -55t122 31t87 82t33 119t-53 122t-121 54t-122.5 -31t-88 -83t-33.5 -118zM627 1104q0 -84 -39 -145.5t-103.5 -97.5t-149.5 -36t-147.5 62.5t-62.5 146.5t39 145.5t104.5 98.5t149.5 37t146.5 -63.5t62.5 -147.5z" />
    <glyph glyph-name="plusminus" unicode="&#xb1;" horiz-adv-x="980" 
d="M524 573h383l6 -6l-8 -35h-387l-47 -387l-35 -4l-6 6l47 385h-383l-6 7l8 34h387l47 388l35 4l6 -7zM827 -133h-813l-6 6l4 35h813l6 -6z" />
    <glyph glyph-name="twosuperior" unicode="&#xb2;" horiz-adv-x="688" 
d="M633 1300q0 -62 -50 -134q-50 -71 -180 -208l-221 -237l4 -4h359l125 2l2 -8l-10 -35l-134 2h-346l-59 -2l-4 4l4 31l252 268q123 131 169 193t46 114t-35 82q-35 31 -96 31q-127 0 -234 -117h-6l-4 35q111 121 252 121q74 0 120 -38t46 -100z" />
    <glyph glyph-name="threesuperior" unicode="&#xb3;" horiz-adv-x="602" 
d="M555 1302q0 -62 -47 -120q-47 -57 -123 -90v-5q78 -16 120 -60t42 -109q0 -106 -90 -176t-228 -68q-61 0 -120 12v33l4 4q66 -10 123 -10q118 0 194 55t76 135q0 154 -205 162h-68l-4 4l7 31h59q43 0 94 26t86 69q35 44 35 95t-36 81t-110 30t-171 -80h-7l-4 35
q104 84 192 84t135 -38q46 -38 46 -100z" />
    <glyph glyph-name="acute" unicode="&#xb4;" 
d="M657 1348l-2 -11q-141 -141 -295 -276l-10 2l-22 27q141 119 299 280l10 -2z" />
    <glyph glyph-name="glyph119" unicode="&#xb5;" horiz-adv-x="937" 
d="M260 31q53 0 185 174t292 471l8 65l15 185l51 8l-94 -717l-19 -217l-51 -8l74 555h-10q-133 -229 -235 -367t-202 -203h-22q-53 16 -78 62l-27 -211l-18 -217l-51 -8l147 1138l13 185l51 8l-101 -780q-6 -53 19 -88t53 -35z" />
    <glyph glyph-name="paragraph" unicode="&#xb6;" horiz-adv-x="917" 
d="M203 902q0 -292 319 -351l-12 -41q-168 29 -258 121t-90 246q0 201 116.5 314.5t325.5 113.5h336l6 -9l-10 -32h-166l-125 -1014q-27 -223 -301 -389l-18 22l2 13q252 154 276 346l125 1022h-145q-180 -10 -280.5 -110t-100.5 -252z" />
    <glyph glyph-name="periodcentered" unicode="&#xb7;" horiz-adv-x="471" 
d="M279 487q0 -41 -41 -41t-41 41t41 41t41 -41z" />
    <glyph glyph-name="cedilla" unicode="&#xb8;" 
d="M387 -261q0 28 -11 41t-38 32l-88 57l49 154h41l-43 -136l63 -41q68 -43 68 -97t-36 -84t-100 -30t-108 68l13 37h8q39 -64 100 -64q37 0 59.5 17.5t22.5 45.5z" />
    <glyph glyph-name="onesuperior" unicode="&#xb9;" horiz-adv-x="491" 
d="M401 1436l-94 -758h-41l88 713l-207 -56l-8 4l4 33l252 72z" />
    <glyph glyph-name="ordmasculine" unicode="&#xba;" horiz-adv-x="577" 
d="M186 908q0 -162 104 -163q104 0 170 108q65 108 64 273q0 80 -24 118q-25 38 -80 38q-104 0 -169 -106t-65 -268zM565 1129q1 -178 -73 -295t-201 -125h-8q-72 4 -105 50t-33 140q0 182 75 300t204 120h6q135 -12 135 -190z" />
    <glyph glyph-name="guillemotright" unicode="&#xbb;" horiz-adv-x="727" 
d="M651 440l-358 -338l-23 19l2 12l336 324l-258 323l2 13l27 18l276 -348zM352 440l-358 -338l-23 19l2 12l336 324l-258 323l2 13l27 18l276 -348z" />
    <glyph glyph-name="onequarter" unicode="&#xbc;" horiz-adv-x="1271" 
d="M1032 690h-6l-356 -409h311zM1157 242l-102 2h-39l-27 -240l-6 -4l-33 -4l-4 4l31 244h-287l-63 -2l-6 6l4 31l415 477h39l-59 -475h141l6 -7zM125 1210l4 33l252 72l6 -8l-94 -758h-41l88 713l-207 -56zM-63 -184l-17 8l-6 18l1180 1528l20 -10l4 -17z" />
    <glyph glyph-name="onehalf" unicode="&#xbd;" horiz-adv-x="1273" 
d="M1133 622q0 -62 -50.5 -133t-179.5 -208l-221 -238l4 -4h358l125 2l2 -8l-10 -35l-133 2h-346l-59 -2l-5 4l5 31l251 268q123 131 169.5 193.5t46.5 113.5t-35 82t-97 31q-127 0 -233 -117h-6l-4 35q111 121 252 121q73 0 119.5 -38t46.5 -100zM387 1307l-94 -758h-41
l88 713l-207 -56l-8 4l4 33l252 72zM1118 1343l-1181 -1527l-17 8l-6 18l1180 1528l20 -10z" />
    <glyph glyph-name="threequarters" unicode="&#xbe;" horiz-adv-x="1382" 
d="M1143 690h-6l-357 -409h312zM1268 242l-103 2h-39l-26 -240l-6 -4l-33 -4l-4 4l30 244h-286l-64 -2l-6 6l4 31l416 477h39l-60 -475h142l6 -7zM213 545q-63 0 -121 12v33l4 4q66 -10 123 -10q119 0 194.5 55t75.5 135q0 154 -204 162h-68l-4 4l6 31h60q43 0 94 25.5
t86 69.5t35 95t-36 81t-110 30t-172 -80h-6l-4 35q104 84 192 84t134.5 -38.5t46.5 -100.5t-47.5 -119.5t-122.5 -89.5v-5q78 -16 119.5 -60t41.5 -110q0 -106 -90 -174.5t-227 -68.5zM47 -184l-16 8l-6 18l1179 1528l21 -10l4 -17z" />
    <glyph glyph-name="questiondown" unicode="&#xbf;" horiz-adv-x="661" 
d="M385 899q0 41 41 41t41 -41t-41 -41t-41 41zM-43 -115q0 166 193 289l212 135l5 6l16 222l35 2l4 -9l-14 -229l-13 -18l-225 -142q-170 -106 -170 -247q0 -111 104 -179t302 -80l4 -6l-15 -26l-14 -6q-198 16 -311 92t-113 196z" />
    <glyph glyph-name="Agrave" unicode="&#xc0;" horiz-adv-x="1073" 
d="M651 1235h-6l-377 -758h549zM915 0l-12 88l-76 348h-579l-174 -348l-41 -88h-49l653 1305h43l283 -1305h-48zM881 1520l-15 -31l-10 -6q-219 113 -356 190l-4 10l14 25l10 4q175 -102 361 -192z" />
    <glyph glyph-name="Aacute" unicode="&#xc1;" horiz-adv-x="1073" 
d="M651 1235h-6l-377 -758h549zM915 0l-12 88l-76 348h-579l-174 -348l-41 -88h-49l653 1305h43l283 -1305h-48zM903 1683l-4 -10q-137 -78 -356 -190l-11 6l-14 31q186 90 361 192l10 -4z" />
    <glyph glyph-name="Acircumflex" unicode="&#xc2;" horiz-adv-x="1073" 
d="M651 1235h-6l-377 -758h549zM915 0l-12 88l-76 348h-579l-174 -348l-41 -88h-49l653 1305h43l283 -1305h-48zM688 1692h33q123 -106 186 -156l-16 -29h-10q-82 59 -179 144q-96 -72 -210 -144h-11l-10 29q90 58 217 156z" />
    <glyph glyph-name="Atilde" unicode="&#xc3;" horiz-adv-x="1073" 
d="M651 1235h-6l-377 -758h549zM915 0l-12 88l-76 348h-579l-174 -348l-41 -88h-49l653 1305h43l283 -1305h-48zM540 1618q-19 0 -65 -45l-43 -39h-8l-18 22v9l106 96l12 4q41 -4 169 -41q127 -37 147 -37t65 45l43 39h8l19 -22v-9l-107 -96l-12 -4q-41 4 -169 41t-147 37z
" />
    <glyph glyph-name="Adieresis" unicode="&#xc4;" horiz-adv-x="1073" 
d="M651 1235h-6l-377 -758h549zM915 0l-12 88l-76 348h-579l-174 -348l-41 -88h-49l653 1305h43l283 -1305h-48zM885 1599q0 -41 -41 -41t-41 42q0 40 41 40t41 -41zM578 1599q0 -41 -41 -41t-41 42q0 40 41 40t41 -41z" />
    <glyph glyph-name="Aring" unicode="&#xc5;" horiz-adv-x="1073" 
d="M651 1235h-6l-377 -758h549zM915 0l-12 88l-76 348h-579l-174 -348l-41 -88h-49l653 1305h43l283 -1305h-48zM688 1503q43 0 74 27t31 72q0 44 -28 74t-76 30t-76 -28q-27 -28 -27 -74t30 -73q30 -28 72 -28zM834 1601q0 -59 -44 -99t-102 -40t-100 40q-43 40 -43 102
t40 103q39 40 105 40t105 -43t39 -103z" />
    <glyph glyph-name="AE" unicode="&#xc6;" horiz-adv-x="1523" 
d="M788 1233h-6l-450 -680l475 82zM825 0v88l-16 506l-510 -88l-276 -418l-54 -88h-55l872 1305h584l4 -9l-14 -32h-529l19 -623l465 80l4 -6l-10 -35l-459 -78l16 -561h555l2 -8l-12 -33h-586z" />
    <glyph glyph-name="Ccedilla" unicode="&#xc7;" horiz-adv-x="1017" 
d="M629 -261q0 28 -11.5 41t-37.5 32l-88 57l38 121q-203 2 -310 137t-107 385t71.5 429t206.5 275.5t327 96.5t326 -121l-18 -35h-14q-121 115 -298 115t-303 -91q-257 -186 -257 -663q0 -236 97 -361.5t287 -125.5t365 137l15 -4l-9 -37q-172 -123 -338 -135l-32 -105
l63 -41q68 -43 68 -97t-36 -84t-99.5 -30t-108.5 68l12 37h8q39 -64 101 -64q37 0 59.5 17.5t22.5 45.5z" />
    <glyph glyph-name="Egrave" unicode="&#xc8;" horiz-adv-x="884" 
d="M293 696h457l6 -8l-13 -33h-454l-78 -614h559l6 -8l-12 -33h-600l164 1305h596l4 -9l-13 -32h-550zM864 1520l-14 -31l-10 -6q-219 113 -357 190l-4 10l15 25l10 4q174 -102 360 -192z" />
    <glyph glyph-name="Eacute" unicode="&#xc9;" horiz-adv-x="884" 
d="M293 696h457l6 -8l-13 -33h-454l-78 -614h559l6 -8l-12 -33h-600l164 1305h596l4 -9l-13 -32h-550zM887 1683l-4 -10q-137 -78 -357 -190l-10 6l-14 31q186 90 360 192l10 -4z" />
    <glyph glyph-name="Ecircumflex" unicode="&#xca;" horiz-adv-x="884" 
d="M293 696h457l6 -8l-13 -33h-454l-78 -614h559l6 -8l-12 -33h-600l164 1305h596l4 -9l-13 -32h-550zM672 1692h33q123 -106 186 -156l-17 -29h-10q-82 59 -178 144q-96 -72 -211 -144h-10l-10 29q90 58 217 156z" />
    <glyph glyph-name="Edieresis" unicode="&#xcb;" horiz-adv-x="884" 
d="M293 696h457l6 -8l-13 -33h-454l-78 -614h559l6 -8l-12 -33h-600l164 1305h596l4 -9l-13 -32h-550zM868 1599q0 -41 -41 -41t-41 42q0 40 41 40t41 -41zM561 1599q0 -41 -41 -41t-41 42q0 40 41 40t41 -41z" />
    <glyph glyph-name="Igrave" unicode="&#xcc;" horiz-adv-x="481" 
d="M205 0h-41l164 1305h41zM571 1520l-14 -31l-10 -6q-219 113 -357 190l-4 10l15 25l10 4q174 -102 360 -192z" />
    <glyph glyph-name="Iacute" unicode="&#xcd;" horiz-adv-x="481" 
d="M205 0h-41l164 1305h41zM594 1683l-4 -10q-137 -78 -357 -190l-10 6l-14 31q186 90 360 192l11 -4z" />
    <glyph glyph-name="Icircumflex" unicode="&#xce;" horiz-adv-x="481" 
d="M205 0h-41l164 1305h41zM379 1692h33q123 -106 186 -156l-16 -29h-11q-82 59 -178 144q-96 -72 -211 -144h-10l-10 29q90 58 217 156z" />
    <glyph glyph-name="Eth" unicode="&#xd0;" horiz-adv-x="1290" 
d="M1184 796.5q0 231.5 -110.5 354.5t-319.5 123q-160 0 -348 -10l-72 -570h368l5 -6l-7 -35h-372l-78 -614l330 -8q188 0 324 94t208 267t72 404.5zM1227 804q0 -247 -77 -430.5t-224.5 -283.5t-352.5 -100q-154 0 -368 10l82 653h-221l-3 6l5 35h225l76 611l389 10
q227 0 348 -132t121 -379z" />
    <glyph glyph-name="Ntilde" unicode="&#xd1;" horiz-adv-x="1310" 
d="M1030 0h-39l-622 1219h-9l-155 -1219h-41l166 1305h39l622 -1219h8l158 1217l41 4zM646 1618q-20 0 -64 -45l-43 -39h-9l-18 22v9l106 96l13 4q41 -4 169 -41t147 -37t65 45l43 39h8l18 -22v-9l-106 -96l-12 -4q-41 4 -169 41t-148 37z" />
    <glyph glyph-name="Ograve" unicode="&#xd2;" horiz-adv-x="1226" 
d="M544 31q184 0 312 93q129 93 197 264q67 172 67 404t-100 357t-286 125t-314 -90q-127 -90 -195 -259q-67 -169 -67 -403t101 -362t285 -129zM540 -10q-202 0 -314 137t-112 388q1 510 282 705q138 95 341 95t315 -133t112 -382t-74 -431q-72 -183 -210 -281t-340 -98z
M944 1520l-14 -31l-10 -6q-219 113 -357 190l-4 10l14 25l11 4q174 -102 360 -192z" />
    <glyph glyph-name="Oacute" unicode="&#xd3;" horiz-adv-x="1226" 
d="M544 31q184 0 312 93q129 93 197 264q67 172 67 404t-100 357t-286 125t-314 -90q-127 -90 -195 -259q-67 -169 -67 -403t101 -362t285 -129zM540 -10q-202 0 -314 137t-112 388q1 510 282 705q138 95 341 95t315 -133t112 -382t-74 -431q-72 -183 -210 -281t-340 -98z
M967 1683l-4 -10q-137 -78 -357 -190l-10 6l-14 31q186 90 360 192l10 -4z" />
    <glyph glyph-name="Ocircumflex" unicode="&#xd4;" horiz-adv-x="1226" 
d="M544 31q184 0 312 93q129 93 197 264q67 172 67 404t-100 357t-286 125t-314 -90q-127 -90 -195 -259q-67 -169 -67 -403t101 -362t285 -129zM540 -10q-202 0 -314 137t-112 388q1 510 282 705q138 95 341 95t315 -133t112 -382t-74 -431q-72 -183 -210 -281t-340 -98z
M752 1692h32q123 -106 187 -156l-17 -29h-10q-82 59 -178 144q-96 -72 -211 -144h-10l-10 29q90 58 217 156z" />
    <glyph glyph-name="Otilde" unicode="&#xd5;" horiz-adv-x="1226" 
d="M544 31q184 0 312 93q129 93 197 264q67 172 67 404t-100 357t-286 125t-314 -90q-127 -90 -195 -259q-67 -169 -67 -403t101 -362t285 -129zM540 -10q-202 0 -314 137t-112 388q1 510 282 705q138 95 341 95t315 -133t112 -382t-74 -431q-72 -183 -210 -281t-340 -98z
M604 1618q-20 0 -65 -45l-43 -39h-9l-18 22v9l106 96l13 4q41 -4 169 -41t147 -37t65 45l43 39h8l18 -22v-9l-106 -96l-12 -4q-41 4 -169 41q-127 37 -147 37z" />
    <glyph glyph-name="multiply" unicode="&#xd7;" horiz-adv-x="985" 
d="M838 825l-306 -272l238 -272v-9l-29 -22l-241 274l-307 -274l-25 22v9l307 272l-239 272l2 9l28 22l240 -274l309 274l25 -22z" />
    <glyph glyph-name="Oslash" unicode="&#xd8;" horiz-adv-x="1228" 
d="M1120 793q0 281 -141 399l-627 -1114q84 -47 197 -47q178 0 307 93t196.5 264t67.5 405zM158 524q0 -303 164 -426l626 1116q-90 59 -245.5 59.5t-282.5 -89.5t-194.5 -259t-67.5 -401zM1163 801q0 -250 -72.5 -432.5t-211 -280.5t-332.5 -98q-125 0 -215 49l-123 -217
l-31 6l-4 8l125 223q-184 129 -184 459q-1 508 281 702q138 96 307 95.5t266 -62.5l112 199l33 -6l2 -10l-115 -205q162 -131 162 -430z" />
    <glyph glyph-name="Ugrave" unicode="&#xd9;" horiz-adv-x="1193" 
d="M556 -8q-194 0 -292 95t-98 273q0 59 8 109l27 190l82 646h41l-109 -836q-8 -70 -8 -100q0 -162 87 -249t261 -87q174 1 287 113t141 323l104 836h41l-84 -666l-20 -170q-22 -227 -148 -352t-320 -125zM928 1520l-15 -31l-10 -6q-219 113 -356 190l-4 10l14 25l10 4
q175 -102 361 -192z" />
    <glyph glyph-name="Uacute" unicode="&#xda;" horiz-adv-x="1193" 
d="M556 -8q-194 0 -292 95t-98 273q0 59 8 109l27 190l82 646h41l-109 -836q-8 -70 -8 -100q0 -162 87 -249t261 -87q174 1 287 113t141 323l104 836h41l-84 -666l-20 -170q-22 -227 -148 -352t-320 -125zM950 1683l-4 -10q-137 -78 -356 -190l-10 6l-15 31q186 90 361 192
l10 -4z" />
    <glyph glyph-name="Ucircumflex" unicode="&#xdb;" horiz-adv-x="1193" 
d="M556 -8q-194 0 -292 95t-98 273q0 59 8 109l27 190l82 646h41l-109 -836q-8 -70 -8 -100q0 -162 87 -249t261 -87q174 1 287 113t141 323l104 836h41l-84 -666l-20 -170q-22 -227 -148 -352t-320 -125zM735 1692h33q123 -106 186 -156l-16 -29h-10q-82 59 -178 144
q-96 -72 -211 -144h-11l-10 29q90 58 217 156z" />
    <glyph glyph-name="Udieresis" unicode="&#xdc;" horiz-adv-x="1193" 
d="M556 -8q-194 0 -292 95t-98 273q0 59 8 109l27 190l82 646h41l-109 -836q-8 -70 -8 -100q0 -162 87 -249t261 -87q174 1 287 113t141 323l104 836h41l-84 -666l-20 -170q-22 -227 -148 -352t-320 -125zM932 1599q0 -41 -41 -41t-41 42q0 40 41 40t41 -41zM625 1599
q0 -41 -41 -41t-41 42q0 40 41 40t41 -41z" />
    <glyph glyph-name="Thorn" unicode="&#xde;" horiz-adv-x="956" 
d="M838 741q0 127 -66.5 198t-191.5 77l-248 -2l-88 -715h229q170 16 267.5 136t97.5 306zM879 750q0 -231 -123 -361.5t-348 -130.5h-170l-33 -258h-41l164 1305h41l-31 -252l231 4q150 0 230 -80t80 -227z" />
    <glyph glyph-name="germandbls" unicode="&#xdf;" horiz-adv-x="1040" 
d="M358 109q88 -76 240 -76q68 0 131.5 33.5t100 90t36.5 124.5q0 195 -352 231l-4 25l354 364q-131 70 -268 70t-233.5 -79t-112.5 -210l-45 -373l-41 -309h-41l86 682q20 147 128.5 237.5t260.5 90.5t317 -86l5 -19l-345 -356q332 -51 332 -262q0 -84 -43 -150.5
t-117.5 -104.5t-151.5 -38q-158 0 -257 74l12 38z" />
    <glyph glyph-name="agrave" unicode="&#xe0;" horiz-adv-x="968" 
d="M557 944h-6l-303 -575h448zM780 0l-12 72l-61 258h-480l-135 -258l-33 -72h-47l527 1006h45l243 -1006h-47zM739 1169l-22 -26l-10 -2q-154 135 -295 276l-2 10l20 21l10 2q158 -162 299 -281z" />
    <glyph glyph-name="aacute" unicode="&#xe1;" horiz-adv-x="968" 
d="M557 944h-6l-303 -575h448zM780 0l-12 72l-61 258h-480l-135 -258l-33 -72h-47l527 1006h45l243 -1006h-47zM766 1427l-2 -10q-141 -141 -295 -276l-10 2l-23 26q141 119 299 281l10 -2z" />
    <glyph glyph-name="acircumflex" unicode="&#xe2;" horiz-adv-x="968" 
d="M557 944h-6l-303 -575h448zM780 0l-12 72l-61 258h-480l-135 -258l-33 -72h-47l527 1006h45l243 -1006h-47zM604 1407h37q94 -152 176 -258l-22 -25h-11q-80 102 -166 240q-121 -139 -225 -240h-10l-16 25q75 74 237 258z" />
    <glyph glyph-name="atilde" unicode="&#xe3;" horiz-adv-x="968" 
d="M557 944h-6l-303 -575h448zM780 0l-12 72l-61 258h-480l-135 -258l-33 -72h-47l527 1006h45l243 -1006h-47zM446 1319q-20 0 -65 -45l-43 -39h-8l-19 22v9l107 96l12 4q41 -4 169 -41q127 -37 147 -37t65 45l43 39h8l19 -22v-9l-107 -96l-12 -4q-41 4 -169 41
q-127 37 -147 37z" />
    <glyph glyph-name="adieresis" unicode="&#xe4;" horiz-adv-x="968" 
d="M557 944h-6l-303 -575h448zM780 0l-12 72l-61 258h-480l-135 -258l-33 -72h-47l527 1006h45l243 -1006h-47zM791 1300q0 -40 -41 -40t-41 40t41 41q41 0 41 -41zM483 1300q0 -40 -41 -40t-41 40t41 41q41 0 41 -41z" />
    <glyph glyph-name="aring" unicode="&#xe5;" horiz-adv-x="968" 
d="M557 944h-6l-303 -575h448zM780 0l-12 72l-61 258h-480l-135 -258l-33 -72h-47l527 1006h45l243 -1006h-47zM594 1204q43 0 74 27q30 27 30 72t-28 75t-75 29q-48 0 -76 -28q-27 -27 -27 -73t30 -74t72 -28zM739 1302q0 -60 -44 -100t-101 -39q-57 0 -100 40
q-43 41 -43 103t39 102q40 40 106 40t104 -43q39 -43 39 -103z" />
    <glyph glyph-name="ae" unicode="&#xe6;" horiz-adv-x="1343" 
d="M674 942h-6l-365 -514l391 64zM1202 0h-493l4 72l-17 381l-424 -72l-219 -309l-43 -72h-53l713 1006h491l4 -9l-12 -32l-436 2l18 -469l381 61l4 -4l-8 -35l-377 -59l17 -422h458l2 -6z" />
    <glyph glyph-name="ccedilla" unicode="&#xe7;" horiz-adv-x="917" 
d="M549 -269q0 28 -11.5 41t-37.5 31l-88 58l43 131q-164 8 -250 113.5t-86 295.5q0 287 129 449t366 162q160 0 273 -90l-17 -37h-12q-100 88 -246 88q-215 0 -332.5 -149.5t-117.5 -417.5q0 -180 80 -277.5t234.5 -97.5t301.5 104l10 -4l-8 -37q-139 -96 -284 -102
l-37 -113l63 -41q68 -43 68 -97t-36 -84t-99.5 -30t-108.5 68l12 37h9q39 -64 100 -64q37 0 59.5 17.5t22.5 45.5z" />
    <glyph glyph-name="egrave" unicode="&#xe8;" horiz-adv-x="813" 
d="M268 541h379l4 -9l-10 -32h-377l-59 -461h465l6 -6l-12 -33h-504l127 1006h499l7 -9l-13 -32l-456 2zM715 1169l-23 -26l-10 -2q-154 135 -295 276l-2 10l21 21l10 2q158 -162 299 -281z" />
    <glyph glyph-name="eacute" unicode="&#xe9;" horiz-adv-x="813" 
d="M268 541h379l4 -9l-10 -32h-377l-59 -461h465l6 -6l-12 -33h-504l127 1006h499l7 -9l-13 -32l-456 2zM741 1427l-2 -10q-141 -141 -295 -276l-10 2l-22 26q141 119 299 281l10 -2z" />
    <glyph glyph-name="ecircumflex" unicode="&#xea;" horiz-adv-x="813" 
d="M268 541h379l4 -9l-10 -32h-377l-59 -461h465l6 -6l-12 -33h-504l127 1006h499l7 -9l-13 -32l-456 2zM580 1407h36q94 -152 177 -258l-23 -25h-10q-80 102 -166 240q-121 -139 -225 -240h-11l-16 25q76 74 238 258z" />
    <glyph glyph-name="edieresis" unicode="&#xeb;" horiz-adv-x="813" 
d="M268 541h379l4 -9l-10 -32h-377l-59 -461h465l6 -6l-12 -33h-504l127 1006h499l7 -9l-13 -32l-456 2zM766 1300q0 -40 -41 -40t-41 40t41 41q41 0 41 -41zM459 1300q0 -40 -41 -40t-41 40t41 41q41 0 41 -41z" />
    <glyph glyph-name="igrave" unicode="&#xec;" horiz-adv-x="477" 
d="M201 0h-41l41 307l86 699h41l-86 -697zM489 1169l-22 -26l-10 -2q-154 135 -295 276l-2 10l20 21l10 2q158 -162 299 -281z" />
    <glyph glyph-name="iacute" unicode="&#xed;" horiz-adv-x="477" 
d="M201 0h-41l41 307l86 699h41l-86 -697zM516 1427l-2 -10q-141 -141 -295 -276l-10 2l-23 26q141 119 299 281l11 -2z" />
    <glyph glyph-name="icircumflex" unicode="&#xee;" horiz-adv-x="477" 
d="M201 0h-41l41 307l86 699h41l-86 -697zM354 1407h37q94 -152 176 -258l-22 -25h-10q-80 102 -166 240q-121 -139 -226 -240h-10l-16 25q75 74 237 258z" />
    <glyph glyph-name="eth" unicode="&#xf0;" horiz-adv-x="1112" 
d="M965 608q0 176 -92.5 270.5t-264.5 94.5l-282 -8l-58 -445h283l4 -6l-6 -35h-287l-55 -440q135 -8 270 -8q230 0 359 154.5t129 422.5zM1008 612q0 -289 -141.5 -454.5t-395.5 -165.5q-170 0 -309 8l61 479h-200l-5 6l7 35h202l62 486l321 8q191 0 294.5 -105.5
t103.5 -296.5z" />
    <glyph glyph-name="ntilde" unicode="&#xf1;" horiz-adv-x="1159" 
d="M881 0h-41l-516 924h-5l-118 -924h-41l129 1006h41l516 -924h8l117 922l41 4l-92 -727zM530 1319q-20 0 -65 -45l-43 -39h-8l-19 22v9l107 96l12 4q41 -4 169 -41q127 -37 147 -37t65 45l43 39h8l19 -22v-9l-107 -96l-12 -4q-41 4 -169 41q-127 37 -147 37z" />
    <glyph glyph-name="ograve" unicode="&#xf2;" horiz-adv-x="1091" 
d="M162 410q0 -182 82 -280t237 -97q217 1 340 151t123 418q0 180 -84 276t-244 95q-216 -1 -335 -148t-119 -415zM987 608q0 -288 -133 -452t-371 -164q-176 0 -271 108t-95 306q0 288 132 448t372 160q176 -1 271 -107t95 -299zM788 1169l-22 -26l-10 -2
q-154 135 -295 276l-2 10l20 21l10 2q158 -162 299 -281z" />
    <glyph glyph-name="oacute" unicode="&#xf3;" horiz-adv-x="1091" 
d="M162 410q0 -182 82 -280t237 -97q217 1 340 151t123 418q0 180 -84 276t-244 95q-216 -1 -335 -148t-119 -415zM987 608q0 -288 -133 -452t-371 -164q-176 0 -271 108t-95 306q0 288 132 448t372 160q176 -1 271 -107t95 -299zM815 1427l-2 -10q-141 -141 -295 -276
l-10 2l-23 26q141 119 299 281l11 -2z" />
    <glyph glyph-name="ocircumflex" unicode="&#xf4;" horiz-adv-x="1091" 
d="M162 410q0 -182 82 -280t237 -97q217 1 340 151t123 418q0 180 -84 276t-244 95q-216 -1 -335 -148t-119 -415zM987 608q0 -288 -133 -452t-371 -164q-176 0 -271 108t-95 306q0 288 132 448t372 160q176 -1 271 -107t95 -299zM653 1407h37q94 -152 176 -258l-22 -25h-10
q-80 102 -166 240q-121 -139 -226 -240h-10l-16 25q75 74 237 258z" />
    <glyph glyph-name="otilde" unicode="&#xf5;" horiz-adv-x="1091" 
d="M162 410q0 -182 82 -280t237 -97q217 1 340 151t123 418q0 180 -84 276t-244 95q-216 -1 -335 -148t-119 -415zM987 608q0 -288 -133 -452t-371 -164q-176 0 -271 108t-95 306q0 288 132 448t372 160q176 -1 271 -107t95 -299zM495 1319q-19 0 -65 -45l-43 -39h-8l-19 22
v9l107 96l12 4q41 -4 169 -41t148 -37t64 45l43 39h8l19 -22v-9l-107 -96l-12 -4q-41 4 -169 41t-147 37z" />
    <glyph glyph-name="divide" unicode="&#xf7;" horiz-adv-x="980" 
d="M907 532h-813l-6 7l4 34h813l6 -6zM498 180q0 -41 -41 -41t-41 41t41 41t41 -41zM588 924q0 -41 -41 -41t-41 41t41 41t41 -41z" />
    <glyph glyph-name="oslash" unicode="&#xf8;" horiz-adv-x="1091" 
d="M944 586q0 252 -143 342l-475 -862q66 -33 155 -33q217 0 340 150.5t123 402.5zM616 973q-217 0 -335.5 -147.5t-118.5 -397.5t129 -342l473 860q-61 27 -148 27zM987 593.5q0 -274.5 -133 -438t-371 -163.5q-102 0 -176 37l-106 -193l-33 12l-4 9l106 192
q-154 104 -153.5 374t132.5 430.5t372 160.5q92 0 163 -31l90 164l33 -10l4 -11l-90 -161q166 -97 166 -371.5z" />
    <glyph glyph-name="ugrave" unicode="&#xf9;" horiz-adv-x="1069" 
d="M205 293q1 -261 285 -261q144 0 234 86q91 85 112 244l82 644h40l-81 -646q-17 -174 -121 -270t-268 -96t-244 75q-82 75 -82 216q0 37 6 75l22 148l62 498h43l-86 -644q-4 -25 -4 -69zM778 1169l-22 -26l-11 -2q-154 135 -294 276l-2 10l20 21l10 2q158 -162 299 -281z
" />
    <glyph glyph-name="uacute" unicode="&#xfa;" horiz-adv-x="1069" 
d="M205 293q1 -261 285 -261q144 0 234 86q91 85 112 244l82 644h40l-81 -646q-17 -174 -121 -270t-268 -96t-244 75q-82 75 -82 216q0 37 6 75l22 148l62 498h43l-86 -644q-4 -25 -4 -69zM805 1427l-2 -10q-141 -141 -295 -276l-10 2l-23 26q141 119 299 281l10 -2z" />
    <glyph glyph-name="ucircumflex" unicode="&#xfb;" horiz-adv-x="1069" 
d="M205 293q1 -261 285 -261q144 0 234 86q91 85 112 244l82 644h40l-81 -646q-17 -174 -121 -270t-268 -96t-244 75q-82 75 -82 216q0 37 6 75l22 148l62 498h43l-86 -644q-4 -25 -4 -69zM643 1407h37q94 -152 176 -258l-22 -25h-11q-80 102 -166 240q-121 -139 -225 -240
h-10l-16 25q75 74 237 258z" />
    <glyph glyph-name="udieresis" unicode="&#xfc;" horiz-adv-x="1069" 
d="M205 293q1 -261 285 -261q144 0 234 86q91 85 112 244l82 644h40l-81 -646q-17 -174 -121 -270t-268 -96t-244 75q-82 75 -82 216q0 37 6 75l22 148l62 498h43l-86 -644q-4 -25 -4 -69zM829 1300q0 -41 -41 -40q-40 0 -40 40t40 41q40 0 41 -41zM522 1300q0 -40 -41 -40
t-41 40t41 41q41 0 41 -41z" />
    <glyph glyph-name="thorn" unicode="&#xfe;" horiz-adv-x="872" 
d="M719 567q0 199 -213 211l-205 -2l-59 -467l-11 -73h195q137 14 215 102t78 229zM764 571q0 -168 -104.5 -271t-284.5 -103h-148l-26 -197h-41l129 1006h41l-25 -193l195 2q125 0 194.5 -64.5t69.5 -179.5z" />
    <glyph glyph-name="ydieresis" unicode="&#xff;" horiz-adv-x="876" 
d="M434 379l-49 -379h-41l41 305l10 82l-245 619h51l12 -43l205 -519h8l360 519l25 43h51zM735 1300q0 -40 -41 -40t-41 40t41 41q41 0 41 -41zM428 1300q0 -40 -41 -40t-41 40t41 41q41 0 41 -41z" />
    <glyph glyph-name="Amacron" unicode="&#x100;" horiz-adv-x="1073" 
d="M651 1235h-6l-377 -758h549zM915 0l-12 88l-76 348h-579l-174 -348l-41 -88h-49l653 1305h43l283 -1305h-48zM987 1581h-588l-6 6l4 35h588l6 -6z" />
    <glyph glyph-name="amacron" unicode="&#x101;" horiz-adv-x="968" 
d="M557 944h-6l-303 -575h448zM780 0l-12 72l-61 258h-480l-135 -258l-33 -72h-47l527 1006h45l243 -1006h-47zM893 1282h-588l-6 6l4 35h588l6 -6z" />
    <glyph glyph-name="Abreve" unicode="&#x102;" horiz-adv-x="1073" 
d="M651 1235h-6l-377 -758h549zM915 0l-12 88l-76 348h-579l-174 -348l-41 -88h-49l653 1305h43l283 -1305h-48zM670 1491q-76 0 -126 39t-63 112l29 23h10q16 -133 152 -133t186 133h10l25 -23q-65 -151 -223 -151z" />
    <glyph glyph-name="abreve" unicode="&#x103;" horiz-adv-x="968" 
d="M557 944h-6l-303 -575h448zM780 0l-12 72l-61 258h-480l-135 -258l-33 -72h-47l527 1006h45l243 -1006h-47zM567 1149q-86 0 -129 52t-51 163l31 27h10q2 -101 37 -151t108 -50q141 0 193 201h10l25 -27q-66 -215 -234 -215z" />
    <glyph glyph-name="Aogonek" unicode="&#x104;" horiz-adv-x="1073" 
d="M651 1235h-6l-377 -758h549zM799 -401q-100 0 -101 100q0 31 14 61q31 71 203 240l-12 88l-76 348h-579l-174 -348l-41 -88h-49l653 1305h43l283 -1305q-129 -129 -175.5 -190.5t-46.5 -106.5q0 -63 67 -63t138 108h4l15 -33q-80 -116 -166 -116z" />
    <glyph glyph-name="aogonek" unicode="&#x105;" horiz-adv-x="968" 
d="M557 944h-6l-303 -575h448zM662 -401q-102 0 -103 100q0 45 40 104.5t181 196.5l-12 72l-61 258h-480l-135 -258l-33 -72h-47l527 1006h45l243 -1006q-131 -131 -178 -191.5t-47 -105.5q0 -63 68 -63t143 108h4l14 -33q-83 -116 -169 -116z" />
    <glyph glyph-name="Cacute" unicode="&#x106;" horiz-adv-x="1017" 
d="M714 1272q-177 0 -303 -91t-192 -260q-65 -169 -65 -404t97 -361t287 -125q190 0 365 137l15 -4l-9 -37q-188 -137 -385 -137q-196 0 -304 136t-108 386q1 506 279 705q135 96 327 96t326 -121l-18 -35h-14q-121 115 -298 115zM936 1683l-4 -10q-137 -78 -357 -190l-10 6
l-14 31q186 90 360 192l11 -4z" />
    <glyph glyph-name="cacute" unicode="&#x107;" horiz-adv-x="917" 
d="M612 973q-214 0 -332 -150t-118 -417q0 -180 80 -278t234 -97q154 0 302 104l10 -4l-8 -37q-150 -102 -314 -102t-255 106q-92 106 -92 303q0 287 129 449t366 162q160 0 273 -90l-17 -37h-12q-100 88 -246 88zM760 1427l-2 -10q-141 -141 -295 -276l-10 2l-23 26
q141 119 299 281l10 -2z" />
    <glyph glyph-name="Ccircumflex" unicode="&#x108;" horiz-adv-x="1017" 
d="M714 1272q-177 0 -303 -91t-192 -260q-65 -169 -65 -404t97 -361t287 -125q190 0 365 137l15 -4l-9 -37q-188 -137 -385 -137q-196 0 -304 136t-108 386q1 506 279 705q135 96 327 96t326 -121l-18 -35h-14q-121 115 -298 115zM721 1692h33q123 -106 186 -156l-16 -29
h-11q-82 59 -178 144q-96 -72 -211 -144h-10l-10 29q90 58 217 156z" />
    <glyph glyph-name="ccircumflex" unicode="&#x109;" horiz-adv-x="917" 
d="M612 973q-214 0 -332 -150t-118 -417q0 -180 80 -278t234 -97q154 0 302 104l10 -4l-8 -37q-150 -102 -314 -102t-255 106q-92 106 -92 303q0 287 129 449t366 162q160 0 273 -90l-17 -37h-12q-100 88 -246 88zM598 1407h37q94 -152 176 -258l-23 -25h-10
q-80 102 -166 240q-121 -139 -225 -240h-10l-17 25q76 74 238 258z" />
    <glyph glyph-name="Cdotaccent" unicode="&#x10a;" horiz-adv-x="1017" 
d="M714 1272q-177 0 -303 -91t-192 -260q-65 -169 -65 -404t97 -361t287 -125q190 0 365 137l15 -4l-9 -37q-188 -137 -385 -137q-196 0 -304 136t-108 386q1 506 279 705q135 96 327 96t326 -121l-18 -35h-14q-121 115 -298 115zM766 1628q0 -41 -41 -41t-41 41t41 41
t41 -41z" />
    <glyph glyph-name="cdotaccent" unicode="&#x10b;" horiz-adv-x="917" 
d="M612 973q-214 0 -332 -150t-118 -417q0 -180 80 -278t234 -97q154 0 302 104l10 -4l-8 -37q-150 -102 -314 -102t-255 106q-92 106 -92 303q0 287 129 449t366 162q160 0 273 -90l-17 -37h-12q-100 88 -246 88zM633 1329q0 -41 -41 -41t-41 41t41 41t41 -41z" />
    <glyph glyph-name="Ccaron" unicode="&#x10c;" horiz-adv-x="1017" 
d="M714 1272q-177 0 -303 -91t-192 -260q-65 -169 -65 -404t97 -361t287 -125q190 0 365 137l15 -4l-9 -37q-188 -137 -385 -137q-196 0 -304 136t-108 386q1 506 279 705q135 96 327 96t326 -121l-18 -35h-14q-121 115 -298 115zM723 1493h-33q-106 92 -188 156l16 28h10
q82 -59 179 -143q96 72 211 143h10l10 -28q-76 -50 -215 -156z" />
    <glyph glyph-name="ccaron" unicode="&#x10d;" horiz-adv-x="917" 
d="M612 973q-214 0 -332 -150t-118 -417q0 -180 80 -278t234 -97q154 0 302 104l10 -4l-8 -37q-150 -102 -314 -102t-255 106q-92 106 -92 303q0 287 129 449t366 162q160 0 273 -90l-17 -37h-12q-100 88 -246 88zM578 1145h-37q-100 160 -179 258l23 24h10
q80 -102 166 -239q121 139 225 239h11l16 -24q-85 -84 -235 -258z" />
    <glyph glyph-name="Dcaron" unicode="&#x10e;" horiz-adv-x="1247" 
d="M1143 796q0 232 -111 355t-319 123q-160 0 -348 -10l-156 -1225l330 -8q188 0 324 94t208 267q72 172 72 404zM1186 804q0 -247 -77 -430q-77 -184 -224 -284t-353 -100q-154 0 -368 10l164 1305l389 10q227 0 348 -132t121 -379zM721 1493h-33q-106 92 -188 156l16 28
h10q82 -59 179 -143q96 72 210 143h11l10 -28q-76 -50 -215 -156z" />
    <glyph glyph-name="dcaron" unicode="&#x10f;" horiz-adv-x="1112" 
d="M965 608q-1 176 -93 270t-264 95l-282 -8l-119 -926q135 -8 270 -8q230 -1 359 154t129 423zM471 -8q-170 0 -309 8l127 1006l321 8q191 -1 294 -106t104 -296q0 -288 -142 -454t-395 -166zM621 1145h-37q-100 160 -178 258l22 24h10q80 -102 166 -239q121 139 225 239
h11l16 -24q-85 -84 -235 -258z" />
    <glyph glyph-name="Dcroat" unicode="&#x110;" horiz-adv-x="1247" 
d="M1143 796q0 232 -111 355t-319 123q-160 0 -348 -10l-156 -1225l330 -8q188 0 324 94t208 267q72 172 72 404zM1186 804q0 -247 -77 -430q-77 -184 -224 -284t-353 -100q-154 0 -368 10l164 1305l389 10q227 0 348 -132t121 -379zM1018 1581h-588l-6 6l4 35h588l6 -6z
" />
    <glyph glyph-name="dcroat" unicode="&#x111;" horiz-adv-x="1112" 
d="M965 608q-1 176 -93 270t-264 95l-282 -8l-119 -926q135 -8 270 -8q230 -1 359 154t129 423zM471 -8q-170 0 -309 8l127 1006l321 8q191 -1 294 -106t104 -296q0 -288 -142 -454t-395 -166zM930 1282h-588l-6 6l4 35h588l6 -6z" />
    <glyph glyph-name="Emacron" unicode="&#x112;" horiz-adv-x="884" 
d="M293 696h457l6 -8l-13 -33h-454l-78 -614h559l6 -8l-12 -33h-600l164 1305h596l4 -9l-13 -32h-550zM971 1581h-588l-6 6l4 35h588l6 -6z" />
    <glyph glyph-name="emacron" unicode="&#x113;" horiz-adv-x="813" 
d="M268 541h379l4 -9l-10 -32h-377l-59 -461h465l6 -6l-12 -33h-504l127 1006h499l7 -9l-13 -32l-456 2zM868 1282h-587l-7 6l5 35h587l6 -6z" />
    <glyph glyph-name="Ebreve" unicode="&#x114;" horiz-adv-x="884" 
d="M293 696h457l6 -8l-13 -33h-454l-78 -614h559l6 -8l-12 -33h-600l164 1305h596l4 -9l-13 -32h-550zM653 1491q-76 0 -126 39t-62 112l29 23h10q16 -133 151 -133t187 133h10l25 -23q-66 -151 -224 -151z" />
    <glyph glyph-name="ebreve" unicode="&#x115;" horiz-adv-x="813" 
d="M268 541h379l4 -9l-10 -32h-377l-59 -461h465l6 -6l-12 -33h-504l127 1006h499l7 -9l-13 -32l-456 2zM543 1149q-86 0 -129 52t-52 163l31 27h10q2 -101 37 -151t109 -50q141 0 192 201h11l24 -27q-65 -215 -233 -215z" />
    <glyph glyph-name="Edotaccent" unicode="&#x116;" horiz-adv-x="884" 
d="M293 696h457l6 -8l-13 -33h-454l-78 -614h559l6 -8l-12 -33h-600l164 1305h596l4 -9l-13 -32h-550zM717 1628q0 -41 -41 -41t-41 41t41 41t41 -41z" />
    <glyph glyph-name="edotaccent" unicode="&#x117;" horiz-adv-x="813" 
d="M268 541h379l4 -9l-10 -32h-377l-59 -461h465l6 -6l-12 -33h-504l127 1006h499l7 -9l-13 -32l-456 2zM614 1329q0 -41 -41 -41t-41 41t41 41t41 -41z" />
    <glyph glyph-name="Eogonek" unicode="&#x118;" horiz-adv-x="884" 
d="M477 -265q0 -46 24.5 -71.5t67.5 -25.5q86 0 166 108h4l23 -33q-90 -117 -193 -116q-59 0 -96 35.5t-37 96t43 124.5l99 147h-414l164 1305h596l4 -9l-13 -32h-550l-72 -568h457l6 -8l-13 -33h-454l-78 -614h559l6 -8l-12 -33h-137l-109 -160q-41 -59 -41 -105z" />
    <glyph glyph-name="eogonek" unicode="&#x119;" horiz-adv-x="813" 
d="M377 -265q0 -46 24.5 -71.5t67.5 -25.5q86 0 166 108h4l23 -33q-90 -117 -193 -116q-59 0 -96 35.5t-37 96t43 124.5l98 147h-317l127 1006h499l7 -9l-13 -32l-456 2l-56 -426h379l4 -9l-10 -32h-377l-59 -461h297l2 2h49l-2 -2h119l6 -6l-12 -33h-138l-108 -160
q-41 -59 -41 -105z" />
    <glyph glyph-name="Ecaron" unicode="&#x11a;" horiz-adv-x="884" 
d="M293 696h457l6 -8l-13 -33h-454l-78 -614h559l6 -8l-12 -33h-600l164 1305h596l4 -9l-13 -32h-550zM674 1493h-33q-106 92 -188 156l16 28h10q82 -59 178 -143q96 72 211 143h11l10 -28q-76 -50 -215 -156z" />
    <glyph glyph-name="ecaron" unicode="&#x11b;" horiz-adv-x="813" 
d="M268 541h379l4 -9l-10 -32h-377l-59 -461h465l6 -6l-12 -33h-504l127 1006h499l7 -9l-13 -32l-456 2zM559 1145h-37q-100 160 -178 258l23 24h10q80 -102 166 -239q121 139 225 239h10l17 -24q-86 -84 -236 -258z" />
    <glyph glyph-name="Gcircumflex" unicode="&#x11c;" horiz-adv-x="1177" 
d="M545 -8q-211 0 -322 135t-110 385q0 250 78 430q79 180 227 276t340 95q190 0 352 -111l-16 -37h-15q-156 106 -311 107q-193 0 -331 -90t-211 -260q-72 -170 -72 -404t100 -361q100 -126 274 -126t387 61l31 232l19 159l41 4l-54 -426q-137 -41 -221 -55t-186 -14z
M739 1692h33q123 -106 186 -156l-16 -29h-10q-82 59 -178 144q-96 -72 -211 -144h-11l-10 29q90 58 217 156z" />
    <glyph glyph-name="gcircumflex" unicode="&#x11d;" horiz-adv-x="1050" 
d="M659 973q-239 -1 -369 -149t-130 -418q0 -180 84 -278t226 -97q142 0 314 47l21 172l18 125l41 4l-18 -127l-25 -205q-197 -53 -355 -53q-159 0 -254 105t-95 300q0 293 141 453t401 160q144 0 283 -84l-16 -37h-11q-135 82 -256 82zM655 1407h37q94 -152 176 -258
l-22 -25h-10q-80 102 -166 240q-121 -139 -226 -240h-10l-16 25q75 74 237 258z" />
    <glyph glyph-name="Gbreve" unicode="&#x11e;" horiz-adv-x="1177" 
d="M545 -8q-211 0 -322 135t-110 385q0 250 78 430q79 180 227 276t340 95q190 0 352 -111l-16 -37h-15q-156 106 -311 107q-193 0 -331 -90t-211 -260q-72 -170 -72 -404t100 -361q100 -126 274 -126t387 61l31 232l19 159l41 4l-54 -426q-137 -41 -221 -55t-186 -14z
M721 1491q-76 0 -126 39t-63 112l29 23h10q15 -133 151 -133t187 133h11l24 -23q-65 -151 -223 -151z" />
    <glyph glyph-name="gbreve" unicode="&#x11f;" horiz-adv-x="1050" 
d="M659 973q-239 -1 -369 -149t-130 -418q0 -180 84 -278t226 -97q142 0 314 47l21 172l18 125l41 4l-18 -127l-25 -205q-197 -53 -355 -53q-159 0 -254 105t-95 300q0 293 141 453t401 160q144 0 283 -84l-16 -37h-11q-135 82 -256 82zM618 1149q-86 0 -129 52t-51 163
l31 27h10q2 -101 37 -151t109 -50q141 0 192 201h10l25 -27q-66 -215 -234 -215z" />
    <glyph glyph-name="Gdotaccent" unicode="&#x120;" horiz-adv-x="1177" 
d="M545 -8q-211 0 -322 135t-110 385q0 250 78 430q79 180 227 276t340 95q190 0 352 -111l-16 -37h-15q-156 106 -311 107q-193 0 -331 -90t-211 -260q-72 -170 -72 -404t100 -361q100 -126 274 -126t387 61l31 232l19 159l41 4l-54 -426q-137 -41 -221 -55t-186 -14z
M784 1628q0 -41 -41 -41t-41 41t41 41t41 -41z" />
    <glyph glyph-name="gdotaccent" unicode="&#x121;" horiz-adv-x="1050" 
d="M659 973q-239 -1 -369 -149t-130 -418q0 -180 84 -278t226 -97q142 0 314 47l21 172l18 125l41 4l-18 -127l-25 -205q-197 -53 -355 -53q-159 0 -254 105t-95 300q0 293 141 453t401 160q144 0 283 -84l-16 -37h-11q-135 82 -256 82zM690 1329q0 -41 -41 -41t-41 41
t41 41t41 -41z" />
    <glyph glyph-name="Gcommaaccent" unicode="&#x122;" horiz-adv-x="1177" 
d="M545 -8q-211 0 -322 135t-110 385q0 250 78 430q79 180 227 276t340 95q190 0 352 -111l-16 -37h-15q-156 106 -311 107q-193 0 -331 -90t-211 -260q-72 -170 -72 -404t100 -361q100 -126 274 -126t387 61l31 232l19 159l41 4l-54 -426q-137 -41 -221 -55t-186 -14z
M696 -244q0 -86 -135 -190l-20 22l2 6q111 82 110 160q0 41 -61 70v8q10 14 26 23q78 -36 78 -99z" />
    <glyph glyph-name="gcommaaccent" unicode="&#x123;" horiz-adv-x="1050" 
d="M659 973q-239 -1 -369 -149t-130 -418q0 -180 84 -278t226 -97q142 0 314 47l21 172l18 125l41 4l-18 -127l-25 -205q-197 -53 -355 -53q-159 0 -254 105t-95 300q0 293 141 453t401 160q144 0 283 -84l-16 -37h-11q-135 82 -256 82zM594 -244q0 -86 -135 -190l-21 22
l2 6q111 82 111 160q0 41 -62 70v8q10 14 27 23q78 -36 78 -99z" />
    <glyph glyph-name="Hcircumflex" unicode="&#x124;" horiz-adv-x="1310" 
d="M1198 1305l-164 -1305h-41l82 643h-788l-82 -643h-41l164 1305h41l-78 -621h788l78 621h41zM795 1692h32q123 -106 187 -156l-17 -29h-10q-82 59 -178 144q-96 -72 -211 -144h-10l-10 29q90 58 217 156z" />
    <glyph glyph-name="hcircumflex" unicode="&#x125;" horiz-adv-x="1159" 
d="M926 309l-41 -309h-41l41 307l22 185h-643l-63 -492h-41l41 307l86 699h41l-60 -476h643l60 476h41zM688 1407h37q94 -152 176 -258l-22 -25h-11q-80 102 -166 240q-121 -139 -225 -240h-10l-16 25q75 74 237 258z" />
    <glyph glyph-name="Hbar" unicode="&#x126;" horiz-adv-x="1353" 
d="M348 991l-39 -307h789l39 307h-789zM1178 991l-125 -991h-41l82 643h-789l-82 -643h-41l125 991h-125l-6 6l4 35h131l35 273h41l-35 -273h789l35 273h41l-35 -273h127l6 -6l-4 -35h-133z" />
    <glyph glyph-name="hbar" unicode="&#x127;" horiz-adv-x="1159" 
d="M295 745l-27 -215h643l27 215h-643zM979 745l-53 -436l-41 -309h-41l41 307l22 185h-643l-63 -492h-41l41 307l53 438h-109l-6 7l8 30h113l27 224h41l-27 -224h643l27 224h41l-27 -224h100l9 -4l-9 -33h-106z" />
    <glyph glyph-name="Imacron" unicode="&#x12a;" horiz-adv-x="481" 
d="M205 0h-41l164 1305h41zM592 1581h-424l-6 6l4 35h424l6 -6z" />
    <glyph glyph-name="imacron" unicode="&#x12b;" horiz-adv-x="477" 
d="M201 0h-41l41 307l86 699h41l-86 -697zM557 1282h-424l-6 6l4 35h424l6 -6z" />
    <glyph glyph-name="Ibreve" unicode="&#x12c;" horiz-adv-x="481" 
d="M205 0h-41l164 1305h41zM360 1491q-76 0 -126 39t-62 112l29 23h10q16 -133 151 -133t187 133h10l25 -23q-66 -151 -224 -151z" />
    <glyph glyph-name="ibreve" unicode="&#x12d;" horiz-adv-x="477" 
d="M201 0h-41l41 307l86 699h41l-86 -697zM317 1149q-86 0 -129 52t-51 163l31 27h10q2 -101 37 -151t109 -50q141 0 192 201h10l25 -27q-66 -215 -234 -215z" />
    <glyph glyph-name="Iogonek" unicode="&#x12e;" horiz-adv-x="481" 
d="M4 -302q0 -60 51 -60q61 0 103 88h4l24 -31q-55 -98 -135 -98q-43 0 -65.5 25.5t-22.5 68.5t39 102.5t164 218.5l162 1293h41l-164 -1305q-117 -150 -159 -211t-42 -91z" />
    <glyph glyph-name="iogonek" unicode="&#x12f;" horiz-adv-x="477" 
d="M0 -302q0 -60 51 -60q61 0 103 88h4l24 -31q-55 -98 -135 -98q-43 0 -65.5 25.5t-22.5 68.5t39 102.5t164 218.5l125 994h41l-86 -697l-41 -309q-117 -150 -159 -211t-42 -91z" />
    <glyph glyph-name="Idotaccent" unicode="&#x130;" horiz-adv-x="481" 
d="M205 0h-41l164 1305h41zM424 1628q0 -41 -41 -41t-41 41t41 41t41 -41z" />
    <glyph glyph-name="dotlessi" unicode="&#x131;" horiz-adv-x="477" 
d="M201 0h-41l41 307l86 699h41l-86 -697z" />
    <glyph glyph-name="IJ" unicode="&#x132;" horiz-adv-x="1013" 
d="M205 0h-41l164 1305h41zM891 1305l-133 -1069q-18 -142 -90 -242t-224 -195l-18 23v12q139 86 209 180t84 222l127 1028h-256l-8 8l10 33h299z" />
    <glyph glyph-name="ij" unicode="&#x133;" horiz-adv-x="1011" 
d="M201 0h-41l41 307l86 699h41l-86 -697zM840 1006l-101 -824q-14 -114 -66 -190t-165 -148l-19 27v10q98 66 148 136q49 71 61 167l97 783h-209l-6 6l10 33h250z" />
    <glyph glyph-name="Jcircumflex" unicode="&#x134;" horiz-adv-x="532" 
d="M410 1305l-134 -1069q-18 -142 -90 -242t-223 -195l-18 23v12q139 86 209 180t84 222l127 1028h-256l-9 8l11 33h299zM303 1692h33q123 -106 186 -156l-16 -29h-10q-82 59 -179 144q-96 -72 -211 -144h-10l-10 29q90 58 217 156z" />
    <glyph glyph-name="jcircumflex" unicode="&#x135;" horiz-adv-x="534" 
d="M362 1006l-100 -824q-14 -114 -66 -190t-165 -148l-19 27v10q98 66 148 136q49 71 61 167l96 783h-208l-7 6l11 33h249zM291 1407h37q94 -152 176 -258l-23 -25h-10q-80 102 -166 240q-121 -139 -225 -240h-10l-17 25q76 74 238 258z" />
    <glyph glyph-name="Kcommaaccent" unicode="&#x136;" horiz-adv-x="989" 
d="M913 10v-8q-8 -8 -28 -16l-8 2q-305 367 -529 706v6l543 508l96 97h66l-647 -611q237 -362 507 -684zM205 0h-41l166 1305h41zM586 -244q0 -86 -135 -190l-21 22l2 6q111 82 111 160q0 41 -62 70v8q10 14 27 23q78 -36 78 -99z" />
    <glyph glyph-name="kcommaaccent" unicode="&#x137;" horiz-adv-x="899" 
d="M793 10l-5 -8q-6 -4 -32 -14l-6 4q-248 274 -439 540v7l443 391l77 76h58l-524 -471q190 -273 428 -525zM201 0h-41l41 307l86 699h41l-86 -697zM471 -244q0 -86 -135 -190l-21 22l2 6q111 82 111 160q0 41 -61 70v8q10 14 26 23q78 -36 78 -99z" />
    <glyph glyph-name="kgreenlandic" unicode="&#x138;" horiz-adv-x="899" 
d="M793 10l-5 -8q-6 -4 -32 -14l-6 4q-248 274 -439 540v7l443 391l77 76h58l-524 -471q190 -273 428 -525zM201 0h-41l41 307l86 699h41l-86 -697z" />
    <glyph glyph-name="Lacute" unicode="&#x139;" horiz-adv-x="774" 
d="M702 0h-540l164 1305h41l-158 -1264h500l6 -8zM600 1683l-4 -10q-137 -78 -356 -190l-11 6l-14 31q186 90 360 192l11 -4z" />
    <glyph glyph-name="lacute" unicode="&#x13a;" horiz-adv-x="718" 
d="M610 0h-452l129 1006h41l-123 -967h413l3 -6zM512 1427l-2 -10q-141 -141 -295 -276l-10 2l-23 26q141 119 299 281l11 -2z" />
    <glyph glyph-name="Lcommaaccent" unicode="&#x13b;" horiz-adv-x="774" 
d="M702 0h-540l164 1305h41l-158 -1264h500l6 -8zM451 -244q0 -86 -136 -190l-20 22l2 6q111 82 111 160q0 41 -62 70v8q10 14 27 23q78 -36 78 -99z" />
    <glyph glyph-name="lcommaaccent" unicode="&#x13c;" horiz-adv-x="718" 
d="M610 0h-452l129 1006h41l-123 -967h413l3 -6zM451 -244q0 -86 -136 -190l-20 22l2 6q111 82 111 160q0 41 -62 70v8q10 14 27 23q78 -36 78 -99z" />
    <glyph glyph-name="Lcaron" unicode="&#x13d;" horiz-adv-x="796" 
d="M733 879l-37 -5l-4 9l60 295l36 4l5 -8zM715 33l-13 -33h-540l164 1305h41l-158 -1264h500z" />
    <glyph glyph-name="lcaron" unicode="&#x13e;" horiz-adv-x="735" 
d="M627 647l-37 -4l-4 8l59 295l37 4l4 -8zM623 33l-11 -33h-452l129 1006h41l-123 -967h414z" />
    <glyph glyph-name="Ldot" unicode="&#x13f;" horiz-adv-x="774" 
d="M702 0h-540l164 1305h41l-158 -1264h500l6 -8zM655 752q0 -41 -41 -41t-41 41t41 41t41 -41z" />
    <glyph glyph-name="ldot" unicode="&#x140;" horiz-adv-x="741" 
d="M467 543q0 41 41 41t41 -41t-41 -41t-41 41zM612 0h-452l129 1006h41l-123 -967h414l2 -6z" />
    <glyph glyph-name="Lslash" unicode="&#x141;" horiz-adv-x="792" 
d="M719 0h-541l86 686l-184 -100l-10 6l-7 31l207 110l72 572h41l-68 -547l322 172l10 -4l8 -31l-346 -186l-84 -668h500l6 -8z" />
    <glyph glyph-name="lslash" unicode="&#x142;" horiz-adv-x="739" 
d="M631 0h-453l68 526l-170 -82l-10 7l-3 28l189 88l55 439h41l-53 -418l274 129l9 -2l2 -31l-289 -137l-66 -508h414l2 -6z" />
    <glyph glyph-name="Nacute" unicode="&#x143;" horiz-adv-x="1310" 
d="M1030 0h-39l-622 1219h-9l-155 -1219h-41l166 1305h39l622 -1219h8l158 1217l41 4zM1010 1683l-4 -10q-137 -78 -357 -190l-10 6l-14 31q186 90 360 192l10 -4z" />
    <glyph glyph-name="nacute" unicode="&#x144;" horiz-adv-x="1159" 
d="M881 0h-41l-516 924h-5l-118 -924h-41l129 1006h41l516 -924h8l117 922l41 4l-92 -727zM850 1427l-2 -10q-141 -141 -295 -276l-10 2l-23 26q141 119 299 281l10 -2z" />
    <glyph glyph-name="Ncommaaccent" unicode="&#x145;" horiz-adv-x="1310" 
d="M1030 0h-39l-622 1219h-9l-155 -1219h-41l166 1305h39l622 -1219h8l158 1217l41 4zM641 -244q0 -86 -135 -190l-21 22l2 6q111 82 111 160q0 41 -61 70v8q10 14 26 23q78 -36 78 -99z" />
    <glyph glyph-name="ncommaaccent" unicode="&#x146;" horiz-adv-x="1159" 
d="M881 0h-41l-516 924h-5l-118 -924h-41l129 1006h41l516 -924h8l117 922l41 4l-92 -727zM561 -244q0 -86 -135 -190l-20 22l2 6q111 82 110 160q0 41 -61 70v8q10 14 26 23q78 -36 78 -99z" />
    <glyph glyph-name="Ncaron" unicode="&#x147;" horiz-adv-x="1310" 
d="M1030 0h-39l-622 1219h-9l-155 -1219h-41l166 1305h39l622 -1219h8l158 1217l41 4zM797 1493h-33q-106 92 -189 156l17 28h10q82 -59 178 -143q96 72 211 143h10l11 -28q-76 -50 -215 -156z" />
    <glyph glyph-name="ncaron" unicode="&#x148;" horiz-adv-x="1159" 
d="M881 0h-41l-516 924h-5l-118 -924h-41l129 1006h41l516 -924h8l117 922l41 4l-92 -727zM668 1145h-37q-100 160 -178 258l22 24h10q80 -102 166 -239q121 139 226 239h10l16 -24q-85 -84 -235 -258z" />
    <glyph glyph-name="Eng" unicode="&#x14a;" horiz-adv-x="1327" 
d="M1049 80q-14 -121 -81 -205t-218 -170l-21 23l2 12q119 68 179.5 130t84.5 140l-633 1209h-8l-149 -1219h-41l162 1305h39l636 -1219h9l153 1217l41 4z" />
    <glyph glyph-name="eng" unicode="&#x14b;" horiz-adv-x="1159" 
d="M891 72q-14 -104 -57 -173t-136 -135l-16 23l2 10q121 90 154 209l-514 918h-7l-116 -924h-41l41 299l88 707h41l516 -924h10l115 922l41 4z" />
    <glyph glyph-name="Omacron" unicode="&#x14c;" horiz-adv-x="1226" 
d="M544 31q184 0 312 93q129 93 197 264q67 172 67 404t-100 357t-286 125t-314 -90q-127 -90 -195 -259q-67 -169 -67 -403t101 -362t285 -129zM540 -10q-202 0 -314 137t-112 388q1 510 282 705q138 95 341 95t315 -133t112 -382t-74 -431q-72 -183 -210 -281t-340 -98z
M1051 1581h-588l-6 6l4 35h588l6 -6z" />
    <glyph glyph-name="omacron" unicode="&#x14d;" horiz-adv-x="1091" 
d="M162 410q0 -182 82 -280t237 -97q217 1 340 151t123 418q0 180 -84 276t-244 95q-216 -1 -335 -148t-119 -415zM987 608q0 -288 -133 -452t-371 -164q-176 0 -271 108t-95 306q0 288 132 448t372 160q176 -1 271 -107t95 -299zM942 1282h-588l-6 6l4 35h588l6 -6z" />
    <glyph glyph-name="Obreve" unicode="&#x14e;" horiz-adv-x="1226" 
d="M544 31q184 0 312 93q129 93 197 264q67 172 67 404t-100 357t-286 125t-314 -90q-127 -90 -195 -259q-67 -169 -67 -403t101 -362t285 -129zM540 -10q-202 0 -314 137t-112 388q1 510 282 705q138 95 341 95t315 -133t112 -382t-74 -431q-72 -183 -210 -281t-340 -98z
M733 1491q-76 0 -126 39t-62 112l28 23h11q16 -133 151 -133t187 133h10l24 -23q-65 -151 -223 -151z" />
    <glyph glyph-name="obreve" unicode="&#x14f;" horiz-adv-x="1091" 
d="M162 410q0 -182 82 -280t237 -97q217 1 340 151t123 418q0 180 -84 276t-244 95q-216 -1 -335 -148t-119 -415zM987 608q0 -288 -133 -452t-371 -164q-176 0 -271 108t-95 306q0 288 132 448t372 160q176 -1 271 -107t95 -299zM616 1149q-86 0 -129 52t-51 163l31 27h10
q2 -101 37 -151t109 -50q141 0 192 201h10l25 -27q-66 -215 -234 -215z" />
    <glyph glyph-name="Ohungarumlaut" unicode="&#x150;" horiz-adv-x="1226" 
d="M544 31q184 0 312 93q129 93 197 264q67 172 67 404t-100 357t-286 125t-314 -90q-127 -90 -195 -259q-67 -169 -67 -403t101 -362t285 -129zM540 -10q-202 0 -314 137t-112 388q1 510 282 705q138 95 341 95t315 -133t112 -382t-74 -431q-72 -183 -210 -281t-340 -98z
M805 1550q154 143 182 172l10 -2l21 -20l-2 -10q-72 -72 -230 -215l-10 2l-22 26zM539 1550q154 143 182 172l10 -2l21 -20l-2 -10q-72 -72 -230 -215l-10 2l-23 26z" />
    <glyph glyph-name="ohungarumlaut" unicode="&#x151;" horiz-adv-x="1091" 
d="M162 410q0 -182 82 -280t237 -97q217 1 340 151t123 418q0 180 -84 276t-244 95q-216 -1 -335 -148t-119 -415zM987 608q0 -288 -133 -452t-371 -164q-176 0 -271 108t-95 306q0 288 132 448t372 160q176 -1 271 -107t95 -299zM971 1446l10 -2l20 -21l-2 -10
q-143 -141 -294 -276l-11 2l-22 26q158 140 299 281zM705 1446l10 -2l20 -21l-2 -10q-143 -141 -295 -276l-10 2l-22 26q158 140 299 281z" />
    <glyph glyph-name="OE" unicode="&#x152;" horiz-adv-x="1615" 
d="M156 527.5q0 -238.5 121.5 -375t355.5 -136.5q86 0 165 13.5t91 23.5t16 35l135 1112q2 16 2 40t-20 26q-121 23 -219 22q-201 0 -346.5 -91t-223 -261t-77.5 -408.5zM1102 1305h551l6 -9l-12 -32h-553l-70 -568h455l4 -8l-13 -33h-454l-76 -614h561l6 -8l-12 -33h-559
q-59 0 -167.5 -12t-152.5 -13q-242 0 -371.5 147.5t-129.5 400.5t83 432.5t239.5 276.5t371.5 97q53 0 145 -12t148 -12z" />
    <glyph glyph-name="oe" unicode="&#x153;" horiz-adv-x="1415" 
d="M162 420q0 -190 98 -295t291 -105q86 0 143.5 10.5t66.5 18.5t13 29l103 837q2 10 2 30t-17.5 22t-76 10t-105.5 8q-244 0 -381 -150.5t-137 -414.5zM119 416q0 283 147.5 445.5t413.5 162.5l252 -18h459l4 -9l-11 -32l-456 2l-56 -426h377l6 -9l-12 -32h-375l-24 -203
l-35 -258h465l4 -6l-10 -33h-463l-260 -18q-203 0 -314.5 114.5t-111.5 319.5z" />
    <glyph glyph-name="Racute" unicode="&#x154;" horiz-adv-x="1011" 
d="M870 981q0 275 -260 287l-245 -2l-86 -686h274q153 40 235 150t82 251zM911 992q0 -158 -88 -278t-250 -169q123 -274 281 -535l-2 -8q-10 -10 -27 -16l-10 4q-166 281 -287 549h-256l-67 -539h-41l164 1305l272 4q150 0 230 -79q80 -80 81 -238zM815 1726l-2 -10
q-141 -141 -295 -276l-10 2l-23 26q141 119 299 281l11 -2z" />
    <glyph glyph-name="racute" unicode="&#x155;" horiz-adv-x="921" 
d="M481 453q123 31 191 111t67 200q0 195 -217 207l-196 -2l-66 -514zM783 762q0 -121 -72 -212t-203 -130q104 -211 235 -410v-8l-30 -14l-13 6q-137 219 -235 418h-211l-51 -412h-41l127 1006l225 2q127 0 198 -62t71 -184zM735 1427l-2 -10q-141 -141 -295 -276l-10 2
l-22 26q141 119 299 281l10 -2z" />
    <glyph glyph-name="Rcommaaccent" unicode="&#x156;" horiz-adv-x="1011" 
d="M870 981q0 275 -260 287l-245 -2l-86 -686h274q153 40 235 150t82 251zM911 992q0 -158 -88 -278t-250 -169q123 -274 281 -535l-2 -8q-10 -10 -27 -16l-10 4q-166 281 -287 549h-256l-67 -539h-41l164 1305l272 4q150 0 230 -79q80 -80 81 -238zM489 -244
q0 -86 -135 -190l-20 22l2 6q111 82 110 160q0 41 -61 70v8q10 14 27 23q77 -36 77 -99z" />
    <glyph glyph-name="rcommaaccent" unicode="&#x157;" horiz-adv-x="921" 
d="M481 453q123 31 191 111t67 200q0 195 -217 207l-196 -2l-66 -514zM783 762q0 -121 -72 -212t-203 -130q104 -211 235 -410v-8l-30 -14l-13 6q-137 219 -235 418h-211l-51 -412h-41l127 1006l225 2q127 0 198 -62t71 -184zM469 -244q0 -86 -135 -190l-21 22l2 6
q111 82 111 160q0 41 -61 70v8q10 14 26 23q78 -36 78 -99z" />
    <glyph glyph-name="Rcaron" unicode="&#x158;" horiz-adv-x="1011" 
d="M870 981q0 275 -260 287l-245 -2l-86 -686h274q153 40 235 150t82 251zM911 992q0 -158 -88 -278t-250 -169q123 -274 281 -535l-2 -8q-10 -10 -27 -16l-10 4q-166 281 -287 549h-256l-67 -539h-41l164 1305l272 4q150 0 230 -79q80 -80 81 -238zM633 1444h-37
q-100 160 -178 258l22 24h11q80 -102 165 -239q121 139 226 239h10l16 -24q-85 -84 -235 -258z" />
    <glyph glyph-name="rcaron" unicode="&#x159;" horiz-adv-x="921" 
d="M481 453q123 31 191 111t67 200q0 195 -217 207l-196 -2l-66 -514zM783 762q0 -121 -72 -212t-203 -130q104 -211 235 -410v-8l-30 -14l-13 6q-137 219 -235 418h-211l-51 -412h-41l127 1006l225 2q127 0 198 -62t71 -184zM553 1145h-37q-100 160 -178 258l22 24h11
q80 -102 166 -239q121 139 225 239h10l16 -24q-85 -84 -235 -258z" />
    <glyph glyph-name="Sacute" unicode="&#x15a;" horiz-adv-x="866" 
d="M236 980q0 -70 32 -122q32 -51 79 -87q46 -36 132 -87t139 -92q129 -100 127 -250q0 -94 -54 -175t-147 -128q-92 -47 -186 -47q-188 0 -301 96l6 39l13 4q108 -100 268 -98q102 0 185 43q83 42 129 112t46 146t-33 130q-34 54 -82 91t-134 90t-138 92q-124 95 -122 242
q0 92 51 168t139 120q89 43 205 43t225 -59l-12 -37l-15 -2q-94 58 -202 58t-187 -42t-121 -110t-42 -138zM743 1726l-2 -10q-141 -141 -295 -276l-10 2l-22 26q141 119 299 281l10 -2z" />
    <glyph glyph-name="sacute" unicode="&#x15b;" horiz-adv-x="792" 
d="M498 969q-90 0 -150 -33q-61 -33 -94 -85t-33 -117q0 -64 49 -108q48 -44 136 -88t133 -72q108 -71 108 -192q0 -74 -42 -138t-117 -104q-75 -38 -166 -38q-143 0 -240 74l4 41l10 2q94 -76 228 -76q80 0 146 35t100 91q36 57 36 123t-50 109t-138 88t-132 75
q-106 72 -106 187q0 73 40 133t111 97t168 37t193 -45l-14 -37l-12 -2q-78 43 -168 43zM662 1427l-3 -10q-141 -141 -294 -276l-11 2l-22 26q141 119 299 281l10 -2z" />
    <glyph glyph-name="Scircumflex" unicode="&#x15c;" horiz-adv-x="866" 
d="M236 980q0 -70 32 -122q32 -51 79 -87q46 -36 132 -87t139 -92q129 -100 127 -250q0 -94 -54 -175t-147 -128q-92 -47 -186 -47q-188 0 -301 96l6 39l13 4q108 -100 268 -98q102 0 185 43q83 42 129 112t46 146t-33 130q-34 54 -82 91t-134 90t-138 92q-124 95 -122 242
q0 92 51 168t139 120q89 43 205 43t225 -59l-12 -37l-15 -2q-94 58 -202 58t-187 -42t-121 -110t-42 -138zM582 1706h36q94 -152 177 -258l-23 -25h-10q-80 102 -166 240q-121 -139 -225 -240h-11l-16 25q76 74 238 258z" />
    <glyph glyph-name="scircumflex" unicode="&#x15d;" horiz-adv-x="792" 
d="M498 969q-90 0 -150 -33q-61 -33 -94 -85t-33 -117q0 -64 49 -108q48 -44 136 -88t133 -72q108 -71 108 -192q0 -74 -42 -138t-117 -104q-75 -38 -166 -38q-143 0 -240 74l4 41l10 2q94 -76 228 -76q80 0 146 35t100 91q36 57 36 123t-50 109t-138 88t-132 75
q-106 72 -106 187q0 73 40 133t111 97t168 37t193 -45l-14 -37l-12 -2q-78 43 -168 43zM500 1407h37q94 -152 176 -258l-23 -25h-10q-80 102 -166 240q-121 -139 -225 -240h-10l-17 25q76 74 238 258z" />
    <glyph glyph-name="Scedilla" unicode="&#x15e;" horiz-adv-x="866" 
d="M344 33q102 0 185 43t129.5 112.5t46.5 145.5t-34 130t-82 91t-134 90q-85 53 -137 92q-122 93 -123 242q0 92 51 168t139 120t204.5 43.5t225.5 -59.5l-12 -37l-15 -2q-94 57 -202.5 57.5t-186 -41.5t-120.5 -109.5t-43 -138.5t32.5 -122t78.5 -87t132 -87
q85 -51 139 -92q126 -97 127 -250q0 -88 -48 -165t-132 -126t-186 -57l-33 -107l64 -41q68 -43 67.5 -97t-36 -84t-99.5 -30t-109 68l13 37h8q39 -64 100 -64q37 0 59.5 17.5t22.5 45.5t-11 41t-38 32l-88 57l39 123q-166 0 -281 96l6 39l13 4q106 -98 268 -98z" />
    <glyph glyph-name="scedilla" unicode="&#x15f;" horiz-adv-x="792" 
d="M432 -261q0 28 -11 41t-38 32l-88 57l41 125h-14q-143 0 -240 74l4 41l10 2q94 -76 228 -76q80 0 145.5 34.5t101 91t35.5 123t-50 109.5t-138 88t-132 75q-106 72 -106 187q0 72 40 132.5t110.5 97.5t168 37t193.5 -45l-14 -37l-12 -2q-78 43 -167.5 43t-150.5 -33
t-94 -85t-33 -117t49 -108q48 -44 136 -88q88 -42 133 -72q108 -71 108 -182.5t-75.5 -190.5t-194.5 -95l-35 -111l64 -41q68 -43 67.5 -97t-36.5 -84t-99.5 -30t-108.5 68l13 37h8q39 -64 100 -64q37 0 59.5 17.5t22.5 45.5z" />
    <glyph glyph-name="Scaron" unicode="&#x160;" horiz-adv-x="866" 
d="M236 980q0 -70 32 -122q32 -51 79 -87q46 -36 132 -87t139 -92q129 -100 127 -250q0 -94 -54 -175t-147 -128q-92 -47 -186 -47q-188 0 -301 96l6 39l13 4q108 -100 268 -98q102 0 185 43q83 42 129 112t46 146t-33 130q-34 54 -82 91t-134 90t-138 92q-124 95 -122 242
q0 92 51 168t139 120q89 43 205 43t225 -59l-12 -37l-15 -2q-94 58 -202 58t-187 -42t-121 -110t-42 -138zM561 1444h-37q-100 160 -178 258l23 24h10q80 -102 166 -239q121 139 225 239h10l17 -24q-86 -84 -236 -258z" />
    <glyph glyph-name="scaron" unicode="&#x161;" horiz-adv-x="792" 
d="M498 969q-90 0 -150 -33q-61 -33 -94 -85t-33 -117q0 -64 49 -108q48 -44 136 -88t133 -72q108 -71 108 -192q0 -74 -42 -138t-117 -104q-75 -38 -166 -38q-143 0 -240 74l4 41l10 2q94 -76 228 -76q80 0 146 35t100 91q36 57 36 123t-50 109t-138 88t-132 75
q-106 72 -106 187q0 73 40 133t111 97t168 37t193 -45l-14 -37l-12 -2q-78 43 -168 43zM479 1145h-37q-100 160 -178 258l23 24h10q80 -102 166 -239q121 139 225 239h10l17 -24q-86 -84 -236 -258z" />
    <glyph glyph-name="Tcedilla" unicode="&#x162;" horiz-adv-x="921" 
d="M395 -324q76 0 76 68q0 23 -10 36t-35 32l-84 57l41 131l160 1264h-379l-6 8l12 33h795l6 -9l-13 -32h-374l-160 -1264l-35 -113l60 -41q63 -45 63 -98t-35 -83t-93.5 -30t-102.5 68l12 37h8q20 -33 39.5 -48.5t54.5 -15.5z" />
    <glyph glyph-name="tcedilla" unicode="&#x163;" horiz-adv-x="837" 
d="M442 -245q0 -54 -38.5 -87t-103.5 -33t-95 68l14 37h8q33 -63 80 -63.5t71.5 20t24.5 51.5t-38 64l-80 57l59 131l123 967h-148l-165 -2l-4 8l10 33h663l2 -9l-10 -32l-164 2h-143l-123 -967h-2l-47 -113l55 -41q51 -37 51 -91z" />
    <glyph glyph-name="Tcaron" unicode="&#x164;" horiz-adv-x="921" 
d="M958 1264h-374l-160 -1264h-41l160 1264h-379l-6 8l12 33h795l6 -9zM590 1444h-37q-100 160 -178 258l22 24h11q80 -102 165 -239q121 139 226 239h10l16 -24q-85 -84 -235 -258z" />
    <glyph glyph-name="tcaron" unicode="&#x165;" horiz-adv-x="841" 
d="M815 965l-164 2h-143l-123 -967h-41l123 967h-148l-165 -2l-4 8l10 33h663l2 -9zM512 1145h-37q-100 160 -178 258l22 24h11q80 -102 166 -239q121 139 225 239h10l17 -24q-86 -84 -236 -258z" />
    <glyph glyph-name="Tbar" unicode="&#x166;" horiz-adv-x="921" 
d="M958 1264h-374l-70 -547h191l6 -6l-4 -35h-199l-84 -676h-41l84 676h-191l-6 6l4 35h199l70 547h-379l-6 8l12 33h795l6 -9z" />
    <glyph glyph-name="tbar" unicode="&#x167;" horiz-adv-x="837" 
d="M815 965l-164 2h-143l-55 -435h190l4 -6l-8 -34h-193l-61 -492h-41l62 492h-199l-4 6l8 34h201l55 435h-148l-165 -2l-4 8l10 33h663l2 -9z" />
    <glyph glyph-name="Umacron" unicode="&#x16a;" horiz-adv-x="1193" 
d="M556 -8q-194 0 -292 95t-98 273q0 59 8 109l27 190l82 646h41l-109 -836q-8 -70 -8 -100q0 -162 87 -249t261 -87q174 1 287 113t141 323l104 836h41l-84 -666l-20 -170q-22 -227 -148 -352t-320 -125zM1034 1581h-588l-6 6l4 35h588l6 -6z" />
    <glyph glyph-name="umacron" unicode="&#x16b;" horiz-adv-x="1069" 
d="M205 293q1 -261 285 -261q144 0 234 86q91 85 112 244l82 644h40l-81 -646q-17 -174 -121 -270t-268 -96t-244 75q-82 75 -82 216q0 37 6 75l22 148l62 498h43l-86 -644q-4 -25 -4 -69zM932 1282h-588l-6 6l4 35h588l6 -6z" />
    <glyph glyph-name="Ubreve" unicode="&#x16c;" horiz-adv-x="1193" 
d="M556 -8q-194 0 -292 95t-98 273q0 59 8 109l27 190l82 646h41l-109 -836q-8 -70 -8 -100q0 -162 87 -249t261 -87q174 1 287 113t141 323l104 836h41l-84 -666l-20 -170q-22 -227 -148 -352t-320 -125zM709 1448q-86 0 -129 52t-52 163l31 27h10q2 -102 37 -152t109 -49
q141 0 192 201h11l24 -27q-65 -215 -233 -215z" />
    <glyph glyph-name="ubreve" unicode="&#x16d;" horiz-adv-x="1069" 
d="M205 293q1 -261 285 -261q144 0 234 86q91 85 112 244l82 644h40l-81 -646q-17 -174 -121 -270t-268 -96t-244 75q-82 75 -82 216q0 37 6 75l22 148l62 498h43l-86 -644q-4 -25 -4 -69zM606 1149q-86 0 -129 52t-51 163l31 27h10q2 -101 37 -151t108 -50q141 0 193 201
h10l25 -27q-66 -215 -234 -215z" />
    <glyph glyph-name="Uring" unicode="&#x16e;" horiz-adv-x="1193" 
d="M556 -8q-194 0 -292 95t-98 273q0 59 8 109l27 190l82 646h41l-109 -836q-8 -70 -8 -100q0 -162 87 -249t261 -87q174 1 287 113t141 323l104 836h41l-84 -666l-20 -170q-22 -227 -148 -352t-320 -125zM736 1503q42 0 73 27t31 72q0 44 -28 74t-76 30t-76 -28t-28 -74
t31 -73q31 -28 73 -28zM881 1601q0 -59 -44 -99q-43 -40 -101 -40t-101 40t-43 102t40 103q40 40 106 40t104 -43q39 -43 39 -103z" />
    <glyph glyph-name="uring" unicode="&#x16f;" horiz-adv-x="1069" 
d="M205 293q1 -261 285 -261q144 0 234 86q91 85 112 244l82 644h40l-81 -646q-17 -174 -121 -270t-268 -96t-244 75q-82 75 -82 216q0 37 6 75l22 148l62 498h43l-86 -644q-4 -25 -4 -69zM530 1306q0 -46 30 -74t73 -28t74 27t31 72t-28 75t-76 29q-48 0 -76 -28
q-28 -27 -28 -73zM778 1302q0 -60 -44 -100t-101 -39q-57 0 -101 40q-43 41 -43 103t40 102q39 40 105 40t105 -43t39 -103z" />
    <glyph glyph-name="Uhungarumlaut" unicode="&#x170;" horiz-adv-x="1193" 
d="M556 -8q-194 0 -292 95t-98 273q0 59 8 109l27 190l82 646h41l-109 -836q-8 -70 -8 -100q0 -162 87 -249t261 -87q174 1 287 113t141 323l104 836h41l-84 -666l-20 -170q-22 -227 -148 -352t-320 -125zM788 1550q154 143 183 172l10 -2l20 -20l-2 -10q-72 -72 -229 -215
l-10 2l-23 26zM522 1550q154 143 183 172l10 -2l20 -20l-2 -10q-72 -72 -229 -215l-10 2l-23 26z" />
    <glyph glyph-name="uhungarumlaut" unicode="&#x171;" horiz-adv-x="1069" 
d="M205 293q1 -261 285 -261q144 0 234 86q91 85 112 244l82 644h40l-81 -646q-17 -174 -121 -270t-268 -96t-244 75q-82 75 -82 216q0 37 6 75l22 148l62 498h43l-86 -644q-4 -25 -4 -69zM961 1446l10 -2l20 -21l-2 -10q-143 -141 -295 -276l-10 2l-22 26q158 140 299 281z
M694 1446l11 -2l20 -21l-2 -10q-143 -141 -295 -276l-10 2l-23 26q158 140 299 281z" />
    <glyph glyph-name="Uogonek" unicode="&#x172;" horiz-adv-x="1191" 
d="M700 -362q86 0 156 108h4l23 -33q-86 -117 -183 -116q-57 0 -91 35.5t-34 98t41 122.5l109 170q-80 -31 -180 -31q-182 0 -280.5 95t-98.5 273q0 59 8 109l27 190l82 646h41l-109 -836q-8 -70 -8 -100q0 -162 87 -249t261 -87t286.5 112.5t141.5 323.5l104 836h41
l-84 -666l-20 -170q-31 -301 -233 -418l-136 -211q-39 -61 -39 -106t23 -70.5t61 -25.5z" />
    <glyph glyph-name="uogonek" unicode="&#x173;" horiz-adv-x="1069" 
d="M205 293q1 -260 285 -260q144 0 234.5 85t111.5 244l82 644h40l-81 -646q-25 -225 -185 -315l-137 -205q-41 -59 -41 -105t24.5 -71.5t67.5 -25.5q86 0 166 108h4l23 -33q-90 -117 -193 -116q-59 0 -96 35.5t-37 96t43 124.5l109 161q-76 -20 -146 -20
q-154 0 -235.5 74.5t-81.5 216.5q0 37 6 75l22 148l62 498h43l-86 -644q-4 -25 -4 -69z" />
    <glyph glyph-name="Wcircumflex" unicode="&#x174;" horiz-adv-x="1708" 
d="M1104 0l-186 897h-9l-436 -897h-45l-276 1305h47l14 -88l244 -1147h8l436 895l-74 340h45l15 -88l241 -1147h9l565 1147l39 88h47l-643 -1305h-41zM950 1692h33q123 -106 186 -156l-16 -29h-10q-82 59 -178 144q-96 -72 -211 -144h-11l-10 29q90 58 217 156z" />
    <glyph glyph-name="wcircumflex" unicode="&#x175;" horiz-adv-x="1490" 
d="M942 0l-164 678h-6l-348 -678h-43l-236 1006h48l8 -72l207 -871h4l352 680l-62 263h46l12 -74l205 -869h8l450 871l33 72h45l-516 -1006h-43zM813 1407h37q94 -152 176 -258l-22 -25h-11q-80 102 -166 240q-121 -139 -225 -240h-10l-17 25q76 74 238 258z" />
    <glyph glyph-name="Ycircumflex" unicode="&#x176;" horiz-adv-x="960" 
d="M487 506l-63 -506h-41l49 399l14 103l-288 803h51l14 -54l246 -684h10l447 684l28 54h54zM618 1692h33q123 -106 187 -156l-17 -29h-10q-82 59 -178 144q-96 -72 -211 -144h-10l-11 29q90 58 217 156z" />
    <glyph glyph-name="ycircumflex" unicode="&#x177;" horiz-adv-x="876" 
d="M434 379l-49 -379h-41l41 305l10 82l-245 619h51l12 -43l205 -519h8l360 519l25 43h51zM549 1407h37q94 -152 176 -258l-23 -25h-10q-80 102 -166 240q-121 -139 -225 -240h-10l-17 25q76 74 238 258z" />
    <glyph glyph-name="Ydieresis" unicode="&#x178;" horiz-adv-x="960" 
d="M487 506l-63 -506h-41l49 399l14 103l-288 803h51l14 -54l246 -684h10l447 684l28 54h54zM815 1599q0 -41 -41 -41t-41 42q0 40 41 40t41 -41zM508 1599q0 -41 -41 -41t-41 42q0 40 41 40t41 -41z" />
    <glyph glyph-name="Zacute" unicode="&#x179;" horiz-adv-x="987" 
d="M70 41h635l133 2l8 -10l-12 -33h-754l-70 -2l4 37l928 1229h-614l-113 -2l-8 10l12 35l125 -2h586l71 2l-4 -37zM788 1683l-4 -10q-137 -78 -356 -190l-10 6l-15 31q186 90 361 192l10 -4z" />
    <glyph glyph-name="zacute" unicode="&#x17a;" horiz-adv-x="892" 
d="M94 39h516l115 2l6 -8l-10 -33h-625l-61 -2l4 35l752 934h-502l-96 -2l-7 8l11 35l108 -2h483l62 2l-6 -37zM717 1427l-2 -10q-141 -141 -295 -276l-10 2l-23 26q141 119 299 281l10 -2z" />
    <glyph glyph-name="Zdotaccent" unicode="&#x17b;" horiz-adv-x="987" 
d="M70 41h635l133 2l8 -10l-12 -33h-754l-70 -2l4 37l928 1229h-614l-113 -2l-8 10l12 35l125 -2h586l71 2l-4 -37zM618 1628q0 -41 -40 -41t-41 41q1 41 41 41t40 -41z" />
    <glyph glyph-name="zdotaccent" unicode="&#x17c;" horiz-adv-x="892" 
d="M94 39h516l115 2l6 -8l-10 -33h-625l-61 -2l4 35l752 934h-502l-96 -2l-7 8l11 35l108 -2h483l62 2l-6 -37zM590 1329q0 -41 -41 -41t-41 41t41 41t41 -41z" />
    <glyph glyph-name="Zcaron" unicode="&#x17d;" horiz-adv-x="987" 
d="M70 41h635l133 2l8 -10l-12 -33h-754l-70 -2l4 37l928 1229h-614l-113 -2l-8 10l12 35l125 -2h586l71 2l-4 -37zM575 1493h-32q-106 92 -189 156l17 28h10q82 -59 178 -143q96 72 211 143h10l11 -28q-77 -50 -216 -156z" />
    <glyph glyph-name="zcaron" unicode="&#x17e;" horiz-adv-x="892" 
d="M94 39h516l115 2l6 -8l-10 -33h-625l-61 -2l4 35l752 934h-502l-96 -2l-7 8l11 35l108 -2h483l62 2l-6 -37zM535 1145h-37q-100 160 -179 258l23 24h10q80 -102 166 -239q121 139 225 239h11l16 -24q-85 -84 -235 -258z" />
    <glyph glyph-name="florin" unicode="&#x192;" horiz-adv-x="479" 
d="M551 1210q-205 0 -236 -235l-28 -227h233l6 -9l-4 -32h-239l-78 -623q-14 -133 -55 -211t-148 -178l-25 20l3 11q96 94 133 165.5t51 188.5l78 627h-129l-9 8l5 33h137l28 227q14 133 86 204.5t189 71.5q49 0 127 -16l-10 -39l-7 -4q-47 18 -108 18z" />
    <glyph glyph-name="Ohorn" unicode="&#x1a0;" horiz-adv-x="1230" 
d="M156 545q0 -514 397 -514q174 0 303 94t196.5 261t67.5 382q0 506 -399 506q-176 0 -303 -92t-194.5 -257t-67.5 -380zM1282 1405q0 -98 -69.5 -152.5t-180.5 -50.5q129 -129 129 -420q0 -236 -73.5 -415t-212 -278t-326.5 -99q-434 0 -434 553q0 229 71.5 403t211 271.5
t335.5 97.5q109 0 200 -37t145.5 -37t107.5 40t53 109t-47 132l4 10q18 10 27 10q18 0 38.5 -41t20.5 -96z" />
    <glyph glyph-name="ohorn" unicode="&#x1a1;" horiz-adv-x="1101" 
d="M944 602q0 180 -84 275.5t-246 95.5q-215 0 -333.5 -147.5t-118.5 -415.5q0 -184 83 -281.5t240 -97.5q215 0 337 152.5t122 418.5zM1030 1190q18 0 36.5 -32t18.5 -75q0 -74 -52 -117.5t-128 -43.5l-26 2q106 -104 106 -318q0 -283 -133 -448.5t-369 -165.5
q-176 0 -271 107.5t-95 303.5q0 289 132 450t376 161q90 0 164.5 -29t119.5 -29t90 31t45 81t-43 103q11 19 29 19z" />
    <glyph glyph-name="Uhorn" unicode="&#x1af;" horiz-adv-x="1214" 
d="M556.5 -8q-193.5 0 -292 95t-98.5 273q0 59 8 109l27 190l82 646h41l-109 -836q-8 -70 -8 -100q0 -162 87 -249t261 -87t286.5 112.5t141.5 323.5l104 836h23q61 0 97 29.5t36 81.5t-63 122l4 10q27 22 50 -4q50 -57 50 -125.5t-44 -109.5t-116 -45l-80 -625l-20 -170
q-23 -227 -148.5 -352t-319 -125z" />
    <glyph glyph-name="uhorn" unicode="&#x1b0;" horiz-adv-x="1085" 
d="M205 293q1 -260 285 -260q144 0 234.5 85t111.5 244l82 644h18q55 0 88 24.5t33 66.5t-43 87q9 18 26.5 18t37.5 -30.5t20 -76.5t-40 -82t-104 -42l-77 -611q-18 -174 -122 -270t-267 -96t-244.5 74.5t-81.5 216.5q0 37 6 75l22 148l62 498h43l-86 -644q-4 -25 -4 -69z
" />
    <glyph glyph-name="Acaron" unicode="&#x1cd;" horiz-adv-x="1073" 
d="M651 1235h-6l-377 -758h549zM915 0l-12 88l-76 348h-579l-174 -348l-41 -88h-49l653 1305h43l283 -1305h-48zM690 1493h-33q-106 92 -188 156l16 28h11q82 -59 178 -143q96 72 211 143h10l10 -28q-76 -50 -215 -156z" />
    <glyph glyph-name="acaron" unicode="&#x1ce;" horiz-adv-x="968" 
d="M557 944h-6l-303 -575h448zM780 0l-12 72l-61 258h-480l-135 -258l-33 -72h-47l527 1006h45l243 -1006h-47zM584 1145h-37q-100 160 -178 258l22 24h10q80 -102 166 -239q121 139 226 239h10l16 -24q-85 -84 -235 -258z" />
    <glyph glyph-name="Icaron" unicode="&#x1cf;" horiz-adv-x="481" 
d="M205 0h-41l164 1305h41zM381 1493h-33q-106 92 -188 156l16 28h10q82 -59 179 -143q96 72 210 143h11l10 -28q-76 -50 -215 -156z" />
    <glyph glyph-name="icaron" unicode="&#x1d0;" horiz-adv-x="477" 
d="M201 0h-41l41 307l86 699h41l-86 -697zM334 1145h-37q-100 160 -178 258l22 24h11q80 -102 165 -239q121 139 226 239h10l16 -24q-85 -84 -235 -258z" />
    <glyph glyph-name="Ocaron" unicode="&#x1d1;" horiz-adv-x="1226" 
d="M544 31q184 0 312 93q129 93 197 264q67 172 67 404t-100 357t-286 125t-314 -90q-127 -90 -195 -259q-67 -169 -67 -403t101 -362t285 -129zM540 -10q-202 0 -314 137t-112 388q1 510 282 705q138 95 341 95t315 -133t112 -382t-74 -431q-72 -183 -210 -281t-340 -98z
M754 1493h-33q-106 92 -189 156l17 28h10q82 -59 178 -143q96 72 211 143h10l11 -28q-76 -50 -215 -156z" />
    <glyph glyph-name="ocaron" unicode="&#x1d2;" horiz-adv-x="1091" 
d="M162 410q0 -182 82 -280t237 -97q217 1 340 151t123 418q0 180 -84 276t-244 95q-216 -1 -335 -148t-119 -415zM987 608q0 -288 -133 -452t-371 -164q-176 0 -271 108t-95 306q0 288 132 448t372 160q176 -1 271 -107t95 -299zM633 1145h-37q-100 160 -178 258l22 24h11
q80 -102 165 -239q121 139 226 239h10l16 -24q-85 -84 -235 -258z" />
    <glyph glyph-name="Ucaron" unicode="&#x1d3;" horiz-adv-x="1193" 
d="M556 -8q-194 0 -292 95t-98 273q0 59 8 109l27 190l82 646h41l-109 -836q-8 -70 -8 -100q0 -162 87 -249t261 -87q174 1 287 113t141 323l104 836h41l-84 -666l-20 -170q-22 -227 -148 -352t-320 -125zM725 1444h-37q-100 160 -178 258l22 24h11q80 -102 166 -239
q121 139 225 239h10l17 -24q-86 -84 -236 -258z" />
    <glyph glyph-name="ucaron" unicode="&#x1d4;" horiz-adv-x="1069" 
d="M205 293q1 -261 285 -261q144 0 234 86q91 85 112 244l82 644h40l-81 -646q-17 -174 -121 -270t-268 -96t-244 75q-82 75 -82 216q0 37 6 75l22 148l62 498h43l-86 -644q-4 -25 -4 -69zM623 1145h-37q-100 160 -178 258l22 24h10q80 -102 166 -239q121 139 225 239h11
l16 -24q-85 -84 -235 -258z" />
    <glyph glyph-name="Udieresismacron" unicode="&#x1d5;" horiz-adv-x="1193" 
d="M556 -8q-194 0 -292 95t-98 273q0 59 8 109l27 190l82 646h41l-109 -836q-8 -70 -8 -100q0 -162 87 -249t261 -87q174 1 287 113t141 323l104 836h41l-84 -666l-20 -170q-22 -227 -148 -352t-320 -125zM938 1556q0 -40 -41 -40t-41 40t41 41q41 0 41 -41zM651 1556
q0 -40 -41 -40t-41 40t41 41q41 0 41 -41zM1016 1753h-486l-6 6l4 35h486l6 -6z" />
    <glyph glyph-name="udieresismacron" unicode="&#x1d6;" horiz-adv-x="1069" 
d="M205 293q1 -261 285 -261q144 0 234 86q91 85 112 244l82 644h40l-81 -646q-17 -174 -121 -270t-268 -96t-244 75q-82 75 -82 216q0 37 6 75l22 148l62 498h43l-86 -644q-4 -25 -4 -69zM836 1257q0 -41 -41 -41t-41 42q0 40 41 40t41 -41zM549 1257q0 -41 -41 -41t-41 42
q0 40 41 40t41 -41zM913 1454h-485l-6 6l4 35h485l7 -6z" />
    <glyph glyph-name="Udieresisacute" unicode="&#x1d7;" horiz-adv-x="1193" 
d="M556 -8q-194 0 -292 95t-98 273q0 59 8 109l27 190l82 646h41l-109 -836q-8 -70 -8 -100q0 -162 87 -249t261 -87q174 1 287 113t141 323l104 836h41l-84 -666l-20 -170q-22 -227 -148 -352t-320 -125zM913 1556q0 -40 -41 -40t-41 40t41 41q41 0 41 -41zM627 1556
q0 -40 -41 -40t-41 40t41 41q41 0 41 -41zM958 1853l-6 -10q-164 -59 -383 -125l-10 8l-8 33q190 53 389 127l8 -6z" />
    <glyph glyph-name="udieresisacute" unicode="&#x1d8;" horiz-adv-x="1069" 
d="M205 293q1 -261 285 -261q144 0 234 86q91 85 112 244l82 644h40l-81 -646q-17 -174 -121 -270t-268 -96t-244 75q-82 75 -82 216q0 37 6 75l22 148l62 498h43l-86 -644q-4 -25 -4 -69zM811 1257q0 -41 -41 -41t-41 42q0 40 41 40t41 -41zM524 1257q0 -41 -41 -41t-41 42
q0 40 41 40t41 -41zM856 1554l-6 -10q-164 -59 -383 -125l-10 8l-8 33q190 53 389 127l8 -6z" />
    <glyph glyph-name="Udieresiscaron" unicode="&#x1d9;" horiz-adv-x="1193" 
d="M556 -8q-194 0 -292 95t-98 273q0 59 8 109l27 190l82 646h41l-109 -836q-8 -70 -8 -100q0 -162 87 -249t261 -87q174 1 287 113t141 323l104 836h41l-84 -666l-20 -170q-22 -227 -148 -352t-320 -125zM909 1556q0 -40 -41 -40t-41 40t41 41q41 0 41 -41zM623 1556
q0 -40 -41 -40t-41 40t41 41q41 0 41 -41zM748 1665h-33q-106 92 -189 156l17 28h10q82 -59 178 -143q96 72 211 143h10l11 -28q-76 -50 -215 -156z" />
    <glyph glyph-name="udieresiscaron" unicode="&#x1da;" horiz-adv-x="1069" 
d="M205 293q1 -261 285 -261q144 0 234 86q91 85 112 244l82 644h40l-81 -646q-17 -174 -121 -270t-268 -96t-244 75q-82 75 -82 216q0 37 6 75l22 148l62 498h43l-86 -644q-4 -25 -4 -69zM807 1257q0 -41 -41 -41t-41 42q0 40 41 40t41 -41zM520 1257q0 -41 -41 -41t-41 42
q0 40 41 40t41 -41zM645 1366h-33q-106 92 -188 156l16 28h11q82 -59 178 -143q96 72 211 143h10l10 -28q-76 -50 -215 -156z" />
    <glyph glyph-name="Udieresisgrave" unicode="&#x1db;" horiz-adv-x="1193" 
d="M556 -8q-194 0 -292 95t-98 273q0 59 8 109l27 190l82 646h41l-109 -836q-8 -70 -8 -100q0 -162 87 -249t261 -87q174 1 287 113t141 323l104 836h41l-84 -666l-20 -170q-22 -227 -148 -352t-320 -125zM899 1563q0 -19 -13 -33t-34 -14q-37 0 -37 34q0 20 13 34t34 13
q37 1 37 -34zM612 1563q0 -19 -13 -33t-34 -14q-37 0 -37 34q0 20 14 34t33 13q37 1 37 -34zM961 1759l-13 -33l-12 -8q-221 70 -367 125l-6 10l15 27l8 6q189 -74 375 -127z" />
    <glyph glyph-name="udieresisgrave" unicode="&#x1dc;" horiz-adv-x="1069" 
d="M205 293q1 -261 285 -261q144 0 234 86q91 85 112 244l82 644h40l-81 -646q-17 -174 -121 -270t-268 -96t-244 75q-82 75 -82 216q0 37 6 75l22 148l62 498h43l-86 -644q-4 -25 -4 -69zM797 1264q1 -20 -13 -34t-34 -13q-37 0 -37 34q0 19 13 33t34 14q37 1 37 -34z
M510 1264q0 -20 -13 -34t-34 -13q-37 0 -37 34q0 19 13 33t34 14q37 1 37 -34zM858 1460l-12 -33l-12 -8q-221 70 -367 125l-6 10l14 27l8 6q189 -74 375 -127z" />
    <glyph glyph-name="Oogonek" unicode="&#x1ea;" horiz-adv-x="1226" 
d="M543.5 31q183.5 0 312.5 93t196.5 264t67.5 403.5t-100 357.5t-286.5 125t-313.5 -90t-194.5 -259t-67.5 -402.5t101 -362.5t284.5 -129zM618 -265q0 -46 25 -71.5t68 -25.5q86 0 166 108h4l22 -33q-90 -117 -192 -116q-59 0 -96 35.5t-37 96t43 124.5l108 161
q-86 -25 -182 -24q-209 0 -320.5 137t-111.5 388t71.5 430t210 274.5t341 95.5t314 -133t111.5 -401.5t-95 -465t-275 -276.5l-134 -199q-41 -59 -41 -105z" />
    <glyph glyph-name="oogonek" unicode="&#x1eb;" horiz-adv-x="1091" 
d="M944 602q0 180 -84 275.5t-244 95.5q-217 0 -335.5 -147.5t-118.5 -415.5q0 -182 82 -279.5t237 -97.5q217 0 340 150.5t123 418.5zM514 -265q0 -46 24.5 -71.5t67.5 -25.5q86 0 166 108h4l23 -33q-90 -117 -193 -116q-59 0 -96 35.5t-37 96t43 124.5l102 155
q-66 -16 -135 -16q-176 0 -271 108.5t-95 305.5q0 287 132 447.5t372 160.5q176 0 271 -106.5t95 -313.5t-79 -357.5t-226 -209.5l-127 -187q-41 -59 -41 -105z" />
    <glyph glyph-name="Aringacute" unicode="&#x1fa;" horiz-adv-x="1073" 
d="M651 1235h-6l-379 -758h551zM668 1298q43 0 73.5 27t30.5 72t-27.5 74.5t-75.5 29.5t-76 -27.5t-28 -73.5t30 -74t73 -28zM524 1407q0 55 40 95t106 40t104.5 -43t38.5 -100.5t-36 -94t-87 -44.5l273 -1260h-48l-14 88l-76 348h-579l-174 -348l-39 -88h-49l637 1266
q-43 14 -70 50t-27 91zM528 1622q203 57 387 127l11 -6l10 -27l-6 -8q-141 -51 -385 -127l-8 8z" />
    <glyph glyph-name="aringacute" unicode="&#x1fb;" horiz-adv-x="968" 
d="M557 944h-6l-303 -575h448zM780 0l-12 72l-61 258h-480l-135 -258l-33 -72h-47l527 1006h45l243 -1006h-47zM475 1260q0 -46 30 -73q30 -28 73 -28q44 0 74 27t30 72q0 44 -28 74t-76 30t-75 -28q-28 -28 -28 -74zM723 1257q0 -59 -44 -99t-101 -40t-101 40
q-43 40 -43 102t40 103q40 40 106 40t104 -43q39 -43 39 -103zM846 1577l-6 -8q-141 -51 -385 -127l-9 8l-8 33q203 57 387 127l11 -6z" />
    <glyph glyph-name="AEacute" unicode="&#x1fc;" horiz-adv-x="1523" 
d="M788 1233h-6l-450 -680l475 82zM825 0v88l-16 506l-510 -88l-276 -418l-54 -88h-55l872 1305h584l4 -9l-14 -32h-529l19 -623l465 80l4 -6l-10 -35l-459 -78l16 -561h555l2 -8l-12 -33h-586zM1307 1683l-4 -10q-137 -78 -357 -190l-10 6l-14 31q186 90 360 192l10 -4z
" />
    <glyph glyph-name="aeacute" unicode="&#x1fd;" horiz-adv-x="1343" 
d="M674 942h-6l-365 -514l391 64zM1202 0h-493l4 72l-17 381l-424 -72l-219 -309l-43 -72h-53l713 1006h491l4 -9l-12 -32l-436 2l18 -469l381 61l4 -4l-8 -35l-377 -59l17 -422h458l2 -6zM1120 1427l-2 -10q-141 -141 -295 -276l-10 2l-22 26q141 119 299 281l10 -2z" />
    <glyph glyph-name="Oslashacute" unicode="&#x1fe;" horiz-adv-x="1228" 
d="M549 31q178 0 307 93t197 264t67 405q0 281 -141 399l-627 -1114q84 -47 197 -47zM322 98l626 1116q-90 60 -246 60t-282 -90q-127 -90 -195 -259t-67 -401q0 -303 164 -426zM1163 801q-1 -250 -73 -432q-72 -183 -210 -281t-333 -98q-125 0 -215 49l-123 -217l-31 6
l-4 8l125 223q-184 129 -184 459q0 507 281 702q138 95 307 95t266 -62l112 199l33 -6l2 -10l-115 -205q162 -131 162 -430zM967 1683l-4 -10q-137 -78 -357 -190l-10 6l-14 31q186 90 360 192l10 -4z" />
    <glyph glyph-name="oslashacute" unicode="&#x1ff;" horiz-adv-x="1091" 
d="M944 586q0 252 -143 342l-475 -862q66 -33 155 -33q217 -1 340 150t123 403zM616 973q-218 1 -336 -147t-118 -398t129 -342l473 860q-61 27 -148 27zM987 594q0 -274 -133 -438t-371 -164q-102 0 -176 37l-106 -193l-33 12l-4 9l106 192q-154 104 -154 374
q0 271 133 431q132 160 372 160q92 0 163 -31l90 164l33 -10l4 -11l-90 -161q166 -97 166 -371zM778 1427l-2 -10q-141 -141 -295 -276l-10 2l-22 26q141 119 299 281l10 -2z" />
    <glyph glyph-name="Scommaaccent" unicode="&#x218;" horiz-adv-x="866" 
d="M236 980q0 -70 32 -122q32 -51 79 -87q46 -36 132 -87t139 -92q129 -100 127 -250q0 -94 -54 -175t-147 -128q-92 -47 -186 -47q-188 0 -301 96l6 39l13 4q108 -100 268 -98q102 0 185 43q83 42 129 112t46 146t-33 130q-34 54 -82 91t-134 90t-138 92q-124 95 -122 242
q0 92 51 168t139 120q89 43 205 43t225 -59l-12 -37l-15 -2q-94 58 -202 58t-187 -42t-121 -110t-42 -138zM418 -244q0 -86 -135 -190l-21 22l2 6q111 82 111 160q0 41 -62 70v8q10 14 27 23q78 -36 78 -99z" />
    <glyph glyph-name="scommaaccent" unicode="&#x219;" horiz-adv-x="792" 
d="M498 969q-90 0 -150 -33q-61 -33 -94 -85t-33 -117q0 -64 49 -108q48 -44 136 -88t133 -72q108 -71 108 -192q0 -74 -42 -138t-117 -104q-75 -38 -166 -38q-143 0 -240 74l4 41l10 2q94 -76 228 -76q80 0 146 35t100 91q36 57 36 123t-50 109t-138 88t-132 75
q-106 72 -106 187q0 73 40 133t111 97t168 37t193 -45l-14 -37l-12 -2q-78 43 -168 43zM414 -244q0 -86 -135 -190l-21 22l2 6q111 82 111 160q0 41 -62 70v8q10 14 27 23q78 -36 78 -99z" />
    <glyph glyph-name="uni021A" unicode="&#x21a;" horiz-adv-x="921" 
d="M958 1264h-374l-160 -1264h-41l160 1264h-379l-6 8l12 33h795l6 -9zM446 -244q0 -86 -135 -190l-20 22l2 6q111 82 110 160q0 41 -61 70v8q10 14 27 23q77 -36 77 -99z" />
    <glyph glyph-name="uni021B" unicode="&#x21b;" horiz-adv-x="841" 
d="M815 965l-164 2h-143l-123 -967h-41l123 967h-148l-165 -2l-4 8l10 33h663l2 -9zM510 -244q0 -86 -135 -190l-21 22l2 6q111 82 111 160q0 41 -61 70v8q10 14 26 23q78 -36 78 -99z" />
    <glyph glyph-name="dotlessj" unicode="&#x237;" horiz-adv-x="534" 
d="M362 1006l-100 -824q-14 -114 -66 -190t-165 -148l-19 27v10q98 66 148 136q49 71 61 167l96 783h-208l-7 6l11 33h249z" />
    <glyph glyph-name="circumflex" unicode="&#x2c6;" 
d="M485 1327h37q94 -152 176 -258l-22 -25h-10q-80 102 -166 240q-121 -139 -226 -240h-10l-16 25q75 74 237 258z" />
    <glyph glyph-name="caron" unicode="&#x2c7;" 
d="M496 1065h-37q-100 160 -178 258l22 25h10q80 -102 166 -240q121 139 226 240h10l16 -25q-85 -84 -235 -258z" />
    <glyph glyph-name="firsttonechinese" unicode="&#x2c9;" 
d="M784 1202h-587l-7 6l5 35h587l6 -6z" />
    <glyph glyph-name="breve" unicode="&#x2d8;" 
d="M475 1069q-86 0 -129 52.5t-51 162.5l31 27h10q2 -102 37 -151.5t108 -49.5q141 0 193 201h10l25 -27q-66 -215 -234 -215z" />
    <glyph glyph-name="dotaccent" unicode="&#x2d9;" 
d="M535 1249q0 -41 -41 -41t-41 41t41 41t41 -41z" />
    <glyph glyph-name="ring" unicode="&#x2da;" 
d="M387 1226q0 -46 29.5 -74t72.5 -28t74 27t31 72t-28 74.5t-76 29.5t-75.5 -27.5t-27.5 -73.5zM635 1222q0 -60 -44 -99.5t-101.5 -39.5t-100.5 40.5t-43 102.5t40 102t106 40t104.5 -43t38.5 -103z" />
    <glyph glyph-name="ogonek" unicode="&#x2db;" 
d="M186 -265q0 -46 25 -71.5t68 -25.5q86 0 165 108h5l22 -33q-90 -117 -192 -116q-59 0 -96.5 35.5t-37.5 95.5t43 125l125 188h49l-135 -201q-41 -59 -41 -105z" />
    <glyph glyph-name="tilde" unicode="&#x2dc;" 
d="M342 1239q-20 0 -66 -45l-43 -39h-8l-18 23v8l106 96l13 4q41 -4 169 -41t147 -37t65 45l43 39h8l18 -22v-8l-106 -97l-13 -4q-41 4 -169 41q-126 37 -146 37z" />
    <glyph glyph-name="hungarumlaut" unicode="&#x2dd;" 
d="M758 1366l10 -2l20 -21l-2 -10q-143 -141 -294 -276l-11 2l-22 26q158 140 299 281zM492 1366l10 -2l20 -21l-2 -10q-143 -141 -295 -276l-10 2l-22 26q158 140 299 281z" />
    <glyph glyph-name="tildecomb" unicode="&#x303;" horiz-adv-x="0" 
d="M342 1239q-20 0 -66 -45l-43 -39h-8l-18 23v8l108 98l13 4q49 -6 171 -43t142 -37t66 45l43 39h8l18 -22v-8l-108 -99l-13 -4q-49 6 -171 43t-142 37z" />
    <glyph glyph-name="dotbelowcomb" unicode="&#x323;" horiz-adv-x="0" 
d="M356 -219q0 -41 -41 -41t-41 41t41 41t41 -41z" />
    <glyph glyph-name="commaaccentcomb" unicode="&#x326;" horiz-adv-x="0" 
d="M377 -244q0 -86 -135 -190l-21 22l2 6q111 82 111 160q0 41 -62 70v8q10 14 27 23q78 -36 78 -99z" />
    <glyph glyph-name="Delta" unicode="&#x394;" horiz-adv-x="1073" 
d="M47 41h864l-258 1194h-8zM-16 0l651 1305h43l285 -1305h-979z" />
    <glyph glyph-name="Omega" unicode="&#x3a9;" horiz-adv-x="1419" 
d="M1266 817q0 -242 -103.5 -443.5t-290.5 -326.5l-2 -6h244l148 2l6 -8l-13 -37l-159 2h-234l-78 -2l-4 4l4 33q209 123 324 326t115 439t-103.5 355t-287.5 119t-310.5 -80t-193 -231t-66.5 -345t70.5 -343.5t199.5 -239.5l-4 -33l-4 -4l-75 2h-248l-148 -2l-6 8l12 37
l156 -2h234l2 6q-111 90 -170.5 234.5t-59.5 318.5q0 336 158 525.5t444 189.5q213 0 328 -128t115 -370z" />
    <glyph glyph-name="mu" unicode="&#x3bc;" horiz-adv-x="937" 
d="M260 31q53 0 185.5 174t291.5 471l8 65l15 185l51 8l-94 -717l-19 -217l-51 -8l74 555h-10q-133 -229 -234.5 -366.5t-202.5 -203.5h-22q-53 16 -78 62l-27 -211l-18 -217l-51 -8l147 1138l13 185l51 8l-101 -780q-6 -53 18.5 -88t53.5 -35z" />
    <glyph glyph-name="pi" unicode="&#x3c0;" horiz-adv-x="1159" 
d="M784 115q0 -80 60 -80q49 0 88 31l10 -7l-12 -36q-45 -29 -94 -29q-90 0 -91 108q0 37 5 60l100 803h-424l-147 -1166h-41l147 1166h-121q-29 0 -158 -107h-12l-12 19l2 10l143 112l31 7h885l6 -9l-12 -32h-246l-103 -803q-4 -37 -4 -47z" />
    <glyph glyph-name="Wgrave" unicode="&#x1e80;" horiz-adv-x="1708" 
d="M1104 0l-186 897h-9l-436 -897h-45l-276 1305h47l14 -88l244 -1147h8l436 895l-74 340h45l15 -88l241 -1147h9l565 1147l39 88h47l-643 -1305h-41zM1143 1520l-15 -31l-10 -6q-219 113 -356 190l-4 10l14 25l10 4q175 -102 361 -192z" />
    <glyph glyph-name="wgrave" unicode="&#x1e81;" horiz-adv-x="1490" 
d="M942 0l-164 678h-6l-348 -678h-43l-236 1006h48l8 -72l207 -871h4l352 680l-62 263h46l12 -74l205 -869h8l450 871l33 72h45l-516 -1006h-43zM948 1169l-22 -26l-11 -2q-154 135 -294 276l-3 10l21 21l10 2q158 -162 299 -281z" />
    <glyph glyph-name="Wacute" unicode="&#x1e82;" horiz-adv-x="1708" 
d="M1104 0l-186 897h-9l-436 -897h-45l-276 1305h47l14 -88l244 -1147h8l436 895l-74 340h45l15 -88l241 -1147h9l565 1147l39 88h47l-643 -1305h-41zM1165 1683l-4 -10q-137 -78 -356 -190l-10 6l-15 31q186 90 361 192l10 -4z" />
    <glyph glyph-name="wacute" unicode="&#x1e83;" horiz-adv-x="1490" 
d="M942 0l-164 678h-6l-348 -678h-43l-236 1006h48l8 -72l207 -871h4l352 680l-62 263h46l12 -74l205 -869h8l450 871l33 72h45l-516 -1006h-43zM975 1427l-2 -10q-141 -141 -295 -276l-10 2l-23 26q141 119 299 281l10 -2z" />
    <glyph glyph-name="Wdieresis" unicode="&#x1e84;" horiz-adv-x="1708" 
d="M1104 0l-186 897h-9l-436 -897h-45l-276 1305h47l14 -88l244 -1147h8l436 895l-74 340h45l15 -88l241 -1147h9l565 1147l39 88h47l-643 -1305h-41zM1147 1599q0 -41 -41 -41t-41 42q0 40 41 40t41 -41zM840 1599q0 -41 -41 -41t-41 42q0 40 41 40t41 -41z" />
    <glyph glyph-name="wdieresis" unicode="&#x1e85;" horiz-adv-x="1490" 
d="M942 0l-164 678h-6l-348 -678h-43l-236 1006h48l8 -72l207 -871h4l352 680l-62 263h46l12 -74l205 -869h8l450 871l33 72h45l-516 -1006h-43zM999 1300q0 -41 -41 -40q-40 0 -40 40t40 41q40 0 41 -41zM692 1300q0 -40 -41 -40t-41 40t41 41q41 0 41 -41z" />
    <glyph glyph-name="uni1E9E" unicode="&#x1e9e;" horiz-adv-x="1155" 
d="M397 131q106 -98 285 -98q84 0 163 46t124 123t45 167q0 260 -422 297l-2 30l432 482q-160 92 -328 92t-283.5 -104.5t-136.5 -276.5l-112 -889h-41l112 887q16 125 81 221t165.5 149.5t222.5 53.5q179 0 369 -111l4 -22l-428 -473q199 -23 303.5 -107t104.5 -208
t-52.5 -212t-141.5 -137t-179 -49q-188 0 -305 96l10 39z" />
    <glyph glyph-name="Adotbelow" unicode="&#x1ea0;" horiz-adv-x="1073" 
d="M651 1235h-6l-377 -758h549zM915 0l-12 88l-76 348h-579l-174 -348l-41 -88h-49l653 1305h43l283 -1305h-48zM483 -219q0 -41 -41 -41t-41 41t41 41t41 -41z" />
    <glyph glyph-name="adotbelow" unicode="&#x1ea1;" horiz-adv-x="968" 
d="M557 944h-6l-303 -575h448zM780 0l-12 72l-61 258h-480l-135 -258l-33 -72h-47l527 1006h45l243 -1006h-47zM475 -219q0 -41 -41 -41t-41 41t41 41t41 -41z" />
    <glyph glyph-name="Ahookabove" unicode="&#x1ea2;" horiz-adv-x="1073" 
d="M651 1235h-6l-377 -758h549zM915 0l-12 88l-76 348h-579l-174 -348l-41 -88h-49l653 1305h43l283 -1305h-48zM758 1688q0 -59 -99 -134l33 -59l-35 -14l-45 84q104 70 105 118q0 41 -53 41t-111 -47l-16 29q69 60 119 60t76 -23t26 -55z" />
    <glyph glyph-name="ahookabove" unicode="&#x1ea3;" horiz-adv-x="968" 
d="M557 944h-6l-303 -575h448zM780 0l-12 72l-61 258h-480l-135 -258l-33 -72h-47l527 1006h45l243 -1006h-47zM664 1389q0 -59 -99 -134l33 -59l-35 -14l-45 84q104 70 105 118q1 41 -53 41t-111 -47l-17 29q70 59 120 59t76 -22q26 -23 26 -55z" />
    <glyph glyph-name="Acircumflexacute" unicode="&#x1ea4;" horiz-adv-x="1073" 
d="M651 1235h-6l-377 -758h549zM915 0l-12 88l-76 348h-579l-174 -348l-41 -88h-49l653 1305h43l283 -1305h-48zM891 1497l-17 -29h-10q-82 59 -178 144q-96 -72 -211 -144h-10l-10 29q90 57 217 156h33q123 -107 186 -156zM956 1815l-2 -11l-139 -155h-12l-23 22l144 164
l10 -2z" />
    <glyph glyph-name="acircumflexacute" unicode="&#x1ea5;" horiz-adv-x="968" 
d="M557 944h-6l-303 -575h448zM780 0l-12 72l-61 258h-480l-135 -258l-33 -72h-47l527 1006h45l243 -1006h-47zM797 1198l-17 -29h-10q-82 59 -178 144q-96 -72 -211 -144h-10l-11 29q90 57 218 156h32q124 -107 187 -156zM862 1516l-2 -11l-139 -155h-12l-23 22l143 164
l11 -2z" />
    <glyph glyph-name="Acircumflexgrave" unicode="&#x1ea6;" horiz-adv-x="1073" 
d="M651 1235h-6l-377 -758h549zM915 0l-12 88l-76 348h-579l-174 -348l-41 -88h-49l653 1305h43l283 -1305h-48zM895 1499l-16 -29h-11q-82 59 -178 144q-96 -72 -211 -144h-10l-10 29q90 57 217 156h33q123 -107 186 -156zM895 1647h-12l-140 155l-2 10l23 19l10 2
l144 -164z" />
    <glyph glyph-name="acircumflexgrave" unicode="&#x1ea7;" horiz-adv-x="968" 
d="M557 944h-6l-303 -575h448zM780 0l-12 72l-61 258h-480l-135 -258l-33 -72h-47l527 1006h45l243 -1006h-47zM801 1200l-17 -29h-10q-82 59 -178 144q-96 -72 -211 -144h-10l-10 29q90 57 217 156h32q124 -107 187 -156zM801 1348h-13l-139 155l-2 10l23 19l10 2l143 -164
z" />
    <glyph glyph-name="Acircumflexhookabove" unicode="&#x1ea8;" horiz-adv-x="1073" 
d="M651 1235h-6l-377 -758h549zM915 0l-12 88l-76 348h-579l-174 -348l-41 -88h-49l653 1305h43l283 -1305h-48zM891 1499l-17 -29h-10q-82 59 -178 144q-96 -72 -211 -144h-10l-10 29q90 57 217 156h33q123 -107 186 -156zM938 1812q0 -57 -94 -126l30 -56l-32 -14l-43 80
q100 66 100 112q0 39 -51 39t-105 -43l-16 27q69 57 115 57t71 -22q25 -23 25 -54z" />
    <glyph glyph-name="acircumflexhookabove" unicode="&#x1ea9;" horiz-adv-x="968" 
d="M557 944h-6l-303 -575h448zM780 0l-12 72l-61 258h-480l-135 -258l-33 -72h-47l527 1006h45l243 -1006h-47zM797 1200l-17 -29h-10q-82 59 -178 144q-96 -72 -211 -144h-10l-11 29q90 57 218 156h32q124 -107 187 -156zM844 1513q0 -57 -94 -127l30 -55l-32 -14l-43 80
q100 66 100 112q0 39 -51 39t-105 -43l-16 27q69 58 115 58t71 -23t25 -54z" />
    <glyph glyph-name="Acircumflextilde" unicode="&#x1eaa;" horiz-adv-x="1073" 
d="M651 1235h-6l-377 -758h549zM915 0l-12 88l-76 348h-579l-174 -348l-41 -88h-49l653 1305h43l283 -1305h-48zM891 1505l-17 -28h-10q-82 59 -178 143q-96 -72 -211 -143h-10l-10 28q90 57 217 156h33q123 -107 186 -156zM592 1804q-18 0 -66 -47l-37 -37h-8l-18 23v8
l102 96l10 4q37 -4 160 -41q123 -36 141 -36t66 47l37 37h8l19 -23v-8l-103 -96l-10 -5q-37 4 -160 41t-141 37z" />
    <glyph glyph-name="acircumflextilde" unicode="&#x1eab;" horiz-adv-x="968" 
d="M557 944h-6l-303 -575h448zM780 0l-12 72l-61 258h-480l-135 -258l-33 -72h-47l527 1006h45l243 -1006h-47zM797 1206l-17 -28h-10q-82 59 -178 143q-96 -72 -211 -143h-10l-11 28q90 57 218 156h32q124 -107 187 -156zM498 1505q-18 0 -66 -47l-37 -37h-8l-18 23v8
l102 96l10 4q37 -4 160 -41t141 -37t66 48l37 37h8l18 -23v-8l-102 -96l-10 -5q-37 4 -160 41t-141 37z" />
    <glyph glyph-name="Acircumflexdotbelow" unicode="&#x1eac;" horiz-adv-x="1073" 
d="M483 -219q0 -41 -41 -41t-41 41t41 41t41 -41zM651 1235h-6l-377 -758h549zM915 0l-12 88l-76 348h-579l-174 -348l-41 -88h-49l653 1305h43l283 -1305h-48zM471 1536q90 57 217 156h33q123 -106 186 -156l-16 -29h-10q-82 59 -179 144q-96 -72 -210 -144h-11z" />
    <glyph glyph-name="acircumflexdotbelow" unicode="&#x1ead;" horiz-adv-x="968" 
d="M475 -219q0 -41 -41 -41t-41 41t41 41t41 -41zM557 944h-6l-303 -575h448zM780 0l-12 72l-61 258h-480l-135 -258l-33 -72h-47l527 1006h45l243 -1006h-47zM367 1149q76 74 237 258h37q94 -152 176 -258l-22 -25h-11q-80 102 -166 240q-121 -139 -225 -240h-10z" />
    <glyph glyph-name="Abreveacute" unicode="&#x1eae;" horiz-adv-x="1073" 
d="M651 1235h-6l-377 -758h549zM915 0l-12 88l-76 348h-579l-174 -348l-41 -88h-49l653 1305h43l283 -1305h-48zM670 1450q-76 0 -126 39t-63 113l29 22h10q16 -133 152 -133t186 133h10l25 -22q-65 -152 -223 -152zM819 1804q-61 -72 -125 -137l-41 -43l-10 2l-25 25
q53 55 170 184h11l22 -20z" />
    <glyph glyph-name="abreveacute" unicode="&#x1eaf;" horiz-adv-x="968" 
d="M557 944h-6l-303 -575h448zM780 0l-12 72l-61 258h-480l-135 -258l-33 -72h-47l527 1006h45l243 -1006h-47zM575 1151q-75 0 -125 39t-63 113l29 22h10q16 -133 152 -133t186 133h10l25 -22q-66 -152 -224 -152zM725 1505q-61 -72 -125 -137l-41 -43l-10 2l-25 25
q53 55 170 184h11l22 -20z" />
    <glyph glyph-name="Abrevegrave" unicode="&#x1eb0;" horiz-adv-x="1073" 
d="M651 1235h-6l-377 -758h549zM915 0l-12 88l-76 348h-579l-174 -348l-41 -88h-49l653 1305h43l283 -1305h-48zM670 1452q-76 0 -126 39t-63 113l29 22h10q16 -133 152 -133t186 133h10l25 -22q-65 -152 -223 -152zM696 1624l-41 43q-63 66 -125 137l-2 11l23 20h10
q117 -129 170 -184l-24 -25z" />
    <glyph glyph-name="abrevegrave" unicode="&#x1eb1;" horiz-adv-x="968" 
d="M557 944h-6l-303 -575h448zM780 0l-12 72l-61 258h-480l-135 -258l-33 -72h-47l527 1006h45l243 -1006h-47zM575 1153q-75 0 -125 39t-63 113l29 22h10q16 -133 152 -133t186 133h10l25 -22q-66 -152 -224 -152zM602 1325l-41 43q-63 66 -125 137l-2 11l23 20h10
q117 -129 170 -184l-25 -25z" />
    <glyph glyph-name="Abrevehookabove" unicode="&#x1eb2;" horiz-adv-x="1073" 
d="M651 1235h-6l-377 -758h549zM915 0l-12 88l-76 348h-579l-174 -348l-41 -88h-49l653 1305h43l283 -1305h-48zM670 1450q-76 0 -126 39t-63 113l29 22h10q16 -133 152 -133t186 133h10l25 -22q-65 -152 -223 -152zM741 1827q0 41 -53 41t-110 -47l-17 28q70 59 120 59
t76 -22q26 -23 25 -55q0 -59 -98 -133l33 -60l-35 -14l-45 84q104 70 104 119z" />
    <glyph glyph-name="abrevehookabove" unicode="&#x1eb3;" horiz-adv-x="968" 
d="M557 944h-6l-303 -575h448zM780 0l-12 72l-61 258h-480l-135 -258l-33 -72h-47l527 1006h45l243 -1006h-47zM575 1151q-75 0 -125 39t-63 113l29 22h10q16 -133 152 -133t186 133h10l25 -22q-66 -152 -224 -152zM647 1528q0 41 -53 41t-111 -47l-16 28q70 60 120 60
t76 -23t25 -55q0 -59 -98 -133l33 -60l-35 -14l-45 84q104 70 104 119z" />
    <glyph glyph-name="Abrevetilde" unicode="&#x1eb4;" horiz-adv-x="1073" 
d="M651 1235h-6l-377 -758h549zM915 0l-12 88l-76 348h-579l-174 -348l-41 -88h-49l653 1305h43l283 -1305h-48zM664 1450q-76 0 -126 39t-63 113l29 22h10q16 -133 152 -133t186 133h10l25 -22q-65 -152 -223 -152zM580 1804q-18 0 -66 -47l-37 -37h-8l-18 23v8l102 96
l10 4q37 -4 160 -41q123 -36 141 -36t66 47l37 37h8l18 -23v-8l-102 -96l-10 -5q-37 4 -160 41t-141 37z" />
    <glyph glyph-name="abrevetilde" unicode="&#x1eb5;" horiz-adv-x="968" 
d="M557 944h-6l-303 -575h448zM780 0l-12 72l-61 258h-480l-135 -258l-33 -72h-47l527 1006h45l243 -1006h-47zM569 1151q-76 0 -126 39t-62 113l29 22h10q16 -133 151 -133t187 133h10l25 -22q-66 -152 -224 -152zM486 1505q-18 0 -66 -47l-37 -37h-8l-19 23v8l103 96l10 4
q37 -4 160 -41t141 -37t66 48l36 37h9l18 -23v-8l-102 -96l-11 -5q-38 4 -160 41t-140 37z" />
    <glyph glyph-name="Abrevedotbelow" unicode="&#x1eb6;" horiz-adv-x="1073" 
d="M483 -219q0 -41 -41 -41t-41 41t41 41t41 -41zM651 1235h-6l-377 -758h549zM915 0l-12 88l-76 348h-579l-174 -348l-41 -88h-49l653 1305h43l283 -1305h-48zM671.5 1532q135.5 0 186.5 133h10l25 -23q-66 -152 -223 -151q-76 0 -126 39t-63 112l29 23h10
q16 -133 151.5 -133z" />
    <glyph glyph-name="abrevedotbelow" unicode="&#x1eb7;" horiz-adv-x="968" 
d="M475 -219q0 -41 -41 -41t-41 41t41 41t41 -41zM557 944h-6l-303 -575h448zM780 0l-12 72l-61 258h-480l-135 -258l-33 -72h-47l527 1006h45l243 -1006h-47zM573 1190q141 0 193 201h10l25 -27q-66 -215 -234 -215q-86 0 -129 52t-51 163l31 27h10q2 -102 37 -151.5
t108 -49.5z" />
    <glyph glyph-name="Edotbelow" unicode="&#x1eb8;" horiz-adv-x="884" 
d="M293 696h457l6 -8l-13 -33h-454l-78 -614h559l6 -8l-12 -33h-600l164 1305h596l4 -9l-13 -32h-550zM528 -219q0 -41 -41 -41t-41 41t41 41t41 -41z" />
    <glyph glyph-name="edotbelow" unicode="&#x1eb9;" horiz-adv-x="813" 
d="M268 541h379l4 -9l-10 -32h-377l-59 -461h465l6 -6l-12 -33h-504l127 1006h499l7 -9l-13 -32l-456 2zM455 -219q0 -41 -41 -41t-41 41t41 41t41 -41z" />
    <glyph glyph-name="Ehookabove" unicode="&#x1eba;" horiz-adv-x="884" 
d="M293 696h457l6 -8l-13 -33h-454l-78 -614h559l6 -8l-12 -33h-600l164 1305h596l4 -9l-13 -32h-550zM700 1683q0 41 -53 41t-110 -47l-17 29q70 60 120 60t76 -23t25 -55q0 -59 -98 -134l33 -59l-35 -14l-45 84q104 70 104 118z" />
    <glyph glyph-name="ehookabove" unicode="&#x1ebb;" horiz-adv-x="813" 
d="M268 541h379l4 -9l-10 -32h-377l-59 -461h465l6 -6l-12 -33h-504l127 1006h499l7 -9l-13 -32l-456 2zM639 1389q0 -59 -98 -134l32 -59l-34 -14l-45 84q104 70 104 118q0 41 -53 41t-111 -47l-16 29q70 59 120 59t75 -22q26 -23 26 -55z" />
    <glyph glyph-name="Ecircumflexacute" unicode="&#x1ebe;" horiz-adv-x="884" 
d="M293 696h457l6 -8l-13 -33h-454l-78 -614h559l6 -8l-12 -33h-600l164 1305h596l4 -9l-13 -32h-550zM874 1497l-16 -29h-10q-82 59 -178 144q-96 -72 -211 -144h-10l-11 29q90 57 217 156h33q123 -107 186 -156zM940 1815l-2 -11l-139 -155h-13l-22 22l143 164l11 -2z" />
    <glyph glyph-name="ecircumflexacute" unicode="&#x1ebf;" horiz-adv-x="813" 
d="M268 541h379l4 -9l-10 -32h-377l-59 -461h465l6 -6l-12 -33h-504l127 1006h499l7 -9l-13 -32l-456 2zM772 1198l-16 -29h-11q-82 59 -178 144q-96 -72 -211 -144h-10l-10 29q90 57 217 156h33q123 -107 186 -156zM838 1516l-2 -11l-140 -155h-12l-22 22l143 164l10 -2z
" />
    <glyph glyph-name="Ecircumflexgrave" unicode="&#x1ec0;" horiz-adv-x="884" 
d="M293 696h457l6 -8l-13 -33h-454l-78 -614h559l6 -8l-12 -33h-600l164 1305h596l4 -9l-13 -32h-550zM879 1499l-17 -29h-10q-82 59 -178 144q-96 -72 -211 -144h-10l-11 29q90 57 217 156h33q124 -107 187 -156zM879 1647h-13l-139 155l-2 10l23 19l10 2l143 -164z" />
    <glyph glyph-name="ecircumflexgrave" unicode="&#x1ec1;" horiz-adv-x="813" 
d="M268 541h379l4 -9l-10 -32h-377l-59 -461h465l6 -6l-12 -33h-504l127 1006h499l7 -9l-13 -32l-456 2zM776 1200l-16 -29h-10q-82 59 -179 144q-96 -72 -211 -144h-10l-10 29q90 57 217 156h33q123 -107 186 -156zM776 1348h-12l-139 155l-2 10l22 19l10 2l144 -164z" />
    <glyph glyph-name="Ecircumflexhookabove" unicode="&#x1ec2;" horiz-adv-x="884" 
d="M293 696h457l6 -8l-13 -33h-454l-78 -614h559l6 -8l-12 -33h-600l164 1305h596l4 -9l-13 -32h-550zM874 1499l-16 -29h-10q-82 59 -178 144q-96 -72 -211 -144h-10l-11 29q90 57 217 156h33q123 -107 186 -156zM922 1812q0 -57 -95 -126l31 -56l-33 -14l-43 80
q100 66 101 112q1 39 -51 39t-105 -43l-16 27q69 57 115 57t71 -22q25 -23 25 -54z" />
    <glyph glyph-name="ecircumflexhookabove" unicode="&#x1ec3;" horiz-adv-x="813" 
d="M268 541h379l4 -9l-10 -32h-377l-59 -461h465l6 -6l-12 -33h-504l127 1006h499l7 -9l-13 -32l-456 2zM772 1200l-16 -29h-11q-82 59 -178 144q-96 -72 -211 -144h-10l-10 29q90 57 217 156h33q123 -107 186 -156zM780 1509q0 39 -51 39t-104 -43l-17 27q68 58 115 58
t72 -23t24 -54q0 -57 -94 -127l31 -55l-33 -14l-43 80q100 66 100 112z" />
    <glyph glyph-name="Ecircumflextilde" unicode="&#x1ec4;" horiz-adv-x="884" 
d="M293 696h457l6 -8l-13 -33h-454l-78 -614h559l6 -8l-12 -33h-600l164 1305h596l4 -9l-13 -32h-550zM879 1499l-17 -29h-10q-82 59 -178 144q-96 -72 -211 -144h-10l-11 29q90 57 217 156h33q124 -107 187 -156zM879 1647h-13l-139 155l-2 10l23 19l10 2l143 -164z" />
    <glyph glyph-name="ecircumflextilde" unicode="&#x1ec5;" horiz-adv-x="813" 
d="M268 541h379l4 -9l-10 -32h-377l-59 -461h465l6 -6l-12 -33h-504l127 1006h499l7 -9l-13 -32l-456 2zM772 1206l-16 -28h-11q-82 59 -178 143q-96 -72 -211 -143h-10l-10 28q90 57 217 156h33q123 -107 186 -156zM473 1505q-18 0 -65 -47l-37 -37h-9l-18 23v8l102 96
l11 4q37 -4 159 -41t142 -37q18 0 65 48l37 37h8l19 -23v-8l-103 -96l-10 -5q-37 4 -160 41t-141 37z" />
    <glyph glyph-name="Ecircumflexdotbelow" unicode="&#x1ec6;" horiz-adv-x="884" 
d="M293 696h457l6 -8l-13 -33h-454l-78 -614h559l6 -8l-12 -33h-600l164 1305h596l4 -9l-13 -32h-550zM528 -219q0 -41 -41 -41t-41 41t41 41t41 -41zM672 1692h33q123 -106 186 -156l-17 -29h-10q-82 59 -178 144q-96 -72 -211 -144h-10l-10 29q90 58 217 156z" />
    <glyph glyph-name="ecircumflexdotbelow" unicode="&#x1ec7;" horiz-adv-x="813" 
d="M268 541h379l4 -9l-10 -32h-377l-59 -461h465l6 -6l-12 -33h-504l127 1006h499l7 -9l-13 -32l-456 2zM455 -219q0 -41 -41 -41t-41 41t41 41t41 -41zM580 1407h36q94 -152 177 -258l-23 -25h-10q-80 102 -166 240q-121 -139 -225 -240h-11l-16 25q76 74 238 258z" />
    <glyph glyph-name="Ihookabove" unicode="&#x1ec8;" horiz-adv-x="481" 
d="M205 0h-41l164 1305h41zM449 1688q0 -59 -99 -134l33 -59l-35 -14l-45 84q104 70 105 118q0 41 -54 41t-110 -47l-17 29q70 60 120 60t76 -23t26 -55z" />
    <glyph glyph-name="ihookabove" unicode="&#x1ec9;" horiz-adv-x="477" 
d="M201 0h-41l41 307l86 699h41l-86 -697zM414 1389q0 -59 -99 -134l33 -59l-35 -14l-45 84q104 70 105 118q1 41 -53 41t-111 -47l-16 29q69 59 119 59t76 -22q26 -23 26 -55z" />
    <glyph glyph-name="Idotbelow" unicode="&#x1eca;" horiz-adv-x="481" 
d="M205 0h-41l164 1305h41zM213 -219q0 -41 -41 -41t-41 41t41 41t41 -41z" />
    <glyph glyph-name="idotbelow" unicode="&#x1ecb;" horiz-adv-x="477" 
d="M201 0h-41l41 307l86 699h41l-86 -697zM209 -219q0 -41 -41 -41t-41 41t41 41t41 -41z" />
    <glyph glyph-name="Odotbelow" unicode="&#x1ecc;" horiz-adv-x="1226" 
d="M158 522q0 -234 101 -362.5t284.5 -128.5t312.5 93t196.5 264t67.5 403.5t-100 357.5t-286.5 125t-313.5 -90t-194.5 -259t-67.5 -403zM1163 800q0 -249 -72.5 -431.5t-211 -280.5t-340 -98t-313 137t-111.5 388t71.5 430t210 274.5t341 95.5t314 -133t111.5 -382z
M631 -219q0 -41 -41 -41t-41 41t41 41t41 -41z" />
    <glyph glyph-name="odotbelow" unicode="&#x1ecd;" horiz-adv-x="1091" 
d="M162 410q0 -182 82 -279.5t237 -97.5q217 0 340 150.5t123 418.5q0 180 -84 275.5t-244 95.5q-217 0 -335.5 -147.5t-118.5 -415.5zM987 608q0 -289 -133 -452.5t-371 -163.5q-176 0 -271 108.5t-95 305.5q0 287 132 447.5t372 160.5q176 0 271 -106.5t95 -299.5z
M559 -219q0 -41 -41 -41t-41 41t41 41t41 -41z" />
    <glyph glyph-name="Ohookabove" unicode="&#x1ece;" horiz-adv-x="1226" 
d="M544 31q184 0 312 93q129 93 197 264q67 172 67 404t-100 357t-286 125t-314 -90q-127 -90 -195 -259q-67 -169 -67 -403t101 -362t285 -129zM540 -10q-202 0 -314 137t-112 388q1 510 282 705q138 95 341 95t315 -133t112 -382t-74 -431q-72 -183 -210 -281t-340 -98z
M780 1683q0 41 -53 41t-111 -47l-16 29q70 60 120 60t76 -23t25 -55q0 -59 -98 -134l33 -59l-35 -14l-45 84q104 70 104 118z" />
    <glyph glyph-name="ohookabove" unicode="&#x1ecf;" horiz-adv-x="1091" 
d="M162 410q0 -182 82 -280t237 -97q217 1 340 151t123 418q0 180 -84 276t-244 95q-216 -1 -335 -148t-119 -415zM987 608q0 -288 -133 -452t-371 -164q-176 0 -271 108t-95 306q0 288 132 448t372 160q176 -1 271 -107t95 -299zM713 1389q0 -59 -99 -134l33 -59l-35 -14
l-45 84q104 70 105 118q0 41 -54 41t-110 -47l-16 29q70 59 120 59t75 -22q26 -23 26 -55z" />
    <glyph glyph-name="Ocircumflexacute" unicode="&#x1ed0;" horiz-adv-x="1226" 
d="M544 31q184 0 312 93q129 93 197 264q67 172 67 404t-100 357t-286 125t-314 -90q-127 -90 -195 -259q-67 -169 -67 -403t101 -362t285 -129zM540 -10q-202 0 -314 137t-112 388q1 510 282 705q138 95 341 95t315 -133t112 -382t-74 -431q-72 -183 -210 -281t-340 -98z
M954 1497l-16 -29h-10q-82 59 -178 144q-96 -72 -211 -144h-11l-10 29q90 57 217 156h33q123 -107 186 -156zM1020 1815l-2 -11l-139 -155h-13l-22 22l143 164l10 -2z" />
    <glyph glyph-name="ocircumflexacute" unicode="&#x1ed1;" horiz-adv-x="1091" 
d="M162 410q0 -182 82 -280t237 -97q217 1 340 151t123 418q0 180 -84 276t-244 95q-216 -1 -335 -148t-119 -415zM987 608q0 -288 -133 -452t-371 -164q-176 0 -271 108t-95 306q0 288 132 448t372 160q176 -1 271 -107t95 -299zM846 1198l-17 -29h-10q-82 59 -178 144
q-96 -72 -211 -144h-10l-10 29q90 57 217 156h32q124 -107 187 -156zM911 1516l-2 -11l-139 -155h-12l-23 22l144 164l10 -2z" />
    <glyph glyph-name="Ocircumflexgrave" unicode="&#x1ed2;" horiz-adv-x="1226" 
d="M544 31q184 0 312 93q129 93 197 264q67 172 67 404t-100 357t-286 125t-314 -90q-127 -90 -195 -259q-67 -169 -67 -403t101 -362t285 -129zM540 -10q-202 0 -314 137t-112 388q1 510 282 705q138 95 341 95t315 -133t112 -382t-74 -431q-72 -183 -210 -281t-340 -98z
M958 1499l-16 -29h-10q-82 59 -178 144q-96 -72 -211 -144h-11l-10 29q90 57 217 156h33q123 -107 186 -156zM958 1647h-12l-139 155l-2 10l22 19l11 2l143 -164z" />
    <glyph glyph-name="ocircumflexgrave" unicode="&#x1ed3;" horiz-adv-x="1091" 
d="M162 410q0 -182 82 -280t237 -97q217 1 340 151t123 418q0 180 -84 276t-244 95q-216 -1 -335 -148t-119 -415zM987 608q0 -288 -133 -452t-371 -164q-176 0 -271 108t-95 306q0 288 132 448t372 160q176 -1 271 -107t95 -299zM850 1200l-16 -29h-11q-82 59 -178 144
q-96 -72 -211 -144h-10l-10 29q90 57 217 156h33q123 -107 186 -156zM850 1348h-12l-140 155l-2 10l23 19l10 2l143 -164z" />
    <glyph glyph-name="Ocircumflexhookabove" unicode="&#x1ed4;" horiz-adv-x="1226" 
d="M544 31q184 0 312 93q129 93 197 264q67 172 67 404t-100 357t-286 125t-314 -90q-127 -90 -195 -259q-67 -169 -67 -403t101 -362t285 -129zM540 -10q-202 0 -314 137t-112 388q1 510 282 705q138 95 341 95t315 -133t112 -382t-74 -431q-72 -183 -210 -281t-340 -98z
M954 1499l-16 -29h-10q-82 59 -178 144q-96 -72 -211 -144h-11l-10 29q90 57 217 156h33q123 -107 186 -156zM912 1847q-52 0 -105 -43l-16 27q69 57 115 57t71 -22q25 -23 24 -54q0 -57 -94 -126l31 -56l-33 -14l-43 80q100 66 101 112q1 39 -51 39z" />
    <glyph glyph-name="ocircumflexhookabove" unicode="&#x1ed5;" horiz-adv-x="1091" 
d="M162 410q0 -182 82 -280t237 -97q217 1 340 151t123 418q0 180 -84 276t-244 95q-216 -1 -335 -148t-119 -415zM987 608q0 -288 -133 -452t-371 -164q-176 0 -271 108t-95 306q0 288 132 448t372 160q176 -1 271 -107t95 -299zM846 1200l-17 -29h-10q-82 59 -178 144
q-96 -72 -211 -144h-10l-10 29q90 57 217 156h32q124 -107 187 -156zM893 1513q0 -57 -94 -127l30 -55l-32 -14l-43 80q100 66 100 112q0 39 -51 39t-105 -43l-16 27q68 58 114 58t72 -23q25 -23 25 -54z" />
    <glyph glyph-name="Ocircumflextilde" unicode="&#x1ed6;" horiz-adv-x="1226" 
d="M544 31q184 0 312 93q129 93 197 264q67 172 67 404t-100 357t-286 125t-314 -90q-127 -90 -195 -259q-67 -169 -67 -403t101 -362t285 -129zM540 -10q-202 0 -314 137t-112 388q1 510 282 705q138 95 341 95t315 -133t112 -382t-74 -431q-72 -183 -210 -281t-340 -98z
M954 1505l-16 -28h-10q-82 59 -178 143q-96 -72 -211 -143h-11l-10 28q90 57 217 156h33q123 -107 186 -156zM656 1804q-18 0 -66 -47l-37 -37h-8l-19 23v8l103 96l10 4q37 -4 160 -41q123 -36 141 -36t66 47l36 37h9l18 -23v-8l-102 -96l-11 -5q-38 4 -160 41t-140 37z" />
    <glyph glyph-name="ocircumflextilde" unicode="&#x1ed7;" horiz-adv-x="1091" 
d="M162 410q0 -182 82 -280t237 -97q217 1 340 151t123 418q0 180 -84 276t-244 95q-216 -1 -335 -148t-119 -415zM987 608q0 -288 -133 -452t-371 -164q-176 0 -271 108t-95 306q0 288 132 448t372 160q176 -1 271 -107t95 -299zM846 1206l-17 -28h-10q-82 59 -178 143
q-96 -72 -211 -143h-10l-10 28q90 57 217 156h32q124 -107 187 -156zM547 1505q-18 0 -66 -47l-37 -37h-8l-18 23v8l102 96l10 4q37 -4 160 -41q124 -37 142 -37t65 48l37 37h8l19 -23v-8l-103 -96l-10 -5q-37 4 -160 41t-141 37z" />
    <glyph glyph-name="Ocircumflexdotbelow" unicode="&#x1ed8;" horiz-adv-x="1226" 
d="M631 -219q0 -41 -41 -41t-41 41t41 41t41 -41zM158 522q0 -234 101 -362.5t284.5 -128.5t312.5 93t196.5 264t67.5 403.5t-100 357.5t-286.5 125t-313.5 -90t-194.5 -259t-67.5 -403zM1163 800q0 -249 -72.5 -431.5t-211 -280.5t-340 -98t-313 137t-111.5 388t71.5 430
t210 274.5t341 95.5t314 -133t111.5 -382zM752 1692h32q123 -106 187 -156l-17 -29h-10q-82 59 -178 144q-96 -72 -211 -144h-10l-10 29q90 58 217 156z" />
    <glyph glyph-name="ocircumflexdotbelow" unicode="&#x1ed9;" horiz-adv-x="1091" 
d="M559 -219q0 -41 -41 -41t-41 41t41 41t41 -41zM162 410q0 -182 82 -279.5t237 -97.5q217 0 340 150.5t123 418.5q0 180 -84 275.5t-244 95.5q-217 0 -335.5 -147.5t-118.5 -415.5zM987 608q0 -289 -133 -452.5t-371 -163.5q-176 0 -271 108.5t-95 305.5q0 287 132 447.5
t372 160.5q176 0 271 -106.5t95 -299.5zM653 1407h37q94 -152 176 -258l-22 -25h-10q-80 102 -166 240q-121 -139 -226 -240h-10l-16 25q75 74 237 258z" />
    <glyph glyph-name="Ohornacute" unicode="&#x1eda;" horiz-adv-x="1230" 
d="M553 31q174 0 303 94t197 261t67 382q0 506 -399 506q-176 0 -303 -92t-195 -257t-67 -380q0 -514 397 -514zM1282 1405q0 -99 -70 -153t-180 -50q129 -129 129 -420q0 -236 -74 -414t-211 -279q-138 -99 -327 -99q-434 0 -434 553q0 229 71 403q72 174 211 272t336 97
q109 0 200 -37t145 -37t108 40q53 40 53 109t-47 132l4 10q18 10 27 10q19 0 39 -41t20 -96zM967 1683l-4 -10q-137 -78 -357 -190l-10 6l-14 31q186 90 360 192l10 -4z" />
    <glyph glyph-name="ohornacute" unicode="&#x1edb;" horiz-adv-x="1101" 
d="M944 602q0 180 -84 276t-246 95q-216 1 -334 -147t-118 -416q0 -184 83 -282t240 -97q215 -1 337 152t122 419zM1030 1190q18 0 36 -32t19 -75q0 -73 -52 -117t-128 -44l-26 2q106 -104 106 -318q0 -282 -133 -448t-369 -166q-176 0 -271 108t-95 303q0 289 132 450
t376 161q91 0 165 -29t119 -29t90 31t45 81t-43 103q11 19 29 19zM836 1384l-5 -10q-137 -78 -356 -190l-10 6l-14 31q186 90 360 192l10 -4z" />
    <glyph glyph-name="Ohorngrave" unicode="&#x1edc;" horiz-adv-x="1230" 
d="M553 31q174 0 303 94t197 261t67 382q0 506 -399 506q-176 0 -303 -92t-195 -257t-67 -380q0 -514 397 -514zM1282 1405q0 -99 -70 -153t-180 -50q129 -129 129 -420q0 -236 -74 -414t-211 -279q-138 -99 -327 -99q-434 0 -434 553q0 229 71 403q72 174 211 272t336 97
q109 0 200 -37t145 -37t108 40q53 40 53 109t-47 132l4 10q18 10 27 10q19 0 39 -41t20 -96zM944 1520l-14 -31l-10 -6q-219 113 -357 190l-4 10l14 25l11 4q174 -102 360 -192z" />
    <glyph glyph-name="ohorngrave" unicode="&#x1edd;" horiz-adv-x="1101" 
d="M944 602q0 180 -84 276t-246 95q-216 1 -334 -147t-118 -416q0 -184 83 -282t240 -97q215 -1 337 152t122 419zM1030 1190q18 0 36 -32t19 -75q0 -73 -52 -117t-128 -44l-26 2q106 -104 106 -318q0 -282 -133 -448t-369 -166q-176 0 -271 108t-95 303q0 289 132 450
t376 161q91 0 165 -29t119 -29t90 31t45 81t-43 103q11 19 29 19zM813 1221l-14 -31l-11 -6q-219 113 -356 190l-4 10l14 25l11 4q174 -102 360 -192z" />
    <glyph glyph-name="Ohornhookabove" unicode="&#x1ede;" horiz-adv-x="1230" 
d="M553 31q174 0 303 94t197 261t67 382q0 506 -399 506q-176 0 -303 -92t-195 -257t-67 -380q0 -514 397 -514zM1282 1405q0 -99 -70 -153t-180 -50q129 -129 129 -420q0 -236 -74 -414t-211 -279q-138 -99 -327 -99q-434 0 -434 553q0 229 71 403q72 174 211 272t336 97
q109 0 200 -37t145 -37t108 40q53 40 53 109t-47 132l4 10q18 10 27 10q19 0 39 -41t20 -96zM780 1683q0 41 -53 41t-111 -47l-16 29q70 60 120 60t76 -23t25 -55q0 -59 -98 -134l33 -59l-35 -14l-45 84q104 70 104 118z" />
    <glyph glyph-name="ohornhookabove" unicode="&#x1edf;" horiz-adv-x="1101" 
d="M944 602q0 180 -84 276t-246 95q-216 1 -334 -147t-118 -416q0 -184 83 -282t240 -97q215 -1 337 152t122 419zM1030 1190q18 0 36 -32t19 -75q0 -73 -52 -117t-128 -44l-26 2q106 -104 106 -318q0 -282 -133 -448t-369 -166q-176 0 -271 108t-95 303q0 289 132 450
t376 161q91 0 165 -29t119 -29t90 31t45 81t-43 103q11 19 29 19zM649 1384q0 41 -53 41t-111 -47l-16 29q70 59 120 59t76 -22q26 -23 25 -55q0 -59 -98 -134l33 -59l-35 -14l-45 84q104 70 104 118z" />
    <glyph glyph-name="Ohorntilde" unicode="&#x1ee0;" horiz-adv-x="1230" 
d="M553 31q174 0 303 94t197 261t67 382q0 506 -399 506q-176 0 -303 -92t-195 -257t-67 -380q0 -514 397 -514zM1282 1405q0 -99 -70 -153t-180 -50q129 -129 129 -420q0 -236 -74 -414t-211 -279q-138 -99 -327 -99q-434 0 -434 553q0 229 71 403q72 174 211 272t336 97
q109 0 200 -37t145 -37t108 40q53 40 53 109t-47 132l4 10q18 10 27 10q19 0 39 -41t20 -96zM604 1618q-20 0 -65 -45l-43 -39h-9l-18 22v9l106 96l13 4q41 -4 169 -41t147 -37t65 45l43 39h8l18 -22v-9l-106 -96l-12 -4q-41 4 -169 41q-127 37 -147 37z" />
    <glyph glyph-name="ohorntilde" unicode="&#x1ee1;" horiz-adv-x="1101" 
d="M944 602q0 180 -84 276t-246 95q-216 1 -334 -147t-118 -416q0 -184 83 -282t240 -97q215 -1 337 152t122 419zM1030 1190q18 0 36 -32t19 -75q0 -73 -52 -117t-128 -44l-26 2q106 -104 106 -318q0 -282 -133 -448t-369 -166q-176 0 -271 108t-95 303q0 289 132 450
t376 161q91 0 165 -29t119 -29t90 31t45 81t-43 103q11 19 29 19zM472 1319q-20 0 -64 -45l-43 -39h-9l-18 22v9l106 96l13 4q41 -4 169 -41t147 -37t65 45l43 39h8l18 -22v-9l-106 -96l-13 -4q-40 4 -168 41t-148 37z" />
    <glyph glyph-name="Ohorndotbelow" unicode="&#x1ee2;" horiz-adv-x="1230" 
d="M553 31q174 0 303 94t197 261t67 382q0 506 -399 506q-176 0 -303 -92t-195 -257t-67 -380q0 -514 397 -514zM1282 1405q0 -99 -70 -153t-180 -50q129 -129 129 -420q0 -236 -74 -414t-211 -279q-138 -99 -327 -99q-434 0 -434 553q0 229 71 403q72 174 211 272t336 97
q109 0 200 -37t145 -37t108 40q53 40 53 109t-47 132l4 10q18 10 27 10q19 0 39 -41t20 -96zM631 -219q0 -41 -41 -41t-41 41t41 41t41 -41z" />
    <glyph glyph-name="ohorndotbelow" unicode="&#x1ee3;" horiz-adv-x="1101" 
d="M944 602q0 180 -84 276t-246 95q-216 1 -334 -147t-118 -416q0 -184 83 -282t240 -97q215 -1 337 152t122 419zM1030 1190q18 0 36 -32t19 -75q0 -73 -52 -117t-128 -44l-26 2q106 -104 106 -318q0 -282 -133 -448t-369 -166q-176 0 -271 108t-95 303q0 289 132 450
t376 161q91 0 165 -29t119 -29t90 31t45 81t-43 103q11 19 29 19zM559 -219q0 -41 -41 -41t-41 41t41 41t41 -41z" />
    <glyph glyph-name="Udotbelow" unicode="&#x1ee4;" horiz-adv-x="1193" 
d="M556 -8q-194 0 -292 95t-98 273q0 59 8 109l27 190l82 646h41l-109 -836q-8 -70 -8 -100q0 -162 87 -249t261 -87q174 1 287 113t141 323l104 836h41l-84 -666l-20 -170q-22 -227 -148 -352t-320 -125zM588 -219q0 -41 -41 -41t-41 41t41 41t41 -41z" />
    <glyph glyph-name="udotbelow" unicode="&#x1ee5;" horiz-adv-x="1069" 
d="M205 293q1 -261 285 -261q144 0 234 86q91 85 112 244l82 644h40l-81 -646q-17 -174 -121 -270t-268 -96t-244 75q-82 75 -82 216q0 37 6 75l22 148l62 498h43l-86 -644q-4 -25 -4 -69zM514 -219q0 -41 -41 -41t-41 41t41 41t41 -41z" />
    <glyph glyph-name="Uhookabove" unicode="&#x1ee6;" horiz-adv-x="1193" 
d="M556 -8q-194 0 -292 95t-98 273q0 59 8 109l27 190l82 646h41l-109 -836q-8 -70 -8 -100q0 -162 87 -249t261 -87q174 1 287 113t141 323l104 836h41l-84 -666l-20 -170q-22 -227 -148 -352t-320 -125zM805 1688q0 -59 -98 -134l32 -59l-34 -14l-46 84q104 70 105 118
q0 41 -53 41t-111 -47l-16 29q70 60 120 60t75 -23q26 -23 26 -55z" />
    <glyph glyph-name="uhookabove" unicode="&#x1ee7;" horiz-adv-x="1069" 
d="M205 293q1 -261 285 -261q144 0 234 86q91 85 112 244l82 644h40l-81 -646q-17 -174 -121 -270t-268 -96t-244 75q-82 75 -82 216q0 37 6 75l22 148l62 498h43l-86 -644q-4 -25 -4 -69zM608 1425q-54 0 -110 -47l-17 29q70 59 120 59t76 -22q26 -23 25 -55
q0 -59 -98 -134l33 -59l-35 -14l-45 84q104 70 105 118q0 41 -54 41z" />
    <glyph glyph-name="Uhornacute" unicode="&#x1ee8;" horiz-adv-x="1214" 
d="M556 -8q-194 0 -292 95t-98 273q0 59 8 109l27 190l82 646h41l-109 -836q-8 -70 -8 -100q0 -162 87 -249t261 -87q174 1 287 113t141 323l104 836h23q61 -1 97 29t36 82t-63 122l4 10q26 22 50 -4q50 -56 50 -125t-44 -110t-116 -45l-80 -625l-20 -170
q-22 -227 -148 -352t-320 -125zM944 1683l-4 -10q-137 -78 -356 -190l-11 6l-14 31q186 90 361 192l10 -4z" />
    <glyph glyph-name="uhornacute" unicode="&#x1ee9;" horiz-adv-x="1085" 
d="M205 293q1 -261 285 -261q144 0 234 86q91 85 112 244l82 644h18q55 0 88 24t33 67q0 42 -43 87q8 18 26 18t38 -31t20 -77t-40 -81q-40 -36 -104 -42l-77 -611q-17 -174 -121 -270t-268 -96t-244 75q-82 75 -82 216q0 37 6 75l22 148l62 498h43l-86 -644q-4 -25 -4 -69z
M846 1384l-4 -10q-137 -78 -357 -190l-10 6l-14 31q186 90 360 192l10 -4z" />
    <glyph glyph-name="Uhorngrave" unicode="&#x1eea;" horiz-adv-x="1214" 
d="M556 -8q-194 0 -292 95t-98 273q0 59 8 109l27 190l82 646h41l-109 -836q-8 -70 -8 -100q0 -162 87 -249t261 -87q174 1 287 113t141 323l104 836h23q61 -1 97 29t36 82t-63 122l4 10q26 22 50 -4q50 -56 50 -125t-44 -110t-116 -45l-80 -625l-20 -170
q-22 -227 -148 -352t-320 -125zM922 1520l-15 -31l-10 -6q-219 113 -356 190l-4 10l14 25l10 4q175 -102 361 -192z" />
    <glyph glyph-name="uhorngrave" unicode="&#x1eeb;" horiz-adv-x="1085" 
d="M205 293q1 -261 285 -261q144 0 234 86q91 85 112 244l82 644h18q55 0 88 24t33 67q0 42 -43 87q8 18 26 18t38 -31t20 -77t-40 -81q-40 -36 -104 -42l-77 -611q-17 -174 -121 -270t-268 -96t-244 75q-82 75 -82 216q0 37 6 75l22 148l62 498h43l-86 -644q-4 -25 -4 -69z
M823 1221l-14 -31l-10 -6q-219 113 -357 190l-4 10l15 25l10 4q174 -102 360 -192z" />
    <glyph glyph-name="Uhornhookabove" unicode="&#x1eec;" horiz-adv-x="1214" 
d="M556 -8q-194 0 -292 95t-98 273q0 59 8 109l27 190l82 646h41l-109 -836q-8 -70 -8 -100q0 -162 87 -249t261 -87q174 1 287 113t141 323l104 836h23q61 -1 97 29t36 82t-63 122l4 10q26 22 50 -4q50 -56 50 -125t-44 -110t-116 -45l-80 -625l-20 -170
q-22 -227 -148 -352t-320 -125zM799 1688q0 -59 -99 -134l33 -59l-35 -14l-45 84q104 70 105 118q0 41 -53 41t-111 -47l-16 29q70 60 120 60t75 -23q26 -23 26 -55z" />
    <glyph glyph-name="uhornhookabove" unicode="&#x1eed;" horiz-adv-x="1085" 
d="M205 293q1 -261 285 -261q144 0 234 86q91 85 112 244l82 644h18q55 0 88 24t33 67q0 42 -43 87q8 18 26 18t38 -31t20 -77t-40 -81q-40 -36 -104 -42l-77 -611q-17 -174 -121 -270t-268 -96t-244 75q-82 75 -82 216q0 37 6 75l22 148l62 498h43l-86 -644q-4 -25 -4 -69z
M659 1384q0 41 -53 41t-110 -47l-17 29q70 59 120 59t76 -22q26 -23 25 -55q0 -59 -98 -134l33 -59l-35 -14l-45 84q104 70 104 118z" />
    <glyph glyph-name="Uhorntilde" unicode="&#x1eee;" horiz-adv-x="1214" 
d="M556 -8q-194 0 -292 95t-98 273q0 59 8 109l27 190l82 646h41l-109 -836q-8 -70 -8 -100q0 -162 87 -249t261 -87q174 1 287 113t141 323l104 836h23q61 -1 97 29t36 82t-63 122l4 10q26 22 50 -4q50 -56 50 -125t-44 -110t-116 -45l-80 -625l-20 -170
q-22 -227 -148 -352t-320 -125zM581 1618q-19 0 -65 -45l-43 -39h-8l-19 22v9l107 96l12 4q41 -4 169 -41t148 -37t64 45l43 39h8l19 -22v-9l-107 -96l-12 -4q-41 4 -169 41t-147 37z" />
    <glyph glyph-name="uhorntilde" unicode="&#x1eef;" horiz-adv-x="1085" 
d="M205 293q1 -261 285 -261q144 0 234 86q91 85 112 244l82 644h18q55 0 88 24t33 67q0 42 -43 87q8 18 26 18t38 -31t20 -77t-40 -81q-40 -36 -104 -42l-77 -611q-17 -174 -121 -270t-268 -96t-244 75q-82 75 -82 216q0 37 6 75l22 148l62 498h43l-86 -644q-4 -25 -4 -69z
M482 1319q-20 0 -64 -45l-43 -39h-8l-19 22v9l107 96l12 4q41 -4 169 -41t147 -37t65 45l43 39h8l19 -22v-9l-107 -96l-12 -4q-41 4 -169 41t-148 37z" />
    <glyph glyph-name="Uhorndotbelow" unicode="&#x1ef0;" horiz-adv-x="1214" 
d="M556 -8q-194 0 -292 95t-98 273q0 59 8 109l27 190l82 646h41l-109 -836q-8 -70 -8 -100q0 -162 87 -249t261 -87q174 1 287 113t141 323l104 836h23q61 -1 97 29t36 82t-63 122l4 10q26 22 50 -4q50 -56 50 -125t-44 -110t-116 -45l-80 -625l-20 -170
q-22 -227 -148 -352t-320 -125zM559 -223q0 -41 -41 -41t-41 41t41 41t41 -41z" />
    <glyph glyph-name="uhorndotbelow" unicode="&#x1ef1;" horiz-adv-x="1085" 
d="M205 293q1 -261 285 -261q144 0 234 86q91 85 112 244l82 644h18q55 0 88 24t33 67q0 42 -43 87q8 18 26 18t38 -31t20 -77t-40 -81q-40 -36 -104 -42l-77 -611q-17 -174 -121 -270t-268 -96t-244 75q-82 75 -82 216q0 37 6 75l22 148l62 498h43l-86 -644q-4 -25 -4 -69z
M514 -219q0 -41 -41 -41t-41 41t41 41t41 -41z" />
    <glyph glyph-name="Ygrave" unicode="&#x1ef2;" horiz-adv-x="960" 
d="M487 506l-63 -506h-41l49 399l14 103l-288 803h51l14 -54l246 -684h10l447 684l28 54h54zM811 1520l-14 -31l-11 -6q-219 113 -356 190l-4 10l14 25l11 4q174 -102 360 -192z" />
    <glyph glyph-name="ygrave" unicode="&#x1ef3;" horiz-adv-x="876" 
d="M434 379l-49 -379h-41l41 305l10 82l-245 619h51l12 -43l205 -519h8l360 519l25 43h51zM684 1169l-22 -26l-11 -2q-154 135 -295 276l-2 10l21 21l10 2q158 -162 299 -281z" />
    <glyph glyph-name="Ydotbelow" unicode="&#x1ef4;" horiz-adv-x="960" 
d="M487 506l-63 -506h-41l49 399l14 103l-288 803h51l14 -54l246 -684h10l447 684l28 54h54zM424 -219q0 -41 -41 -41t-41 41t41 41t41 -41z" />
    <glyph glyph-name="ydotbelow" unicode="&#x1ef5;" horiz-adv-x="876" 
d="M434 379l-49 -379h-41l41 305l10 82l-245 619h51l12 -43l205 -519h8l360 519l25 43h51zM385 -219q0 -41 -41 -41t-41 41t41 41t41 -41z" />
    <glyph glyph-name="Yhookabove" unicode="&#x1ef6;" horiz-adv-x="960" 
d="M487 506l-63 -506h-41l49 399l14 103l-288 803h51l14 -54l246 -684h10l447 684l28 54h54zM647 1683q0 41 -53 41t-111 -47l-16 29q70 60 120 60t76 -23t25 -55q0 -59 -98 -134l33 -59l-35 -14l-45 84q104 70 104 118z" />
    <glyph glyph-name="yhookabove" unicode="&#x1ef7;" horiz-adv-x="876" 
d="M434 379l-49 -379h-41l41 305l10 82l-245 619h51l12 -43l205 -519h8l360 519l25 43h51zM567 1384q0 41 -53 41t-111 -47l-16 29q70 59 120 59t76 -22q26 -23 25 -55q0 -59 -98 -134l33 -59l-35 -14l-45 84q104 70 104 118z" />
    <glyph glyph-name="endash" unicode="&#x2013;" horiz-adv-x="1007" 
d="M1038 500h-1058l-5 6l9 35h1058l5 -6z" />
    <glyph glyph-name="emdash" unicode="&#x2014;" horiz-adv-x="1990" 
d="M2021 500h-2041l-5 6l9 35h2041l5 -6z" />
    <glyph glyph-name="quoteleft" unicode="&#x2018;" horiz-adv-x="253" 
d="M133 1097q0 91 109 206l26 -23v-8q-90 -96 -90 -164t78 -86v-8q-2 -6 -20 -33q-103 25 -103 116z" />
    <glyph glyph-name="quoteright" unicode="&#x2019;" horiz-adv-x="253" 
d="M272 1183q0 -91 -108 -206l-27 22v9q90 96 90 164t-77 85v9q2 6 20 32q102 -24 102 -115z" />
    <glyph glyph-name="quotesinglbase" unicode="&#x201a;" horiz-adv-x="471" 
d="M240 -14q0 -86 -136 -191l-20 23l2 6q111 82 111 160q0 41 -62 69v8q10 14 27 23q78 -35 78 -98z" />
    <glyph glyph-name="quotedblleft" unicode="&#x201c;" horiz-adv-x="421" 
d="M309 1097q0 91 109 206l26 -23v-8q-90 -96 -90 -164t78 -86v-8q-2 -6 -20 -33q-103 25 -103 116zM115 1097q0 91 108 206l27 -23v-8q-90 -96 -90 -164t78 -86v-8q-2 -6 -21 -33q-102 25 -102 116z" />
    <glyph glyph-name="quotedblright" unicode="&#x201d;" horiz-adv-x="448" 
d="M459 1183q0 -91 -109 -206l-26 22v9q90 96 90 164t-78 85v9q2 6 20 32q103 -24 103 -115zM264 1183q0 -91 -108 -206l-27 22v9q90 96 90 164t-78 85v9q2 6 21 32q102 -24 102 -115z" />
    <glyph glyph-name="quotedblbase" unicode="&#x201e;" horiz-adv-x="665" 
d="M434 -14q0 -86 -135 -191l-20 23l2 6q111 82 110 160q0 41 -61 69v8q10 14 26 23q78 -35 78 -98zM240 -14q0 -86 -136 -191l-20 23l2 6q111 82 111 160q0 41 -62 69v8q10 14 27 23q78 -35 78 -98z" />
    <glyph glyph-name="dagger" unicode="&#x2020;" horiz-adv-x="944" 
d="M530 766l-116 -959h-35l-6 9l116 950h-354l-4 6l8 35h355l49 393l39 4l2 -4l-49 -393h356l4 -6l-8 -35h-357z" />
    <glyph glyph-name="daggerdbl" unicode="&#x2021;" horiz-adv-x="946" 
d="M469 246h352l6 -6l-8 -35h-356l-49 -398h-35l-4 9l47 389h-354l-7 6l9 35h358l64 520h-357l-4 6l8 35h357l49 393l37 4l4 -4l-49 -393h354l6 -6l-10 -35h-355z" />
    <glyph glyph-name="bullet" unicode="&#x2022;" horiz-adv-x="471" 
d="M287 485q0 -41 -41 -41t-41 41t41 41t41 -41z" />
    <glyph glyph-name="onedotenleader" unicode="&#x2024;" horiz-adv-x="471" 
d="M223 37q0 -41 -41 -41t-41 41t41 41t41 -41z" />
    <glyph glyph-name="twodotenleader" unicode="&#x2025;" horiz-adv-x="778" 
d="M522 37q0 -41 -41 -41t-41 41t41 41t41 -41zM215 37q0 -41 -41 -41t-41 41t41 41t41 -41z" />
    <glyph glyph-name="ellipsis" unicode="&#x2026;" horiz-adv-x="1083" 
d="M469 37q0 -41 -41 -41t-41 41t41 41t41 -41zM776 37q0 -41 -41 -41t-41 41t41 41t41 -41zM162 37q0 -41 -41 -41t-41 41t41 41t41 -41z" />
    <glyph glyph-name="perthousand" unicode="&#x2030;" horiz-adv-x="2400" 
d="M1753 281q0 -121 53.5 -184.5t155.5 -63.5q135 0 211 99t76 276q0 121 -53.5 184t-155.5 63q-135 0 -211 -99t-76 -275zM989 281q0 -121 53.5 -184.5t155.5 -63.5q135 0 211 99t76 276q0 121 -53.5 184t-155.5 63q-135 0 -211 -99t-76 -275zM2286 416
q0 -197 -87.5 -309.5t-246.5 -112.5q-117 0 -177.5 71.5t-60.5 206.5q0 197 89 309.5t247 112.5q115 0 175.5 -71.5t60.5 -206.5zM1522 416q0 -197 -87 -309.5t-247 -112.5q-117 0 -177.5 71.5t-60.5 206.5q0 197 89 309.5t247 112.5q115 0 175.5 -71.5t60.5 -206.5z
M199 893q0 -121 53 -184.5t156 -63.5q135 0 210.5 99.5t75.5 275.5q0 121 -53 184.5t-156 63.5q-135 0 -210.5 -99.5t-75.5 -275.5zM731 1028q0 -197 -87 -309.5t-247 -112.5q-117 0 -177 72t-60 207q0 197 89 309.5t247 112.5q114 0 174.5 -72t60.5 -207zM1395 1343
l-1182 -1527l-16 8l-7 18l1180 1528l21 -10z" />
    <glyph glyph-name="minute" unicode="&#x2032;" horiz-adv-x="256" 
d="M203 997l-35 -4l-4 8l59 295l37 4l4 -8z" />
    <glyph glyph-name="second" unicode="&#x2033;" horiz-adv-x="409" 
d="M356 997l-34 -4l-5 8l60 295l37 4l4 -8zM203 997l-35 -4l-4 8l59 295l37 4l4 -8z" />
    <glyph glyph-name="guilsinglleft" unicode="&#x2039;" horiz-adv-x="438" 
d="M82 473l358 338l23 -18l-2 -13l-336 -323l258 -324l-2 -12l-27 -19l-276 349z" />
    <glyph glyph-name="guilsinglright" unicode="&#x203a;" horiz-adv-x="430" 
d="M383 440l-358 -338l-23 19l2 12l336 324l-258 323l2 13l27 18l276 -348z" />
    <glyph glyph-name="fraction" unicode="&#x2044;" horiz-adv-x="94" 
d="M627 1343l-1182 -1527l-16 8l-7 18l1180 1528l21 -10z" />
    <glyph glyph-name="zerosuperior" unicode="&#x2070;" horiz-adv-x="770" 
d="M211 985q0 -131 53 -202t156 -70q135 -1 211 109t76 302q1 131 -53 201t-156 70q-135 0 -211 -109t-76 -301zM743 1133q0 -215 -87 -338t-246 -123q-117 0 -178 78q-60 78 -60 225q0 215 88 338t248 123q115 0 175 -78t60 -225z" />
    <glyph glyph-name="foursuperior" unicode="&#x2074;" horiz-adv-x="686" 
d="M530 1368h-6l-356 -410h311zM655 920l-102 2h-39l-27 -240l-6 -4l-32 -4l-5 4l31 244h-287l-63 -2l-6 6l4 30l416 478h39l-60 -476h141l7 -6z" />
    <glyph glyph-name="fivesuperior" unicode="&#x2075;" horiz-adv-x="589" 
d="M555 938q0 -117 -97 -192t-249 -74q-41 0 -103 10l-2 33l5 4q68 -10 108 -10q129 0 213 62t84 161q0 111 -201 155l-100 23l-6 8l45 305l14 13l68 -2h188l94 2l5 -4l-9 -35l-6 -4l-61 4h-258l-39 -252l88 -21q219 -49 219 -186z" />
    <glyph glyph-name="sixsuperior" unicode="&#x2076;" horiz-adv-x="661" 
d="M186 893q0 -188 170 -188q98 0 164 58t66 169q0 70 -42 108t-120 37q-116 0 -225 -82q-13 -52 -13 -102zM426 1114q100 0 150 -45t51 -127q0 -136 -77 -204q-76 -68 -186 -68q-216 0 -219 221q0 16 5 53q20 172 144 301t327 197h6l20 -21l-2 -6q-348 -115 -432 -371l2 -4
q111 74 211 74z" />
    <glyph glyph-name="sevensuperior" unicode="&#x2077;" horiz-adv-x="589" 
d="M594 1434l49 2l-2 -35l-369 -617l-67 -118l-35 10v8l424 711h-336l-82 -2l-4 8l8 35l94 -2h320z" />
    <glyph glyph-name="eightsuperior" unicode="&#x2078;" horiz-adv-x="657" 
d="M172 858q0 -74 47 -112t137 -38t152 51q61 50 61 130t-82 119q-33 16 -100 45q-99 -33 -157 -77t-58 -118zM258 1246q0 -64 36 -96t103 -60q193 59 193 190q0 57 -38 90t-113 33t-128 -46q-53 -47 -53 -111zM629 1288q0 -147 -189 -213l-2 -4q82 -33 126 -70t44 -106
q0 -100 -74 -162q-74 -61 -182 -61t-164 47q-55 47 -55 125q0 152 215 225v4q-129 57 -129 157t66 153q66 55 159 55t139 -40t46 -110z" />
    <glyph glyph-name="ninesuperior" unicode="&#x2079;" horiz-adv-x="661" 
d="M629 1225q0 184 -168 184q-107 0 -169 -60t-63 -169q0 -143 160 -144q113 0 227 82q13 45 13 107zM392 999q-199 0 -202 175q0 126 74 198t186 72q215 0 218 -215q0 -191 -125 -337t-350 -220h-7l-16 20v8q344 111 432 369l-4 4q-104 -74 -206 -74z" />
    <glyph glyph-name="franc" unicode="&#x20a3;" horiz-adv-x="768" 
d="M262 524h383l4 -8l-10 -33h-381l-22 -174l-5 -30h244l6 -7l-8 -34h-246l-26 -238h-43l28 238h-141l-6 6l8 35h143l91 727h512l4 -9l-13 -32h-467z" />
    <glyph glyph-name="Euro" unicode="&#x20ac;" horiz-adv-x="1036" 
d="M252 336q26 -303 328 -303q154 0 297 102l12 -4l-8 -37q-154 -102 -318 -102t-255 89t-103 255h-166l-6 6l10 35h162q4 119 22 211h-157l-4 6l8 35h164q51 186 174.5 284.5t293.5 98.5t283 -90l-16 -37h-12q-102 86 -252 86q-330 0 -426 -342h444l4 -6l-8 -35h-451
q-23 -96 -22 -211h446l4 -6l-8 -35h-440z" />
    <glyph glyph-name="uni2113" unicode="&#x2113;" horiz-adv-x="718" 
d="M610 0h-452l129 1006h41l-123 -967h413l3 -6z" />
    <glyph glyph-name="trademark" unicode="&#x2122;" horiz-adv-x="1175" 
d="M1059 829v146l2 260h-6l-201 -348h-37l-110 348h-5l-63 -256l-33 -150h-37l113 476h49l111 -363h2l174 295l35 68h47l-6 -476h-35zM518 1300l-8 -30l-86 2h-66l-39 -295l-14 -148h-39l53 443h-65l-88 -2l-4 4l8 31h344z" />
    <glyph glyph-name="Ohm" unicode="&#x2126;" horiz-adv-x="1419" 
d="M1266 817q0 -241 -104 -443t-290 -327l-2 -6h244l148 2l6 -8l-13 -37l-159 2h-234l-78 -2l-4 4l4 33q209 123 324 325t115 440q1 236 -103 355t-288 119q-366 0 -503 -310q-67 -152 -67 -346t71 -344t199 -239l-4 -33l-4 -4l-75 2h-248l-148 -2l-6 8l12 37l156 -2h234
l2 6q-111 91 -170 235t-60 318q0 336 158 525t444 190q213 0 328 -128t115 -370z" />
    <glyph glyph-name="estimated" unicode="&#x212e;" horiz-adv-x="1622" 
d="M373 700q0 -16 16 -16h938q16 0 16 16v357q0 27 -22 49q-88 86 -208 133t-255 47t-255 -49t-208 -137q-23 -23 -22 -51v-349zM1606 653v-10h-1217q-16 0 -16 -14v-371q0 -23 20 -47q88 -86 209.5 -137t265.5 -51t279 57t233 153h62q-102 -117 -256 -184t-342 -67
t-361.5 90t-273.5 244.5t-100 337.5t100 338t273 245t376 90t375 -90t272.5 -244.5t100.5 -339.5z" />
    <glyph glyph-name="arrowleft" unicode="&#x2190;" horiz-adv-x="1024" 
d="M43 461v8l389 393l29 -16v-12l-342 -349h850l4 -4l-4 -37h-850l342 -348v-12l-29 -16z" />
    <glyph glyph-name="arrowup" unicode="&#x2191;" horiz-adv-x="1024" 
d="M504 932h8l393 -389l-16 -29h-12l-349 342v-850l-4 -4l-37 4v850l-348 -342h-12l-16 29z" />
    <glyph glyph-name="arrowright" unicode="&#x2192;" horiz-adv-x="1024" 
d="M975 471v-8l-389 -393l-29 16v12l342 348h-850l-4 5l4 36h850l-342 349v12l29 16z" />
    <glyph glyph-name="arrowdown" unicode="&#x2193;" horiz-adv-x="1024" 
d="M514 0h-8l-393 389l16 29h12l348 -342v850l5 4l36 -4v-850l349 342h12l16 -29z" />
    <glyph glyph-name="arrowupleft" unicode="&#x2196;" horiz-adv-x="1024" 
d="M218 792l6 5l553 3l9 -32l-9 -8l-488 -5l601 -600v-6l-29 -23l-601 600l-4 -487l-9 -9l-32 9z" />
    <glyph glyph-name="arrowupright" unicode="&#x2197;" horiz-adv-x="1024" 
d="M798 798l6 -6l2 -553l-31 -9l-9 9l-4 488l-601 -601h-6l-23 29l601 601l-488 4l-9 9l9 31z" />
    <glyph glyph-name="arrowdownright" unicode="&#x2198;" horiz-adv-x="1024" 
d="M800 138l-6 -6l-553 -3l-9 32l9 9l488 4l-601 601v6l29 23l601 -601l4 488l9 9l32 -9z" />
    <glyph glyph-name="arrowdownleft" unicode="&#x2199;" horiz-adv-x="1024" 
d="M222 134l-6 6l-3 553l32 9l9 -9l4 -488l601 601h6l23 -29l-601 -601l488 -4l9 -9l-9 -32z" />
    <glyph glyph-name="partialdiff" unicode="&#x2202;" horiz-adv-x="1032" 
d="M127 338q0 -307 328 -307q168 0 281.5 127t142.5 360q8 82 8 121q-164 158 -344 158t-284.5 -99.5t-127.5 -285.5q-4 -53 -4 -74zM926 649q0 -72 -8 -131q-33 -256 -158.5 -393t-311.5 -137q-364 0 -364 340q0 41 6 84q27 207 146.5 317.5t318.5 110.5q176 -10 326 -135
l4 2q-16 252 -169 435t-431 292l2 14l12 14h12q299 -119 457 -323.5t158 -489.5z" />
    <glyph glyph-name="increment" unicode="&#x2206;" horiz-adv-x="1073" 
d="M47 41h864l-258 1194h-8zM-16 0l651 1305h43l285 -1305h-979z" />
    <glyph glyph-name="product" unicode="&#x220f;" horiz-adv-x="1296" 
d="M1165 1264l-159 -1264h-41l159 1264h-745l-160 -1264h-41l160 1264h-100l-5 8l13 33h1016l4 -9l-13 -32h-88z" />
    <glyph glyph-name="summation" unicode="&#x2211;" horiz-adv-x="937" 
d="M1008 1262l-127 2h-648l361 -594l-2 -15l-518 -614h624l142 2l8 -10l-10 -33h-822l4 37l525 627l-363 604l4 37h701l125 2l6 -11z" />
    <glyph glyph-name="minus" unicode="&#x2212;" horiz-adv-x="980" 
d="M909 532h-813l-6 7l4 34h813l6 -6z" />
    <glyph glyph-name="divisionslash" unicode="&#x2215;" horiz-adv-x="593" 
d="M78 -225h-33l-6 8l528 1599h33l6 -10z" />
    <glyph glyph-name="bulletoperator" unicode="&#x2219;" horiz-adv-x="473" 
d="M340 485q0 -41 -41 -41t-41 41t41 41t41 -41z" />
    <glyph glyph-name="radical" unicode="&#x221a;" horiz-adv-x="1064" 
d="M393 0l-194 885h-181l-4 6l9 35h204l9 -8l184 -855h8l721 1385l10 6h39l-760 -1454h-45z" />
    <glyph glyph-name="infinity" unicode="&#x221e;" horiz-adv-x="985" 
d="M746 332q93 0 154 65.5t61 163.5t-45.5 150.5t-132.5 52.5t-146 -56.5t-113 -154.5q35 -106 82 -163.5t140 -57.5zM47 532q0 -98 45 -149t128 -51t143.5 58.5t119.5 162.5q-29 100 -73 155.5t-142 55.5t-159.5 -67t-61.5 -165zM999 564q0 -116 -73.5 -193.5t-179.5 -77.5
t-158.5 56.5t-89.5 160.5q-59 -104 -126 -160.5t-162 -56.5t-149.5 60.5t-54.5 174.5t74 194.5t183 80.5t163.5 -54.5t85.5 -144.5q109 199 283 199q96 0 150 -61.5t54 -177.5z" />
    <glyph glyph-name="integral" unicode="&#x222b;" horiz-adv-x="503" 
d="M588 1421q-205 0 -236 -235l-135 -1082q-16 -135 -56 -212.5t-145 -176.5l-24 21v10q96 94 134 166t52 188l133 1086q14 133 85 204.5t188 71.5q68 0 127 -16l-9 -39l-6 -4q-47 18 -108 18z" />
    <glyph glyph-name="approxequal" unicode="&#x2248;" horiz-adv-x="985" 
d="M731 684q29 0 49 15t49 41t43 38h13l14 -20v-8l-133 -111l-12 -4q-47 4 -202 48q-154 44 -182 44t-98 -59l-39 -35h-12l-14 18v11l131 108l12 6q25 -4 191 -45q162 -47 190 -47zM694 389q28 0 49 15q19 15 49 41t44 38h12l14 -20v-8l-133 -111l-12 -4q-47 4 -202 48
t-182 44t-97 -59l-39 -35h-13l-14 18v11l131 108l12 6q25 -4 191 -45q162 -47 190 -47z" />
    <glyph glyph-name="notequal" unicode="&#x2260;" horiz-adv-x="980" 
d="M461 426h428l6 -6l-4 -35h-447l-114 -317h-35l-6 6l112 311h-323l-6 6l4 35h340l92 254h-393l-6 6l4 35h411l107 295h35l6 -8l-105 -287h359l6 -6l-4 -35h-375z" />
    <glyph glyph-name="lessequal" unicode="&#x2264;" horiz-adv-x="1034" 
d="M940 893l-799 -336l-2 -8l727 -313l-16 -31l-8 -4l-758 327l6 45l6 9l840 350l10 -29zM838 -133h-813l-7 6l5 35h813l6 -6z" />
    <glyph glyph-name="greaterequal" unicode="&#x2265;" horiz-adv-x="1034" 
d="M983 573l-6 -45l-838 -327l-8 4l-8 31l805 313v8l-717 336l-4 10l18 29l754 -350zM838 -133h-813l-7 6l5 35h813l6 -6z" />
    <glyph glyph-name="lozenge" unicode="&#x25ca;" horiz-adv-x="983" 
d="M182 578l228 -666h8l385 666l-228 663h-8zM844 592l-4 -29l-418 -719h-31l-4 4l-246 715l4 29l418 719h31l4 -4z" />
    <glyph glyph-name="dieresisacute" unicode="&#xf6d7;" 
d="M670 1178q0 -41 -41 -41t-41 41t41 41t41 -41zM383 1178q0 -41 -41 -41t-41 41t41 41t41 -41zM715 1475l-6 -11q-164 -59 -383 -125l-11 9l-8 32q190 53 389 127l9 -6z" />
    <glyph glyph-name="dieresisgrave" unicode="&#xf6d8;" 
d="M662 1184q0 -20 -13.5 -33.5t-34.5 -13.5q-37 0 -36 34q0 20 13 34t34 14q37 0 37 -35zM375 1184q0 -20 -13.5 -33.5t-33.5 -13.5q-37 0 -37 34q0 20 13 34t34 14q37 0 37 -35zM723 1380l-12 -32l-13 -9q-221 70 -366 125l-6 11l14 26l8 6q189 -74 375 -127z" />
    <glyph glyph-name="newGlyph" horiz-adv-x="368" 
 />
    <glyph glyph-name="Iacute_J.loclNLD" horiz-adv-x="1013" 
d="M205 0h-41l164 1305h41zM594 1683l-4 -10q-137 -78 -357 -190l-10 6l-14 31q186 90 360 192l11 -4zM891 1305l-133 -1069q-18 -142 -90 -242t-224 -195l-18 23v12q139 86 209 180t84 222l127 1028h-256l-8 8l10 33h299zM999 1683l-4 -10q-137 -78 -356 -190l-10 6l-15 31
q186 90 361 192l10 -4z" />
    <glyph glyph-name="C.ss01" horiz-adv-x="892" 
d="M592 965q-209 0 -324.5 -147.5t-115.5 -409.5q0 -178 77.5 -272.5t230.5 -94.5t290 102l12 -4l-8 -37q-49 -33 -117 -61h399l-4 -41h-1286l4 41h529q-168 90 -168 362q0 213 74.5 357.5t213.5 204.5h-530l4 41h1286l-4 -41h-383q55 -27 86 -52l-18 -36h-13
q-94 88 -235 88z" />
    <glyph glyph-name="D.ss01" horiz-adv-x="1073" 
d="M934 604q0 172 -88 265.5t-254 93.5l-277 -9l-79 -643l-35 -264l145 -6h164q201 16 312.5 165.5t111.5 397.5zM786 965q190 -88 191 -355q0 -211 -80 -359.5t-227 -209.5h547l-5 -41h-1466l4 41h410l116 924h-407l4 41h1466l-4 -41h-549z" />
    <glyph glyph-name="I.ss01" horiz-adv-x="450" 
d="M594 41l-4 -41h-844l4 41h402l118 924h-401l4 41h844l-4 -41h-402l-118 -924h401z" />
    <glyph glyph-name="L.ss01" horiz-adv-x="696" 
d="M190 41h373l25 184h41l-23 -184h234l-4 -41h-1090l4 41h400l114 924h-395l4 41h1090l-5 -41h-653z" />
    <glyph glyph-name="M.ss01" horiz-adv-x="1298" 
d="M1047 322l10 591h-8l-416 -751h-47l-224 751h-4l-206 -872h886zM395 965l31 -115l186 -631h6l418 746h-641zM1077 41h367l-4 -41h-1694l4 41h361l219 924h-461l4 41h1694l-6 -41h-461z" />
    <glyph glyph-name="V.ss01" horiz-adv-x="919" 
d="M186 965l215 -899h5l450 862l18 37h-688zM434 41h629l-4 -41h-1313l4 41h615l-220 924h-276l4 41h1313l-4 -41h-264z" />
    <glyph glyph-name="X.ss01" horiz-adv-x="964" 
d="M123 63l-17 -22h619l-12 25l-240 421zM797 934l20 31h-569l10 -23l225 -391zM778 41h330l-4 -41h-1358l4 41h311l390 477l-256 447h-326l4 41h1358l-4 -41h-359l-366 -447z" />
    <glyph glyph-name="i.loclTRK" horiz-adv-x="477" 
d="M201 0h-41l41 307l86 699h41l-86 -697zM389 1329q0 -41 -41 -41t-41 41t41 41t41 -41z" />
    <glyph glyph-name="germandbls.calt" horiz-adv-x="1155" 
d="M682 -8q-188 0 -305 96l10 39l10 4q108 -101 285 -99q84 0 163 47q79 46 124 123t45 167q0 260 -422 297l-2 30l432 482q-160 92 -328 92t-284 -104t-136 -277l-112 -889h-41l112 887q16 125 81 221t165 149t223 54q179 0 369 -111l4 -22l-428 -473q199 -23 303 -107
t104 -208t-52 -212t-141 -137t-179 -49z" />
    <glyph glyph-name="iacute_j.loclNLD" horiz-adv-x="1007" 
d="M842 1006l-101 -824q-14 -113 -66 -189.5t-165 -148.5l-18 27v10q98 66 147 136.5t61 166.5l97 783h-209l-6 6l10 33h250zM330 1006l-86 -697l-41 -309h-41l41 307l86 699h41zM969 1417q-141 -141 -295 -276l-10 2l-23 26q141 119 299 281l10 -2l21 -21zM188 1169
q141 119 299 281l11 -2l20 -21l-2 -10q-141 -141 -295 -276l-10 2z" />
    <glyph glyph-name="a.sups" horiz-adv-x="612" 
d="M186 911q0 -76 18.5 -113.5t33 -37.5t59.5 50q118 131 225 347l13 117l-82 6q-121 -2 -194 -109.5t-73 -259.5zM147 901q0 168 81 286t225 130h6l88 -8l28 12l9 -4l-62 -461l-10 -139l-47 -6l45 346h-8q-117 -219 -260 -346h-17q-43 27 -60.5 69.5t-17.5 120.5z" />
    <glyph glyph-name="b.sups" horiz-adv-x="612" 
d="M559 1105q0 85 -18.5 123t-32.5 38t-60 -50q-114 -126 -227 -339l-12 -109l78 -20q82 0 144.5 51t95 136t32.5 170zM598 1130q0 -170 -83 -288.5t-228 -130.5h-4l-90 20l-31 6l104 789l10 121l48 6l-91 -684h7q123 221 264 346h16q41 -29 59.5 -70t18.5 -115z" />
    <glyph glyph-name="c.sups" horiz-adv-x="473" 
d="M190 915.5q0 -167.5 102.5 -167.5t176.5 129h8l17 -21q-45 -72 -92.5 -104.5t-108.5 -40.5h-10q-66 8 -99.5 50t-33.5 152q0 182 77.5 293t231.5 111l82 -25l8 -10l-12 -31l-11 -4q-55 33 -90 33q-117 -2 -181.5 -99.5t-64.5 -265z" />
    <glyph glyph-name="d.sups" horiz-adv-x="610" 
d="M186 919.5q0 -86.5 17.5 -123t34.5 -36.5q10 0 57 50q117 124 229 343l17 121l-84 4q-82 0 -143.5 -51t-94.5 -136t-33 -171.5zM145 912q0 153 83 272t229 131h6l82 -6l28 217l9 121l47 6l-105 -797l-12 -139l-47 -6l47 346h-8q-117 -217 -264 -346h-17q-78 48 -78 201z
" />
    <glyph glyph-name="e.sups" horiz-adv-x="512" 
d="M492 1217q0 66 -81 65.5t-143.5 -83.5t-77.5 -216q145 53 223.5 113.5t78.5 120.5zM147 920.5q0 105.5 36 197.5t97.5 145.5t137.5 55.5h8q104 -8 104 -96q0 -156 -342 -275v-26q0 -176 102.5 -176.5t178.5 131.5l10 -3l15 -18q-80 -131 -199 -145h-12q-72 8 -104 56
t-32 153.5z" />
    <glyph glyph-name="f.sups" horiz-adv-x="378" 
d="M469 1618q-51 0 -89 -44t-48 -126l-19 -141h156l4 -7l-6 -28h-158l-80 -621l-10 -139l-49 -6l98 766h-92l-6 6l6 29h96l17 137q14 100 63 154.5t127 54.5l109 -15l2 -6l-12 -35l-9 -2q-49 23 -100 23z" />
    <glyph glyph-name="g.sups" horiz-adv-x="612" 
d="M66 611.5q0 -13.5 16 -44.5q41 -72 141.5 -71.5t167 66t84.5 192.5l41 323h-6q-111 -203 -246 -321l-190 -127q-8 -4 -8 -17.5zM264 803q10 0 53 45q110 115 211 313l11 115l-72 4q-115 0 -183.5 -100.5t-68.5 -241.5q0 -70 16.5 -102.5t32.5 -32.5zM219 459
q-80 0 -132 42t-69 120l7 12l202 133v6q-49 49 -49 156q0 158 77 267.5t212 119.5h6l80 -4l27 10l6 -4l-70 -553q-18 -154 -96 -229.5t-201 -75.5z" />
    <glyph glyph-name="h.sups" horiz-adv-x="649" 
d="M524 1274q-35 0 -120 -108.5t-185 -293.5l-2 -16l-10 -139l-47 -6l108 815l8 121l48 6l-91 -680h9q162 276 278 350h15q34 -10 58 -43t17 -88l-57 -342l-14 -133l-47 -6l75 469l2 20q0 31 -13 52.5t-32 21.5z" />
    <glyph glyph-name="i.sups" horiz-adv-x="303" 
d="M209 717l-51 -6l65 479l6 121l47 6l-59 -461zM317 1536q0 -16 -11 -27.5t-27 -11.5q-31 0 -31 29q0 39 37 39q32 0 32 -29z" />
    <glyph glyph-name="j.sups" horiz-adv-x="319" 
d="M231 842l-14 -101q-14 -104 -50 -163.5t-116 -112.5l-18 20l2 9q68 47 97.5 97t41.5 138l64 465l4 78h-103l-6 6l6 29h109l39 4h4zM322 1531q0 -34 -34 -34t-34 34t34 34t34 -34z" />
    <glyph glyph-name="k.sups" horiz-adv-x="614" 
d="M532 1274q-92 0 -313 -402l-2 -16l-10 -139l-47 -6l108 815l8 121l48 6l-91 -674h11q86 145 148.5 226t127.5 112l21 2q88 -14 88 -105q0 -135 -223 -258q82 -119 182 -237l-2 -4l-33 -13l-5 2q-18 25 -151 195l-39 53l2 15q225 119 226 237q0 35 -17.5 52.5t-36.5 17.5z
M548 704l-1 1q7 -10 1 -1z" />
    <glyph glyph-name="l.sups" horiz-adv-x="305" 
d="M209 717l-49 -6l108 815l6 121l50 6l-105 -797z" />
    <glyph glyph-name="m.sups" horiz-adv-x="995" 
d="M870 1274q-35 0 -121.5 -112.5t-193.5 -305.5v-6l-14 -133l-49 -6l77 469l2 20q0 31 -14 52.5t-31 21.5q-35 0 -119.5 -108.5t-185.5 -293.5l-14 -155l-47 -6l63 479l8 121l48 6l-46 -344h11q84 141 148.5 225t127.5 125h17q35 -10 58 -43t17 -88l-37 -219h15
q162 274 276 350h15q34 -10 58 -42t17 -89l-57 -342l-14 -133l-47 -6l75 469l2 20q0 31 -13 52.5t-32 21.5z" />
    <glyph glyph-name="n.sups" horiz-adv-x="649" 
d="M524 1274q-35 0 -118.5 -107.5t-184.5 -289.5l-14 -160l-47 -6l63 479l8 121l48 6l-46 -344h9q84 141 148.5 225t129.5 125h15q34 -10 58 -43t17 -88l-57 -342l-14 -133l-47 -6l75 469l2 20q0 31 -13 52.5t-32 21.5z" />
    <glyph glyph-name="o.sups" horiz-adv-x="577" 
d="M186 907q0 -162 104 -162t169 108t65 273q0 80 -24.5 118t-79.5 38q-105 0 -169.5 -106.5t-64.5 -268.5zM565 1133q0 -182 -73.5 -299t-200.5 -125h-8q-72 4 -105 50t-33 140q0 182 75 300t204 120h6q70 -6 102.5 -51t32.5 -135z" />
    <glyph glyph-name="p.sups" horiz-adv-x="610" 
d="M557 1106q0 86 -17.5 123t-31.5 37t-60 -50q-111 -121 -229 -342l-12 -106l80 -20q82 0 143.5 51t94 136t32.5 171zM598 1130q0 -170 -83 -288.5t-228 -130.5h-6l-78 18l-17 -121l-10 -139l-49 -6l96 727l6 121l47 6l-45 -348h9q123 221 264 346h14q43 -29 61.5 -70
t18.5 -115z" />
    <glyph glyph-name="q.sups" horiz-adv-x="610" 
d="M186 920q0 -86 17.5 -123t34.5 -37q10 0 91 88t193 303l4 39l6 84l-77 4q-82 0 -142.5 -51t-93.5 -136t-33 -171zM145 912q0 153 83 272t229 131h4l84 -6l28 12l9 -4l-93 -709l-10 -139l-47 -6l78 594h-8q-119 -215 -262 -346h-17q-78 48 -78 201z" />
    <glyph glyph-name="r.sups" horiz-adv-x="440" 
d="M524 1266l-6 -4l-16 4q-47 0 -123 -106.5t-160 -293.5l-2 -10l-12 -139l-47 -6l61 479l10 121l45 6l-43 -346h13q70 154 142.5 246t121.5 94l22 -2z" />
    <glyph glyph-name="s.sups" horiz-adv-x="450" 
d="M345.5 1280q-54.5 0 -94.5 -36t-40 -77t24.5 -67.5t79.5 -65.5t86 -73.5t31 -95.5t-57.5 -107.5t-147.5 -48.5q-70 8 -121 43l7 36l10 7q53 -49 118.5 -49.5t107.5 35.5t42 81t-25.5 74t-79.5 68t-84 72.5t-30 93t55.5 103.5t139.5 42q61 -7 102 -27l-12 -35l-8 -2
q-49 29 -103.5 29z" />
    <glyph glyph-name="t.sups" horiz-adv-x="452" 
d="M289 748q86 0 137 126h12l13 -18q-57 -131 -158 -145h-14q-88 8 -89 86l3 37l61 356l12 82h-94l-6 6l4 29h100l25 168l43 16l6 -4l-31 -180h203l4 -7l-4 -28h-209l-74 -436l-4 -31q2 -57 60 -57z" />
    <glyph glyph-name="u.sups" horiz-adv-x="643" 
d="M256 752q35 0 117 105.5t184 285.5l6 47l8 121l47 6l-59 -461l-12 -139l-47 -6l45 342h-6q-86 -141 -149.5 -225.5t-127.5 -125.5h-16q-35 10 -59 43t-17 89l57 342l15 133l47 6l-76 -469l-2 -19q0 -31 13.5 -53t31.5 -22z" />
    <glyph glyph-name="v.sups" horiz-adv-x="548" 
d="M582 1200q0 -60 -56 -145l-217 -338h-45l-69 592l45 8l55 -547h4l193 301q49 80 49 130t-37 97l39 17q39 -55 39 -115z" />
    <glyph glyph-name="w.sups" horiz-adv-x="921" 
d="M954 1204q0 -59 -53 -149l-203 -338h-43l-67 530h-6l-260 -530h-52l-75 592l43 6l65 -543h6l234 477l28 62h47l66 -539h6l176 299q47 88 47 134t-36 93l38 17q39 -52 39 -111z" />
    <glyph glyph-name="x.sups" horiz-adv-x="591" 
d="M514 711l-25 55l-124 223l-189 -227l-31 -45h-53l250 307l-154 283l43 10l21 -45l119 -217l176 211l33 45h51l-238 -293l166 -295z" />
    <glyph glyph-name="y.sups" horiz-adv-x="544" 
d="M575 1197.5q0 -67.5 -51 -148.5l-186 -308q-90 -147 -167 -212.5t-155 -65.5q-47 0 -96 18l-2 39l8 4q49 -20 90 -20q129 0 271 225l-113 580l45 8l94 -531h9l170 283q45 76 45 127t-37 102l37 17q38 -50 38 -117.5z" />
    <glyph glyph-name="z.sups" horiz-adv-x="561" 
d="M156 778l37 6q29 0 88 -20t90 -21q135 0 147 213l14 2l19 -16q-12 -238 -182 -237q-39 0 -102 21q-63 22 -101 22t-74 -37h-6l-16 14l426 549l-258 -2l-62 -2l-2 6l6 35l4 4l68 -4h274l25 16l18 -14z" />
    <glyph glyph-name="zero.lf" horiz-adv-x="1120" 
d="M193 477q0 -213 81.5 -328.5t227.5 -115.5t248 83t156.5 237.5t54.5 366.5t-81 326.5t-235 114.5q-213 0 -332.5 -183t-119.5 -501zM1001 725q0 -342 -130 -537.5t-365 -195.5q-172 0 -263 125t-91 354q0 340 131 535.5t366 195.5q170 0 261 -125t91 -352z" />
    <glyph glyph-name="one.lf" horiz-adv-x="692" 
d="M481 1206l-149 -1206h-41l143 1159l-317 -92l-8 6l4 33l360 108z" />
    <glyph glyph-name="two.lf" horiz-adv-x="987" 
d="M823 988q0 -97 -75.5 -211.5t-268.5 -332.5l-348 -397l4 -6h555l184 2l5 -10l-13 -35l-190 2h-518l-90 -2l-2 4l4 35l383 438q129 147 229 273t100 237q0 78 -53 129t-151 51q-188 0 -353 -190h-8l-4 37q170 195 367 194q108 0 175.5 -60.5t67.5 -157.5z" />
    <glyph glyph-name="three.lf" horiz-adv-x="856" 
d="M446 651q244 -55 244 -273q0 -108 -60.5 -196t-166 -137t-217.5 -49t-197 16l-2 35l6 6q87 -16 193 -16t201.5 43t148.5 121.5t53 184.5t-81 169t-234 72h-96l-7 6l7 33h88q68 0 147.5 43t134 116.5t54.5 157.5t-55.5 133t-145.5 49q-135 0 -283 -129h-8l-2 37
q154 135 299 135q106 0 172 -59t66 -157t-72 -190.5t-184 -144.5z" />
    <glyph glyph-name="four.lf" horiz-adv-x="980" 
d="M694 1120h-8l-555 -682h479zM862 395l-145 2h-70l-49 -391l-4 -6l-33 -6l-4 6l49 397h-440l-86 -2l-6 8l4 35l620 762h45l-92 -762h215l8 -8z" />
    <glyph glyph-name="five.lf" horiz-adv-x="837" 
d="M711 404q0 -116 -63.5 -211t-178.5 -148t-262 -53q-70 0 -148 14l-4 35l8 6q81 -14 183 -14t205.5 47t161 131t57.5 185t-76 166t-234 104l-147 34l-6 11l59 475l21 16l100 -2h279l133 2l4 -4l-8 -37l-9 -4l-84 2h-399l-55 -422l131 -30q170 -39 251 -113t81 -190z" />
    <glyph glyph-name="six.lf" horiz-adv-x="931" 
d="M152 354q0 -156 70 -240t201 -85q132 0 210 57q139 102 139 303q0 123 -69 190t-193 66q-180 0 -342 -139q-16 -72 -16 -152zM496 686q156 0 237 -76q80 -76 80 -217q0 -90 -35 -182t-122 -158q-86 -65 -236 -65t-230 94t-80 256q1 367 292 637q161 150 427 237h9l14 -22
v-8q-287 -96 -449 -259t-219 -352l6 -6q150 121 306 121z" />
    <glyph glyph-name="seven.lf" horiz-adv-x="841" 
d="M778 1200l76 2l-4 -37l-580 -1009l-94 -176l-41 12v8l666 1159h-527l-118 -2l-6 10l10 35l131 -2h487z" />
    <glyph glyph-name="eight.lf" horiz-adv-x="933" 
d="M139 283q0 -124 74 -187q73 -63 213 -63t232 83t92 215t-124 201q-50 29 -155 74q-146 -51 -239 -125t-93 -198zM258 910q0 -108 55 -161q55 -52 164 -102q297 94 297 309q0 100 -59 154t-177 56q-118 0 -199 -74t-81 -182zM815 958q0 -225 -283 -329v-6q84 -37 138 -70
q122 -75 121 -223q1 -96 -47 -173t-134 -121t-214 -44t-213 75t-85 201q0 240 324 357v6q-100 45 -152 105q-51 60 -51 180t93 205t226 85t205 -64q72 -65 72 -184z" />
    <glyph glyph-name="nine.lf" horiz-adv-x="931" 
d="M566 1171q-132 0 -240.5 -80t-108.5 -280q0 -123 68.5 -189.5t193.5 -66.5q180 0 342 139q16 72 17 152q0 156 -70 240.5t-202 84.5zM879 862q0 -162 -65.5 -324.5t-226.5 -312t-427 -237.5h-8l-15 22v8q287 96 449 259t219 352l-6 6q-151 -121 -307 -121t-236 76
t-80 217q0 90 35 182t122 157.5t237 65.5t229.5 -94t79.5 -256z" />
    <glyph glyph-name="zero.sinf" horiz-adv-x="770" 
d="M100 57q0 -131 54 -201t155 -71q135 0 211 110t76 302q0 131 -53 201t-156 69q-135 0 -211 -109t-76 -301zM299 -256q-117 0 -177 78t-61 225q1 215 89 338t247 123q115 0 175 -78t61 -225q0 -215 -87 -338t-247 -123z" />
    <glyph glyph-name="one.sinf" horiz-adv-x="491" 
d="M319 510l-94 -758h-41l88 713l-206 -55l-9 4l4 32l252 72z" />
    <glyph glyph-name="two.sinf" horiz-adv-x="688" 
d="M463 376q0 -62 -50 -133t-180 -208l-221 -238l4 -4h359l125 2l2 -8l-10 -35l-134 2h-346l-59 -2l-4 4l4 31l252 268q123 131 169 193t46 114t-35 82t-96 31q-127 0 -234 -117h-6l-4 35q111 121 252 121q74 0 120 -38t46 -100z" />
    <glyph glyph-name="three.sinf" horiz-adv-x="602" 
d="M410 376q0 -62 -48 -120t-122 -90v-4q78 -16 120 -60t41 -110q0 -106 -90 -175t-227 -69q-61 0 -121 12v33l4 4q66 -10 123 -10q119 0 195 55q75 56 75 136q-1 153 -204 161h-68l-4 4l6 31h60q43 0 94 26t86 70t35 94q0 52 -36 82t-110 29q-74 0 -172 -80h-6l-4 35
q105 84 193 84t134 -38t46 -100z" />
    <glyph glyph-name="four.sinf" horiz-adv-x="686" 
d="M391 442h-6l-356 -409h311zM516 -6l-102 2h-39l-27 -240l-6 -4l-33 -4l-4 4l31 244h-287l-63 -2l-6 6l4 31l415 477h39l-59 -475h141l6 -6z" />
    <glyph glyph-name="five.sinf" horiz-adv-x="589" 
d="M432 14q0 -118 -97 -192t-249 -74q-41 0 -102 10l-2 33l4 4q68 -10 108 -10q129 0 213 62t84 161q0 111 -201 156l-100 22l-6 9l45 305l14 12l68 -2h188l95 2l4 -4l-9 -35l-6 -4l-61 4h-258l-39 -252l88 -20q219 -49 219 -187z" />
    <glyph glyph-name="six.sinf" horiz-adv-x="661" 
d="M49 -31q0 -188 170 -188q98 0 161 55t69 172q0 70 -42 108t-120 38q-117 0 -226 -82q-12 -48 -12 -103zM489 18q0 -135 -77 -203q-77 -69 -186 -69q-218 0 -218 221q0 200 149 355q124 129 326 196h6l21 -20l-2 -6q-348 -115 -432 -371l2 -4q111 73 211 73t150 -45
t50 -127z" />
    <glyph glyph-name="seven.sinf" horiz-adv-x="589" 
d="M506 510l49 2l-2 -35l-369 -616l-67 -119l-35 10v8l424 711h-336l-82 -2l-4 8l8 35l94 -2h320z" />
    <glyph glyph-name="eight.sinf" horiz-adv-x="657" 
d="M39 -66q0 -150 184 -149q90 0 152 50q61 50 61 130t-82 119q-33 16 -100 45q-99 -33 -157 -77t-58 -118zM125 322q0 -64 36 -96t103 -60q193 59 193 190q0 57 -38 90t-113 33t-128 -46q-53 -47 -53 -111zM496 365q0 -147 -189 -213l-2 -5q82 -33 126 -69t44 -122
q0 -85 -75 -146q-75 -62 -182 -62t-163 47q-55 47 -55 125q0 152 215 225v5q-129 57 -129 156q0 100 66 154t159 54t139 -40t46 -109z" />
    <glyph glyph-name="nine.sinf" horiz-adv-x="661" 
d="M520 299q0 184 -168 184q-106 0 -168 -60t-63 -169q0 -143 160 -143q113 0 227 82q12 42 12 106zM559 303q0 -191 -125 -337t-350 -220h-6l-17 21v8q344 111 433 368l-5 4q-105 -73 -207 -73q-200 1 -200 174q0 126 74 198t186 72q216 0 217 -215z" />
    <glyph glyph-name="zero.tf" horiz-adv-x="985" 
d="M160 468q0 -210 72.5 -322.5t204.5 -112.5t274.5 129.5t142.5 566.5q0 209 -72 320.5t-204 111.5t-226 -85t-143 -241.5t-49 -366.5zM895 733q0 -225 -54.5 -393t-156.5 -258t-252 -90t-231.5 122t-81.5 348t54 393t157.5 257t253.5 90t230.5 -122t80.5 -347z" />
    <glyph glyph-name="one.tf" horiz-adv-x="972" 
d="M627 1206l-150 -1206h-41l144 1159l-394 -92l-10 6l4 33l436 108z" />
    <glyph glyph-name="two.tf" horiz-adv-x="972" 
d="M817 988q0 -97 -75.5 -211.5t-264.5 -332.5l-342 -397l4 -6h545l180 2l4 -10l-12 -35l-186 2h-510l-88 -2l-2 4l4 35l377 438q184 213 254.5 316.5t70.5 187.5t-53 135t-148 51q-184 0 -346 -190h-8l-4 37q166 195 361 194q106 0 172.5 -60.5t66.5 -157.5z" />
    <glyph glyph-name="three.tf" horiz-adv-x="974" 
d="M723 377q0 232 -328 250h-98l-6 6l6 33h90q70 0 152 43t138 116.5t56 157.5t-57.5 133t-151.5 49q-141 0 -291 -129h-8l-2 37q156 135 307 135q111 0 178.5 -59t67.5 -157t-73.5 -190.5t-190.5 -144.5l-2 -6q123 -27 188.5 -97t65.5 -178t-61.5 -195t-171 -136
t-223.5 -49t-204 16l-2 35l7 6q91 -16 199 -16t206 43t153.5 119.5t55.5 177.5z" />
    <glyph glyph-name="four.tf" horiz-adv-x="972" 
d="M688 1120h-8l-555 -682h479zM856 395l-145 2h-70l-49 -391l-4 -6l-33 -6l-4 6l49 397h-440l-86 -2l-6 8l4 35l620 762h45l-92 -762h215l8 -8z" />
    <glyph glyph-name="five.tf" horiz-adv-x="972" 
d="M797 401q0 -117 -66.5 -210t-186.5 -146t-272 -53q-72 0 -151 14l-6 35l10 6q83 -14 189 -14t213.5 47t168 131t60.5 185t-80 166t-246 104l-154 34l-6 11l60 475l20 16l105 -2h290l140 2l4 -4l-8 -37l-9 -4l-88 2h-417l-56 -422l138 -30q178 -41 263 -115t85 -191z" />
    <glyph glyph-name="six.tf" horiz-adv-x="972" 
d="M170 354q0 -156 69.5 -240.5t201.5 -84.5t241 79.5t109 280.5q0 123 -69 189.5t-194 66.5q-180 0 -342 -139q-16 -72 -16 -152zM515 686q156 0 236 -75.5t80 -217.5q0 -90 -34.5 -182t-121.5 -157.5t-237 -65.5t-229.5 94t-79.5 256t65.5 324.5t226.5 312t427 237.5h8
l14 -22v-8q-286 -97 -448 -259.5t-219 -351.5l6 -6q150 121 306 121z" />
    <glyph glyph-name="seven.tf" horiz-adv-x="974" 
d="M868 1200l82 2l-4 -37l-614 -1009l-99 -176l-40 12v8l702 1159h-565l-127 -2l-6 10l10 35l139 -2h522z" />
    <glyph glyph-name="eight.tf" horiz-adv-x="976" 
d="M156 284q0 -124 75 -187.5t217 -63.5t236 83t94 216t-89 181t-195 93q-148 -53 -243 -125.5t-95 -196.5zM276 910q0 -108 56.5 -161t167.5 -102q303 96 303 309q0 100 -60.5 154.5t-181.5 54.5t-203 -73.5t-82 -181.5zM844 958q0 -223 -289 -329v-6q86 -35 175 -90.5
t89 -202.5q0 -96 -48 -173t-134.5 -121t-218.5 -44t-217.5 74.5t-85.5 201.5q0 240 329 357v6q-102 47 -154 106.5t-52 161.5q0 137 94 222t230 85t209 -64.5t73 -183.5z" />
    <glyph glyph-name="nine.tf" horiz-adv-x="972" 
d="M576 1171q-132 0 -240.5 -80t-108.5 -280q0 -123 69 -189.5t193 -66.5q180 0 342 139q16 72 17 152q0 156 -70 240.5t-202 84.5zM889 862q0 -162 -65.5 -324.5t-226.5 -312t-427 -237.5h-8l-15 22v8q287 96 449 259t219 352l-6 6q-151 -121 -307 -121t-236 76t-80 217
q0 90 35 182t122 157.5t237 65.5t229.5 -94t79.5 -256z" />
    <glyph glyph-name="zero.tosf" horiz-adv-x="980" 
d="M127 408q0 -180 80 -277.5t233 -97.5q201 0 311.5 146.5t110.5 408.5q0 184 -81 284.5t-232 100.5q-199 0 -310.5 -149.5t-111.5 -415.5zM903 598q0 -289 -122 -447.5t-345 -158.5q-168 0 -259 105.5t-91 299.5q0 291 122 454t347 163q168 0 258 -107.5t90 -308.5z" />
    <glyph glyph-name="one.tosf" horiz-adv-x="972" 
d="M535 422l-54 -422h-39l117 954l-393 -92l-10 6l4 33l436 109l8 -9z" />
    <glyph glyph-name="two.tosf" horiz-adv-x="972" 
d="M545 1008q98 0 157.5 -51.5t59.5 -133.5t-68.5 -179t-234.5 -273l-305 -324l4 -6h493l164 2l4 -8l-12 -37l-172 2h-467l-80 -2l-4 4l4 33l340 362q164 172 228.5 259.5t64.5 155.5t-48 111.5t-136 43.5q-168 0 -316 -158h-8l-4 35q151 164 336 164z" />
    <glyph glyph-name="three.tosf" horiz-adv-x="972" 
d="M768 792q0 -99 -76 -192.5t-194 -140.5l-2 -6q127 -27 194.5 -96.5t67.5 -178.5t-63.5 -195.5t-175 -136t-229.5 -49.5t-210 17l-2 34l6 7q253 -43 443 37t190 294q0 108 -87 171t-253 71h-101l-8 6l6 33h95q72 0 155.5 43t142 116.5t58.5 156.5t-59.5 133.5t-155.5 50.5
q-145 0 -301 -129h-8l-2 36q162 135 315 136q115 0 184.5 -59.5t69.5 -158.5z" />
    <glyph glyph-name="four.tosf" horiz-adv-x="974" 
d="M680 926h-8l-561 -682h485zM850 201l-145 2h-72l-49 -391l-4 -7l-33 -6l-4 6l49 398h-447l-86 -2l-6 8l4 35l627 762h45l-92 -762h217l8 -8z" />
    <glyph glyph-name="five.tosf" horiz-adv-x="974" 
d="M772 207q0 -117 -66.5 -211t-186.5 -146.5t-275 -52.5q-72 0 -156 15l-4 34l8 7q86 -15 192 -15t216 47t170.5 130t60.5 185t-80 167t-250 104l-155 35l-6 10l59 475l20 17l107 -2h295l139 2l4 -4l-8 -37l-8 -4l-88 2h-424l-55 -422l139 -31q180 -39 266 -113.5
t86 -191.5z" />
    <glyph glyph-name="six.tosf" horiz-adv-x="972" 
d="M172 356q0 -158 70 -242.5t204 -84.5t244.5 80t110.5 280q0 123 -71 189.5t-195 66.5q-181 0 -347 -139q-16 -68 -16 -150zM522 686q158 0 239 -75.5t81 -217.5q0 -90 -35 -182t-123 -157.5t-240 -65.5t-232.5 95t-80.5 257t66.5 324.5t228.5 311t430 236.5h8l15 -22v-8
q-289 -97 -452 -258.5t-222 -352.5l6 -6q153 121 311 121z" />
    <glyph glyph-name="seven.tosf" horiz-adv-x="974" 
d="M844 1006l80 2l-2 -37l-609 -1010l-98 -176l-41 12v8l696 1160h-557l-125 -2l-6 10l11 35l137 -2h514z" />
    <glyph glyph-name="eight.tosf" horiz-adv-x="976" 
d="M156 284q0 -124 75 -187.5t215 -63.5t233 83t93 215t-88 181t-192 94q-148 -51 -242 -124.5t-94 -197.5zM274 910q0 -108 56.5 -161t167.5 -102q299 96 299 309q0 100 -59.5 154.5t-179.5 54.5t-202 -73.5t-82 -181.5zM838 958q0 -225 -285 -329v-6q86 -35 173 -91
t87 -202q0 -96 -47 -173t-133 -121t-216 -44t-216 74.5t-86 201.5q0 240 327 357v6q-102 47 -154 106.5t-52 161.5q0 137 94 222t229 85t207 -64.5t72 -183.5z" />
    <glyph glyph-name="nine.tosf" horiz-adv-x="972" 
d="M815 651q0 158 -70.5 243t-203.5 85t-244 -81t-111 -280q0 -123 71 -189.5t196 -66.5q180 1 346 140q16 68 16 149zM856 667q0 -162 -66.5 -324.5t-228.5 -311t-430 -236.5h-8l-14 23v8q289 96 451.5 258t221.5 352l-6 6q-154 -120 -311 -120t-238.5 75.5t-81.5 216.5
q0 90 35 182.5t122.5 158t239.5 65.5t233 -95.5t81 -257.5z" />
    <glyph glyph-name="zero.dnom" horiz-adv-x="770" 
d="M127 307q0 -131 53 -201.5t156 -70.5q135 0 211 109.5t76 301.5q0 131 -53.5 201t-155.5 70q-135 0 -211 -108.5t-76 -301.5zM659 455q0 -215 -87 -338t-246 -123q-117 0 -177.5 78t-60.5 225q0 215 88 338t248 123q115 0 175 -78t60 -225z" />
    <glyph glyph-name="one.dnom" horiz-adv-x="491" 
d="M319 758l-94 -758h-41l88 713l-206 -56l-9 5l4 32l252 72z" />
    <glyph glyph-name="two.dnom" horiz-adv-x="688" 
d="M547 622q0 -62 -50.5 -133t-179.5 -208l-221 -238l4 -4h359l125 2l2 -8l-11 -35l-133 2h-346l-59 -2l-4 4l4 31l252 268q123 131 169 193.5t46 113.5t-35 82t-96 31q-127 0 -234 -117h-6l-4 35q111 121 252 121q74 0 120 -38t46 -100z" />
    <glyph glyph-name="three.dnom" horiz-adv-x="602" 
d="M471 624q0 -62 -47 -120t-123 -90v-4q78 -16 120 -60.5t42 -109.5q0 -106 -90 -175t-228 -69q-61 0 -120 12v33l4 4q66 -10 123 -10q119 0 194.5 55.5t75.5 135.5q0 153 -205 161h-67l-5 4l7 31h59q43 0 94 25.5t86 69.5t35 95.5t-36 81t-110 29.5t-171 -80h-7l-4 35
q104 84 192 84t134.5 -38t46.5 -100z" />
    <glyph glyph-name="four.dnom" horiz-adv-x="686" 
d="M446 690h-6l-356 -409h311zM571 242l-102 2h-39l-27 -240l-6 -4l-32 -4l-5 4l31 244h-287l-63 -2l-6 6l4 31l416 477h39l-60 -475h141l7 -7z" />
    <glyph glyph-name="five.dnom" horiz-adv-x="589" 
d="M471 260q0 -117 -97.5 -191.5t-248.5 -74.5q-41 0 -102 10l-3 33l5 4q68 -10 108 -10q129 0 213 62.5t84 160.5q0 111 -201 156l-100 22l-6 8l45 305l14 13l68 -2h188l94 2l5 -4l-9 -35l-6 -4l-61 4h-258l-39 -252l88 -21q219 -49 219 -186z" />
    <glyph glyph-name="six.dnom" horiz-adv-x="661" 
d="M274 27q98 0 164 57.5t66 169.5q0 70 -42 107.5t-120 37.5q-116 0 -225 -82q-9 -35 -13 -102q0 -188 170 -188zM344 436q100 0 150.5 -45t50.5 -127q0 -136 -76.5 -204t-186.5 -68q-218 0 -219 221q0 16 5 53q20 172 144 301t327 197h6l20 -21l-2 -6q-348 -114 -432 -370
l2 -5q111 74 211 74z" />
    <glyph glyph-name="seven.dnom" horiz-adv-x="589" 
d="M512 756l49 2l-2 -35l-369 -617l-67 -118l-35 10v8l424 711h-336l-82 -2l-4 8l8 35l95 -2h319z" />
    <glyph glyph-name="eight.dnom" horiz-adv-x="657" 
d="M90 180q0 -150 184 -149q90 0 151.5 50t61.5 129t-57 107.5t-125 57.5q-98 -33 -156.5 -77t-58.5 -118zM176 568q0 -64 36 -96t103 -60q193 59 193 190q0 57 -38 90t-112 33t-128 -46.5t-54 -110.5zM547 610q0 -147 -189 -213l-2 -4q82 -33 126 -69.5t44 -121.5
t-74 -146.5t-182 -61.5t-163.5 47t-55.5 125q0 152 215 225v4q-129 57 -129 157t65.5 154t159.5 54t139.5 -40t45.5 -110z" />
    <glyph glyph-name="nine.dnom" horiz-adv-x="661" 
d="M545 547q0 184 -168 184q-106 0 -169 -60.5t-63 -168.5q0 -143 160 -144q113 0 227 82q13 45 13 107zM584 551q0 -190 -125 -336.5t-350 -220.5h-7l-16 20v9q344 111 432 368l-4 4q-104 -73 -206 -73q-202 1 -202 174q0 127 74 198.5t186 71.5q218 0 218 -215z" />
    <glyph glyph-name="zero.numr" horiz-adv-x="770" 
d="M690 995q0 131 -53 201t-156 70q-135 0 -211 -109t-75 -301q0 -131 53 -202t155 -70q135 0 211 110t76 301zM727 1004q0 -215 -87 -338t-247 -123q-117 0 -177 78t-60 225q0 215 88 338t248 123q115 0 175 -78t60 -225z" />
    <glyph glyph-name="one.numr" horiz-adv-x="491" 
d="M387 1307l-94 -758h-41l88 713l-207 -56l-8 4l4 33l252 72z" />
    <glyph glyph-name="two.numr" horiz-adv-x="688" 
d="M614 1170q0 -62 -50 -133t-179 -208l-221 -237l4 -4h358l125 2l2 -8l-10 -35l-133 2h-346l-60 -2l-4 4l4 31l252 268q123 131 169 193q46 61 46 113t-34 83q-35 31 -97 31q-127 0 -233 -117h-6l-4 35q111 121 252 121q73 0 119 -38q46 -39 46 -101z" />
    <glyph glyph-name="three.numr" horiz-adv-x="602" 
d="M539 1172q0 -62 -47 -119t-123 -90v-5q77 -16 119 -60t42 -110q0 -106 -90 -175t-227 -68q-61 0 -121 12v33l4 4q66 -10 123 -10q119 0 195 55t76 135q-1 154 -205 162h-68l-4 4l6 31h60q43 -1 94 25t86 70t35 95t-36 81t-110 30t-172 -80h-6l-4 35q104 84 192 84
t135 -38q46 -39 46 -101z" />
    <glyph glyph-name="four.numr" horiz-adv-x="686" 
d="M514 1239h-6l-356 -410h311zM639 791l-102 2h-39l-27 -240l-6 -4l-33 -4l-4 4l31 244h-287l-63 -2l-7 6l4 30l416 478h39l-59 -476h141l6 -6z" />
    <glyph glyph-name="five.numr" horiz-adv-x="589" 
d="M201 580q129 0 213 62t84 161q0 111 -201 155l-100 23l-7 8l46 305l14 13l67 -2h189l94 2l4 -4l-8 -35l-6 -4l-62 4h-258l-39 -252l88 -21q219 -49 220 -186q1 -117 -97 -192t-249 -74q-41 0 -103 10l-2 33l4 4q68 -10 109 -10z" />
    <glyph glyph-name="six.numr" horiz-adv-x="661" 
d="M172 764q0 -188 170 -189q98 0 164 58t65 170q0 69 -42 107t-119 38q-117 0 -226 -82q-12 -48 -12 -102zM412 985q100 0 150 -45t50 -127q0 -136 -77 -204t-186 -68q-218 0 -218 221q0 200 149 354q124 129 326 197h6l21 -21l-2 -6q-348 -115 -432 -371l2 -4
q111 74 211 74z" />
    <glyph glyph-name="seven.numr" horiz-adv-x="589" 
d="M578 1305l49 2l-2 -35l-369 -617l-68 -118l-34 10v8l424 711h-336l-82 -2l-4 8l8 35l94 -2h320z" />
    <glyph glyph-name="eight.numr" horiz-adv-x="657" 
d="M158 730q0 -74 47 -112t137 -38t152 50q61 50 61 129t-82 120q-33 16 -100 45q-99 -33 -157 -77q-58 -43 -58 -117zM244 1118q0 -64 36 -97q36 -32 103 -60q193 59 192 190q0 57 -37 90q-38 33 -113 33t-128 -46t-53 -110zM614 1159q0 -147 -188 -213l-2 -4
q82 -33 126 -70t44 -106q0 -100 -75 -162t-182 -61q-107 0 -163 47q-55 47 -55 125q0 152 215 225v4q-129 56 -129 156t65 154q66 54 159 54t139 -39q46 -40 46 -110z" />
    <glyph glyph-name="nine.numr" horiz-adv-x="661" 
d="M610 1096q0 184 -168 184q-106 0 -168 -60t-63 -169q0 -143 160 -144q113 0 227 82q12 42 12 107zM649 1100q0 -190 -125 -336t-350 -221h-6l-16 20v8q344 111 432 369l-4 4q-104 -74 -207 -74q-201 0 -201 174q0 127 74 199t186 72q216 0 217 -215z" />
    <glyph glyph-name="acute.cap" 
d="M684 1305l-4 -11q-137 -78 -356 -190l-11 6l-14 31q186 90 360 192l11 -4z" />
    <glyph glyph-name="breve.cap" 
d="M479 1112q-76 0 -126 39t-62 113l28 22h11q16 -133 151 -133t187 133h10l24 -22q-65 -152 -223 -152z" />
    <glyph glyph-name="caron.cap" 
d="M500 1114h-33q-106 92 -188 156l16 28h10q82 -59 178 -143q96 72 211 143h11l10 -28q-76 -50 -215 -156z" />
    <glyph glyph-name="circumflex.cap" 
d="M481 1313h33q123 -106 186 -156l-16 -29h-10q-82 59 -178 144q-96 -72 -211 -144h-11l-10 29q90 58 217 156z" />
    <glyph glyph-name="grave.cap" 
d="M684 1141l-14 -31l-11 -6q-219 113 -356 190l-4 11l14 24l11 4q174 -102 360 -192z" />
    <glyph glyph-name="hungarumlaut.cap" 
d="M545 1171q154 143 182 172l10 -2l21 -20l-2 -10q-72 -72 -230 -215l-10 2l-22 26zM279 1171q154 143 182 172l10 -2l21 -20l-3 -10q-72 -72 -229 -215l-10 2l-23 26z" />
    <glyph glyph-name="caron.alt" 
d="M479 1038l-37 -4l-4 8l60 295l37 4l4 -8z" />
    <glyph glyph-name="dieresis.i" 
d="M637 1221q0 -41 -41 -41t-41 41t41 41t41 -41zM428 1221q0 -41 -41 -41t-41 41t41 41t41 -41z" />
    <glyph glyph-name="macron.i" 
d="M702 1202h-423l-7 6l4 35h424l7 -6z" />
    <glyph glyph-name="tilde.i" 
d="M359 1233q-19 0 -64 -49l-33 -33h-6l-18 23v8l96 96l12 4q33 -4 146 -41t132 -37t58 43l39 39h6l18 -22v-9l-96 -96l-12 -4q-33 4 -146 41t-132 37z" />
    <glyph glyph-name="Gdieresis" horiz-adv-x="1177" 
d="M545 -8q-211 0 -322 135t-110 385q0 250 78 430q79 180 227 276t340 95q190 0 352 -111l-16 -37h-15q-156 106 -311 107q-193 0 -331 -90t-211 -260q-72 -170 -72 -404t100 -361q100 -126 274 -126t387 61l31 232l19 159l41 4l-54 -426q-137 -41 -221 -55t-186 -14z
M936 1599q0 -41 -41 -41t-41 42q0 40 41 40t41 -41zM629 1599q0 -41 -41 -41t-41 42q0 40 41 40t41 -41z" />
    <glyph glyph-name="breveacute" 
d="M473 1071q-76 0 -126 39t-62 113l28 22h11q16 -133 151 -133t187 133h10l24 -22q-65 -152 -223 -152zM623 1425q-61 -72 -125 -137l-41 -43l-11 2l-24 25q53 55 170 184h10l23 -20z" />
    <glyph glyph-name="brevegrave" 
d="M473 1073q-76 0 -126 39t-62 113l28 22h11q16 -133 151 -133t187 133h10l24 -22q-65 -152 -223 -152zM500 1245l-41 43q-63 66 -125 137l-2 11l22 20h11q117 -129 170 -184l-25 -25z" />
    <glyph glyph-name="brevehookabove" 
d="M473 1071q-76 0 -126 39t-62 113l28 22h11q16 -133 151 -133t187 133h10l24 -22q-65 -152 -223 -152zM586 1452q0 -59 -99 -133l33 -59l-35 -15l-45 84q104 70 105 119q0 41 -53.5 41t-110.5 -47l-16 28q70 60 120 60t75.5 -22.5t25.5 -55.5z" />
    <glyph glyph-name="brevetilde" 
d="M467 1071q-76 0 -126 39t-62 113l28 22h10q16 -133 151.5 -133t186.5 133h11l24 -22q-65 -152 -223 -152zM383 1425q-18 0 -66 -47l-36 -37h-9l-18 23v8l102 96l11 5q37 -4 160 -41t141 -37t65 47l37 37h8l19 -23v-8l-103 -96l-10 -4q-37 4 -160 40.5t-141 36.5z" />
    <glyph glyph-name="circle1" horiz-adv-x="903" 
d="M940 463q0 -131 -65.5 -244t-178 -178.5t-243.5 -65.5t-244 65.5t-178.5 178.5t-65.5 244t65.5 243.5t178.5 178t244 65.5t243.5 -65.5t178 -178t65.5 -243.5z" />
    <glyph glyph-name="circle2" horiz-adv-x="1292" 
d="M1325 649.5q0 -184.5 -91 -340t-248 -247t-341 -91.5t-339.5 91.5t-247 247t-91.5 340t91.5 341t247 247.5t339.5 91t341 -91t248 -247.5t91 -341z" />
    <glyph glyph-name="circumflexacute" 
d="M694 1118l-16 -28h-10q-82 59 -179 143q-96 -72 -210 -143h-11l-10 28q90 57 217 156h33q123 -107 186 -156zM760 1436l-2 -11l-140 -155h-12l-22 22l143 164l10 -2z" />
    <glyph glyph-name="circumflexgrave" 
d="M698 1120l-16 -28h-10q-82 59 -178 143q-96 -72 -211 -143h-11l-10 28q90 57 217 156h33q123 -107 186 -156zM698 1268h-12l-139 155l-2 11l22 18l11 2l143 -164z" />
    <glyph glyph-name="circumflexhookabove" 
d="M694 1120l-16 -28h-10q-82 59 -179 143q-96 -72 -210 -143h-11l-10 28q90 57 217 156h33q123 -107 186 -156zM741 1434q0 -57 -94 -127l31 -56l-33 -14l-43 80q100 66 100 113q0 39 -51 38.5t-104 -43.5l-17 27q68 57 115 57t71.5 -22.5t24.5 -52.5z" />
    <glyph glyph-name="circumflextilde" 
d="M694 1126l-16 -28h-10q-82 59 -179 143q-96 -72 -210 -143h-11l-10 28q90 57 217 156h33q123 -107 186 -156zM396 1425q-18 0 -66 -47l-37 -37h-8l-19 23v8l103 96l10 5q37 -4 160 -41t141 -37t65 47l37 37h9l18 -23v-8l-102 -96l-11 -4q-37 4 -159.5 40.5t-140.5 36.5z
" />
    <glyph glyph-name="dieresiscaron" 
d="M666 1178q0 -41 -41 -41t-41 41t41 41t41 -41zM379 1178q0 -41 -41 -41t-41 41t41 41t41 -41zM504 1286h-33q-106 92 -188 156l16 28h10q82 -59 178 -143q96 72 211 143h11l10 -28q-76 -50 -215 -156z" />
    <glyph glyph-name="dieresismacron" 
d="M694 1178q0 -41 -41 -41t-41 41t41 41t41 -41zM408 1178q0 -41 -41 -41t-41 41t41 41t41 -41zM772 1374h-485l-6 6l4 35h485l6 -6z" />
    <glyph glyph-name="down" horiz-adv-x="821" 
d="M135 709h553l-276 -553z" />
    <glyph glyph-name="firstofchinese" horiz-adv-x="796" 
d="M788 1202h-587l-6 6l4 35h587l7 -6z" />
    <glyph glyph-name="foundryicon" horiz-adv-x="1603" 
d="M891 618h53q20 0 21 -20v-270q0 -66 45 -108t114 -42l129 76v51q-25 -8 -61 -8q-76 0 -76 117v184q0 20 21 20h118v74h-118q-20 0 -21 21v57h-43l-182 -115v-37zM391 190h152v369q0 25 49 25q88 0 88 -115v-279h151v365q0 66 -45 108t-114 42l-99 -58q-12 -8 -21 -8
t-9 18v238h-152v-705zM1399 909v-866q0 -164 -164 -164h-866q-164 0 -164 164v866q0 164 164 164h866q164 0 164 -164z" />
    <glyph glyph-name="gdieresis" horiz-adv-x="1050" 
d="M659 973q-239 -1 -369 -149t-130 -418q0 -180 84 -278t226 -97q142 0 314 47l21 172l18 125l41 4l-18 -127l-25 -205q-197 -53 -355 -53q-159 0 -254 105t-95 300q0 293 141 453t401 160q144 0 283 -84l-16 -37h-11q-135 82 -256 82zM842 1300q0 -40 -41 -40t-41 40
t41 41q41 0 41 -41zM535 1300q0 -40 -41 -40t-41 40t41 41q41 0 41 -41z" />
    <glyph glyph-name="hookabove" 
d="M614 1309q0 -59 -98 -133l33 -60l-35 -14l-45 84q104 70 104 119q0 41 -53 41t-110 -48l-17 29q70 59 120 59t75.5 -22.5t25.5 -54.5z" />
    <glyph glyph-name="left" horiz-adv-x="821" 
d="M63 453l553 276v-553z" />
    <glyph glyph-name="quotesingle.aalt" horiz-adv-x="1228" 
 />
    <glyph glyph-name="glyph654" horiz-adv-x="151" 
d="M109 604l-35 -6l-4 14l59 480l37 6l4 -15z" />
    <glyph glyph-name="less_d_e_r_e_c_h_a_greater.calt" horiz-adv-x="821" 
d="M207 176v553l553 -276z" />
    <glyph glyph-name="newGlyph" 
d="M373 1181q0 -46 29.5 -74t72.5 -28t74 27t31 72t-28 74.5t-76 29.5t-75.5 -27.5t-27.5 -73.5zM621 1177q0 -60 -44.5 -99.5t-101.5 -39.5t-100 40t-43 102t40 102.5t106 40.5t104.5 -43t38.5 -103zM743 1497l-6 -8q-141 -51 -385 -127l-8 8l-8 33q203 57 387 127l10 -6z
" />
    <glyph glyph-name="puso" horiz-adv-x="903" 
d="M0 0v905h905v-905h-905z" />
    <glyph glyph-name="right" horiz-adv-x="1292" 
d="M0 0v1294h1294v-1294h-1294z" />
    <glyph glyph-name="ringacute" horiz-adv-x="821" 
d="M135 217l277 553l276 -553h-553z" />
    <glyph glyph-name="square1" horiz-adv-x="167" 
d="M133 770l-35 -6l-4 12l60 457l36 6l5 -12z" />
    </font>
</defs>
</svg>
