<?xml version="1.0" standalone="no"?>
<!DOCTYPE svg PUBLIC "-//W3C//DTD SVG 1.1//EN" "http://www.w3.org/Graphics/SVG/1.1/DTD/svg11.dtd" >
<svg xmlns="http://www.w3.org/2000/svg">
<metadata>
Created by FontPrep 20130207 at Tue May 10 19:20:31 2016
 By Guillaume Coquoz
Copyright (c) 2011, Juan Pablo del Peral (juan@huertatipografica.com.ar), with Reserved Font Names "Alegreya" "Alegreya SC"
</metadata>
<defs>
<font id="7d3d6f66d2eaf280d8083d027d1ceb52" horiz-adv-x='1024' >
  <font-face 
    font-family="AlegreyaSC-BoldItalic"
    font-weight="700"
    font-style="italic"
    font-stretch="normal"
    units-per-em="2048"
    panose-1="2 0 5 3 5 0 0 2 0 4"
    ascent="1638"
    descent="-410"
    x-height="1034"
    cap-height="1329"
    bbox="-477 -651 2058.01 2001"
    underline-thickness="114"
    underline-position="-121"
    unicode-range="U+0020-FB02"
  />
<missing-glyph horiz-adv-x="339" 
 />
    <glyph glyph-name=".notdef" horiz-adv-x="339" 
 />
    <glyph glyph-name=".null" horiz-adv-x="0" 
 />
    <glyph glyph-name="nonmarkingreturn" horiz-adv-x="681" 
 />
    <glyph glyph-name="space" unicode=" " horiz-adv-x="339" 
 />
    <glyph glyph-name="exclam" unicode="!" horiz-adv-x="561" 
d="M182 483l66 881l31 35l276 45l31 -37l-240 -928l-135 -22zM53 123q0 72 52 125t125 53q143 0 143 -143q0 -72 -51 -126t-125 -55q-144 0 -144 146z" />
    <glyph glyph-name="quotedbl" unicode="&#x22;" horiz-adv-x="636" 
d="M684 1339l12 -20q-57 -225 -129 -442l-104 -41l-29 8q29 209 41 467zM393 1339l13 -20q-57 -225 -130 -442l-104 -41l-29 8q31 190 43 467z" />
    <glyph glyph-name="numbersign" unicode="#" horiz-adv-x="1044" 
d="M473 721l-59 -195h86l98 -2l61 197h-186zM127 719l-8 22l45 144l194 -2l88 284l152 15l20 -13l-94 -286h90l91 -2l88 286l151 15l21 -13l-95 -286l191 4l8 -25l-45 -143h-205l-59 -191l188 2l8 -24l-43 -141h-200l-84 -275l-148 -22l-20 16l90 281l-109 2l-75 -2
l-84 -275l-150 -22l-18 16l88 281l-187 -3l-8 25l45 141l199 -2l59 193h-184z" />
    <glyph glyph-name="dollar" unicode="$" horiz-adv-x="892" 
d="M244 264q0 -125 147 -125q76 0 122 32t46 81t-43 82q-43 32 -119 70q-75 38 -107 56t-77 56q-88 68 -88 190t105 216t278 116l67 291l146 19l10 -19l-67 -287q121 -8 239 -41l10 -24q-45 -129 -73 -275l-144 -10l-14 10q10 49 10 74q0 100 -135 101q-68 0 -113 -32
t-45 -81q0 -61 121 -125l66 -33q154 -76 205 -136q50 -60 51 -138q0 -142 -113 -236t-307 -110l-68 -295l-143 -17l-12 15l67 297q-119 12 -225 57l-12 25q45 143 63 268l156 12q-4 -37 -4 -84z" />
    <glyph glyph-name="percent" unicode="%" horiz-adv-x="1417" 
d="M1233 1337l14 -39q-360 -547 -545 -833l-413 -655l-133 55l-11 29q248 369 424 647l537 848zM1040 -25q-116 0 -184 76t-68 207q0 190 100 307t257 117q119 0 185 -77t65 -202q1 -188 -97 -308t-258 -120zM920 317q0 -137 170 -137t170 154q0 66 -42 102t-124 37
q-82 0 -128 -41t-46 -115zM344 633q-118 0 -186 75t-68 207q0 189 99 307t257 117q119 -1 185 -77t65 -201q0 -188 -96 -308t-256 -120zM223 973q0 -137 169 -137t169 155q0 63 -42 101t-122 36q-174 0 -174 -155z" />
    <glyph glyph-name="ampersand" unicode="&#x26;" horiz-adv-x="1298" 
d="M240 512q0 -27 4 -63q147 90 191 137q44 46 44 114q1 68 -69 68t-120 -70t-50 -186zM653 845q0 -48 -14 -73l10 -6q141 131 217 251t101 265l20 21h72q76 -150 76 -207q0 -31 -64 -111q-139 -181 -318 -329t-468 -314q80 -182 299 -182q141 0 234 78t128 219l-65 8
q-37 0 -117 -80h-10l-60 80v8l160 164l33 10q37 0 184 -19q147 -20 181 -20t132 82h13l55 -78v-10l-156 -164l-36 -12l-138 14q-70 -203 -242 -334t-372 -131q-201 0 -326 128t-125 340t132 369t300 157q74 0 119 -38t45 -86z" />
    <glyph glyph-name="quotesingle" unicode="'" horiz-adv-x="348" 
d="M393 1339l13 -20q-57 -225 -130 -442l-104 -41l-29 8q31 190 43 467z" />
    <glyph glyph-name="parenleft" unicode="(" horiz-adv-x="610" 
d="M340 234q0 -156 42 -261q42 -104 97 -153l21 -17l-2 -16l-95 -86h-16q-45 19 -104 75t-98 121q-38 65 -55 157t-17 156q0 65 6 124l43 354q16 141 67 259t111 186q119 135 213 178l39 18h22l56 -94l-4 -12q-27 -9 -76 -57t-83 -99t-69 -144t-47 -204l-43 -354
q-8 -77 -8 -131z" />
    <glyph glyph-name="parenright" unicode=")" horiz-adv-x="618" 
d="M510 818q0 -65 -6 -122l-45 -354q-15 -141 -67 -259t-111 -185q-121 -137 -211 -181l-39 -16h-23l-53 94l2 12q33 17 78 61t80 95t69 145t47 203l43 355q8 78 8 180t-36 203q-47 113 -103 159l-20 19l2 16l94 86h17q12 -6 34 -18q22 -13 76 -63q112 -107 146 -272
q18 -93 18 -158z" />
    <glyph glyph-name="asterisk" unicode="*" horiz-adv-x="804" 
d="M604 1507q-23 -113 -63 -241l-86 -11l-15 9l-14 231q90 29 164 29zM848 1169q-86 -14 -248 -14l-37 76l4 20l217 82q55 -76 76 -147zM602 831q-49 102 -90 234l63 59h19l143 -180q-53 -76 -114 -119zM207 961q82 80 192 157l76 -41l6 -16l-125 -195q-90 29 -149 74v21z
M207 1378q102 -53 209 -135l-15 -84l-16 -12l-221 61q0 92 22 164z" />
    <glyph glyph-name="plus" unicode="+" horiz-adv-x="999" 
d="M649 1018l23 -14q-37 -217 -58 -377l361 12l10 -25l-45 -188l-352 -2l-39 -344l-187 -31l-18 17q25 190 45 358l-346 -2l-12 22l51 185q176 -2 334 -2l45 368z" />
    <glyph glyph-name="comma" unicode="," horiz-adv-x="468" 
d="M199 291q67 0 105 -49q38 -48 38 -144t-90 -202t-223 -183l-78 62v35q66 45 106 108q41 63 41 136t-61 139l4 28q92 70 158 70z" />
    <glyph glyph-name="hyphen" unicode="-" horiz-adv-x="638" 
d="M573 641l17 -27l-37 -163l-473 -54l-17 25l35 160z" />
    <glyph glyph-name="period" unicode="." horiz-adv-x="471" 
d="M212 301q142 0 142 -143q0 -72 -52 -126t-126 -54t-108 35q-34 36 -33 109q0 73 52 126t125 53z" />
    <glyph glyph-name="slash" unicode="/" horiz-adv-x="649" 
d="M721 1382l22 -30q-256 -649 -600 -1577h-174l-14 22q145 354 260 666l340 919h166z" />
    <glyph glyph-name="zero" unicode="0" horiz-adv-x="985" 
d="M484 244q130 0 211 77t81 197t-68 184q-69 64 -200 64t-211 -78t-80 -198t68 -183q69 -63 199 -63zM410 -25q-172 0 -269 114q-96 114 -96 312q0 283 154 463t391 180q170 0 265 -112t95 -309q0 -285 -151 -467t-389 -181z" />
    <glyph glyph-name="one" unicode="1" horiz-adv-x="722" 
d="M463 227q0 -94 74 -94l96 6l4 -10l-39 -137q-184 8 -252 8t-113 -2t-85 -6t-74 -7t-74 -8l29 129q102 10 145 50t53 139q57 461 57 489t-14 48q-16 20 -73 20l-99 -10l-10 14l27 117q136 11 303 37q166 26 219 34l14 -61q-68 -51 -96 -160q-92 -442 -92 -596z" />
    <glyph glyph-name="two" unicode="2" horiz-adv-x="956" 
d="M535 1044q117 0 193 -64t77 -170q0 -105 -80 -217t-358 -386l8 -17h178q90 0 133 39t76 148l160 14q-70 -219 -103 -385l-33 -24q-485 18 -673 18l-129 -18l-9 67l168 170q187 193 269 311t82 199q0 98 -115 98t-229 -157h-27l-19 151q197 223 431 223z" />
    <glyph glyph-name="three" unicode="3" horiz-adv-x="856" 
d="M514 1044q106 0 179 -58t73 -152t-70 -178t-186 -130l-2 -16q244 -70 244 -246q0 -110 -100 -220t-252 -180q-153 -70 -300 -69q-84 0 -110 42t-27 92q0 50 2 75l31 29q68 -27 182 -27t204 62q89 62 89 153q0 143 -268 144l-17 20l2 127l131 29q76 35 123 91t47 109
t-29 80q-30 27 -77 27q-100 0 -227 -100l-25 -3l-25 146q74 49 188 101t220 52z" />
    <glyph glyph-name="four" unicode="4" horiz-adv-x="929" 
d="M485 686l-286 -364h260l47 364h-21zM602 1040q2 0 12 4l172 -22l-86 -700h160l14 -23l-38 -170q-63 2 -156 6l-25 -297l-18 -18l-240 -25l-12 21q29 178 51 325q-307 8 -471 9q4 22 11 68t12 69z" />
    <glyph glyph-name="five" unicode="5" horiz-adv-x="843" 
d="M739 297q0 -186 -215 -344t-446 -158q-80 0 -109 41t-28 123q0 20 2 45l30 29q72 -27 187 -27t206 60t91 143q0 82 -78 125t-268 72l-15 22l109 553l16 16l385 15q57 4 85 20t50 62l113 8l-88 -301l-29 -27q-176 16 -389 17l-37 -189q213 -39 321 -110q107 -72 107 -195z
" />
    <glyph glyph-name="six" unicode="6" horiz-adv-x="917" 
d="M289 354q0 -211 154 -213q79 1 125 63t46 158t-37 146q-38 51 -110 51t-158 -57q-20 -106 -20 -148zM866 434q0 -197 -137 -328t-350 -131q-158 1 -247 105t-89 257q0 289 156 479t334 282q177 92 258 114l45 13l18 -11l27 -112q-33 -8 -112 -53t-137 -91t-127 -120
q-69 -76 -114 -162l6 -12q2 0 74 36t100 39q139 0 217 -87t78 -218z" />
    <glyph glyph-name="seven" unicode="7" horiz-adv-x="845" 
d="M406 1020h430l67 -98q-199 -342 -491 -895l-93 -232h-34l-176 55l-17 52l547 905l-258 -16q-94 -8 -129 -41t-66 -140l-123 -12q55 233 89 420l14 10q117 -8 240 -8z" />
    <glyph glyph-name="eight" unicode="8" horiz-adv-x="946" 
d="M391 914q0 -60 45 -100t137 -91q98 80 99 195q0 70 -35 108t-97 37q-62 0 -105 -44q-44 -45 -44 -105zM434 127q72 0 125 50t53 121t-64 118t-142 90q-131 -86 -132 -209q0 -72 44 -121t116 -49zM45 240q0 213 258 329q-158 113 -158 271t131 272t316 113q131 0 221 -71
t90 -187q0 -197 -213 -305q168 -111 168 -277t-140 -288t-335 -122q-147 0 -243 73q-95 73 -95 192z" />
    <glyph glyph-name="nine" unicode="9" horiz-adv-x="917" 
d="M460 461q71 0 156 55q20 80 21 164q0 84 -37 141t-115 57t-125 -62q-47 -64 -47 -160t38 -145q38 -50 109 -50zM63 586q1 198 137 328t349 130q158 0 248 -104t90 -257q0 -288 -153 -476t-325 -280q-171 -91 -315 -134l-18 12l-29 113q33 8 112 53t137 89t127 120
t114 162l-9 14q-6 -2 -70 -36t-102 -39q-139 0 -216 87t-77 218z" />
    <glyph glyph-name="colon" unicode=":" horiz-adv-x="468" 
d="M280 860q142 0 142 -143q0 -72 -52 -126t-126 -54q-74 -1 -108 35t-34 109t52 126t126 53zM212 301q142 0 142 -143q0 -72 -52 -126t-126 -54t-108 35q-34 36 -33 109q0 73 52 126t125 53z" />
    <glyph glyph-name="semicolon" unicode=";" horiz-adv-x="468" 
d="M280 860q142 0 142 -143q0 -72 -52 -126t-126 -54q-74 -1 -108 35t-34 109t52 126t126 53zM197 291q67 0 105 -49q38 -48 38 -144t-90 -202t-223 -183l-78 62v35q66 45 106 108q41 63 41 136t-61 139l4 28q92 70 158 70z" />
    <glyph glyph-name="less" unicode="&#x3c;" horiz-adv-x="921" 
d="M68 436l-15 27l29 199l760 323l24 -16l23 -156q-180 -66 -623 -248l-2 -14l551 -270l6 -31l-102 -133q-266 135 -651 319z" />
    <glyph glyph-name="equal" unicode="=" horiz-adv-x="999" 
d="M997 823l11 -24l-43 -189l-899 -4l-13 23l51 184q285 -2 461 -2zM952 459l11 -25l-45 -188l-898 -4l-12 22l51 185q287 -2 461 -3z" />
    <glyph glyph-name="greater" unicode="&#x3e;" horiz-adv-x="921" 
d="M877 666l12 -27l-27 -201l-762 -321l-22 14l-25 158q186 68 623 246l2 14l-551 270l-6 33l102 133q158 -82 301 -154z" />
    <glyph glyph-name="question" unicode="?" horiz-adv-x="733" 
d="M285 301q143 0 143 -143q0 -72 -52 -126t-125 -55q-144 0 -142 146q0 72 51 125t125 53zM539 1032q0 176 -334 197l-12 28l94 173l32 14q207 -6 341 -99t135 -231q1 -163 -175 -297q-74 -57 -202 -133l-6 -14l6 -170l-15 -23l-184 -37l-22 13l-17 258l10 28l228 129
q121 70 121 164z" />
    <glyph glyph-name="at" unicode="@" horiz-adv-x="1712" 
d="M690 215q45 0 139 154t175 364q-104 59 -181 60q-66 0 -121 -127t-55 -279q1 -72 13 -122t30 -50zM993 -25q-90 0 -90 97q0 51 70 323l-17 2q-170 -309 -329 -422q-113 0 -174 80t-62 219q0 250 159 465t335 215l178 -36l14 45l25 14l164 -29l16 -35q-109 -418 -158 -741
l13 -12q180 0 283 122t104 320q0 258 -165 404t-459 145q-294 0 -490 -212q-196 -213 -195 -533q0 -320 198 -520t578 -210v-32l-63 -103q-422 7 -659 235t-236 591q0 184 72 357q151 357 494 512q175 79 370 79q333 0 533 -180q200 -181 200 -475t-190 -490t-519 -195z" />
    <glyph glyph-name="A" unicode="A" horiz-adv-x="1236" 
d="M598 584q55 0 145 8l-57 457h-29l-196 -465h137zM908 0q-118 0 -306 -16l-8 16l24 121q98 8 131 24q31 15 31 51t-22 228q-53 4 -164 4t-205 -14l-65 -158q-20 -49 -21 -76q0 -53 80 -53h86l6 -12l-29 -127q-162 12 -286 12l-240 -6l31 135q88 14 145 137l471 1037
l322 34l22 -10q94 -707 158 -1059q12 -74 41 -104t94 -37l8 -14l-28 -119q-158 6 -276 6z" />
    <glyph glyph-name="B" unicode="B" horiz-adv-x="1243" 
d="M885 985q0 174 -246 174q-21 0 -33 -11t-69 -394q150 -18 184 -19q23 6 55 30t51 50q58 66 58 170zM463 248q0 -47 37 -72q37 -24 139 -24t164 62q61 62 61 169q0 154 -172 195l-180 -3q-49 -315 -49 -327zM309 1122q0 24 -9 43q-9 18 -44 19l-68 -4l-12 16l35 123
q205 -6 274 -6l287 12q190 0 296 -73t108 -205q0 -221 -254 -353q117 -38 180 -110t63 -168q0 -195 -153 -316q-154 -120 -404 -120l-303 20q-102 0 -295 -20l31 135q88 16 123 50t43 114q102 819 102 843z" />
    <glyph glyph-name="C" unicode="C" horiz-adv-x="1216" 
d="M600 -25q-248 1 -391 147t-143 402q0 371 205 592q206 221 552 221q145 0 404 -49l8 -26q-61 -170 -100 -385l-199 -13q18 96 18 135q0 145 -202 146q-174 0 -270 -151t-97 -431q0 -195 69 -297q70 -102 188 -102t184 66t110 216l199 15q-59 -211 -86 -379l-21 -25
q-180 -82 -428 -82z" />
    <glyph glyph-name="D" unicode="D" horiz-adv-x="1368" 
d="M655 1151q-33 0 -45 -10t-16 -39q-129 -788 -129 -848t32 -84q32 -23 115 -23q195 0 308 167t112 456q0 381 -377 381zM282 0q-104 0 -268 -20l31 137q84 14 118 50t46 122q100 811 100 835t-8 40q-8 17 -43 18l-68 -4l-8 18l31 123q174 -6 252 -6l297 10q270 0 429 -140
t159 -388q0 -352 -219 -586t-551 -234q-194 25 -298 25z" />
    <glyph glyph-name="E" unicode="E" horiz-adv-x="1179" 
d="M684 586q-72 0 -176 -13q-47 -321 -47 -355q1 -34 23 -47t94 -13q182 0 238 39t97 194l170 15l13 -21q-59 -182 -103 -379l-22 -20q-367 14 -568 14t-393 -20l33 137q84 12 118 49t44 125q102 813 102 837t-7 39q-7 16 -46 17l-61 -4l-11 18l31 121q217 -6 502 -6t469 24
l12 -20q-57 -180 -90 -371l-184 -12q16 72 16 125t-45 70t-153 17t-125 -9q-17 -10 -25 -58l-53 -323l184 -2l231 16l13 -16l-50 -174q-159 6 -231 6z" />
    <glyph glyph-name="F" unicode="F" horiz-adv-x="1052" 
d="M463 229q0 -29 12 -51t62 -22l129 10l14 -21l-39 -153q-209 8 -317 8t-314 -23l31 136q86 16 120 53t44 125q102 813 102 837t-7 39q-7 16 -46 17l-61 -4l-11 18l31 121q217 -6 484 -6t440 24l12 -20q-53 -184 -86 -373l-182 -12q16 74 16 127t-39 70t-132 17
q-92 0 -110 -9q-18 -10 -26 -58l-58 -358l185 -2l209 16l12 -16l-47 -174q-145 6 -225 6t-162 -14q-41 -279 -41 -308z" />
    <glyph glyph-name="G" unicode="G" horiz-adv-x="1288" 
d="M1006 666q72 0 133 4t61 6l4 -78q-72 -45 -90 -168q-35 -178 -35 -278l2 -68l-20 -25q-61 -31 -197 -57t-262 -27q-250 1 -393 147t-143 402q0 371 205 592q206 221 552 221q145 0 404 -49l8 -26q-61 -156 -100 -371l-199 -14q18 88 18 127q0 141 -202 141
q-174 0 -270 -151t-97 -431q0 -195 69 -297t187 -102t211 53q25 211 25 236q-1 25 -13 41t-63 16h-103l-8 16l39 144h8l66 -2h47l104 -2h52z" />
    <glyph glyph-name="H" unicode="H" horiz-adv-x="1474" 
d="M1090 0h-82l-242 -4l33 133q81 2 115 40t49 148l32 265q-139 2 -211 2l-278 -21q-43 -344 -43 -356v-33q4 -43 61 -43l72 6l8 -14l-33 -129q-167 6 -233 6t-194 -5t-132 -13l31 131q94 20 125 58t43 148q96 786 96 809t-9 39t-52 17l-60 -2l-8 16l29 119q156 -4 237 -4
l301 16l-26 -135q-75 -12 -99 -38t-36 -109l-49 -295q86 0 229 -2t252 12q45 340 45 362t-10 41q-10 18 -52 19l-61 -2l-8 16l31 119q217 -4 278 -4l266 16l-24 -133q-74 -10 -101 -32t-37 -81q-39 -221 -83 -513t-43 -346q0 -54 15 -73t52 -20l74 6l8 -14l-33 -129
q-137 6 -243 6z" />
    <glyph glyph-name="I" unicode="I" horiz-adv-x="720" 
d="M461 213q0 -47 14 -65t49 -17l86 6l6 -14l-32 -129q-204 6 -308 6t-266 -18l31 131q88 18 122 53t44 119q100 821 100 843t-9 38q-9 17 -52 18l-68 -2l-8 16l29 119l276 -4l285 16l-29 -135q-75 -10 -103 -32t-38 -79q-129 -748 -129 -870z" />
    <glyph glyph-name="J" unicode="J" horiz-adv-x="657" 
d="M182 252q106 854 106 876t-8 38q-9 17 -49 18l-86 -6l-6 16l29 119l246 2q123 0 303 16l-29 -137q-66 -12 -86 -32t-31 -79q-80 -457 -131 -874q-28 -205 -142 -329t-337 -193l-47 82l8 22q131 83 183 177t77 284z" />
    <glyph glyph-name="K" unicode="K" horiz-adv-x="1304" 
d="M985 -31q-117 0 -199 172l-235 506l10 43l322 324q72 72 71 119q0 47 -94 53l-6 14l31 125q166 -12 248 -12l233 10l10 -23l-28 -114q-70 -27 -125 -71t-146 -140l-250 -264l209 -414q47 -94 92 -135t109 -45l12 -17l-28 -106q-201 -25 -236 -25zM307 1128q0 22 -9 39
q-9 16 -52 17l-60 -2l-8 16l31 121q211 -6 266 -6l277 16l-27 -135q-77 -14 -105 -39t-36 -80l-119 -805q-4 -40 -4 -68t6 -42q10 -29 57 -29l78 6l8 -14l-35 -129q-199 6 -284 6l-279 -6l35 129q88 14 119 45t41 117q100 821 100 843z" />
    <glyph glyph-name="L" unicode="L" horiz-adv-x="1050" 
d="M465 244q0 -51 22 -69q23 -17 86 -17q139 0 193 56q53 56 98 253l172 16l13 -18q-59 -221 -111 -461l-23 -20q-317 16 -511 16t-384 -20l33 137q78 12 110 49t42 125q102 813 102 835t-10 40q-10 17 -53 18l-60 -2l-8 16l31 119l268 -4l309 16l-30 -141q-96 -12 -126 -38
t-54 -153t-66 -415t-43 -338z" />
    <glyph glyph-name="M" unicode="M" horiz-adv-x="1660" 
d="M1436 248q0 -46 12 -82q12 -35 59 -35l58 4l6 -10l-33 -131q-120 6 -184 6t-183 -6t-129 -10l33 135q59 8 87 32t34 70l49 699h-18q-240 -526 -414 -936l-149 -17q-86 475 -183 953h-16q-129 -702 -129 -736q0 -53 55 -53l68 2l10 -10l-39 -131q-170 8 -235 8l-201 -16
l31 135q59 8 89 40t46 107q174 799 174 841t-30 60t-107 25l-11 12l33 119q178 -10 250 -10l219 8q61 -438 146 -850h16q172 387 352 846l191 -2q35 0 256 10l8 -8l-29 -123q-84 -6 -116 -29t-37 -80q-25 -215 -39 -766v-71z" />
    <glyph glyph-name="N" unicode="N" horiz-adv-x="1439" 
d="M408 184q0 -20 10 -38t49 -17l84 4l10 -12l-35 -129q-170 8 -260 8t-241 -16l32 135q117 14 133 129q127 825 127 855q1 31 -25 53t-122 32l-12 20l26 115q131 -10 232 -10l190 8q172 -371 420 -850h21q72 633 71 645q0 68 -53 68l-68 -2l-6 16l29 123q168 -8 256 -8
l235 12l-26 -135q-66 -10 -99 -39t-40 -90l-160 -1092l-217 -26q-205 442 -459 923h-18q-84 -662 -84 -682z" />
    <glyph glyph-name="O" unicode="O" horiz-adv-x="1331" 
d="M584 -25q-236 -1 -377 147t-141 400q0 365 198 590q199 225 524 225q242 0 383 -143t142 -395q-1 -365 -203 -595t-526 -229zM637 150q164 0 260 160t96 450q0 180 -70 282q-71 102 -194 103q-162 0 -256 -162t-94 -448q0 -180 68 -283q69 -102 190 -102z" />
    <glyph glyph-name="P" unicode="P" horiz-adv-x="1142" 
d="M907 944q0 109 -64 159q-65 50 -200 50q-29 0 -35 -5t-32 -143t-56 -360l168 -24q219 49 219 323zM1194 985q0 -203 -160 -361t-362 -157h-178q-35 -237 -35 -265t13 -50t71 -21l86 6l6 -12l-35 -131q-176 6 -235 6t-202 -7t-145 -9l31 135q84 16 116 50t42 120
q100 813 100 837t-8 40q-8 17 -43 18l-70 -4l-10 16l33 121l248 -4l284 10q231 0 342 -95t111 -243z" />
    <glyph glyph-name="Q" unicode="Q" horiz-adv-x="1339" 
d="M637 150q164 0 260 160t96 450q0 180 -70 282q-71 102 -194 103q-162 0 -256 -162t-94 -448q0 -180 68 -283q69 -102 190 -102zM66 522q0 365 198 590q199 225 524 225q242 0 383 -143q141 -142 141 -412t-128 -477q-129 -207 -348 -287v-6q281 -233 497 -233
q80 0 170 20l15 -12l12 -84q-231 -168 -287 -168q-131 0 -255 81t-415 359q-231 5 -369 151t-138 396z" />
    <glyph glyph-name="R" unicode="R" horiz-adv-x="1271" 
d="M903 969q0 190 -268 190q-21 0 -33 -13t-76 -450l176 -20q201 82 201 293zM463 208q0 -34 16 -56t111 -23l6 -12l-35 -125q-176 6 -264 6l-287 -10l35 135q86 12 119 46t43 120q100 813 100 837t-8 41q-8 16 -43 17l-70 -4l-10 16l33 123q170 -6 248 -6l286 10
q211 0 330 -81t119 -226q0 -283 -303 -432l133 -293q45 -94 91 -135t108 -41l12 -19l-27 -106l-239 -23q-129 0 -195 191l-123 360h-149q-37 -276 -37 -310z" />
    <glyph glyph-name="S" unicode="S" horiz-adv-x="1067" 
d="M260 319q0 -165 175 -165q112 0 174 48q63 48 63 118t-54 114q-54 45 -138 91q-131 71 -194 117q-145 106 -145 255q0 190 158 315t403 125q176 0 310 -39l43 -14l12 -27q-55 -164 -90 -350l-154 -12l-16 12q14 70 14 107q0 74 -41 106t-131 31q-90 0 -148 -47
q-59 -47 -59 -125t144 -164q20 -12 99 -53t113 -65t87 -66q96 -84 96 -211q0 -199 -160 -322t-426 -123q-184 0 -360 78l-15 29q55 176 78 346l170 14q-8 -57 -8 -123z" />
    <glyph glyph-name="T" unicode="T" horiz-adv-x="1124" 
d="M995 903q0 168 -27 209q-28 41 -173 47q-29 -160 -81 -514t-52 -408t22 -79t70 -25l108 6l6 -10l-34 -137q-242 8 -347 8l-333 -12l32 133q131 12 169 49t55 168l100 821q-115 -4 -151 -19q-36 -14 -50 -28q-42 -41 -80 -221l-170 -12q47 238 76 436l27 22l192 -22h619
l207 22l18 -22l-33 -424l-170 -12v24z" />
    <glyph glyph-name="U" unicode="U" horiz-adv-x="1292" 
d="M432 395q0 -237 207 -237q238 0 270 270q76 666 76 694t-7 44q-7 17 -44 18l-66 -4l-4 8l33 131q156 -6 229 -6l240 14l-29 -135q-77 -14 -99 -32t-28 -70l-80 -641q-29 -231 -171 -353t-386 -121q-420 0 -419 363q0 34 46 400t46 390t-8 39q-8 16 -50 17l-61 -4l-4 8
l35 131q168 -6 282 -6l238 14l-31 -137q-63 -8 -89 -32t-34 -77l-88 -596q-4 -59 -4 -90z" />
    <glyph glyph-name="V" unicode="V" horiz-adv-x="1234" 
d="M364 1313q96 0 330 18l6 -16l-24 -123q-100 -8 -131 -28t-31 -92q0 -74 76 -808h31q352 782 352 864q0 57 -92 58h-78l-8 14l28 125q168 -12 293 -12l232 6l-31 -133q-49 -8 -71 -28t-50 -79l-481 -1069l-338 -41q-96 696 -164 1088q-16 121 -131 127l-6 14l30 121
q162 -6 258 -6z" />
    <glyph glyph-name="W" unicode="W" horiz-adv-x="1904" 
d="M366 1313q101 0 308 18l8 -16l-25 -123q-96 -8 -128 -28t-31 -77q0 -141 71 -823h29q31 74 130 319t177 423q2 16 2 40t-8 46q-4 51 -34 70t-99 22l-8 14l33 121q177 -6 277 -6t316 18l9 -16l-25 -123q-100 -8 -131 -28t-31 -74q0 -113 74 -826h29q344 803 344 873
q-1 27 -21 38t-69 11h-74l-8 14l30 125q162 -12 283 -12l219 6l-28 -133q-47 -8 -69 -28t-48 -79l-473 -1069l-326 -41l-78 740h-20l-287 -699l-328 -41q-84 696 -145 1088q-12 67 -41 95t-84 32l-8 14l31 121q156 -6 257 -6z" />
    <glyph glyph-name="X" unicode="X" horiz-adv-x="1349" 
d="M383 178q0 -46 88 -53l6 -12l-26 -125q-188 14 -258 14l-228 -10l-6 20l25 121q125 45 319 275l229 268l-170 334q-43 82 -96 118t-137 52l-4 10l31 129q166 -6 313 -6l307 16l6 -18l-24 -117q-125 -6 -125 -66q0 -43 135 -313q18 25 126 161t107 174q0 38 -90 44
q-2 8 -2 10l25 117l262 -8l223 8l6 -14l-26 -123q-91 -29 -147 -73t-140 -144l-250 -308l189 -352q47 -86 101 -126t136 -46l-28 -139q-172 6 -254 6l-359 -16l-8 14l25 121q115 8 114 65q0 27 -22 68l-133 266l-156 -194q-84 -102 -84 -148z" />
    <glyph glyph-name="Y" unicode="Y" horiz-adv-x="1183" 
d="M531 0q-90 0 -324 -23l31 138q116 16 154 53q54 54 59 278q0 53 -33 138l-146 389q-37 102 -74 145q-38 43 -122 62l-6 10l32 129q176 -6 254 -6l320 16l8 -18l-27 -117q-71 -4 -97 -18t-26 -62t115 -409h17l198 344q39 67 39 103t-94 42l-4 10l31 117l262 -8l205 8
l6 -14l-31 -123q-82 -27 -136 -81t-134 -181q-243 -380 -252 -399q-10 -19 -14 -33t-8 -23q-3 -7 -6 -25t-5 -27t-5 -32t-5 -45t-12 -85q-10 -62 6 -91t71 -29l99 6l6 -10l-35 -137q-227 8 -317 8z" />
    <glyph glyph-name="Z" unicode="Z" horiz-adv-x="1146" 
d="M997 33l-39 -39l-778 12l-153 -16l-37 90l825 1087l-252 -16q-125 -8 -176 -61t-80 -199l-172 -12q59 252 86 440l25 20l350 -22l580 -8l24 -82q-377 -446 -844 -1082l310 23q98 8 160 82t106 235l172 15q-76 -268 -107 -467z" />
    <glyph glyph-name="bracketleft" unicode="[" horiz-adv-x="628" 
d="M498 -270l-428 22q92 565 116 770l74 776l438 23l7 -16l-29 -117l-207 -41l-154 -1243l205 -43l6 -19z" />
    <glyph glyph-name="backslash" unicode="\" horiz-adv-x="649" 
d="M129 1352l29 30h166q134 -1085 156 -1238t55 -347l-21 -22h-176q-76 602 -209 1577z" />
    <glyph glyph-name="bracketright" unicode="]" horiz-adv-x="628" 
d="M145 1321l428 -23q-90 -565 -116 -770l-74 -776l-440 -22l-6 16l30 115l207 43l152 1243l-203 41l-6 18z" />
    <glyph glyph-name="asciicircum" unicode="^" horiz-adv-x="962" 
d="M631 987l24 -16q72 -248 115 -393l107 -336l-142 -86l-33 10q-84 268 -184 614h-14l-127 -254q-78 -139 -184 -368l-152 41l-12 26q80 150 401 754z" />
    <glyph glyph-name="underscore" unicode="_" horiz-adv-x="894" 
d="M-76 -184l477 -2q90 0 418 8l12 -29l-43 -158l-892 -4l-15 29z" />
    <glyph glyph-name="grave" unicode="`" 
d="M154 1333l-4 29l112 143l27 2q174 -184 344 -348l-62 -80l-32 -8q-168 127 -385 262z" />
    <glyph glyph-name="a" unicode="a" horiz-adv-x="1081" 
d="M522 463q55 0 111 6l-43 332h-27l-147 -338h106zM293 150q0 -37 59 -37h66l6 -13l-23 -108q-139 8 -241 8l-205 -4l27 115q70 12 112 100l375 805l311 28l19 -12q84 -569 131 -811q8 -57 32 -82t70 -28l8 -13l-24 -102q-131 4 -209 4l-287 -12l-8 12l20 109q80 6 104 17
q24 10 24 38t-15 151l-141 2q-92 0 -150 -8l-45 -108q-16 -33 -16 -51z" />
    <glyph glyph-name="b" unicode="b" horiz-adv-x="1079" 
d="M555 885q-27 0 -35 -27q-12 -59 -45 -260q113 -16 146 -16q121 61 120 178q0 125 -186 125zM418 211q0 -37 28 -55t107 -18q80 0 127 42q47 43 47 121q0 106 -131 137h-143q-35 -219 -35 -227zM256 854q0 57 -43 57l-55 -2l-13 15l31 106q182 -6 238 -6l254 10
q162 0 252 -57t90 -162q0 -164 -203 -272q195 -64 196 -221q1 -156 -127 -247t-346 -91q-205 16 -256 16l-256 -14l27 116q73 12 99 38t34 87q78 617 78 627z" />
    <glyph glyph-name="c" unicode="c" horiz-adv-x="1036" 
d="M508 -18q-206 0 -325 114q-118 114 -117 320q0 293 165 461q166 168 455 167q123 0 340 -40l10 -23q-51 -137 -84 -313l-188 -13q16 82 16 111q0 106 -153 106q-268 0 -269 -423q0 -297 199 -297q82 0 129 47t80 163l186 13q-45 -172 -65 -309l-19 -21q-154 -63 -360 -63
z" />
    <glyph glyph-name="d" unicode="d" horiz-adv-x="1161" 
d="M563 879q-23 0 -36 -11t-61 -323q-48 -311 -48 -344t22 -49t82 -17q147 0 232 124q84 124 84 343q0 143 -67 210t-208 67zM254 866q0 18 -5 32t-34 13l-55 -4l-8 17l26 106q154 -6 219 -6l248 10q225 0 355 -108t130 -303q0 -281 -178 -461t-456 -180q-160 18 -254 18
l-219 -16l26 120q67 12 95 39t36 95q74 610 74 628z" />
    <glyph glyph-name="e" unicode="e" horiz-adv-x="1013" 
d="M362 0q-176 0 -344 -16l27 118q67 10 95 40t36 100q78 604 78 623t-6 33t-37 13l-47 -2l-12 17l26 104q193 -6 426 -6t397 20l13 -18q-47 -150 -74 -299l-172 -10q14 53 14 93t-36 53t-116 13t-95 -8q-14 -8 -19 -41l-41 -231h148l186 12l12 -16l-41 -150q-128 4 -196 4
t-133 -10q-35 -196 -35 -234t18 -49t114 -11t141 30q44 31 75 147l160 13l12 -19q-49 -145 -82 -305l-23 -18q-293 10 -469 10z" />
    <glyph glyph-name="f" unicode="f" horiz-adv-x="915" 
d="M278 0q-108 0 -260 -18l27 120q69 10 95 39t36 101q78 604 78 623t-6 33t-37 13l-47 -2l-12 17l26 104q193 -6 411 -6t372 20l14 -18q-43 -154 -70 -299l-170 -10q12 53 13 92q0 39 -30 53t-100 14t-84 -8t-18 -41l-45 -258l147 -2l175 15l10 -19l-39 -149q-119 4 -161 4
t-157 -8q-28 -192 -28 -214t10 -39t51 -18l103 11l14 -21l-33 -135q-177 6 -285 6z" />
    <glyph glyph-name="g" unicode="g" horiz-adv-x="1095" 
d="M526 -18q-226 0 -342 112q-117 112 -116 316q0 294 168 464t456 170q123 0 340 -40l10 -23q-51 -123 -86 -297l-186 -12q18 70 18 100q0 102 -157 102q-131 0 -202 -110t-71 -328q0 -289 199 -289q78 0 148 37l18 138q4 45 -7 59t-50 14h-76l-10 17l34 120h234
q164 0 164 9l4 -72q-61 -35 -76 -127q-29 -158 -29 -223v-56l-18 -20q-141 -61 -367 -61z" />
    <glyph glyph-name="h" unicode="h" horiz-adv-x="1251" 
d="M416 156q0 -43 49 -43l57 4l8 -13l-28 -108q-154 4 -208 4t-163 -5q-108 -5 -111 -7l25 112q77 14 101 43t34 109q74 596 74 615t-8 31t-43 13h-47l-9 15l25 102q131 -4 199 -4l270 12l-23 -116q-59 -8 -78 -28t-30 -79l-37 -217q61 0 167 -2t198 8q33 244 32 263
q0 19 -8 33t-43 13h-49l-8 15l24 102q4 -4 252 -4l228 12l-23 -114q-61 -10 -83 -26t-30 -62q-96 -553 -96 -650q0 -70 58 -69l55 4l8 -13l-29 -110q-106 4 -200 4h-70l-178 -2h-41l27 113q66 1 94 31t37 110l24 192h-153l-217 -14q-33 -252 -33 -274z" />
    <glyph glyph-name="i" unicode="i" horiz-adv-x="634" 
d="M416 176q0 -37 11 -50t38 -13l67 4l7 -13l-29 -108q-176 4 -250 4l-240 -12l25 112q73 14 99 41t32 92q78 615 78 633t-8 32t-43 13h-53q-6 12 -7 15l23 102l237 -4l248 12l-24 -116q-61 -8 -81 -24t-30 -62q-100 -541 -100 -658z" />
    <glyph glyph-name="j" unicode="j" horiz-adv-x="581" 
d="M238 868q0 18 -6 32t-39 13l-68 -6l-8 17l24 100l211 2l266 12l-24 -118q-54 -10 -70 -24t-24 -62q-49 -268 -105 -678q-21 -158 -119 -255t-292 -151l-45 68l6 20q109 68 151 140t62 223q80 649 80 667z" />
    <glyph glyph-name="k" unicode="k" horiz-adv-x="1128" 
d="M797 870q0 37 -74 43l-6 13l24 106q143 -8 213 -8l205 8l8 -18l-24 -99q-59 -27 -109 -65t-119 -111l-176 -182l158 -311q37 -72 73 -104t87 -38l12 -16l-27 -94q-176 -18 -219 -19q-92 0 -153 134l-189 395l11 39l245 235q60 55 60 92zM254 866q0 20 -8 32t-43 13h-47
l-9 15l27 102q188 -4 229 -4l244 12l-24 -116q-63 -14 -86 -32t-27 -61l-90 -604q-4 -31 -4 -53t7 -40q7 -17 42 -17l61 4l11 -13l-29 -108q-176 4 -248 4l-240 -4l29 108q73 12 97 36t30 93q78 613 78 633z" />
    <glyph glyph-name="l" unicode="l" horiz-adv-x="917" 
d="M418 203q0 -35 17 -48t65 -14q106 0 148 45t77 201l160 16l10 -16q-47 -182 -88 -381l-21 -18q-258 12 -428 12t-333 -16l28 118q63 10 89 40t34 100q76 606 76 625t-8 31t-43 13h-47l-9 15l25 102l233 -4l277 12l-27 -125q-81 -10 -107 -28t-38 -78q-90 -489 -90 -602z
" />
    <glyph glyph-name="m" unicode="m" horiz-adv-x="1404" 
d="M1075 0q-123 0 -209 -12l29 116q90 12 98 80l37 490h-16q-119 -229 -316 -684l-143 -13q-80 426 -141 697h-17q-90 -494 -90 -518q0 -41 47 -41h52l10 -9l-33 -112q-152 6 -205 6l-172 -12l25 116q47 4 71 29t39 82q135 625 135 647q0 47 -108 53l-8 13l26 104
q154 -8 215 -8l199 8q37 -258 109 -616h16q131 295 262 610l162 -2q41 0 229 10l8 -6l-22 -108q-70 -4 -96 -22t-29 -62q-19 -150 -27 -634q0 -34 10 -61t50 -26l47 2l6 -11l-29 -110q-98 4 -221 4z" />
    <glyph glyph-name="n" unicode="n" horiz-adv-x="1230" 
d="M264 850q0 20 -20 38t-99 25l-12 19l23 100q111 -8 202 -8l172 8q145 -295 326 -616h16q51 434 52 442q0 55 -45 55l-56 -2l-6 13l25 108q150 -8 288 -8t142 10l-21 -116q-55 -8 -81 -31t-33 -70l-125 -831l-211 -21q-184 360 -355 656h-18l-55 -435q-4 -41 7 -57t44 -16
l63 2l11 -11l-29 -110q-152 6 -221 6l-219 -12l28 116q98 12 109 101q98 625 98 645z" />
    <glyph glyph-name="o" unicode="o" horiz-adv-x="1128" 
d="M500 -18q-201 0 -318 114t-116 318q0 290 160 460t431 170q205 0 322 -112t117 -314q0 -288 -163 -462t-433 -174zM543 137q123 0 191 117t69 336q0 139 -51 211t-144 71q-118 0 -186 -116t-68 -336q0 -139 50 -211t139 -72z" />
    <glyph glyph-name="p" unicode="p" horiz-adv-x="993" 
d="M756 727q0 154 -201 154q-25 0 -29 -9q-16 -27 -65 -362l131 -18q164 38 164 235zM1020 762q0 -162 -133 -285t-301 -123h-148q-22 -160 -22 -182t11 -40q11 -17 58 -17l68 2q0 -2 4 -11l-29 -110q-160 4 -223 4l-280 -12l26 116q63 10 90 39t37 95q76 608 76 626t-6 32
t-35 15l-57 -2l-11 15l29 104l211 -4l246 10q201 0 295 -79t94 -193z" />
    <glyph glyph-name="q" unicode="q" horiz-adv-x="1134" 
d="M543 137q123 0 191 117t69 336q0 139 -51 211t-144 71q-118 0 -186 -116t-68 -336q0 -139 50 -211t139 -72zM1120 -156q66 0 144 17l12 -13l12 -77q-205 -141 -254 -142q-106 -1 -206 63t-339 290q-197 4 -311 118t-112 314q0 290 160 460t431 170q205 0 322 -112
t117 -323t-98 -369t-273 -222v-4q219 -170 395 -170z" />
    <glyph glyph-name="r" unicode="r" horiz-adv-x="1103" 
d="M758 743q0 141 -207 142q-17 0 -23 -7q-17 -19 -61 -327l139 -16q53 18 103 69q49 51 49 139zM1024 786q0 -215 -244 -335l103 -209q68 -137 157 -138l13 -20l-25 -92l-211 -17q-113 0 -164 148l-94 268h-115q-26 -184 -26 -214t13 -46t93 -18l4 -11l-28 -108
q-162 4 -232 4l-250 -10l29 118q69 8 95 36t36 96l74 598q6 43 -2 59t-37 16l-57 -2l-11 15l29 104q147 -4 211 -4l250 10q184 0 287 -64q102 -65 102 -184z" />
    <glyph glyph-name="s" unicode="s" horiz-adv-x="923" 
d="M346 -18q-161 0 -305 61l-12 25q45 143 63 268l156 12q-4 -37 -4 -84q0 -125 147 -125q76 0 122 32t46 81t-43 82q-43 32 -119 70q-75 38 -107 56t-77 56q-88 68 -88 176q0 156 134 254t345 98q154 0 299 -43l10 -24q-45 -129 -73 -275l-144 -10l-14 10q10 49 10 74
q0 100 -135 101q-68 0 -113 -32t-45 -81q0 -61 121 -125l66 -33q154 -76 205 -136q50 -60 51 -138q0 -160 -134 -255t-362 -95z" />
    <glyph glyph-name="t" unicode="t" horiz-adv-x="976" 
d="M831 684q0 129 -22 162q-23 33 -125 37q-98 -582 -98 -686q0 -80 76 -80l88 4l4 -8l-29 -121q-207 8 -295 8l-291 -12l27 118q106 8 138 37t44 121l76 619q-110 -4 -142 -38t-65 -173l-158 -10q39 199 60 362l22 20l170 -18h510l178 18l17 -20l-29 -352l-156 -10v22z" />
    <glyph glyph-name="u" unicode="u" horiz-adv-x="1091" 
d="M389 311q0 -170 154 -170q176 0 200 189q59 508 59 532t-5 36q-6 13 -35 13l-51 -2l-2 6l28 115q129 -6 191 -6l209 10l-27 -116q-60 -14 -78 -28t-22 -50l-60 -482q-49 -377 -461 -376q-356 0 -356 278l70 606q0 18 -6 32t-37 13l-51 -2l-3 6l29 115q145 -6 248 -6
l203 10l-27 -119q-51 -6 -71 -23t-27 -58l-68 -463q-4 -21 -4 -60z" />
    <glyph glyph-name="v" unicode="v" horiz-adv-x="1062" 
d="M805 870q0 41 -68 41h-59l-8 15l24 106q143 -8 246 -8l193 4l-27 -115q-37 -6 -54 -21t-38 -61l-377 -823l-326 -33q-82 573 -129 836q-10 53 -32 77q-23 24 -68 25l-6 13l24 104q135 -6 211 -6l287 12l8 -12l-20 -106q-78 -9 -103 -24q-25 -16 -25 -84t54 -585h29
q68 147 166 379t98 266z" />
    <glyph glyph-name="w" unicode="w" horiz-adv-x="1626" 
d="M1376 877q0 20 -14 27t-53 7h-56l-8 15l27 106q137 -8 233 -8l187 4l-25 -115q-35 -6 -53 -22t-39 -60l-365 -823l-313 -33l-57 541h-17l-213 -508l-313 -33q-74 573 -117 836q-10 53 -32 76t-64 26l-8 13l26 104q129 -6 201 -6l281 12l6 -12l-21 -106q-67 -6 -97 -64
t-30 -129q0 -176 52 -500h26l234 563v60q-4 37 -27 51t-80 14l-6 13l27 104q154 -6 233 -6l279 12l8 -12l-23 -106q-79 -8 -103 -22t-24 -56l54 -615h26q258 598 258 652z" />
    <glyph glyph-name="x" unicode="x" horiz-adv-x="1163" 
d="M649 154q0 16 -18 49l-105 186l-112 -135q-61 -72 -62 -102q0 -39 70 -41l6 -13l-22 -106q-164 10 -222 10l-196 -8l-6 18l22 105q90 29 254 209l182 209l-133 237q-37 66 -77 94t-111 41l-6 8l26 113q131 -4 267 -4l262 12l6 -16l-21 -100q-94 -2 -94 -50
q0 -37 103 -223q18 25 96 120t78 118q0 33 -70 33q0 2 -2 10l20 102l228 -6l192 6l4 -12l-22 -109q-78 -27 -125 -61t-109 -109l-198 -235l145 -250q41 -70 86 -102t111 -33l-25 -123q-147 6 -215 6l-307 -12l-6 12l20 107q86 2 86 45z" />
    <glyph glyph-name="y" unicode="y" horiz-adv-x="1042" 
d="M627 177q0 -24 11 -42t56 -18l82 4l6 -8l-28 -121q-203 8 -289 8l-279 -16l27 118q98 10 138 44t40 195q0 38 -29 105l-126 308q-27 68 -60 102t-98 51l-6 8l28 113q158 -4 222 -4l270 12l8 -16l-22 -100q-93 -4 -95 -47q0 -22 86 -304h19l141 242q33 55 33 76
q0 31 -74 31l-4 10l25 102l229 -6l172 6l6 -12l-26 -109q-63 -23 -110 -67q-46 -45 -108 -135l-188 -285q-33 -47 -39 -92q-18 -129 -18 -153z" />
    <glyph glyph-name="z" unicode="z" horiz-adv-x="989" 
d="M860 27l-33 -31l-659 8l-127 -12l-37 78l664 825l-187 -14q-100 -8 -139 -47t-61 -148l-160 -12q49 207 69 356l21 14l289 -16l495 -4l25 -72q-313 -350 -678 -821l233 21q82 8 131 63q48 55 80 176l160 15q-61 -221 -86 -379z" />
    <glyph glyph-name="braceleft" unicode="{" horiz-adv-x="636" 
d="M346 -6q0 -47 26 -77t74 -30l82 13l13 -21l-35 -110q-66 -31 -171 -31t-172 60t-67 142t71 223q71 140 71 183q0 111 -150 148l23 98q176 51 176 168q0 38 -27 150t-27 165q1 113 93 189t239 75q68 0 146 -18l10 -21l-41 -114q-47 10 -93 10t-79 -42t-33 -110l19 -251
q0 -93 -48 -149t-122 -77l-2 -12q123 -43 122 -172q0 -57 -49 -199t-49 -190z" />
    <glyph glyph-name="bar" unicode="|" horiz-adv-x="653" 
d="M547 1653l31 -23q-98 -694 -140 -1034l-135 -1124l-180 -23l-21 23q47 397 269 2158z" />
    <glyph glyph-name="braceright" unicode="}" horiz-adv-x="636" 
d="M211 705q0 55 49 192t49 184t-25 77q-26 30 -75 30l-82 -10l-12 18l35 113q63 31 168 31q106 0 174 -62q68 -61 68 -142t-71 -217q-70 -136 -69 -180q0 -117 147 -147l-20 -96q-78 -23 -127 -66t-49 -93q-1 -50 25 -161t26 -164q0 -118 -92 -196t-240 -78q-68 0 -145 18
l-11 21l41 112q47 -10 78 -10q61 0 94 43t33 111l-18 260q0 174 170 225l2 12q-123 45 -123 175z" />
    <glyph glyph-name="asciitilde" unicode="~" horiz-adv-x="999" 
d="M715 598q57 0 145 86l29 31h20l62 -78l-2 -21l-207 -208l-39 -9q-51 0 -218 40t-200 40q-59 0 -145 -86l-29 -28h-22l-62 75l2 23l209 207l39 8q51 0 218 -40t200 -40z" />
    <glyph glyph-name="nbspace" unicode="&#xa0;" horiz-adv-x="339" 
 />
    <glyph glyph-name="exclamdown" unicode="&#xa1;" horiz-adv-x="561" 
d="M381 465l-66 -881l-28 -35l-279 -45l-28 37l237 928l135 23zM510 825q0 -72 -52 -125t-125 -53q-143 0 -143 144q1 71 53 125t125 55q142 0 142 -146z" />
    <glyph glyph-name="cent" unicode="&#xa2;" horiz-adv-x="753" 
d="M494 788q-78 0 -139 -117q-60 -118 -60 -249q0 -246 121 -246q53 0 104 45t86 121l35 -4l68 -84q-43 -96 -127 -170t-174 -98l-68 -295l-143 -17l-11 15l68 297q-96 27 -151 115q-54 89 -54 227q0 223 125 405t301 223l86 373l148 19l8 -19l-84 -364q82 -10 131 -41
l8 -31l-86 -197l-57 -4q-57 96 -135 96z" />
    <glyph glyph-name="sterling" unicode="&#xa3;" horiz-adv-x="1024" 
d="M938 216q0 -99 -65 -170t-145 -71q-80 1 -225 51t-235 50t-211 -74l-22 10l-25 125q195 115 215 279l11 84q2 47 -21 62t-98 20l-6 12l28 106l123 21l6 43q23 188 176 325q154 136 338 136q147 0 219 -31l9 -23l-90 -196l-39 -6q-125 78 -200 78q-75 -1 -112 -47
t-53 -148l-22 -139l297 6l6 -10l-39 -140q-131 6 -285 6l-18 -122q-25 -150 -119 -228l117 25q39 0 133 -20t141 -19q47 0 86 40t51 114l47 -5q27 -45 27 -144z" />
    <glyph glyph-name="currency" unicode="&#xa4;" horiz-adv-x="876" 
d="M464 541q71 0 129 58t58 132t-43 120q-42 46 -112 46t-128 -58t-58 -132t41 -120q42 -46 113 -46zM162 701q0 83 59 171l-131 146l10 35l158 102l113 -147q153 76 286 0l156 157l35 -8l88 -145l-160 -138q23 -51 23 -133t-58 -172l129 -137l-10 -35l-160 -106l-110 143
q-70 -41 -150 -41t-145 43l-154 -149l-35 8l-83 145q22 14 157 129q-18 49 -18 132z" />
    <glyph glyph-name="yen" unicode="&#xa5;" horiz-adv-x="1126" 
d="M301 1028q51 0 180 6t140 8l6 -20l-23 -104q-96 -7 -96 -41q0 -6 35 -140l67 -166l156 265q23 37 22 55q0 31 -71 31l-4 16l20 96l234 -6l174 6l8 -12l-27 -113q-70 -23 -106 -53t-80 -96l-57 -82l186 4l12 -18l-24 -117h-267l-61 -92q-12 -16 -25 -56q160 2 328 9
l12 -21l-24 -117h-357q-10 -31 -10 -90t72 -59l82 4l4 -12l-29 -119q-201 6 -286 6l-279 -18l27 122q94 12 124 43t44 123l-336 -2l-15 17l31 114h320q-15 56 -52 148l-247 -2l-15 14l31 115h170q-82 199 -203 235q4 16 8 49l21 76q129 -6 180 -6z" />
    <glyph glyph-name="brokenbar" unicode="&#xa6;" horiz-adv-x="653" 
d="M100 -528l107 852l180 30l19 -20l-105 -862l-180 -23zM459 768l-183 -25l-16 15l111 872l176 23l31 -23q-72 -504 -119 -862z" />
    <glyph glyph-name="section" unicode="&#xa7;" horiz-adv-x="983" 
d="M297 712q-1 -116 147 -219q148 -104 211 -178q53 57 54 125q-1 68 -59 130t-154 135t-140 126q-59 -53 -59 -119zM305 -205q-104 0 -179 44q-75 43 -75 99t25 124t59 108l41 -2q4 -90 55 -148t113 -59q62 0 97 32q34 32 34 81t-41 95t-100 87t-119 87q-59 46 -100 113
t-41 144q0 184 229 322q-16 43 -16 84q0 135 116 234q117 99 275 99q92 1 163 -29t71 -69t-34 -117q-32 -78 -55 -98h-39q-14 61 -56 100t-86 39q-44 1 -73 -29t-29 -75t42 -92q41 -47 100 -90q60 -43 118 -91t99 -114t41 -149t-61 -168t-162 -146q12 -35 12 -59
q0 -152 -132 -254t-292 -103z" />
    <glyph glyph-name="dieresis" unicode="&#xa8;" 
d="M299 1153q-115 0 -115 107q0 66 44 110t104 45q113 0 112 -106q0 -68 -43 -112t-102 -44zM655 1153q-117 0 -116 107q0 66 44 110t103 45q115 0 115 -106q0 -68 -43 -112t-103 -44z" />
    <glyph glyph-name="copyright" unicode="&#xa9;" horiz-adv-x="1374" 
d="M690 264q-134 0 -211 74q-76 74 -76 205q1 190 107 299t293 108q80 0 219 -24l6 -17q-31 -88 -53 -200l-119 -9q10 53 10 72q0 68 -100 68q-174 0 -174 -275q0 -195 127 -194q53 1 86 31t53 106l117 8q-29 -111 -41 -199l-12 -14q-98 -39 -232 -39zM201 545
q0 -199 125 -334t313 -135q225 0 397 172t172 407q0 199 -126 334t-314 135q-225 0 -396 -172t-171 -407zM96 535q0 279 206 485t478 205q227 0 379 -162t152 -397q0 -279 -207 -485t-477 -206q-227 0 -379 162t-152 398z" />
    <glyph glyph-name="ordfeminine" unicode="&#xaa;" horiz-adv-x="729" 
d="M268 856q26 0 80 94q55 94 96 211q-57 37 -112 37q-33 0 -62 -76q-28 -76 -28 -171t26 -95zM453 678q-63 0 -64 59q0 31 41 195l-12 2q-106 -188 -201 -256q-84 0 -131 54t-47 149q0 160 106 298t228 138l110 -23l9 29l20 10l139 -16l11 -27q-59 -229 -89 -424l5 -4
q10 0 81 62l27 -2l25 -56q-103 -112 -157 -150t-101 -38z" />
    <glyph glyph-name="guillemotleft" unicode="&#xab;" horiz-adv-x="892" 
d="M317 469l138 -295l-13 -33l-90 -51q-51 76 -280 350l4 43q293 276 366 359l80 -51l4 -33zM686 469l137 -295l-12 -33l-90 -51q-33 49 -281 350l4 43q293 276 367 359l80 -51l4 -33z" />
    <glyph glyph-name="logicalnot" unicode="&#xac;" horiz-adv-x="999" 
d="M920 670l10 -27q-39 -143 -58 -293l-32 -278l-191 -29l-18 14q27 209 51 398h-186l-449 -2l-14 20l53 186q285 -2 461 -2z" />
    <glyph glyph-name="registered" unicode="&#xae;" horiz-adv-x="923" 
d="M604 1149q0 55 -78 55q-10 0 -12 -16l-20 -119l51 -4q59 18 59 84zM555 1268q158 0 158 -101q0 -90 -99 -139l37 -78q27 -57 62 -61l6 -6q-3 -29 -15 -36t-56 -8t-60 11t-29 49l-33 105h-41q-12 -60 -12 -78t9 -24t34 -5q2 -2 2 -6l-10 -45q-51 4 -78 4h-22l-91 -6l11 49
q27 4 38 18t15 50l27 219q4 37 -15 37h-22l-4 6l10 43l86 -2h20q45 4 72 4zM502 698q135 0 248 113t112 252q0 139 -82 227t-217 88t-248 -112q-113 -113 -113 -252q0 -140 83 -228q82 -88 217 -88zM127 1010q0 172 137 309t304 137t269 -108q101 -109 101 -281t-137 -309
q-137 -138 -305 -138t-268 109q-101 109 -101 281z" />
    <glyph glyph-name="macron" unicode="&#xaf;" 
d="M795 1376l12 -28l-45 -156l-553 -4l-19 22l48 156q188 -2 305 -2z" />
    <glyph glyph-name="degree" unicode="&#xb0;" horiz-adv-x="595" 
d="M231 1062q0 -62 36 -100q37 -38 97 -38t105 48t45 110t-37 100t-97 38t-104 -48q-45 -48 -45 -110zM396 1339q108 1 172 -69t65 -180q0 -110 -88 -198q-87 -88 -195 -88t-173 70t-64 181q0 111 88 197q87 86 195 87z" />
    <glyph glyph-name="plusminus" unicode="&#xb1;" horiz-adv-x="999" 
d="M467 -18q408 0 407 8l13 -31l-41 -158l-862 -4l-13 29l39 156h457zM944 461l-350 -2l-39 -334l-186 -29l-21 15q25 182 45 348l-346 -2l-12 22l51 187q174 -2 334 -2l45 356l186 22l25 -14q-37 -207 -58 -364l361 12l10 -27z" />
    <glyph glyph-name="two.sups" unicode="&#xb2;" horiz-adv-x="700" 
d="M381 1247q0 66 -83 66t-171 -111h-23l-12 129q61 72 141 116t166 44q85 0 147 -47t62 -129q0 -83 -68 -185t-249 -278l6 -12h106q55 0 82 26t47 95l127 10q-49 -158 -69 -271l-23 -18q-311 12 -440 12l-113 -10l-2 98l185 179q184 194 184 286z" />
    <glyph glyph-name="three.sups" unicode="&#xb3;" horiz-adv-x="618" 
d="M346 1286q0 57 -64 57t-145 -57h-18l-21 113q53 33 131 63t151 29q73 0 125 -39q52 -40 52 -104t-46 -117t-122 -80l-2 -14q164 -53 164 -166t-137 -203t-295 -90q-61 0 -80 32t-19 70v54l27 24q51 -22 120 -22t116 32t47 80q0 82 -160 82l-14 17v98l88 18
q102 45 102 123z" />
    <glyph glyph-name="acute" unicode="&#xb4;" 
d="M729 1364l-2 -29q-197 -123 -387 -264l-31 8l-61 80q174 170 344 350l26 -2z" />
    <glyph glyph-name="mu" unicode="&#xb5;" horiz-adv-x="1054" 
d="M903 188q43 0 94 35l27 -43q-43 -61 -117 -128t-119 -77q-90 0 -138 39t-46 115l-16 8q-145 -145 -219 -160q-59 0 -99 35l-10 -6q-43 -311 -43 -403v-39l-16 -19l-228 -41l-18 27q59 289 108 619l80 520q10 76 11 127q0 51 -2 90l18 35l276 49l15 -35q-33 -59 -80 -310
t-47 -304q0 -129 106 -129q43 -1 82 23t82 52q58 482 58 526t-5 91l21 35l287 47l16 -35q-27 -45 -82 -327q-55 -281 -55 -349t59 -68z" />
    <glyph glyph-name="mu" unicode="&#x3bc;" horiz-adv-x="1054" 
d="M903 188q43 0 94 35l27 -43q-43 -61 -117 -128t-119 -77q-90 0 -138 39t-46 115l-16 8q-145 -145 -219 -160q-59 0 -99 35l-10 -6q-43 -311 -43 -403v-39l-16 -19l-228 -41l-18 27q59 289 108 619l80 520q10 76 11 127q0 51 -2 90l18 35l276 49l15 -35q-33 -59 -80 -310
t-47 -304q0 -129 106 -129q43 -1 82 23t82 52q58 482 58 526t-5 91l21 35l287 47l16 -35q-27 -45 -82 -327q-55 -281 -55 -349t59 -68z" />
    <glyph glyph-name="paragraph" unicode="&#xb6;" horiz-adv-x="1122" 
d="M360 -205q-104 0 -179 51t-75 131q0 49 34 119t79 119h33q-2 -20 -2 -39q0 -96 40 -161t132 -65t137 66t64 232l112 903q2 19 -6 25t-45 6q-94 0 -145 -109t-51 -286t83 -318l-6 -49q-213 8 -343 117t-130 307t146 339q146 140 362 140l289 -8l287 6l-27 -127l-6 -8
q-73 -6 -97 -24t-34 -70q-37 -137 -117 -742q-31 -248 -172 -402t-363 -153z" />
    <glyph glyph-name="periodcentered" unicode="&#xb7;" horiz-adv-x="471" 
d="M255 653q142 0 142 -144q0 -73 -52 -126t-126 -53q-139 0 -139 133q0 82 51 136t124 54z" />
    <glyph glyph-name="cedilla" unicode="&#xb8;" horiz-adv-x="792" 
d="M510 -278q0 -84 -92 -146q-92 -63 -203 -63q-53 1 -100 25t-47 60t94 136h16v-34q0 -26 22 -54t62 -27t66 19q25 18 24 47q0 49 -153 139l92 235h106l-59 -149q172 -104 172 -188z" />
    <glyph glyph-name="one.sups" unicode="&#xb9;" horiz-adv-x="526" 
d="M348 848q0 -52 45 -53l62 2l4 -6l-31 -101q-125 4 -195 4l-227 -14l23 96q119 8 129 96l49 404q6 47 -5 61t-48 15l-66 -4l-8 8l18 88q35 4 375 47l12 -47q-45 -37 -65 -101q-16 -65 -44 -254t-28 -241z" />
    <glyph glyph-name="ordmasculine" unicode="&#xba;" horiz-adv-x="665" 
d="M266 678q-102 0 -160 65q-57 66 -57 185q0 176 98 290t250 113q105 0 161 -61t56 -176q0 -182 -97 -299t-251 -117zM317 801q96 0 97 241q0 154 -70 154q-43 0 -70 -66t-26 -169q-1 -160 69 -160z" />
    <glyph glyph-name="guillemotright" unicode="&#xbb;" horiz-adv-x="892" 
d="M174 90l-80 51l-2 33q10 16 102 140t103 149q-4 11 -33 73t-62 135q-34 73 -40 85l12 32l90 54q49 -74 283 -353l-6 -40q-291 -277 -367 -359zM543 90l-80 51l-2 33q10 16 102 140t103 149q-4 11 -33 73t-63 135t-40 85l13 32l90 54q49 -74 282 -353l-6 -40
q-290 -277 -366 -359z" />
    <glyph glyph-name="onequarter" unicode="&#xbc;" horiz-adv-x="1560" 
d="M1206 541l-162 -213h152l25 213h-15zM872 197l17 108l395 488l10 4l146 -17l-54 -452h99l10 -17l-29 -127l-96 2l-14 -172l-13 -14l-186 -14l-12 12q20 102 33 195zM348 696q0 -63 45 -63l62 4l4 -8l-31 -101q-125 6 -195 7l-227 -15l23 94q118 8 129 97l49 403
q6 48 -5 62t-48 14l-66 -4l-8 10l18 86q35 4 375 47l12 -47q-43 -33 -65 -100q-16 -63 -44 -254t-28 -232zM1225 1337l14 -39q-360 -547 -545 -833l-413 -655l-134 55l-10 29q248 369 424 647l537 848z" />
    <glyph glyph-name="onehalf" unicode="&#xbd;" horiz-adv-x="1622" 
d="M1282 551q0 65 -82 65t-172 -108h-22l-13 127q61 74 141 118t166 44t148 -48q62 -49 61 -131t-69 -182t-248 -280l6 -11h107q55 0 81 26t48 95l127 10q-49 -158 -70 -270l-23 -18q-311 12 -440 12l-113 -12l-2 98l185 178q184 195 184 287zM348 696q0 -63 45 -63l62 4
l4 -8l-31 -101q-125 6 -195 7l-227 -15l23 94q118 8 129 97l49 403q6 48 -5 62t-48 14l-66 -4l-8 10l18 86q35 4 375 47l12 -47q-43 -33 -65 -100q-16 -63 -44 -254t-28 -232zM1225 1337l14 -39q-360 -547 -545 -833l-413 -655l-134 55l-10 29q248 369 424 647l537 848z" />
    <glyph glyph-name="threequarters" unicode="&#xbe;" horiz-adv-x="1560" 
d="M346 1124q0 56 -62 57t-147 -55h-18l-21 111q53 33 131 63t151 29q73 0 125 -39t52 -102q0 -62 -46 -116t-122 -83l-2 -14q164 -53 164 -166t-137 -202t-295 -89q-61 0 -80 31t-19 69v54l27 24q51 -22 119 -22t116 32t48 82q0 80 -160 80l-14 17v98l88 18q102 45 102 123
zM1206 541l-162 -213h152l25 213h-15zM872 197l17 108l395 488l10 4l146 -17l-54 -452h99l10 -17l-29 -127l-96 2l-14 -172l-13 -14l-186 -14l-12 12q20 102 33 195zM1225 1337l14 -39q-360 -547 -545 -833l-413 -655l-134 55l-10 29q248 369 424 647l537 848z" />
    <glyph glyph-name="questiondown" unicode="&#xbf;" horiz-adv-x="733" 
d="M627 825q-1 -72 -53 -125t-124 -53q-143 0 -143 144q0 71 52 125t125 55q143 0 143 -146zM195 -86q0 -174 335 -195l13 -28l-94 -172l-33 -15q-207 6 -341 100t-134 229q0 136 89 221t261 194q12 10 26 16l7 15l-7 170l15 22l184 37l23 -12l16 -258l-10 -29l-228 -129
q-122 -70 -122 -166z" />
    <glyph glyph-name="Agrave" unicode="&#xc0;" horiz-adv-x="1243" 
d="M469 1561l-10 26l51 158l27 10q236 -117 456 -213l-26 -96l-29 -19q-250 79 -469 134zM598 584q55 0 145 8l-57 457h-29l-196 -465h137zM908 0q-118 0 -306 -16l-8 16l24 121q98 8 131 24q31 15 31 51t-22 228q-53 4 -164 4t-205 -14l-65 -158q-20 -49 -21 -76
q0 -53 80 -53h86l6 -12l-29 -127q-162 12 -286 12l-240 -6l31 135q88 14 145 137l471 1037l322 34l22 -10q94 -707 158 -1059q12 -74 41 -104t94 -37l8 -14l-28 -119q-158 6 -276 6z" />
    <glyph glyph-name="Aacute" unicode="&#xc1;" horiz-adv-x="1243" 
d="M1085 1587l-10 -26q-236 -59 -469 -134l-26 19l-29 96l457 213l26 -10zM598 584q55 0 145 8l-57 457h-29l-196 -465h137zM908 0q-118 0 -306 -16l-8 16l24 121q98 8 131 24q31 15 31 51t-22 228q-53 4 -164 4t-205 -14l-65 -158q-20 -49 -21 -76q0 -53 80 -53h86l6 -12
l-29 -127q-162 12 -286 12l-240 -6l31 135q88 14 145 137l471 1037l322 34l22 -10q94 -707 158 -1059q12 -74 41 -104t94 -37l8 -14l-28 -119q-158 6 -276 6z" />
    <glyph glyph-name="Acircumflex" unicode="&#xc2;" horiz-adv-x="1243" 
d="M819 1794q-1 2 117 -106t164 -148l-60 -84l-34 -8l-236 119l-266 -119l-31 8l-39 84l344 254h41zM598 584q55 0 145 8l-57 457h-29l-196 -465h137zM908 0q-118 0 -306 -16l-8 16l24 121q98 8 131 24q31 15 31 51t-22 228q-53 4 -164 4t-205 -14l-65 -158q-20 -49 -21 -76
q0 -53 80 -53h86l6 -12l-29 -127q-162 12 -286 12l-240 -6l31 135q88 14 145 137l471 1037l322 34l22 -10q94 -707 158 -1059q12 -74 41 -104t94 -37l8 -14l-28 -119q-158 6 -276 6z" />
    <glyph glyph-name="Atilde" unicode="&#xc3;" horiz-adv-x="1243" 
d="M906 1640q46 0 145 107h22l72 -76l-2 -20l-180 -199l-35 -8q-33 0 -147 35t-138 34q-45 0 -119 -79l-24 -27h-23l-71 76l2 22l180 197l33 8q34 0 148 -35t137 -35zM598 584q55 0 145 8l-57 457h-29l-196 -465h137zM908 0q-118 0 -306 -16l-8 16l24 121q98 8 131 24
q31 15 31 51t-22 228q-53 4 -164 4t-205 -14l-65 -158q-20 -49 -21 -76q0 -53 80 -53h86l6 -12l-29 -127q-162 12 -286 12l-240 -6l31 135q88 14 145 137l471 1037l322 34l22 -10q94 -707 158 -1059q12 -74 41 -104t94 -37l8 -14l-28 -119q-158 6 -276 6z" />
    <glyph glyph-name="Adieresis" unicode="&#xc4;" horiz-adv-x="1243" 
d="M571 1456q-106 0 -106 107q0 67 43 111t102 44q115 0 115 -106q0 -68 -43 -112t-111 -44zM966 1718q115 0 113 -115q0 -59 -43 -103t-102 -44q-115 0 -115 107q0 67 44 111t103 44zM598 584q55 0 145 8l-57 457h-29l-196 -465h137zM908 0q-118 0 -306 -16l-8 16l24 121
q98 8 131 24q31 15 31 51t-22 228q-53 4 -164 4t-205 -14l-65 -158q-20 -49 -21 -76q0 -53 80 -53h86l6 -12l-29 -127q-162 12 -286 12l-240 -6l31 135q88 14 145 137l471 1037l322 34l22 -10q94 -707 158 -1059q12 -74 41 -104t94 -37l8 -14l-28 -119q-158 6 -276 6z" />
    <glyph glyph-name="Aring" unicode="&#xc5;" horiz-adv-x="1243" 
d="M586 1560q0 83 62 146t150 63q165 0 165 -165q-1 -78 -62 -147t-148 -68q-167 0 -167 171zM768 1497q90 0 90 86q0 74 -82 74q-42 0 -64 -24q-22 -25 -22 -61t24 -56t54 -19zM598 584q55 0 145 8l-57 457h-29l-196 -465h137zM908 0q-118 0 -306 -16l-8 16l24 121
q98 8 131 24q31 15 31 51t-22 228q-53 4 -164 4t-205 -14l-65 -158q-20 -49 -21 -76q0 -53 80 -53h86l6 -12l-29 -127q-162 12 -286 12l-240 -6l31 135q88 14 145 137l471 1037l322 34l22 -10q94 -707 158 -1059q12 -74 41 -104t94 -37l8 -14l-28 -119q-158 6 -276 6z" />
    <glyph glyph-name="AE" unicode="&#xc6;" horiz-adv-x="1728" 
d="M526 649l123 8l125 17l2 370h-31zM770 322v188l-174 -21l-170 -32l-109 -201q-54 -102 -9 -119q22 -8 81 -8l62 -10l-29 -131q-2 2 -60 4t-140 5q-81 3 -132 3l-147 -6l6 121q23 4 61 46t76 105l508 873q-6 45 -45 45l-62 -4l-12 18l33 123q0 -6 482 -6t644 24l15 -22
q-57 -180 -93 -371l-186 -14q16 72 16 124t-46 70t-151 18t-127 -11q-22 -12 -22 -46l9 -372l192 24l195 39l18 -22l-45 -170l-182 -13l-176 -22l8 -254q2 -73 30 -105t91 -32q162 0 214 40t93 193l174 15l14 -19q-59 -184 -102 -381l-23 -22q4 4 -260 9t-403 5t-312 -16
l-8 16l23 123q174 14 176 129q4 41 4 70z" />
    <glyph glyph-name="Ccedilla" unicode="&#xc7;" horiz-adv-x="1216" 
d="M66 524q0 371 205 592q206 221 552 221q145 0 404 -49l8 -26q-61 -170 -100 -385l-199 -13q18 96 18 135q0 145 -202 146q-174 0 -270 -151t-97 -431q0 -195 69 -297q70 -102 188 -102t184 66t110 216l199 15q-59 -211 -86 -379l-21 -25q-158 -72 -379 -80l-26 -67
q172 -104 172 -188q-1 -84 -93 -146q-92 -63 -202 -63q-53 0 -101 24q-47 25 -47 61t94 136h17v-34q-1 -26 21 -54t63 -27t65 19t25 47q0 49 -154 139l60 153q-223 15 -350 161t-127 386z" />
    <glyph glyph-name="Egrave" unicode="&#xc8;" horiz-adv-x="1181" 
d="M455 1561l-11 26l52 158l26 10q236 -117 457 -213l-27 -96l-28 -19q-250 79 -469 134zM684 586q-72 0 -176 -13q-47 -321 -47 -355q1 -34 23 -47t94 -13q182 0 238 39t97 194l170 15l13 -21q-59 -182 -103 -379l-22 -20q-367 14 -568 14t-393 -20l33 137q84 12 118 49
t44 125q102 813 102 837t-7 39q-7 16 -46 17l-61 -4l-11 18l31 121q217 -6 502 -6t469 24l12 -20q-57 -180 -90 -371l-184 -12q16 72 16 125t-45 70t-153 17t-125 -9q-17 -10 -25 -58l-53 -323l184 -2l231 16l13 -16l-50 -174q-159 6 -231 6z" />
    <glyph glyph-name="Eacute" unicode="&#xc9;" horiz-adv-x="1181" 
d="M1024 1587l-10 -26q-236 -59 -469 -134l-27 19l-29 96l457 213l27 -10zM684 586q-72 0 -176 -13q-47 -321 -47 -355q1 -34 23 -47t94 -13q182 0 238 39t97 194l170 15l13 -21q-59 -182 -103 -379l-22 -20q-367 14 -568 14t-393 -20l33 137q84 12 118 49t44 125
q102 813 102 837t-7 39q-7 16 -46 17l-61 -4l-11 18l31 121q217 -6 502 -6t469 24l12 -20q-57 -180 -90 -371l-184 -12q16 72 16 125t-45 70t-153 17t-125 -9q-17 -10 -25 -58l-53 -323l184 -2l231 16l13 -16l-50 -174q-159 6 -231 6z" />
    <glyph glyph-name="Ecircumflex" unicode="&#xca;" horiz-adv-x="1181" 
d="M821 1794q-1 2 117 -106t164 -148l-60 -84l-34 -8l-236 119l-266 -119l-31 8l-39 84l344 254h41zM684 586q-72 0 -176 -13q-47 -321 -47 -355q1 -34 23 -47t94 -13q182 0 238 39t97 194l170 15l13 -21q-59 -182 -103 -379l-22 -20q-367 14 -568 14t-393 -20l33 137
q84 12 118 49t44 125q102 813 102 837t-7 39q-7 16 -46 17l-61 -4l-11 18l31 121q217 -6 502 -6t469 24l12 -20q-57 -180 -90 -371l-184 -12q16 72 16 125t-45 70t-153 17t-125 -9q-17 -10 -25 -58l-53 -323l184 -2l231 16l13 -16l-50 -174q-159 6 -231 6z" />
    <glyph glyph-name="Edieresis" unicode="&#xcb;" horiz-adv-x="1181" 
d="M571 1456q-106 0 -106 107q0 67 43 111t102 44q115 0 115 -106q0 -68 -43 -112t-111 -44zM966 1718q115 0 113 -115q0 -59 -43 -103t-102 -44q-115 0 -115 107q0 67 44 111t103 44zM684 586q-72 0 -176 -13q-47 -321 -47 -355q1 -34 23 -47t94 -13q182 0 238 39t97 194
l170 15l13 -21q-59 -182 -103 -379l-22 -20q-367 14 -568 14t-393 -20l33 137q84 12 118 49t44 125q102 813 102 837t-7 39q-7 16 -46 17l-61 -4l-11 18l31 121q217 -6 502 -6t469 24l12 -20q-57 -180 -90 -371l-184 -12q16 72 16 125t-45 70t-153 17t-125 -9
q-17 -10 -25 -58l-53 -323l184 -2l231 16l13 -16l-50 -174q-159 6 -231 6z" />
    <glyph glyph-name="Igrave" unicode="&#xcc;" horiz-adv-x="722" 
d="M190 1561l-10 26l51 158l27 10q236 -117 457 -213l-27 -96l-29 -19q-250 79 -469 134zM461 213q0 -47 14 -65t49 -17l86 6l6 -14l-32 -129q-204 6 -308 6t-266 -18l31 131q88 18 122 53t44 119q100 821 100 843t-9 38q-9 17 -52 18l-68 -2l-8 16l29 119l276 -4l285 16
l-29 -135q-75 -10 -103 -32t-38 -79q-129 -748 -129 -870z" />
    <glyph glyph-name="Iacute" unicode="&#xcd;" horiz-adv-x="722" 
d="M807 1587l-10 -26q-236 -59 -469 -134l-27 19l-29 96l457 213l27 -10zM461 213q0 -47 14 -65t49 -17l86 6l6 -14l-32 -129q-204 6 -308 6t-266 -18l31 131q88 18 122 53t44 119q100 821 100 843t-9 38q-9 17 -52 18l-68 -2l-8 16l29 119l276 -4l285 16l-29 -135
q-75 -10 -103 -32t-38 -79q-129 -748 -129 -870z" />
    <glyph glyph-name="Icircumflex" unicode="&#xce;" horiz-adv-x="722" 
d="M549 1794q-1 2 117 -106t163 -148l-59 -84l-35 -8l-235 119l-267 -119l-30 8l-39 84l344 254h41zM461 213q0 -47 14 -65t49 -17l86 6l6 -14l-32 -129q-204 6 -308 6t-266 -18l31 131q88 18 122 53t44 119q100 821 100 843t-9 38q-9 17 -52 18l-68 -2l-8 16l29 119l276 -4
l285 16l-29 -135q-75 -10 -103 -32t-38 -79q-129 -748 -129 -870z" />
    <glyph glyph-name="Idieresis" unicode="&#xcf;" horiz-adv-x="722" 
d="M301 1456q-106 0 -106 107q0 67 43 111t102 44q115 0 115 -106q0 -68 -43 -112t-111 -44zM695 1718q114 0 114 -115q0 -59 -43 -103t-102 -44q-115 0 -115 107q0 67 44 111t102 44zM461 213q0 -47 14 -65t49 -17l86 6l6 -14l-32 -129q-204 6 -308 6t-266 -18l31 131
q88 18 122 53t44 119q100 821 100 843t-9 38q-9 17 -52 18l-68 -2l-8 16l29 119l276 -4l285 16l-29 -135q-75 -10 -103 -32t-38 -79q-129 -748 -129 -870z" />
    <glyph glyph-name="Eth" unicode="&#xd0;" horiz-adv-x="1396" 
d="M686 1151q-33 0 -45 -10t-16 -36t-62 -382l240 4l12 -18l-29 -123h-245q-45 -287 -45 -340t32 -76t115 -23q195 0 307 167t113 456q0 381 -377 381zM312 0q-103 0 -267 -20l31 137q84 14 118 50t46 122l36 297h-229l-14 14l35 123h225q47 377 47 401t-8 40q-8 17 -43 18
l-68 -4l-8 18l31 123q174 -6 252 -6l297 10q270 0 429 -140t158 -388q0 -352 -219 -586t-551 -234q-195 25 -298 25z" />
    <glyph glyph-name="Ntilde" unicode="&#xd1;" horiz-adv-x="1441" 
d="M1009 1640q45 0 144 107h23l71 -76l-2 -20l-180 -199l-35 -8q-36 0 -148 35t-137 34q-45 0 -118 -79l-25 -27h-22l-72 76l2 22l180 197l33 8q34 0 148 -35t138 -35zM408 184q0 -20 10 -38t49 -17l84 4l10 -12l-35 -129q-170 8 -260 8t-241 -16l32 135q117 14 133 129
q127 825 127 855q1 31 -25 53t-122 32l-12 20l26 115q131 -10 232 -10l190 8q172 -371 420 -850h21q72 633 71 645q0 68 -53 68l-68 -2l-6 16l29 123q168 -8 256 -8l235 12l-26 -135q-66 -10 -99 -39t-40 -90l-160 -1092l-217 -26q-205 442 -459 923h-18q-84 -662 -84 -682z
" />
    <glyph glyph-name="Ograve" unicode="&#xd2;" horiz-adv-x="1329" 
d="M504 1561l-10 26l51 158l26 10q236 -117 457 -213l-27 -96l-28 -19q-250 79 -469 134zM584 -25q-236 -1 -377 147t-141 400q0 365 198 590q199 225 524 225q242 0 383 -143t142 -395q-1 -365 -203 -595t-526 -229zM637 150q164 0 260 160t96 450q0 180 -70 282
q-71 102 -194 103q-162 0 -256 -162t-94 -448q0 -180 68 -283q69 -102 190 -102z" />
    <glyph glyph-name="Oacute" unicode="&#xd3;" horiz-adv-x="1329" 
d="M1081 1587l-10 -26q-236 -59 -469 -134l-27 19l-28 96l457 213l26 -10zM584 -25q-236 -1 -377 147t-141 400q0 365 198 590q199 225 524 225q242 0 383 -143t142 -395q-1 -365 -203 -595t-526 -229zM637 150q164 0 260 160t96 450q0 180 -70 282q-71 102 -194 103
q-162 0 -256 -162t-94 -448q0 -180 68 -283q69 -102 190 -102z" />
    <glyph glyph-name="Ocircumflex" unicode="&#xd4;" horiz-adv-x="1329" 
d="M842 1794q0 2 118 -106t162 -148l-59 -84l-35 -8l-235 119l-267 -119l-30 8l-39 84l344 254h41zM584 -25q-236 -1 -377 147t-141 400q0 365 198 590q199 225 524 225q242 0 383 -143t142 -395q-1 -365 -203 -595t-526 -229zM637 150q164 0 260 160t96 450q0 180 -70 282
q-71 102 -194 103q-162 0 -256 -162t-94 -448q0 -180 68 -283q69 -102 190 -102z" />
    <glyph glyph-name="Otilde" unicode="&#xd5;" horiz-adv-x="1329" 
d="M939 1640q45 0 144 107h23l72 -76l-2 -20l-181 -199l-34 -8q-33 0 -147 35t-138 34q-45 0 -119 -79l-25 -27h-22l-72 76l2 22l181 197l32 8q35 0 149 -35t137 -35zM584 -25q-236 -1 -377 147t-141 400q0 365 198 590q199 225 524 225q242 0 383 -143t142 -395
q-1 -365 -203 -595t-526 -229zM637 150q164 0 260 160t96 450q0 180 -70 282q-71 102 -194 103q-162 0 -256 -162t-94 -448q0 -180 68 -283q69 -102 190 -102z" />
    <glyph glyph-name="Odieresis" unicode="&#xd6;" horiz-adv-x="1329" 
d="M594 1456q-106 0 -107 107q0 67 43 111t103 44q115 0 115 -106q0 -68 -43 -112t-111 -44zM988 1718q114 0 114 -115q0 -59 -43 -103t-103 -44q-115 0 -114 107q0 67 44 111t102 44zM584 -25q-236 -1 -377 147t-141 400q0 365 198 590q199 225 524 225q242 0 383 -143
t142 -395q-1 -365 -203 -595t-526 -229zM637 150q164 0 260 160t96 450q0 180 -70 282q-71 102 -194 103q-162 0 -256 -162t-94 -448q0 -180 68 -283q69 -102 190 -102z" />
    <glyph glyph-name="multiply" unicode="&#xd7;" horiz-adv-x="999" 
d="M803 926l24 -11l99 -143l-281 -262l225 -250l-14 -27l-160 -118l-213 252l-272 -256l-25 6l-88 147q137 127 262 242l-223 264l8 29l166 108q113 -139 211 -256z" />
    <glyph glyph-name="Oslash" unicode="&#xd8;" horiz-adv-x="1329" 
d="M379 535q0 -115 29 -205l450 776q-59 39 -129 39q-162 1 -256 -161t-94 -449zM637 150q164 0 260 160t96 450q0 123 -35 215l-456 -782q55 -43 135 -43zM66 522q0 365 198 590q199 225 524 225q100 0 191 -28l111 184l124 -59l7 -27l-103 -168q195 -143 195 -440
q0 -365 -203 -594t-526 -230q-104 0 -195 31l-137 -225l-123 59l-6 21l133 217q-190 145 -190 444z" />
    <glyph glyph-name="Ugrave" unicode="&#xd9;" horiz-adv-x="1288" 
d="M500 1561l-11 26l52 158l26 10q236 -117 457 -213l-27 -96l-28 -19q-250 79 -469 134zM432 395q0 -237 207 -237q238 0 270 270q76 666 76 694t-7 44q-7 17 -44 18l-66 -4l-4 8l33 131q156 -6 229 -6l240 14l-29 -135q-77 -14 -99 -32t-28 -70l-80 -641
q-29 -231 -171 -353t-386 -121q-420 0 -419 363q0 34 46 400t46 390t-8 39q-8 16 -50 17l-61 -4l-4 8l35 131q168 -6 282 -6l238 14l-31 -137q-63 -8 -89 -32t-34 -77l-88 -596q-4 -59 -4 -90z" />
    <glyph glyph-name="Uacute" unicode="&#xda;" horiz-adv-x="1288" 
d="M1114 1587l-10 -26q-236 -59 -469 -134l-27 19l-28 96l456 213l27 -10zM432 395q0 -237 207 -237q238 0 270 270q76 666 76 694t-7 44q-7 17 -44 18l-66 -4l-4 8l33 131q156 -6 229 -6l240 14l-29 -135q-77 -14 -99 -32t-28 -70l-80 -641q-29 -231 -171 -353t-386 -121
q-420 0 -419 363q0 34 46 400t46 390t-8 39q-8 16 -50 17l-61 -4l-4 8l35 131q168 -6 282 -6l238 14l-31 -137q-63 -8 -89 -32t-34 -77l-88 -596q-4 -59 -4 -90z" />
    <glyph glyph-name="Ucircumflex" unicode="&#xdb;" horiz-adv-x="1288" 
d="M866 1794q0 2 118 -106t163 -148l-60 -84l-34 -8l-236 119l-266 -119l-31 8l-39 84l344 254h41zM432 395q0 -237 207 -237q238 0 270 270q76 666 76 694t-7 44q-7 17 -44 18l-66 -4l-4 8l33 131q156 -6 229 -6l240 14l-29 -135q-77 -14 -99 -32t-28 -70l-80 -641
q-29 -231 -171 -353t-386 -121q-420 0 -419 363q0 34 46 400t46 390t-8 39q-8 16 -50 17l-61 -4l-4 8l35 131q168 -6 282 -6l238 14l-31 -137q-63 -8 -89 -32t-34 -77l-88 -596q-4 -59 -4 -90z" />
    <glyph glyph-name="Udieresis" unicode="&#xdc;" horiz-adv-x="1288" 
d="M616 1456q-106 0 -106 107q0 67 43 111t102 44q115 0 115 -106q0 -68 -43 -112t-111 -44zM1011 1718q115 0 113 -115q0 -59 -43 -103t-102 -44q-115 0 -115 107q0 67 44 111t103 44zM432 395q0 -237 207 -237q238 0 270 270q76 666 76 694t-7 44q-7 17 -44 18l-66 -4
l-4 8l33 131q156 -6 229 -6l240 14l-29 -135q-77 -14 -99 -32t-28 -70l-80 -641q-29 -231 -171 -353t-386 -121q-420 0 -419 363q0 34 46 400t46 390t-8 39q-8 16 -50 17l-61 -4l-4 8l35 131q168 -6 282 -6l238 14l-31 -137q-63 -8 -89 -32t-34 -77l-88 -596q-4 -59 -4 -90z
" />
    <glyph glyph-name="Yacute" unicode="&#xdd;" horiz-adv-x="1191" 
d="M1079 1587l-10 -26q-236 -59 -469 -134l-27 19l-28 96l456 213l27 -10zM531 0q-90 0 -324 -23l31 138q116 16 154 53q54 54 59 278q0 53 -33 138l-146 389q-37 102 -74 145q-38 43 -122 62l-6 10l32 129q176 -6 254 -6l320 16l8 -18l-27 -117q-71 -4 -97 -18t-26 -62
t115 -409h17l198 344q39 67 39 103t-94 42l-4 10l31 117l262 -8l205 8l6 -14l-31 -123q-82 -27 -136 -81t-134 -181q-243 -380 -252 -399q-10 -19 -14 -33t-8 -23q-3 -7 -6 -25t-5 -27t-5 -32t-5 -45t-12 -85q-10 -62 6 -91t71 -29l99 6l6 -10l-35 -137q-227 8 -317 8z" />
    <glyph glyph-name="Thorn" unicode="&#xde;" horiz-adv-x="1136" 
d="M852 700q0 94 -60 138t-188 45q-43 0 -49 -29l-57 -379q98 -29 159 -29q195 33 195 254zM735 1049q412 0 412 -312q0 -188 -156 -315t-377 -127h-139q-12 -86 -12 -109t10 -38t55 -15l95 6l8 -14l-33 -131q-216 6 -320 6t-270 -18l31 133q88 18 121 52t43 120
q102 815 102 837t-10 40q-10 17 -53 18l-66 -2l-10 16l31 121l278 -2l287 14l-27 -137q-79 -12 -105 -30t-34 -64l-8 -49h147z" />
    <glyph glyph-name="germandbls" unicode="&#xdf;" horiz-adv-x="1847" 
d="M1270 -18q-161 0 -305 61l-13 25q45 143 64 268l155 12q-4 -37 -4 -84q0 -125 148 -125q76 0 122 32t46 81t-43 82q-43 32 -119 70t-108 56t-78 56q-86 68 -86 176q0 156 134 254t347 98q152 0 297 -43l10 -24q-45 -129 -74 -275l-143 -10l-14 10q10 49 10 74
q0 100 -135 101q-66 0 -111 -32t-45 -75t30 -71q29 -28 67 -48t88 -45t76 -39q86 -47 133 -102q46 -55 46 -133q0 -160 -134 -255t-361 -95zM346 -18q-161 0 -305 61l-12 25q45 143 63 268l156 12q-4 -37 -4 -84q0 -125 147 -125q76 0 122 32t46 81t-43 82q-43 32 -119 70
q-75 38 -107 56t-77 56q-88 68 -88 176q0 156 134 254t345 98q154 0 299 -43l10 -24q-45 -129 -73 -275l-144 -10l-14 10q10 49 10 74q0 100 -135 101q-68 0 -113 -32t-45 -81q0 -61 121 -125l66 -33q154 -76 205 -136q50 -60 51 -138q0 -160 -134 -255t-362 -95z" />
    <glyph glyph-name="agrave" unicode="&#xe0;" horiz-adv-x="1085" 
d="M373 1270l-11 26l52 158l26 10q236 -117 457 -213l-27 -96l-28 -18q-178 55 -469 133zM522 463q55 0 111 6l-43 332h-27l-147 -338h106zM293 150q0 -37 59 -37h66l6 -13l-23 -108q-139 8 -241 8l-205 -4l27 115q70 12 112 100l375 805l311 28l19 -12q84 -569 131 -811
q8 -57 32 -82t70 -28l8 -13l-24 -102q-131 4 -209 4l-287 -12l-8 12l20 109q80 6 104 17q24 10 24 38t-15 151l-141 2q-92 0 -150 -8l-45 -108q-16 -33 -16 -51z" />
    <glyph glyph-name="aacute" unicode="&#xe1;" horiz-adv-x="1085" 
d="M948 1296l-10 -26q-236 -59 -469 -133l-27 18l-28 96l456 213l27 -10zM522 463q55 0 111 6l-43 332h-27l-147 -338h106zM293 150q0 -37 59 -37h66l6 -13l-23 -108q-139 8 -241 8l-205 -4l27 115q70 12 112 100l375 805l311 28l19 -12q84 -569 131 -811q8 -57 32 -82
t70 -28l8 -13l-24 -102q-131 4 -209 4l-287 -12l-8 12l20 109q80 6 104 17q24 10 24 38t-15 151l-141 2q-92 0 -150 -8l-45 -108q-16 -33 -16 -51z" />
    <glyph glyph-name="acircumflex" unicode="&#xe2;" horiz-adv-x="1085" 
d="M705 1503q-1 1 117 -107t163 -147l-59 -84l-35 -8l-236 119l-266 -119l-31 8l-39 84l345 254h41zM522 463q55 0 111 6l-43 332h-27l-147 -338h106zM293 150q0 -37 59 -37h66l6 -13l-23 -108q-139 8 -241 8l-205 -4l27 115q70 12 112 100l375 805l311 28l19 -12
q84 -569 131 -811q8 -57 32 -82t70 -28l8 -13l-24 -102q-131 4 -209 4l-287 -12l-8 12l20 109q80 6 104 17q24 10 24 38t-15 151l-141 2q-92 0 -150 -8l-45 -108q-16 -33 -16 -51z" />
    <glyph glyph-name="atilde" unicode="&#xe3;" horiz-adv-x="1085" 
d="M528 1223q-47 0 -120 -80l-25 -27h-23l-71 76l2 22l180 197l33 8q34 0 148 -35t138 -34q46 0 144 106h22l72 -76l-2 -20l-180 -199l-35 -8q-33 0 -145 35t-138 35zM522 463q55 0 111 6l-43 332h-27l-147 -338h106zM293 150q0 -37 59 -37h66l6 -13l-23 -108q-139 8 -241 8
l-205 -4l27 115q70 12 112 100l375 805l311 28l19 -12q84 -569 131 -811q8 -57 32 -82t70 -28l8 -13l-24 -102q-131 4 -209 4l-287 -12l-8 12l20 109q80 6 104 17q24 10 24 38t-15 151l-141 2q-92 0 -150 -8l-45 -108q-16 -33 -16 -51z" />
    <glyph glyph-name="adieresis" unicode="&#xe4;" horiz-adv-x="1085" 
d="M457 1165q-106 0 -107 107q0 68 43 112t103 43q115 0 114 -106q0 -68 -42 -112t-111 -44zM851 1427q114 0 114 -115q0 -59 -43 -103t-103 -44q-115 0 -114 107q0 68 44 112t102 43zM522 463q55 0 111 6l-43 332h-27l-147 -338h106zM293 150q0 -37 59 -37h66l6 -13
l-23 -108q-139 8 -241 8l-205 -4l27 115q70 12 112 100l375 805l311 28l19 -12q84 -569 131 -811q8 -57 32 -82t70 -28l8 -13l-24 -102q-131 4 -209 4l-287 -12l-8 12l20 109q80 6 104 17q24 10 24 38t-15 151l-141 2q-92 0 -150 -8l-45 -108q-16 -33 -16 -51z" />
    <glyph glyph-name="aring" unicode="&#xe5;" horiz-adv-x="1085" 
d="M471 1269q1 83 63 146t149 64q165 0 165 -166q-1 -78 -62 -147t-148 -68q-167 0 -167 171zM653 1206q90 0 90 86q0 74 -81 74q-41 0 -64 -24t-23 -60q1 -36 25 -56t53 -20zM522 463q55 0 111 6l-43 332h-27l-147 -338h106zM293 150q0 -37 59 -37h66l6 -13l-23 -108
q-139 8 -241 8l-205 -4l27 115q70 12 112 100l375 805l311 28l19 -12q84 -569 131 -811q8 -57 32 -82t70 -28l8 -13l-24 -102q-131 4 -209 4l-287 -12l-8 12l20 109q80 6 104 17q24 10 24 38t-15 151l-141 2q-92 0 -150 -8l-45 -108q-16 -33 -16 -51z" />
    <glyph glyph-name="ae" unicode="&#xe6;" horiz-adv-x="1495" 
d="M471 508l191 20l2 269h-31zM657 252v129l-139 -16l-137 -31l-72 -133q-25 -43 -24 -58q0 -29 86 -28l39 -11l-25 -112q-219 10 -410 4l7 108q47 10 110 109l391 659q-2 39 -37 39l-47 -2l-12 15l27 106q223 -4 534 -4t449 18l10 -18q-43 -150 -72 -299l-176 -12
q14 55 15 93q0 38 -36 52t-132 14t-97 -43l11 -264l145 21l164 35l18 -23l-39 -147l-153 -15l-133 -16l8 -172q2 -109 92 -109q123 0 163 32t72 149l162 12l13 -19q-49 -147 -84 -307l-21 -18l-244 6q-203 4 -311 4l-268 -12l-8 12l20 109q74 7 105 29t33 59q3 37 3 55z" />
    <glyph glyph-name="ccedilla" unicode="&#xe7;" horiz-adv-x="1036" 
d="M66 416q0 293 165 461q166 168 455 167q123 0 340 -40l10 -23q-51 -137 -84 -313l-188 -13q16 82 16 111q0 106 -153 106q-268 0 -269 -423q0 -297 199 -297q82 0 129 47t80 163l186 13q-45 -172 -65 -309l-19 -21q-125 -51 -299 -61l-28 -74q172 -104 172 -188t-92 -146
q-92 -63 -203 -63q-53 0 -101 24q-47 25 -47 61t95 136h16v-34q-1 -26 21 -54t63 -27t65 19t25 47q0 49 -154 139l62 160q-185 12 -291 124t-106 308z" />
    <glyph glyph-name="egrave" unicode="&#xe8;" horiz-adv-x="1013" 
d="M352 1270l-10 26l51 158l27 10q236 -117 457 -213l-27 -96l-29 -18q-178 55 -469 133zM362 0q-176 0 -344 -16l27 118q67 10 95 40t36 100q78 604 78 623t-6 33t-37 13l-47 -2l-12 17l26 104q193 -6 426 -6t397 20l13 -18q-47 -150 -74 -299l-172 -10q14 53 14 93t-36 53
t-116 13t-95 -8q-14 -8 -19 -41l-41 -231h148l186 12l12 -16l-41 -150q-128 4 -196 4t-133 -10q-35 -196 -35 -234t18 -49t114 -11t141 30q44 31 75 147l160 13l12 -19q-49 -145 -82 -305l-23 -18q-293 10 -469 10z" />
    <glyph glyph-name="eacute" unicode="&#xe9;" horiz-adv-x="1013" 
d="M895 1296l-10 -26q-236 -59 -469 -133l-27 18l-29 96l457 213l27 -10zM362 0q-176 0 -344 -16l27 118q67 10 95 40t36 100q78 604 78 623t-6 33t-37 13l-47 -2l-12 17l26 104q193 -6 426 -6t397 20l13 -18q-47 -150 -74 -299l-172 -10q14 53 14 93t-36 53t-116 13t-95 -8
q-14 -8 -19 -41l-41 -231h148l186 12l12 -16l-41 -150q-128 4 -196 4t-133 -10q-35 -196 -35 -234t18 -49t114 -11t141 30q44 31 75 147l160 13l12 -19q-49 -145 -82 -305l-23 -18q-293 10 -469 10z" />
    <glyph glyph-name="ecircumflex" unicode="&#xea;" horiz-adv-x="1013" 
d="M698 1503q0 1 118 -107t163 -147l-59 -84l-35 -8l-236 119l-266 -119l-31 8l-39 84l344 254h41zM362 0q-176 0 -344 -16l27 118q67 10 95 40t36 100q78 604 78 623t-6 33t-37 13l-47 -2l-12 17l26 104q193 -6 426 -6t397 20l13 -18q-47 -150 -74 -299l-172 -10
q14 53 14 93t-36 53t-116 13t-95 -8q-14 -8 -19 -41l-41 -231h148l186 12l12 -16l-41 -150q-128 4 -196 4t-133 -10q-35 -196 -35 -234t18 -49t114 -11t141 30q44 31 75 147l160 13l12 -19q-49 -145 -82 -305l-23 -18q-293 10 -469 10z" />
    <glyph glyph-name="edieresis" unicode="&#xeb;" horiz-adv-x="1013" 
d="M845 1427q115 0 113 -115q0 -59 -43 -103t-102 -44q-115 0 -115 107q0 68 44 112t103 43zM451 1165q-106 0 -107 107q0 68 43 112t102 43q115 0 115 -106q0 -68 -42 -112t-111 -44zM362 0q-176 0 -344 -16l27 118q67 10 95 40t36 100q78 604 78 623t-6 33t-37 13l-47 -2
l-12 17l26 104q193 -6 426 -6t397 20l13 -18q-47 -150 -74 -299l-172 -10q14 53 14 93t-36 53t-116 13t-95 -8q-14 -8 -19 -41l-41 -231h148l186 12l12 -16l-41 -150q-128 4 -196 4t-133 -10q-35 -196 -35 -234t18 -49t114 -11t141 30q44 31 75 147l160 13l12 -19
q-49 -145 -82 -305l-23 -18q-293 10 -469 10z" />
    <glyph glyph-name="igrave" unicode="&#xec;" horiz-adv-x="634" 
d="M143 1270l-10 26l51 158l27 10q236 -117 457 -213l-27 -96l-29 -18q-178 55 -469 133zM416 176q0 -37 11 -50t38 -13l67 4l7 -13l-29 -108q-176 4 -250 4l-240 -12l25 112q73 14 99 41t32 92q78 615 78 633t-8 32t-43 13h-53q-6 12 -7 15l23 102l237 -4l248 12l-24 -116
q-61 -8 -81 -24t-30 -62q-100 -541 -100 -658z" />
    <glyph glyph-name="iacute" unicode="&#xed;" horiz-adv-x="634" 
d="M698 1296l-10 -26q-236 -59 -469 -133l-26 18l-29 96l457 213l26 -10zM416 176q0 -37 11 -50t38 -13l67 4l7 -13l-29 -108q-176 4 -250 4l-240 -12l25 112q73 14 99 41t32 92q78 615 78 633t-8 32t-43 13h-53q-6 12 -7 15l23 102l237 -4l248 12l-24 -116q-61 -8 -81 -24
t-30 -62q-100 -541 -100 -658z" />
    <glyph glyph-name="icircumflex" unicode="&#xee;" horiz-adv-x="634" 
d="M473 1503q-1 1 117 -107t164 -147l-60 -84l-35 -8l-235 119l-266 -119l-31 8l-39 84l344 254h41zM416 176q0 -37 11 -50t38 -13l67 4l7 -13l-29 -108q-176 4 -250 4l-240 -12l25 112q73 14 99 41t32 92q78 615 78 633t-8 32t-43 13h-53q-6 12 -7 15l23 102l237 -4l248 12
l-24 -116q-61 -8 -81 -24t-30 -62q-100 -541 -100 -658z" />
    <glyph glyph-name="idieresis" unicode="&#xef;" horiz-adv-x="634" 
d="M624 1427q115 0 113 -115q0 -59 -43 -103t-102 -44q-115 0 -115 107q0 68 44 112t103 43zM229 1165q-106 0 -106 107q0 68 43 112t102 43q115 0 115 -106q0 -68 -43 -112t-111 -44zM416 176q0 -37 11 -50t38 -13l67 4l7 -13l-29 -108q-176 4 -250 4l-240 -12l25 112
q73 14 99 41t32 92q78 615 78 633t-8 32t-43 13h-53q-6 12 -7 15l23 102l237 -4l248 12l-24 -116q-61 -8 -81 -24t-30 -62q-100 -541 -100 -658z" />
    <glyph glyph-name="eth" unicode="&#xf0;" horiz-adv-x="1187" 
d="M592 879q-43 0 -47 -39q-12 -61 -47 -271l178 2l10 -14l-24 -111h-185q-31 -202 -31 -240t23 -54t82 -17q147 0 231 124t84 343q0 143 -66 210q-67 67 -208 67zM283 866q0 18 -5 32t-34 13l-56 -4l-8 17l27 106q154 -6 217 -6l250 10q225 0 355 -108t130 -303
q0 -281 -178 -461t-457 -180q-160 18 -254 18l-219 -16l27 120q68 12 94 39t37 95l24 208h-180l-12 13l31 108h176q35 281 35 299z" />
    <glyph glyph-name="ntilde" unicode="&#xf1;" horiz-adv-x="1230" 
d="M606 1223q-47 0 -121 -80l-24 -27h-23l-71 76l2 22l180 197l33 8q34 0 148 -35t137 -34q47 0 145 106h22l72 -76l-2 -20l-180 -199l-35 -8q-33 0 -146 35t-137 35zM264 850q0 20 -20 38t-99 25l-12 19l23 100q111 -8 202 -8l172 8q145 -295 326 -616h16q51 434 52 442
q0 55 -45 55l-56 -2l-6 13l25 108q150 -8 288 -8t142 10l-21 -116q-55 -8 -81 -31t-33 -70l-125 -831l-211 -21q-184 360 -355 656h-18l-55 -435q-4 -41 7 -57t44 -16l63 2l11 -11l-29 -110q-152 6 -221 6l-219 -12l28 116q98 12 109 101q98 625 98 645z" />
    <glyph glyph-name="ograve" unicode="&#xf2;" horiz-adv-x="1128" 
d="M387 1270l-10 26l51 158l27 10q236 -117 456 -213l-26 -96l-29 -18q-178 55 -469 133zM500 -18q-201 0 -318 114t-116 318q0 290 160 460t431 170q205 0 322 -112t117 -314q0 -288 -163 -462t-433 -174zM543 137q123 0 191 117t69 336q0 139 -51 211t-144 71
q-118 0 -186 -116t-68 -336q0 -139 50 -211t139 -72z" />
    <glyph glyph-name="oacute" unicode="&#xf3;" horiz-adv-x="1128" 
d="M936 1296l-10 -26q-236 -59 -469 -133l-27 18l-29 96l457 213l27 -10zM500 -18q-201 0 -318 114t-116 318q0 290 160 460t431 170q205 0 322 -112t117 -314q0 -288 -163 -462t-433 -174zM543 137q123 0 191 117t69 336q0 139 -51 211t-144 71q-118 0 -186 -116t-68 -336
q0 -139 50 -211t139 -72z" />
    <glyph glyph-name="ocircumflex" unicode="&#xf4;" horiz-adv-x="1128" 
d="M713 1503q-1 1 117 -107t163 -147l-59 -84l-35 -8l-235 119l-267 -119l-30 8l-39 84l344 254h41zM500 -18q-201 0 -318 114t-116 318q0 290 160 460t431 170q205 0 322 -112t117 -314q0 -288 -163 -462t-433 -174zM543 137q123 0 191 117t69 336q0 139 -51 211t-144 71
q-118 0 -186 -116t-68 -336q0 -139 50 -211t139 -72z" />
    <glyph glyph-name="otilde" unicode="&#xf5;" horiz-adv-x="1128" 
d="M541 1223q-45 0 -119 -80l-25 -27h-22l-72 76l2 22l180 197l33 8q35 0 149 -35t137 -34q46 0 144 106h23l71 -76l-2 -20l-180 -199l-35 -8q-35 0 -147 35t-137 35zM500 -18q-201 0 -318 114t-116 318q0 290 160 460t431 170q205 0 322 -112t117 -314q0 -288 -163 -462
t-433 -174zM543 137q123 0 191 117t69 336q0 139 -51 211t-144 71q-118 0 -186 -116t-68 -336q0 -139 50 -211t139 -72z" />
    <glyph glyph-name="odieresis" unicode="&#xf6;" horiz-adv-x="1128" 
d="M463 1165q-106 0 -107 107q0 68 43 112t103 43q115 0 114 -106q0 -68 -42 -112t-111 -44zM857 1427q114 0 114 -115q0 -59 -43 -103t-103 -44q-115 0 -114 107q0 68 44 112t102 43zM500 -18q-201 0 -318 114t-116 318q0 290 160 460t431 170q205 0 322 -112t117 -314
q0 -288 -163 -462t-433 -174zM543 137q123 0 191 117t69 336q0 139 -51 211t-144 71q-118 0 -186 -116t-68 -336q0 -139 50 -211t139 -72z" />
    <glyph glyph-name="divide" unicode="&#xf7;" horiz-adv-x="999" 
d="M399 862q0 76 46 125t114 49q69 0 99 -32t30 -98t-47 -115t-115 -50q-127 0 -127 121zM470 309q128 0 128 -131q0 -66 -47 -115t-114 -49q-128 0 -128 131q0 66 47 115t114 49zM975 639l10 -25l-45 -188l-897 -4l-12 22l51 185q285 -2 461 -2z" />
    <glyph glyph-name="oslash" unicode="&#xf8;" horiz-adv-x="1128" 
d="M354 420q0 -68 8 -109l340 537q-39 25 -94 24q-118 0 -186 -116t-68 -336zM543 137q123 0 191 117t69 336q0 68 -12 117l-345 -541q42 -29 97 -29zM66 414q0 290 160 460t431 170q92 0 160 -20l105 154l122 -62l3 -22l-95 -140q143 -111 144 -336q0 -288 -163 -462
t-433 -174q-84 0 -162 22l-123 -182l-119 63l-4 17l115 170q-141 115 -141 342z" />
    <glyph glyph-name="ugrave" unicode="&#xf9;" horiz-adv-x="1091" 
d="M383 1270l-10 26l51 158l27 10q236 -117 456 -213l-26 -96l-29 -18q-178 55 -469 133zM389 311q0 -170 154 -170q176 0 200 189q59 508 59 532t-5 36q-6 13 -35 13l-51 -2l-2 6l28 115q129 -6 191 -6l209 10l-27 -116q-60 -14 -78 -28t-22 -50l-60 -482
q-49 -377 -461 -376q-356 0 -356 278l70 606q0 18 -6 32t-37 13l-51 -2l-3 6l29 115q145 -6 248 -6l203 10l-27 -119q-51 -6 -71 -23t-27 -58l-68 -463q-4 -21 -4 -60z" />
    <glyph glyph-name="uacute" unicode="&#xfa;" horiz-adv-x="1091" 
d="M954 1296l-10 -26q-236 -59 -469 -133l-26 18l-29 96l457 213l26 -10zM389 311q0 -170 154 -170q176 0 200 189q59 508 59 532t-5 36q-6 13 -35 13l-51 -2l-2 6l28 115q129 -6 191 -6l209 10l-27 -116q-60 -14 -78 -28t-22 -50l-60 -482q-49 -377 -461 -376
q-356 0 -356 278l70 606q0 18 -6 32t-37 13l-51 -2l-3 6l29 115q145 -6 248 -6l203 10l-27 -119q-51 -6 -71 -23t-27 -58l-68 -463q-4 -21 -4 -60z" />
    <glyph glyph-name="ucircumflex" unicode="&#xfb;" horiz-adv-x="1091" 
d="M731 1503q-1 1 117 -107t164 -147l-60 -84l-34 -8l-236 119l-266 -119l-31 8l-39 84l344 254h41zM389 311q0 -170 154 -170q176 0 200 189q59 508 59 532t-5 36q-6 13 -35 13l-51 -2l-2 6l28 115q129 -6 191 -6l209 10l-27 -116q-60 -14 -78 -28t-22 -50l-60 -482
q-49 -377 -461 -376q-356 0 -356 278l70 606q0 18 -6 32t-37 13l-51 -2l-3 6l29 115q145 -6 248 -6l203 10l-27 -119q-51 -6 -71 -23t-27 -58l-68 -463q-4 -21 -4 -60z" />
    <glyph glyph-name="udieresis" unicode="&#xfc;" horiz-adv-x="1091" 
d="M481 1165q-106 0 -106 107q0 68 43 112t102 43q115 0 115 -106q0 -68 -43 -112t-111 -44zM876 1427q115 0 113 -115q0 -59 -43 -103t-102 -44q-115 0 -115 107q0 68 44 112t103 43zM389 311q0 -170 154 -170q176 0 200 189q59 508 59 532t-5 36q-6 13 -35 13l-51 -2l-2 6
l28 115q129 -6 191 -6l209 10l-27 -116q-60 -14 -78 -28t-22 -50l-60 -482q-49 -377 -461 -376q-356 0 -356 278l70 606q0 18 -6 32t-37 13l-51 -2l-3 6l29 115q145 -6 248 -6l203 10l-27 -119q-51 -6 -71 -23t-27 -58l-68 -463q-4 -21 -4 -60z" />
    <glyph glyph-name="yacute" unicode="&#xfd;" horiz-adv-x="1048" 
d="M944 1296l-10 -26q-236 -59 -469 -133l-27 18l-28 96l456 213l27 -10zM627 177q0 -24 11 -42t56 -18l82 4l6 -8l-28 -121q-203 8 -289 8l-279 -16l27 118q98 10 138 44t40 195q0 38 -29 105l-126 308q-27 68 -60 102t-98 51l-6 8l28 113q158 -4 222 -4l270 12l8 -16
l-22 -100q-93 -4 -95 -47q0 -22 86 -304h19l141 242q33 55 33 76q0 31 -74 31l-4 10l25 102l229 -6l172 6l6 -12l-26 -109q-63 -23 -110 -67q-46 -45 -108 -135l-188 -285q-33 -47 -39 -92q-18 -129 -18 -153z" />
    <glyph glyph-name="thorn" unicode="&#xfe;" horiz-adv-x="985" 
d="M711 545q0 133 -189 133q-37 0 -39 -27q-25 -131 -43 -270q59 -18 125 -23q146 27 146 187zM631 821q346 0 346 -250q0 -147 -129 -245t-313 -99h-115q-12 -86 -1 -100t46 -14l78 6l6 -15l-27 -108q-188 4 -262 4l-242 -12l27 112q69 14 95 40t34 93q78 615 78 633t-7 32
t-44 15l-51 -2l-11 15l25 102l239 -2l246 10l-24 -116q-63 -10 -85 -24t-30 -75h121z" />
    <glyph glyph-name="ydieresis" unicode="&#xff;" horiz-adv-x="1048" 
d="M463 1165q-106 0 -107 107q0 68 43 112t103 43q115 0 114 -106q0 -68 -42 -112t-111 -44zM857 1427q114 0 114 -115q0 -59 -43 -103t-103 -44q-115 0 -114 107q0 68 44 112t102 43zM627 177q0 -24 11 -42t56 -18l82 4l6 -8l-28 -121q-203 8 -289 8l-279 -16l27 118
q98 10 138 44t40 195q0 38 -29 105l-126 308q-27 68 -60 102t-98 51l-6 8l28 113q158 -4 222 -4l270 12l8 -16l-22 -100q-93 -4 -95 -47q0 -22 86 -304h19l141 242q33 55 33 76q0 31 -74 31l-4 10l25 102l229 -6l172 6l6 -12l-26 -109q-63 -23 -110 -67q-46 -45 -108 -135
l-188 -285q-33 -47 -39 -92q-18 -129 -18 -153z" />
    <glyph glyph-name="Amacron" unicode="&#x100;" horiz-adv-x="1243" 
d="M1067 1649l14 -29l-45 -158l-553 -4l-18 25l47 155q188 -2 303 -2zM598 584q55 0 145 8l-57 457h-29l-196 -465h137zM908 0q-118 0 -306 -16l-8 16l24 121q98 8 131 24q31 15 31 51t-22 228q-53 4 -164 4t-205 -14l-65 -158q-20 -49 -21 -76q0 -53 80 -53h86l6 -12
l-29 -127q-162 12 -286 12l-240 -6l31 135q88 14 145 137l471 1037l322 34l22 -10q94 -707 158 -1059q12 -74 41 -104t94 -37l8 -14l-28 -119q-158 6 -276 6z" />
    <glyph glyph-name="amacron" unicode="&#x101;" horiz-adv-x="1085" 
d="M950 1358l15 -29l-45 -158l-553 -4l-19 25l47 156q188 -2 303 -2zM522 463q55 0 111 6l-43 332h-27l-147 -338h106zM293 150q0 -37 59 -37h66l6 -13l-23 -108q-139 8 -241 8l-205 -4l27 115q70 12 112 100l375 805l311 28l19 -12q84 -569 131 -811q8 -57 32 -82t70 -28
l8 -13l-24 -102q-131 4 -209 4l-287 -12l-8 12l20 109q80 6 104 17q24 10 24 38t-15 151l-141 2q-92 0 -150 -8l-45 -108q-16 -33 -16 -51z" />
    <glyph glyph-name="Abreve" unicode="&#x102;" horiz-adv-x="1243" 
d="M776 1634q152 0 221 121l33 -6l47 -72q-41 -100 -124 -169q-83 -68 -201 -68t-186 68q-67 68 -83 169l68 72l35 6q38 -121 190 -121zM598 584q55 0 145 8l-57 457h-29l-196 -465h137zM908 0q-118 0 -306 -16l-8 16l24 121q98 8 131 24q31 15 31 51t-22 228q-53 4 -164 4
t-205 -14l-65 -158q-20 -49 -21 -76q0 -53 80 -53h86l6 -12l-29 -127q-162 12 -286 12l-240 -6l31 135q88 14 145 137l471 1037l322 34l22 -10q94 -707 158 -1059q12 -74 41 -104t94 -37l8 -14l-28 -119q-158 6 -276 6z" />
    <glyph glyph-name="abreve" unicode="&#x103;" horiz-adv-x="1085" 
d="M658 1333q152 0 221 121l32 -6l47 -72q-42 -100 -124 -169t-201 -69t-186 70q-67 68 -82 168l67 72l35 6q39 -121 191 -121zM522 463q55 0 111 6l-43 332h-27l-147 -338h106zM293 150q0 -37 59 -37h66l6 -13l-23 -108q-139 8 -241 8l-205 -4l27 115q70 12 112 100
l375 805l311 28l19 -12q84 -569 131 -811q8 -57 32 -82t70 -28l8 -13l-24 -102q-131 4 -209 4l-287 -12l-8 12l20 109q80 6 104 17q24 10 24 38t-15 151l-141 2q-92 0 -150 -8l-45 -108q-16 -33 -16 -51z" />
    <glyph glyph-name="Aogonek" unicode="&#x104;" horiz-adv-x="1243" 
d="M598 584q55 0 145 8l-57 457h-29l-196 -465h137zM748 -334q0 74 51 148t168 186h-27q-150 0 -338 -16l-8 16l24 121q98 8 131 24q31 15 31 51t-22 228q-53 4 -164 4t-205 -14l-65 -158q-20 -49 -21 -76q0 -53 80 -53h86l6 -12l-29 -127q-162 12 -286 12l-240 -6l31 135
q88 14 145 137l471 1037l322 34l22 -10q94 -707 158 -1059q12 -74 41 -104t94 -37l8 -14l-28 -119q-45 2 -97 4q-98 -106 -132 -158q-33 -52 -33 -97q0 -44 22 -68q57 -60 209 26l31 -59q-117 -102 -219 -138q-101 0 -159 44t-58 118z" />
    <glyph glyph-name="aogonek" unicode="&#x105;" horiz-adv-x="1085" 
d="M522 463q55 0 111 6l-43 332h-27l-147 -338h106zM293 150q0 -37 59 -37h66l6 -13l-23 -108q-139 8 -241 8l-205 -4l27 115q70 12 112 100l375 805l311 28l19 -12q84 -569 131 -811q8 -57 32 -82t70 -28l8 -13l-24 -102q-33 2 -70 2q-98 -106 -132 -158t-34 -97
q0 -44 23 -68q58 -60 209 26l30 -59q-117 -102 -219 -138q-100 0 -158 44q-59 44 -59 118t51 148t168 186h-18l-287 -12l-8 12l20 109q80 6 104 17q24 10 24 38t-15 151l-141 2q-92 0 -150 -8l-45 -108q-16 -33 -16 -51z" />
    <glyph glyph-name="Cacute" unicode="&#x106;" horiz-adv-x="1216" 
d="M1098 1587l-11 -26q-236 -59 -469 -134l-26 19l-29 96l457 213l27 -10zM600 -25q-248 1 -391 147t-143 402q0 371 205 592q206 221 552 221q145 0 404 -49l8 -26q-61 -170 -100 -385l-199 -13q18 96 18 135q0 145 -202 146q-174 0 -270 -151t-97 -431q0 -195 69 -297
q70 -102 188 -102t184 66t110 216l199 15q-59 -211 -86 -379l-21 -25q-180 -82 -428 -82z" />
    <glyph glyph-name="cacute" unicode="&#x107;" horiz-adv-x="1036" 
d="M940 1296l-10 -26q-236 -59 -469 -133l-27 18l-28 96l456 213l27 -10zM508 -18q-206 0 -325 114q-118 114 -117 320q0 293 165 461q166 168 455 167q123 0 340 -40l10 -23q-51 -137 -84 -313l-188 -13q16 82 16 111q0 106 -153 106q-268 0 -269 -423q0 -297 199 -297
q82 0 129 47t80 163l186 13q-45 -172 -65 -309l-19 -21q-154 -63 -360 -63z" />
    <glyph glyph-name="Ccircumflex" unicode="&#x108;" horiz-adv-x="1216" 
d="M1012 1444q-176 147 -211 170q-6 -4 -250 -170l-33 8l-49 84q74 61 340 315h41q199 -248 264 -315l-70 -84zM600 -25q-248 1 -391 147t-143 402q0 371 205 592q206 221 552 221q145 0 404 -49l8 -26q-61 -170 -100 -385l-199 -13q18 96 18 135q0 145 -202 146
q-174 0 -270 -151t-97 -431q0 -195 69 -297q70 -102 188 -102t184 66t110 216l199 15q-59 -211 -86 -379l-21 -25q-180 -82 -428 -82z" />
    <glyph glyph-name="ccircumflex" unicode="&#x109;" horiz-adv-x="1036" 
d="M879 1153q-176 147 -211 170q-6 -4 -250 -170l-33 8l-49 84q74 61 340 316h41q199 -248 264 -316l-70 -84zM508 -18q-206 0 -325 114q-118 114 -117 320q0 293 165 461q166 168 455 167q123 0 340 -40l10 -23q-51 -137 -84 -313l-188 -13q16 82 16 111q0 106 -153 106
q-268 0 -269 -423q0 -297 199 -297q82 0 129 47t80 163l186 13q-45 -172 -65 -309l-19 -21q-154 -63 -360 -63z" />
    <glyph glyph-name="Cdotaccent" unicode="&#x10a;" horiz-adv-x="1216" 
d="M856 1749q135 0 135 -138q0 -69 -51 -121t-121 -52q-137 0 -137 127q0 80 52 132t122 52zM600 -25q-248 1 -391 147t-143 402q0 371 205 592q206 221 552 221q145 0 404 -49l8 -26q-61 -170 -100 -385l-199 -13q18 96 18 135q0 145 -202 146q-174 0 -270 -151t-97 -431
q0 -195 69 -297q70 -102 188 -102t184 66t110 216l199 15q-59 -211 -86 -379l-21 -25q-180 -82 -428 -82z" />
    <glyph glyph-name="cdotaccent" unicode="&#x10b;" horiz-adv-x="1036" 
d="M715 1458q135 0 135 -138q0 -69 -51 -121t-123 -52q-135 0 -135 127q0 80 52 132t122 52zM508 -18q-206 0 -325 114q-118 114 -117 320q0 293 165 461q166 168 455 167q123 0 340 -40l10 -23q-51 -137 -84 -313l-188 -13q16 82 16 111q0 106 -153 106q-268 0 -269 -423
q0 -297 199 -297q82 0 129 47t80 163l186 13q-45 -172 -65 -309l-19 -21q-154 -63 -360 -63z" />
    <glyph glyph-name="Ccaron" unicode="&#x10c;" horiz-adv-x="1216" 
d="M831 1653l267 119l30 -9l41 -84l-346 -254h-39q-209 195 -280 254l57 84l35 9zM600 -25q-248 1 -391 147t-143 402q0 371 205 592q206 221 552 221q145 0 404 -49l8 -26q-61 -170 -100 -385l-199 -13q18 96 18 135q0 145 -202 146q-174 0 -270 -151t-97 -431
q0 -195 69 -297q70 -102 188 -102t184 66t110 216l199 15q-59 -211 -86 -379l-21 -25q-180 -82 -428 -82z" />
    <glyph glyph-name="ccaron" unicode="&#x10d;" horiz-adv-x="1036" 
d="M688 1362l266 119l31 -8l41 -84l-346 -254h-39q-209 195 -281 254l58 84l35 8zM508 -18q-206 0 -325 114q-118 114 -117 320q0 293 165 461q166 168 455 167q123 0 340 -40l10 -23q-51 -137 -84 -313l-188 -13q16 82 16 111q0 106 -153 106q-268 0 -269 -423
q0 -297 199 -297q82 0 129 47t80 163l186 13q-45 -172 -65 -309l-19 -21q-154 -63 -360 -63z" />
    <glyph glyph-name="Dcaron" unicode="&#x10e;" horiz-adv-x="1366" 
d="M803 1653l266 119l31 -9l41 -84l-346 -254h-39q-209 195 -281 254l57 84l35 9zM655 1151q-33 0 -45 -10t-16 -39q-129 -788 -129 -848t32 -84q32 -23 115 -23q195 0 308 167t112 456q0 381 -377 381zM282 0q-104 0 -268 -20l31 137q84 14 118 50t46 122q100 811 100 835
t-8 40q-8 17 -43 18l-68 -4l-8 18l31 123q174 -6 252 -6l297 10q270 0 429 -140t159 -388q0 -352 -219 -586t-551 -234q-194 25 -298 25z" />
    <glyph glyph-name="dcaron" unicode="&#x10f;" horiz-adv-x="1161" 
d="M672 1362l266 119l31 -8l41 -84l-346 -254h-39q-209 195 -281 254l57 84l35 8zM563 879q-23 0 -36 -11t-61 -323q-48 -311 -48 -344t22 -49t82 -17q147 0 232 124q84 124 84 343q0 143 -67 210t-208 67zM254 866q0 18 -5 32t-34 13l-55 -4l-8 17l26 106q154 -6 219 -6
l248 10q225 0 355 -108t130 -303q0 -281 -178 -461t-456 -180q-160 18 -254 18l-219 -16l26 120q67 12 95 39t36 95q74 610 74 628z" />
    <glyph glyph-name="Dcroat" unicode="&#x110;" horiz-adv-x="1396" 
d="M686 1151q-33 0 -45 -10t-16 -36t-62 -382l240 4l12 -18l-29 -123h-245q-45 -287 -45 -340t32 -76t115 -23q195 0 307 167t113 456q0 381 -377 381zM312 0q-103 0 -267 -20l31 137q84 14 118 50t46 122l36 297h-229l-14 14l35 123h225q47 377 47 401t-8 40q-8 17 -43 18
l-68 -4l-8 18l31 123q174 -6 252 -6l297 10q270 0 429 -140t158 -388q0 -352 -219 -586t-551 -234q-195 25 -298 25z" />
    <glyph glyph-name="dcroat" unicode="&#x111;" horiz-adv-x="1187" 
d="M592 879q-43 0 -47 -39q-12 -61 -47 -271l178 2l10 -14l-24 -111h-185q-31 -202 -31 -240t23 -54t82 -17q147 0 231 124t84 343q0 143 -66 210q-67 67 -208 67zM283 866q0 18 -5 32t-34 13l-56 -4l-8 17l27 106q154 -6 217 -6l250 10q225 0 355 -108t130 -303
q0 -281 -178 -461t-457 -180q-160 18 -254 18l-219 -16l27 120q68 12 94 39t37 95l24 208h-180l-12 13l31 108h176q35 281 35 299z" />
    <glyph glyph-name="Emacron" unicode="&#x112;" horiz-adv-x="1181" 
d="M1067 1649l14 -29l-45 -158l-553 -4l-18 25l47 155q188 -2 303 -2zM684 586q-72 0 -176 -13q-47 -321 -47 -355q1 -34 23 -47t94 -13q182 0 238 39t97 194l170 15l13 -21q-59 -182 -103 -379l-22 -20q-367 14 -568 14t-393 -20l33 137q84 12 118 49t44 125
q102 813 102 837t-7 39q-7 16 -46 17l-61 -4l-11 18l31 121q217 -6 502 -6t469 24l12 -20q-57 -180 -90 -371l-184 -12q16 72 16 125t-45 70t-153 17t-125 -9q-17 -10 -25 -58l-53 -323l184 -2l231 16l13 -16l-50 -174q-159 6 -231 6z" />
    <glyph glyph-name="emacron" unicode="&#x113;" horiz-adv-x="1013" 
d="M946 1358l15 -29l-46 -158l-553 -4l-18 25l47 156q188 -2 303 -2zM362 0q-176 0 -344 -16l27 118q67 10 95 40t36 100q78 604 78 623t-6 33t-37 13l-47 -2l-12 17l26 104q193 -6 426 -6t397 20l13 -18q-47 -150 -74 -299l-172 -10q14 53 14 93t-36 53t-116 13t-95 -8
q-14 -8 -19 -41l-41 -231h148l186 12l12 -16l-41 -150q-128 4 -196 4t-133 -10q-35 -196 -35 -234t18 -49t114 -11t141 30q44 31 75 147l160 13l12 -19q-49 -145 -82 -305l-23 -18q-293 10 -469 10z" />
    <glyph glyph-name="Ebreve" unicode="&#x114;" horiz-adv-x="1181" 
d="M760 1642q152 0 221 140l37 -8l45 -70q-41 -108 -125 -182t-202 -74t-184 74t-81 182l64 70l36 8q37 -140 189 -140zM684 586q-72 0 -176 -13q-47 -321 -47 -355q1 -34 23 -47t94 -13q182 0 238 39t97 194l170 15l13 -21q-59 -182 -103 -379l-22 -20q-367 14 -568 14
t-393 -20l33 137q84 12 118 49t44 125q102 813 102 837t-7 39q-7 16 -46 17l-61 -4l-11 18l31 121q217 -6 502 -6t469 24l12 -20q-57 -180 -90 -371l-184 -12q16 72 16 125t-45 70t-153 17t-125 -9q-17 -10 -25 -58l-53 -323l184 -2l231 16l13 -16l-50 -174q-159 6 -231 6z
" />
    <glyph glyph-name="ebreve" unicode="&#x115;" horiz-adv-x="1013" 
d="M650 1333q152 0 220 121l33 -6l47 -72q-41 -100 -124 -169q-84 -69 -202 -69t-185 70q-67 68 -83 168l68 72l35 6q39 -121 191 -121zM362 0q-176 0 -344 -16l27 118q67 10 95 40t36 100q78 604 78 623t-6 33t-37 13l-47 -2l-12 17l26 104q193 -6 426 -6t397 20l13 -18
q-47 -150 -74 -299l-172 -10q14 53 14 93t-36 53t-116 13t-95 -8q-14 -8 -19 -41l-41 -231h148l186 12l12 -16l-41 -150q-128 4 -196 4t-133 -10q-35 -196 -35 -234t18 -49t114 -11t141 30q44 31 75 147l160 13l12 -19q-49 -145 -82 -305l-23 -18q-293 10 -469 10z" />
    <glyph glyph-name="Edotaccent" unicode="&#x116;" horiz-adv-x="1181" 
d="M795 1749q135 0 135 -138q0 -69 -51 -121t-121 -52q-137 0 -137 127q0 80 52 132t122 52zM684 586q-72 0 -176 -13q-47 -321 -47 -355q1 -34 23 -47t94 -13q182 0 238 39t97 194l170 15l13 -21q-59 -182 -103 -379l-22 -20q-367 14 -568 14t-393 -20l33 137q84 12 118 49
t44 125q102 813 102 837t-7 39q-7 16 -46 17l-61 -4l-11 18l31 121q217 -6 502 -6t469 24l12 -20q-57 -180 -90 -371l-184 -12q16 72 16 125t-45 70t-153 17t-125 -9q-17 -10 -25 -58l-53 -323l184 -2l231 16l13 -16l-50 -174q-159 6 -231 6z" />
    <glyph glyph-name="edotaccent" unicode="&#x117;" horiz-adv-x="1013" 
d="M674 1458q135 0 135 -138q0 -69 -51 -121t-123 -52q-135 0 -135 127q0 80 52 132t122 52zM362 0q-176 0 -344 -16l27 118q67 10 95 40t36 100q78 604 78 623t-6 33t-37 13l-47 -2l-12 17l26 104q193 -6 426 -6t397 20l13 -18q-47 -150 -74 -299l-172 -10q14 53 14 93
t-36 53t-116 13t-95 -8q-14 -8 -19 -41l-41 -231h148l186 12l12 -16l-41 -150q-128 4 -196 4t-133 -10q-35 -196 -35 -234t18 -49t114 -11t141 30q44 31 75 147l160 13l12 -19q-49 -145 -82 -305l-23 -18q-293 10 -469 10z" />
    <glyph glyph-name="Eogonek" unicode="&#x118;" horiz-adv-x="1181" 
d="M684 586q-72 0 -176 -13q-47 -321 -47 -355q1 -34 23 -47t94 -13q182 0 238 39t97 194l170 15l13 -21q-59 -182 -103 -379l-22 -20q-31 2 -80 4q-92 -100 -124 -152t-32 -94q0 -43 23 -67q58 -60 209 26l30 -59q-117 -102 -219 -138q-100 0 -158 44t-59 118q0 74 49 147
t160 179q-188 6 -378 6t-382 -20l33 137q84 12 118 49t44 125q102 813 102 837t-7 39q-7 16 -46 17l-61 -4l-11 18l31 121q217 -6 502 -6t469 24l12 -20q-57 -180 -90 -371l-184 -12q16 72 16 125t-45 70t-153 17t-125 -9q-17 -10 -25 -58l-53 -323l184 -2l231 16l13 -16
l-50 -174q-159 6 -231 6z" />
    <glyph glyph-name="eogonek" unicode="&#x119;" horiz-adv-x="1013" 
d="M322 0q-136 0 -304 -16l27 118q67 10 95 40t36 100q78 604 78 623t-6 33t-37 13l-47 -2l-12 17l26 104q193 -6 426 -6t397 20l13 -18q-47 -150 -74 -299l-172 -10q14 53 14 93t-36 53t-116 13t-95 -8q-14 -8 -19 -41l-41 -231h148l186 12l12 -16l-41 -150q-128 4 -196 4
t-133 -10q-35 -196 -35 -234t18 -49t114 -11t141 30q44 31 75 147l160 13l12 -19q-49 -145 -82 -305l-23 -18q-20 2 -53 2q-94 -100 -126 -152t-32 -96q0 -43 24 -67q57 -60 208 26l31 -59q-117 -102 -219 -138q-101 0 -159 44t-59 118q0 74 51 147q50 73 162 181
q-201 4 -337 4z" />
    <glyph glyph-name="Ecaron" unicode="&#x11a;" horiz-adv-x="1181" 
d="M780 1653l267 119l30 -9l41 -84l-346 -254h-39q-209 195 -280 254l57 84l35 9zM684 586q-72 0 -176 -13q-47 -321 -47 -355q1 -34 23 -47t94 -13q182 0 238 39t97 194l170 15l13 -21q-59 -182 -103 -379l-22 -20q-367 14 -568 14t-393 -20l33 137q84 12 118 49t44 125
q102 813 102 837t-7 39q-7 16 -46 17l-61 -4l-11 18l31 121q217 -6 502 -6t469 24l12 -20q-57 -180 -90 -371l-184 -12q16 72 16 125t-45 70t-153 17t-125 -9q-17 -10 -25 -58l-53 -323l184 -2l231 16l13 -16l-50 -174q-159 6 -231 6z" />
    <glyph glyph-name="ecaron" unicode="&#x11b;" horiz-adv-x="1013" 
d="M655 1362l267 119l30 -8l41 -84l-346 -254h-39q-209 195 -280 254l57 84l35 8zM362 0q-176 0 -344 -16l27 118q67 10 95 40t36 100q78 604 78 623t-6 33t-37 13l-47 -2l-12 17l26 104q193 -6 426 -6t397 20l13 -18q-47 -150 -74 -299l-172 -10q14 53 14 93t-36 53
t-116 13t-95 -8q-14 -8 -19 -41l-41 -231h148l186 12l12 -16l-41 -150q-128 4 -196 4t-133 -10q-35 -196 -35 -234t18 -49t114 -11t141 30q44 31 75 147l160 13l12 -19q-49 -145 -82 -305l-23 -18q-293 10 -469 10z" />
    <glyph glyph-name="Gcircumflex" unicode="&#x11c;" horiz-adv-x="1288" 
d="M1006 1444q-176 147 -211 170q-6 -4 -250 -170l-33 8l-49 84q74 61 340 315h41q199 -248 264 -315l-70 -84zM1006 666q72 0 133 4t61 6l4 -78q-72 -45 -90 -168q-35 -178 -35 -278l2 -68l-20 -25q-61 -31 -197 -57t-262 -27q-250 1 -393 147t-143 402q0 371 205 592
q206 221 552 221q145 0 404 -49l8 -26q-61 -156 -100 -371l-199 -14q18 88 18 127q0 141 -202 141q-174 0 -270 -151t-97 -431q0 -195 69 -297t187 -102t211 53q25 211 25 236q-1 25 -13 41t-63 16h-103l-8 16l39 144h8l66 -2h47l104 -2h52z" />
    <glyph glyph-name="gcircumflex" unicode="&#x11d;" horiz-adv-x="1095" 
d="M879 1153q-176 147 -211 170q-6 -4 -250 -170l-33 8l-49 84q74 61 340 316h41q199 -248 264 -316l-70 -84zM526 -18q-226 0 -342 112q-117 112 -116 316q0 294 168 464t456 170q123 0 340 -40l10 -23q-51 -123 -86 -297l-186 -12q18 70 18 100q0 102 -157 102
q-131 0 -202 -110t-71 -328q0 -289 199 -289q78 0 148 37l18 138q4 45 -7 59t-50 14h-76l-10 17l34 120h234q164 0 164 9l4 -72q-61 -35 -76 -127q-29 -158 -29 -223v-56l-18 -20q-141 -61 -367 -61z" />
    <glyph glyph-name="Gbreve" unicode="&#x11e;" horiz-adv-x="1288" 
d="M818 1657q152 0 220 121l33 -6l47 -72q-41 -100 -124 -169q-84 -69 -202 -69t-185 69t-83 169l68 72l35 6q39 -121 191 -121zM1006 666q72 0 133 4t61 6l4 -78q-72 -45 -90 -168q-35 -178 -35 -278l2 -68l-20 -25q-61 -31 -197 -57t-262 -27q-250 1 -393 147t-143 402
q0 371 205 592q206 221 552 221q145 0 404 -49l8 -26q-61 -156 -100 -371l-199 -14q18 88 18 127q0 141 -202 141q-174 0 -270 -151t-97 -431q0 -195 69 -297t187 -102t211 53q25 211 25 236q-1 25 -13 41t-63 16h-103l-8 16l39 144h8l66 -2h47l104 -2h52z" />
    <glyph glyph-name="gbreve" unicode="&#x11f;" horiz-adv-x="1095" 
d="M680 1343q152 0 221 121l33 -6l47 -72q-41 -100 -124 -168t-202 -69q-119 0 -185 69t-83 168l68 72l34 6q39 -121 191 -121zM526 -18q-226 0 -342 112q-117 112 -116 316q0 294 168 464t456 170q123 0 340 -40l10 -23q-51 -123 -86 -297l-186 -12q18 70 18 100
q0 102 -157 102q-131 0 -202 -110t-71 -328q0 -289 199 -289q78 0 148 37l18 138q4 45 -7 59t-50 14h-76l-10 17l34 120h234q164 0 164 9l4 -72q-61 -35 -76 -127q-29 -158 -29 -223v-56l-18 -20q-141 -61 -367 -61z" />
    <glyph glyph-name="Gdotaccent" unicode="&#x120;" horiz-adv-x="1288" 
d="M850 1749q135 0 135 -138q0 -69 -51 -121t-123 -52q-135 0 -135 127q0 80 52 132t122 52zM1006 666q72 0 133 4t61 6l4 -78q-72 -45 -90 -168q-35 -178 -35 -278l2 -68l-20 -25q-61 -31 -197 -57t-262 -27q-250 1 -393 147t-143 402q0 371 205 592q206 221 552 221
q145 0 404 -49l8 -26q-61 -156 -100 -371l-199 -14q18 88 18 127q0 141 -202 141q-174 0 -270 -151t-97 -431q0 -195 69 -297t187 -102t211 53q25 211 25 236q-1 25 -13 41t-63 16h-103l-8 16l39 144h8l66 -2h47l104 -2h52z" />
    <glyph glyph-name="gdotaccent" unicode="&#x121;" horiz-adv-x="1095" 
d="M715 1458q135 0 135 -138q0 -69 -51 -121t-123 -52q-135 0 -135 127q0 80 52 132t122 52zM526 -18q-226 0 -342 112q-117 112 -116 316q0 294 168 464t456 170q123 0 340 -40l10 -23q-51 -123 -86 -297l-186 -12q18 70 18 100q0 102 -157 102q-131 0 -202 -110t-71 -328
q0 -289 199 -289q78 0 148 37l18 138q4 45 -7 59t-50 14h-76l-10 17l34 120h234q164 0 164 9l4 -72q-61 -35 -76 -127q-29 -158 -29 -223v-56l-18 -20q-141 -61 -367 -61z" />
    <glyph glyph-name="Gcommaaccent" unicode="&#x122;" horiz-adv-x="1288" 
d="M585 -104q67 0 107 -48t39 -140q0 -91 -85 -189t-216 -170l-76 61v35q61 43 101 100q39 57 39 109q0 84 -72 141l6 29q90 72 157 72zM1006 666q72 0 133 4t61 6l4 -78q-72 -45 -90 -168q-35 -178 -35 -278l2 -68l-20 -25q-61 -31 -197 -57t-262 -27q-250 1 -393 147
t-143 402q0 371 205 592q206 221 552 221q145 0 404 -49l8 -26q-61 -156 -100 -371l-199 -14q18 88 18 127q0 141 -202 141q-174 0 -270 -151t-97 -431q0 -195 69 -297t187 -102t211 53q25 211 25 236q-1 25 -13 41t-63 16h-103l-8 16l39 144h8l66 -2h47l104 -2h52z" />
    <glyph glyph-name="gcommaaccent" unicode="&#x123;" horiz-adv-x="1095" 
d="M515 -104q67 0 107 -48t40 -140q0 -91 -85 -189t-217 -170l-75 61v35q61 43 100 100t39 109q0 84 -72 141l6 29q90 72 157 72zM526 -18q-226 0 -342 112q-117 112 -116 316q0 294 168 464t456 170q123 0 340 -40l10 -23q-51 -123 -86 -297l-186 -12q18 70 18 100
q0 102 -157 102q-131 0 -202 -110t-71 -328q0 -289 199 -289q78 0 148 37l18 138q4 45 -7 59t-50 14h-76l-10 17l34 120h234q164 0 164 9l4 -72q-61 -35 -76 -127q-29 -158 -29 -223v-56l-18 -20q-141 -61 -367 -61z" />
    <glyph glyph-name="Hcircumflex" unicode="&#x124;" horiz-adv-x="1474" 
d="M1094 1497q-176 147 -211 170q-6 -4 -250 -170l-33 8l-49 84q74 61 340 316h41q199 -248 264 -316l-70 -84zM1090 0h-82l-242 -4l33 133q81 2 115 40t49 148l32 265q-139 2 -211 2l-278 -21q-43 -344 -43 -356v-33q4 -43 61 -43l72 6l8 -14l-33 -129q-167 6 -233 6
t-194 -5t-132 -13l31 131q94 20 125 58t43 148q96 786 96 809t-9 39t-52 17l-60 -2l-8 16l29 119q156 -4 237 -4l301 16l-26 -135q-75 -12 -99 -38t-36 -109l-49 -295q86 0 229 -2t252 12q45 340 45 362t-10 41q-10 18 -52 19l-61 -2l-8 16l31 119q217 -4 278 -4l266 16
l-24 -133q-74 -10 -101 -32t-37 -81q-39 -221 -83 -513t-43 -346q0 -54 15 -73t52 -20l74 6l8 -14l-33 -129q-137 6 -243 6z" />
    <glyph glyph-name="hcircumflex" unicode="&#x125;" horiz-adv-x="1251" 
d="M946 1206q-176 147 -211 170q-6 -4 -250 -170l-32 8l-50 84q74 61 340 316h41q199 -248 265 -316l-70 -84zM416 156q0 -43 49 -43l57 4l8 -13l-28 -108q-154 4 -208 4t-163 -5q-108 -5 -111 -7l25 112q77 14 101 43t34 109q74 596 74 615t-8 31t-43 13h-47l-9 15l25 102
q131 -4 199 -4l270 12l-23 -116q-59 -8 -78 -28t-30 -79l-37 -217q61 0 167 -2t198 8q33 244 32 263q0 19 -8 33t-43 13h-49l-8 15l24 102q4 -4 252 -4l228 12l-23 -114q-61 -10 -83 -26t-30 -62q-96 -553 -96 -650q0 -70 58 -69l55 4l8 -13l-29 -110q-106 4 -200 4h-70
l-178 -2h-41l27 113q66 1 94 31t37 110l24 192h-153l-217 -14q-33 -252 -33 -274z" />
    <glyph glyph-name="Hbar" unicode="&#x126;" horiz-adv-x="1474" 
d="M1034 907h-475l-24 -155q86 0 229 -2t252 12zM1090 0h-82l-242 -4l33 133q81 2 115 40t49 148l32 265q-139 2 -211 2l-278 -21q-43 -344 -43 -356v-33q4 -43 61 -43l72 6l8 -14l-33 -129q-167 6 -233 6t-194 -5t-132 -13l31 131q94 20 125 58t43 148l72 586h-185l-20 21
l16 98q88 -2 203 -2q10 86 10 108t-9 37q-9 16 -52 17l-60 -2l-8 16l29 119q156 -4 237 -4l301 16l-26 -135q-77 -12 -99 -37t-40 -135h469q12 78 12 102t-10 41q-10 18 -52 19l-61 -2l-8 16l31 119q217 -4 278 -4l266 16l-24 -133q-74 -10 -101 -32t-37 -81l-10 -55l166 4
l29 -28l-10 -95h-205q-96 -591 -96 -665t15 -93t52 -20l74 6l8 -14l-33 -129q-137 6 -243 6z" />
    <glyph glyph-name="hbar" unicode="&#x127;" horiz-adv-x="1251" 
d="M852 705h-360l-19 -109q61 0 167 -2t198 8zM416 156q0 -43 49 -43l57 4l8 -13l-28 -108q-154 4 -208 4t-163 -5q-108 -5 -111 -7l25 112q77 14 101 43t34 109l56 450h-150l-16 15l12 82q72 -2 166 -2q6 51 6 70t-8 31t-43 13h-47l-9 15l25 102q131 -4 199 -4l270 12
l-23 -116q-59 -8 -78 -28t-30 -79l-4 -16h358q6 51 6 69t-8 32t-43 13h-49l-8 15l24 102q4 -4 252 -4l228 12l-23 -114q-61 -10 -83 -26t-30 -62l-6 -33l133 4l25 -23l-6 -75h-168q-74 -453 -74 -523t58 -69l55 4l8 -13l-29 -110q-106 4 -200 4h-70l-178 -2h-41l27 113
q66 1 94 31t37 110l24 192h-153l-217 -14q-33 -252 -33 -274z" />
    <glyph glyph-name="Itilde" unicode="&#x128;" horiz-adv-x="722" 
d="M371 1577q-47 0 -146 -115h-22l-72 74l2 23l180 206l33 9q35 0 150 -34t139 -34q41 0 119 86l24 29h23l73 -76l-4 -21l-180 -208l-33 -9q-35 0 -149 35t-137 35zM461 213q0 -47 14 -65t49 -17l86 6l6 -14l-32 -129q-204 6 -308 6t-266 -18l31 131q88 18 122 53t44 119
q100 821 100 843t-9 38q-9 17 -52 18l-68 -2l-8 16l29 119l276 -4l285 16l-29 -135q-75 -10 -103 -32t-38 -79q-129 -748 -129 -870z" />
    <glyph glyph-name="itilde" unicode="&#x129;" horiz-adv-x="634" 
d="M295 1286q-48 0 -145 -115h-23l-72 74l2 23l181 207l32 8q35 0 150 -34t137 -34q43 0 119 86l26 29h23l74 -76l-4 -20l-181 -209l-32 -8q-35 1 -149 35t-138 34zM416 176q0 -37 11 -50t38 -13l67 4l7 -13l-29 -108q-176 4 -250 4l-240 -12l25 112q73 14 99 41t32 92
q78 615 78 633t-8 32t-43 13h-53q-6 12 -7 15l23 102l237 -4l248 12l-24 -116q-61 -8 -81 -24t-30 -62q-100 -541 -100 -658z" />
    <glyph glyph-name="Imacron" unicode="&#x12a;" horiz-adv-x="722" 
d="M797 1649l14 -29l-45 -158l-553 -4l-18 25l47 155q188 -2 303 -2zM461 213q0 -47 14 -65t49 -17l86 6l6 -14l-32 -129q-204 6 -308 6t-266 -18l31 131q88 18 122 53t44 119q100 821 100 843t-9 38q-9 17 -52 18l-68 -2l-8 16l29 119l276 -4l285 16l-29 -135
q-75 -10 -103 -32t-38 -79q-129 -748 -129 -870z" />
    <glyph glyph-name="imacron" unicode="&#x12b;" horiz-adv-x="634" 
d="M721 1358l14 -29l-45 -158l-553 -4l-18 25l47 156q188 -2 303 -2zM416 176q0 -37 11 -50t38 -13l67 4l7 -13l-29 -108q-176 4 -250 4l-240 -12l25 112q73 14 99 41t32 92q78 615 78 633t-8 32t-43 13h-53q-6 12 -7 15l23 102l237 -4l248 12l-24 -116q-61 -8 -81 -24
t-30 -62q-100 -541 -100 -658z" />
    <glyph glyph-name="Ibreve" unicode="&#x12c;" horiz-adv-x="722" 
d="M479 1450q-119 0 -185 69t-83 169l68 71l34 6q39 -121 191 -121t221 121l33 -6l47 -71q-41 -100 -124 -169t-202 -69zM461 213q0 -47 14 -65t49 -17l86 6l6 -14l-32 -129q-204 6 -308 6t-266 -18l31 131q88 18 122 53t44 119q100 821 100 843t-9 38q-9 17 -52 18l-68 -2
l-8 16l29 119l276 -4l285 16l-29 -135q-75 -10 -103 -32t-38 -79q-129 -748 -129 -870z" />
    <glyph glyph-name="ibreve" unicode="&#x12d;" horiz-adv-x="634" 
d="M426 1333q152 0 221 121l33 -6l47 -72q-41 -100 -124 -169t-202 -69t-185 70q-66 68 -83 168l68 72l35 6q38 -121 190 -121zM416 176q0 -37 11 -50t38 -13l67 4l7 -13l-29 -108q-176 4 -250 4l-240 -12l25 112q73 14 99 41t32 92q78 615 78 633t-8 32t-43 13h-53
q-6 12 -7 15l23 102l237 -4l248 12l-24 -116q-61 -8 -81 -24t-30 -62q-100 -541 -100 -658z" />
    <glyph glyph-name="Iogonek" unicode="&#x12e;" horiz-adv-x="722" 
d="M461 213q0 -47 14 -65t49 -17l86 6l6 -14l-32 -129q-41 2 -90 4q-98 -106 -132 -158t-32 -97q0 -44 22 -68q22 -23 74 -23q50 0 135 49l31 -59q-117 -102 -219 -138q-100 0 -159 44q-58 44 -58 118t51 148t168 186h-84q-119 0 -281 -18l31 131q88 18 122 53t44 119
q100 821 100 843t-9 38q-9 17 -52 18l-68 -2l-8 16l29 119l276 -4l285 16l-29 -135q-75 -10 -103 -32t-38 -79q-129 -748 -129 -870z" />
    <glyph glyph-name="iogonek" unicode="&#x12f;" horiz-adv-x="634" 
d="M416 176q0 -37 11 -50t38 -13l67 4l7 -13l-29 -108q-29 2 -61 2q-99 -106 -135 -160t-36 -98q0 -43 24 -67q22 -24 54 -23q68 0 150 47l31 -57q-115 -100 -218 -136q-98 0 -155 43q-58 43 -58 118t52 150t174 185h-72l-240 -12l25 112q73 14 99 41t32 92q78 615 78 633
t-8 32t-43 13h-53q-6 12 -7 15l23 102l237 -4l248 12l-24 -116q-61 -8 -81 -24t-30 -62q-100 -541 -100 -658z" />
    <glyph glyph-name="Idotaccent" unicode="&#x130;" horiz-adv-x="722" 
d="M524 1749q137 0 135 -138q0 -69 -51 -121t-121 -52q-137 0 -137 127q0 80 52 132t122 52zM461 213q0 -47 14 -65t49 -17l86 6l6 -14l-32 -129q-204 6 -308 6t-266 -18l31 131q88 18 122 53t44 119q100 821 100 843t-9 38q-9 17 -52 18l-68 -2l-8 16l29 119l276 -4l285 16
l-29 -135q-75 -10 -103 -32t-38 -79q-129 -748 -129 -870z" />
    <glyph glyph-name="dotlessi" unicode="&#x131;" horiz-adv-x="634" 
d="M416 176q0 -37 11 -50t38 -13l67 4l7 -13l-29 -108q-176 4 -250 4l-240 -12l25 112q73 14 99 41t32 92q78 615 78 633t-8 32t-43 13h-53q-6 12 -7 15l23 102l237 -4l248 12l-24 -116q-61 -8 -81 -24t-30 -62q-100 -541 -100 -658z" />
    <glyph glyph-name="IJ" unicode="&#x132;" horiz-adv-x="1378" 
d="M905 252q107 854 107 876t-8 39q-8 16 -50 17l-86 -6l-6 16l29 119l246 2q123 0 303 16l-29 -137q-66 -12 -86 -32t-31 -79q-80 -457 -131 -874q-27 -205 -141 -329t-338 -193l-47 82l8 22q131 83 183 177t77 284zM461 213q0 -47 14 -65t49 -17l86 6l6 -14l-32 -129
q-204 6 -308 6t-266 -18l31 131q88 18 122 53t44 119q100 821 100 843t-9 38q-9 17 -52 18l-68 -2l-8 16l29 119l276 -4l285 16l-29 -135q-75 -10 -103 -32t-38 -79q-129 -748 -129 -870z" />
    <glyph glyph-name="ij" unicode="&#x133;" horiz-adv-x="1181" 
d="M416 176q0 -37 11 -50t38 -13l67 4l7 -13l-29 -108q-176 4 -250 4l-240 -12l25 112q73 14 99 41t32 92q78 615 78 633t-8 32t-43 13h-53q-6 12 -7 15l23 102l237 -4l248 12l-24 -116q-61 -8 -81 -24t-30 -62q-100 -541 -100 -658zM901 868q0 18 -6 32t-39 13l-68 -6
l-8 17l25 100l211 2l266 12l-25 -118q-53 -10 -69 -24t-25 -62q-49 -268 -104 -678q-21 -158 -119 -255t-293 -151l-45 68l6 20q109 68 151 140t62 223q80 649 80 667z" />
    <glyph glyph-name="Jcircumflex" unicode="&#x134;" horiz-adv-x="657" 
d="M705 1444q-176 147 -211 170q-6 -4 -250 -170l-33 8l-49 84q74 61 340 315h41q199 -248 264 -315l-70 -84zM182 252q106 854 106 876t-8 38q-9 17 -49 18l-86 -6l-6 16l29 119l246 2q123 0 303 16l-29 -137q-66 -12 -86 -32t-31 -79q-80 -457 -131 -874
q-28 -205 -142 -329t-337 -193l-47 82l8 22q131 83 183 177t77 284z" />
    <glyph glyph-name="jcircumflex" unicode="&#x135;" horiz-adv-x="581" 
d="M631 1153q-176 147 -211 170q-6 -4 -250 -170l-33 8l-49 84q74 61 340 316h41q199 -248 264 -316l-69 -84zM238 868q0 18 -6 32t-39 13l-68 -6l-8 17l24 100l211 2l266 12l-24 -118q-54 -10 -70 -24t-24 -62q-49 -268 -105 -678q-21 -158 -119 -255t-292 -151l-45 68
l6 20q109 68 151 140t62 223q80 649 80 667z" />
    <glyph glyph-name="Kcommaaccent" unicode="&#x136;" horiz-adv-x="1308" 
d="M610 -104q66 0 106 -48t40 -140q0 -91 -85 -189t-216 -170l-76 61v35q61 43 100 100t39 109q0 84 -72 141l7 29q91 72 157 72zM985 -31q-117 0 -199 172l-235 506l10 43l322 324q72 72 71 119q0 47 -94 53l-6 14l31 125q166 -12 248 -12l233 10l10 -23l-28 -114
q-70 -27 -125 -71t-146 -140l-250 -264l209 -414q47 -94 92 -135t109 -45l12 -17l-28 -106q-201 -25 -236 -25zM307 1128q0 22 -9 39q-9 16 -52 17l-60 -2l-8 16l31 121q211 -6 266 -6l277 16l-27 -135q-77 -14 -105 -39t-36 -80l-119 -805q-4 -40 -4 -68t6 -42
q10 -29 57 -29l78 6l8 -14l-35 -129q-199 6 -284 6l-279 -6l35 129q88 14 119 45t41 117q100 821 100 843z" />
    <glyph glyph-name="kcommaaccent" unicode="&#x137;" horiz-adv-x="1128" 
d="M546 -104q66 0 106 -48t40 -140q0 -91 -85 -189t-216 -170l-76 61v35q61 43 101 100q39 57 39 109q0 84 -72 141l6 29q90 72 157 72zM797 870q0 37 -74 43l-6 13l24 106q143 -8 213 -8l205 8l8 -18l-24 -99q-59 -27 -109 -65t-119 -111l-176 -182l158 -311
q37 -72 73 -104t87 -38l12 -16l-27 -94q-176 -18 -219 -19q-92 0 -153 134l-189 395l11 39l245 235q60 55 60 92zM254 866q0 20 -8 32t-43 13h-47l-9 15l27 102q188 -4 229 -4l244 12l-24 -116q-63 -14 -86 -32t-27 -61l-90 -604q-4 -31 -4 -53t7 -40q7 -17 42 -17l61 4
l11 -13l-29 -108q-176 4 -248 4l-240 -4l29 108q73 12 97 36t30 93q78 613 78 633z" />
    <glyph glyph-name="kgreenlandic" unicode="&#x138;" horiz-adv-x="1128" 
d="M797 870q0 37 -74 43l-6 13l24 106q143 -8 213 -8l205 8l8 -18l-24 -99q-59 -27 -109 -65t-119 -111l-176 -182l158 -311q37 -72 73 -104t87 -38l12 -16l-27 -94q-176 -18 -219 -19q-92 0 -153 134l-189 395l11 39l245 235q60 55 60 92zM254 866q0 20 -8 32t-43 13h-47
l-9 15l27 102q188 -4 229 -4l244 12l-24 -116q-63 -14 -86 -32t-27 -61l-90 -604q-4 -31 -4 -53t7 -40q7 -17 42 -17l61 4l11 -13l-29 -108q-176 4 -248 4l-240 -4l29 108q73 12 97 36t30 93q78 613 78 633z" />
    <glyph glyph-name="Lacute" unicode="&#x139;" horiz-adv-x="1052" 
d="M827 1587l-10 -26q-236 -59 -469 -134l-26 19l-29 96l457 213l26 -10zM465 244q0 -51 22 -69q23 -17 86 -17q139 0 193 56q53 56 98 253l172 16l13 -18q-59 -221 -111 -461l-23 -20q-317 16 -511 16t-384 -20l33 137q78 12 110 49t42 125q102 813 102 835t-10 40
q-10 17 -53 18l-60 -2l-8 16l31 119l268 -4l309 16l-30 -141q-96 -12 -126 -38t-54 -153t-66 -415t-43 -338z" />
    <glyph glyph-name="lacute" unicode="&#x13a;" horiz-adv-x="917" 
d="M725 1296l-10 -26q-236 -59 -469 -133l-27 18l-29 96l457 213l27 -10zM418 203q0 -35 17 -48t65 -14q106 0 148 45t77 201l160 16l10 -16q-47 -182 -88 -381l-21 -18q-258 12 -428 12t-333 -16l28 118q63 10 89 40t34 100q76 606 76 625t-8 31t-43 13h-47l-9 15l25 102
l233 -4l277 12l-27 -125q-81 -10 -107 -28t-38 -78q-90 -489 -90 -602z" />
    <glyph glyph-name="Lcommaaccent" unicode="&#x13b;" horiz-adv-x="1052" 
d="M495 -104q67 0 107 -48t39 -140q0 -91 -85 -189t-216 -170l-76 61v35q61 43 101 100q39 57 38 109q0 84 -71 141l6 29q90 72 157 72zM465 244q0 -51 22 -69q23 -17 86 -17q139 0 193 56q53 56 98 253l172 16l13 -18q-59 -221 -111 -461l-23 -20q-317 16 -511 16t-384 -20
l33 137q78 12 110 49t42 125q102 813 102 835t-10 40q-10 17 -53 18l-60 -2l-8 16l31 119l268 -4l309 16l-30 -141q-96 -12 -126 -38t-54 -153t-66 -415t-43 -338z" />
    <glyph glyph-name="lcommaaccent" unicode="&#x13c;" horiz-adv-x="917" 
d="M440 -104q66 0 106 -48t40 -140q0 -91 -85 -189t-216 -170l-76 61v35q61 43 100 100t39 109q0 84 -72 141l7 29q91 72 157 72zM418 203q0 -35 17 -48t65 -14q106 0 148 45t77 201l160 16l10 -16q-47 -182 -88 -381l-21 -18q-258 12 -428 12t-333 -16l28 118q63 10 89 40
t34 100q76 606 76 625t-8 31t-43 13h-47l-9 15l25 102l233 -4l277 12l-27 -125q-81 -10 -107 -28t-38 -78q-90 -489 -90 -602z" />
    <glyph glyph-name="Lcaron" unicode="&#x13d;" horiz-adv-x="1091" 
d="M465 244q0 -51 22 -69q23 -17 86 -17q139 0 193 56q53 56 98 253l172 16l13 -18q-59 -221 -111 -461l-23 -20q-317 16 -511 16t-384 -20l33 137q78 12 110 49t42 125q102 813 102 835t-10 40q-10 17 -53 18l-60 -2l-8 16l31 119l268 -4l309 16l-30 -141q-96 -12 -126 -38
t-54 -153t-66 -415t-43 -338zM930 974q0 116 -15 308l205 29l17 -21q-31 -223 -78 -442l-98 -39l-31 8v157z" />
    <glyph glyph-name="lcaron" unicode="&#x13e;" horiz-adv-x="972" 
d="M961 1024l12 -16q-23 -174 -64 -346l-90 -35l-26 8q0 162 -17 366zM418 203q0 -35 17 -48t65 -14q106 0 148 45t77 201l160 16l10 -16q-47 -182 -88 -381l-21 -18q-258 12 -428 12t-333 -16l28 118q63 10 89 40t34 100q76 606 76 625t-8 31t-43 13h-47l-9 15l25 102
l233 -4l277 12l-27 -125q-81 -10 -107 -28t-38 -78q-90 -489 -90 -602z" />
    <glyph glyph-name="Ldot" unicode="&#x13f;" horiz-adv-x="1112" 
d="M961 811q-139 0 -140 133q0 82 51 136t124 55q143 0 143 -145q-1 -73 -53 -126t-125 -53zM465 244q0 -51 22 -69q23 -17 86 -17q139 0 193 56q53 56 98 253l172 16l13 -18q-59 -221 -111 -461l-23 -20q-317 16 -511 16t-384 -20l33 137q78 12 110 49t42 125
q102 813 102 835t-10 40q-10 17 -53 18l-60 -2l-8 16l31 119l268 -4l309 16l-30 -141q-96 -12 -126 -38t-54 -153t-66 -415t-43 -338z" />
    <glyph glyph-name="ldot" unicode="&#x140;" horiz-adv-x="1021" 
d="M866 874q138 0 138 -138q-1 -69 -50 -121t-120 -52q-135 0 -136 129q0 80 50 131t118 51zM418 203q0 -35 17 -48t65 -14q106 0 148 45t77 201l160 16l10 -16q-47 -182 -88 -381l-21 -18q-258 12 -428 12t-333 -16l28 118q63 10 89 40t34 100q76 606 76 625t-8 31t-43 13
h-47l-9 15l25 102l233 -4l277 12l-27 -125q-81 -10 -107 -28t-38 -78q-90 -489 -90 -602z" />
    <glyph glyph-name="Lslash" unicode="&#x141;" horiz-adv-x="1052" 
d="M465 256q0 -62 22 -81q23 -17 86 -17q139 0 193 56q53 56 98 253l172 16l13 -18q-59 -221 -111 -461l-23 -20q-317 16 -511 16t-384 -20l33 137q78 12 110 49t42 125l33 260l-144 -70l-18 4l-37 127l219 109q49 383 49 405t-10 40q-10 17 -53 18l-60 -2l-8 16l31 119
l268 -4l309 16l-30 -141q-96 -12 -126 -38t-46 -110t-35 -202l227 112l17 -8l36 -125l-307 -153q-55 -346 -55 -408z" />
    <glyph glyph-name="lslash" unicode="&#x142;" horiz-adv-x="933" 
d="M434 211q0 -43 18 -56t64 -14q106 0 150 46q43 46 75 200l160 16l12 -16q-49 -182 -90 -381l-20 -18q-256 12 -427 12t-335 -16l29 118q63 10 89 40t34 100l20 166l-94 -46l-19 5l-34 114l165 80q37 287 37 306t-8 31t-43 13h-47l-8 15l24 102l234 -4l278 12l-28 -125
q-82 -10 -108 -28t-36 -78q0 -2 -26 -143l178 83l14 -6l37 -114l-254 -121q-41 -250 -41 -293z" />
    <glyph glyph-name="Nacute" unicode="&#x143;" horiz-adv-x="1441" 
d="M1159 1587l-10 -26q-236 -59 -469 -134l-27 19l-28 96l456 213l27 -10zM408 184q0 -20 10 -38t49 -17l84 4l10 -12l-35 -129q-170 8 -260 8t-241 -16l32 135q117 14 133 129q127 825 127 855q1 31 -25 53t-122 32l-12 20l26 115q131 -10 232 -10l190 8q172 -371 420 -850
h21q72 633 71 645q0 68 -53 68l-68 -2l-6 16l29 123q168 -8 256 -8l235 12l-26 -135q-66 -10 -99 -39t-40 -90l-160 -1092l-217 -26q-205 442 -459 923h-18q-84 -662 -84 -682z" />
    <glyph glyph-name="nacute" unicode="&#x144;" horiz-adv-x="1230" 
d="M995 1296l-10 -26q-236 -59 -469 -133l-27 18l-28 96l457 213l26 -10zM264 850q0 20 -20 38t-99 25l-12 19l23 100q111 -8 202 -8l172 8q145 -295 326 -616h16q51 434 52 442q0 55 -45 55l-56 -2l-6 13l25 108q150 -8 288 -8t142 10l-21 -116q-55 -8 -81 -31t-33 -70
l-125 -831l-211 -21q-184 360 -355 656h-18l-55 -435q-4 -41 7 -57t44 -16l63 2l11 -11l-29 -110q-152 6 -221 6l-219 -12l28 116q98 12 109 101q98 625 98 645z" />
    <glyph glyph-name="Ncommaaccent" unicode="&#x145;" horiz-adv-x="1441" 
d="M658 -104q66 0 107 -48q40 -48 40 -140q0 -91 -85 -189t-216 -170l-76 61v35q61 43 100 100t39 109q0 84 -71 141l6 29q90 72 156 72zM408 184q0 -20 10 -38t49 -17l84 4l10 -12l-35 -129q-170 8 -260 8t-241 -16l32 135q117 14 133 129q127 825 127 855q1 31 -25 53
t-122 32l-12 20l26 115q131 -10 232 -10l190 8q172 -371 420 -850h21q72 633 71 645q0 68 -53 68l-68 -2l-6 16l29 123q168 -8 256 -8l235 12l-26 -135q-66 -10 -99 -39t-40 -90l-160 -1092l-217 -26q-205 442 -459 923h-18q-84 -662 -84 -682z" />
    <glyph glyph-name="ncommaaccent" unicode="&#x146;" horiz-adv-x="1230" 
d="M581 -104q67 0 107 -48t39 -140q0 -91 -85 -189t-216 -170l-76 61v35q61 43 101 100q39 57 38 109q0 84 -71 141l6 29q90 72 157 72zM264 850q0 20 -20 38t-99 25l-12 19l23 100q111 -8 202 -8l172 8q145 -295 326 -616h16q51 434 52 442q0 55 -45 55l-56 -2l-6 13
l25 108q150 -8 288 -8t142 10l-21 -116q-55 -8 -81 -31t-33 -70l-125 -831l-211 -21q-184 360 -355 656h-18l-55 -435q-4 -41 7 -57t44 -16l63 2l11 -11l-29 -110q-152 6 -221 6l-219 -12l28 116q98 12 109 101q98 625 98 645z" />
    <glyph glyph-name="Ncaron" unicode="&#x147;" horiz-adv-x="1441" 
d="M881 1653l266 119l31 -9l41 -84l-347 -254h-38q-209 195 -281 254l57 84l35 9zM408 184q0 -20 10 -38t49 -17l84 4l10 -12l-35 -129q-170 8 -260 8t-241 -16l32 135q117 14 133 129q127 825 127 855q1 31 -25 53t-122 32l-12 20l26 115q131 -10 232 -10l190 8
q172 -371 420 -850h21q72 633 71 645q0 68 -53 68l-68 -2l-6 16l29 123q168 -8 256 -8l235 12l-26 -135q-66 -10 -99 -39t-40 -90l-160 -1092l-217 -26q-205 442 -459 923h-18q-84 -662 -84 -682z" />
    <glyph glyph-name="ncaron" unicode="&#x148;" horiz-adv-x="1230" 
d="M739 1362l267 119l30 -8l41 -84l-346 -254h-39q-209 195 -280 254l57 84l35 8zM264 850q0 20 -20 38t-99 25l-12 19l23 100q111 -8 202 -8l172 8q145 -295 326 -616h16q51 434 52 442q0 55 -45 55l-56 -2l-6 13l25 108q150 -8 288 -8t142 10l-21 -116q-55 -8 -81 -31
t-33 -70l-125 -831l-211 -21q-184 360 -355 656h-18l-55 -435q-4 -41 7 -57t44 -16l63 2l11 -11l-29 -110q-152 6 -221 6l-219 -12l28 116q98 12 109 101q98 625 98 645z" />
    <glyph glyph-name="Eng" unicode="&#x14a;" horiz-adv-x="1439" 
d="M408 184q0 -20 10 -38t49 -17l84 4l10 -12l-35 -129q-166 8 -290 8l-209 -16l32 133q63 8 94 42q30 34 44 113q121 803 120 833q1 29 -25 51t-120 34l-12 20l26 115q152 -10 226 -10l194 8q160 -356 422 -856h19q76 639 75 661q0 57 -55 58l-70 -2l-4 12l29 127
q197 -8 258 -8l231 12l-24 -135q-70 -8 -101 -38t-40 -91l-129 -887q-33 -204 -146 -324t-334 -186l-49 84l8 23q178 80 246 235q-195 410 -432 862h-18q-84 -666 -84 -686z" />
    <glyph glyph-name="eng" unicode="&#x14b;" horiz-adv-x="1228" 
d="M266 850q0 23 -20 41t-99 27l-12 16l23 100q131 -8 200 -8l170 6q121 -250 330 -624h19l51 438q4 39 -7 54t-40 15l-54 -2l-6 13l25 106q176 -6 227 -6l199 8l-23 -114q-55 -8 -81 -30t-31 -71l-101 -682q-27 -160 -123 -255t-286 -146l-45 69l6 19q145 66 194 180
q-160 315 -336 627h-18l-59 -447q-4 -41 7 -57t44 -16l67 4l9 -13l-29 -108q-143 6 -256 6l-178 -12l28 112q51 6 76 32t35 85l92 600q2 10 2 33z" />
    <glyph glyph-name="Omacron" unicode="&#x14c;" horiz-adv-x="1329" 
d="M1100 1649l14 -29l-45 -158l-553 -4l-18 25l47 155q188 -2 303 -2zM584 -25q-236 -1 -377 147t-141 400q0 365 198 590q199 225 524 225q242 0 383 -143t142 -395q-1 -365 -203 -595t-526 -229zM637 150q164 0 260 160t96 450q0 180 -70 282q-71 102 -194 103
q-162 0 -256 -162t-94 -448q0 -180 68 -283q69 -102 190 -102z" />
    <glyph glyph-name="omacron" unicode="&#x14d;" horiz-adv-x="1128" 
d="M965 1358l14 -29l-45 -158l-553 -4l-19 25l48 156q188 -2 303 -2zM500 -18q-201 0 -318 114t-116 318q0 290 160 460t431 170q205 0 322 -112t117 -314q0 -288 -163 -462t-433 -174zM543 137q123 0 191 117t69 336q0 139 -51 211t-144 71q-118 0 -186 -116t-68 -336
q0 -139 50 -211t139 -72z" />
    <glyph glyph-name="Obreve" unicode="&#x14e;" horiz-adv-x="1329" 
d="M776 1653q152 0 221 139l37 -8l45 -70q-41 -108 -125 -182t-202 -74t-183 74q-66 74 -82 182l64 70l37 8q36 -139 188 -139zM584 -25q-236 -1 -377 147t-141 400q0 365 198 590q199 225 524 225q242 0 383 -143t142 -395q-1 -365 -203 -595t-526 -229zM637 150
q164 0 260 160t96 450q0 180 -70 282q-71 102 -194 103q-162 0 -256 -162t-94 -448q0 -180 68 -283q69 -102 190 -102z" />
    <glyph glyph-name="obreve" unicode="&#x14f;" horiz-adv-x="1128" 
d="M672 1333q152 0 221 121l33 -6l47 -72q-41 -100 -124 -169t-202 -69t-185 70q-66 68 -83 168l67 72l35 6q39 -121 191 -121zM500 -18q-201 0 -318 114t-116 318q0 290 160 460t431 170q205 0 322 -112t117 -314q0 -288 -163 -462t-433 -174zM543 137q123 0 191 117
t69 336q0 139 -51 211t-144 71q-118 0 -186 -116t-68 -336q0 -139 50 -211t139 -72z" />
    <glyph glyph-name="Ohungarumlaut" unicode="&#x150;" horiz-adv-x="1329" 
d="M1204 1618l-4 -25q-172 -94 -344 -200l-27 8l-47 69l310 275l24 -4zM860 1626l-2 -24q-174 -94 -346 -201l-27 10l-47 70l310 274l24 -2zM584 -25q-236 -1 -377 147t-141 400q0 365 198 590q199 225 524 225q242 0 383 -143t142 -395q-1 -365 -203 -595t-526 -229z
M637 150q164 0 260 160t96 450q0 180 -70 282q-71 102 -194 103q-162 0 -256 -162t-94 -448q0 -180 68 -283q69 -102 190 -102z" />
    <glyph glyph-name="ohungarumlaut" unicode="&#x151;" horiz-adv-x="1128" 
d="M1067 1327l-4 -24q-172 -94 -344 -201l-27 8l-47 70l309 274l25 -4zM723 1335l-2 -24q-174 -94 -346 -201l-27 10l-47 70l309 274l25 -2zM500 -18q-201 0 -318 114t-116 318q0 290 160 460t431 170q205 0 322 -112t117 -314q0 -288 -163 -462t-433 -174zM543 137
q123 0 191 117t69 336q0 139 -51 211t-144 71q-118 0 -186 -116t-68 -336q0 -139 50 -211t139 -72z" />
    <glyph glyph-name="OE" unicode="&#x152;" horiz-adv-x="1853" 
d="M632 150q124 0 187 61t82 203q70 541 70 567q0 82 -46 125t-197 43t-247 -168t-96 -453q0 -182 62 -280q61 -98 185 -98zM1139 226q0 -32 15 -48t99 -16q176 0 234 40q57 40 96 193l174 15l12 -21q-57 -184 -100 -381l-22 -22q-371 18 -542 18t-319 -13t-204 -14
q-236 -1 -376 147t-140 400q0 362 193 584q194 221 515 221q61 0 217 -13t246 -13q348 0 621 36l14 -22q-57 -182 -92 -373l-189 -12q16 72 17 124q0 52 -45 69t-151 17t-124 -9q-16 -10 -22 -58l-54 -317l181 -2l233 16l14 -18l-51 -176q-158 6 -254 6l-153 -13
q-43 -313 -43 -345z" />
    <glyph glyph-name="oe" unicode="&#x153;" horiz-adv-x="1533" 
d="M526 131q94 0 142 44q47 44 61 144q51 414 51 433q0 63 -35 96t-149 33t-184 -124t-70 -343q0 -283 184 -283zM950 190q0 -24 12 -36t113 -12q102 0 147 30q44 31 74 147l160 13l10 -19q-45 -145 -80 -305l-22 -18q-297 14 -442 14q-144 0 -266 -11t-167 -11
q-199 0 -317 116t-117 318q0 288 155 454t425 166q49 0 178 -10t315 -10t406 28l12 -18q-47 -150 -73 -297l-173 -12q12 53 13 92q0 39 -35 53t-117 14t-95 -8t-17 -41l-43 -231l147 -2l188 14l13 -18l-41 -148q-125 4 -205 4l-125 -10q-33 -221 -33 -246z" />
    <glyph glyph-name="Racute" unicode="&#x154;" horiz-adv-x="1277" 
d="M1049 1587l-11 -26q-236 -59 -469 -134l-26 19l-29 96l457 213l26 -10zM903 969q0 190 -268 190q-21 0 -33 -13t-76 -450l176 -20q201 82 201 293zM463 208q0 -34 16 -56t111 -23l6 -12l-35 -125q-176 6 -264 6l-287 -10l35 135q86 12 119 46t43 120q100 813 100 837
t-8 41q-8 16 -43 17l-70 -4l-10 16l33 123q170 -6 248 -6l286 10q211 0 330 -81t119 -226q0 -283 -303 -432l133 -293q45 -94 91 -135t108 -41l12 -19l-27 -106l-239 -23q-129 0 -195 191l-123 360h-149q-37 -276 -37 -310z" />
    <glyph glyph-name="racute" unicode="&#x155;" horiz-adv-x="1103" 
d="M909 1296l-10 -26q-236 -59 -469 -133l-27 18l-28 96l456 213l27 -10zM758 743q0 141 -207 142q-17 0 -23 -7q-17 -19 -61 -327l139 -16q53 18 103 69q49 51 49 139zM1024 786q0 -215 -244 -335l103 -209q68 -137 157 -138l13 -20l-25 -92l-211 -17q-113 0 -164 148
l-94 268h-115q-26 -184 -26 -214t13 -46t93 -18l4 -11l-28 -108q-162 4 -232 4l-250 -10l29 118q69 8 95 36t36 96l74 598q6 43 -2 59t-37 16l-57 -2l-11 15l29 104q147 -4 211 -4l250 10q184 0 287 -64q102 -65 102 -184z" />
    <glyph glyph-name="Rcommaaccent" unicode="&#x156;" horiz-adv-x="1277" 
d="M577 -104q67 0 107 -48t39 -140q0 -91 -85 -189t-216 -170l-76 61v35q61 43 100 100t39 109q0 84 -71 141l6 29q90 72 157 72zM903 969q0 190 -268 190q-21 0 -33 -13t-76 -450l176 -20q201 82 201 293zM463 208q0 -34 16 -56t111 -23l6 -12l-35 -125q-176 6 -264 6
l-287 -10l35 135q86 12 119 46t43 120q100 813 100 837t-8 41q-8 16 -43 17l-70 -4l-10 16l33 123q170 -6 248 -6l286 10q211 0 330 -81t119 -226q0 -283 -303 -432l133 -293q45 -94 91 -135t108 -41l12 -19l-27 -106l-239 -23q-129 0 -195 191l-123 360h-149
q-37 -276 -37 -310z" />
    <glyph glyph-name="rcommaaccent" unicode="&#x157;" horiz-adv-x="1103" 
d="M515 -104q67 0 107 -48t40 -140q0 -91 -85 -189t-217 -170l-75 61v35q61 43 100 100t39 109q0 84 -72 141l6 29q90 72 157 72zM758 743q0 141 -207 142q-17 0 -23 -7q-17 -19 -61 -327l139 -16q53 18 103 69q49 51 49 139zM1024 786q0 -215 -244 -335l103 -209
q68 -137 157 -138l13 -20l-25 -92l-211 -17q-113 0 -164 148l-94 268h-115q-26 -184 -26 -214t13 -46t93 -18l4 -11l-28 -108q-162 4 -232 4l-250 -10l29 118q69 8 95 36t36 96l74 598q6 43 -2 59t-37 16l-57 -2l-11 15l29 104q147 -4 211 -4l250 10q184 0 287 -64
q102 -65 102 -184z" />
    <glyph glyph-name="Rcaron" unicode="&#x158;" horiz-adv-x="1277" 
d="M770 1653l266 119l31 -9l41 -84l-346 -254h-39q-209 195 -281 254l58 84l35 9zM903 969q0 190 -268 190q-21 0 -33 -13t-76 -450l176 -20q201 82 201 293zM463 208q0 -34 16 -56t111 -23l6 -12l-35 -125q-176 6 -264 6l-287 -10l35 135q86 12 119 46t43 120
q100 813 100 837t-8 41q-8 16 -43 17l-70 -4l-10 16l33 123q170 -6 248 -6l286 10q211 0 330 -81t119 -226q0 -283 -303 -432l133 -293q45 -94 91 -135t108 -41l12 -19l-27 -106l-239 -23q-129 0 -195 191l-123 360h-149q-37 -276 -37 -310z" />
    <glyph glyph-name="rcaron" unicode="&#x159;" horiz-adv-x="1103" 
d="M653 1362l267 119l30 -8l41 -84l-346 -254h-39q-209 195 -280 254l57 84l35 8zM758 743q0 141 -207 142q-17 0 -23 -7q-17 -19 -61 -327l139 -16q53 18 103 69q49 51 49 139zM1024 786q0 -215 -244 -335l103 -209q68 -137 157 -138l13 -20l-25 -92l-211 -17
q-113 0 -164 148l-94 268h-115q-26 -184 -26 -214t13 -46t93 -18l4 -11l-28 -108q-162 4 -232 4l-250 -10l29 118q69 8 95 36t36 96l74 598q6 43 -2 59t-37 16l-57 -2l-11 15l29 104q147 -4 211 -4l250 10q184 0 287 -64q102 -65 102 -184z" />
    <glyph glyph-name="Sacute" unicode="&#x15a;" horiz-adv-x="1069" 
d="M989 1587l-10 -26q-236 -59 -469 -134l-27 19l-28 96l456 213l27 -10zM260 319q0 -165 175 -165q112 0 174 48q63 48 63 118t-54 114q-54 45 -138 91q-131 71 -194 117q-145 106 -145 255q0 190 158 315t403 125q176 0 310 -39l43 -14l12 -27q-55 -164 -90 -350l-154 -12
l-16 12q14 70 14 107q0 74 -41 106t-131 31q-90 0 -148 -47q-59 -47 -59 -125t144 -164q20 -12 99 -53t113 -65t87 -66q96 -84 96 -211q0 -199 -160 -322t-426 -123q-184 0 -360 78l-15 29q55 176 78 346l170 14q-8 -57 -8 -123z" />
    <glyph glyph-name="sacute" unicode="&#x15b;" horiz-adv-x="923" 
d="M870 1296l-10 -26q-236 -59 -469 -133l-26 18l-29 96l457 213l26 -10zM346 -18q-161 0 -305 61l-12 25q45 143 63 268l156 12q-4 -37 -4 -84q0 -125 147 -125q76 0 122 32t46 81t-43 82q-43 32 -119 70q-75 38 -107 56t-77 56q-88 68 -88 176q0 156 134 254t345 98
q154 0 299 -43l10 -24q-45 -129 -73 -275l-144 -10l-14 10q10 49 10 74q0 100 -135 101q-68 0 -113 -32t-45 -81q0 -61 121 -125l66 -33q154 -76 205 -136q50 -60 51 -138q0 -160 -134 -255t-362 -95z" />
    <glyph glyph-name="Scircumflex" unicode="&#x15c;" horiz-adv-x="1069" 
d="M903 1444q-176 147 -211 170q-6 -4 -250 -170l-32 8l-50 84q74 61 340 315h41q199 -248 265 -315l-70 -84zM260 319q0 -165 175 -165q112 0 174 48q63 48 63 118t-54 114q-54 45 -138 91q-131 71 -194 117q-145 106 -145 255q0 190 158 315t403 125q176 0 310 -39l43 -14
l12 -27q-55 -164 -90 -350l-154 -12l-16 12q14 70 14 107q0 74 -41 106t-131 31q-90 0 -148 -47q-59 -47 -59 -125t144 -164q20 -12 99 -53t113 -65t87 -66q96 -84 96 -211q0 -199 -160 -322t-426 -123q-184 0 -360 78l-15 29q55 176 78 346l170 14q-8 -57 -8 -123z" />
    <glyph glyph-name="scircumflex" unicode="&#x15d;" horiz-adv-x="923" 
d="M795 1153q-176 147 -211 170q-6 -4 -250 -170l-33 8l-49 84q74 61 340 316h41q199 -248 264 -316l-70 -84zM346 -18q-161 0 -305 61l-12 25q45 143 63 268l156 12q-4 -37 -4 -84q0 -125 147 -125q76 0 122 32t46 81t-43 82q-43 32 -119 70q-75 38 -107 56t-77 56
q-88 68 -88 176q0 156 134 254t345 98q154 0 299 -43l10 -24q-45 -129 -73 -275l-144 -10l-14 10q10 49 10 74q0 100 -135 101q-68 0 -113 -32t-45 -81q0 -61 121 -125l66 -33q154 -76 205 -136q50 -60 51 -138q0 -160 -134 -255t-362 -95z" />
    <glyph glyph-name="Scedilla" unicode="&#x15e;" horiz-adv-x="1069" 
d="M260 319q0 -165 175 -165q112 0 174 48q63 48 63 118t-54 114q-54 45 -138 91q-131 71 -194 117q-145 106 -145 255q0 190 158 315t403 125q176 0 310 -39l43 -14l12 -27q-55 -164 -90 -350l-154 -12l-16 12q14 70 14 107q0 74 -41 106t-131 31q-90 0 -148 -47
q-59 -47 -59 -125t144 -164q20 -12 99 -53t113 -65t87 -66q96 -84 96 -211q0 -180 -132 -300t-360 -140l-26 -70q172 -104 172 -188t-92 -146q-92 -63 -203 -63q-53 1 -100 25t-47 60t94 136h16v-34q0 -26 22 -54q23 -28 63 -27t65 19t24 47q0 49 -153 139l59 151
q-180 4 -348 78l-15 29q55 176 78 346l170 14q-8 -57 -8 -123z" />
    <glyph glyph-name="scedilla" unicode="&#x15f;" horiz-adv-x="923" 
d="M244 264q0 -125 147 -125q76 0 122 32t46 81t-43 82q-43 32 -119 70q-75 38 -107 56t-77 56q-88 68 -88 176q0 156 134 254t345 98q154 0 299 -43l10 -24q-45 -129 -73 -275l-144 -10l-14 10q10 49 10 74q0 100 -135 101q-68 0 -113 -32t-45 -81q0 -61 121 -125l66 -33
q154 -76 205 -136q50 -60 51 -138q0 -140 -106 -232t-287 -112l-31 -78q172 -104 172 -188t-92 -146q-92 -63 -203 -63q-53 1 -100 25t-48 60q0 36 95 136h16v-34q0 -26 22 -54t62 -27t66 19q25 18 24 47q0 49 -153 139l61 158q-159 0 -299 61l-12 25q45 143 63 268l156 12
q-4 -37 -4 -84z" />
    <glyph glyph-name="Scaron" unicode="&#x160;" horiz-adv-x="1069" 
d="M711 1653l266 119l31 -9l41 -84l-347 -254h-38q-209 195 -281 254l57 84l35 9zM260 319q0 -165 175 -165q112 0 174 48q63 48 63 118t-54 114q-54 45 -138 91q-131 71 -194 117q-145 106 -145 255q0 190 158 315t403 125q176 0 310 -39l43 -14l12 -27q-55 -164 -90 -350
l-154 -12l-16 12q14 70 14 107q0 74 -41 106t-131 31q-90 0 -148 -47q-59 -47 -59 -125t144 -164q20 -12 99 -53t113 -65t87 -66q96 -84 96 -211q0 -199 -160 -322t-426 -123q-184 0 -360 78l-15 29q55 176 78 346l170 14q-8 -57 -8 -123z" />
    <glyph glyph-name="scaron" unicode="&#x161;" horiz-adv-x="923" 
d="M602 1362l266 119l31 -8l41 -84l-346 -254h-39q-209 195 -281 254l58 84l35 8zM346 -18q-161 0 -305 61l-12 25q45 143 63 268l156 12q-4 -37 -4 -84q0 -125 147 -125q76 0 122 32t46 81t-43 82q-43 32 -119 70q-75 38 -107 56t-77 56q-88 68 -88 176q0 156 134 254
t345 98q154 0 299 -43l10 -24q-45 -129 -73 -275l-144 -10l-14 10q10 49 10 74q0 100 -135 101q-68 0 -113 -32t-45 -81q0 -61 121 -125l66 -33q154 -76 205 -136q50 -60 51 -138q0 -160 -134 -255t-362 -95z" />
    <glyph glyph-name="Tcedilla" unicode="&#x162;" horiz-adv-x="1128" 
d="M995 903q0 168 -27 209q-28 41 -173 47q-29 -160 -81 -514t-52 -408t22 -79t70 -25l108 6l6 -10l-34 -137q-158 6 -275 8l-35 -90q172 -104 172 -188t-92 -146q-92 -63 -203 -63q-53 1 -100 25t-47 60t94 136h17v-34q-1 -26 21 -54t63 -27t65 19t25 47q0 49 -154 139
l68 176l-299 -12l32 133q131 12 169 49t55 168l100 821q-115 -4 -151 -19q-36 -14 -50 -28q-42 -41 -80 -221l-170 -12q47 238 76 436l27 22l192 -22h619l207 22l18 -22l-33 -424l-170 -12v24z" />
    <glyph glyph-name="tcedilla" unicode="&#x163;" horiz-adv-x="976" 
d="M831 684q0 129 -22 162q-23 33 -125 37q-98 -582 -98 -686q0 -80 76 -80l88 4l4 -8l-29 -121q-123 6 -219 8l-35 -90q172 -104 172 -188t-92 -146q-92 -63 -203 -63q-53 1 -100 25t-47 60t94 136h16v-34q0 -26 22 -54q23 -28 63 -27t65 19t24 47q0 49 -153 139l67 176
l-260 -12l27 118q106 8 138 37t44 121l76 619q-110 -4 -142 -38t-65 -173l-158 -10q39 199 60 362l22 20l170 -18h510l178 18l17 -20l-29 -352l-156 -10v22z" />
    <glyph glyph-name="Tcaron" unicode="&#x164;" horiz-adv-x="1128" 
d="M719 1653l266 119l31 -9l41 -84l-346 -254h-39q-209 195 -281 254l58 84l34 9zM995 903q0 168 -27 209q-28 41 -173 47q-29 -160 -81 -514t-52 -408t22 -79t70 -25l108 6l6 -10l-34 -137q-242 8 -347 8l-333 -12l32 133q131 12 169 49t55 168l100 821q-115 -4 -151 -19
q-36 -14 -50 -28q-42 -41 -80 -221l-170 -12q47 238 76 436l27 22l192 -22h619l207 22l18 -22l-33 -424l-170 -12v24z" />
    <glyph glyph-name="tcaron" unicode="&#x165;" horiz-adv-x="976" 
d="M606 1362l266 119l31 -8l41 -84l-346 -254h-39q-209 195 -280 254l57 84l35 8zM831 684q0 129 -22 162q-23 33 -125 37q-98 -582 -98 -686q0 -80 76 -80l88 4l4 -8l-29 -121q-207 8 -295 8l-291 -12l27 118q106 8 138 37t44 121l76 619q-110 -4 -142 -38t-65 -173
l-158 -10q39 199 60 362l22 20l170 -18h510l178 18l17 -20l-29 -352l-156 -10v22z" />
    <glyph glyph-name="Tbar" unicode="&#x166;" horiz-adv-x="1128" 
d="M995 903q0 168 -27 209q-28 41 -173 47q-29 -150 -76 -475l155 6l29 -28l-8 -95h-195q-38 -279 -38 -331t22 -78q22 -25 70 -25l108 6l6 -10l-34 -137q-242 8 -347 8l-333 -12l32 133q131 12 169 49t55 168l26 227h-170l-20 19l14 98l191 -2l59 479q-115 -4 -151 -19
q-36 -14 -50 -28q-42 -41 -80 -221l-170 -12q47 238 76 436l27 22l192 -22h619l207 22l18 -22l-33 -424l-170 -12v24z" />
    <glyph glyph-name="tbar" unicode="&#x167;" horiz-adv-x="976" 
d="M831 684q0 129 -22 162q-23 33 -125 37q-51 -311 -61 -383l161 6l29 -29l-8 -94l-199 -2q-20 -150 -20 -184q0 -80 76 -80l88 4l4 -8l-29 -121q-207 8 -295 8l-291 -12l27 118q106 8 138 37t44 121l14 115h-188l-20 20l16 99l207 -2l47 387q-110 -4 -142 -38t-65 -173
l-158 -10q39 199 60 362l22 20l170 -18h510l178 18l17 -20l-29 -352l-156 -10v22z" />
    <glyph glyph-name="Utilde" unicode="&#x168;" horiz-adv-x="1288" 
d="M674 1577q-47 0 -146 -115h-22l-72 74l2 23l180 206l33 9q35 0 150 -34t139 -34q41 0 119 86l24 29h23l74 -76l-4 -21l-181 -208l-32 -9q-35 0 -149 35t-138 35zM432 395q0 -237 207 -237q238 0 270 270q76 666 76 694t-7 44q-7 17 -44 18l-66 -4l-4 8l33 131
q156 -6 229 -6l240 14l-29 -135q-77 -14 -99 -32t-28 -70l-80 -641q-29 -231 -171 -353t-386 -121q-420 0 -419 363q0 34 46 400t46 390t-8 39q-8 16 -50 17l-61 -4l-4 8l35 131q168 -6 282 -6l238 14l-31 -137q-63 -8 -89 -32t-34 -77l-88 -596q-4 -59 -4 -90z" />
    <glyph glyph-name="utilde" unicode="&#x169;" horiz-adv-x="1091" 
d="M543 1286q-47 0 -146 -115h-22l-72 74l2 23l180 207l33 8q35 0 150 -34t139 -34q41 0 119 86l24 29h23l74 -76l-5 -20l-180 -209l-33 -8q-35 1 -149 35t-137 34zM389 311q0 -170 154 -170q176 0 200 189q59 508 59 532t-5 36q-6 13 -35 13l-51 -2l-2 6l28 115
q129 -6 191 -6l209 10l-27 -116q-60 -14 -78 -28t-22 -50l-60 -482q-49 -377 -461 -376q-356 0 -356 278l70 606q0 18 -6 32t-37 13l-51 -2l-3 6l29 115q145 -6 248 -6l203 10l-27 -119q-51 -6 -71 -23t-27 -58l-68 -463q-4 -21 -4 -60z" />
    <glyph glyph-name="Umacron" unicode="&#x16a;" horiz-adv-x="1288" 
d="M1112 1649l14 -29l-45 -158l-553 -4l-18 25l47 155q188 -2 303 -2zM432 395q0 -237 207 -237q238 0 270 270q76 666 76 694t-7 44q-7 17 -44 18l-66 -4l-4 8l33 131q156 -6 229 -6l240 14l-29 -135q-77 -14 -99 -32t-28 -70l-80 -641q-29 -231 -171 -353t-386 -121
q-420 0 -419 363q0 34 46 400t46 390t-8 39q-8 16 -50 17l-61 -4l-4 8l35 131q168 -6 282 -6l238 14l-31 -137q-63 -8 -89 -32t-34 -77l-88 -596q-4 -59 -4 -90z" />
    <glyph glyph-name="umacron" unicode="&#x16b;" horiz-adv-x="1091" 
d="M977 1358l14 -29l-45 -158l-553 -4l-18 25l47 156q188 -2 303 -2zM389 311q0 -170 154 -170q176 0 200 189q59 508 59 532t-5 36q-6 13 -35 13l-51 -2l-2 6l28 115q129 -6 191 -6l209 10l-27 -116q-60 -14 -78 -28t-22 -50l-60 -482q-49 -377 -461 -376q-356 0 -356 278
l70 606q0 18 -6 32t-37 13l-51 -2l-3 6l29 115q145 -6 248 -6l203 10l-27 -119q-51 -6 -71 -23t-27 -58l-68 -463q-4 -21 -4 -60z" />
    <glyph glyph-name="Ubreve" unicode="&#x16c;" horiz-adv-x="1288" 
d="M793 1663q152 0 221 139l37 -8l45 -70q-41 -108 -125 -182t-202 -74q-117 0 -183 74t-82 182l63 70l37 8q37 -139 189 -139zM432 395q0 -237 207 -237q238 0 270 270q76 666 76 694t-7 44q-7 17 -44 18l-66 -4l-4 8l33 131q156 -6 229 -6l240 14l-29 -135
q-77 -14 -99 -32t-28 -70l-80 -641q-29 -231 -171 -353t-386 -121q-420 0 -419 363q0 34 46 400t46 390t-8 39q-8 16 -50 17l-61 -4l-4 8l35 131q168 -6 282 -6l238 14l-31 -137q-63 -8 -89 -32t-34 -77l-88 -596q-4 -59 -4 -90z" />
    <glyph glyph-name="ubreve" unicode="&#x16d;" horiz-adv-x="1091" 
d="M660 1333q152 0 221 121l32 -6l48 -72q-41 -100 -124 -169t-202 -69t-185 70q-66 68 -83 168l67 72l35 6q39 -121 191 -121zM389 311q0 -170 154 -170q176 0 200 189q59 508 59 532t-5 36q-6 13 -35 13l-51 -2l-2 6l28 115q129 -6 191 -6l209 10l-27 -116
q-60 -14 -78 -28t-22 -50l-60 -482q-49 -377 -461 -376q-356 0 -356 278l70 606q0 18 -6 32t-37 13l-51 -2l-3 6l29 115q145 -6 248 -6l203 10l-27 -119q-51 -6 -71 -23t-27 -58l-68 -463q-4 -21 -4 -60z" />
    <glyph glyph-name="Uring" unicode="&#x16e;" horiz-adv-x="1288" 
d="M631 1560q0 83 62 146t150 63q165 0 165 -165q-1 -78 -62 -147t-148 -68q-167 0 -167 171zM813 1497q90 0 90 86q0 74 -82 74q-41 0 -63 -24q-22 -25 -23 -61q1 -36 25 -56t53 -19zM432 395q0 -237 207 -237q238 0 270 270q76 666 76 694t-7 44q-7 17 -44 18l-66 -4l-4 8
l33 131q156 -6 229 -6l240 14l-29 -135q-77 -14 -99 -32t-28 -70l-80 -641q-29 -231 -171 -353t-386 -121q-420 0 -419 363q0 34 46 400t46 390t-8 39q-8 16 -50 17l-61 -4l-4 8l35 131q168 -6 282 -6l238 14l-31 -137q-63 -8 -89 -32t-34 -77l-88 -596q-4 -59 -4 -90z" />
    <glyph glyph-name="uring" unicode="&#x16f;" horiz-adv-x="1091" 
d="M496 1269q0 83 62 146t150 64q166 0 164 -166q0 -78 -61 -147t-148 -68q-167 0 -167 171zM678 1206q90 0 90 86q0 74 -82 74q-42 0 -64 -24t-22 -60t24 -56t54 -20zM389 311q0 -170 154 -170q176 0 200 189q59 508 59 532t-5 36q-6 13 -35 13l-51 -2l-2 6l28 115
q129 -6 191 -6l209 10l-27 -116q-60 -14 -78 -28t-22 -50l-60 -482q-49 -377 -461 -376q-356 0 -356 278l70 606q0 18 -6 32t-37 13l-51 -2l-3 6l29 115q145 -6 248 -6l203 10l-27 -119q-51 -6 -71 -23t-27 -58l-68 -463q-4 -21 -4 -60z" />
    <glyph glyph-name="Uhungarumlaut" unicode="&#x170;" horiz-adv-x="1288" 
d="M1249 1618l-4 -25q-172 -94 -344 -200l-27 8l-47 69l310 275l24 -4zM905 1626l-2 -24q-174 -94 -346 -201l-27 10l-47 70l310 274l24 -2zM432 395q0 -237 207 -237q238 0 270 270q76 666 76 694t-7 44q-7 17 -44 18l-66 -4l-4 8l33 131q156 -6 229 -6l240 14l-29 -135
q-77 -14 -99 -32t-28 -70l-80 -641q-29 -231 -171 -353t-386 -121q-420 0 -419 363q0 34 46 400t46 390t-8 39q-8 16 -50 17l-61 -4l-4 8l35 131q168 -6 282 -6l238 14l-31 -137q-63 -8 -89 -32t-34 -77l-88 -596q-4 -59 -4 -90z" />
    <glyph glyph-name="uhungarumlaut" unicode="&#x171;" horiz-adv-x="1091" 
d="M1100 1327l-4 -24q-172 -94 -344 -201l-27 8l-47 70l309 274l25 -4zM756 1335l-2 -24q-174 -94 -346 -201l-27 10l-47 70l309 274l25 -2zM389 311q0 -170 154 -170q176 0 200 189q59 508 59 532t-5 36q-6 13 -35 13l-51 -2l-2 6l28 115q129 -6 191 -6l209 10l-27 -116
q-60 -14 -78 -28t-22 -50l-60 -482q-49 -377 -461 -376q-356 0 -356 278l70 606q0 18 -6 32t-37 13l-51 -2l-3 6l29 115q145 -6 248 -6l203 10l-27 -119q-51 -6 -71 -23t-27 -58l-68 -463q-4 -21 -4 -60z" />
    <glyph glyph-name="Uogonek" unicode="&#x172;" horiz-adv-x="1288" 
d="M545 -334q0 72 45 146t151 182q-74 -18 -168 -19q-420 0 -419 363q0 34 46 400t46 390t-8 39q-8 16 -50 17l-61 -4l-4 8l35 131q168 -6 282 -6l238 14l-31 -137q-63 -8 -89 -32t-34 -77l-88 -596q-4 -63 -4 -92q0 -236 207 -235q238 0 270 270q76 666 76 694t-7 45
q-7 16 -44 17l-66 -4l-4 8l33 131q156 -6 229 -6l240 14l-29 -135q-79 -16 -101 -34t-26 -68l-80 -641q-26 -207 -168 -361t-192 -226t-51 -116q-1 -45 23 -69t57 -23q66 0 151 49l31 -59q-117 -102 -217 -138q-103 0 -161 44t-58 116z" />
    <glyph glyph-name="uogonek" unicode="&#x173;" horiz-adv-x="1091" 
d="M391 311q0 -170 154 -170q174 0 200 189q57 510 57 532t-5 36q-6 13 -33 13l-51 -2l-4 6l30 115q129 -6 191 -6l209 10l-27 -116q-60 -14 -78 -28t-22 -50l-60 -482q-20 -170 -145 -297q-186 -193 -186 -262q0 -27 18 -44t54 -17t114 39l27 -53q-96 -82 -181 -109
q-86 0 -136 35t-50 96q0 94 160 248q-61 -12 -135 -12q-354 0 -357 278l70 608q0 18 -6 30t-37 13l-51 -2l-5 6l31 115q145 -6 248 -6l203 10l-27 -119q-51 -6 -73 -23t-27 -58l-66 -463q-4 -23 -4 -60z" />
    <glyph glyph-name="Wcircumflex" unicode="&#x174;" horiz-adv-x="1910" 
d="M1176 1794q0 2 118 -106t162 -148l-59 -84l-35 -8l-236 119l-266 -119l-31 8l-38 84l344 254h41zM366 1313q101 0 308 18l8 -16l-25 -123q-96 -8 -128 -28t-31 -77q0 -141 71 -823h29q31 74 130 319t177 423q2 16 2 40t-8 46q-4 51 -34 70t-99 22l-8 14l33 121
q177 -6 277 -6t316 18l9 -16l-25 -123q-100 -8 -131 -28t-31 -74q0 -113 74 -826h29q344 803 344 873q-1 27 -21 38t-69 11h-74l-8 14l30 125q162 -12 283 -12l219 6l-28 -133q-47 -8 -69 -28t-48 -79l-473 -1069l-326 -41l-78 740h-20l-287 -699l-328 -41
q-84 696 -145 1088q-12 67 -41 95t-84 32l-8 14l31 121q156 -6 257 -6z" />
    <glyph glyph-name="wcircumflex" unicode="&#x175;" horiz-adv-x="1626" 
d="M999 1503q0 1 118 -107t163 -147l-59 -84l-35 -8l-236 119l-266 -119l-31 8l-39 84l344 254h41zM1376 877q0 20 -14 27t-53 7h-56l-8 15l27 106q137 -8 233 -8l187 4l-25 -115q-35 -6 -53 -22t-39 -60l-365 -823l-313 -33l-57 541h-17l-213 -508l-313 -33
q-74 573 -117 836q-10 53 -32 76t-64 26l-8 13l26 104q129 -6 201 -6l281 12l6 -12l-21 -106q-67 -6 -97 -64t-30 -129q0 -176 52 -500h26l234 563v60q-4 37 -27 51t-80 14l-6 13l27 104q154 -6 233 -6l279 12l8 -12l-23 -106q-79 -8 -103 -22t-24 -56l54 -615h26
q258 598 258 652z" />
    <glyph glyph-name="Ycircumflex" unicode="&#x176;" horiz-adv-x="1191" 
d="M821 1794q-1 2 117 -106t164 -148l-60 -84l-34 -8l-236 119l-266 -119l-31 8l-39 84l344 254h41zM531 0q-90 0 -324 -23l31 138q116 16 154 53q54 54 59 278q0 53 -33 138l-146 389q-37 102 -74 145q-38 43 -122 62l-6 10l32 129q176 -6 254 -6l320 16l8 -18l-27 -117
q-71 -4 -97 -18t-26 -62t115 -409h17l198 344q39 67 39 103t-94 42l-4 10l31 117l262 -8l205 8l6 -14l-31 -123q-82 -27 -136 -81t-134 -181q-243 -380 -252 -399q-10 -19 -14 -33t-8 -23q-3 -7 -6 -25t-5 -27t-5 -32t-5 -45t-12 -85q-10 -62 6 -91t71 -29l99 6l6 -10
l-35 -137q-227 8 -317 8z" />
    <glyph glyph-name="ycircumflex" unicode="&#x177;" horiz-adv-x="1048" 
d="M711 1503q-1 1 117 -107t163 -147l-59 -84l-35 -8l-235 119l-267 -119l-30 8l-39 84l344 254h41zM627 177q0 -24 11 -42t56 -18l82 4l6 -8l-28 -121q-203 8 -289 8l-279 -16l27 118q98 10 138 44t40 195q0 38 -29 105l-126 308q-27 68 -60 102t-98 51l-6 8l28 113
q158 -4 222 -4l270 12l8 -16l-22 -100q-93 -4 -95 -47q0 -22 86 -304h19l141 242q33 55 33 76q0 31 -74 31l-4 10l25 102l229 -6l172 6l6 -12l-26 -109q-63 -23 -110 -67q-46 -45 -108 -135l-188 -285q-33 -47 -39 -92q-18 -129 -18 -153z" />
    <glyph glyph-name="Ydieresis" unicode="&#x178;" horiz-adv-x="1191" 
d="M573 1446q-106 0 -106 106q0 68 43 112t102 44q115 0 115 -106q0 -68 -43 -112t-111 -44zM968 1708q115 0 113 -116q0 -58 -43 -102t-102 -44q-115 0 -115 106q0 68 44 112t103 44zM531 0q-90 0 -324 -23l31 138q116 16 154 53q54 54 59 278q0 53 -33 138l-146 389
q-37 102 -74 145q-38 43 -122 62l-6 10l32 129q176 -6 254 -6l320 16l8 -18l-27 -117q-71 -4 -97 -18t-26 -62t115 -409h17l198 344q39 67 39 103t-94 42l-4 10l31 117l262 -8l205 8l6 -14l-31 -123q-82 -27 -136 -81t-134 -181q-243 -380 -252 -399q-10 -19 -14 -33t-8 -23
q-3 -7 -6 -25t-5 -27t-5 -32t-5 -45t-12 -85q-10 -62 6 -91t71 -29l99 6l6 -10l-35 -137q-227 8 -317 8z" />
    <glyph glyph-name="Zacute" unicode="&#x179;" horiz-adv-x="1148" 
d="M1053 1587l-11 -26q-236 -59 -469 -134l-26 19l-29 96l457 213l26 -10zM997 33l-39 -39l-778 12l-153 -16l-37 90l825 1087l-252 -16q-125 -8 -176 -61t-80 -199l-172 -12q59 252 86 440l25 20l350 -22l580 -8l24 -82q-377 -446 -844 -1082l310 23q98 8 160 82t106 235
l172 15q-76 -268 -107 -467z" />
    <glyph glyph-name="zacute" unicode="&#x17a;" horiz-adv-x="989" 
d="M926 1296l-11 -26q-236 -59 -469 -133l-26 18l-29 96l457 213l26 -10zM860 27l-33 -31l-659 8l-127 -12l-37 78l664 825l-187 -14q-100 -8 -139 -47t-61 -148l-160 -12q49 207 69 356l21 14l289 -16l495 -4l25 -72q-313 -350 -678 -821l233 21q82 8 131 63q48 55 80 176
l160 15q-61 -221 -86 -379z" />
    <glyph glyph-name="Zdotaccent" unicode="&#x17b;" horiz-adv-x="1148" 
d="M780 1749q137 0 135 -138q0 -69 -51 -121t-123 -52q-135 0 -135 127q0 80 52 132t122 52zM997 33l-39 -39l-778 12l-153 -16l-37 90l825 1087l-252 -16q-125 -8 -176 -61t-80 -199l-172 -12q59 252 86 440l25 20l350 -22l580 -8l24 -82q-377 -446 -844 -1082l310 23
q98 8 160 82t106 235l172 15q-76 -268 -107 -467z" />
    <glyph glyph-name="zdotaccent" unicode="&#x17c;" horiz-adv-x="989" 
d="M666 1458q135 0 135 -138q0 -69 -51 -121t-123 -52q-135 0 -135 127q0 80 52 132t122 52zM860 27l-33 -31l-659 8l-127 -12l-37 78l664 825l-187 -14q-100 -8 -139 -47t-61 -148l-160 -12q49 207 69 356l21 14l289 -16l495 -4l25 -72q-313 -350 -678 -821l233 21
q82 8 131 63q48 55 80 176l160 15q-61 -221 -86 -379z" />
    <glyph glyph-name="Zcaron" unicode="&#x17d;" horiz-adv-x="1148" 
d="M766 1653l266 119l31 -9l41 -84l-346 -254h-39q-209 195 -281 254l58 84l34 9zM997 33l-39 -39l-778 12l-153 -16l-37 90l825 1087l-252 -16q-125 -8 -176 -61t-80 -199l-172 -12q59 252 86 440l25 20l350 -22l580 -8l24 -82q-377 -446 -844 -1082l310 23q98 8 160 82
t106 235l172 15q-76 -268 -107 -467z" />
    <glyph glyph-name="zcaron" unicode="&#x17e;" horiz-adv-x="989" 
d="M649 1362l266 119l31 -8l41 -84l-346 -254h-39q-209 195 -280 254l57 84l35 8zM860 27l-33 -31l-659 8l-127 -12l-37 78l664 825l-187 -14q-100 -8 -139 -47t-61 -148l-160 -12q49 207 69 356l21 14l289 -16l495 -4l25 -72q-313 -350 -678 -821l233 21q82 8 131 63
q48 55 80 176l160 15q-61 -221 -86 -379z" />
    <glyph glyph-name="florin" unicode="&#x192;" horiz-adv-x="829" 
d="M731 1225q74 -1 134 -19t61 -43q0 -31 -20 -103t-38 -95l-30 -2q-90 111 -176 110q-47 0 -74 -31q-27 -30 -35 -68t-25 -231l250 2l8 -10l-20 -125l-248 4l-41 -538q-10 -164 -122 -285t-267 -121q-63 0 -122 27q-58 27 -58 61t21 99q22 66 42 90h29q16 -55 56 -92
t89 -37q100 0 109 182l33 541q-2 49 -30 62t-124 13l-6 13l14 94l158 25l10 116q6 139 135 250t287 111z" />
    <glyph glyph-name="Aringacute" unicode="&#x1fa;" horiz-adv-x="1243" 
d="M1047 1849l-11 -22q-211 -53 -422 -121l-24 16l-25 88l410 191l24 -8zM794 1706q148 0 148 -151q0 -71 -55 -132t-133 -61q-152 0 -152 154q0 76 56 133t136 57zM766 1460q82 0 82 78q0 66 -74 66q-37 0 -57 -20q-21 -20 -21 -55q0 -33 22 -51t48 -18zM598 584
q55 0 145 8l-57 457h-29l-196 -465h137zM908 0q-118 0 -306 -16l-8 16l24 121q98 8 131 24q31 15 31 51t-22 228q-53 4 -164 4t-205 -14l-65 -158q-20 -49 -21 -76q0 -53 80 -53h86l6 -12l-29 -127q-162 12 -286 12l-240 -6l31 135q88 14 145 137l471 1037l322 34l22 -10
q94 -707 158 -1059q12 -74 41 -104t94 -37l8 -14l-28 -119q-158 6 -276 6z" />
    <glyph glyph-name="aringacute" unicode="&#x1fb;" horiz-adv-x="1085" 
d="M905 1559l-10 -23q-211 -53 -422 -121l-24 17l-25 88l410 190l24 -8zM477 1235q1 76 57 133t135 57q148 0 148 -150q0 -71 -55 -132t-133 -62q-152 0 -152 154zM723 1257q0 66 -75 66t-77 -75q-1 -34 21 -51t49 -17q82 0 82 77zM522 463q55 0 111 6l-43 332h-27
l-147 -338h106zM293 150q0 -37 59 -37h66l6 -13l-23 -108q-139 8 -241 8l-205 -4l27 115q70 12 112 100l375 805l311 28l19 -12q84 -569 131 -811q8 -57 32 -82t70 -28l8 -13l-24 -102q-131 4 -209 4l-287 -12l-8 12l20 109q80 6 104 17q24 10 24 38t-15 151l-141 2
q-92 0 -150 -8l-45 -108q-16 -33 -16 -51z" />
    <glyph glyph-name="AEacute" unicode="&#x1fc;" horiz-adv-x="1732" 
d="M1348 1722l-2 -28q-197 -123 -388 -264l-30 8l-62 80q174 170 344 350l27 -2zM526 649l123 8l125 17l2 370h-31zM770 322v188l-174 -21l-170 -32l-109 -201q-54 -102 -9 -119q22 -8 81 -8l62 -10l-29 -131q-2 2 -60 4t-140 5q-81 3 -132 3l-147 -6l6 121q23 4 61 46
t76 105l508 873q-6 45 -45 45l-62 -4l-12 18l33 123q0 -6 482 -6t644 24l15 -22q-57 -180 -93 -371l-186 -14q16 72 16 124t-46 70t-151 18t-127 -11q-22 -12 -22 -46l9 -372l192 24l195 39l18 -22l-45 -170l-182 -13l-176 -22l8 -254q2 -73 30 -105t91 -32q162 0 214 40
t93 193l174 15l14 -19q-59 -184 -102 -381l-23 -22q4 4 -260 9t-403 5t-312 -16l-8 16l23 123q174 14 176 129q4 41 4 70z" />
    <glyph glyph-name="aeacute" unicode="&#x1fd;" horiz-adv-x="1495" 
d="M1159 1432l-2 -29q-197 -123 -387 -264l-31 8l-61 80q174 170 344 350l27 -2zM471 508l191 20l2 269h-31zM657 252v129l-139 -16l-137 -31l-72 -133q-25 -43 -24 -58q0 -29 86 -28l39 -11l-25 -112q-219 10 -410 4l7 108q47 10 110 109l391 659q-2 39 -37 39l-47 -2
l-12 15l27 106q223 -4 534 -4t449 18l10 -18q-43 -150 -72 -299l-176 -12q14 55 15 93q0 38 -36 52t-132 14t-97 -43l11 -264l145 21l164 35l18 -23l-39 -147l-153 -15l-133 -16l8 -172q2 -109 92 -109q123 0 163 32t72 149l162 12l13 -19q-49 -147 -84 -307l-21 -18l-244 6
q-203 4 -311 4l-268 -12l-8 12l20 109q74 7 105 29t33 59q3 37 3 55z" />
    <glyph glyph-name="Oslashacute" unicode="&#x1fe;" horiz-adv-x="1329" 
d="M1055 1597l-11 -26q-236 -59 -469 -133l-26 18l-29 96l457 213l27 -10zM379 535q0 -115 29 -205l450 776q-59 39 -129 39q-162 1 -256 -161t-94 -449zM637 150q164 0 260 160t96 450q0 123 -35 215l-456 -782q55 -43 135 -43zM66 522q0 365 198 590q199 225 524 225
q100 0 191 -28l111 184l124 -59l7 -27l-103 -168q195 -143 195 -440q0 -365 -203 -594t-526 -230q-104 0 -195 31l-137 -225l-123 59l-6 21l133 217q-190 145 -190 444z" />
    <glyph glyph-name="oslashacute" unicode="&#x1ff;" horiz-adv-x="1128" 
d="M354 420q0 -68 8 -109l340 537q-39 25 -94 24q-118 0 -186 -116t-68 -336zM883 1356l-11 -27q-236 -59 -469 -133l-26 18l-29 97l457 213l26 -11zM543 137q123 0 191 117t69 336q0 68 -12 117l-345 -541q42 -29 97 -29zM66 414q0 290 160 460t431 170q92 0 160 -20
l105 154l122 -62l3 -22l-95 -140q143 -111 144 -336q0 -288 -163 -462t-433 -174q-84 0 -162 22l-123 -182l-119 63l-4 17l115 170q-141 115 -141 342z" />
    <glyph glyph-name="Scommaaccent" unicode="&#x218;" horiz-adv-x="1069" 
d="M421 -104q67 0 107 -48t39 -140q0 -91 -85 -189t-216 -170l-76 61v35q61 43 101 100q39 57 39 109q0 84 -72 141l6 29q90 72 157 72zM260 319q0 -165 175 -165q112 0 174 48q63 48 63 118t-54 114q-54 45 -138 91q-131 71 -194 117q-145 106 -145 255q0 190 158 315
t403 125q176 0 310 -39l43 -14l12 -27q-55 -164 -90 -350l-154 -12l-16 12q14 70 14 107q0 74 -41 106t-131 31q-90 0 -148 -47q-59 -47 -59 -125t144 -164q20 -12 99 -53t113 -65t87 -66q96 -84 96 -211q0 -199 -160 -322t-426 -123q-184 0 -360 78l-15 29q55 176 78 346
l170 14q-8 -57 -8 -123z" />
    <glyph glyph-name="scommaaccent" unicode="&#x219;" horiz-adv-x="923" 
d="M384 -104q66 0 106 -48t40 -140q0 -91 -85 -189t-216 -170l-75 61v35q61 43 100 100t39 109q0 84 -72 141l6 29q90 72 157 72zM346 -18q-161 0 -305 61l-12 25q45 143 63 268l156 12q-4 -37 -4 -84q0 -125 147 -125q76 0 122 32t46 81t-43 82q-43 32 -119 70
q-75 38 -107 56t-77 56q-88 68 -88 176q0 156 134 254t345 98q154 0 299 -43l10 -24q-45 -129 -73 -275l-144 -10l-14 10q10 49 10 74q0 100 -135 101q-68 0 -113 -32t-45 -81q0 -61 121 -125l66 -33q154 -76 205 -136q50 -60 51 -138q0 -160 -134 -255t-362 -95z" />
    <glyph glyph-name="uni021A" unicode="&#x21a;" horiz-adv-x="1128" 
d="M472 -104q67 0 107 -48q39 -48 39 -140q0 -91 -84 -189t-217 -170l-75 61v35q61 43 100 100t39 109q0 84 -72 141l6 29q90 72 157 72zM995 903q0 168 -27 209q-28 41 -173 47q-29 -160 -81 -514t-52 -408t22 -79t70 -25l108 6l6 -10l-34 -137q-242 8 -347 8l-333 -12
l32 133q131 12 169 49t55 168l100 821q-115 -4 -151 -19q-36 -14 -50 -28q-42 -41 -80 -221l-170 -12q47 238 76 436l27 22l192 -22h619l207 22l18 -22l-33 -424l-170 -12v24z" />
    <glyph glyph-name="uni021B" unicode="&#x21b;" horiz-adv-x="976" 
d="M427 -104q67 0 107 -48t40 -140q0 -91 -86 -189q-85 -98 -216 -170l-75 61v35q61 43 100 100t39 109q0 84 -72 141l6 29q90 72 157 72zM831 684q0 129 -22 162q-23 33 -125 37q-98 -582 -98 -686q0 -80 76 -80l88 4l4 -8l-29 -121q-207 8 -295 8l-291 -12l27 118
q106 8 138 37t44 121l76 619q-110 -4 -142 -38t-65 -173l-158 -10q39 199 60 362l22 20l170 -18h510l178 18l17 -20l-29 -352l-156 -10v22z" />
    <glyph glyph-name="dotlessj" unicode="&#x237;" horiz-adv-x="581" 
d="M238 868q0 18 -6 32t-39 13l-68 -6l-8 17l24 100l211 2l266 12l-24 -118q-54 -10 -70 -24t-24 -62q-49 -268 -105 -678q-21 -158 -119 -255t-292 -151l-45 68l6 20q109 68 151 140t62 223q80 649 80 667z" />
    <glyph glyph-name="circumflex" unicode="&#x2c6;" 
d="M700 1087q-176 147 -211 170q-6 -4 -249 -170l-33 9l-49 84q74 61 340 315h41q199 -248 264 -315l-70 -84z" />
    <glyph glyph-name="caron" unicode="&#x2c7;" 
d="M176 1391l72 86l33 6q86 -78 215 -174q178 115 258 174l28 -6l52 -86q-143 -127 -349 -324h-41q-141 181 -268 324z" />
    <glyph glyph-name="breve" unicode="&#x2d8;" 
d="M498 1315q152 0 221 139l37 -8l45 -70q-41 -108 -125 -182t-202 -74t-184 74t-81 182l63 70l37 8q37 -139 189 -139z" />
    <glyph glyph-name="dotaccent" unicode="&#x2d9;" 
d="M518 1487q137 0 135 -138q0 -69 -52 -121t-122 -52q-71 0 -103 34t-32 103q0 70 52 122t122 52z" />
    <glyph glyph-name="ring" unicode="&#x2da;" 
d="M519 1493q165 0 165 -166q0 -77 -61 -146t-149 -69q-167 0 -167 171q1 83 63 147t149 63zM489 1221q88 0 89 86q0 74 -80 73q-86 0 -86 -84q0 -37 24 -56t53 -19z" />
    <glyph glyph-name="ogonek" unicode="&#x2db;" horiz-adv-x="788" 
d="M70 -326q0 80 68 166q69 86 243 246h111q-156 -164 -202 -226t-46 -110q0 -96 84 -96q61 0 147 49l31 -59q-117 -102 -219 -138q-101 0 -159 44t-58 124z" />
    <glyph glyph-name="tilde" unicode="&#x2dc;" 
d="M362 1219q-46 0 -145 -115h-22l-72 74l2 22l180 207l33 8q34 0 149 -34t140 -33q41 0 118 86l25 28h23l73 -76l-4 -20l-180 -209l-33 -8q-35 0 -149 35t-138 35z" />
    <glyph glyph-name="hungarumlaut" unicode="&#x2dd;" 
d="M805 1386l2 -22q-154 -131 -305 -277l-27 3l-65 57l254 340l24 2zM508 1386l2 -22q-154 -131 -303 -277l-29 3l-65 57l256 340l22 2z" />
    <glyph glyph-name="dotbelowcomb" unicode="&#x323;" horiz-adv-x="622" 
d="M203 -432q-144 0 -144 143q1 72 53 125t126 53q74 1 108 -35t33 -108q0 -72 -51 -125t-125 -53z" />
    <glyph glyph-name="Delta" unicode="&#x394;" horiz-adv-x="1204" 
d="M676 1063h-33l-364 -868h493zM-16 0l-19 27l580 1278l338 34h18q106 -799 205 -1325l-19 -14h-1103z" />
    <glyph glyph-name="Delta" unicode="&#x2206;" horiz-adv-x="1204" 
d="M676 1063h-33l-364 -868h493zM-16 0l-19 27l580 1278l338 34h18q106 -799 205 -1325l-19 -14h-1103z" />
    <glyph glyph-name="Omega" unicode="&#x3a9;" horiz-adv-x="1695" 
d="M924 1141q-164 1 -258 -145t-94 -438t167 -460l-47 -104l-110 18l-539 -22l-31 39q12 115 27 393l147 14v-30q0 -120 30 -176t114 -60l141 -8q-209 204 -209 496t201 487t493 194q244 0 395 -136t151 -344t-99 -385q-98 -177 -277 -314l160 10q82 4 128 59t79 193l149 14
q-51 -240 -73 -407l-39 -39l-539 22l-114 -16l-21 100q317 283 318 666q0 188 -66 284t-184 95z" />
    <glyph glyph-name="Omega" unicode="&#x2126;" horiz-adv-x="1695" 
d="M924 1141q-164 1 -258 -145t-94 -438t167 -460l-47 -104l-110 18l-539 -22l-31 39q12 115 27 393l147 14v-30q0 -120 30 -176t114 -60l141 -8q-209 204 -209 496t201 487t493 194q244 0 395 -136t151 -344t-99 -385q-98 -177 -277 -314l160 10q82 4 128 59t79 193l149 14
q-51 -240 -73 -407l-39 -39l-539 22l-114 -16l-21 100q317 283 318 666q0 188 -66 284t-184 95z" />
    <glyph glyph-name="pi" unicode="&#x3c0;" horiz-adv-x="1230" 
d="M225 1034l717 -20q86 0 311 20l11 -14l-45 -143l-15 -15q-113 0 -151 -20t-54 -92q-73 -352 -73 -428t32 -105t113 -29l16 -30q-4 -27 -85 -105t-105 -78q-131 0 -184 66q-39 49 -39 137q0 31 4 66q72 532 72 559t-14 40t-86 13q-73 0 -91 -14t-29 -76
q-61 -389 -100 -698l-18 -203l-19 -21l-246 -45l-12 29q12 27 79 455t67 480q1 52 -11 66q-12 15 -51 15t-108 -78l-25 -25l-16 -2l-52 86l2 17l173 178z" />
    <glyph glyph-name="Wgrave" unicode="&#x1e80;" horiz-adv-x="1910" 
d="M811 1561l-10 26l51 158l27 10q236 -117 456 -213l-26 -96l-29 -19q-250 79 -469 134zM366 1313q101 0 308 18l8 -16l-25 -123q-96 -8 -128 -28t-31 -77q0 -141 71 -823h29q31 74 130 319t177 423q2 16 2 40t-8 46q-4 51 -34 70t-99 22l-8 14l33 121q177 -6 277 -6
t316 18l9 -16l-25 -123q-100 -8 -131 -28t-31 -74q0 -113 74 -826h29q344 803 344 873q-1 27 -21 38t-69 11h-74l-8 14l30 125q162 -12 283 -12l219 6l-28 -133q-47 -8 -69 -28t-48 -79l-473 -1069l-326 -41l-78 740h-20l-287 -699l-328 -41q-84 696 -145 1088
q-12 67 -41 95t-84 32l-8 14l31 121q156 -6 257 -6z" />
    <glyph glyph-name="wgrave" unicode="&#x1e81;" horiz-adv-x="1626" 
d="M651 1270l-10 26l51 158l27 10q236 -117 457 -213l-27 -96l-29 -18q-178 55 -469 133zM1376 877q0 20 -14 27t-53 7h-56l-8 15l27 106q137 -8 233 -8l187 4l-25 -115q-35 -6 -53 -22t-39 -60l-365 -823l-313 -33l-57 541h-17l-213 -508l-313 -33q-74 573 -117 836
q-10 53 -32 76t-64 26l-8 13l26 104q129 -6 201 -6l281 12l6 -12l-21 -106q-67 -6 -97 -64t-30 -129q0 -176 52 -500h26l234 563v60q-4 37 -27 51t-80 14l-6 13l27 104q154 -6 233 -6l279 12l8 -12l-23 -106q-79 -8 -103 -22t-24 -56l54 -615h26q258 598 258 652z" />
    <glyph glyph-name="Wacute" unicode="&#x1e82;" horiz-adv-x="1910" 
d="M1432 1587l-11 -26q-236 -59 -469 -134l-26 19l-29 96l457 213l26 -10zM366 1313q101 0 308 18l8 -16l-25 -123q-96 -8 -128 -28t-31 -77q0 -141 71 -823h29q31 74 130 319t177 423q2 16 2 40t-8 46q-4 51 -34 70t-99 22l-8 14l33 121q177 -6 277 -6t316 18l9 -16
l-25 -123q-100 -8 -131 -28t-31 -74q0 -113 74 -826h29q344 803 344 873q-1 27 -21 38t-69 11h-74l-8 14l30 125q162 -12 283 -12l219 6l-28 -133q-47 -8 -69 -28t-48 -79l-473 -1069l-326 -41l-78 740h-20l-287 -699l-328 -41q-84 696 -145 1088q-12 67 -41 95t-84 32
l-8 14l31 121q156 -6 257 -6z" />
    <glyph glyph-name="wacute" unicode="&#x1e83;" horiz-adv-x="1626" 
d="M1233 1296l-10 -26q-236 -59 -469 -133l-27 18l-29 96l457 213l27 -10zM1376 877q0 20 -14 27t-53 7h-56l-8 15l27 106q137 -8 233 -8l187 4l-25 -115q-35 -6 -53 -22t-39 -60l-365 -823l-313 -33l-57 541h-17l-213 -508l-313 -33q-74 573 -117 836q-10 53 -32 76t-64 26
l-8 13l26 104q129 -6 201 -6l281 12l6 -12l-21 -106q-67 -6 -97 -64t-30 -129q0 -176 52 -500h26l234 563v60q-4 37 -27 51t-80 14l-6 13l27 104q154 -6 233 -6l279 12l8 -12l-23 -106q-79 -8 -103 -22t-24 -56l54 -615h26q258 598 258 652z" />
    <glyph glyph-name="Wdieresis" unicode="&#x1e84;" horiz-adv-x="1910" 
d="M926 1446q-106 0 -107 106q0 68 43 112t103 44q115 0 114 -106q-1 -68 -43 -112t-110 -44zM1320 1708q114 0 114 -116q0 -58 -43 -102t-103 -44q-115 0 -114 106q0 68 44 112t102 44zM366 1313q101 0 308 18l8 -16l-25 -123q-96 -8 -128 -28t-31 -77q0 -141 71 -823h29
q31 74 130 319t177 423q2 16 2 40t-8 46q-4 51 -34 70t-99 22l-8 14l33 121q177 -6 277 -6t316 18l9 -16l-25 -123q-100 -8 -131 -28t-31 -74q0 -113 74 -826h29q344 803 344 873q-1 27 -21 38t-69 11h-74l-8 14l30 125q162 -12 283 -12l219 6l-28 -133q-47 -8 -69 -28
t-48 -79l-473 -1069l-326 -41l-78 740h-20l-287 -699l-328 -41q-84 696 -145 1088q-12 67 -41 95t-84 32l-8 14l31 121q156 -6 257 -6z" />
    <glyph glyph-name="wdieresis" unicode="&#x1e85;" horiz-adv-x="1626" 
d="M752 1165q-106 0 -107 107q0 68 43 112t103 43q115 0 114 -106q-1 -68 -43 -112t-110 -44zM1146 1427q114 0 114 -115q0 -59 -43 -103t-103 -44q-115 0 -115 107q0 68 44 112t103 43zM1376 877q0 20 -14 27t-53 7h-56l-8 15l27 106q137 -8 233 -8l187 4l-25 -115
q-35 -6 -53 -22t-39 -60l-365 -823l-313 -33l-57 541h-17l-213 -508l-313 -33q-74 573 -117 836q-10 53 -32 76t-64 26l-8 13l26 104q129 -6 201 -6l281 12l6 -12l-21 -106q-67 -6 -97 -64t-30 -129q0 -176 52 -500h26l234 563v60q-4 37 -27 51t-80 14l-6 13l27 104
q154 -6 233 -6l279 12l8 -12l-23 -106q-79 -8 -103 -22t-24 -56l54 -615h26q258 598 258 652z" />
    <glyph glyph-name="Ygrave" unicode="&#x1ef2;" horiz-adv-x="1191" 
d="M446 1561l-10 26l51 158l27 10q236 -117 457 -213l-27 -96l-29 -19q-250 79 -469 134zM531 0q-90 0 -324 -23l31 138q116 16 154 53q54 54 59 278q0 53 -33 138l-146 389q-37 102 -74 145q-38 43 -122 62l-6 10l32 129q176 -6 254 -6l320 16l8 -18l-27 -117
q-71 -4 -97 -18t-26 -62t115 -409h17l198 344q39 67 39 103t-94 42l-4 10l31 117l262 -8l205 8l6 -14l-31 -123q-82 -27 -136 -81t-134 -181q-243 -380 -252 -399q-10 -19 -14 -33t-8 -23q-3 -7 -6 -25t-5 -27t-5 -32t-5 -45t-12 -85q-10 -62 6 -91t71 -29l99 6l6 -10
l-35 -137q-227 8 -317 8z" />
    <glyph glyph-name="ygrave" unicode="&#x1ef3;" horiz-adv-x="1048" 
d="M344 1270l-10 26l51 158l27 10q236 -117 456 -213l-26 -96l-29 -18q-178 55 -469 133zM627 177q0 -24 11 -42t56 -18l82 4l6 -8l-28 -121q-203 8 -289 8l-279 -16l27 118q98 10 138 44t40 195q0 38 -29 105l-126 308q-27 68 -60 102t-98 51l-6 8l28 113q158 -4 222 -4
l270 12l8 -16l-22 -100q-93 -4 -95 -47q0 -22 86 -304h19l141 242q33 55 33 76q0 31 -74 31l-4 10l25 102l229 -6l172 6l6 -12l-26 -109q-63 -23 -110 -67q-46 -45 -108 -135l-188 -285q-33 -47 -39 -92q-18 -129 -18 -153z" />
    <glyph glyph-name="endash" unicode="&#x2013;" horiz-adv-x="894" 
d="M498 616q311 0 420 9l10 -31l-39 -158l-895 -2l-12 27l41 155h475z" />
    <glyph glyph-name="emdash" unicode="&#x2014;" horiz-adv-x="1724" 
d="M885 616q770 0 860 9l12 -31l-41 -158l-1722 -2l-12 27l41 155h862z" />
    <glyph glyph-name="quoteleft" unicode="&#x2018;" horiz-adv-x="438" 
d="M125 978q0 91 85 189t216 172l76 -61v-35q-60 -41 -100 -99t-40 -112q0 -82 72 -139l-6 -29q-90 -72 -157 -72t-107 48q-40 47 -39 138z" />
    <glyph glyph-name="quoteright" unicode="&#x2019;" horiz-adv-x="438" 
d="M461 1152q0 -91 -85 -189t-216 -170l-76 61v35q61 41 100 98t39 111q0 86 -71 141l6 29q92 72 158 72t105 -49q40 -48 40 -139z" />
    <glyph glyph-name="quotesinglbase" unicode="&#x201a;" horiz-adv-x="468" 
d="M197 291q67 0 105 -49q38 -48 38 -144t-90 -202t-223 -183l-78 62v35q66 45 106 108q41 63 41 136t-61 139l4 28q92 70 158 70z" />
    <glyph glyph-name="quotedblleft" unicode="&#x201c;" horiz-adv-x="806" 
d="M248 978q0 91 85 189t216 172l76 -61v-35q-61 -41 -101 -99t-39 -112q0 -82 72 -139l-6 -29q-90 -72 -157 -72q-66 0 -106 48q-40 47 -40 138zM614 978q0 91 85 189t216 172l76 -61v-35q-61 -41 -100 -99t-39 -112q0 -82 72 -139l-6 -29q-90 -72 -157 -72t-107 48
q-40 47 -40 138z" />
    <glyph glyph-name="quotedblright" unicode="&#x201d;" horiz-adv-x="806" 
d="M592 1152q0 -91 -85 -189t-216 -170l-76 61v35q61 41 100 98t39 111q0 86 -71 141l6 29q91 72 157 72t106 -49q40 -48 40 -139zM721 1098q0 86 -72 141l6 29q92 72 158 72t106 -49q39 -48 39 -139t-85 -189t-216 -170l-75 61v35q61 41 100 98t39 111z" />
    <glyph glyph-name="quotedblbase" unicode="&#x201e;" horiz-adv-x="835" 
d="M564 291q66 0 105 -47q40 -46 40 -138t-85 -190t-216 -172l-76 61v35q61 42 100 100t39 111q0 82 -70 142l5 28q92 70 158 70zM193 291q65 0 105 -47q40 -46 40 -138t-85 -190t-216 -172l-76 61v35q61 42 100 100t39 111q0 82 -69 142l4 28q92 70 158 70z" />
    <glyph glyph-name="dagger" unicode="&#x2020;" horiz-adv-x="983" 
d="M680 1212l14 -16l-47 -365l314 5l16 -23l-35 -164h-319l-101 -823l-180 -12l-16 18l102 817h-313l-13 23l33 159h316l43 367z" />
    <glyph glyph-name="daggerdbl" unicode="&#x2021;" horiz-adv-x="980" 
d="M680 1212l14 -16l-43 -326l314 2l16 -20l-35 -164h-319l-39 -323l317 2l15 -21l-35 -164h-320l-43 -356l-180 -12l-16 18l43 350h-312l-12 21l33 159l313 3l41 323h-311l-15 23l33 159h316l39 328z" />
    <glyph glyph-name="bullet" unicode="&#x2022;" horiz-adv-x="671" 
d="M361 727q217 0 219 -223q0 -109 -78 -191t-189 -82q-215 0 -217 223q0 110 78 192t187 81z" />
    <glyph glyph-name="onedotenleader" unicode="&#x2024;" horiz-adv-x="471" 
d="M212 301q142 0 142 -143q0 -72 -52 -126t-126 -54t-108 35q-34 36 -33 109q0 73 52 126t125 53z" />
    <glyph glyph-name="twodotenleader" unicode="&#x2025;" horiz-adv-x="907" 
d="M656 301q143 0 143 -143q-1 -72 -53 -126t-126 -54t-107 35q-34 36 -34 109t52 126t125 53zM212 301q142 0 142 -143q0 -72 -52 -126t-126 -54t-108 35q-34 36 -33 109q0 73 52 126t125 53z" />
    <glyph glyph-name="ellipsis" unicode="&#x2026;" horiz-adv-x="1341" 
d="M216 301q144 0 142 -143q0 -72 -52 -126t-126 -54t-108 35q-34 36 -33 109q0 73 52 126t125 53zM1089 301q142 0 142 -143q0 -72 -52 -126t-126 -54t-108 35q-34 36 -34 109q1 73 53 126t125 53zM650 301q143 0 143 -143q-1 -72 -53 -126t-126 -54t-108 35
q-34 36 -33 109q0 73 52 126t125 53z" />
    <glyph glyph-name="perthousand" unicode="&#x2030;" horiz-adv-x="2078" 
d="M1233 1337l14 -39q-360 -547 -545 -833l-413 -655l-133 55l-11 29q248 369 424 647l537 848zM1704 -25q-116 0 -184 76t-68 207q0 190 99 307t255 117q119 0 186 -77t66 -202q0 -188 -97 -308t-257 -120zM1583 317q0 -137 169 -137t169 154q0 66 -41 102t-123 37
q-82 0 -128 -41t-46 -115zM1040 -25q-116 0 -184 76t-68 207q0 190 100 307t257 117q119 0 185 -77t65 -202q1 -188 -97 -308t-258 -120zM920 317q0 -137 170 -137t170 154q0 66 -42 102t-124 37q-82 0 -128 -41t-46 -115zM344 633q-118 0 -186 75t-68 207q0 189 99 307
t257 117q119 -1 185 -77t65 -201q0 -188 -96 -308t-256 -120zM223 973q0 -137 169 -137t169 155q0 63 -42 101t-122 36q-174 0 -174 -155z" />
    <glyph glyph-name="guilsinglleft" unicode="&#x2039;" horiz-adv-x="524" 
d="M272 469l138 -295l-13 -33l-90 -51q-51 76 -280 350l4 43q293 276 366 359l80 -51l4 -33z" />
    <glyph glyph-name="guilsinglright" unicode="&#x203a;" horiz-adv-x="524" 
d="M127 90l-80 51l-2 33q10 16 102 140t103 149q-4 11 -33 73t-62 135q-34 73 -40 85l12 32l90 54q49 -74 283 -353l-6 -40q-291 -277 -367 -359z" />
    <glyph glyph-name="fraction" unicode="&#x2044;" horiz-adv-x="317" 
d="M610 1337l15 -39q-360 -547 -545 -833l-414 -655l-133 55l-10 29q248 369 424 647l536 848z" />
    <glyph glyph-name="zero.sups" unicode="&#x2070;" horiz-adv-x="698" 
d="M338 883q178 0 178 229q0 168 -143 168q-176 0 -176 -231q0 -166 141 -166zM293 678q-115 0 -175 82t-61 231q1 223 103 361t266 139q113 0 173 -82t60 -229q0 -226 -101 -364t-265 -138z" />
    <glyph glyph-name="four.sups" unicode="&#x2074;" horiz-adv-x="671" 
d="M336 1237l-162 -213h152l24 213h-14zM2 893l16 106l396 490l10 2l145 -14l-53 -453h98l11 -18l-29 -127l-96 4l-15 -174l-12 -15l-186 -14l-13 14q20 100 33 193z" />
    <glyph glyph-name="five.sups" unicode="&#x2075;" horiz-adv-x="606" 
d="M539 987q1 -117 -135 -213t-291 -96q-101 0 -103 104v52l29 24q49 -22 118 -22t115 32t47 78q0 47 -52 72t-169 33l-8 14l70 383l14 10l266 8q40 0 58 12t32 42l91 6l-64 -215l-25 -19q-119 10 -256 11l-20 -109q147 -20 215 -70t68 -137z" />
    <glyph glyph-name="six.sups" unicode="&#x2076;" horiz-adv-x="655" 
d="M334 1051q-47 0 -94 -31q-12 -66 -13 -92q0 -119 80 -119q104 0 105 139q0 103 -78 103zM606 985q0 -135 -92 -221t-220 -86t-192 70q-63 70 -63 186t55 219q55 102 135 162q160 121 289 160l55 16l15 -8l20 -86q-71 -25 -161 -94q-91 -70 -138 -146l4 -12q70 35 101 41
q90 0 141 -56t51 -145z" />
    <glyph glyph-name="seven.sups" unicode="&#x2077;" horiz-adv-x="604" 
d="M293 1475h289l53 -76q-143 -248 -305 -551l-66 -168h-26l-138 43l-12 35l344 557l-149 -10q-61 -7 -83 -27t-42 -88l-95 -8q39 164 62 293l8 6q78 -6 160 -6z" />
    <glyph glyph-name="eight.sups" unicode="&#x2078;" horiz-adv-x="665" 
d="M377 1364q-39 0 -64 -24t-25 -58t28 -56q28 -24 83 -52q49 49 50 110q0 80 -72 80zM303 797q43 1 71 27t27 59q0 54 -60 90q-19 12 -67 37q-63 -54 -63 -106q1 -52 25 -80t67 -27zM37 856q0 135 160 203q-98 72 -99 177q0 105 88 180t199 75t175 -48t65 -126
q0 -123 -136 -191q105 -66 105 -176t-94 -192q-94 -80 -212 -80t-185 49q-66 49 -66 129z" />
    <glyph glyph-name="nine.sups" unicode="&#x2079;" horiz-adv-x="653" 
d="M336 1120q41 0 92 29q14 49 14 94q0 119 -80 119q-104 0 -104 -139q0 -103 78 -103zM66 1186q0 135 91 220t240 85q106 0 171 -69q65 -70 65 -186t-55 -218t-136 -162q-162 -125 -288 -160l-56 -16l-14 6l-23 88q13 4 63 30t85 52q98 68 153 158l-4 12q-63 -33 -100 -41
q-92 -1 -142 55t-50 146z" />
    <glyph glyph-name="n.sups" unicode="&#x207f;" horiz-adv-x="755" 
d="M94 1210h-43l15 93l276 12l18 -25q-39 -119 -55 -233h8q102 217 195 274q80 0 126 -37t46 -87t-42 -182t-46 -155l4 -4q14 0 80 62l29 -6l24 -54q-99 -104 -155 -145t-101 -41q-76 0 -76 68q0 33 44 174t44 179q-1 38 -31 38t-81 -87t-103 -225l-10 -86q-4 -23 -56 -41
t-110 -18l-22 27q72 430 71 454q0 45 -49 45z" />
    <glyph glyph-name="zero.sinf" unicode="&#x2080;" horiz-adv-x="698" 
d="M338 -59q178 0 178 229q0 170 -143 170q-84 0 -130 -59t-46 -172q0 -168 141 -168zM293 -262q-115 0 -175 81t-61 230q1 225 103 363t266 139q113 0 173 -82t60 -229q0 -226 -101 -364t-265 -138z" />
    <glyph glyph-name="one.sinf" unicode="&#x2081;" horiz-adv-x="526" 
d="M348 -84q0 -63 45 -63l62 4l4 -9l-31 -100q-125 6 -195 6l-227 -14l23 94q63 6 93 29t36 69l49 404q6 45 -5 59t-48 15l-66 -4l-8 10l18 86q68 6 375 49l12 -49q-43 -33 -65 -101q-16 -63 -44 -253t-28 -232z" />
    <glyph glyph-name="two.sinf" unicode="&#x2082;" horiz-adv-x="700" 
d="M381 305q0 66 -82 66t-172 -109h-23l-12 127q61 74 141 118t166 44q85 0 147 -48t62 -130q0 -83 -68 -183t-249 -280l6 -10h106q55 0 82 26t47 94l127 11q-49 -158 -69 -271l-23 -18q-311 12 -440 12l-113 -12l-2 98l185 178q184 195 184 287z" />
    <glyph glyph-name="three.sinf" unicode="&#x2083;" horiz-adv-x="618" 
d="M169 -104q67 0 114 32t47 80q0 80 -160 80l-14 16v101l88 16q102 45 102 125q0 25 -17 40t-44 15q-63 0 -148 -55h-18l-21 113q150 92 252 92t154 -40t53 -103q0 -62 -46 -116t-122 -83l-2 -12q164 -57 164 -169t-137 -201t-295 -89q-61 0 -80 31t-19 69v53l27 25
q55 -20 122 -20z" />
    <glyph glyph-name="four.sinf" unicode="&#x2084;" horiz-adv-x="671" 
d="M336 295l-162 -213h152l24 213h-14zM2 -49l16 108l396 488l10 4l145 -16l-53 -453h98l11 -16l-29 -127l-96 2l-15 -172l-12 -15l-186 -14l-13 12q20 102 33 195z" />
    <glyph glyph-name="five.sinf" unicode="&#x2085;" horiz-adv-x="606" 
d="M539 47q1 -117 -135 -213t-291 -96q-61 0 -82 32t-21 70v51l29 25q51 -20 119 -20t114 32t47 78q0 47 -52 70t-169 33l-8 16l70 381l14 10l266 8q66 2 90 54l91 6l-64 -213l-25 -21q-119 10 -256 10l-20 -106q150 -23 216 -72t67 -135z" />
    <glyph glyph-name="six.sinf" unicode="&#x2086;" horiz-adv-x="655" 
d="M334 109q-47 0 -94 -31q-12 -66 -13 -90q0 -121 80 -121q104 0 105 139q0 103 -78 103zM606 45q0 -135 -92 -221t-220 -86t-192 68q-63 69 -63 187t55 220t135 162q160 121 289 160l55 16l15 -8l20 -88q-24 -7 -58 -23t-114 -78t-127 -139l4 -12q55 33 101 41
q90 0 141 -56t51 -143z" />
    <glyph glyph-name="seven.sinf" unicode="&#x2087;" horiz-adv-x="604" 
d="M293 535h289l53 -76q-143 -248 -305 -551l-66 -168h-26l-138 41l-12 35l344 559l-149 -13q-61 -4 -83 -24t-42 -88l-95 -8q39 162 62 293l8 6q78 -6 160 -6z" />
    <glyph glyph-name="eight.sinf" unicode="&#x2088;" horiz-adv-x="665" 
d="M289 342q0 -55 110 -109q49 49 50 111q0 80 -72 80q-39 0 -63 -24t-25 -58zM303 -143q43 -1 71 25t27 59q1 33 -21 57t-39 33q-17 10 -67 37q-63 -48 -63 -102q1 -54 25 -82t67 -27zM37 -86q0 135 160 203q-98 76 -99 180q0 104 89 179t199 75t174 -49t65 -125
q0 -123 -136 -191q105 -70 105 -180t-94 -188q-94 -80 -212 -80t-185 49q-66 49 -66 127z" />
    <glyph glyph-name="nine.sinf" unicode="&#x2089;" horiz-adv-x="653" 
d="M336 178q37 0 92 31q14 49 14 92q0 121 -80 121q-104 0 -104 -141q0 -47 20 -75t58 -28zM66 244q0 135 91 221t240 86q106 0 171 -70q65 -71 65 -187t-55 -218t-136 -162q-162 -125 -288 -160l-56 -16l-14 8l-23 88q23 8 58 24t115 76q80 61 128 140l-4 10
q-72 -33 -100 -41q-90 1 -141 57t-51 144z" />
    <glyph glyph-name="franc" unicode="&#x20a3;" horiz-adv-x="935" 
d="M432 182q0 -20 9 -34t46 -15l101 8l12 -24l-33 -121h-41l-293 4q-76 0 -204 -18l26 122q74 10 98 39t37 117h-124l-11 12l25 90h123q61 492 61 509t-5 29t-34 13l-53 -2l-10 21l26 102q143 -4 267 -4h104q217 0 422 21l16 -21q-43 -147 -69 -291l-176 -10q12 59 12 92
t-31 46t-121 14l-34 -2q-16 1 -26 -13t-14 -24q-2 -10 -8 -22t-6 -29q-6 -25 -6 -33l-24 -150q43 -2 143 -2l178 15l14 -21l-41 -143q-102 6 -174 6l-145 -10l-14 -91l196 3l11 -15l-21 -90h-180l-27 -41q-2 -17 -2 -37z" />
    <glyph glyph-name="Euro" unicode="&#x20ac;" horiz-adv-x="1130" 
d="M643 137q86 0 138 49t87 168l168 13q-45 -168 -67 -304l-19 -18q-147 -63 -342 -63q-194 0 -310 93t-138 263h-156l-10 14l24 97h138q4 72 14 122h-137l-10 15l24 96h154q68 172 215 267t358 95q121 0 334 -40l8 -23q-49 -133 -82 -303l-168 -12q14 78 15 108
q0 111 -164 111q-193 0 -262 -203h6l297 8l12 -18l-22 -99l-316 -2q-8 -49 -8 -122h8l297 8l12 -19l-22 -98l-287 -2q37 -201 211 -201z" />
    <glyph glyph-name="trademark" unicode="&#x2122;" horiz-adv-x="1126" 
d="M608 907q0 -23 23 -22l24 2q4 -4 7 -4l-19 -60q-78 2 -104 2l-90 -6l14 62q43 6 53 53l64 297q0 18 -52 24l-4 7l15 55q80 -4 110 -4l109 4l41 -268h10q59 135 113 266h127l75 2q2 0 6 -2l-12 -58q-35 -2 -45 -9t-15 -40t-9 -164t2 -144t24 -13l23 2l6 -6l-17 -60
q-49 2 -130 2t-91 -6l13 64q47 2 49 37l16 204h-8q-66 -131 -137 -303l-84 -6q-43 231 -62 309h-8q-37 -207 -37 -217zM389 1172q0 32 -8 48t-49 17q-43 -258 -43 -303t35 -45l43 2l2 -6l-15 -64q-106 4 -151 4l-152 -6l15 62q51 6 66 18t22 53l34 285q-43 -2 -56 -19
t-30 -83l-86 -7q16 104 29 187l10 6l86 -8h250l92 8l9 -6l-15 -180l-88 -7v44z" />
    <glyph glyph-name="estimated" unicode="&#x212e;" horiz-adv-x="1632" 
d="M1317 1057q0 25 -21 45q-190 190 -458 190t-459 -196q-20 -20 -21 -47v-365q0 -10 11 -10h938q10 0 10 10v373zM369 637q-10 0 -11 -8v-371q0 -20 19 -43q186 -199 472 -199t476 224h111q-104 -123 -262 -194t-336 -71q-311 0 -534 199q-222 198 -222 480t221 481
t533 199t534 -200q221 -198 221 -481v-16h-1222z" />
    <glyph glyph-name="partialdiff" unicode="&#x2202;" horiz-adv-x="1007" 
d="M485 131q80 0 138 128q57 128 57 312q0 70 -4 136q-60 59 -150 59t-148 -104t-59 -251q0 -280 166 -280zM45 365q0 237 138 409t325 172q37 -8 110 -49l7 10q-94 268 -441 484l80 114l29 13q307 -141 488 -382t181 -526q0 -284 -151 -460q-152 -176 -389 -177
q-182 0 -280 108q-97 108 -97 284z" />
    <glyph glyph-name="product" unicode="&#x220f;" horiz-adv-x="1409" 
d="M303 1116q0 32 -13 45q-13 14 -48 15l-68 -2l-8 16l33 133q197 -8 276 -8h649q60 0 192 6t134 8l-29 -143q-75 -10 -103 -32t-38 -79q-127 -747 -127 -858q0 -49 14 -66t50 -18l83 6l7 -14l-33 -131q-206 6 -308 6t-259 -18l28 133q82 18 113 52t41 121t54 393t44 402
q0 55 -37 67q-36 12 -156 11q-120 0 -156 -19t-46 -81q-127 -739 -127 -827t35 -95q25 -6 45 -6l57 6l10 -14l-34 -131q-258 6 -295 6t-155 -7t-120 -11l31 133q88 18 121 52t43 120q100 797 100 829z" />
    <glyph glyph-name="summation" unicode="&#x2211;" horiz-adv-x="1124" 
d="M901 924q0 102 -37 157t-153 66l-256 20l245 -473l-6 -59l-426 -488l338 31q98 6 159 77q60 71 99 216l176 14q-72 -260 -98 -452l-41 -39l-772 12l-137 -18l-45 80l497 559l-317 606l41 78q0 -2 2 -2l553 8q14 0 354 22l19 -20l-29 -412l-168 -26q2 23 2 43z" />
    <glyph glyph-name="minus" unicode="&#x2212;" horiz-adv-x="999" 
d="M975 639l10 -25l-45 -188l-897 -4l-12 22l51 185q285 -2 461 -2z" />
    <glyph glyph-name="radical" unicode="&#x221a;" horiz-adv-x="997" 
d="M70 801h-33l-6 8l30 121q160 10 334 28l13 -16v-41q0 -86 71 -665h23l487 1251l47 33h164l-618 -1512l-287 -33q-96 570 -127 730q-20 96 -98 96z" />
    <glyph glyph-name="infinity" unicode="&#x221e;" horiz-adv-x="1017" 
d="M740 662q-67 0 -130 -78q53 -152 95 -178q20 -14 59 -14t74 39q35 41 35 101t-33 95t-100 35zM166 508q0 -121 120 -121q60 0 132 76q-29 88 -59 134q-31 46 -79 46t-81 -39t-33 -96zM340 842q150 0 227 -162q100 168 242 168q90 0 144 -76t55 -186q0 -166 -100 -280
t-230 -113q-152 0 -223 167q-96 -162 -232 -161q-90 1 -145 75t-55 183q0 161 96 273t221 112z" />
    <glyph glyph-name="integral" unicode="&#x222b;" horiz-adv-x="845" 
d="M727 1227q70 -1 127 -19t57 -43q0 -31 -20 -103t-37 -95l-33 -4q-80 111 -164 110q-106 0 -114 -139l-51 -854q-8 -174 -123 -292t-265 -118q-63 0 -120 27q-58 27 -58 61t21 101q20 66 41 88h28q16 -55 56 -92t90 -37q106 0 108 182l35 872q4 133 135 244t287 111z" />
    <glyph glyph-name="approxequal" unicode="&#x2248;" horiz-adv-x="999" 
d="M688 395q55 0 143 88l29 29h23l61 -78l-2 -20l-207 -209l-41 -8q-49 0 -215 40t-198 39q-59 0 -144 -88l-28 -28h-23l-61 78l2 20l209 209l38 8q49 0 215 -40t199 -40zM733 764q55 0 144 88l28 29h23l63 -78l-4 -21l-207 -209l-39 -8q-49 0 -215 40t-198 40
q-59 0 -146 -86l-28 -29h-23l-61 76l2 23l209 207l38 8q52 0 217 -40t197 -40z" />
    <glyph glyph-name="notequal" unicode="&#x2260;" horiz-adv-x="999" 
d="M915 246l-380 -2h-52l-82 -248l-145 -12l-8 18l76 242l-308 -2l-12 22l51 185q172 -2 332 -3l53 162l-379 -2l-12 23l51 184q227 -2 400 -2l86 266l145 8l12 -18l-84 -256l334 12l11 -24l-43 -189l-363 -2l-53 -162l405 13l8 -25z" />
    <glyph glyph-name="lessequal" unicode="&#x2264;" horiz-adv-x="962" 
d="M467 -18q86 0 176 2t141 3t52 3l10 -31l-41 -158l-821 -4l-13 29l41 156h455zM739 117q-246 123 -653 319l-12 27l26 199l762 323l23 -16l24 -156q-180 -66 -622 -248l-2 -14l551 -270q4 -20 4 -31z" />
    <glyph glyph-name="greaterequal" unicode="&#x2265;" horiz-adv-x="962" 
d="M463 -18q86 0 176 2t141 3t52 3l12 -31l-41 -158l-821 -4l-15 29l41 156h455zM895 666l12 -27l-24 -201l-760 -321l-27 14l-22 158q186 68 622 246v14l-549 270q-6 31 -6 33l103 133q42 -23 318 -159t333 -160zM832 -10h-1h1z" />
    <glyph glyph-name="lozenge" unicode="&#x25ca;" horiz-adv-x="1038" 
d="M446 864l-151 -303l174 -549h14l297 561l-176 557h-14zM106 526l9 72l401 727l203 8l20 -14l117 -373l113 -330l-11 -77l-184 -336l-217 -385l-201 -11l-24 15l-111 364z" />
    <glyph glyph-name="fi" unicode="&#xfb01;" horiz-adv-x="1550" 
d="M1118 911h-53q-6 12 -6 15l22 102l238 -4l248 12l-25 -116q-62 -8 -82 -24t-28 -62q-100 -541 -101 -658q0 -37 11 -50t38 -13l68 4l6 -13l-29 -108q-176 4 -249 4l-240 -12l25 112q73 14 99 41t32 92q78 615 78 633t-9 32q-8 14 -43 13zM278 0q-108 0 -260 -18l27 120
q69 10 95 39t36 101q78 604 78 623t-6 33t-37 13l-47 -2l-12 17l26 104q193 -6 411 -6t372 20l14 -18q-43 -154 -70 -299l-170 -10q12 53 13 92q0 39 -30 53t-100 14t-84 -8t-18 -41l-45 -258l147 -2l175 15l10 -19l-39 -149q-119 4 -161 4t-157 -8q-28 -192 -28 -214
t10 -39t51 -18l103 11l14 -21l-33 -135q-177 6 -285 6z" />
    <glyph glyph-name="fl" unicode="&#xfb02;" horiz-adv-x="1832" 
d="M1333 203q-1 -35 17 -48t65 -14q106 0 149 45q42 45 76 201l160 16l10 -16q-47 -182 -88 -381l-20 -18q-258 12 -428 12t-334 -16l29 118q63 10 89 40t34 100q76 606 75 625q0 19 -8 31t-43 13h-47l-8 15l24 102l234 -4l276 12l-26 -125q-82 -10 -108 -28t-38 -78
q-90 -489 -90 -602zM278 0q-108 0 -260 -18l27 120q69 10 95 39t36 101q78 604 78 623t-6 33t-37 13l-47 -2l-12 17l26 104q193 -6 411 -6t372 20l14 -18q-43 -154 -70 -299l-170 -10q12 53 13 92q0 39 -30 53t-100 14t-84 -8t-18 -41l-45 -258l147 -2l175 15l10 -19
l-39 -149q-119 4 -161 4t-157 -8q-28 -192 -28 -214t10 -39t51 -18l103 11l14 -21l-33 -135q-177 6 -285 6z" />
    <glyph glyph-name="acute.cap" 
d="M766 1587l-10 -26q-236 -59 -469 -134l-27 19l-29 96l457 213l27 -10z" />
    <glyph glyph-name="breve.cap" 
d="M535 1595q152 0 221 121l32 -6l48 -72q-41 -100 -124 -169t-202 -69q-120 0 -186 70q-66 68 -82 168l67 72l35 6q39 -121 191 -121z" />
    <glyph glyph-name="circumflex.cap" 
d="M575 1794q0 2 118 -106t163 -148l-59 -84l-35 -8l-236 119l-266 -119l-31 8l-39 84l345 254h40z" />
    <glyph glyph-name="dieresis.cap" 
d="M328 1446q-106 0 -107 106q0 68 43 112t103 44q115 0 114 -106q-1 -68 -43 -112t-110 -44zM722 1708q114 0 114 -116q0 -58 -43 -102t-103 -44q-115 0 -115 106q1 68 45 112t102 44z" />
    <glyph glyph-name="grave.cap" 
d="M129 1561l-10 26l51 158l27 10q236 -117 456 -213l-26 -96l-29 -19q-250 79 -469 134z" />
    <glyph glyph-name="macron.cap" 
d="M825 1649l15 -29l-45 -158l-553 -4l-19 25l47 155q188 -2 303 -2z" />
    <glyph glyph-name="ring.cap" 
d="M342 1560q0 83 62 146t150 63q165 0 165 -165q-1 -78 -62 -147t-148 -68q-167 0 -167 171zM524 1497q90 0 90 86q0 74 -82 74q-42 0 -64 -24q-22 -25 -22 -61t24 -56t54 -19z" />
    <glyph glyph-name="tilde.cap" 
d="M663 1640q45 0 144 107h22l72 -76l-2 -20l-180 -199l-35 -8q-34 0 -146 35t-137 34q-47 0 -120 -79l-25 -27h-23l-71 76l2 22l180 197l33 8q34 0 148 -35t138 -35z" />
    <glyph glyph-name="caron.cap" 
d="M537 1653l266 119l31 -9l40 -84l-346 -254h-39q-209 195 -280 254l57 84l35 9z" />
    <glyph glyph-name="dotaccent.cap" 
d="M549 1749q135 0 135 -138q0 -69 -51 -121t-121 -52q-137 0 -137 127q0 80 52 132t122 52z" />
    <glyph glyph-name="commaaccent" 
d="M292 -104q66 0 106 -48t40 -140q0 -91 -85 -189t-216 -170l-76 61v35q61 43 101 100q39 57 39 109q0 84 -72 141l6 29q90 72 157 72z" />
    <glyph glyph-name="hungarumlaut.cap" 
d="M909 1618l-4 -25q-172 -94 -344 -200l-26 8l-48 69l310 275l24 -4zM565 1626l-2 -24q-174 -94 -346 -201l-27 10l-47 70l310 274l24 -2z" />
    <glyph glyph-name="zero.lf" horiz-adv-x="1009" 
d="M485 236q141 0 224 109q82 110 82 304q-1 141 -63 222t-175 81q-143 0 -223 -110t-80 -279q0 -167 62 -247t173 -80zM422 -25q-170 0 -263 128t-93 356q0 338 157 552q158 214 402 214q166 0 259 -128t93 -352q1 -340 -155 -555t-400 -215z" />
    <glyph glyph-name="one.lf" horiz-adv-x="722" 
d="M465 232q0 -56 17 -78t57 -21l96 6l4 -10l-39 -137q-184 8 -280 8t-322 -23l33 129q94 8 140 44t54 114q82 672 82 702t-14 48t-72 18l-100 -10l-10 14l26 119q82 5 205 23t193 28t124 19l17 -60q-39 -31 -61 -65t-42 -127q-20 -92 -64 -388q-44 -297 -44 -353z" />
    <glyph glyph-name="two.lf" horiz-adv-x="978" 
d="M575 883q0 111 -124 110q-154 0 -289 -184h-27l-16 164q82 111 204 181q123 70 249 71q126 0 212 -70q86 -71 86 -193t-108 -285t-400 -468l9 -16h202q90 0 133 37q42 38 76 149l158 14q-72 -221 -104 -387l-33 -24q-463 18 -651 18l-152 -20l-6 116l260 260
q321 353 321 527z" />
    <glyph glyph-name="three.lf" horiz-adv-x="860" 
d="M233 186q103 0 185 58t82 145q0 150 -267 150l-18 20v125l133 31q78 35 125 92t47 111t-28 82t-76 28q-106 0 -228 -88h-26l-23 145q74 45 188 93t217 47t177 -61t74 -155t-70 -179t-184 -132l-2 -18q240 -76 239 -260q0 -106 -94 -210t-240 -170q-146 -65 -292 -65
q-84 0 -111 42q-27 43 -27 93t2 74l31 29q84 -27 186 -27z" />
    <glyph glyph-name="four.lf" horiz-adv-x="929" 
d="M498 868l-285 -368h258l47 368h-20zM-18 326l22 137l610 760l15 4l172 -23l-86 -704h157l15 -25l-39 -168l-156 4l-24 -293l-17 -16l-239 -25l-15 21q31 174 52 319z" />
    <glyph glyph-name="five.lf" horiz-adv-x="847" 
d="M135 -25q-83 0 -111 43t-28 129q0 18 2 37l33 29q80 -27 185 -27t186 60t81 145q0 86 -83 128t-263 54l-14 23l104 565l19 17l395 14q57 4 85 20t48 62l115 8l-90 -301l-29 -25q-186 16 -399 17l-39 -211q223 -27 326 -102q104 -76 104 -200t-94 -236t-240 -180t-293 -69
z" />
    <glyph glyph-name="six.lf" horiz-adv-x="917" 
d="M289 354q0 -211 154 -213q79 1 125 63t46 158t-37 146q-38 51 -110 51t-158 -57q-20 -111 -20 -148zM866 434q0 -197 -137 -328t-350 -131q-158 1 -247 105t-89 257q0 289 156 479t334 282q177 92 258 114l45 13l18 -11l27 -112q-33 -8 -112 -53t-137 -89t-127 -120
t-114 -162l6 -14q123 68 174 75q139 0 217 -87t78 -218z" />
    <glyph glyph-name="seven.lf" horiz-adv-x="843" 
d="M428 1200h430l66 -98q-215 -373 -490 -893l-92 -234h-35l-178 58l-14 51l549 903l-263 -14q-92 -8 -127 -41t-65 -139l-125 -13q59 233 92 418l12 10q117 -8 240 -8z" />
    <glyph glyph-name="eight.lf" horiz-adv-x="946" 
d="M391 914q0 -60 45 -100t137 -91q98 80 99 195q0 70 -35 108t-97 37q-62 0 -105 -44q-44 -45 -44 -105zM434 127q72 0 125 50t53 121t-64 118t-142 90q-131 -86 -132 -209q0 -72 44 -121t116 -49zM45 240q0 213 258 329q-158 113 -158 271t128 272t311 113q133 0 226 -71
t93 -187q0 -197 -213 -305q168 -111 168 -277t-137 -288t-334 -122q-147 0 -245 73q-97 73 -97 192z" />
    <glyph glyph-name="nine.lf" horiz-adv-x="917" 
d="M479 643q68 0 160 55q20 80 20 164t-36 140q-37 56 -116 56t-125 -62t-46 -157t38 -145t105 -51zM86 768q0 197 136 328t349 131q156 1 247 -105t91 -259q0 -284 -152 -473t-331 -283q-178 -94 -266 -119l-43 -13l-21 13l-26 110q34 8 112 54t136 90t127 120t114 162
l-6 15q-117 -68 -174 -76q-139 0 -216 87t-77 218z" />
    <glyph glyph-name="zero.tf" horiz-adv-x="931" 
d="M451 236q133 0 207 110t75 279q0 328 -217 327q-133 0 -208 -112t-75 -279q1 -325 218 -325zM387 -25q-160 0 -248 126t-88 352q0 340 151 556t386 216q158 0 245 -126t87 -349q0 -340 -150 -558t-383 -217z" />
    <glyph glyph-name="one.tf" horiz-adv-x="931" 
d="M559 238q0 -59 22 -82t70 -23l115 6l4 -10l-39 -137q-207 8 -315 8t-355 -23l33 129q109 8 162 44t63 114q86 668 87 699q0 70 -107 69l-119 -10l-10 14l25 119q197 8 575 70l14 -60q-82 -57 -110 -169t-71 -405q-44 -294 -44 -353z" />
    <glyph glyph-name="two.tf" horiz-adv-x="931" 
d="M547 883q0 111 -119 110q-145 0 -276 -184h-27l-16 164q81 111 199 181t242 71q124 0 207 -70q83 -71 83 -193t-104 -284t-386 -469l6 -16h191q86 -1 126 37t75 149l159 14q-72 -221 -104 -387l-33 -24q-449 18 -631 18l-149 -20l-6 116l258 260q305 357 305 527z" />
    <glyph glyph-name="three.tf" horiz-adv-x="931" 
d="M260 186q111 0 198 58t87 145q0 150 -289 150l-16 20v125l139 31q82 35 132 93t50 112t-31 82q-31 26 -81 26q-119 0 -240 -88h-29l-22 145q63 43 186 91q124 48 232 49q108 -1 185 -61t77 -155t-73 -179t-194 -132l-2 -18q256 -76 256 -260q0 -162 -210 -303t-441 -142
q-86 0 -114 43t-27 129v37l30 29q86 -27 197 -27z" />
    <glyph glyph-name="four.tf" horiz-adv-x="931" 
d="M498 868l-283 -368h256l47 368h-20zM-18 326l22 137l610 760l15 4l172 -23l-86 -704h159l13 -25l-39 -168l-156 4l-22 -293l-19 -16l-239 -25l-15 21q31 174 52 319z" />
    <glyph glyph-name="five.tf" horiz-adv-x="931" 
d="M160 -25q-84 0 -114 44t-30 141v24l33 29q86 -27 199 -27t201 60t88 145q1 86 -89 128t-284 54l-17 23l105 565l20 17l416 14q61 4 91 20t50 62l117 8l-92 -301l-29 -25q-201 16 -428 17l-41 -211q461 -52 459 -302q0 -124 -99 -236t-252 -180t-304 -69z" />
    <glyph glyph-name="six.tf" horiz-adv-x="931" 
d="M473 559q-74 0 -160 -57q-20 -92 -20 -170t38 -134t118 -56t128 62t48 158t-39 146q-39 51 -113 51zM874 434q0 -197 -137 -328t-350 -131q-160 1 -250 105t-90 257q0 291 158 479q158 189 334 281q177 91 264 115l43 13l16 -11l29 -112q-35 -10 -115 -54t-139 -88
t-128 -120t-114 -162l6 -14q131 68 179 75q138 0 216 -87t78 -218z" />
    <glyph glyph-name="seven.tf" horiz-adv-x="931" 
d="M469 1200h453l67 -98q-311 -504 -524 -893l-92 -234h-33l-182 58l-17 51l586 903l-289 -14q-100 -8 -136 -41t-69 -139l-127 -13q59 233 93 418l14 10q125 -8 256 -8z" />
    <glyph glyph-name="eight.tf" horiz-adv-x="931" 
d="M385 914q0 -60 44 -100t136 -91q96 78 97 195q0 70 -34 108t-96 37q-62 0 -104 -44q-43 -45 -43 -105zM428 127q72 0 123 50t51 129t-123 153q-16 10 -80 47q-131 -86 -131 -209q0 -72 44 -121t116 -49zM41 240q0 215 256 329q-156 111 -156 270t127 273t307 113
q133 0 225 -71t93 -187q0 -197 -211 -305q166 -113 166 -278t-136 -287t-331 -122q-145 0 -243 73q-97 73 -97 192z" />
    <glyph glyph-name="nine.tf" horiz-adv-x="931" 
d="M484 643q68 0 165 55q20 80 21 164q0 84 -38 140t-118 56t-128 -62t-48 -158t39 -145q39 -50 107 -50zM88 768q0 197 137 328t353 131q158 1 248 -105t92 -259q1 -287 -156 -476t-328 -281q-186 -94 -270 -118l-45 -13l-19 13l-26 110q36 10 114 54t138 90q60 44 129 120
q70 76 114 162l-6 15q-123 -70 -178 -76q-139 0 -218 87t-79 218z" />
    <glyph glyph-name="zero.tosf" horiz-adv-x="911" 
d="M451 244q123 0 199 77t75 197q0 120 -65 184q-66 64 -188 64t-197 -78t-74 -199q0 -245 250 -245zM375 -25q-164 0 -254 113t-90 309q0 283 147 465t375 182q164 0 254 -112t90 -307q-1 -285 -147 -467t-375 -183z" />
    <glyph glyph-name="one.tosf" horiz-adv-x="911" 
d="M549 240q0 -57 20 -82t68 -25l115 6l4 -10l-39 -137q-205 8 -313 8t-347 -23l29 129q119 10 167 50t60 139q57 457 58 487q0 70 -105 70l-116 -10l-11 14l27 117q379 41 569 71l15 -61q-45 -29 -67 -61t-40 -99q-94 -423 -94 -583z" />
    <glyph glyph-name="two.tosf" horiz-adv-x="911" 
d="M469 727q0 100 -109 100t-221 -157h-26l-19 151q197 223 410 223q126 0 200 -64t74 -170q0 -105 -77 -218t-345 -385l6 -17h166q88 0 129 39t72 148l158 14q-68 -219 -101 -385l-30 -24q-473 18 -656 18l-127 -18l-6 67l162 170q180 193 260 311t80 197z" />
    <glyph glyph-name="three.tosf" horiz-adv-x="911" 
d="M539 1044q111 0 185 -58t75 -153q0 -95 -73 -177t-191 -130l-3 -16q254 -68 254 -246q0 -110 -102 -220t-260 -180t-309 -69q-84 0 -112 43t-28 129v37l31 29q74 -27 193 -27t212 60t93 153q0 145 -283 146l-16 20v127l137 29q80 35 130 92t50 109t-32 79t-82 27
q-107 0 -238 -100l-25 -3l-24 146q67 47 187 100t231 53z" />
    <glyph glyph-name="four.tosf" horiz-adv-x="911" 
d="M475 686l-280 -364h256l43 364h-19zM592 1040l12 4l174 -22l-86 -700h156l14 -23l-39 -170q-61 2 -153 6l-25 -297l-16 -18l-240 -25l-14 21q31 178 51 325q-303 8 -465 9q20 111 23 137z" />
    <glyph glyph-name="five.tosf" horiz-adv-x="911" 
d="M96 -205q-82 0 -112 42t-31 124q0 20 2 43l31 29q78 -27 198 -27t218 60q97 60 98 143q0 82 -83 125t-284 72l-16 22l108 553l19 16l403 15q59 4 88 20t51 62l115 8l-90 -301l-31 -27q-186 16 -411 17l-37 -189q223 -38 336 -110q112 -72 112 -196t-106 -242t-266 -188
t-312 -71z" />
    <glyph glyph-name="six.tosf" horiz-adv-x="911" 
d="M464 559q-70 0 -157 -57q-20 -88 -20 -168t38 -136q37 -56 115 -56t124 62t46 158t-38 146q-38 51 -108 51zM860 434q0 -197 -136 -328t-347 -131q-158 1 -247 105t-89 257q0 289 156 478t331 282q176 93 258 115l45 13l17 -11l29 -112q-33 -8 -112 -53t-136 -91
t-126 -120q-69 -76 -114 -162l6 -12q2 0 74 36t100 39q137 0 214 -87t77 -218z" />
    <glyph glyph-name="seven.tosf" horiz-adv-x="911" 
d="M434 1020h449l69 -98q-307 -504 -518 -895l-92 -232h-33l-180 55l-18 52l575 905l-278 -16q-100 -8 -136 -41t-69 -140l-123 -12q57 233 90 420l14 10q123 -8 250 -8z" />
    <glyph glyph-name="eight.tosf" horiz-adv-x="911" 
d="M381 914q0 -60 43 -100t131 -91q94 78 94 197q0 68 -34 106t-93 37q-59 0 -100 -44q-41 -45 -41 -105zM418 127q70 0 120 50t50 127t-117 153q-18 12 -82 49q-125 -84 -125 -209q0 -72 42 -121t112 -49zM37 238q0 217 250 331q-152 115 -152 272t129 271t309 113
q129 0 217 -71t89 -187q0 -197 -207 -305q162 -113 162 -278t-138 -287t-329 -122q-143 0 -237 72q-93 72 -93 191z" />
    <glyph glyph-name="nine.tosf" horiz-adv-x="911" 
d="M457 461q70 0 155 55q20 80 21 164q0 84 -37 141t-115 57t-125 -62q-47 -64 -47 -160t39 -145q39 -50 109 -50zM61 586q1 198 137 328t347 130q158 0 247 -104t89 -257q0 -288 -153 -476t-323 -279q-170 -92 -315 -135l-18 12l-27 113q33 8 112 53t137 89t126 120
t110 162l-6 14q-2 0 -72 -36t-100 -39q-137 0 -214 87t-77 218z" />
    <glyph glyph-name="caron.alt" 
d="M616 1501l13 -20q-57 -223 -129 -443l-105 -41l-28 9q31 190 43 467z" />
    <glyph glyph-name="zero.numr" horiz-adv-x="698" 
d="M338 721q178 0 178 229q0 170 -143 170q-84 0 -130 -60t-46 -173q0 -166 141 -166zM293 518q-115 0 -175 81t-61 230q-1 225 101 363t268 137q113 0 173 -81t60 -230q0 -224 -101 -362t-265 -138z" />
    <glyph glyph-name="one.numr" horiz-adv-x="526" 
d="M348 696q0 -63 45 -63l62 4l4 -8l-31 -101q-125 6 -195 7l-227 -15l23 94q118 8 129 97l49 403q6 48 -5 62t-48 14l-66 -4l-8 10l18 86q35 4 375 47l12 -47q-43 -33 -65 -100q-16 -63 -44 -254t-28 -232z" />
    <glyph glyph-name="two.numr" horiz-adv-x="700" 
d="M381 1085q0 66 -82 66t-172 -109h-23l-12 127q59 72 139 116t167 44q86 0 148 -47t62 -129t-68 -182t-249 -281l6 -12h106q55 0 82 26t47 95l127 10q-49 -158 -69 -268l-23 -21q-311 14 -440 15l-113 -13l-2 99l185 178q184 194 184 286z" />
    <glyph glyph-name="three.numr" horiz-adv-x="618" 
d="M346 1124q0 56 -62 57t-147 -55h-18l-21 111q53 33 131 63t151 29q73 0 125 -39t52 -102q0 -62 -46 -116t-122 -83l-2 -14q164 -53 164 -166t-137 -202t-295 -89q-61 0 -80 31t-19 69v54l27 24q51 -22 119 -22t116 32t48 82q0 80 -160 80l-14 17v98l88 18q102 45 102 123
z" />
    <glyph glyph-name="four.numr" horiz-adv-x="671" 
d="M336 1075l-162 -213h152l24 213h-14zM2 731l16 107l396 489l10 2l145 -14l-53 -453h98l11 -18l-29 -125l-96 2l-15 -172l-12 -14l-186 -17l-13 14q20 102 33 195z" />
    <glyph glyph-name="five.numr" horiz-adv-x="606" 
d="M539 827q1 -119 -135 -214t-291 -95q-61 0 -82 32q-20 32 -21 71v51l29 24q49 -22 118 -22t115 33t47 79q0 46 -52 70q-52 23 -169 33l-8 16l70 381l14 10l266 9q39 0 58 11q18 11 32 42l91 6l-64 -213l-25 -21q-119 10 -256 11l-20 -109q150 -20 216 -70t67 -135z" />
    <glyph glyph-name="six.numr" horiz-adv-x="655" 
d="M334 889q-47 0 -94 -31q-12 -66 -13 -90q0 -121 80 -121q104 0 105 139q0 103 -78 103zM606 825q0 -135 -92 -221t-220 -86t-192 69q-63 69 -63 185t55 219q55 102 135 164q162 123 289 160l55 14l15 -8l20 -86q-24 -7 -58 -23t-114 -78t-127 -139l4 -12q70 35 101 41
q90 0 141 -56t51 -143z" />
    <glyph glyph-name="seven.numr" horiz-adv-x="604" 
d="M293 1313h289l53 -76q-143 -246 -305 -549l-66 -168h-26l-138 41l-12 35l344 559l-149 -12q-61 -7 -83 -27t-42 -86l-95 -8q39 162 62 291l8 6q78 -6 160 -6z" />
    <glyph glyph-name="eight.numr" horiz-adv-x="665" 
d="M314 1180q-26 -25 -26 -59q0 -33 28 -57t83 -50q49 49 50 110q0 80 -72 80q-37 1 -63 -24zM303 635q43 0 71 27q28 28 28 60q-1 54 -61 89q-19 12 -67 37q-63 -50 -63 -104q1 -54 25 -82t67 -27zM37 694q0 135 160 203q-98 76 -99 180q0 104 88 178t199 74t175 -48
t65 -124q0 -125 -136 -192q105 -66 105 -177q0 -110 -94 -190t-212 -80t-185 49q-66 49 -66 127z" />
    <glyph glyph-name="nine.numr" horiz-adv-x="653" 
d="M442 1081q0 121 -80 121q-104 0 -104 -141q2 -103 80 -103q39 0 90 29q14 49 14 94zM66 1024q0 135 91 220t240 85q106 -1 171 -69t65 -185t-55 -219t-136 -164q-162 -123 -288 -160l-56 -14l-14 8l-23 88q13 4 63 30q161 85 238 208l-4 12q-78 -37 -100 -41
q-90 1 -141 57t-51 144z" />
    <glyph glyph-name="zero.dnom" horiz-adv-x="698" 
d="M338 186q178 0 178 230q0 170 -143 170q-84 0 -130 -60t-46 -172q0 -168 141 -168zM293 -16q-115 0 -175 81t-61 230q1 225 103 363t266 139q113 0 173 -82t60 -230q0 -225 -101 -363t-265 -138z" />
    <glyph glyph-name="one.dnom" horiz-adv-x="526" 
d="M348 162q0 -63 45 -64l62 4l4 -8l-31 -100q-125 6 -195 6l-227 -14l23 94q63 6 93 29t36 69l49 404q6 45 -5 59t-48 14l-66 -4l-8 11l18 86q68 6 375 49l12 -49q-43 -33 -65 -101q-16 -63 -44 -253t-28 -232z" />
    <glyph glyph-name="two.dnom" horiz-adv-x="700" 
d="M381 551q0 65 -82 65t-172 -108h-23l-12 127q61 74 141 118t166 44q85 0 147 -48q62 -49 62 -131t-68 -182t-249 -280l6 -11h106q55 0 82 26t47 95l127 10q-49 -158 -69 -270l-23 -18q-311 12 -440 12l-113 -12l-2 98l185 178q184 195 184 287z" />
    <glyph glyph-name="three.dnom" horiz-adv-x="618" 
d="M330 254q0 80 -160 80l-14 16v101l88 16q102 45 102 125q0 25 -17 40t-44 15q-63 0 -148 -55h-18l-21 113q150 92 252 92t154 -40q52 -39 53 -103q0 -64 -46 -117t-122 -82l-2 -13q164 -57 164 -169q0 -113 -137 -201t-295 -88q-61 0 -80 30q-18 31 -19 70v53l27 25
q55 -20 122 -20t114 31q47 32 47 81z" />
    <glyph glyph-name="four.dnom" horiz-adv-x="671" 
d="M336 541l-162 -213h152l24 213h-14zM2 197l16 108l396 488l10 4l145 -17l-53 -452h98l11 -17l-29 -127l-96 2l-15 -172l-12 -14l-186 -14l-13 12q20 102 33 195z" />
    <glyph glyph-name="five.dnom" horiz-adv-x="606" 
d="M539 293q1 -117 -135 -213t-291 -96q-61 0 -82 31q-20 32 -21 71v51l29 25q51 -20 119 -20t114 31q46 32 47 79q0 47 -52 70t-169 32l-8 17l70 381l14 10l266 8q66 2 90 53l91 6l-64 -213l-25 -20q-119 10 -256 10l-20 -106q150 -23 216 -72t67 -135z" />
    <glyph glyph-name="six.dnom" horiz-adv-x="655" 
d="M334 354q-47 0 -94 -30q-12 -66 -13 -91q0 -121 80 -120q104 0 105 139q0 102 -78 102zM606 291q0 -135 -92 -221t-220 -86t-192 68q-63 69 -63 187t55 220t135 162q160 121 289 159l55 17l15 -9l20 -88q-24 -8 -58 -23t-114 -77t-127 -139l4 -12q55 33 101 40
q90 0 141 -55t51 -143z" />
    <glyph glyph-name="seven.dnom" horiz-adv-x="604" 
d="M293 780h289l53 -75q-143 -248 -305 -551l-66 -168h-26l-138 41l-12 34l344 560l-149 -13q-61 -4 -83 -24t-42 -88l-95 -9q39 162 62 293l8 6q78 -6 160 -6z" />
    <glyph glyph-name="eight.dnom" horiz-adv-x="665" 
d="M289 588q0 -55 110 -109q49 49 50 111q0 80 -72 80q-39 0 -63 -24t-25 -58zM303 102q43 0 71 26t28 58t-22 57q-22 23 -39 33t-67 37q-63 -49 -63 -102q1 -53 25 -81t67 -28zM37 160q0 135 160 202q-99 76 -99 180t89 180q89 75 199 75t174 -49t65 -125q0 -123 -136 -191
q105 -70 105 -180t-94 -189t-212 -79t-185 49q-66 49 -66 127z" />
    <glyph glyph-name="nine.dnom" horiz-adv-x="653" 
d="M336 424q37 0 92 31q14 49 14 92q0 121 -80 121q-104 0 -104 -142q0 -46 20 -74t58 -28zM66 489q0 135 91 221t240 87q106 0 171 -70q65 -71 65 -187t-55 -218t-136 -162q-162 -125 -288 -160l-56 -16l-14 8l-23 88q23 8 58 23t115 77t128 139l-4 11q-72 -33 -100 -41
q-90 0 -141 56t-51 144z" />
    <glyph glyph-name="a.sups" horiz-adv-x="729" 
d="M268 856q26 0 80 94q55 94 96 211q-57 37 -112 37q-33 0 -62 -76q-28 -76 -28 -171t26 -95zM453 678q-63 0 -64 59q0 31 41 195l-12 2q-106 -188 -201 -256q-84 0 -131 54t-47 149q0 160 106 298t228 138l110 -23l9 29l20 10l139 -16l11 -27q-59 -229 -89 -424l5 -4
q10 0 81 62l27 -2l25 -56q-103 -112 -157 -150t-101 -38z" />
    <glyph glyph-name="b.sups" horiz-adv-x="722" 
d="M477 1020q0 139 -29 139q-30 0 -80 -93t-94 -216q4 0 37 -16t64 -17q41 0 71 67t31 136zM174 1526q0 46 -49 47h-45l14 92l281 12l20 -22q-72 -330 -116 -598h10q104 195 194 264q89 0 141 -58t52 -161q0 -168 -106 -294t-246 -126q-139 0 -248 66l-19 30
q117 702 117 748z" />
    <glyph glyph-name="c.sups" horiz-adv-x="552" 
d="M353 1194q-50 0 -83 -69t-32 -162q0 -129 70 -129t120 104l25 -4l57 -64q-35 -80 -112 -136q-76 -56 -160 -56t-140 64q-55 65 -55 171q0 168 108 292t250 124q82 0 140 -31l6 -20l-64 -148l-45 -2q-35 66 -85 66z" />
    <glyph glyph-name="d.sups" horiz-adv-x="731" 
d="M268 856q26 0 79 92q54 92 97 213q-63 37 -112 37q-33 0 -62 -76q-28 -76 -28 -171t26 -95zM453 678q-63 0 -64 59q0 27 41 195l-12 2q-102 -182 -201 -256q-84 0 -131 54t-47 149q0 160 106 298t228 138l94 -21q31 223 31 230q0 47 -47 47h-43l12 92l282 12l19 -22
q-106 -528 -148 -789l5 -4q8 0 81 62l27 -2l25 -56q-107 -112 -159 -150t-99 -38z" />
    <glyph glyph-name="e.sups" horiz-adv-x="593" 
d="M397 1155q0 39 -42 39q-41 0 -73 -45t-42 -123q157 55 157 129zM406 1329q162 0 161 -147q1 -76 -75 -134t-256 -114q0 -100 78 -100t132 98l29 -2l55 -64q-38 -80 -118 -134t-168 -54t-144 65q-55 66 -55 175q0 164 109 288t252 123z" />
    <glyph glyph-name="f.sups" horiz-adv-x="452" 
d="M532 1681q88 0 146 -20l6 -14l-68 -146l-26 -4q-78 51 -125 51t-71 -28t-32 -95l-14 -122h178l9 -7l-15 -86h-172l-12 -6l-60 -545q-12 -111 -102 -197t-188 -87q-56 -1 -104 21t-62 53q25 78 80 157h26q6 -106 97 -106q39 0 65 28t27 78l4 119l35 471l-15 12l-98 2l-4 7
l8 71l117 17l8 77q12 117 124 208t238 91z" />
    <glyph glyph-name="g.sups" horiz-adv-x="696" 
d="M158 375q-106 0 -174 51t-68 119q0 14 4 30q39 23 225 121l2 11q-92 41 -92 189q-1 148 105 286t225 137l109 -25l10 29l20 10l138 -16l18 -29q-57 -119 -72 -237q-2 -25 -10 -154t-12 -168q-14 -113 -158 -233t-262 -121h-8zM100 586q0 -28 41 -50t105 -22t111 46
q48 46 59 130l28 246l-12 4q-125 -205 -192 -250q-140 -94 -140 -104zM287 862q25 0 73 89q49 89 95 212q-70 35 -111 35q-34 0 -62 -74t-28 -168t33 -94z" />
    <glyph glyph-name="h.sups" horiz-adv-x="739" 
d="M180 1528q0 45 -47 45h-45l14 92l283 12l18 -24q-76 -328 -116 -596h8q102 217 194 274q80 0 127 -38q48 -38 48 -88t-43 -181t-48 -154l5 -4q14 0 79 62l29 -6l25 -54q-99 -104 -155 -145t-101 -41q-76 0 -76 68q0 33 44 174t44 179t-30 38t-81 -87t-104 -223l-10 -88
q-4 -23 -56 -41t-110 -18l-21 27q125 797 125 817z" />
    <glyph glyph-name="i.sups" horiz-adv-x="436" 
d="M270 1440q-100 0 -100 92q0 59 38 96t97 37q90 0 90 -88q0 -61 -37 -99t-88 -38zM168 678q-35 0 -37 14q-2 6 -2 22t7 115q7 98 7 261v73q0 47 -51 47h-43l14 93l277 12l20 -23q-59 -211 -88 -426l4 -4q12 0 82 62l27 -2l25 -56q-170 -188 -242 -188z" />
    <glyph glyph-name="j.sups" horiz-adv-x="423" 
d="M279 1440q-90 0 -91 92q0 61 37 97t99 36q90 0 90 -88q0 -61 -38 -99t-97 -38zM160 1165q0 45 -51 45h-43l16 93l276 12l19 -23q-61 -240 -111 -575q-14 -111 -91 -202t-198 -146l-45 47l7 16q75 56 107 120t46 189q68 379 68 424z" />
    <glyph glyph-name="k.sups" horiz-adv-x="681" 
d="M477 1106q0 35 -32 35t-85 -86t-108 -226l-10 -86q-4 -23 -56 -41t-110 -18l-21 27q127 768 127 815t-49 47h-45l14 92l283 12l18 -24q-76 -328 -116 -596h8q100 215 194 274q83 0 133 -38t50 -101q0 -127 -170 -240l129 -221l-4 -24l-178 -33l-17 8l-94 268l10 25
q129 61 129 131z" />
    <glyph glyph-name="l.sups" horiz-adv-x="417" 
d="M133 1573h-45l14 92l281 12l20 -22q-117 -545 -149 -789l6 -4q8 0 82 62l27 -2l24 -56q-96 -104 -152 -146t-104 -42q-76 0 -76 76l121 772q0 47 -49 47z" />
    <glyph glyph-name="m.sups" horiz-adv-x="1095" 
d="M94 1210h-43l15 93l276 12l18 -25q-39 -119 -55 -233h6q106 221 195 274q78 0 124 -37t46 -84t-29 -153h6q102 217 197 274q80 0 126 -37t46 -87t-44 -185t-48 -152l4 -4q12 0 82 62l28 -6l23 -54q-99 -104 -155 -145t-101 -41q-76 0 -76 68q0 31 45 173t45 180
q-1 38 -31 38t-86 -92t-116 -236l-8 -70q-4 -23 -56 -41t-110 -18l-21 27q86 340 86 385t-32 45q-27 0 -77 -86t-104 -224l-10 -88q-4 -23 -56 -41t-110 -18l-22 27q72 430 71 454q0 45 -49 45z" />
    <glyph glyph-name="o.sups" horiz-adv-x="665" 
d="M266 678q-102 0 -160 65q-57 66 -57 185q0 176 98 290t250 113q105 0 161 -61t56 -176q0 -182 -97 -299t-251 -117zM317 801q96 0 97 241q0 154 -70 154q-43 0 -70 -66t-26 -169q-1 -160 69 -160z" />
    <glyph glyph-name="p.sups" horiz-adv-x="741" 
d="M465 1169q-23 0 -74 -88t-96 -217q74 -37 119 -37q31 0 57 77q27 77 27 171t-33 94zM139 1166q0 44 -49 44h-45l16 93l277 12l18 -23q-37 -106 -55 -223h8q102 193 193 262q92 0 143 -56t51 -155q0 -158 -104 -293t-221 -135l-131 25l-25 -166q-4 -39 7 -52t50 -14h62v-8
l-17 -86l-368 -10l16 90q35 5 52 23t31 86t53 305q38 237 38 281z" />
    <glyph glyph-name="q.sups" horiz-adv-x="700" 
d="M241 952q0 -96 27 -96t79 90t97 215q-74 37 -112 37q-33 0 -62 -75t-29 -171zM39 887q0 156 106 293t228 137l108 -23l23 64l22 12l138 -16l8 -27q-14 -25 -80 -363t-66 -436q0 -26 8 -34t27 -9h41l2 -6l-16 -88q-201 0 -361 -16l19 92q61 4 82 20q20 16 28 68l74 377
l-12 2q-109 -190 -195 -256q-84 0 -134 56t-50 153z" />
    <glyph glyph-name="r.sups" horiz-adv-x="575" 
d="M94 1210h-43l15 93l276 12l18 -25q-33 -104 -49 -203l8 3q39 94 97 166t94 73q70 -49 70 -147q0 -31 -19 -80l-20 -10q-23 20 -62 20q-111 0 -207 -260l-12 -109q-4 -23 -56 -41t-110 -18l-22 27q72 403 71 451q0 48 -49 48z" />
    <glyph glyph-name="s.sups" horiz-adv-x="559" 
d="M244 809q57 0 57 47q0 16 -14 32t-51 38q-37 21 -72 45q-82 57 -81 144t81 152t196 65t185 -56q-35 -84 -74 -152h-31q-29 74 -92 74q-23 0 -39 -13t-16 -38t41 -51q4 -2 51 -30t63 -42t38 -47t22 -70q0 -96 -85 -163t-208 -66q-76 0 -132 24t-69 60q16 92 72 156l31 -3
q2 -46 36 -76t91 -30z" />
    <glyph glyph-name="t.sups" horiz-adv-x="468" 
d="M225 678q-71 0 -107 38t-36 93q0 14 65 389l-10 10l-80 2l-4 7l8 71l101 17l20 151l197 45l14 -14q-25 -88 -45 -184h139l9 -7l-13 -86h-139l-16 -8l-58 -303q-6 -41 26 -41t97 72l27 -6l24 -56q-147 -190 -219 -190z" />
    <glyph glyph-name="u.sups" horiz-adv-x="741" 
d="M72 803q0 49 42 191t42 171q0 45 -50 45h-43l15 93l278 12l19 -23q-109 -336 -109 -380t28 -44t81 88t108 230l19 121l22 10l127 -4l23 -25q-59 -227 -90 -422l6 -4q10 0 82 62l26 -2l25 -56q-105 -112 -159 -150t-99 -38q-63 0 -64 57q0 8 45 211h-10
q-102 -205 -186 -264q-82 0 -130 36t-48 85z" />
    <glyph glyph-name="v.sups" horiz-adv-x="669" 
d="M319 854h19q115 223 115 294t-72 97l14 51l209 35q41 -37 41 -123q0 -143 -268 -518l-189 -10l-22 22q-12 240 -53 465q-8 43 -43 43l-54 -2l9 88l256 25l16 -12q22 -197 22 -455z" />
    <glyph glyph-name="w.sups" horiz-adv-x="989" 
d="M319 854h19q74 150 111 250l-31 170l12 20l166 37q41 -37 41 -117q0 -35 -19 -90l23 -270h21q111 221 110 293q0 72 -67 98l12 51l209 35q41 -45 41 -127q0 -139 -267 -514l-159 -10l-23 22l-20 205h-15q-51 -111 -116 -217l-179 -10l-22 22q-12 246 -53 465
q-8 43 -43 43l-54 -2l9 88l256 25l16 -12q22 -197 22 -455z" />
    <glyph glyph-name="x.sups" horiz-adv-x="704" 
d="M598 1331q61 0 115 -49q-51 -115 -78 -170h-31q-18 74 -57 74q-49 0 -111 -142q38 -129 56 -171t37 -42t85 56h17l28 -62q-82 -83 -133 -115t-97 -32t-74 39t-62 155q-88 -195 -193 -194q-74 0 -114 51q35 94 77 174h31q10 -82 53 -82q51 0 115 150q-41 133 -57 171
t-40 38t-75 -58h-16l-31 64q145 145 231 145q45 0 71 -37t61 -151q88 188 192 188z" />
    <glyph glyph-name="y.sups" horiz-adv-x="681" 
d="M657 1208q0 -147 -260 -503q-133 -180 -227 -256t-186 -76q-53 0 -98 21q-44 22 -52 55q18 88 70 163l30 -2q4 -44 32 -70t67 -26q74 0 166 113q-39 360 -76 540q-8 43 -45 43l-47 -2l6 88l258 25l14 -12q14 -174 19 -471h16q121 219 121 311q0 66 -70 96l13 51l210 35
q39 -39 39 -123z" />
    <glyph glyph-name="z.sups" horiz-adv-x="632" 
d="M436 678q-56 0 -132 30q-77 30 -137 30t-136 -48l-31 49l371 416l-82 2q-57 0 -86 -19t-45 -71l-84 -8q37 139 55 258l47 14q172 -39 246 -39t96 29l33 35l82 -62l6 -26q-190 -190 -383 -402l33 6l149 -14q74 0 90 105l37 -2q21 -37 21 -109t-47 -123t-103 -51z" />
    <glyph glyph-name="foundryicon" horiz-adv-x="1603" 
d="M369 -121q-164 0 -164 164v866q0 164 164 164h866q164 0 164 -164v-866q0 -164 -164 -164h-866zM891 618h53q20 0 21 -20v-270q0 -66 45 -108t114 -42l129 76v51q-25 -8 -53 -8q-84 0 -84 117v184q0 20 21 20h118v74h-118q-20 0 -21 21v57h-43l-182 -115v-37zM543 657
v238h-152v-705h152v369q0 25 49 25q88 0 88 -115v-279h151v365q0 66 -45 108t-114 42q-113 -66 -121 -66t-8 18z" />
    <glyph glyph-name="square1" horiz-adv-x="913" 
d="M-55 0l116 946h914l-115 -946h-915z" />
    <glyph glyph-name="square2" horiz-adv-x="1269" 
d="M-55 0l161 1315h1268l-160 -1315h-1269z" />
    <glyph glyph-name="idotaccent" horiz-adv-x="634" 
d="M449 1458q135 0 135 -138q-1 -69 -52 -121t-122 -52q-135 0 -136 127q0 80 52 132t123 52zM416 176q0 -37 11 -50t38 -13l67 4l7 -13l-29 -108q-176 4 -250 4l-240 -12l25 112q73 14 99 41t32 92q78 615 78 633t-8 32t-43 13h-53q-6 12 -7 15l23 102l237 -4l248 12
l-24 -116q-61 -8 -81 -24t-30 -62q-100 -541 -100 -658z" />
  </font>
</defs>
</svg>
