<?xml version="1.0" standalone="no"?>
<!DOCTYPE svg PUBLIC "-//W3C//DTD SVG 1.1//EN" "http://www.w3.org/Graphics/SVG/1.1/DTD/svg11.dtd" >
<svg xmlns="http://www.w3.org/2000/svg">
<metadata>
Created by FontPrep 20130207 at Tue May 10 19:19:47 2016
 By Guillaume Coquoz
Copyright (c) 2013 by Juan Pablo del Peral (huertatipografica.com.ar)
</metadata>
<defs>
<font id="3ca3783d018dd15f4d9ce97808bea0dd" horiz-adv-x='1024' >
  <font-face 
    font-family="AlegreyaSansSC-Regular"
    font-weight="400"
    font-stretch="normal"
    units-per-em="2048"
    panose-1="0 0 5 0 0 0 0 0 0 0"
    ascent="1638"
    descent="-410"
    x-height="1020"
    cap-height="1313"
    bbox="-483 -537 2370 2044"
    underline-thickness="0"
    underline-position="0"
    unicode-range="U+0020-F6D8"
  />
<missing-glyph horiz-adv-x="337" 
 />
    <glyph glyph-name="Idieresis" unicode="&#xa8;I" horiz-adv-x="548" 
d="M356 0h-166l11 395l-11 918h168l-10 -903zM410 1706q86 0 86 -87q0 -42 -25 -68.5t-67 -26.5t-64.5 24.5t-22.5 65.5t25 66.5t68 25.5zM147 1706q86 0 86 -87q0 -42 -24.5 -68.5t-66.5 -26.5t-64.5 24.5t-22.5 65.5t24.5 66.5t67.5 25.5z" />
    <glyph glyph-name="Odieresis" unicode="&#xa8;O" horiz-adv-x="1300" 
d="M653 1190q-407 0 -407 -534.5t399 -534.5q410 0 410 532q0 272 -99.5 404.5t-302.5 132.5zM1225 670.5q0 -322.5 -153.5 -504.5t-428 -182t-420 172t-145.5 494.5t152.5 498.5t429 176t421 -166t144.5 -488.5zM819 1706q86 0 86 -87q0 -42 -24.5 -68.5t-66.5 -26.5
t-64.5 24.5t-22.5 65.5t24.5 66.5t67.5 25.5zM498 1706q86 0 86 -87q0 -42 -24.5 -68.5t-66.5 -26.5t-64.5 24.5t-22.5 65.5t24.5 66.5t67.5 25.5z" />
    <glyph glyph-name="Yacute" unicode="&#xb4;Y" horiz-adv-x="1081" 
d="M604 0h-166l13 383l-2 88l-418 842h176l26 -74l287 -590h17l313 586l31 78h174l-455 -842l-2 -88zM809 1667l-4 -16q-182 -84 -399 -176l-21 8l-29 73q211 104 394 211l18 -4z" />
    <glyph glyph-name="idieresis" unicode="&#xa8;i" horiz-adv-x="530" 
d="M338 0h-154l6 307l-6 713h156l-8 -701zM403 1415q86 0 86 -87q0 -42 -24.5 -68.5t-66.5 -26.5t-64.5 24.5t-22.5 65.5t24.5 66.5t67.5 25.5zM141 1415q86 0 86 -87q0 -42 -24.5 -68.5t-66.5 -26.5t-64.5 24.5t-22.5 65.5t24.5 66.5t67.5 25.5z" />
    <glyph glyph-name="odieresis" unicode="&#xa8;o" horiz-adv-x="1140" 
d="M252 513q0 -206 78 -302t239.5 -96t241.5 94t80 298t-79 300t-240.5 96t-240.5 -92t-79 -298zM1049 520q0 -250 -128 -392t-357.5 -142t-350.5 134t-121 385t128 389t358.5 138t350.5 -131t120 -381zM739 1415q86 0 86 -87q0 -42 -24.5 -68.5t-66.5 -26.5t-64.5 24.5
t-22.5 65.5t24.5 66.5t67.5 25.5zM418 1415q86 0 86 -87q0 -42 -24.5 -68.5t-66.5 -26.5t-64.5 24.5t-22.5 65.5t24.5 66.5t67.5 25.5z" />
    <glyph glyph-name="yacute" unicode="&#xb4;y" horiz-adv-x="968" 
d="M545 0h-154l6 293v61l-346 666h166l23 -59l227 -439h10l250 432l29 66h162l-377 -664l-2 -63zM758 1421l-4 -16q-203 -158 -348 -260l-19 2l-45 65q201 164 336 297l18 -2z" />
    <glyph glyph-name="Itilde" unicode="&#x7e;I" horiz-adv-x="548" 
d="M356 0h-166l11 395l-11 918h168l-10 -903zM393 1640q21 0 70 56l33 37h14l51 -52v-16l-115 -141l-16 -6q-48 8 -152 42t-120 34t-30 -14q-14 -13 -44 -48l-29 -33h-16l-49 53v15l112 139l19 8q33 -6 142 -40t130 -34z" />
    <glyph glyph-name="itilde" unicode="&#x7e;i" horiz-adv-x="530" 
d="M336 0h-152l6 307l-6 713h154l-6 -701zM152 1303q-16 1 -30 -13t-44 -49l-29 -33h-16l-49 54v14l112 139l19 8q33 -6 142 -40q109 -33 130 -33t70 55l32 37h15l51 -51v-17l-115 -141l-16 -6q-48 8 -152 42t-120 34z" />
    <glyph glyph-name="Utilde" unicode="&#x7e;U" horiz-adv-x="1282" 
d="M636 -14q-236 0 -361 129q-124 129 -119 364l2 178l-2 656h161l-6 -813q-4 -371 334 -371t334 350l-8 834h164l-2 -668l-3 -147q4 -242 -126 -377q-132 -135 -368 -135zM967 1671l-125 -141l-21 -6q-45 4 -167 40t-143 36t-37 -14q-16 -13 -52 -48l-33 -35h-18l-49 53v15
l124 141l21 6q49 -4 170 -41q127 -33 151 -33t78 60l35 35h17l49 -51v-17z" />
    <glyph glyph-name="utilde" unicode="&#x7e;u" horiz-adv-x="1124" 
d="M560 -12q-200 0 -304 95t-100 271l2 156l-2 510h153l-8 -641q-4 -260 264 -260t264 260l-6 641h156l-6 -518v-148q2 -174 -106 -270q-107 -96 -307 -96zM433 1309q-21 1 -37 -13t-52 -49l-33 -35h-18l-49 54v14l125 141l20 6q49 -4 170 -41q127 -32 151 -32t78 59l35 35
h17l49 -51v-17l-125 -141l-21 -6q-45 4 -167 40t-143 36z" />
    <glyph glyph-name="Etilde" unicode="&#x7e;E" horiz-adv-x="987" 
d="M928 0h-738l11 395l-11 918h740l8 -17l-12 -127l-310 7l-260 -5l-4 -430l246 -4l217 6l12 -14l-14 -127l-229 4l-234 -2l-2 -194l6 -273l260 -2l316 8l10 -16zM883 1671l-125 -141l-21 -6q-45 4 -167 40t-143 36t-37 -14q-16 -13 -52 -48l-33 -35h-18l-49 53v15l124 141
l21 6q49 -4 170 -41q127 -33 151 -33t78 60l35 35h17l49 -51v-17z" />
    <glyph glyph-name="etilde" unicode="&#x7e;e" horiz-adv-x="890" 
d="M819 119l-14 -119h-621l6 307l-6 713h625l10 -12l-12 -119l-258 8l-213 -2l-2 -309l203 -2l178 6l10 -15l-12 -120l-189 6l-190 -2l-2 -140l2 -194l201 -2l272 8zM362 1309q-22 1 -38 -13t-52 -49l-32 -35h-19l-49 54v14l125 141l20 6q49 -4 170 -41q127 -32 151 -32
t79 59l35 35h16l49 -51v-17l-125 -141l-20 -6q-45 4 -167 40q-121 36 -143 36z" />
    <glyph glyph-name="Ytilde" unicode="&#x7e;Y" horiz-adv-x="1081" 
d="M604 0h-166l13 383l-2 88l-418 842h176l26 -74l287 -590h17l313 586l31 78h174l-455 -842l-2 -88zM850 1671l-125 -141l-20 -6q-45 4 -167 40t-144 36t-38 -14q-16 -13 -51 -48l-33 -35h-18l-49 53v15l125 141l20 6q49 -4 170 -41q127 -33 151 -33t79 60l34 35h17l49 -51
v-17z" />
    <glyph glyph-name="ytilde" unicode="&#x7e;y" horiz-adv-x="968" 
d="M545 0h-154l6 293v61l-346 666h166l23 -59l227 -439h10l250 432l29 66h162l-377 -664l-2 -63zM360 1309q-22 1 -38 -13t-52 -49l-32 -35h-19l-49 54v14l125 141l20 6q49 -4 170 -41q127 -32 151 -32t79 59l35 35h16l49 -51v-17l-125 -141l-20 -6q-45 4 -167 40
q-121 36 -143 36z" />
    <glyph glyph-name="Gtilde" unicode="&#x7e;G" horiz-adv-x="1228" 
d="M664 -14q-586 0 -586 658q0 326 166 502q166 177 473 177q207 0 385 -92l-33 -156l-20 -4q-185 115 -357 115q-444 0 -444 -549q0 -264 103 -388t321 -124q102 0 266 49l4 154l-2 186l154 12l-4 -176l8 -287q-250 -78 -434 -77zM989 1671l-125 -141l-20 -6q-45 4 -167 40
q-121 36 -143 36t-38 -14q-16 -13 -52 -48l-32 -35h-19l-49 53v15l125 141l20 6q49 -4 170 -41q127 -33 151 -33t79 60l35 35h16l49 -51v-17z" />
    <glyph glyph-name="gtilde" unicode="&#x7e;g" horiz-adv-x="1077" 
d="M254 500q0 -205 80 -294t254 -89q96 0 213 43v102l-2 146l141 10v-369q-207 -61 -358 -61q-242 0 -366 130t-124 382t140 390q140 140 395 140q159 1 321 -69l-51 -148h-18q-136 88 -294 88q-157 0 -244 -98t-87 -303zM437 1309q-21 1 -37 -13t-52 -49l-33 -35h-18
l-49 54v14l125 141l20 6q49 -4 170 -41q127 -32 151 -32t79 59l34 35h17l49 -51v-17l-125 -141l-20 -6q-46 4 -168 40t-143 36z" />
    <glyph glyph-name=".notdef" horiz-adv-x="337" 
 />
    <glyph glyph-name=".null" horiz-adv-x="0" 
 />
    <glyph glyph-name="nonmarkingreturn" horiz-adv-x="681" 
 />
    <glyph glyph-name="space" unicode=" " horiz-adv-x="337" 
 />
    <glyph glyph-name="exclam" unicode="!" horiz-adv-x="524" 
d="M334 87q0 -44 -25.5 -70.5t-68.5 -26.5q-92 0 -93 94q0 43 27 69.5t70 26.5t66.5 -24.5t23.5 -68.5zM315 446l-96 -10l-18 19v870l16 21l125 6l18 -21z" />
    <glyph glyph-name="quotedbl" unicode="&#x22;" horiz-adv-x="573" 
d="M438 920l-84 -13l-12 15l8 376l125 11l12 -15zM205 920l-84 -13l-15 15l11 376l125 11l12 -15z" />
    <glyph glyph-name="numbersign" unicode="#" horiz-adv-x="1056" 
d="M434 748l-53 -238h225l53 238h-225zM715 510h217l10 -12l-8 -88h-242l-78 -344h-94l-10 14l74 330h-226l-75 -344h-97l-10 14l74 330h-197l-12 10l8 90h223l54 238h-201l-12 12l8 88h227l74 328h94l10 -17l-69 -311h223l74 328h94l12 -17l-69 -311h213l12 -12l-10 -88
h-238z" />
    <glyph glyph-name="dollar" unicode="$" horiz-adv-x="888" 
d="M635 260q0 55 -37 91t-106 69l-27 -322q76 15 123 61t47 101zM258 762q0 -53 39 -90t113 -70l24 316q-80 -8 -128 -55.5t-48 -100.5zM768 280q0 -106 -84 -189t-227 -97l-21 -258h-80l-16 14l18 242q-143 6 -260 65l17 144l18 6q92 -90 234 -109l30 365q-86 37 -179 92
t-93 178t86 202t231 89l23 291h80l18 -17l-22 -274q102 -10 196 -47l-24 -131l-23 -6q-76 57 -158 73l-28 -352q125 -53 194.5 -114t69.5 -167z" />
    <glyph glyph-name="percent" unicode="%" horiz-adv-x="1687" 
d="M1304.5 104q186.5 0 186.5 246q-1 246 -187 246t-186 -246t186.5 -246zM1604 359q0 -176 -79 -271.5t-225 -95.5t-221 91t-75 266t79 270.5t225 95.5t221 -90t75 -266zM197 957q0 -246 186 -246.5t186 245.5t-188 246q-184 1 -184 -245zM682 965q0 -176 -79 -271.5
t-224 -95.5t-221 91t-76 266t80 270.5t225 95.5t220 -90t75 -266zM1331 1319l-966 -1505l-72 41l-10 24l964 1510l72 -41z" />
    <glyph glyph-name="ampersand" unicode="&#x26;" horiz-adv-x="1572" 
d="M623 813q0 109 -124 109t-197 -104.5t-73 -276.5v-25q145 53 306 148q88 61 88 149zM629 -23q-252 0 -396.5 146.5t-144.5 396.5q0 152 54.5 268.5t147.5 181t205 64.5t174 -52t62 -134q0 -33 -8 -60q193 141 340 313.5t229 354.5h15q47 -47 65 -113q-78 -174 -253 -359
t-406.5 -341t-468.5 -244q33 -141 134.5 -220t249.5 -79t256.5 53.5t170 151.5t63.5 227q-82 14 -119 15q-106 0 -168 -127l-20 -2l-31 90q39 76 90.5 113.5t128.5 46.5q39 0 230 -35q176 -37 235 -37q119 0 168 125l21 2l33 -88q-41 -78 -91.5 -116t-128.5 -44
q-55 0 -227 33q-10 -156 -90 -276.5t-215 -187.5t-305 -67z" />
    <glyph glyph-name="quotesingle" unicode="'" horiz-adv-x="339" 
d="M205 920l-84 -13l-15 15l11 376l125 11l12 -15z" />
    <glyph glyph-name="parenleft" unicode="(" horiz-adv-x="589" 
d="M303 529q0 -288 63.5 -459.5t213.5 -288.5v-17l-60 -53h-14q-180 131 -258 318.5t-78 499.5t78 504t258 323h14l60 -53v-17q-150 -119 -213.5 -294t-63.5 -463z" />
    <glyph glyph-name="parenright" unicode=")" horiz-adv-x="589" 
d="M420 536q0 -312 -78 -504t-258 -323h-14l-60 53v17q150 119 213 294t66 466q-1 285 -65 457t-214 288v16l60 54h14q180 -130 258 -318t78 -500z" />
    <glyph glyph-name="asterisk" unicode="*" horiz-adv-x="765" 
d="M352 1051l-116 -191q-39 12 -113 58v12l170 172l61 -33zM588 915q-27 -47 -84 -90l-17 2l-94 232l49 45l21 -4zM709 1186l-11 -10l-227 -33l-31 61l9 19l204 73q42 -65 56 -110zM295 1151l-14 -8l-207 69q0 80 16 125l14 4l201 -122zM416 1243l-70 -8l-10 14l-4 234
q57 18 123 18l6 -12z" />
    <glyph glyph-name="plus" unicode="+" horiz-adv-x="983" 
d="M549 600h358l13 -12l-11 -103h-360v-362l-103 -8l-12 12v358h-358l-13 13l11 102h360v363l103 10l12 -15v-358z" />
    <glyph glyph-name="comma" unicode="," horiz-adv-x="468" 
d="M346 41q0 -133 -192 -274l-56 51v14q113 88 113 180q0 55 -64 97v16q57 39 113 53q86 -53 86 -137z" />
    <glyph glyph-name="hyphen" unicode="-" horiz-adv-x="628" 
d="M569 498l-493 -72l-17 16v103l496 69l14 -14v-102z" />
    <glyph glyph-name="period" unicode="." horiz-adv-x="468" 
d="M328 87q0 -44 -26 -70.5t-71 -26.5q-90 0 -90 94q0 43 26 69.5t69 26.5t67.5 -24.5t24.5 -68.5z" />
    <glyph glyph-name="slash" unicode="/" horiz-adv-x="587" 
d="M170 -231h-113l-12 16l420 1604h113l12 -19z" />
    <glyph glyph-name="zero" unicode="0" horiz-adv-x="1081" 
d="M225 506q1 -377 317 -377q316 1 316 373q0 186 -81 283.5t-238 97.5q-314 0 -314 -377zM987 513q0 -251 -118.5 -389t-332.5 -138t-327 133t-113 384t119 390t332 139t326.5 -134t113.5 -385z" />
    <glyph glyph-name="one" unicode="1" horiz-adv-x="704" 
d="M451 424l8 -424h-164l10 403l-2 439l-264 -74l-16 8v129l413 123l25 -16z" />
    <glyph glyph-name="two" unicode="2" horiz-adv-x="931" 
d="M399 889q-113 0 -239 -139h-21l-26 124q170 154 358 154q123 0 202 -62.5t79 -154.5t-57.5 -193.5t-182.5 -246.5l-207 -236l4 -8h379l172 12l12 -10l-22 -137l-209 8h-459l-76 -4l-10 8v102l285 310q111 123 162 203.5t51 138.5t-41 94.5t-154 36.5z" />
    <glyph glyph-name="three" unicode="3" horiz-adv-x="843" 
d="M702 784q0 -102 -52 -184t-152 -133v-8q250 -59 250 -273q0 -113 -58.5 -200.5t-165 -136t-222.5 -48.5t-222 19l-10 139l12 10q96 -41 220 -41t208 65t84 167t-68.5 157.5t-195.5 59.5h-121l-10 12l4 113l90 2q55 0 112.5 30.5t95.5 84t38 121.5t-49.5 111.5
t-129.5 43.5q-117 0 -254 -121h-18l-25 129q155 127 311 127t242 -72t86 -174z" />
    <glyph glyph-name="four" unicode="4" horiz-adv-x="985" 
d="M586 823h-15l-372 -538h387v538zM717 158l6 -334l-10 -12l-123 -11l-10 13l4 344h-383l-135 -4l-11 16v104l514 746h150l-4 -735h192l13 -17l-11 -114l-188 4h-4z" />
    <glyph glyph-name="five" unicode="5" horiz-adv-x="856" 
d="M758 219q0 -125 -62.5 -219t-174 -147.5t-225.5 -53.5t-220 21l-13 143l15 14q114 -49 238 -49t206 73t82 177t-62.5 159.5t-203.5 82.5l-174 33l-14 14l10 534l26 23l109 -4h276l189 8l8 -12l-16 -129l-13 -13l-149 13h-303l-8 -320l129 -26q190 -41 270 -119t80 -203z
" />
    <glyph glyph-name="six" unicode="6" horiz-adv-x="962" 
d="M729 345q-1 249 -241 249q-122 0 -244 -107l-2 -55q0 -336 245 -336q115 0 178.5 64.5t63.5 184.5zM874 362q0 -164 -107.5 -271t-293.5 -107t-282.5 116.5t-96.5 331.5q0 260 159 465t447 320h11l127 -74v-17q-246 -86 -384.5 -204.5t-185.5 -282.5l13 -14
q123 90 271 90t235 -94.5t87 -258.5z" />
    <glyph glyph-name="seven" unicode="7" horiz-adv-x="854" 
d="M709 1020l86 4l2 -121l-398 -868l-92 -244l-131 37l-10 27l477 1030h-432l-156 -17l-10 19l10 139l185 -6h469z" />
    <glyph glyph-name="eight" unicode="8" horiz-adv-x="970" 
d="M238 312q0 -96 65 -153t175 -57t176.5 58.5t66.5 138.5t-35 124t-83 69.5t-138 62.5q-105 -37 -166 -92t-61 -151zM283 903q0 -88 54 -136t157 -89q92 39 144 91t52 140t-52 136.5t-146 48.5t-151.5 -51.5t-57.5 -139.5zM821 940q0 -118 -53 -186t-145 -121v-10
q111 -53 173 -118t62 -181q0 -154 -108.5 -246t-282.5 -92t-271.5 85t-97.5 211t65.5 198.5t174.5 125.5v10q-193 100 -193 283q0 145 98.5 229t252.5 84t239.5 -77t85.5 -195z" />
    <glyph glyph-name="nine" unicode="9" horiz-adv-x="962" 
d="M474 428q122 0 245 107l2 55q0 336 -246 336q-115 0 -178 -65t-64 -185q0 -248 241 -248zM88 660q0 166 108 272t294 106t282 -116q96 -117 96 -332q0 -260 -158 -465t-448 -320h-10l-127 74v17q246 86 384 204t185 283l-12 14q-124 -90 -272 -90t-235 94t-87 259z" />
    <glyph glyph-name="colon" unicode=":" horiz-adv-x="468" 
d="M133 84q0 43 26 70q27 27 69 27t67 -25t25 -69t-26 -71t-71 -26q-90 0 -90 94zM133 635q0 43 26 70q27 27 69 27t67 -25t25 -69t-26 -71t-71 -26q-90 0 -90 94z" />
    <glyph glyph-name="semicolon" unicode=";" horiz-adv-x="468" 
d="M338 41q0 -133 -193 -274l-55 51v14q113 88 113 180q0 55 -64 97v16q57 39 113 53q86 -53 86 -137zM133 635q0 43 26 70q27 27 69 27t67 -25t25 -69t-26 -71t-71 -26q-90 0 -90 94z" />
    <glyph glyph-name="less" unicode="&#x3c;" horiz-adv-x="983" 
d="M74 608l14 19l780 321l37 -94l-8 -14l-696 -289v-12l700 -271l-24 -94l-19 -10l-784 311v133z" />
    <glyph glyph-name="equal" unicode="=" horiz-adv-x="983" 
d="M909 653h-833l-13 13l11 102h833l13 -12zM909 315h-833l-13 13l11 102h833l13 -12z" />
    <glyph glyph-name="greater" unicode="&#x3e;" horiz-adv-x="983" 
d="M909 608v-133l-784 -311l-19 10l-24 94l700 271v12l-696 289l-8 14l37 94l780 -321z" />
    <glyph glyph-name="question" unicode="?" horiz-adv-x="677" 
d="M391 87q0 -44 -25.5 -70.5t-70.5 -26.5q-90 0 -90 94q0 43 25.5 69.5t68.5 26.5t67.5 -24.5t24.5 -68.5zM686 1032q0 -168 -172 -274l-170 -111l-4 -8l12 -197l-114 -14l-15 14l-16 236l10 20l197 117q125 74 125 193q0 205 -404 229l-12 16l31 90l20 11
q246 -17 379 -100t133 -222z" />
    <glyph glyph-name="at" unicode="@" horiz-adv-x="1689" 
d="M592 362q0 -118 19.5 -163t44 -45t86 67.5t140.5 195.5t152 302l2 12l4 51l-129 45q-98 0 -169.5 -64.5t-110.5 -173.5t-39 -227zM1513 606q0 162 -70.5 285t-201.5 190.5t-329 67.5t-367.5 -94t-264 -263t-94.5 -388t97.5 -380t274.5 -246t415 -85l4 -17l-49 -82
q-256 2 -448.5 98.5t-299 273.5t-106.5 424t107.5 445.5t303 310t427.5 111.5t388 -79.5t241 -226t85 -339.5q0 -288 -180 -448t-514 -172l59 424h-20q-158 -270 -330 -432h-31q-156 92 -155 325q0 147 55 286.5t165.5 237t266.5 119.5h10l131 -47l95 47l20 -8l-102 -719
l-4 -112q201 25 311 153.5t110 339.5z" />
    <glyph glyph-name="A" unicode="A" horiz-adv-x="1183" 
d="M608 1143h-14l-238 -647l230 -4l235 4zM971 0l-31 131l-74 225l-295 6l-266 -6l-80 -217l-32 -139h-164l481 1313h190l439 -1313h-168z" />
    <glyph glyph-name="B" unicode="B" horiz-adv-x="1099" 
d="M854 375q0 201 -252 229l-252 -2l-2 -192l6 -275q80 -6 152 -6q168 0 258 63.5t90 182.5zM522 1180h-166l-4 -441l226 -6q193 45 192 244q0 106 -58.5 154.5t-189.5 48.5zM938 995q0 -226 -197 -311q279 -55 279 -317q0 -375 -539 -375q-180 0 -288 8h-3l11 395l-11 918
l365 2q184 0 283.5 -82t99.5 -238z" />
    <glyph glyph-name="C" unicode="C" horiz-adv-x="1064" 
d="M643 1186q-187 0 -291 -134t-104 -393.5t104.5 -396.5t293.5 -137t343 125l21 -10l-15 -156q-178 -98 -362 -98q-264 0 -409.5 171t-145.5 492.5t151.5 497.5t429.5 176q207 0 359 -98l-33 -150l-18 -4q-137 115 -324 115z" />
    <glyph glyph-name="D" unicode="D" horiz-adv-x="1323" 
d="M1077 668q0 516 -424 516q-129 0 -297 -8l-8 -766l6 -273q143 -12 291 -12q209 0 320.5 136t111.5 407zM1245 678.5q0 -322.5 -161.5 -506.5t-465.5 -184q-201 0 -425 12h-3l11 395l-11 918h3l473 8q280 0 429.5 -160t149.5 -482.5z" />
    <glyph glyph-name="E" unicode="E" horiz-adv-x="987" 
d="M928 0h-738l11 395l-11 918h740l8 -17l-12 -127l-310 7l-260 -5l-4 -430l246 -4l217 6l12 -14l-14 -127l-229 4l-234 -2l-2 -194l6 -273l260 -2l316 8l10 -16z" />
    <glyph glyph-name="F" unicode="F" horiz-adv-x="888" 
d="M352 715l221 -4l213 6l13 -17l-15 -125l-227 7l-207 -2l-2 -170l8 -410h-166l11 395l-11 918h699l12 -17l-14 -131l-301 11l-230 -5z" />
    <glyph glyph-name="G" unicode="G" horiz-adv-x="1228" 
d="M664 -14q-586 0 -586 657q0 326 166 503t473 177q207 0 385 -92l-33 -156l-20 -4q-185 115 -357 115q-444 0 -444 -549q0 -264 103.5 -388t320.5 -124q102 0 266 49l4 154l-2 186l154 12l-4 -176l8 -287q-250 -78 -434 -77z" />
    <glyph glyph-name="H" unicode="H" horiz-adv-x="1398" 
d="M1206 0h-166l13 395l-2 197l-369 6l-332 -6l-2 -182l8 -410h-166l11 395l-11 918h168l-6 -578l344 -6l353 6l-9 578h168l-8 -903z" />
    <glyph glyph-name="I" unicode="I" horiz-adv-x="548" 
d="M356 0h-166l11 395l-11 918h168l-10 -903z" />
    <glyph glyph-name="J" unicode="J" horiz-adv-x="634" 
d="M289 240v178l-8 762l-252 -2l-17 14l11 121h421l-8 -879l4 -192q0 -156 -77.5 -257.5t-270.5 -193.5l-63 92v21q141 76 200.5 149.5t59.5 186.5z" />
    <glyph glyph-name="K" unicode="K" horiz-adv-x="1118" 
d="M1118 35l-2 -21q-63 -18 -155 -32l-19 10q-332 377 -565 694v12l438 500l80 115h186l-530 -617q280 -362 567 -661zM354 0h-166l11 395l-11 918h168l-10 -903z" />
    <glyph glyph-name="L" unicode="L" horiz-adv-x="851" 
d="M831 0h-647l11 395l-11 918h168l-10 -903l6 -273h486l12 -14z" />
    <glyph glyph-name="M" unicode="M" horiz-adv-x="1615" 
d="M1343 0l-30 399l-70 654h-14l-365 -901h-135l-346 901h-16l-70 -641l-35 -412h-139l137 1313h186l68 -201l285 -747h12l299 759l68 189h184l129 -1313h-148z" />
    <glyph glyph-name="N" unicode="N" horiz-adv-x="1398" 
d="M1202 0h-172l-678 1051h-12l-2 -619l6 -432h-154l11 389l-6 924h172l675 -1051h15l-2 1043l155 12l-12 -932z" />
    <glyph glyph-name="O" unicode="O" horiz-adv-x="1300" 
d="M653 1190q-407 0 -407 -534.5t399 -534.5q410 0 410 532q0 272 -99.5 404.5t-302.5 132.5zM1225 670.5q0 -322.5 -153.5 -504.5t-428 -182t-420 172t-145.5 494.5t152.5 498.5t429 176t421 -166t144.5 -488.5z" />
    <glyph glyph-name="P" unicode="P" horiz-adv-x="1064" 
d="M825 915q0 254 -270 265l-199 -6l-6 -576l215 -4q260 40 260 321zM993 914q0 -202 -130 -327.5t-359 -125.5h-156v-51l8 -410h-166l11 395l-11 918l402 2q192 0 296.5 -99.5t104.5 -301.5z" />
    <glyph glyph-name="Q" unicode="Q" horiz-adv-x="1308" 
d="M246 659q0 -538 404 -538q404 1 405 535q0 534 -404 534q-205 0 -305 -131t-100 -400zM78 650q0 322 153 498.5t429 176.5t420.5 -167t144.5 -482q0 -264 -100.5 -434t-286.5 -230q295 -207 657 -274l6 -21q-37 -69 -76 -104l-14 -6q-412 106 -723 379l-49 -2
q-270 0 -415.5 172t-145.5 494z" />
    <glyph glyph-name="R" unicode="R" horiz-adv-x="1136" 
d="M825 928.5q0 241.5 -270 251.5l-199 -6l-6 -547l246 -6q229 66 229 307.5zM348 487v-77l8 -410h-166l11 395l-11 918l402 2q193 0 298 -97.5t105 -277.5q0 -135 -70.5 -242.5t-199.5 -167.5q135 -223 340 -491l-2 -21q-74 -29 -152 -36l-22 14q-168 252 -301 491h-240z
" />
    <glyph glyph-name="S" unicode="S" horiz-adv-x="966" 
d="M526 1190q-76 0 -132 -31t-85.5 -80t-29.5 -103t33.5 -96t85 -73t151 -78t166.5 -91q164 -108 164 -276q0 -102 -55.5 -188t-156 -137t-229.5 -51q-188 0 -352 92l20 168l23 10q72 -70 159 -103.5t166 -33.5t139 30.5t92 82t32 123t-65.5 123.5t-186.5 109.5t-187 99.5
q-160 102 -159 271q0 100 54 184.5t151.5 132.5t230.5 48t285 -61l-27 -158l-29 -8q-123 94 -258 94z" />
    <glyph glyph-name="T" unicode="T" horiz-adv-x="1003" 
d="M948 1169l-229 13h-133l-6 -772l6 -410h-166l12 395l-10 787h-133l-234 -13l-10 17l12 127h891l13 -17z" />
    <glyph glyph-name="U" unicode="U" horiz-adv-x="1282" 
d="M636 -14q-236 0 -360 129t-120 364l2 178l-2 656h161l-6 -813q-4 -371 334 -371t334 350l-8 834h164l-2 -668l-3 -147q4 -242 -127 -377t-367 -135z" />
    <glyph glyph-name="V" unicode="V" horiz-adv-x="1155" 
d="M469 0l-438 1313h168l30 -133l334 -1014h12l369 1005l33 142h164l-482 -1313h-190z" />
    <glyph glyph-name="W" unicode="W" horiz-adv-x="1828" 
d="M1171 0l-256 762h-14l-270 -762h-170l-418 1313h164l22 -127l320 -1004h14l283 799l-111 332h168l31 -142l323 -989h13l356 996l31 135h155l-471 -1313h-170z" />
    <glyph glyph-name="X" unicode="X" horiz-adv-x="1206" 
d="M1147 0h-199l-57 106l-303 449l-314 -459l-53 -96h-174l445 664l-429 649h199l53 -105l283 -420l285 422l53 103h178l-416 -629z" />
    <glyph glyph-name="Y" unicode="Y" horiz-adv-x="1081" 
d="M604 0h-166l13 383l-2 88l-418 842h176l26 -74l287 -590h17l313 586l31 78h174l-455 -842l-2 -88z" />
    <glyph glyph-name="Z" unicode="Z" horiz-adv-x="1081" 
d="M260 133h545l194 14l9 -12l-15 -139l-237 4h-576l-117 -6v121l738 1063h-506l-197 -15l-10 13l12 139l795 -2l100 2v-123z" />
    <glyph glyph-name="bracketleft" unicode="[" horiz-adv-x="589" 
d="M578 1235l-244 -23v-1366l244 -22v-78l-11 -10l-366 20l8 774l-8 775l366 20l11 -12v-78z" />
    <glyph glyph-name="backslash" unicode="\" horiz-adv-x="587" 
d="M430 -231l-420 1601l13 19h112l420 -1604l-12 -16h-113z" />
    <glyph glyph-name="bracketright" unicode="]" horiz-adv-x="589" 
d="M12 -176l244 22v1366l-244 23v78l11 10l366 -20l-8 -775l8 -774l-366 -20l-11 12v78z" />
    <glyph glyph-name="asciicircum" unicode="^" horiz-adv-x="868" 
d="M815 258l-94 -22l-270 649h-13l-286 -645l-17 -11l-94 37l324 731l16 11h135l311 -734z" />
    <glyph glyph-name="underscore" unicode="_" horiz-adv-x="921" 
d="M942 -289h-960l-13 15l11 94h960l12 -13z" />
    <glyph glyph-name="grave" unicode="`" 
d="M190 1339l62 86l18 2q135 -133 336 -297l-45 -65l-18 -2q-145 102 -348 260z" />
    <glyph glyph-name="a" unicode="a" horiz-adv-x="1048" 
d="M535 870h-13l-186 -483l180 -2l189 2zM825 0l-24 111l-53 151l-244 2l-217 -2l-56 -143l-28 -119h-152l393 1020h177l358 -1020h-154z" />
    <glyph glyph-name="b" unicode="b" horiz-adv-x="985" 
d="M733 293q0 141 -198 170l-203 -2l-2 -142l4 -202q63 -6 125 -6q274 0 274 182zM459 901h-125l-2 -315l182 -6q152 31 152 176q0 75 -49.5 110t-157.5 35zM891 289q0 -295 -451 -295q-133 0 -256 6l6 307l-6 713l320 2q154 0 238.5 -64.5t84.5 -183.5q0 -174 -163 -244
q227 -44 227 -241z" />
    <glyph glyph-name="c" unicode="c" horiz-adv-x="944" 
d="M565 903q-311 0 -311 -387q0 -195 80 -297t233.5 -102t280.5 94l18 -6l-14 -142q-139 -76 -293 -75q-225 0 -346 134t-121 384t128 387t362 137q170 0 295 -72l-29 -141l-19 -6q-109 92 -264 92z" />
    <glyph glyph-name="d" unicode="d" horiz-adv-x="1159" 
d="M909 514q0 385 -338 385q-100 0 -235 -8l-4 -572l2 -192q135 -12 233 -12q164 0 253 99t89 300zM1065 527.5q0 -250.5 -135 -394t-387 -143.5q-195 0 -359 10l6 307l-6 713l400 8q233 0 357 -125t124 -375.5z" />
    <glyph glyph-name="e" unicode="e" horiz-adv-x="890" 
d="M819 119l-14 -119h-621l6 307l-6 713h625l10 -12l-12 -119l-258 8l-213 -2l-2 -309l203 -2l178 6l10 -15l-12 -120l-189 6l-190 -2l-2 -140l2 -194l201 -2l272 8z" />
    <glyph glyph-name="f" unicode="f" horiz-adv-x="792" 
d="M324 559l176 -2l180 6l10 -14l-10 -117l-195 2l-163 -2v-113l4 -319h-152l4 307l-4 713h594l8 -12l-12 -119l-252 8l-186 -2z" />
    <glyph glyph-name="g" unicode="g" horiz-adv-x="1077" 
d="M254 500q0 -205 80 -294t254 -89q96 0 213 43v102l-2 146l141 10v-369q-207 -61 -358 -61q-242 0 -366 130t-124 381.5t140.5 391t394.5 139.5q159 1 321 -69l-51 -148h-18q-136 88 -293.5 88t-244.5 -98t-87 -303z" />
    <glyph glyph-name="h" unicode="h" horiz-adv-x="1220" 
d="M1036 0h-151l6 307l-2 139l-555 -2l-2 -125l4 -319h-152l6 307l-6 713h154l-4 -438l276 -2l279 2l-4 438h153l-6 -701z" />
    <glyph glyph-name="i" unicode="i" horiz-adv-x="530" 
d="M336 0h-152l6 307l-6 713h154l-6 -701z" />
    <glyph glyph-name="j" unicode="j" horiz-adv-x="591" 
d="M397 190q0 -125 -56 -204.5t-200 -149.5l-61 80v14q96 53 136 111.5t40 146.5v131l-4 584l-195 -2l-10 12l10 107h346l-6 -682v-148z" />
    <glyph glyph-name="k" unicode="k" horiz-adv-x="1003" 
d="M336 0h-152l6 307l-6 713h154l-6 -701zM977 35l-4 -23q-63 -20 -148 -30l-24 10q-262 295 -453 540v13l352 385l68 90l182 2l-434 -479q217 -266 461 -508z" />
    <glyph glyph-name="l" unicode="l" horiz-adv-x="772" 
d="M723 0h-543l6 307l-6 713h154l-6 -701l4 -190h393l8 -14z" />
    <glyph glyph-name="m" unicode="m" horiz-adv-x="1398" 
d="M1133 0l-23 311l-55 471h-13l-292 -667h-121l-277 667h-12l-53 -458l-29 -324h-131l113 1020h178l51 -154l223 -549h13l233 557l53 146h174l105 -1020h-137z" />
    <glyph glyph-name="n" unicode="n" horiz-adv-x="1220" 
d="M1032 0h-164l-536 778h-10l-3 -438l5 -340h-140l6 301l-4 719h162l537 -778h14l-4 772l141 10l-6 -719z" />
    <glyph glyph-name="o" unicode="o" horiz-adv-x="1140" 
d="M252 513q0 -206 78 -302t239.5 -96t241.5 94t80 298t-79 300t-240.5 96t-240.5 -92t-79 -298zM1049 520q0 -250 -128 -392t-357.5 -142t-350.5 134t-121 385t129 389t358.5 138t349.5 -131t120 -381z" />
    <glyph glyph-name="p" unicode="p" horiz-adv-x="954" 
d="M709 707q0 184 -217 194l-156 -2l-2 -424l172 -4q203 35 203 236zM868 706q0 -160 -109.5 -257t-301.5 -97h-125v-33l4 -319h-152l6 307l-6 713l348 2q336 0 336 -316z" />
    <glyph glyph-name="q" unicode="q" horiz-adv-x="1146" 
d="M570 115q162 0 241.5 94t79.5 298t-79 300t-240.5 96t-240.5 -92t-79 -298t78 -302t240 -96zM555 -14q-221 0 -342 134t-121 385t129 389t359 138t349.5 -131t119.5 -353q0 -434 -304 -534q244 -156 519 -209l6 -16q-37 -65 -70 -94l-12 -4q-317 84 -582 297
q-16 -2 -51 -2z" />
    <glyph glyph-name="r" unicode="r" horiz-adv-x="1015" 
d="M526 492q182 51 182.5 225t-214.5 182l-158 -2l-2 -399zM868 727q0 -104 -56 -186t-159 -129q125 -191 277 -375l-2 -21q-86 -27 -142 -30l-26 16q-156 236 -236 371l-192 -2v-52l4 -319h-152l6 307l-6 713l348 2q162 0 249 -76t87 -219z" />
    <glyph glyph-name="s" unicode="s" horiz-adv-x="870" 
d="M478 911q-97 0 -148 -46t-51 -105.5t50 -96t148 -79.5q99 -43 153 -76q134 -81 134 -219q0 -80 -43 -148.5t-126 -110.5t-220.5 -42t-274.5 69l19 162l20 8q57 -57 134 -89t153 -32t131 46.5t55 109.5t-50 100t-147 81.5t-153 76.5q-134 77 -135 219q0 82 44 147.5
t125 104.5t197.5 39t241.5 -49l-26 -152l-25 -6q-109 88 -206 88z" />
    <glyph glyph-name="t" unicode="t" horiz-adv-x="894" 
d="M819 879l-190 14h-103l-6 -574l6 -319h-153l6 307l-4 586h-103l-194 -14l-12 14l12 127h743l8 -12z" />
    <glyph glyph-name="u" unicode="u" horiz-adv-x="1124" 
d="M560 -12q-200 0 -304 95t-100 271l2 156l-2 510h153l-8 -641q-4 -260 264.5 -260t263.5 260l-6 641h156l-6 -518v-148q2 -174 -105.5 -270t-307.5 -96z" />
    <glyph glyph-name="v" unicode="v" horiz-adv-x="1024" 
d="M412 0l-357 1020h158l25 -113l264 -755h10l293 749l24 119h154l-389 -1020h-182z" />
    <glyph glyph-name="w" unicode="w" horiz-adv-x="1572" 
d="M989 0l-201 557h-12l-211 -557h-164l-333 1020h153l19 -109l249 -741h11l223 596l-84 254h160l22 -121l250 -729h12l277 733l24 117h150l-381 -1020h-164z" />
    <glyph glyph-name="x" unicode="x" horiz-adv-x="1064" 
d="M991 0h-184l-47 88l-238 326l-248 -334l-45 -80h-161l364 512l-354 508h190l43 -86l224 -305l223 307l43 84h166l-342 -488z" />
    <glyph glyph-name="y" unicode="y" horiz-adv-x="968" 
d="M545 0h-154l6 293v61l-346 666h166l23 -59l227 -439h10l250 432l29 66h162l-377 -664l-2 -63z" />
    <glyph glyph-name="z" unicode="z" horiz-adv-x="962" 
d="M266 121h428l170 16l8 -10l-12 -131l-211 4h-463l-104 -4v110l598 791h-416l-158 -16l-8 12l15 129l184 -2h477l88 2v-115z" />
    <glyph glyph-name="braceleft" unicode="{" horiz-adv-x="589" 
d="M475 1235q-127 0 -127 -150q0 -66 23 -174q20 -119 20 -161q0 -152 -137 -211v-9q137 -59 137 -208q1 -47 -21 -161t-22 -175q0 -152 127 -152q29 0 76 10l16 -88l-8 -14q-51 -12 -106 -12q-236 0 -236 229q1 51 21 177t20 179q0 150 -166 177v83q166 33 166 179
q0 51 -20 177t-21 179q0 231 236 231q45 0 106 -14l8 -14l-16 -88q-47 10 -76 10z" />
    <glyph glyph-name="bar" unicode="|" horiz-adv-x="643" 
d="M383 590v-1120l-113 -7l-14 17v1100l2 1044l117 8l10 -10z" />
    <glyph glyph-name="braceright" unicode="}" horiz-adv-x="589" 
d="M115 -166q127 0 127 150q0 66 -23 174q-20 119 -20 161q0 152 137 211v9q-137 59 -137 209q-1 46 21 160t22 175q0 152 -127 152q-29 0 -76 -10l-16 88l8 14q51 12 106 12q236 0 236 -229q-1 -51 -21 -177t-20 -179q0 -150 166 -176v-84q-166 -33 -166 -179
q0 -51 20 -177t21 -179q0 -231 -236 -231q-45 0 -106 14l-8 14l16 88q47 -10 76 -10z" />
    <glyph glyph-name="asciitilde" unicode="~" horiz-adv-x="983" 
d="M676 553q26 0 57.5 24t87.5 80h17l45 -55v-18l-150 -152l-20 -4q-45 6 -212 52t-191 46t-45 -15t-68 -58l-31 -31h-19l-45 55v19l150 149l20 8q51 -6 214 -53q164 -47 190 -47z" />
    <glyph glyph-name="nonbreakingspace" unicode="&#xa0;" horiz-adv-x="337" 
 />
    <glyph glyph-name="exclamdown" unicode="&#xa1;" horiz-adv-x="524" 
d="M379 864q0 -44 -27 -70q-28 -26 -70 -26t-66 25t-24 69t26 70q26 27 69 26q92 0 92 -94zM211 502l96 10l19 -18v-871l-17 -20l-125 -6l-18 20z" />
    <glyph glyph-name="cent" unicode="&#xa2;" horiz-adv-x="784" 
d="M207 568q0 -289 176 -363l55 719q-109 -16 -170 -113t-61 -243zM80 560q0 202 98 333t268 143l23 299h80l16 -16l-22 -285q111 -14 198 -69l-24 -105l-19 -2q-74 51 -161 66l-60 -740h12q123 0 242 72l17 -8l-15 -98q-121 -74 -264 -76l-27 -318h-77l-17 15l25 313
q-137 31 -215 152.5t-78 323.5z" />
    <glyph glyph-name="sterling" unicode="&#xa3;" horiz-adv-x="851" 
d="M205 596h-146l-8 12l10 78h144v197q0 160 86 245.5t248 85.5q94 0 221 -34l-10 -125l-11 -11q-111 66 -211 66q-188 0 -188 -207v-217h260l8 -10l-8 -80h-262v-266q0 -139 -82 -207v-6h336l186 14l8 -14l-10 -121l-205 4h-512l-10 12l10 84q145 31 146 219v281z" />
    <glyph glyph-name="currency" unicode="&#xa4;" horiz-adv-x="890" 
d="M240 732q0 -85 57 -141t142 -56t142.5 56t57.5 141t-57.5 142.5t-141.5 57.5t-142 -57.5t-58 -142.5zM733 734q0 -91 -53 -161l139 -127l2 -18l-71 -74l-17 2l-129 138q-74 -58 -163 -58t-160 56l-129 -140h-17l-76 72l2 16l138 129q-55 72 -55 161t53 163l-140 129l2 16
l68 74h18l131 -139q72 55 160 55t160 -51l129 137l18 2l72 -72v-18l-137 -129q55 -72 55 -163z" />
    <glyph glyph-name="yen" unicode="&#xa5;" horiz-adv-x="985" 
d="M430 330v22l-90 168h-289l-8 10l6 72h246l-223 416h145l23 -57l249 -451h11l270 446l29 62h143l-244 -416h244l8 -8l-6 -74h-295l-94 -160v-30h387l8 -11l-6 -71h-391l4 -248h-133l6 248h-379l-8 10l6 72h381z" />
    <glyph glyph-name="brokenbar" unicode="&#xa6;" horiz-adv-x="643" 
d="M383 -530l-113 -7l-14 17v833l113 15l14 -19v-839zM383 764l-113 -14l-14 12v862l119 8l10 -10z" />
    <glyph glyph-name="section" unicode="&#xa7;" horiz-adv-x="860" 
d="M641 508q0 63 -51 113.5t-213 158.5q-147 -70 -148 -172q0 -59 49.5 -107t151.5 -114l66 -43q145 64 145 164zM686 72q0 -74 -44 -138.5t-122 -102.5t-200 -38t-248 66l20 139l19 12q121 -111 249 -110q84 0 135.5 45t51.5 101t-46.5 99t-138.5 105t-181 131.5t-89 198.5
q0 84 51.5 156.5t139.5 117.5q-97 90 -97 178t43 151.5t119 101.5t182 38t213 -43l-22 -139l-23 -6q-110 77 -194 77t-132 -44t-48 -98t47 -98t138 -102t180 -129.5t89 -199.5q0 -84 -51 -156t-139 -115q98 -92 98 -198z" />
    <glyph glyph-name="dieresis" unicode="&#xa8;" 
d="M328 1195q0 -42 -25 -67t-67 -26q-86 0 -86 90q0 41 24 67q26 25 66 25t64 -23q24 -24 24 -66zM457 1192q0 41 24 67q25 25 66 25t65 -23q24 -24 24 -66t-26 -67q-24 -25 -67 -26q-86 0 -86 90z" />
    <glyph glyph-name="copyright" unicode="&#xa9;" horiz-adv-x="1402" 
d="M727 856q-209 0 -209 -251t209 -251q90 0 174 47l12 -4l-10 -92q-88 -47 -184 -47q-158 0 -239 88t-81 256t86 259t246 91q99 0 193 -47l-25 -92l-10 -4q-70 47 -162 47zM164 600q0 -166 66.5 -292t189 -194.5t280.5 -68.5t280 69.5t189.5 194.5t67.5 291t-67.5 291
t-189.5 194.5t-280 69.5t-280.5 -68.5t-189 -194.5t-66.5 -292zM1305 600q0 -186 -75 -327.5t-212 -219.5t-317.5 -78t-317.5 78t-213 219.5t-76 327.5t76 327.5t213 219.5t317.5 78t317.5 -78t212 -219.5t75 -327.5z" />
    <glyph glyph-name="ordfeminine" unicode="&#xaa;" horiz-adv-x="655" 
d="M201 874q0 -90 94 -90q49 0 111 74l2 123l-144 -33q-63 -13 -63 -74zM567 791q25 0 39 12l12 -8l-16 -82q-39 -31 -85 -31q-47 0 -69 23t-32 75h-6q-72 -82 -154 -100q-88 4 -137 52t-49 130q0 127 133 152l207 39l2 75q0 96 -99 97q-78 0 -186 -76l-10 4l-19 96
q121 80 231 80q216 0 216 -174l-6 -166q-7 -98 -7 -148t35 -50z" />
    <glyph glyph-name="guillemotleft" unicode="&#xab;" horiz-adv-x="815" 
d="M381 475l297 356l80 -45l2 -20l-254 -305l254 -305l-2 -19l-80 -45l-297 350v33zM41 475l297 356l80 -45l2 -20l-254 -305l254 -305l-2 -19l-80 -45l-297 350v33z" />
    <glyph glyph-name="logicalnot" unicode="&#xac;" horiz-adv-x="983" 
d="M754 485h-684l-11 13l9 102h788l12 -14v-463l-102 -8l-12 12v358z" />
    <glyph glyph-name="softhyphen" unicode="&#xad;" horiz-adv-x="628" 
d="M569 498l-493 -72l-17 16v103l496 69l14 -14v-102z" />
    <glyph glyph-name="registered" unicode="&#xae;" horiz-adv-x="899" 
d="M522 1155q0 63 -80 68l-53 -2l-2 -138l74 -4q61 20 61 76zM385 1022v-14l4 -125h-74l2 118l-2 277h150q133 0 133 -117q0 -80 -80 -121q37 -59 107 -143l-2 -8q-27 -8 -72 -12q-21 15 -96 145h-70zM770 1067q0 143 -87 230t-231 87t-231.5 -87t-87.5 -230t88 -231
t231.5 -88t230.5 88t87 231zM821 1067q0 -168 -101.5 -270.5t-269 -102.5t-270 102.5t-102.5 270.5t102.5 269.5t270 101.5t269 -101.5t101.5 -269.5z" />
    <glyph glyph-name="macron" unicode="&#xaf;" 
d="M690 1192h-579l-13 12l11 94h579l12 -10z" />
    <glyph glyph-name="degree" unicode="&#xb0;" horiz-adv-x="600" 
d="M123 1071q0 -72 52 -123t125 -51t125 51t52 123t-52 123t-125 51t-125 -51t-52 -123zM559 1071.5q0 -106.5 -74.5 -181.5t-183 -75t-184.5 75t-76 181.5t76 180t184.5 73.5t183 -73.5t74.5 -180z" />
    <glyph glyph-name="plusminus" unicode="&#xb1;" horiz-adv-x="983" 
d="M549 600h358l13 -12l-11 -103h-360v-362l-103 -8l-12 12v358h-358l-13 13l11 102h360v363l103 10l12 -15v-358zM909 -186h-833l-13 12l11 102h833l13 -12z" />
    <glyph glyph-name="twosuperior" unicode="&#xb2;" horiz-adv-x="714" 
d="M362 1444q95 0 157 -48q63 -48 63 -118t-40 -139q-40 -70 -134 -187l-138 -174l4 -4h252l131 6l7 -12l-17 -113l-164 7h-340l-55 -3l-8 7v86l201 233q85 101 119 155t34 95t-27 67q-28 26 -77 25q-108 0 -201 -104h-18l-23 108q133 113 274 113z" />
    <glyph glyph-name="threesuperior" unicode="&#xb3;" horiz-adv-x="630" 
d="M367 1238q1 96 -117 96q-60 0 -152 -64h-14l-23 96q103 80 217 80t174 -48t60 -116q0 -141 -127 -199v-8q156 -41 156 -186q0 -106 -89 -171t-235 -65q-80 0 -139 15l-10 102l12 10q74 -18 148 -18t123 35q48 35 48 94q0 113 -143 117h-88l-8 10l2 96h61q51 0 98 38
q46 38 46 86z" />
    <glyph glyph-name="acute" unicode="&#xb4;" 
d="M608 1339l-4 -16q-203 -158 -348 -260l-18 2l-45 65q201 164 335 297l19 -2z" />
    <glyph glyph-name="glyph119" unicode="&#xb5;" horiz-adv-x="1046" 
d="M862 -10q-113 0 -139 133h-14q-125 -109 -267 -135q-82 0 -141 35v-402h-151l4 776l-4 531l151 14v-649q2 -78 45 -123t119 -45q119 0 250 125v678l153 14l-10 -731q-2 -102 57 -102q31 0 70 24l16 -12l-18 -92q-55 -39 -121 -39z" />
    <glyph glyph-name="paragraph" unicode="&#xb6;" horiz-adv-x="993" 
d="M618 254v94l-2 838h-120q-119 -10 -183.5 -85t-64.5 -200t70.5 -211t203.5 -127l-51 -92q-188 37 -290.5 147t-102.5 296t116.5 292.5t331.5 106.5h402l12 -17l-12 -112h-152l-6 -809l2 -111q0 -135 -74.5 -235.5t-251.5 -186.5l-47 74v21q115 72 167 146.5t52 170.5z
" />
    <glyph glyph-name="periodcentered" unicode="&#xb7;" horiz-adv-x="468" 
d="M328 502q0 -44 -26 -70q-26 -27 -71 -26q-90 0 -90 94q0 44 26 70q27 26 69 26t67 -25t25 -69z" />
    <glyph glyph-name="cedilla" unicode="&#xb8;" 
d="M387 -311q62 0 62 41t-43 65l-99 60l51 184h95l-43 -143l69 -41q78 -45 78 -109t-46 -102.5t-127 -38.5t-140 63l14 82l10 2q57 -63 119 -63z" />
    <glyph glyph-name="onesuperior" unicode="&#xb9;" horiz-adv-x="528" 
d="M342 938l4 -276h-145l4 258v366l-164 -43l-12 6v115l299 84l18 -18z" />
    <glyph glyph-name="ordmasculine" unicode="&#xba;" horiz-adv-x="694" 
d="M203 1003q0 -222 145 -223q150 0 150 222t-148 223q-147 0 -147 -222zM631 1008q0 -156 -76 -243t-212 -87t-208 82t-72 240t76 243q76 86 213 86t208 -82q71 -83 71 -239z" />
    <glyph glyph-name="guillemotright" unicode="&#xbb;" horiz-adv-x="800" 
d="M764 451l-297 -357l-80 45l-2 21l254 305l-254 305l2 18l80 46l297 -351v-32zM424 451l-297 -357l-80 45l-2 21l254 305l-254 305l2 18l80 46l297 -351v-32z" />
    <glyph glyph-name="onequarter" unicode="&#xbc;" horiz-adv-x="1437" 
d="M1122 313v301h-10l-213 -301h223zM1241 207l8 -195l-8 -12l-115 -6l-8 8l2 205h-233l-105 -6l-10 14v90l336 471h133l-2 -463h119l10 -12l-8 -100zM41 1120l-12 6v115l299 84l18 -18l-4 -492l4 -276h-145l4 258v366zM182 -186l-71 41l-11 24l965 1510l72 -41l12 -29z" />
    <glyph glyph-name="onehalf" unicode="&#xbd;" horiz-adv-x="1466" 
d="M1081 666q-108 0 -200 -105h-19l-22 109q133 113 274 112q94 0 156.5 -48t62.5 -118t-40 -139t-134 -186l-137 -174l4 -4h252l131 6l6 -13l-16 -112l-164 6h-340l-55 -2l-9 6v86l201 234q84 102 119 155t35 94t-28 67t-77 26zM342 815l4 -276h-145l4 258v366l-164 -43
l-12 6v115l299 84l18 -18zM1149 1319l-967 -1505l-71 41l-11 24l965 1510l72 -41z" />
    <glyph glyph-name="threequarters" unicode="&#xbe;" horiz-adv-x="1513" 
d="M1198 313v301h-10l-213 -301h223zM1317 207l8 -195l-8 -12l-115 -6l-8 8l2 205h-233l-105 -6l-10 14v90l336 471h133l-2 -463h119l10 -12l-8 -100zM217 530q-80 0 -139 15l-10 102l12 10q74 -18 148 -18t122.5 35t48.5 94q0 113 -143 117h-88l-8 10l2 96h61q51 0 97.5 38
t46.5 86q0 95 -107 95q-70 0 -162 -63h-14l-23 96q104 80 217 80t173.5 -47.5t60.5 -115.5q0 -143 -127 -199v-9q156 -41 156 -186q0 -107 -89.5 -171.5t-234.5 -64.5zM258 -186l-72 41l-10 24l965 1510l71 -41l13 -29z" />
    <glyph glyph-name="questiondown" unicode="&#xbf;" horiz-adv-x="677" 
d="M481 864q1 -44 -25 -70t-69 -26t-68 25t-25 69t27 70q26 27 70 26q90 0 90 -94zM0 -84q0 168 172 274l170 111l4 8l-12 197l115 14l14 -14l16 -236l-10 -20l-197 -117q-125 -74 -125 -192q0 -205 404 -230l12 -16l-31 -90l-20 -11q-246 17 -379 100t-133 222z" />
    <glyph glyph-name="Agrave" unicode="&#xc0;" horiz-adv-x="1183" 
d="M608 1143h-14l-238 -647l230 -4l235 4zM971 0l-29 131l-74 225l-297 6l-266 -6l-80 -217l-32 -139h-164l483 1313h190l439 -1313h-170zM373 1653l-4 16l41 96l18 4q182 -106 393 -210l-28 -74l-21 -8q-217 92 -399 176z" />
    <glyph glyph-name="Aacute" unicode="&#xc1;" horiz-adv-x="1183" 
d="M608 1143h-14l-238 -647l230 -4l235 4zM971 0l-31 131l-74 225l-295 6l-266 -6l-80 -217l-32 -139h-164l481 1313h190l439 -1313h-168zM874 1667l-4 -16q-182 -84 -399 -176l-20 8l-29 73q211 104 393 211l19 -4z" />
    <glyph glyph-name="Acircumflex" unicode="&#xc2;" horiz-adv-x="1183" 
d="M608 1143h-14l-238 -647l230 -4l235 4zM971 0l-29 131l-74 225l-297 6l-266 -6l-80 -217l-32 -139h-164l483 1313h190l439 -1313h-170zM332 1571q137 94 237 186h47q92 -82 240 -186l-33 -70h-18q-115 70 -211 135q-80 -55 -209 -135h-20z" />
    <glyph glyph-name="Atilde" unicode="&#xc3;" horiz-adv-x="1183" 
d="M608 1143h-14l-238 -647l230 -4l235 4zM971 0l-31 131l-74 225l-295 6l-266 -6l-80 -217l-32 -139h-164l481 1313h190l439 -1313h-168zM915 1671l-124 -141l-21 -6q-45 4 -167 40t-143 36q-22 0 -38 -14q-16 -13 -51 -48l-33 -35h-19l-49 53v15l125 141l21 6
q49 -4 170 -41q126 -33 150 -33t79 60l35 35h16l49 -51v-17z" />
    <glyph glyph-name="Adieresis" unicode="&#xc4;" horiz-adv-x="1183" 
d="M608 1143h-14l-238 -647l230 -4l235 4zM971 0l-29 131l-74 225l-297 6l-266 -6l-80 -217l-32 -139h-164l483 1313h190l439 -1313h-170zM668 1614q0 41 24.5 66.5t66.5 25.5q87 0 87 -86q0 -43 -24.5 -69.5t-66.5 -26.5t-64.5 24.5t-22.5 65.5zM346 1614q0 41 24.5 66.5
t66.5 25.5q87 0 87 -86q0 -43 -24.5 -69.5t-66.5 -26.5t-64.5 24.5t-22.5 65.5z" />
    <glyph glyph-name="Aring" unicode="&#xc5;" horiz-adv-x="1183" 
d="M608 1143h-14l-238 -647l230 -4l235 4zM971 0l-31 131l-74 225l-295 6l-266 -6l-80 -217l-32 -139h-164l481 1313h190l439 -1313h-168zM498 1632q0 -44 26 -68t67 -24t67 23t26 65q0 92 -93 92t-93 -88zM764 1631q0 -77 -50 -123t-125 -46t-122 44t-47 123t47 125t127 46
t125 -46t45 -123z" />
    <glyph glyph-name="AE" unicode="&#xc6;" horiz-adv-x="1652" 
d="M733 1143h-12l-301 -568l385 84zM1608 0h-713l-10 131l-60 399l-487 -110l-150 -281l-51 -139h-170l692 1313h764l13 -17l-17 -127l-332 9h-198l72 -486l440 92l14 -12l8 -119l-444 -88l63 -432h232l336 10l12 -16z" />
    <glyph glyph-name="Ccedilla" unicode="&#xc7;" horiz-adv-x="1064" 
d="M626.5 -311q61.5 0 61.5 55q0 27 -43 51l-98 60l37 133q-242 16 -374 186t-132 483.5t151.5 489.5t429.5 176q207 0 359 -98l-33 -150l-18 -4q-137 115 -324 115t-291 -134t-104 -393.5t104.5 -396.5t293.5 -137t343 125l21 -10l-15 -156q-156 -88 -319 -96l-27 -92
l70 -41q78 -45 78 -109.5t-46 -102.5t-127 -38t-141 63l15 82l10 2q57 -63 118.5 -63z" />
    <glyph glyph-name="Egrave" unicode="&#xc8;" horiz-adv-x="987" 
d="M940 127l-12 -127h-738l11 395l-11 918h740l10 -17l-14 -127l-310 7l-260 -5l-4 -430l246 -4l217 6l10 -14l-12 -127l-229 4l-234 -2l-2 -194l6 -273l262 -2l314 8zM340 1653l-4 16l41 96l18 4q182 -106 393 -210l-28 -74l-21 -8q-217 92 -399 176z" />
    <glyph glyph-name="Eacute" unicode="&#xc9;" horiz-adv-x="987" 
d="M928 0h-738l11 395l-11 918h740l8 -17l-12 -127l-310 7l-260 -5l-4 -430l246 -4l217 6l12 -14l-14 -127l-229 4l-234 -2l-2 -194l6 -273l260 -2l316 8l10 -16zM844 1667l-4 -16q-182 -84 -400 -176l-20 8l-29 73q211 104 393 211l19 -4z" />
    <glyph glyph-name="Ecircumflex" unicode="&#xca;" horiz-adv-x="987" 
d="M940 127l-12 -127h-738l11 395l-11 918h740l10 -17l-14 -127l-310 7l-260 -5l-4 -430l246 -4l217 6l10 -14l-12 -127l-229 4l-234 -2l-2 -194l6 -273l262 -2l314 8zM299 1571q137 94 238 186h47q92 -82 239 -186l-32 -70h-19q-115 70 -211 135q-80 -55 -209 -135h-20z
" />
    <glyph glyph-name="Edieresis" unicode="&#xcb;" horiz-adv-x="987" 
d="M940 127l-12 -127h-738l11 395l-11 918h740l10 -17l-14 -127l-310 7l-260 -5l-4 -430l246 -4l217 6l10 -14l-12 -127l-229 4l-234 -2l-2 -194l6 -273l262 -2l314 8zM635 1614q0 41 24.5 66.5t66.5 25.5q87 0 87 -86q0 -43 -24.5 -69.5t-66.5 -26.5t-64.5 24.5t-22.5 65.5
zM313 1614q0 41 24.5 66.5t66.5 25.5q88 0 88 -86q0 -43 -25 -69.5t-67 -26.5t-64.5 24.5t-22.5 65.5z" />
    <glyph glyph-name="Igrave" unicode="&#xcc;" horiz-adv-x="548" 
d="M356 0h-166l11 395l-11 918h168l-10 -903zM502 1559l-29 -74l-20 -8q-217 92 -400 176l-4 16l41 96l19 4q182 -106 393 -210z" />
    <glyph glyph-name="Iacute" unicode="&#xcd;" horiz-adv-x="548" 
d="M356 0h-166l11 395l-11 918h168l-10 -903zM555 1667l-4 -16q-182 -84 -399 -176l-21 8l-29 73q211 104 394 211l18 -4z" />
    <glyph glyph-name="Icircumflex" unicode="&#xce;" horiz-adv-x="548" 
d="M356 0h-166l11 395l-11 918h168l-10 -903zM250 1757h47q92 -82 240 -186l-33 -70h-19q-115 70 -211 135q-80 -55 -208 -135h-21l-33 70q138 94 238 186z" />
    <glyph glyph-name="Eth" unicode="&#xd0;" horiz-adv-x="1368" 
d="M1122 668q0 516 -424 516q-135 0 -299 -8l-4 -453h297l8 -14l-6 -103h-299l-2 -196l4 -273q147 -12 291 -12q211 0 322.5 136t111.5 407zM1290 678.5q0 -322.5 -162.5 -506.5t-465.5 -184q-201 0 -426 12h-3l13 395l-2 211h-211l-8 15l6 102h211l-9 590h3l473 8
q280 0 430.5 -160t150.5 -482.5z" />
    <glyph glyph-name="Ntilde" unicode="&#xd1;" horiz-adv-x="1398" 
d="M1202 0h-172l-678 1051h-12l-2 -619l6 -432h-154l11 389l-6 924h172l675 -1051h15l-2 1043l155 12l-12 -932zM1016 1671l-125 -141l-21 -6q-45 4 -167 40t-143 36q-22 0 -38 -14q-16 -13 -51 -48l-33 -35h-18l-49 53v15l125 141l20 6q49 -4 170 -41q127 -33 151 -33
t78 60l35 35h17l49 -51v-17z" />
    <glyph glyph-name="Ograve" unicode="&#xd2;" horiz-adv-x="1300" 
d="M653 1190q-407 0 -407 -534.5t399 -534.5q410 0 410 532q0 272 -99.5 404.5t-302.5 132.5zM1225 670.5q0 -322.5 -153.5 -504.5t-428 -182t-420 172t-145.5 494.5t152.5 498.5t429 176t421 -166t144.5 -488.5zM879 1559l-29 -74l-21 -8q-217 92 -399 176l-4 16l41 96
l18 4q183 -106 394 -210z" />
    <glyph glyph-name="Oacute" unicode="&#xd3;" horiz-adv-x="1300" 
d="M653 1190q-407 0 -407 -534t399 -535q410 0 410 532q1 273 -99 405t-303 132zM643 -16q-274 0 -420 172q-145 172 -145 494t152 499q154 176 430 176t420 -166q144 -167 144 -489t-153 -504q-154 -182 -428 -182zM934 1667l-4 -16q-182 -84 -400 -176l-20 8l-29 73
q211 104 393 211l19 -4z" />
    <glyph glyph-name="Ocircumflex" unicode="&#xd4;" horiz-adv-x="1300" 
d="M653 1190q-407 0 -407 -534.5t399 -534.5q410 0 410 532q0 272 -99.5 404.5t-302.5 132.5zM1225 670.5q0 -322.5 -153.5 -504.5t-428 -182t-420 172t-145.5 494.5t152.5 498.5t429 176t421 -166t144.5 -488.5zM627 1757h47q92 -82 239 -186l-32 -70h-19q-115 70 -211 135
q-80 -55 -209 -135h-20l-33 70q138 94 238 186z" />
    <glyph glyph-name="Otilde" unicode="&#xd5;" horiz-adv-x="1300" 
d="M653 1190q-407 0 -407 -534t399 -535q410 0 410 532q1 273 -99 405t-303 132zM643 -16q-274 0 -420 172q-145 172 -145 494t152 499q154 176 430 176t420 -166q144 -167 144 -489t-153 -504q-154 -182 -428 -182zM975 1671l-125 -141l-21 -6q-45 4 -167 40t-143 36
t-37 -14q-16 -13 -52 -48l-33 -35h-18l-49 53v15l125 141l20 6q49 -4 170 -41q127 -33 151 -33t78 60l35 35h17l49 -51v-17z" />
    <glyph glyph-name="multiply" unicode="&#xd7;" horiz-adv-x="983" 
d="M825 795l-252 -252l252 -252v-19l-77 -67l-256 256l-259 -256l-75 67v17l254 254l-254 252v20l75 66l259 -256l256 256l77 -66v-20z" />
    <glyph glyph-name="Oslash" unicode="&#xd8;" horiz-adv-x="1300" 
d="M1055 653q0 315 -135 445l-445 -946q74 -31 170 -31q410 0 410 532zM653 1190q-408 0 -407 -524q0 -312 129 -445l440 942q-68 27 -162 27zM1225 682q0 -334 -153.5 -516t-436.5 -182q-125 0 -219 36l-109 -229l-100 35l-8 16l110 236q-231 162 -231 567q0 328 152.5 504
t437.5 176q117 0 209 -31l88 189l98 -37l10 -21l-86 -184q238 -156 238 -559z" />
    <glyph glyph-name="Ugrave" unicode="&#xd9;" horiz-adv-x="1282" 
d="M635 -14q-237 0 -360 128t-119 365l2 178l-2 656h161l-8 -813q-4 -371 333 -371t337 350l-8 834h164l-5 -668l-2 -147q4 -244 -126 -378t-367 -134zM877 1559l-29 -74l-21 -8q-217 92 -399 176l-4 16l41 96l18 4q183 -106 394 -210z" />
    <glyph glyph-name="Uacute" unicode="&#xda;" horiz-adv-x="1282" 
d="M636 -14q-236 0 -361 129q-124 129 -119 364l2 178l-2 656h161l-6 -813q-4 -371 334 -371t334 350l-8 834h164l-2 -668l-3 -147q4 -242 -126 -377q-132 -135 -368 -135zM928 1667l-4 -16q-182 -84 -400 -176l-20 8l-29 73q211 104 393 211l19 -4z" />
    <glyph glyph-name="Ucircumflex" unicode="&#xdb;" horiz-adv-x="1282" 
d="M635 -14q-237 0 -360 128t-119 365l2 178l-2 656h161l-8 -813q-4 -371 333 -371t337 350l-8 834h164l-5 -668l-2 -147q4 -244 -126 -378t-367 -134zM625 1757h47q92 -82 239 -186l-32 -70h-19q-115 70 -211 135q-80 -55 -209 -135h-20l-33 70q138 94 238 186z" />
    <glyph glyph-name="Udieresis" unicode="&#xdc;" horiz-adv-x="1282" 
d="M635 -14q-237 0 -360 128t-119 365l2 178l-2 656h161l-8 -813q-4 -371 333 -371t337 350l-8 834h164l-5 -668l-2 -147q4 -244 -126 -378t-367 -134zM815 1706q86 0 86 -87q0 -42 -24.5 -68.5t-66.5 -26.5t-64.5 24.5t-22.5 65.5t24.5 66.5t67.5 25.5zM494 1706
q86 0 86 -87q0 -42 -25 -68.5t-67 -26.5t-64.5 24.5t-22.5 65.5t25 66.5t68 25.5z" />
    <glyph glyph-name="Thorn" unicode="&#xde;" horiz-adv-x="1075" 
d="M829 688q0 254 -270 266l-205 -6l-4 -538v-37l217 -4q262 47 262 319zM999 684q0 -205 -128 -325.5t-363 -120.5l-156 -2l4 -236h-163l6 395l-6 918h165l-2 -228l240 2q195 0 299 -99t104 -304z" />
    <glyph glyph-name="germandbls" unicode="&#xdf;" horiz-adv-x="1142" 
d="M465 219q119 -106 262 -106q70 0 121 45.5t51 121.5t-87 128.5t-277 99.5l-7 29l263 309q-117 59 -233 59t-186.5 -61.5t-70.5 -173.5l-4 -351l6 -319h-151l4 301l-2 369q0 164 115 262t301 98t411 -98l8 -27l-268 -313q180 -59 261 -131t81 -197t-97.5 -200.5
t-251.5 -75.5t-282 69l17 154z" />
    <glyph glyph-name="agrave" unicode="&#xe0;" horiz-adv-x="1048" 
d="M535 870h-13l-186 -483l180 -2l189 2zM825 0l-24 111l-53 151l-244 2l-217 -2l-56 -143l-28 -119h-152l393 1020h177l360 -1020h-156zM330 1405l-4 16l61 86l19 2q135 -133 335 -297l-45 -65l-18 -2q-145 102 -348 260z" />
    <glyph glyph-name="aacute" unicode="&#xe1;" horiz-adv-x="1048" 
d="M535 870h-13l-186 -483l180 -2l189 2zM825 0l-24 111l-53 151l-244 2l-217 -2l-56 -143l-28 -119h-152l393 1020h177l358 -1020h-154zM799 1421l-4 -16q-203 -158 -349 -260l-18 2l-45 65q201 164 336 297l18 -2z" />
    <glyph glyph-name="acircumflex" unicode="&#xe2;" horiz-adv-x="1048" 
d="M535 870h-13l-186 -483l180 -2l189 2zM825 0l-24 111l-53 151l-244 2l-217 -2l-56 -143l-28 -119h-152l393 1020h177l360 -1020h-156zM262 1219q119 119 250 274h49q127 -158 248 -274l-45 -66h-19q-127 121 -208 213q-78 -86 -209 -213h-21z" />
    <glyph glyph-name="atilde" unicode="&#xe3;" horiz-adv-x="1048" 
d="M535 870h-13l-186 -483l180 -2l189 2zM825 0l-24 111l-53 151l-244 2l-217 -2l-56 -143l-28 -119h-152l393 1020h177l358 -1020h-154zM400 1309q-22 1 -38 -13t-51 -49l-32 -35h-19l-49 54v14l125 141l20 6q49 -4 170 -41q127 -32 151 -32t79 59l35 35h16l49 -51v-17
l-125 -141l-20 -6q-45 4 -167 40t-144 36z" />
    <glyph glyph-name="adieresis" unicode="&#xe4;" horiz-adv-x="1048" 
d="M535 870h-13l-186 -483l180 -2l189 2zM825 0l-24 111l-53 151l-244 2l-217 -2l-56 -143l-28 -119h-152l393 1020h177l360 -1020h-156zM608 1323q0 41 24.5 66.5t66.5 25.5q87 0 87 -86q0 -43 -24.5 -69.5t-66.5 -26.5t-64.5 24.5t-22.5 65.5zM287 1323q0 41 24.5 66.5
t66.5 25.5q87 0 87 -86q0 -43 -24.5 -69.5t-66.5 -26.5t-64.5 24.5t-22.5 65.5z" />
    <glyph glyph-name="aring" unicode="&#xe5;" horiz-adv-x="1048" 
d="M535 870h-13l-186 -483l180 -2l189 2zM825 0l-24 111l-53 151l-244 2l-217 -2l-56 -143l-28 -119h-152l393 1020h177l358 -1020h-154zM438 1341q0 -45 26 -69t68 -23q42 0 67 23q26 23 26 65q1 92 -93 92t-94 -88zM534 1509q80 0 125 -46t45 -123q0 -76 -50 -122
t-125 -46t-121 43q-46 44 -48 123q0 79 48 125q46 46 126 46z" />
    <glyph glyph-name="ae" unicode="&#xe6;" horiz-adv-x="1433" 
d="M639 870h-12l-246 -432l315 70zM1368 0h-600l-8 109l-43 278l-420 -94l-100 -176l-41 -117h-152l567 1020h648l10 -12l-15 -119l-272 10h-162l58 -360l360 77l12 -8l9 -123l-363 -69l45 -291h189l280 8l10 -10z" />
    <glyph glyph-name="ccedilla" unicode="&#xe7;" horiz-adv-x="944" 
d="M542.5 -311q61.5 0 61.5 55q0 27 -43 51l-98 60l37 135q-197 16 -302.5 149t-105.5 375t128 379t362 137q170 0 295 -72l-29 -141l-19 -6q-109 92 -262.5 92t-234 -97t-80.5 -291t81 -296t232.5 -102t282.5 94l18 -6l-14 -142q-125 -68 -258 -75l-29 -92l70 -41
q78 -45 78 -109.5t-46 -102.5t-127 -38t-141 63l15 82l10 2q57 -63 118.5 -63z" />
    <glyph glyph-name="egrave" unicode="&#xe8;" horiz-adv-x="890" 
d="M819 119l-14 -119h-621l6 307l-6 713h625l10 -12l-12 -119l-258 8l-211 -2l-2 -309l203 -2l178 6l8 -15l-10 -120l-191 6l-190 -2l-2 -140l4 -194l196 -2l275 8zM291 1405l-4 16l61 86l19 2q135 -133 335 -297l-45 -65l-18 -2q-145 102 -348 260z" />
    <glyph glyph-name="eacute" unicode="&#xe9;" horiz-adv-x="890" 
d="M819 119l-14 -119h-621l6 307l-6 713h625l10 -12l-12 -119l-258 8l-213 -2l-2 -309l203 -2l178 6l10 -15l-12 -120l-189 6l-190 -2l-2 -140l2 -194l201 -2l272 8zM762 1421l-4 -16q-203 -158 -348 -260l-19 2l-45 65q201 164 336 297l18 -2z" />
    <glyph glyph-name="ecircumflex" unicode="&#xea;" horiz-adv-x="890" 
d="M819 119l-14 -119h-621l6 307l-6 713h625l10 -12l-12 -119l-258 8l-211 -2l-2 -309l203 -2l178 6l8 -15l-10 -120l-191 6l-190 -2l-2 -140l4 -194l196 -2l275 8zM223 1219q117 117 250 274h49q127 -158 248 -274l-45 -66h-18q-127 121 -209 213q-78 -86 -209 -213h-21z
" />
    <glyph glyph-name="edieresis" unicode="&#xeb;" horiz-adv-x="890" 
d="M819 119l-14 -119h-621l6 307l-6 713h625l10 -12l-12 -119l-258 8l-211 -2l-2 -309l203 -2l178 6l8 -15l-10 -120l-191 6l-190 -2l-2 -140l4 -194l196 -2l275 8zM569 1323q0 41 24.5 66.5t66.5 25.5q88 0 88 -86q0 -43 -25 -69.5t-67 -26.5t-64.5 24.5t-22.5 65.5z
M248 1323q0 41 24.5 66.5t66.5 25.5q87 0 87 -86q0 -43 -24.5 -69.5t-66.5 -26.5t-64.5 24.5t-22.5 65.5z" />
    <glyph glyph-name="igrave" unicode="&#xec;" horiz-adv-x="530" 
d="M338 0h-154l6 307l-6 713h156l-8 -701zM475 1212l-45 -65l-18 -2q-145 102 -349 260l-4 16l62 86l18 2q135 -133 336 -297z" />
    <glyph glyph-name="iacute" unicode="&#xed;" horiz-adv-x="530" 
d="M336 0h-152l6 307l-6 713h154l-6 -701zM532 1421l-4 -16q-203 -158 -348 -260l-18 2l-45 65q201 164 336 297l18 -2z" />
    <glyph glyph-name="icircumflex" unicode="&#xee;" horiz-adv-x="530" 
d="M338 0h-154l6 307l-6 713h156l-8 -701zM246 1493h49q127 -158 248 -274l-45 -66h-19q-127 121 -209 213q-78 -86 -209 -213h-20l-45 66q119 118 250 274z" />
    <glyph glyph-name="eth" unicode="&#xf0;" horiz-adv-x="1196" 
d="M600 115q342 0 342 392t-336 392q-100 0 -235 -8l-4 -332h262l8 -14l-6 -96h-264l-2 -130l4 -192q135 -12 231 -12zM1100 527.5q0 -248.5 -136.5 -393t-388.5 -144.5q-195 0 -358 10l6 307l-2 142h-176l-10 14l6 96h180l-4 461l399 8q234 0 359 -126t125 -374.5z" />
    <glyph glyph-name="ntilde" unicode="&#xf1;" horiz-adv-x="1220" 
d="M1032 0h-164l-536 778h-10l-3 -438l5 -340h-140l6 301l-4 719h162l537 -778h14l-4 772l141 10l-6 -719zM474 1309q-22 1 -38 -13t-51 -49l-33 -35h-18l-49 54v14l125 141l20 6q49 -4 170 -41q127 -32 151 -32t78 59l35 35h17l49 -51v-17l-125 -141l-21 -6q-45 4 -167 40
t-143 36z" />
    <glyph glyph-name="ograve" unicode="&#xf2;" horiz-adv-x="1140" 
d="M252 513q0 -206 78 -302t239.5 -96t241.5 94t80 298t-79 300t-240.5 96t-240.5 -92t-79 -298zM1049 520q0 -250 -128 -392t-357.5 -142t-350.5 134t-121 385t128 389t358.5 138t350.5 -131t120 -381zM780 1212l-45 -65l-18 -2q-145 102 -348 260l-4 16l61 86l18 2
q135 -133 336 -297z" />
    <glyph glyph-name="oacute" unicode="&#xf3;" horiz-adv-x="1140" 
d="M252 513q0 -206 78 -302t240 -96t241 94q80 94 80 298t-79 300q-78 96 -240 96t-241 -92t-79 -298zM1049 520q0 -250 -128 -392q-127 -142 -357 -142t-351 134t-121 385t129 389t359 138t349 -131q120 -131 120 -381zM838 1421l-4 -16q-203 -158 -349 -260l-18 2l-45 65
q201 164 336 297l18 -2z" />
    <glyph glyph-name="ocircumflex" unicode="&#xf4;" horiz-adv-x="1140" 
d="M252 513q0 -206 78 -302t239.5 -96t241.5 94t80 298t-79 300t-240.5 96t-240.5 -92t-79 -298zM1049 520q0 -250 -128 -392t-357.5 -142t-350.5 134t-121 385t128 389t358.5 138t350.5 -131t120 -381zM551 1493h49q127 -158 248 -274l-45 -66h-19q-127 121 -209 213
q-78 -86 -208 -213h-21l-45 66q119 118 250 274z" />
    <glyph glyph-name="otilde" unicode="&#xf5;" horiz-adv-x="1140" 
d="M252 513q0 -206 78 -302t240 -96t241 94q80 94 80 298t-79 300q-78 96 -240 96t-241 -92t-79 -298zM1049 520q0 -250 -128 -392q-127 -142 -357 -142t-351 134t-121 385t129 389t359 138t349 -131q120 -131 120 -381zM440 1309q-22 1 -38 -13t-52 -49l-33 -35h-18l-49 54
v14l125 141l20 6q49 -4 170 -41q127 -32 151 -32t79 59l34 35h17l49 -51v-17l-125 -141l-20 -6q-45 4 -167 40q-121 36 -143 36z" />
    <glyph glyph-name="divide" unicode="&#xf7;" horiz-adv-x="983" 
d="M930 485h-834l-12 13l10 102h834l12 -12zM599 182q0 -42 -24 -66q-24 -25 -67 -25q-85 0 -84 88q0 39 24 65t64 26t64 -23q23 -23 23 -65zM599 856q0 -41 -24 -66t-67 -25q-85 0 -84 88q0 39 24 65t64 26t64 -24q23 -23 23 -64z" />
    <glyph glyph-name="oslash" unicode="&#xf8;" horiz-adv-x="1140" 
d="M891 518q0 215 -98 311l-349 -698q59 -16 123 -16q164 0 244 94t80 309zM571 903q-162 0 -240.5 -93t-78.5 -308.5t96 -311.5l348 695q-55 18 -125 18zM1049 530q0 -260 -128 -402t-366 -142q-96 0 -170 24l-109 -215l-90 43l-6 17l103 204q-190 131 -191 443
q0 254 128 392t366 138q96 0 172 -24l78 155l84 -41l10 -18l-72 -143q191 -122 191 -431z" />
    <glyph glyph-name="ugrave" unicode="&#xf9;" horiz-adv-x="1124" 
d="M558 -12q-200 0 -303 95t-99 271l2 156l-4 510h155l-10 -641q-4 -260 264 -260t264 260l-4 641h154l-6 -518v-148q4 -174 -104.5 -270t-308.5 -96zM776 1212l-45 -65l-18 -2q-145 102 -348 260l-5 16l62 86l18 2q135 -133 336 -297z" />
    <glyph glyph-name="uacute" unicode="&#xfa;" horiz-adv-x="1124" 
d="M560 -12q-200 0 -304 95t-100 271l2 156l-2 510h153l-8 -641q-4 -260 264 -260t264 260l-6 641h156l-6 -518v-148q2 -174 -106 -270q-107 -96 -307 -96zM831 1421l-4 -16q-203 -158 -348 -260l-18 2l-45 65q201 164 336 297l18 -2z" />
    <glyph glyph-name="ucircumflex" unicode="&#xfb;" horiz-adv-x="1124" 
d="M558 -12q-200 0 -303 95t-99 271l2 156l-4 510h155l-10 -641q-4 -260 264 -260t264 260l-4 641h154l-6 -518v-148q4 -174 -104.5 -270t-308.5 -96zM547 1493h49q127 -158 248 -274l-45 -66h-19q-127 121 -209 213q-78 -86 -209 -213h-20l-45 66q117 116 250 274z" />
    <glyph glyph-name="udieresis" unicode="&#xfc;" horiz-adv-x="1124" 
d="M558 -12q-200 0 -303 95t-99 271l2 156l-4 510h155l-10 -641q-4 -260 264 -260t264 260l-4 641h154l-6 -518v-148q4 -174 -104.5 -270t-308.5 -96zM735 1415q86 0 86 -87q0 -42 -24.5 -68.5t-66.5 -26.5t-64.5 24.5t-22.5 65.5t24.5 66.5t67.5 25.5zM414 1415
q86 0 86 -87q0 -42 -24.5 -68.5t-66.5 -26.5t-64.5 24.5t-22.5 65.5t24.5 66.5t67.5 25.5z" />
    <glyph glyph-name="thorn" unicode="&#xfe;" horiz-adv-x="964" 
d="M713 532q0 188 -217 199l-158 -2l-4 -410v-12l176 -6q203 38 203 231zM874 532q0 -162 -107.5 -256t-305.5 -94l-125 -2l2 -180h-154l6 307l-6 713h156l-2 -170l201 2q335 0 335 -320z" />
    <glyph glyph-name="ydieresis" unicode="&#xff;" horiz-adv-x="968" 
d="M545 0h-154l6 293v59l-346 668h166l21 -59l227 -439h12l250 432l29 66h159l-374 -664l-2 -63zM567 1323q0 41 24.5 66.5t66.5 25.5q87 0 87 -86q0 -43 -24.5 -69.5t-66.5 -26.5t-64.5 24.5t-22.5 65.5zM246 1323q0 41 24.5 66.5t66.5 25.5q87 0 87 -86q0 -43 -24.5 -69.5
t-66.5 -26.5t-64.5 24.5t-22.5 65.5z" />
    <glyph glyph-name="Amacron" unicode="&#x100;" horiz-adv-x="1183" 
d="M608 1143h-14l-238 -647l230 -4l235 4zM971 0l-31 131l-74 225l-295 6l-266 -6l-80 -217l-32 -139h-164l481 1313h190l439 -1313h-168zM885 1565h-580l-12 12l10 94h580l12 -10z" />
    <glyph glyph-name="amacron" unicode="&#x101;" horiz-adv-x="1048" 
d="M535 870h-13l-186 -483l180 -2l189 2zM825 0l-24 111l-53 151l-244 2l-217 -2l-56 -143l-28 -119h-152l393 1020h177l358 -1020h-154zM825 1274h-579l-13 12l11 94h579l13 -10z" />
    <glyph glyph-name="Abreve" unicode="&#x102;" horiz-adv-x="1183" 
d="M608 1143h-14l-238 -647l230 -4l235 4zM971 0l-31 131l-74 225l-295 6l-266 -6l-80 -217l-32 -139h-164l481 1313h190l439 -1313h-168zM591 1483q-95 0 -161 47t-94 137l45 57h25q45 -125 186 -125t190 125h25l47 -57q-32 -88 -100 -136t-163 -48z" />
    <glyph glyph-name="abreve" unicode="&#x103;" horiz-adv-x="1048" 
d="M535 870h-13l-186 -483l180 -2l189 2zM825 0l-24 111l-53 151l-244 2l-217 -2l-56 -143l-28 -119h-152l393 1020h177l358 -1020h-154zM533 1161q-208 0 -254 236l45 59h24q39 -178 189 -178t188 178h25l47 -59q-56 -236 -264 -236z" />
    <glyph glyph-name="Aogonek" unicode="&#x104;" horiz-adv-x="1183" 
d="M608 1143h-14l-238 -647l230 -4l235 4zM1047 -403q-72 0 -115 43t-43 103t23.5 113.5t86.5 143.5h-28l-29 131l-74 225l-297 6l-266 -6l-80 -217l-32 -139h-164l483 1313h190l439 -1313h-41q-102 -152 -102 -222t72 -71q73 0 149 76h10l22 -78q-98 -108 -204 -108z" />
    <glyph glyph-name="aogonek" unicode="&#x105;" horiz-adv-x="1048" 
d="M535 870h-13l-186 -483l180 -2l189 2zM739 -247q0 75 111 247h-25l-24 111l-53 151l-244 2l-217 -2l-56 -143l-28 -119h-152l393 1020h177l360 -1020h-27q-104 -145 -104 -217t61 -72q66 0 123 86h10l23 -90q-86 -108 -176 -108q-66 0 -109 39.5t-43 114.5z" />
    <glyph glyph-name="Cacute" unicode="&#x106;" horiz-adv-x="1064" 
d="M643 1186q-187 0 -291 -134t-104 -394t104 -396q104 -137 294 -137t343 125l21 -10l-15 -156q-178 -98 -362 -98q-264 0 -410 171q-145 171 -145 493t151 497q152 176 430 176q207 0 359 -98l-33 -150l-18 -4q-137 115 -324 115zM924 1667l-4 -16q-182 -84 -400 -176
l-20 8l-29 73q211 104 393 211l19 -4z" />
    <glyph glyph-name="cacute" unicode="&#x107;" horiz-adv-x="944" 
d="M565 903q-311 0 -311 -387q0 -195 80 -297t234 -102t280 94l18 -6l-14 -142q-139 -76 -293 -75q-225 0 -346 134t-121 384t128 387t362 137q170 0 295 -72l-29 -141l-19 -6q-109 92 -264 92zM807 1421l-4 -16q-203 -158 -348 -260l-19 2l-45 65q201 164 336 297l18 -2z
" />
    <glyph glyph-name="Ccircumflex" unicode="&#x108;" horiz-adv-x="1064" 
d="M643 1186q-187 0 -291 -134t-104 -393.5t104.5 -396.5t293.5 -137t343 125l21 -10l-15 -156q-178 -98 -362 -98q-264 0 -409.5 171t-145.5 492.5t151.5 497.5t429.5 176q207 0 359 -98l-33 -150l-18 -4q-137 115 -324 115zM618 1757h48q92 -82 239 -186l-33 -70h-18
q-115 70 -211 135q-80 -55 -209 -135h-20l-33 70q137 94 237 186z" />
    <glyph glyph-name="ccircumflex" unicode="&#x109;" horiz-adv-x="944" 
d="M566.5 903q-153.5 0 -234 -97t-80.5 -291t81 -296t232.5 -102t282.5 94l18 -6l-14 -142q-139 -76 -293 -75q-225 0 -346 134t-121 384t128 387t362 137q170 0 295 -72l-29 -141l-19 -6q-109 92 -262.5 92zM518 1493h49q127 -158 248 -274l-45 -66h-18q-127 121 -209 213
q-78 -86 -209 -213h-21l-45 66q119 118 250 274z" />
    <glyph glyph-name="Cdotaccent" unicode="&#x10a;" horiz-adv-x="1064" 
d="M643 1186q-187 0 -291 -134t-104 -394t104 -396q104 -137 294 -137t343 125l21 -10l-15 -156q-178 -98 -362 -98q-264 0 -410 171q-145 171 -145 493t151 497q152 176 430 176q207 0 359 -98l-33 -150l-18 -4q-137 115 -324 115zM641 1540q-90 0 -90 94q0 43 26 70
q27 27 69 27t67 -25t25 -69q0 -45 -26 -71t-71 -26z" />
    <glyph glyph-name="cdotaccent" unicode="&#x10b;" horiz-adv-x="944" 
d="M566.5 903q-153.5 0 -234 -97t-80.5 -291t81 -296t232.5 -102t282.5 94l18 -6l-14 -142q-139 -76 -293 -75q-225 0 -346 134t-121 384t128 387t362 137q170 0 295 -72l-29 -141l-19 -6q-109 92 -262.5 92zM635 1347q0 -44 -25.5 -71t-70.5 -27q-90 0 -90 94q0 43 25.5 70
t68.5 27t67.5 -24.5t24.5 -68.5z" />
    <glyph glyph-name="Ccaron" unicode="&#x10c;" horiz-adv-x="1064" 
d="M643 1186q-187 0 -291 -134t-104 -394t104 -396q104 -137 294 -137t343 125l21 -10l-15 -156q-178 -98 -362 -98q-264 0 -410 171q-145 171 -145 493t151 497q152 176 430 176q207 0 359 -98l-33 -150l-18 -4q-137 115 -324 115zM670 1481h-47q-92 82 -240 186l33 70h18
q115 -70 211 -135q80 55 209 135h20l33 -70q-137 -94 -237 -186z" />
    <glyph glyph-name="ccaron" unicode="&#x10d;" horiz-adv-x="944" 
d="M565 903q-311 0 -311 -387q0 -195 80 -297t234 -102t280 94l18 -6l-14 -142q-139 -76 -293 -75q-225 0 -346 134t-121 384t128 387t362 137q170 0 295 -72l-29 -141l-19 -6q-109 92 -264 92zM565 1151h-49q-127 158 -248 274l45 66h19q127 -121 209 -213q78 86 209 213
h20l45 -66q-117 -116 -250 -274z" />
    <glyph glyph-name="Dcaron" unicode="&#x10e;" horiz-adv-x="1323" 
d="M653 1184q-129 0 -297 -8l-8 -766l6 -273q143 -12 291 -12q209 0 321 136t111 407q0 516 -424 516zM618 -12q-201 0 -425 12h-3l11 395l-11 918h3l473 8q280 0 430 -160t149 -459q0 -346 -162 -530t-465 -184zM670 1481h-47q-92 82 -240 186l33 70h18q115 -70 211 -135
q80 55 209 135h20l33 -70q-137 -94 -237 -186z" />
    <glyph glyph-name="dcaron" unicode="&#x10f;" horiz-adv-x="1159" 
d="M909 514q0 385 -338 385q-100 0 -235 -8l-4 -572l2 -192q135 -12 233 -12q164 0 253 99t89 300zM1065 528q0 -250 -135 -394t-387 -144q-195 0 -359 10l6 307l-6 713l400 8q233 0 357 -125t124 -375zM571 1151h-49q-127 158 -248 274l45 66h19q127 -121 209 -213
q78 86 209 213h20l45 -66q-117 -116 -250 -274z" />
    <glyph glyph-name="Dcroat" unicode="&#x110;" horiz-adv-x="1323" 
d="M653 1184q-129 0 -297 -8l-8 -766l6 -273q143 -12 291 -12q209 0 321 136t111 407q0 516 -424 516zM618 -12q-201 0 -425 12h-3l11 395l-11 918h3l473 8q280 0 430 -160t149 -459q0 -346 -162 -530t-465 -184zM934 1565h-580l-12 12l10 94h580l12 -10z" />
    <glyph glyph-name="dcroat" unicode="&#x111;" horiz-adv-x="1159" 
d="M909 514q0 385 -338 385q-100 0 -235 -8l-4 -572l2 -192q135 -12 233 -12q164 0 253 99t89 300zM1065 528q0 -250 -135 -394t-387 -144q-195 0 -359 10l6 307l-6 713l400 8q233 0 357 -125t124 -375zM838 1274h-580l-12 12l10 94h580l12 -10z" />
    <glyph glyph-name="Emacron" unicode="&#x112;" horiz-adv-x="987" 
d="M928 0h-738l11 395l-11 918h740l8 -17l-12 -127l-310 7l-260 -5l-4 -430l246 -4l217 6l12 -14l-14 -127l-229 4l-234 -2l-2 -194l6 -273l260 -2l316 8l10 -16zM852 1565h-580l-12 12l10 94h580l12 -10z" />
    <glyph glyph-name="emacron" unicode="&#x113;" horiz-adv-x="890" 
d="M819 119l-14 -119h-621l6 307l-6 713h625l10 -12l-12 -119l-258 8l-213 -2l-2 -309l203 -2l178 6l10 -15l-12 -120l-189 6l-190 -2l-2 -140l2 -194l201 -2l272 8zM786 1274h-579l-12 12l10 94h579l13 -10z" />
    <glyph glyph-name="Ebreve" unicode="&#x114;" horiz-adv-x="987" 
d="M928 0h-738l11 395l-11 918h740l8 -17l-12 -127l-310 7l-260 -5l-4 -430l246 -4l217 6l12 -14l-14 -127l-229 4l-234 -2l-2 -194l6 -273l260 -2l316 8l10 -16zM558 1483q-95 0 -161 47t-94 137l45 57h25q45 -125 186 -125t191 125h24l47 -57q-32 -88 -100 -136t-163 -48z
" />
    <glyph glyph-name="ebreve" unicode="&#x115;" horiz-adv-x="890" 
d="M819 119l-14 -119h-621l6 307l-6 713h625l10 -12l-12 -119l-258 8l-213 -2l-2 -309l203 -2l178 6l10 -15l-12 -120l-189 6l-190 -2l-2 -140l2 -194l201 -2l272 8zM495 1161q-208 0 -255 236l45 59h24q39 -178 189 -178t188 178h25l47 -59q-55 -236 -263 -236z" />
    <glyph glyph-name="Edotaccent" unicode="&#x116;" horiz-adv-x="987" 
d="M940 127l-12 -127h-738l11 395l-11 918h740l10 -17l-14 -127l-310 7l-260 -5l-4 -430l246 -4l217 6l10 -14l-12 -127l-229 4l-234 -2l-2 -194l6 -273l262 -2l314 8zM469 1634q0 43 25.5 70t68.5 27t67.5 -25t24.5 -69t-25.5 -70.5t-70.5 -26.5q-90 0 -90 94z" />
    <glyph glyph-name="edotaccent" unicode="&#x117;" horiz-adv-x="890" 
d="M819 119l-14 -119h-621l6 307l-6 713h625l10 -12l-12 -119l-258 8l-211 -2l-2 -309l203 -2l178 6l8 -15l-10 -120l-191 6l-190 -2l-2 -140l4 -194l196 -2l275 8zM403 1343q0 43 26 70t69 27t67.5 -24.5t24.5 -68.5t-25.5 -71t-70.5 -27q-91 0 -91 94z" />
    <glyph glyph-name="Eogonek" unicode="&#x118;" horiz-adv-x="987" 
d="M766 -403q-86 0 -130 45t-44 120.5t51 147.5l62 90h-515l11 395l-11 918h740l10 -17l-14 -127l-310 7l-260 -5l-4 -430l246 -4l217 6l10 -14l-12 -127l-229 4l-234 -2l-2 -194l6 -273l262 -2l314 8l10 -16l-12 -127h-121l-72 -109q-37 -59 -37 -99t21.5 -62.5t60.5 -22.5
q70 0 142 78h10l22 -82q-102 -106 -188 -106z" />
    <glyph glyph-name="eogonek" unicode="&#x119;" horiz-adv-x="890" 
d="M635 -408q-86 0 -130 45.5t-44 121t51 147.5l66 94h-394l6 307l-6 713h625l10 -12l-12 -119l-258 8l-211 -2l-2 -309l203 -2l178 6l8 -15l-10 -120l-191 6l-190 -2l-2 -140l4 -194l196 -2l275 8l12 -12l-14 -119h-127l-74 -113q-37 -57 -37 -98t21.5 -63.5t60.5 -22.5
q70 0 142 78h10l22 -82q-102 -107 -188 -107z" />
    <glyph glyph-name="Ecaron" unicode="&#x11a;" horiz-adv-x="987" 
d="M928 0h-738l11 395l-11 918h740l8 -17l-12 -127l-310 7l-260 -5l-4 -430l246 -4l217 6l12 -14l-14 -127l-229 4l-234 -2l-2 -194l6 -273l260 -2l316 8l10 -16zM588 1481h-47q-92 82 -240 186l33 70h18q115 -70 211 -135q80 55 209 135h21l32 -70q-137 -94 -237 -186z" />
    <glyph glyph-name="ecaron" unicode="&#x11b;" horiz-adv-x="890" 
d="M819 119l-14 -119h-621l6 307l-6 713h625l10 -12l-12 -119l-258 8l-213 -2l-2 -309l203 -2l178 6l10 -15l-12 -120l-189 6l-190 -2l-2 -140l2 -194l201 -2l272 8zM520 1151h-49q-127 158 -248 274l45 66h19q127 -121 209 -213q78 86 209 213h20l45 -66
q-117 -116 -250 -274z" />
    <glyph glyph-name="Gcircumflex" unicode="&#x11c;" horiz-adv-x="1228" 
d="M664 -14q-586 0 -586 657q0 326 166 503t473 177q205 0 387 -92l-35 -156l-20 -4q-185 115 -357 115q-444 0 -444 -549q0 -264 103.5 -388t320.5 -124q102 0 266 49l6 154l-4 186l154 12l-4 -176l8 -287q-250 -78 -434 -77zM643 1757h47q92 -82 240 -186l-33 -70h-18
q-115 70 -211 135q-80 -55 -209 -135h-21l-32 70q137 94 237 186z" />
    <glyph glyph-name="gcircumflex" unicode="&#x11d;" horiz-adv-x="1077" 
d="M252 501q0 -204 81 -294t253 -90q98 0 215 43v102l-2 146l141 10l-2 -133v-236q-205 -61 -356 -61q-242 0 -366 130t-124 381.5t140.5 391t392.5 139.5q161 1 321 -69l-51 -148h-16q-136 88 -294.5 88t-245.5 -98t-87 -302zM549 1493h49q127 -158 248 -274l-45 -66h-19
q-127 121 -209 213q-78 -86 -208 -213h-21l-45 66q119 116 250 274z" />
    <glyph glyph-name="Gbreve" unicode="&#x11e;" horiz-adv-x="1228" 
d="M664 -14q-586 0 -586 658q0 326 166 502q166 177 473 177q207 0 385 -92l-33 -156l-20 -4q-185 115 -357 115q-444 0 -444 -549q0 -264 103 -388t321 -124q102 0 266 49l4 154l-2 186l154 12l-4 -176l8 -287q-250 -78 -434 -77zM664 1483q-94 0 -160 47t-94 137l45 57h24
q45 -125 187 -125t190 125h25l47 -57q-33 -88 -101 -136q-69 -48 -163 -48z" />
    <glyph glyph-name="gbreve" unicode="&#x11f;" horiz-adv-x="1077" 
d="M254 500q0 -205 80 -294t254 -89q96 0 213 43v102l-2 146l141 10v-369q-207 -61 -358 -61q-242 0 -366 130t-124 382t140 390q140 140 395 140q159 1 321 -69l-51 -148h-18q-136 88 -294 88q-157 0 -244 -98t-87 -303zM570 1161q-208 0 -255 236l45 59h25
q39 -178 189 -178t188 178h24l48 -59q-56 -236 -264 -236z" />
    <glyph glyph-name="Gdotaccent" unicode="&#x120;" horiz-adv-x="1228" 
d="M664 -14q-586 0 -586 658q0 326 166 502q166 177 473 177q207 0 385 -92l-33 -156l-20 -4q-185 115 -357 115q-444 0 -444 -549q0 -264 103 -388t321 -124q102 0 266 49l4 154l-2 186l154 12l-4 -176l8 -287q-250 -78 -434 -77zM762 1637q0 -45 -26 -71t-70 -26
q-90 0 -91 94q0 43 26 70q27 27 69 27t67 -25t25 -69z" />
    <glyph glyph-name="gdotaccent" unicode="&#x121;" horiz-adv-x="1077" 
d="M252 501q0 -204 81 -294t253 -90q98 0 215 43v102l-2 146l141 10l-2 -133v-236q-205 -61 -356 -61q-242 0 -366 130t-124 381.5t140.5 391t392.5 139.5q161 1 321 -69l-51 -148h-16q-136 88 -294.5 88t-245.5 -98t-87 -302zM666 1347q0 -44 -26 -71t-71 -27q-90 0 -90 94
q0 43 25.5 70t68.5 27t68 -24.5t25 -68.5z" />
    <glyph glyph-name="Gcommaaccent" unicode="&#x122;" horiz-adv-x="1228" 
d="M748 -242q0 -125 -181 -256l-53 47v13q106 84 107 168q0 49 -60 92v14q49 33 107 51q80 -55 80 -129zM664 -14q-586 0 -586 657q0 326 166 503t473 177q205 0 387 -92l-35 -156l-20 -4q-185 115 -357 115q-444 0 -444 -549q0 -264 103.5 -388t320.5 -124q102 0 266 49
l6 154l-4 186l154 12l-4 -176l8 -287q-250 -78 -434 -77z" />
    <glyph glyph-name="gcommaaccent" unicode="&#x123;" horiz-adv-x="1077" 
d="M666 -242q0 -125 -181 -256l-53 47v13q106 84 107 168q0 49 -60 92v14q49 33 107 51q80 -55 80 -129zM252 501q0 -204 81 -294t253 -90q98 0 215 43v102l-2 146l141 10l-2 -133v-236q-205 -61 -356 -61q-242 0 -366 130t-124 381.5t140.5 391t392.5 139.5q161 1 321 -69
l-51 -148h-16q-136 88 -294.5 88t-245.5 -98t-87 -302z" />
    <glyph glyph-name="Hcircumflex" unicode="&#x124;" horiz-adv-x="1398" 
d="M1206 0h-166l11 395l-2 197l-365 6l-334 -6l-2 -182l8 -410h-166l11 395l-11 918h168l-6 -578l346 -6l349 6l-7 578h168l-10 -903zM430 1571q137 94 238 186h47q92 -82 239 -186l-32 -70h-19q-115 70 -211 135q-80 -55 -209 -135h-20z" />
    <glyph glyph-name="hcircumflex" unicode="&#x125;" horiz-adv-x="1220" 
d="M1038 0h-153l6 307l-2 139l-555 -2l-2 -125l6 -319h-154l6 307l-6 713h156l-6 -438l276 -2l279 2l-4 438h155l-8 -701zM340 1219q119 119 250 274h49q127 -158 248 -274l-45 -66h-19q-127 121 -209 213q-78 -86 -208 -213h-21z" />
    <glyph glyph-name="Hbar" unicode="&#x126;" horiz-adv-x="1464" 
d="M383 979l-2 -244l344 -6l352 6l-4 244h-690zM1229 410l6 -410h-166l12 395l-2 197l-366 6l-334 -6l-2 -182l8 -410h-166l10 395l-6 584h-131l-10 8l8 107h131l-2 219h168l-2 -219h686l-2 219h168l-2 -219h137l10 -13l-8 -102h-139z" />
    <glyph glyph-name="hbar" unicode="&#x127;" horiz-adv-x="1271" 
d="M354 745l-2 -163l279 -2l276 2l-2 163h-551zM1051 319l6 -319h-154l6 307l-2 139l-555 -2l-2 -125l6 -319h-153l6 307l-4 438h-107l-8 13l10 86h105l-2 176h155l-2 -176h549l-2 176h156l-2 -176h114l11 -8l-11 -91h-116z" />
    <glyph glyph-name="Imacron" unicode="&#x12a;" horiz-adv-x="548" 
d="M356 0h-166l11 395l-11 918h168l-10 -903zM498 1565h-445l-10 12l8 94h445l10 -10z" />
    <glyph glyph-name="imacron" unicode="&#x12b;" horiz-adv-x="530" 
d="M336 0h-152l6 307l-6 713h154l-6 -701zM492 1274h-445l-10 12l8 94h444l11 -10z" />
    <glyph glyph-name="Ibreve" unicode="&#x12c;" horiz-adv-x="548" 
d="M356 0h-166l11 395l-11 918h168l-10 -903zM271 1483q-196 0 -255 184l45 57h25q45 -125 186 -125t191 125h24l48 -57q-33 -88 -101 -136t-163 -48z" />
    <glyph glyph-name="ibreve" unicode="&#x12d;" horiz-adv-x="530" 
d="M336 0h-152l6 307l-6 713h154l-6 -701zM267 1161q-208 0 -255 236l45 59h25q38 -178 188 -178t189 178h24l47 -59q-55 -236 -263 -236z" />
    <glyph glyph-name="Iogonek" unicode="&#x12e;" horiz-adv-x="548" 
d="M229 -403q-72 0 -113.5 42t-41.5 102t24.5 114.5t89.5 144.5h2l11 395l-11 918h168l-10 -903l8 -410h-65q-109 -156 -109 -224.5t66 -68.5q45 0 88 49h12l21 -96q-68 -63 -140 -63z" />
    <glyph glyph-name="iogonek" unicode="&#x12f;" horiz-adv-x="530" 
d="M225 -403q-72 0 -113.5 42t-41.5 102t24.5 114.5t89.5 144.5l6 307l-6 713h156l-8 -701l6 -319h-51q-109 -156 -109 -224.5t66 -68.5q45 0 88 49h12l21 -96q-68 -63 -140 -63z" />
    <glyph glyph-name="Idotaccent" unicode="&#x130;" horiz-adv-x="548" 
d="M356 0h-166l11 395l-11 918h168l-10 -903zM367 1637q0 -44 -26 -70.5t-71 -26.5q-90 0 -90 94q0 43 25.5 70t68.5 27t68 -25t25 -69z" />
    <glyph glyph-name="dotlessi" unicode="&#x131;" horiz-adv-x="530" 
d="M336 0h-152l6 307l-6 713h154l-6 -701z" />
    <glyph glyph-name="IJ" unicode="&#x132;" horiz-adv-x="1183" 
d="M356 0h-166l11 395l-11 918h168l-10 -903zM989 242q0 -156 -78 -257t-270 -194l-63 92v21q141 76 200 150t60 186v178l-9 762l-251 -2l-17 14l10 121h422l-8 -879z" />
    <glyph glyph-name="ij" unicode="&#x133;" horiz-adv-x="1122" 
d="M336 0h-152l6 307l-6 713h154l-6 -701zM928 190q0 -124 -56 -204t-200 -150l-62 80v14q96 54 136 112t40 146v131l-4 584l-194 -2l-10 12l10 107h346l-6 -682v-148z" />
    <glyph glyph-name="Jcircumflex" unicode="&#x134;" horiz-adv-x="634" 
d="M440 242q0 -156 -78 -257t-270 -194l-63 92v21q141 76 200 150t60 186v178l-8 762l-252 -2l-17 14l11 121h421l-8 -879zM248 1757h47q92 -82 240 -186l-33 -70h-19q-115 70 -211 135q-80 -55 -209 -135h-20l-33 70q138 94 238 186z" />
    <glyph glyph-name="jcircumflex" unicode="&#x135;" horiz-adv-x="591" 
d="M397 190q0 -124 -56 -204t-200 -150l-61 80v14q96 54 136 112t40 146v131l-4 584l-195 -2l-10 12l10 107h346l-6 -682v-148zM207 1493h49q127 -158 248 -274l-45 -66h-19q-127 121 -209 213q-78 -86 -208 -213h-21l-45 66q117 116 250 274z" />
    <glyph glyph-name="Kcommaaccent" unicode="&#x136;" horiz-adv-x="1118" 
d="M707 -242q0 -125 -181 -256l-53 47v13q106 84 107 168q0 49 -60 92v14q49 33 107 51q80 -55 80 -129zM1120 35l-2 -21q-70 -20 -155 -32l-21 10q-350 401 -565 694v12l438 500l82 115h186l-532 -617q272 -352 569 -661zM354 0h-166l11 395l-11 918h168l-10 -903z" />
    <glyph glyph-name="kcommaaccent" unicode="&#x137;" horiz-adv-x="1003" 
d="M606 -242q0 -125 -180 -256l-53 47v13q106 84 106 168q0 49 -59 92v14q49 33 106 51q80 -55 80 -129zM338 0h-154l6 307l-6 713h156l-8 -701zM977 35l-4 -23q-63 -20 -148 -30l-24 10q-281 313 -453 540v13l352 385l68 90l182 2l-434 -479q217 -266 461 -508z" />
    <glyph glyph-name="kgreenlandic" unicode="&#x138;" horiz-adv-x="1003" 
d="M336 0h-152l6 307l-6 713h154l-6 -701zM977 35l-4 -23q-63 -20 -148 -30l-24 10q-262 295 -453 540v13l352 385l68 90l182 2l-434 -479q217 -266 461 -508z" />
    <glyph glyph-name="Lacute" unicode="&#x139;" horiz-adv-x="851" 
d="M831 0h-647l11 395l-11 918h168l-10 -903l6 -273h486l12 -14zM700 1667l-4 -16q-182 -84 -399 -176l-21 8l-28 73q211 104 393 211l18 -4z" />
    <glyph glyph-name="lacute" unicode="&#x13a;" horiz-adv-x="772" 
d="M723 0h-543l6 307l-6 713h154l-6 -701l4 -190h393l8 -14zM610 1421l-4 -16q-203 -158 -348 -260l-18 2l-45 65q201 164 335 297l19 -2z" />
    <glyph glyph-name="Lcommaaccent" unicode="&#x13b;" horiz-adv-x="851" 
d="M600 -242q0 -125 -180 -256l-53 47v13q106 84 106 168q0 49 -59 92v14q49 33 106 51q80 -55 80 -129zM831 0h-647l11 395l-11 918h168l-10 -903l6 -273h486l12 -14z" />
    <glyph glyph-name="lcommaaccent" unicode="&#x13c;" horiz-adv-x="772" 
d="M512 -242q0 -125 -180 -256l-53 47v13q106 84 106 168q0 49 -59 92v14q49 33 106 51q80 -55 80 -129zM721 0h-541l6 307l-6 713h156l-8 -701l4 -190h391l10 -14z" />
    <glyph glyph-name="Lcaron" unicode="&#x13d;" horiz-adv-x="868" 
d="M639 827l10 359l117 8l12 -14l-47 -353l-78 -12zM831 0h-647l11 395l-11 918h168l-10 -903l6 -273h486l12 -14z" />
    <glyph glyph-name="lcaron" unicode="&#x13e;" horiz-adv-x="792" 
d="M573 610l9 359l118 8l11 -14l-47 -353l-78 -12zM721 0h-541l6 307l-6 713h156l-8 -701l4 -190h391l10 -14z" />
    <glyph glyph-name="Ldot" unicode="&#x13f;" horiz-adv-x="851" 
d="M831 0h-647l11 395l-11 918h168l-10 -903l6 -273h486l12 -14zM688 680q-90 0 -90 94q0 43 26 70t68 27t68 -25q24 -25 24 -69q0 -45 -26 -71t-70 -26z" />
    <glyph glyph-name="ldot" unicode="&#x140;" horiz-adv-x="792" 
d="M494 590q0 43 25.5 69.5t68.5 26.5t67.5 -24.5t24.5 -68.5t-25.5 -70.5t-70.5 -26.5q-90 0 -90 94zM721 0h-541l6 307l-6 713h156l-8 -701l4 -190h391l10 -14z" />
    <glyph glyph-name="Lslash" unicode="&#x141;" horiz-adv-x="878" 
d="M860 0h-647l10 395l-2 197l-149 -80l-21 10l-31 99l199 104l-6 588h166l-4 -506l266 139l18 -8l31 -96l-317 -170l-2 -262l6 -273h485l12 -14z" />
    <glyph glyph-name="lslash" unicode="&#x142;" horiz-adv-x="811" 
d="M756 0h-543l6 307l-2 142l-131 -62l-18 10l-25 90l174 82l-4 451h156l-4 -383l204 96l15 -6l26 -92l-248 -117l-2 -199l5 -190h393l10 -14z" />
    <glyph glyph-name="Nacute" unicode="&#x143;" horiz-adv-x="1398" 
d="M1202 0h-172l-678 1051h-12l-2 -619l6 -432h-154l11 389l-6 924h172l675 -1051h15l-2 1043l155 12l-12 -932zM977 1667l-4 -16q-182 -84 -400 -176l-20 8l-29 73q211 104 394 211l18 -4z" />
    <glyph glyph-name="nacute" unicode="&#x144;" horiz-adv-x="1220" 
d="M1032 0h-164l-536 778h-10l-3 -438l5 -340h-140l6 301l-4 719h162l537 -778h14l-4 772l141 10l-6 -719zM872 1421l-4 -16q-203 -158 -348 -260l-18 2l-45 65q201 164 336 297l18 -2z" />
    <glyph glyph-name="Ncommaaccent" unicode="&#x145;" horiz-adv-x="1398" 
d="M811 -242q0 -125 -180 -256l-53 47v13q106 84 106 168q0 49 -59 92v14q49 33 106 51q80 -55 80 -129zM1202 0h-172l-676 1051h-14l-2 -619l8 -432h-156l11 389l-6 924h172l677 -1051h13l-2 1043l155 12l-12 -932z" />
    <glyph glyph-name="ncommaaccent" unicode="&#x146;" horiz-adv-x="1220" 
d="M723 -242q0 -125 -180 -256l-54 47v13q106 84 107 168q0 49 -59 92v14q49 33 106 51q80 -55 80 -129zM1034 0h-164l-538 778h-10l-3 -438l5 -340h-140l6 301l-4 719h162l537 -778h14l-4 772l143 10l-8 -719z" />
    <glyph glyph-name="Ncaron" unicode="&#x147;" horiz-adv-x="1398" 
d="M1202 0h-172l-678 1051h-12l-2 -619l6 -432h-154l11 389l-6 924h172l675 -1051h15l-2 1043l155 12l-12 -932zM721 1481h-47q-92 82 -240 186l33 70h18q115 -70 211 -135q80 55 209 135h21l32 -70q-137 -94 -237 -186z" />
    <glyph glyph-name="ncaron" unicode="&#x148;" horiz-adv-x="1220" 
d="M1032 0h-164l-536 778h-10l-3 -438l5 -340h-140l6 301l-4 719h162l537 -778h14l-4 772l141 10l-6 -719zM631 1151h-49q-127 158 -248 274l45 66h18q127 -121 209 -213q78 86 209 213h21l45 -66q-117 -116 -250 -274z" />
    <glyph glyph-name="Eng" unicode="&#x14a;" horiz-adv-x="1398" 
d="M1200 115q0 -152 -78 -252.5t-270 -190.5l-64 90v21q102 55 160 106.5t82 112.5l-678 1049h-12l-2 -619l6 -432h-154l11 389l-6 924h172l675 -1049h15l-2 1041l155 12l-12 -932z" />
    <glyph glyph-name="eng" unicode="&#x14b;" horiz-adv-x="1220" 
d="M319 778v-438l5 -340h-140l9 301l-7 719h162l537 -762h14l-4 756l141 10l-6 -719l2 -227q0 -117 -50 -191.5t-175 -142.5l-53 66v18q113 76 129 170l-551 780h-13z" />
    <glyph glyph-name="Omacron" unicode="&#x14c;" horiz-adv-x="1300" 
d="M653 1190q-407 0 -407 -534t399 -535q410 0 410 532q1 273 -99 405t-303 132zM643 -16q-274 0 -420 172q-145 172 -145 494t152 499q154 176 430 176t420 -166q144 -167 144 -489t-153 -504q-154 -182 -428 -182zM944 1565h-579l-13 12l10 94h580l12 -10z" />
    <glyph glyph-name="omacron" unicode="&#x14d;" horiz-adv-x="1140" 
d="M252 513q0 -206 78 -302t240 -96t241 94q80 94 80 298t-79 300q-78 96 -240 96t-241 -92t-79 -298zM1049 520q0 -250 -128 -392q-127 -142 -357 -142t-351 134t-121 385t129 389t359 138t349 -131q120 -131 120 -381zM864 1274h-579l-13 12l11 94h579l12 -10z" />
    <glyph glyph-name="Obreve" unicode="&#x14e;" horiz-adv-x="1300" 
d="M653 1190q-407 0 -407 -534t399 -535q410 0 410 532q1 273 -99 405t-303 132zM643 -16q-274 0 -420 172q-145 172 -145 494t152 499q154 176 430 176t420 -166q144 -167 144 -489t-153 -504q-154 -182 -428 -182zM650 1483q-95 0 -161 47t-94 137l45 57h25
q45 -125 186 -125t191 125h24l47 -57q-32 -88 -100 -136t-163 -48z" />
    <glyph glyph-name="obreve" unicode="&#x14f;" horiz-adv-x="1140" 
d="M252 513q0 -206 78 -302t240 -96t241 94q80 94 80 298t-79 300q-78 96 -240 96t-241 -92t-79 -298zM1049 520q0 -250 -128 -392q-127 -142 -357 -142t-351 134t-121 385t129 389t359 138t349 -131q120 -131 120 -381zM572 1161q-208 0 -255 236l45 59h25
q39 -178 189 -178t188 178h24l48 -59q-56 -236 -264 -236z" />
    <glyph glyph-name="Ohungarumlaut" unicode="&#x150;" horiz-adv-x="1300" 
d="M653 1190q-407 0 -407 -534t399 -535q410 0 410 532q1 273 -99 405t-303 132zM643 -16q-274 0 -420 172q-145 172 -145 494t152 499q154 176 430 176t420 -166q144 -167 144 -489t-153 -504q-154 -182 -428 -182zM918 1767h14l76 -51v-18l-242 -225l-18 -3l-54 50
q148 159 224 247zM438 1559q145 160 187 208h16l74 -51v-18q-74 -74 -242 -225l-18 -3l-54 50z" />
    <glyph glyph-name="ohungarumlaut" unicode="&#x151;" horiz-adv-x="1140" 
d="M252 513q0 -206 78 -302t240 -96t241 94q80 94 80 298t-79 300q-78 96 -240 96t-241 -92t-79 -298zM1049 520q0 -250 -128 -392q-127 -142 -357 -142t-351 134t-121 385t129 389t359 138t349 -131q120 -131 120 -381zM885 1509l16 2l76 -55l-2 -16q-129 -135 -295 -293
l-16 -2l-56 49q113 118 277 315zM596 1509l14 2l76 -55v-16q-129 -135 -295 -293l-18 -2l-54 49q97 102 277 315z" />
    <glyph glyph-name="OE" unicode="&#x152;" horiz-adv-x="1742" 
d="M246 657q0 -547 467 -546q117 0 192 20q51 16 51 72l-8 895q0 68 -28 76q-60 26 -205 26q-232 0 -350.5 -137t-118.5 -406zM1073 1313h610l11 -17l-13 -127l-295 7h-276l-2 -435l233 -4l232 6l10 -14l-14 -127l-240 4l-225 -2v-205l2 -262l256 -2l321 8l13 -16l-15 -127
h-608q-45 2 -180 -11t-197 -14q-295 0 -456.5 176.5t-161.5 500t170 504.5t479 181q67 0 180 -12t166 -12z" />
    <glyph glyph-name="oe" unicode="&#x153;" horiz-adv-x="1507" 
d="M252 510q0 -203 90 -301t276 -98q106 0 156 20q23 6 30 18.5t7 38.5l-6 633q0 53 -21 62q-68 23 -166 22q-184 0 -275 -96t-91 -299zM92 505q0 251 142.5 392t396.5 141q73 0 159 -9t132 -9h510l8 -12l-10 -119l-248 8h-224v-311l189 -2l190 6l11 -15l-13 -120l-198 6
l-183 -2v-336h209l267 8l10 -12l-15 -119h-503l-318 -18q-246 0 -379 136t-133 387z" />
    <glyph glyph-name="Racute" unicode="&#x154;" horiz-adv-x="1136" 
d="M825 928q0 242 -270 252l-199 -6l-6 -547l246 -6q229 65 229 307zM348 487v-77l8 -410h-166l11 395l-11 918l402 2q193 0 298 -97t105 -278q-1 -135 -71 -243t-199 -167q135 -223 340 -491l-2 -21q-74 -29 -152 -36l-22 14q-168 252 -301 491h-240zM834 1712l-5 -16
q-203 -158 -348 -260l-18 2l-45 65q201 164 336 297l18 -2z" />
    <glyph glyph-name="racute" unicode="&#x155;" horiz-adv-x="1015" 
d="M526 492q182 51 182 225t-214 182l-158 -2l-2 -399zM868 727q0 -104 -56 -186t-159 -129q125 -191 277 -375l-2 -21q-86 -27 -142 -30l-26 16q-156 236 -236 371l-192 -2v-52l4 -319h-152l6 307l-6 713l348 2q162 0 249 -76t87 -219zM739 1421l-4 -16
q-203 -158 -348 -260l-18 2l-45 65q201 164 335 297l19 -2z" />
    <glyph glyph-name="Rcommaaccent" unicode="&#x156;" horiz-adv-x="1136" 
d="M688 -242q0 -125 -180 -256l-53 47v13q106 84 106 168q0 49 -59 92v14q49 33 106 51q80 -55 80 -129zM825 928.5q0 241.5 -270 251.5l-199 -6l-6 -547l248 -6q227 66 227 307.5zM348 487v-77l8 -410h-166l11 395l-11 918l404 2q193 0 297 -97.5t104 -277.5
q0 -137 -70.5 -244.5t-199.5 -167.5q164 -262 340 -489l-2 -21q-74 -29 -152 -36l-22 14q-168 252 -301 491h-240z" />
    <glyph glyph-name="rcommaaccent" unicode="&#x157;" horiz-adv-x="1015" 
d="M592 -242q0 -125 -180 -256l-54 47v13q106 84 107 168q0 49 -59 92v14q49 33 106 51q80 -55 80 -129zM526 492q182 51 182.5 225t-214.5 182l-156 -2l-4 -399zM870 727q0 -104 -57 -186t-162 -129q109 -166 279 -375l-2 -21q-84 -27 -144 -30l-24 16q-129 190 -236 371
l-192 -2v-52l6 -319h-154l6 307l-6 713l348 2q162 0 250 -77t88 -218z" />
    <glyph glyph-name="Rcaron" unicode="&#x158;" horiz-adv-x="1136" 
d="M825 928q0 242 -270 252l-199 -6l-6 -547l246 -6q229 65 229 307zM348 487v-77l8 -410h-166l11 395l-11 918l402 2q193 0 298 -97t105 -278q-1 -135 -71 -243t-199 -167q135 -223 340 -491l-2 -21q-74 -29 -152 -36l-22 14q-168 252 -301 491h-240zM594 1442h-49
q-127 158 -248 274l45 66h18q127 -121 209 -213q78 86 209 213h21l45 -66q-117 -116 -250 -274z" />
    <glyph glyph-name="rcaron" unicode="&#x159;" horiz-adv-x="1015" 
d="M526 492q182 51 182 225t-214 182l-158 -2l-2 -399zM868 727q0 -104 -56 -186t-159 -129q125 -191 277 -375l-2 -21q-86 -27 -142 -30l-26 16q-156 236 -236 371l-192 -2v-52l4 -319h-152l6 307l-6 713l348 2q162 0 249 -76t87 -219zM498 1151h-49q-127 158 -248 274
l45 66h18q127 -121 209 -213q78 86 209 213h20l46 -66q-117 -116 -250 -274z" />
    <glyph glyph-name="Sacute" unicode="&#x15a;" horiz-adv-x="966" 
d="M526 1190q-76 0 -132 -31t-86 -80t-30 -103t34 -96t85 -73t151 -78t168 -91q162 -105 163 -276q1 -102 -55 -188t-156 -137t-230 -51q-188 0 -352 92l20 168l23 10q72 -70 159 -104t166 -33q79 0 139 31q60 32 92 82t32 122t-66 124q-67 52 -187 110t-186 99
q-160 102 -159 271q0 100 54 184q53 84 151 133q98 48 231 48t285 -61l-27 -158l-29 -8q-123 94 -258 94zM772 1712l-4 -16q-203 -158 -348 -260l-19 2l-45 65q201 164 336 297l19 -2z" />
    <glyph glyph-name="sacute" unicode="&#x15b;" horiz-adv-x="870" 
d="M478 911q-97 0 -148 -46t-51 -105t50 -96t148 -80q99 -43 153 -76q134 -81 134 -219q0 -80 -43 -149q-43 -68 -126 -110t-221 -42t-274 69l19 162l20 8q57 -57 134 -89t153 -32t131 46t55 110q0 63 -50 100q-50 38 -147 82t-153 76q-134 77 -135 219q0 82 44 148
q44 67 125 105q82 38 198 38t241 -49l-26 -152l-25 -6q-109 88 -206 88zM702 1421l-4 -16q-203 -158 -348 -260l-18 2l-45 65q201 164 336 297l18 -2z" />
    <glyph glyph-name="Scircumflex" unicode="&#x15c;" horiz-adv-x="966" 
d="M526 1190q-76 0 -132 -31t-85.5 -80t-29.5 -103t33.5 -96t85 -73t151 -78t166.5 -91q164 -108 164 -276q0 -102 -55.5 -188t-156 -137t-229.5 -51q-188 0 -352 92l20 168l23 10q72 -70 159 -103.5t166 -33.5t139 30.5t92 82t32 123t-65.5 123.5t-186.5 109.5t-187 99.5
q-160 102 -159 271q0 100 54 184.5t151.5 132.5t230.5 48t285 -61l-27 -158l-29 -8q-123 94 -258 94zM483 1784h49q127 -158 248 -275l-45 -65h-18q-127 121 -209 213q-78 -86 -209 -213h-20l-46 65q119 117 250 275z" />
    <glyph glyph-name="scircumflex" unicode="&#x15d;" horiz-adv-x="870" 
d="M478 911q-97 0 -148 -46t-51 -105.5t50 -96t148 -79.5q99 -43 153 -76q134 -81 134 -219q0 -80 -43 -148.5t-126 -110.5t-220.5 -42t-274.5 69l19 162l20 8q55 -57 132 -89t154 -32t132 46.5t55 109.5t-50 100t-147 81.5t-153 76.5q-134 77 -135 219q0 82 44 147.5
t125 104.5t197.5 39t239.5 -49l-24 -152l-25 -6q-109 88 -206 88zM414 1493h49q127 -158 248 -274l-45 -66h-19q-127 121 -209 213q-78 -86 -209 -213h-20l-45 66q117 116 250 274z" />
    <glyph glyph-name="Scedilla" unicode="&#x15e;" horiz-adv-x="966" 
d="M466.5 -311q61.5 0 61.5 55q0 27 -43 51l-98 60l37 131q-182 4 -338 92l20 168l23 10q72 -70 159 -103.5t166 -33.5t139 30.5t92 82t32 123t-65.5 123.5t-186.5 109.5t-187 99.5q-160 102 -159 271q0 100 54 184.5t151.5 132.5t230.5 48t285 -61l-27 -158l-29 -8
q-123 94 -258 94q-76 0 -132 -31t-85.5 -80t-29.5 -103t33.5 -96t85 -73t151 -78t166.5 -91q164 -108 164 -276q0 -139 -99.5 -243.5t-261.5 -126.5l-29 -96l70 -41q78 -45 78 -109.5t-46 -102.5t-127 -38t-140 63l14 82l10 2q57 -63 118.5 -63z" />
    <glyph glyph-name="scedilla" unicode="&#x15f;" horiz-adv-x="870" 
d="M399.5 -311q61.5 0 61.5 55q0 27 -43 51l-99 60l37 135q-141 6 -256 67l19 162l20 8q55 -57 132 -89t154 -32t132 46.5t55 109.5t-50 100t-147 81.5t-153 76.5q-134 77 -135 219q0 82 44 147.5t125 104.5t197.5 39t239.5 -49l-24 -152l-25 -6q-109 88 -206 88t-148 -46
t-51 -105.5t50 -96t148 -79.5q99 -43 153 -76q134 -81 134 -219q0 -113 -84 -199t-229 -100l-29 -94l70 -41q78 -45 77.5 -109.5t-46.5 -102.5t-127 -38t-140 63l14 82l11 2q57 -63 118.5 -63z" />
    <glyph glyph-name="Scaron" unicode="&#x160;" horiz-adv-x="966" 
d="M526 1190q-76 0 -132 -31t-86 -80t-30 -103t34 -96t85 -73t151 -78t168 -91q162 -105 163 -276q1 -102 -55 -188t-156 -137t-230 -51q-188 0 -352 92l20 168l23 10q72 -70 159 -104t166 -33q79 0 139 31q60 32 92 82t32 122t-66 124q-67 52 -187 110t-186 99
q-160 102 -159 271q0 100 54 184q53 84 151 133q98 48 231 48t285 -61l-27 -158l-29 -8q-123 94 -258 94zM530 1442h-49q-127 158 -248 274l46 66h18q127 -121 209 -213q78 86 209 213h20l45 -66q-117 -116 -250 -274z" />
    <glyph glyph-name="scaron" unicode="&#x161;" horiz-adv-x="870" 
d="M478 911q-97 0 -148 -46t-51 -105t50 -96t148 -80q99 -43 153 -76q134 -81 134 -219q0 -80 -43 -149q-43 -68 -126 -110t-221 -42t-274 69l19 162l20 8q57 -57 134 -89t153 -32t131 46t55 110q0 63 -50 100q-50 38 -147 82t-153 76q-134 77 -135 219q0 82 44 148
q44 67 125 105q82 38 198 38t241 -49l-26 -152l-25 -6q-109 88 -206 88zM461 1151h-49q-127 158 -248 274l45 66h18q127 -121 209 -213q78 86 209 213h21l45 -66q-117 -116 -250 -274z" />
    <glyph glyph-name="Tcedilla" unicode="&#x162;" horiz-adv-x="1003" 
d="M489.5 -311q61.5 0 61.5 55q0 27 -43 51l-98 60l41 145h-31l10 395l-8 787h-131l-234 -13l-12 17l14 127h891l11 -17l-13 -127l-229 13h-133l-8 -772l8 -410h-43l-31 -104l70 -41q78 -45 77.5 -109.5t-46.5 -102.5t-126.5 -38t-140.5 63l14 82l11 2q57 -63 118.5 -63z
" />
    <glyph glyph-name="tcedilla" unicode="&#x163;" horiz-adv-x="894" 
d="M604 -255.5q0 -61.5 -45 -99.5t-121 -38t-137 65l16 76l11 2q53 -63 110 -63q29 0 47.5 15t18.5 43t-41 54l-96 60l36 141h-34l6 307l-4 586h-103l-194 -14l-13 14l13 127h745l6 -12l-8 -129l-190 14h-105l-6 -574l6 -319h-33l-28 -106l67 -39q76 -49 76 -110.5z" />
    <glyph glyph-name="Tcaron" unicode="&#x164;" horiz-adv-x="1003" 
d="M948 1169l-229 13h-133l-6 -772l6 -410h-166l12 395l-10 787h-133l-234 -13l-10 17l12 127h891l13 -17zM532 1442h-49q-127 158 -247 274l45 66h18q127 -121 209 -213q78 86 209 213h20l45 -66q-117 -116 -250 -274z" />
    <glyph glyph-name="tcaron" unicode="&#x165;" horiz-adv-x="894" 
d="M819 879l-190 14h-103l-6 -574l6 -319h-153l6 307l-4 586h-103l-194 -14l-12 14l12 127h743l8 -12zM461 1151h-49q-127 158 -248 274l45 66h18q127 -121 209 -213q78 86 209 213h21l45 -66q-117 -116 -250 -274z" />
    <glyph glyph-name="Tbar" unicode="&#x166;" horiz-adv-x="1003" 
d="M582 707h213l14 -11l-8 -92h-221l-2 -194l8 -410h-166l10 395l-2 209h-195l-12 12l8 91h197l-4 475h-131l-234 -13l-12 17l14 127h891l11 -17l-13 -127l-229 13h-133z" />
    <glyph glyph-name="tbar" unicode="&#x167;" horiz-adv-x="894" 
d="M520 420v-101l6 -319h-153l6 307v113h-189l-12 12l8 90h191l-2 371h-103l-194 -14l-12 14l12 127h743l8 -12l-10 -129l-190 14h-103l-4 -371h193l14 -10l-8 -92h-201z" />
    <glyph glyph-name="Umacron" unicode="&#x16a;" horiz-adv-x="1282" 
d="M636 -14q-236 0 -361 129q-124 129 -119 364l2 178l-2 656h161l-6 -813q-4 -371 334 -371t334 350l-8 834h164l-2 -668l-3 -147q4 -242 -126 -377q-132 -135 -368 -135zM936 1565h-580l-12 12l10 94h580l12 -10z" />
    <glyph glyph-name="umacron" unicode="&#x16b;" horiz-adv-x="1124" 
d="M560 -12q-200 0 -304 95t-100 271l2 156l-2 510h153l-8 -641q-4 -260 264 -260t264 260l-6 641h156l-6 -518v-148q2 -174 -106 -270q-107 -96 -307 -96zM858 1274h-579l-13 12l10 94h580l12 -10z" />
    <glyph glyph-name="Ubreve" unicode="&#x16c;" horiz-adv-x="1282" 
d="M636 -14q-236 0 -361 129q-124 129 -119 364l2 178l-2 656h161l-6 -813q-4 -371 334 -371t334 350l-8 834h164l-2 -668l-3 -147q4 -242 -126 -377q-132 -135 -368 -135zM644 1452q-208 0 -255 236l45 59h25q39 -178 189 -178t188 178h24l47 -59q-55 -236 -263 -236z" />
    <glyph glyph-name="ubreve" unicode="&#x16d;" horiz-adv-x="1124" 
d="M560 -12q-200 0 -304 95t-100 271l2 156l-2 510h153l-8 -641q-4 -260 264 -260t264 260l-6 641h156l-6 -518v-148q2 -174 -106 -270q-107 -96 -307 -96zM566 1161q-208 0 -255 236l45 59h25q39 -178 189 -178t188 178h24l47 -59q-55 -236 -263 -236z" />
    <glyph glyph-name="Uring" unicode="&#x16e;" horiz-adv-x="1282" 
d="M636 -14q-236 0 -361 129q-124 129 -119 364l2 178l-2 656h161l-6 -813q-4 -371 334 -371t334 350l-8 834h164l-2 -668l-3 -147q4 -242 -126 -377q-132 -135 -368 -135zM549 1632q-1 -44 25 -68t68 -24t68 23t25 65q0 92 -93 92t-93 -88zM815 1631q0 -77 -50 -123
t-125 -46t-122 44t-47 123t47 125t127 46t125 -46t45 -123z" />
    <glyph glyph-name="uring" unicode="&#x16f;" horiz-adv-x="1124" 
d="M560 -12q-200 0 -304 95t-100 271l2 156l-2 510h153l-8 -641q-4 -260 264 -260t264 260l-6 641h156l-6 -518v-148q2 -174 -106 -270q-107 -96 -307 -96zM471 1341q0 -45 26 -69q25 -24 67 -23q42 0 68 23t25 65q0 92 -93 92t-93 -88zM737 1340q0 -76 -50 -122t-125 -46
t-122 43q-47 44 -47 123t47 125t127 46t125 -46t45 -123z" />
    <glyph glyph-name="Uhungarumlaut" unicode="&#x170;" horiz-adv-x="1282" 
d="M636 -14q-236 0 -361 129q-124 129 -119 364l2 178l-2 656h161l-6 -813q-4 -371 334 -371t334 350l-8 834h164l-2 -668l-3 -147q4 -242 -126 -377q-132 -135 -368 -135zM911 1767h15l75 -51v-18l-241 -225l-19 -3l-53 50q147 159 223 247zM432 1559q145 160 186 208h17
l74 -51v-18q-74 -74 -242 -225l-18 -3l-54 50z" />
    <glyph glyph-name="uhungarumlaut" unicode="&#x171;" horiz-adv-x="1124" 
d="M560 -12q-200 0 -304 95t-100 271l2 156l-2 510h153l-8 -641q-4 -260 264 -260t264 260l-6 641h156l-6 -518v-148q2 -174 -106 -270q-107 -96 -307 -96zM879 1509l16 2l76 -55l-2 -16q-129 -135 -295 -293l-17 -2l-55 49q113 118 277 315zM590 1509l14 2l76 -55v-16
q-129 -135 -295 -293l-18 -2l-54 49q97 102 277 315z" />
    <glyph glyph-name="Uogonek" unicode="&#x172;" horiz-adv-x="1282" 
d="M871.5 -295q76.5 0 148.5 78h8l25 -78q-98 -109 -203 -108q-72 0 -116 45t-44 115.5t45 138.5l74 112q-84 -23 -178 -22q-233 0 -356 128t-119 365l2 178l-2 656h161l-8 -813q-4 -371 333 -371t337 350l-8 834h164l-5 -668l-2 -147q6 -289 -176 -420l-123 -201
q-35 -53 -34 -102q0 -70 76.5 -70z" />
    <glyph glyph-name="uogonek" unicode="&#x173;" horiz-adv-x="1124" 
d="M653 -225q0 -70 77 -70t149 78h8l24 -78q-98 -109 -202 -108q-72 0 -116 45t-44 115.5t45 138.5l63 98q-45 -6 -100 -6q-199 0 -302 95t-99 271l2 156l-4 510h155l-10 -641q-4 -260 264 -260t264 260l-4 641h154l-6 -518v-148q4 -240 -189 -323l-94 -154
q-35 -53 -35 -102z" />
    <glyph glyph-name="Wcircumflex" unicode="&#x174;" horiz-adv-x="1828" 
d="M1171 0l-256 762h-14l-270 -762h-170l-418 1313h162l24 -127l320 -1004h14l283 799l-113 332h168l33 -142l323 -989h13l356 996l31 135h153l-469 -1313h-170zM874 1757h48q92 -82 239 -186l-33 -70h-18q-115 70 -211 135q-80 -55 -209 -135h-20l-33 70q137 94 237 186z
" />
    <glyph glyph-name="wcircumflex" unicode="&#x175;" horiz-adv-x="1572" 
d="M989 0l-201 557h-10l-213 -557h-164l-333 1020h155l19 -109l247 -741h13l223 596l-84 254h158l22 -121l250 -729h14l275 733l26 117h148l-381 -1020h-164zM721 1493h49q127 -158 248 -274l-45 -66h-19q-127 121 -209 213q-78 -86 -208 -213h-21l-45 66q119 118 250 274z
" />
    <glyph glyph-name="Ycircumflex" unicode="&#x176;" horiz-adv-x="1081" 
d="M604 0h-166l11 383l-3 90l-415 840h176l26 -74l287 -590h17l313 586l31 78h174l-457 -846l-2 -84zM266 1571q137 94 238 186h47q92 -82 240 -186l-33 -70h-19q-115 70 -211 135q-80 -55 -209 -135h-20z" />
    <glyph glyph-name="ycircumflex" unicode="&#x177;" horiz-adv-x="968" 
d="M545 0h-154l6 293v59l-346 668h166l21 -59l227 -439h12l250 432l29 66h159l-374 -664l-2 -63zM219 1219q119 119 250 274h49q127 -158 248 -274l-45 -66h-19q-127 121 -208 213q-78 -86 -209 -213h-21z" />
    <glyph glyph-name="Ydieresis" unicode="&#x178;" horiz-adv-x="1081" 
d="M604 0h-166l11 383l-3 90l-415 840h176l26 -74l287 -590h17l313 586l31 78h174l-457 -846l-2 -84zM602 1614q0 41 24.5 66.5t66.5 25.5q87 0 87 -86q0 -43 -24.5 -69.5t-66.5 -26.5t-64.5 24.5t-22.5 65.5zM281 1614q0 41 24.5 66.5t66.5 25.5q87 0 87 -86
q0 -43 -24.5 -69.5t-66.5 -26.5t-64.5 24.5t-22.5 65.5z" />
    <glyph glyph-name="Zacute" unicode="&#x179;" horiz-adv-x="1081" 
d="M260 133h545l194 14l9 -12l-15 -139l-237 4h-576l-117 -6v121l738 1063h-506l-197 -15l-10 13l12 139l795 -2l100 2v-123zM834 1667l-5 -16q-182 -84 -399 -176l-20 8l-29 73q211 104 393 211l19 -4z" />
    <glyph glyph-name="zacute" unicode="&#x17a;" horiz-adv-x="962" 
d="M266 121h428l170 16l8 -10l-12 -131l-211 4h-463l-104 -4v110l598 791h-416l-158 -16l-8 12l15 129l184 -2h477l88 2v-115zM719 1421l-4 -16q-203 -158 -348 -260l-19 2l-45 65q201 164 336 297l18 -2z" />
    <glyph glyph-name="Zdotaccent" unicode="&#x17b;" horiz-adv-x="1081" 
d="M260 133h545l194 14l9 -12l-15 -139l-237 4h-576l-117 -6v121l738 1063h-506l-197 -15l-10 13l12 139l795 -2l100 2v-123zM645 1637q0 -44 -25.5 -70.5t-70.5 -26.5q-90 0 -90 94q0 43 25.5 70t68.5 27t67.5 -25t24.5 -69z" />
    <glyph glyph-name="zdotaccent" unicode="&#x17c;" horiz-adv-x="962" 
d="M266 121h428l170 16l8 -10l-14 -131l-211 4h-463l-102 -4v110l596 791h-414l-158 -16l-8 12l13 129l186 -2h475l88 2v-115zM547 1347q0 -44 -25.5 -71t-70.5 -27q-90 0 -91 94q0 43 26 70t69 27t67.5 -24.5t24.5 -68.5z" />
    <glyph glyph-name="Zcaron" unicode="&#x17d;" horiz-adv-x="1081" 
d="M260 133h545l194 14l9 -12l-15 -139l-237 4h-576l-117 -6v121l738 1063h-506l-197 -15l-10 13l12 139l795 -2l100 2v-123zM578 1481h-48q-92 82 -239 186l33 70h18q115 -70 211 -135q80 55 209 135h20l33 -70q-137 -94 -237 -186z" />
    <glyph glyph-name="zcaron" unicode="&#x17e;" horiz-adv-x="962" 
d="M266 121h428l170 16l8 -10l-12 -131l-211 4h-463l-104 -4v110l598 791h-416l-158 -16l-8 12l15 129l184 -2h477l88 2v-115zM477 1151h-49q-127 158 -248 274l45 66h19q127 -121 209 -213q78 86 209 213h20l45 -66q-117 -116 -250 -274z" />
    <glyph glyph-name="florin" unicode="&#x192;" horiz-adv-x="567" 
d="M596 1157q-176 0 -203 -192l-26 -199h227l6 -12l-8 -78h-236l-77 -580q-16 -139 -68.5 -224t-177.5 -179l-66 63l2 15q92 80 130 146.5t53 174.5l71 584h-133l-10 8l10 82h146l22 180q18 152 111.5 234t244.5 82q62 -1 148 -19l-25 -106l-12 -7q-63 27 -129 27z" />
    <glyph glyph-name="Ohorn" unicode="&#x1a0;" horiz-adv-x="1310" 
d="M653 1190q-407 0 -407 -534.5t399 -534.5q410 0 410 532q0 272 -99.5 404.5t-302.5 132.5zM1292 1378.5q0 -83.5 -66.5 -141t-172.5 -63.5q172 -166 172 -496t-153.5 -512t-428 -182t-420 172t-145.5 494.5t152.5 498.5t428.5 176q104 0 211 -35t157 -35t92 33t42 100.5
t-65 129.5l4 16q43 33 82 33t74.5 -52.5t35.5 -136z" />
    <glyph glyph-name="ohorn" unicode="&#x1a1;" horiz-adv-x="1148" 
d="M252 510q0 -406 317 -406q162 0 242 98.5t80 304.5t-79 302t-242 96t-240.5 -96t-77.5 -299zM1012 1221q35 0 66.5 -42t31.5 -110t-50 -117t-134 -61q123 -129 123 -375t-129 -388t-356.5 -142t-349.5 135t-122 385t128 388t364 138q84 0 172.5 -23t130 -23.5t72 21
t30.5 69.5t-55 104l4 12q39 29 74 29z" />
    <glyph glyph-name="Uhorn" unicode="&#x1af;" horiz-adv-x="1302" 
d="M635 -14q-237 0 -360 128t-119 365l2 178l-2 656h161l-8 -813q-4 -371 333 -371t337 350l-8 834h78q133 0 133 104q0 63 -68 123l6 16q47 33 83 33t72 -48t36 -115.5t-48.5 -120t-127.5 -72.5l-5 -588l-2 -147q4 -244 -126 -378t-367 -134z" />
    <glyph glyph-name="uhorn" unicode="&#x1b0;" horiz-adv-x="1142" 
d="M554 -12q-200 0 -303.5 95t-98.5 271l2 156l-4 510h153l-8 -641q-4 -260 264 -260t264 260l-6 641h78q106 0 106 80q0 51 -53 96l4 14q39 29 75 29t65.5 -37t29.5 -91t-40 -99t-109 -64l-6 -446v-148q2 -174 -105.5 -270t-307.5 -96z" />
    <glyph glyph-name="Acaron" unicode="&#x1cd;" horiz-adv-x="1183" 
d="M608 1143h-14l-238 -647l230 -4l235 4zM971 0l-31 131l-74 225l-295 6l-266 -6l-80 -217l-32 -139h-164l481 1313h190l439 -1313h-168zM621 1481h-48q-92 82 -239 186l33 70h18q115 -70 211 -135q80 55 209 135h20l33 -70q-137 -94 -237 -186z" />
    <glyph glyph-name="acaron" unicode="&#x1ce;" horiz-adv-x="1048" 
d="M535 870h-13l-186 -483l180 -2l189 2zM825 0l-24 111l-53 151l-244 2l-217 -2l-56 -143l-28 -119h-152l393 1020h177l358 -1020h-154zM559 1151h-49q-127 158 -248 274l45 66h19q127 -121 209 -213q78 86 208 213h21l45 -66q-117 -116 -250 -274z" />
    <glyph glyph-name="Icaron" unicode="&#x1cf;" horiz-adv-x="548" 
d="M356 0h-166l11 395l-11 918h168l-10 -903zM301 1481h-47q-92 82 -240 186l33 70h19q115 -70 210 -135q80 55 209 135h21l33 -70q-138 -94 -238 -186z" />
    <glyph glyph-name="icaron" unicode="&#x1d0;" horiz-adv-x="530" 
d="M336 0h-152l6 307l-6 713h154l-6 -701zM293 1151h-49q-127 158 -248 274l45 66h18q127 -121 209 -213q78 86 209 213h21l45 -66q-117 -116 -250 -274z" />
    <glyph glyph-name="Ocaron" unicode="&#x1d1;" horiz-adv-x="1300" 
d="M653 1190q-407 0 -407 -534t399 -535q410 0 410 532q1 273 -99 405t-303 132zM643 -16q-274 0 -420 172q-145 172 -145 494t152 499q154 176 430 176t420 -166q144 -167 144 -489t-153 -504q-154 -182 -428 -182zM678 1481h-47q-92 82 -240 186l33 70h18
q115 -70 211 -135q80 55 209 135h21l32 -70q-137 -94 -237 -186z" />
    <glyph glyph-name="ocaron" unicode="&#x1d2;" horiz-adv-x="1140" 
d="M252 513q0 -206 78 -302t240 -96t241 94q80 94 80 298t-79 300q-78 96 -240 96t-241 -92t-79 -298zM1049 520q0 -250 -128 -392q-127 -142 -357 -142t-351 134t-121 385t129 389t359 138t349 -131q120 -131 120 -381zM598 1151h-49q-127 158 -248 274l45 66h19
q127 -121 208 -213q78 86 209 213h21l45 -66q-117 -116 -250 -274z" />
    <glyph glyph-name="Ucaron" unicode="&#x1d3;" horiz-adv-x="1282" 
d="M636 -14q-236 0 -361 129q-124 129 -119 364l2 178l-2 656h161l-6 -813q-4 -371 334 -371t334 350l-8 834h164l-2 -668l-3 -147q4 -242 -126 -377q-132 -135 -368 -135zM670 1442h-49q-127 158 -248 274l45 66h18q127 -121 209 -213q78 86 209 213h20l46 -66
q-117 -116 -250 -274z" />
    <glyph glyph-name="ucaron" unicode="&#x1d4;" horiz-adv-x="1124" 
d="M560 -12q-200 0 -304 95t-100 271l2 156l-2 510h153l-8 -641q-4 -260 264 -260t264 260l-6 641h156l-6 -518v-148q2 -174 -106 -270q-107 -96 -307 -96zM592 1151h-49q-127 158 -248 274l45 66h18q127 -121 209 -213q78 86 209 213h21l45 -66q-117 -116 -250 -274z" />
    <glyph glyph-name="Udieresismacron" unicode="&#x1d5;" horiz-adv-x="1282" 
d="M636 -14q-236 0 -361 129q-124 129 -119 364l2 178l-2 656h161l-6 -813q-4 -371 334 -371t334 350l-8 834h164l-2 -668l-3 -147q4 -242 -126 -377q-132 -135 -368 -135zM889 1576q0 -40 -24 -64q-25 -24 -63 -24t-61 24q-23 22 -23 62t24 64t64 23q40 0 61 -23
q22 -22 22 -62zM397 1573q0 41 24 65q25 24 63 23q38 0 61 -23q23 -22 23 -62t-24 -64t-65 -23q-82 0 -82 84zM911 1796h-528l-14 12l10 97h530l13 -13z" />
    <glyph glyph-name="udieresismacron" unicode="&#x1d6;" horiz-adv-x="1124" 
d="M560 -12q-200 0 -304 95t-100 271l2 156l-2 510h153l-8 -641q-4 -260 264 -260t264 260l-6 641h156l-6 -518v-148q2 -174 -106 -270q-107 -96 -307 -96zM724 1198q-38 0 -60 23t-23 63q0 40 24 63q23 24 63 24t62 -23t22 -63q0 -39 -25 -63t-63 -24zM401 1198
q-82 0 -82 84q0 41 24 65q25 24 63 24t61 -23t23 -63q0 -39 -24 -63t-65 -24zM834 1505h-529l-14 13l10 96h530l13 -12z" />
    <glyph glyph-name="Udieresisacute" unicode="&#x1d7;" horiz-adv-x="1282" 
d="M636 -14q-236 0 -361 129q-124 129 -119 364l2 178l-2 656h161l-6 -813q-4 -371 334 -371t334 350l-8 834h164l-2 -668l-3 -147q4 -242 -126 -377q-132 -135 -368 -135zM889 1576q0 -40 -24 -64q-25 -24 -63 -24t-61 24q-23 22 -23 62t24 64t64 23q40 0 61 -23
q22 -22 22 -62zM397 1573q0 41 24 65q25 24 63 23q38 0 61 -23q23 -22 23 -62t-24 -64t-65 -23q-82 0 -82 84zM877 1886l-11 -18q-158 -41 -424 -101l-18 11l-14 77q217 63 424 140l16 -6z" />
    <glyph glyph-name="udieresisacute" unicode="&#x1d8;" horiz-adv-x="1124" 
d="M560 -12q-200 0 -304 95t-100 271l2 156l-2 510h153l-8 -641q-4 -260 264 -260t264 260l-6 641h156l-6 -518v-148q2 -174 -106 -270q-107 -96 -307 -96zM724 1198q-38 0 -60 23t-23 63q0 40 24 63q23 24 63 24t62 -23t22 -63q0 -39 -25 -63t-63 -24zM401 1198
q-82 0 -82 84q0 41 24 65q25 24 63 24t61 -23t23 -63q0 -39 -24 -63t-65 -24zM799 1595l-11 -18q-158 -41 -423 -100l-19 10l-14 78q217 63 424 139l16 -6z" />
    <glyph glyph-name="Udieresiscaron" unicode="&#x1d9;" horiz-adv-x="1282" 
d="M636 -14q-236 0 -361 129q-124 129 -119 364l2 178l-2 656h161l-6 -813q-4 -371 334 -371t334 350l-8 834h164l-2 -668l-3 -147q4 -242 -126 -377q-132 -135 -368 -135zM889 1576q0 -40 -24 -64q-25 -24 -63 -24t-61 24q-23 22 -23 62t24 64t64 23q40 0 61 -23
q22 -22 22 -62zM397 1573q0 41 24 65q25 24 63 23q38 0 61 -23q23 -22 23 -62t-24 -64t-65 -23q-82 0 -82 84zM670 1708h-47q-117 98 -240 184l33 70h18q47 -28 87 -54t73 -46l51 -35l209 135h20l33 -70q-116 -80 -237 -184z" />
    <glyph glyph-name="udieresiscaron" unicode="&#x1da;" horiz-adv-x="1124" 
d="M560 -12q-200 0 -304 95t-100 271l2 156l-2 510h153l-8 -641q-4 -260 264 -260t264 260l-6 641h156l-6 -518v-148q2 -174 -106 -270q-107 -96 -307 -96zM724 1198q-38 0 -60 23t-23 63q0 40 24 63q23 24 63 24t62 -23t22 -63q0 -39 -25 -63t-63 -24zM401 1198
q-82 0 -82 84q0 41 24 65q25 24 63 24t61 -23t23 -63q0 -39 -24 -63t-65 -24zM592 1417h-47q-117 98 -240 185l33 69h18q47 -29 87 -55t73 -45l51 -35l209 135h21l32 -69q-116 -81 -237 -185z" />
    <glyph glyph-name="Udieresisgrave" unicode="&#x1db;" horiz-adv-x="1282" 
d="M636 -14q-236 0 -361 129q-124 129 -119 364l2 178l-2 656h161l-6 -813q-4 -371 334 -371t334 350l-8 834h164l-2 -668l-3 -147q4 -242 -126 -377q-132 -135 -368 -135zM889 1576q0 -40 -24 -64q-25 -24 -63 -24t-61 24q-23 22 -23 62t24 64t64 23q40 0 61 -23
q22 -22 22 -62zM397 1573q0 41 24 65q25 24 63 23q38 0 61 -23q23 -22 23 -62t-24 -64t-65 -23q-82 0 -82 84zM877 1855l-19 -77l-16 -11q-254 55 -422 101l-10 18l24 103l19 6q180 -68 424 -140z" />
    <glyph glyph-name="udieresisgrave" unicode="&#x1dc;" horiz-adv-x="1124" 
d="M560 -12q-200 0 -304 95t-100 271l2 156l-2 510h153l-8 -641q-4 -260 264 -260t264 260l-6 641h156l-6 -518v-148q2 -174 -106 -270q-107 -96 -307 -96zM724 1198q-38 0 -60 23t-23 63q0 40 24 63q23 24 63 24t62 -23t22 -63q0 -39 -25 -63t-63 -24zM401 1198
q-82 0 -82 84q0 41 24 65q25 24 63 24t61 -23t23 -63q0 -39 -24 -63t-65 -24zM799 1565l-19 -78l-16 -10q-254 55 -422 100l-10 18l24 103l19 6q180 -67 424 -139z" />
    <glyph glyph-name="Oogonek" unicode="&#x1ea;" horiz-adv-x="1300" 
d="M645 121q410 0 410 532q0 272 -99.5 404.5t-302.5 132.5q-408 0 -407 -524q0 -545 399 -545zM762 -208q0 -40 21.5 -62.5t60.5 -22.5q70 0 141 78h10l23 -82q-102 -106 -188.5 -106t-130.5 45t-44 120.5t52 147.5l59 84q-68 -10 -131 -10q-266 0 -411.5 172t-145.5 494.5
t152.5 498.5t429 176t421 -166t144.5 -477q0 -248 -86 -414t-248 -235l-92 -142q-37 -59 -37 -99z" />
    <glyph glyph-name="oogonek" unicode="&#x1eb;" horiz-adv-x="1140" 
d="M569.5 115q161.5 0 241.5 94t80 298t-79 300t-240.5 96t-240.5 -92t-79 -298t78 -302t239.5 -96zM547 -242.5q0 70.5 45 138.5l63 98q-41 -8 -100 -8q-221 0 -342 134t-121 385t128 389t358.5 138t350.5 -131t120 -371q0 -190 -70 -318t-201 -185l-92 -150
q-35 -53 -35 -102q0 -70 77 -70t149 78h8l24 -78q-98 -109 -202 -108q-72 0 -116 45t-44 115.5z" />
    <glyph glyph-name="Aringacute" unicode="&#x1fa;" horiz-adv-x="1183" 
d="M608 1133h-14l-238 -641l230 -5l235 5zM512 1403q0 -45 25.5 -68.5t67.5 -23.5t67.5 22.5t25.5 65.5q0 92 -93 92t-93 -88zM434 1393q0 86 47 132t127 46t125 -46t45 -131t-71 -132l434 -1262h-170l-29 129l-74 223l-297 6l-266 -6l-80 -215l-32 -137h-164l473 1260
q-68 47 -68 133zM418 1690q258 80 424 143l16 -6l27 -101l-8 -16q-184 -53 -424 -108l-17 10z" />
    <glyph glyph-name="aringacute" unicode="&#x1fb;" horiz-adv-x="1048" 
d="M535 870h-13l-186 -483l180 -2l189 2zM825 0l-24 111l-53 151l-244 2l-217 -2l-56 -143l-28 -119h-152l393 1020h177l360 -1020h-156zM531 1430q-93 0 -93 -89q0 -45 25.5 -68.5t67.5 -23.5t68 22.5t26 65.5q-1 93 -94 93zM534.5 1509q79.5 0 125 -46t45.5 -123
t-50.5 -123t-125.5 -46t-122 44.5t-47 123t47.5 124.5t127 46zM344 1630q258 80 424 144l16 -7l27 -100l-8 -16q-184 -53 -424 -109l-17 10z" />
    <glyph glyph-name="AEacute" unicode="&#x1fc;" horiz-adv-x="1652" 
d="M733 1143h-12l-301 -568l385 84zM1608 0h-713l-10 131l-60 399l-487 -110l-150 -281l-51 -139h-170l692 1313h764l13 -17l-17 -127l-332 9h-198l72 -486l440 92l14 -12l8 -119l-444 -88l63 -432h232l336 10l12 -16zM1300 1667l-4 -16q-182 -84 -399 -176l-20 8l-29 73
q211 104 393 211l19 -4z" />
    <glyph glyph-name="aeacute" unicode="&#x1fd;" horiz-adv-x="1433" 
d="M639 870h-12l-246 -432l315 70zM1368 0h-600l-8 109l-43 278l-420 -94l-100 -176l-41 -117h-152l567 1020h648l10 -12l-15 -119l-272 10h-162l58 -360l360 77l12 -8l9 -123l-363 -69l45 -291h189l280 8l10 -10zM1108 1421l-4 -16q-203 -158 -348 -260l-19 2l-45 65
q201 164 336 297l19 -2z" />
    <glyph glyph-name="Oslashacute" unicode="&#x1fe;" horiz-adv-x="1300" 
d="M1055 653q0 315 -135 445l-445 -946q74 -31 170 -31q410 0 410 532zM653 1190q-408 0 -407 -524q0 -312 129 -445l440 942q-68 27 -162 27zM1225 682q0 -334 -154 -516t-436 -182q-125 0 -219 36l-109 -229l-100 35l-8 16l110 236q-231 162 -231 567q0 328 152 504
q153 176 438 176q117 0 209 -31l88 189l98 -37l10 -21l-86 -184q238 -156 238 -559zM930 1671l-4 -16q-182 -84 -400 -176l-20 8l-29 74q211 104 393 211l19 -5z" />
    <glyph glyph-name="oslashacute" unicode="&#x1ff;" horiz-adv-x="1140" 
d="M891 518q0 215 -98 311l-349 -698q59 -16 123 -16q164 0 244 94t80 309zM571 903q-163 0 -241 -93q-78 -92 -78 -308t96 -312l348 695q-55 18 -125 18zM1049 530q0 -260 -128 -402t-366 -142q-96 0 -170 24l-109 -215l-90 43l-6 17l103 204q-190 131 -191 443
q0 254 128 392t366 138q96 0 172 -24l78 155l84 -41l10 -18l-72 -143q191 -122 191 -431zM799 1423l-4 -16q-203 -158 -349 -260l-18 2l-45 65q201 164 336 297l18 -2z" />
    <glyph glyph-name="Scommaaccent" unicode="&#x218;" horiz-adv-x="966" 
d="M586 -242q0 -125 -180 -256l-54 47v13q106 84 107 168q0 49 -60 92v14q49 33 107 51q80 -55 80 -129zM526 1190q-76 0 -132 -31t-85.5 -80t-29.5 -103t33.5 -96t85 -73t151 -78t166.5 -91q164 -108 164 -276q0 -102 -55.5 -188t-156 -137t-229.5 -51q-188 0 -352 92
l20 168l23 10q72 -70 159 -103.5t166 -33.5t139 30.5t92 82t32 123t-65.5 123.5t-186.5 109.5t-187 99.5q-160 102 -159 271q0 100 54 184.5t151.5 132.5t230.5 48t285 -61l-27 -158l-29 -8q-123 94 -258 94z" />
    <glyph glyph-name="scommaaccent" unicode="&#x219;" horiz-adv-x="870" 
d="M520 -242q0 -125 -180 -256l-53 47v13q106 84 106 168q0 49 -59 92v14q49 33 106 51q80 -55 80 -129zM478 911q-97 0 -148 -46t-51 -105.5t50 -96t148 -79.5q99 -43 153 -76q134 -81 134 -219q0 -80 -43 -148.5t-126 -110.5t-220.5 -42t-274.5 69l19 162l20 8
q55 -57 132 -89t154 -32t132 46.5t55 109.5t-50 100t-147 81.5t-153 76.5q-134 77 -135 219q0 82 44 147.5t125 104.5t197.5 39t239.5 -49l-24 -152l-25 -6q-109 88 -206 88z" />
    <glyph glyph-name="uni021A" unicode="&#x21a;" horiz-adv-x="1003" 
d="M610 -242q0 -125 -180 -256l-53 47v13q106 84 106 168q0 49 -59 92v14q49 33 106 51q80 -55 80 -129zM948 1169l-229 13h-133l-8 -772l8 -410h-166l10 395l-8 787h-131l-234 -13l-12 17l14 127h891l11 -17z" />
    <glyph glyph-name="uni021B" unicode="&#x21b;" horiz-adv-x="894" 
d="M559 -242q0 -125 -180 -256l-53 47v13q106 84 106 168q0 49 -59 92v14q49 33 106 51q80 -55 80 -129zM819 879l-190 14h-103l-6 -574l6 -319h-153l6 307l-4 586h-103l-194 -14l-12 14l12 127h743l8 -12z" />
    <glyph glyph-name="dotlessj" unicode="&#x237;" horiz-adv-x="591" 
d="M397 190q0 -124 -56 -204t-200 -150l-61 80v14q96 54 136 112t40 146v131l-4 584l-195 -2l-10 12l10 107h346l-6 -682v-148z" />
    <glyph glyph-name="circumflex" unicode="&#x2c6;" 
d="M375 1409h49q127 -158 248 -274l-45 -66h-19q-127 121 -209 213q-78 -86 -209 -213h-20l-45 66q117 116 250 274z" />
    <glyph glyph-name="caron" unicode="&#x2c7;" 
d="M422 1069h-49q-127 158 -248 274l45 66h18q127 -121 209 -213q78 86 209 213h21l45 -66q-117 -116 -250 -274z" />
    <glyph glyph-name="firsttonechinese" unicode="&#x2c9;" 
d="M690 1192h-579l-13 12l11 94h579l12 -10z" />
    <glyph glyph-name="breve" unicode="&#x2d8;" 
d="M396 1079q-208 0 -255 236l45 59h25q39 -178 188.5 -178t188.5 178h24l47 -59q-55 -236 -263 -236z" />
    <glyph glyph-name="dotaccent" unicode="&#x2d9;" horiz-adv-x="499" 
d="M342 1262q0 -44 -26 -70q-26 -27 -70 -27q-90 0 -90 95q0 44 26 70t68 26t67 -25t25 -69z" />
    <glyph glyph-name="ring" unicode="&#x2da;" 
d="M303 1260q0 -45 25.5 -69t67.5 -24t67.5 22.5t25.5 65.5q0 93 -93 93t-93 -88zM569 1258q0 -76 -50 -122t-125 -46t-122 44t-47 122t47 124.5t127 46.5t125 -46.5t45 -122.5z" />
    <glyph glyph-name="ogonek" unicode="&#x2db;" 
d="M334 -208q0 -40 21.5 -62.5t60.5 -22.5q70 0 141 78h10l23 -82q-102 -106 -188 -106t-130.5 44.5t-44.5 120.5t52 148l127 184h98l-133 -203q-37 -59 -37 -99z" />
    <glyph glyph-name="tilde" unicode="&#x2dc;" 
d="M265 1227q-21 0 -37.5 -13.5t-51.5 -48.5l-33 -35h-18l-49 54v14l125 141l20 7q49 -4 170 -41q127 -33 151 -33t79 59l34 35h17l49 -51v-17l-125 -141l-21 -6q-45 4 -167 40t-143 36z" />
    <glyph glyph-name="hungarumlaut" unicode="&#x2dd;" 
d="M635 1427l16 3l76 -56l-2 -16q-129 -135 -295 -293l-16 -2l-56 49q113 118 277 315zM346 1427l14 3l76 -56v-16q-129 -135 -295 -293l-18 -2l-53 49q96 102 276 315z" />
    <glyph glyph-name="tildecomb" unicode="&#x303;" horiz-adv-x="0" 
d="M262.5 1227q-18.5 0 -35 -13.5t-51.5 -48.5l-33 -35h-18l-49 54v14l127 141l20 9q47 -4 166 -40t148 -36t84 59l34 35h17l49 -51v-17l-127 -143l-21 -6q-20 2 -156 40t-154.5 38z" />
    <glyph glyph-name="dotbelowcomb" unicode="&#x323;" horiz-adv-x="0" 
d="M328 -171q0 -44 -26 -70.5t-71 -26.5q-90 0 -90 94q0 43 26 69.5t69 26.5t67.5 -24.5t24.5 -68.5z" />
    <glyph glyph-name="commaaccentcomb" unicode="&#x326;" horiz-adv-x="0" 
d="M315 -175q0 -124 -180 -256l-52 48v13q105 82 106 168q0 52 -60 90v16q53 36 105 49q81 -50 81 -128z" />
    <glyph glyph-name="Delta" unicode="&#x394;" horiz-adv-x="1183" 
d="M227 137h709l-328 1006h-14zM29 0l479 1313h190l441 -1313h-1110z" />
    <glyph glyph-name="Omega" unicode="&#x3a9;" horiz-adv-x="1523" 
d="M1341 744q0 -164 -72.5 -328t-209.5 -281l4 -8h205l168 14l10 -12l-21 -137l-202 8h-271l-78 -4l-10 8v131q145 104 226 269.5t81 349.5t-104 311t-305 127t-305.5 -126t-104.5 -310t80 -350t223 -271v-131l-8 -8l-80 4h-299l-180 -6l-12 14l22 131l176 -12h185l2 8
q-135 113 -207 270.5t-72 322.5t67.5 301t202 216t322.5 80t315.5 -77t189.5 -208.5t62 -295.5z" />
    <glyph glyph-name="mu" unicode="&#x3bc;" horiz-adv-x="1046" 
d="M862 -10q-113 0 -139 133h-14q-125 -109 -267 -135q-82 0 -141 35v-402h-151l4 776l-4 531l151 14v-649q2 -78 45 -123t119 -45q119 0 250 125v678l153 14l-10 -731q-2 -102 57 -102q31 0 70 24l16 -12l-18 -92q-55 -39 -121 -39z" />
    <glyph glyph-name="pi" unicode="&#x3c0;" horiz-adv-x="1284" 
d="M1034 109q33 0 76 24l16 -10l-18 -94q-68 -39 -121 -39q-158 0 -158 203v696h-350v-477l4 -602h-157l6 587l-6 492h-76q-23 0 -49.5 -21.5t-81.5 -76.5l-37 -35h-23l-47 61v19l162 174l31 10l989 2l12 -14l-14 -121l-213 2l-4 -678q0 -102 59 -102z" />
    <glyph glyph-name="Wgrave" unicode="&#x1e80;" horiz-adv-x="1828" 
d="M1171 0l-256 762h-14l-270 -762h-170l-418 1313h162l24 -127l320 -1004h14l283 799l-113 332h168l33 -142l323 -989h13l356 996l31 135h153l-469 -1313h-170zM1126 1559l-28 -74l-21 -8q-217 92 -399 176l-4 16l41 96l18 4q182 -106 393 -210z" />
    <glyph glyph-name="wgrave" unicode="&#x1e81;" horiz-adv-x="1572" 
d="M989 0l-201 557h-10l-213 -557h-164l-333 1020h155l19 -109l247 -741h13l223 596l-84 254h158l22 -121l250 -729h14l275 733l26 117h148l-381 -1020h-164zM950 1212l-45 -65l-18 -2q-145 102 -348 260l-4 16l61 86l18 2q135 -133 336 -297z" />
    <glyph glyph-name="Wacute" unicode="&#x1e82;" horiz-adv-x="1828" 
d="M1171 0l-256 762h-14l-270 -762h-170l-418 1313h164l22 -127l320 -1004h14l283 799l-111 332h168l31 -142l323 -989h13l356 996l31 135h155l-471 -1313h-170zM1182 1667l-4 -16q-182 -84 -400 -176l-20 8l-29 73q211 104 393 211l19 -4z" />
    <glyph glyph-name="wacute" unicode="&#x1e83;" horiz-adv-x="1572" 
d="M989 0l-201 557h-12l-211 -557h-164l-333 1020h153l19 -109l249 -741h11l223 596l-84 254h160l22 -121l250 -729h12l277 733l24 117h150l-381 -1020h-164zM1010 1421l-4 -16q-203 -158 -349 -260l-18 2l-45 65q201 164 336 297l18 -2z" />
    <glyph glyph-name="Wdieresis" unicode="&#x1e84;" horiz-adv-x="1828" 
d="M1171 0l-256 762h-14l-270 -762h-170l-418 1313h162l24 -127l320 -1004h14l283 799l-113 332h168l33 -142l323 -989h13l356 996l31 135h153l-469 -1313h-170zM1065 1706q86 0 86 -87q0 -42 -24.5 -68.5t-66.5 -26.5t-64.5 24.5t-22.5 65.5t24.5 66.5t67.5 25.5zM743 1706
q86 0 86 -87q0 -42 -24.5 -68.5t-66.5 -26.5t-64.5 24.5t-22.5 65.5t24.5 66.5t67.5 25.5z" />
    <glyph glyph-name="wdieresis" unicode="&#x1e85;" horiz-adv-x="1572" 
d="M989 0l-201 557h-10l-213 -557h-164l-333 1020h155l19 -109l247 -741h13l223 596l-84 254h158l22 -121l250 -729h14l275 733l26 117h148l-381 -1020h-164zM909 1415q86 0 86 -87q0 -42 -24.5 -68.5t-66.5 -26.5t-64.5 24.5t-22.5 65.5t24.5 66.5t67.5 25.5zM588 1415
q86 0 86 -87q0 -42 -24.5 -68.5t-66.5 -26.5t-64.5 24.5t-22.5 65.5t24.5 66.5t67.5 25.5z" />
    <glyph glyph-name="uni1E9E" unicode="&#x1e9e;" horiz-adv-x="1292" 
d="M524 256q148 -137 327 -137q89 0 153.5 61.5t64.5 163.5t-107.5 174t-355.5 137l-10 35l342 428q-147 70 -298 70t-240 -85t-89 -235l-4 -456l6 -412h-166l13 389l-6 479q-2 135 58 238.5t175 160t268 56.5q214 0 482 -127l8 -33l-342 -418q219 -68 323.5 -155.5
t104.5 -239.5q0 -111 -54.5 -193.5t-147.5 -126.5t-206 -44q-184 0 -342 92l21 168z" />
    <glyph glyph-name="Adotbelow" unicode="&#x1ea0;" horiz-adv-x="1183" 
d="M678 -237q0 -44 -25.5 -70.5t-70.5 -26.5q-90 0 -90 94q0 43 25.5 70t68.5 27t67.5 -25t24.5 -69zM608 1143h-14l-238 -647l230 -4l235 4zM971 0l-29 131l-74 225l-297 6l-266 -6l-80 -217l-32 -139h-164l483 1313h190l439 -1313h-170z" />
    <glyph glyph-name="adotbelow" unicode="&#x1ea1;" horiz-adv-x="1048" 
d="M612 -237q0 -44 -25.5 -70.5t-70.5 -26.5q-90 0 -90 94q0 43 25.5 70t68.5 27t67.5 -25t24.5 -69zM535 870h-13l-186 -483l180 -2l189 2zM825 0l-24 111l-53 151l-244 2l-217 -2l-56 -143l-28 -119h-152l393 1020h177l360 -1020h-156z" />
    <glyph glyph-name="Ahookabove" unicode="&#x1ea2;" horiz-adv-x="1183" 
d="M608 1143h-14l-238 -647l230 -4l235 4zM971 0l-31 131l-74 225l-295 6l-266 -6l-80 -217l-32 -139h-164l481 1313h190l439 -1313h-168zM715 1706q0 -58 -107 -145l41 -70l-71 -39l-66 113q102 74 102 133q0 43 -57 43t-115 -49l-32 53q82 86 176 86q55 0 92 -34
q37 -33 37 -91z" />
    <glyph glyph-name="ahookabove" unicode="&#x1ea3;" horiz-adv-x="1048" 
d="M535 870h-13l-186 -483l180 -2l189 2zM825 0l-24 111l-53 151l-244 2l-217 -2l-56 -143l-28 -119h-152l393 1020h177l358 -1020h-154zM655 1414q0 -58 -106 -144l41 -70l-72 -39l-65 113q102 74 102 133q0 43 -57 43t-115 -49l-33 53q82 86 176 86q55 0 92 -34t37 -92z
" />
    <glyph glyph-name="Acircumflexacute" unicode="&#x1ea4;" horiz-adv-x="1183" 
d="M608 1143h-14l-238 -647l230 -4l235 4zM971 0l-31 131l-74 225l-295 6l-266 -6l-80 -217l-32 -139h-164l481 1313h190l439 -1313h-168zM567 1716h47q92 -82 240 -186l-33 -70h-18q-115 70 -211 135q-80 -55 -209 -135h-21l-32 70q137 94 237 186zM944 1882l-168 -205h-16
l-58 47l144 211l16 4l80 -41z" />
    <glyph glyph-name="acircumflexacute" unicode="&#x1ea5;" horiz-adv-x="1048" 
d="M535 870h-13l-186 -483l180 -2l189 2zM825 0l-24 111l-53 151l-244 2l-217 -2l-56 -143l-28 -119h-152l393 1020h177l358 -1020h-154zM508 1425h47q92 -82 240 -186l-33 -70h-19q-115 70 -211 136q-80 -55 -208 -136h-21l-33 70q138 94 238 186zM885 1591l-168 -205h-17
l-57 48l143 211l17 4l80 -41z" />
    <glyph glyph-name="Acircumflexgrave" unicode="&#x1ea6;" horiz-adv-x="1183" 
d="M608 1143h-14l-238 -647l230 -4l235 4zM971 0l-31 131l-74 225l-295 6l-266 -6l-80 -217l-32 -139h-164l481 1313h190l439 -1313h-168zM567 1716h47q92 -82 240 -186l-33 -70h-18q-115 70 -211 135q-80 -55 -209 -135h-21l-32 70q137 94 237 186zM877 1724l-60 -47h-14
l-168 205l2 16l82 41l14 -4z" />
    <glyph glyph-name="acircumflexgrave" unicode="&#x1ea7;" horiz-adv-x="1048" 
d="M535 870h-13l-186 -483l180 -2l189 2zM825 0l-24 111l-53 151l-244 2l-217 -2l-56 -143l-28 -119h-152l393 1020h177l358 -1020h-154zM508 1425h47q92 -82 240 -186l-33 -70h-19q-115 70 -211 136q-80 -55 -208 -136h-21l-33 70q138 94 238 186zM817 1434l-59 -48h-15
l-168 205l3 17l81 41l15 -4z" />
    <glyph glyph-name="Acircumflexhookabove" unicode="&#x1ea8;" horiz-adv-x="1183" 
d="M608 1143h-14l-238 -647l230 -4l235 4zM971 0l-29 131l-74 225l-297 6l-266 -6l-80 -217l-32 -139h-164l483 1313h190l439 -1313h-170zM330 1530q137 94 237 186h47q92 -82 240 -186l-33 -70h-18q-115 70 -211 135q-80 -55 -209 -135h-21zM786 2015q53 0 88 -30.5
t35 -77.5q0 -66 -100 -148l39 -65l-68 -37l-61 106q98 72 98 127q0 41 -54.5 41t-111.5 -47l-30 51q76 80 165 80z" />
    <glyph glyph-name="acircumflexhookabove" unicode="&#x1ea9;" horiz-adv-x="1048" 
d="M535 870h-13l-186 -483l180 -2l189 2zM825 0l-24 111l-53 151l-244 2l-217 -2l-56 -143l-28 -119h-152l393 1020h177l360 -1020h-156zM270 1239q137 94 238 186h47q92 -82 240 -186l-33 -70h-19q-115 70 -211 136q-80 -55 -208 -136h-21zM850 1616q0 -66 -100 -148
l38 -65l-67 -37l-62 107q98 72 99 126q0 41 -54.5 41t-111.5 -47l-31 52q76 80 166 79q53 0 88 -30.5t35 -77.5z" />
    <glyph glyph-name="Acircumflextilde" unicode="&#x1eaa;" horiz-adv-x="1183" 
d="M608 1143h-14l-238 -647l230 -4l235 4zM971 0l-29 131l-74 225l-297 6l-266 -6l-80 -217l-32 -139h-164l483 1313h190l439 -1313h-170zM854 1530l-33 -70h-18q-115 70 -211 135q-80 -55 -209 -135h-21l-32 70q137 94 237 186h47q93 -82 240 -186zM727.5 1886
q21.5 0 38 14.5t39 39t37.5 38.5h16l45 -49v-16l-117 -137l-18 -7q-47 4 -161 39t-138.5 35t-77.5 -61l-29 -31h-16l-47 49v17l117 137l18 4q49 -4 160.5 -38t133 -34z" />
    <glyph glyph-name="acircumflextilde" unicode="&#x1eab;" horiz-adv-x="1048" 
d="M535 870h-13l-186 -483l180 -2l189 2zM825 0l-24 111l-53 151l-244 2l-217 -2l-56 -143l-28 -119h-152l393 1020h177l360 -1020h-156zM795 1239l-33 -70h-19q-115 70 -211 136q-80 -55 -208 -136h-21l-33 70q137 94 238 186h47q93 -82 240 -186zM670 1595q20 0 36.5 14.5
t39 39t36.5 39.5h17l45 -50v-16l-117 -137l-18 -6q-47 4 -161 39t-138.5 34.5t-77.5 -61.5l-29 -31h-16l-47 49v17l116 137l19 4q49 -4 162 -38t133 -34z" />
    <glyph glyph-name="Acircumflexdotbelow" unicode="&#x1eac;" horiz-adv-x="1183" 
d="M678 -237q0 -44 -25.5 -70.5t-70.5 -26.5q-90 0 -90 94q0 43 25.5 70t68.5 27t67.5 -25t24.5 -69zM608 1143h-14l-238 -647l230 -4l235 4zM971 0l-29 131l-74 225l-297 6l-266 -6l-80 -217l-32 -139h-164l483 1313h190l439 -1313h-170zM330 1569q137 94 237 186h47
q92 -82 240 -186l-33 -70h-18q-115 70 -211 135q-80 -55 -209 -135h-21z" />
    <glyph glyph-name="acircumflexdotbelow" unicode="&#x1ead;" horiz-adv-x="1048" 
d="M612 -237q0 -44 -25.5 -70.5t-70.5 -26.5q-90 0 -90 94q0 43 25.5 70t68.5 27t67.5 -25t24.5 -69zM535 870h-13l-186 -483l180 -2l189 2zM825 0l-24 111l-53 151l-244 2l-217 -2l-56 -143l-28 -119h-152l393 1020h177l360 -1020h-156zM262 1219q119 119 250 274h49
q127 -158 248 -274l-45 -66h-19q-127 121 -208 213q-78 -86 -209 -213h-21z" />
    <glyph glyph-name="Abreveacute" unicode="&#x1eae;" horiz-adv-x="1183" 
d="M608 1143h-14l-238 -647l230 -4l235 4zM971 0l-31 131l-74 225l-295 6l-266 -6l-80 -217l-32 -139h-164l481 1313h190l439 -1313h-168zM591 1442q-95 0 -161 47t-94 137l45 57h25q45 -125 186 -125t190 125h25l47 -57q-32 -88 -100 -136t-163 -48zM784 1874
q-98 -100 -200 -201h-17l-55 45q117 141 180 224l15 2l75 -54z" />
    <glyph glyph-name="abreveacute" unicode="&#x1eaf;" horiz-adv-x="1048" 
d="M535 870h-13l-186 -483l180 -2l189 2zM825 0l-24 111l-53 151l-244 2l-217 -2l-56 -143l-28 -119h-152l393 1020h177l358 -1020h-154zM531 1151q-196 0 -255 184l46 58h24q44 -125 186 -125t191 125h25l47 -58q-33 -88 -101 -136t-163 -48zM725 1583q-98 -100 -201 -201
h-16l-55 45q117 141 180 224l14 2l76 -54z" />
    <glyph glyph-name="Abrevegrave" unicode="&#x1eb0;" horiz-adv-x="1183" 
d="M608 1143h-14l-238 -647l230 -4l235 4zM971 0l-31 131l-74 225l-295 6l-266 -6l-80 -217l-32 -139h-164l481 1313h190l439 -1313h-168zM591 1442q-95 0 -161 47t-94 137l45 57h25q45 -125 186 -125t190 125h25l47 -57q-32 -88 -100 -136t-163 -48zM672 1718l-58 -45h-16
l-199 201v16l76 54l17 -2q94 -124 180 -224z" />
    <glyph glyph-name="abrevegrave" unicode="&#x1eb1;" horiz-adv-x="1048" 
d="M535 870h-13l-186 -483l180 -2l189 2zM825 0l-24 111l-53 151l-244 2l-217 -2l-56 -143l-28 -119h-152l393 1020h177l358 -1020h-154zM531 1151q-196 0 -255 184l46 58h24q44 -125 186 -125t191 125h25l47 -58q-33 -88 -101 -136t-163 -48zM612 1427l-57 -45h-16
l-199 201v16l76 54l16 -2q94 -124 180 -224z" />
    <glyph glyph-name="Abrevehookabove" unicode="&#x1eb2;" horiz-adv-x="1183" 
d="M608 1143h-14l-238 -647l230 -4l235 4zM971 0l-29 131l-74 225l-297 6l-266 -6l-80 -217l-32 -139h-164l483 1313h190l439 -1313h-170zM591 1442q-196 0 -255 184l45 57h25q45 -125 186 -124.5t190 124.5h25l47 -57q-33 -88 -100.5 -136t-162.5 -48zM596 2044
q55 0 92 -34t37 -91.5t-107 -144.5l41 -70l-71 -39l-66 113q102 74 103 133q0 43 -56.5 43t-115.5 -49l-33 53q82 86 176 86z" />
    <glyph glyph-name="abrevehookabove" unicode="&#x1eb3;" horiz-adv-x="1048" 
d="M535 870h-13l-186 -483l180 -2l189 2zM825 0l-24 111l-53 151l-244 2l-217 -2l-56 -143l-28 -119h-152l393 1020h177l360 -1020h-156zM795 1335q-69 -184 -264 -184t-255 184l46 58h24q45 -125 186.5 -125t190.5 125h25zM537 1753q55 0 92 -33.5t37 -91.5t-107 -145
l41 -70l-72 -39l-65 113q102 74 102 133q0 43 -56.5 43t-115.5 -49l-33 53q82 86 177 86z" />
    <glyph glyph-name="Abrevetilde" unicode="&#x1eb4;" horiz-adv-x="1183" 
d="M608 1143h-14l-238 -647l230 -4l235 4zM971 0l-29 131l-74 225l-297 6l-266 -6l-80 -217l-32 -139h-164l483 1313h190l439 -1313h-170zM594 1444q-193 0 -250 180l45 55h25q41 -121 181 -121t187 121h25l43 -55q-31 -88 -97.5 -134t-158.5 -46zM727.5 1886
q21.5 0 38 14.5t39 39t37.5 38.5h16l45 -49v-16l-117 -137l-18 -7q-47 4 -161 39t-138.5 35t-77.5 -61l-29 -31h-16l-47 49v17l117 137l18 4q49 -4 160.5 -38t133 -34z" />
    <glyph glyph-name="abrevetilde" unicode="&#x1eb5;" horiz-adv-x="1048" 
d="M535 870h-13l-186 -483l180 -2l189 2zM825 0l-24 111l-53 151l-244 2l-217 -2l-56 -143l-28 -119h-152l393 1020h177l360 -1020h-156zM535 1153q-193 0 -250 180l45 56h24q41 -121 181.5 -121t187.5 121h25l43 -56q-31 -88 -97.5 -134t-158.5 -46zM670 1595
q20 0 36.5 14.5t39 39t36.5 39.5h17l45 -50v-16l-117 -137l-18 -6q-47 4 -161 39t-138.5 34.5t-77.5 -61.5l-29 -31h-16l-47 49v17l116 137l19 4q49 -4 162 -38t133 -34z" />
    <glyph glyph-name="Abrevedotbelow" unicode="&#x1eb6;" horiz-adv-x="1183" 
d="M678 -237q0 -44 -25.5 -70.5t-70.5 -26.5q-90 0 -90 94q0 43 25.5 70t68.5 27t67.5 -25t24.5 -69zM608 1143h-14l-238 -647l230 -4l235 4zM971 0l-29 131l-74 225l-297 6l-266 -6l-80 -217l-32 -139h-164l483 1313h190l439 -1313h-170zM591 1599q142 0 191 123h25l45 -55
q-31 -90 -99.5 -138t-162.5 -48t-161 48t-95 138l45 55h27q43 -123 185 -123z" />
    <glyph glyph-name="abrevedotbelow" unicode="&#x1eb7;" horiz-adv-x="1048" 
d="M612 -237q0 -44 -25.5 -70.5t-70.5 -26.5q-90 0 -90 94q0 43 25.5 70t68.5 27t67.5 -25t24.5 -69zM535 870h-13l-186 -483l180 -2l189 2zM825 0l-24 111l-53 151l-244 2l-217 -2l-56 -143l-28 -119h-152l393 1020h177l360 -1020h-156zM536.5 1278q149.5 0 188.5 178h25
l47 -59q-55 -236 -263 -236t-255 236l45 59h24q39 -178 188.5 -178z" />
    <glyph glyph-name="Edotbelow" unicode="&#x1eb8;" horiz-adv-x="987" 
d="M668 -237q0 -44 -26 -70.5t-71 -26.5q-90 0 -90 94q0 43 25.5 70t68.5 27t68 -25t25 -69zM940 127l-12 -127h-738l11 395l-11 918h740l10 -17l-14 -127l-310 7l-260 -5l-4 -430l246 -4l217 6l10 -14l-12 -127l-229 4l-234 -2l-2 -194l6 -273l262 -2l314 8z" />
    <glyph glyph-name="edotbelow" unicode="&#x1eb9;" horiz-adv-x="890" 
d="M594 -237q0 -44 -25.5 -70.5t-70.5 -26.5q-90 0 -90 94q0 43 25.5 70t68.5 27t67.5 -25t24.5 -69zM819 119l-14 -119h-621l6 307l-6 713h625l10 -12l-12 -119l-258 8l-211 -2l-2 -309l203 -2l178 6l8 -15l-10 -120l-191 6l-190 -2l-2 -140l4 -194l196 -2l275 8z" />
    <glyph glyph-name="Ehookabove" unicode="&#x1eba;" horiz-adv-x="987" 
d="M928 0h-738l11 395l-11 918h740l8 -17l-12 -127l-310 7l-260 -5l-4 -430l246 -4l217 6l12 -14l-14 -127l-229 4l-234 -2l-2 -194l6 -273l260 -2l316 8l10 -16zM682 1706q0 -58 -107 -145l41 -70l-71 -39l-66 113q102 74 103 133q0 43 -58 43t-114 -49l-33 53
q82 86 176 86q55 0 92 -34q37 -33 37 -91z" />
    <glyph glyph-name="ehookabove" unicode="&#x1ebb;" horiz-adv-x="890" 
d="M819 119l-14 -119h-621l6 307l-6 713h625l10 -12l-12 -119l-258 8l-213 -2l-2 -309l203 -2l178 6l10 -15l-12 -120l-189 6l-190 -2l-2 -140l2 -194l201 -2l272 8zM518 1407q0 43 -57 43t-115 -49l-33 53q82 86 176 86q56 0 93 -34t36 -83q0 -66 -106 -153l41 -70l-72 -39
l-65 113q102 74 102 133z" />
    <glyph glyph-name="Ecircumflexacute" unicode="&#x1ebe;" horiz-adv-x="987" 
d="M928 0h-738l11 395l-11 918h740l8 -17l-12 -127l-310 7l-260 -5l-4 -430l246 -4l217 6l12 -14l-14 -127l-229 4l-234 -2l-2 -194l6 -273l260 -2l316 8l10 -16zM535 1716h47q92 -82 239 -186l-33 -70h-18q-115 70 -211 135q-80 -55 -209 -135h-20l-33 70q138 94 238 186z
M911 1882l-168 -205h-16l-57 47l143 211l16 4l80 -41z" />
    <glyph glyph-name="ecircumflexacute" unicode="&#x1ebf;" horiz-adv-x="890" 
d="M819 119l-14 -119h-621l6 307l-6 713h625l10 -12l-12 -119l-258 8l-213 -2l-2 -309l203 -2l178 6l10 -15l-12 -120l-189 6l-190 -2l-2 -140l2 -194l201 -2l272 8zM469 1425h47q92 -82 240 -186l-33 -70h-18q-115 70 -211 136q-80 -55 -209 -136h-21l-33 70
q138 94 238 186zM846 1591l-168 -205h-16l-58 48l144 211l16 4l80 -41z" />
    <glyph glyph-name="Ecircumflexgrave" unicode="&#x1ec0;" horiz-adv-x="987" 
d="M928 0h-738l11 395l-11 918h740l8 -17l-12 -127l-310 7l-260 -5l-4 -430l246 -4l217 6l12 -14l-14 -127l-229 4l-234 -2l-2 -194l6 -273l260 -2l316 8l10 -16zM535 1716h47q92 -82 239 -186l-33 -70h-18q-115 70 -211 135q-80 -55 -209 -135h-20l-33 70q138 94 238 186z
M844 1724l-60 -47h-14l-168 205l2 16l82 41l14 -4z" />
    <glyph glyph-name="ecircumflexgrave" unicode="&#x1ec1;" horiz-adv-x="890" 
d="M819 119l-14 -119h-621l6 307l-6 713h625l10 -12l-12 -119l-258 8l-213 -2l-2 -309l203 -2l178 6l10 -15l-12 -120l-189 6l-190 -2l-2 -140l2 -194l201 -2l272 8zM469 1425h47q92 -82 240 -186l-33 -70h-18q-115 70 -211 136q-80 -55 -209 -136h-21l-33 70
q138 94 238 186zM778 1434l-59 -48h-14l-168 205l2 17l82 41l14 -4z" />
    <glyph glyph-name="Ecircumflexhookabove" unicode="&#x1ec2;" horiz-adv-x="987" 
d="M940 127l-12 -127h-738l11 395l-11 918h740l10 -17l-14 -127l-310 7l-260 -5l-4 -430l246 -4l217 6l10 -14l-12 -127l-229 4l-234 -2l-2 -194l6 -273l262 -2l314 8zM297 1530q137 94 238 186h47q92 -82 239 -186l-33 -70h-18q-115 70 -211 135q-80 -55 -209 -135h-20z
M754 2015q53 0 88 -30.5t35 -77.5q0 -66 -101 -148l39 -65l-67 -37l-62 106q98 72 98 127q0 41 -54.5 41t-111.5 -47l-30 51q76 80 166 80z" />
    <glyph glyph-name="ecircumflexhookabove" unicode="&#x1ec3;" horiz-adv-x="890" 
d="M819 119l-14 -119h-621l6 307l-6 713h625l10 -12l-12 -119l-258 8l-211 -2l-2 -309l203 -2l178 6l8 -15l-10 -120l-191 6l-190 -2l-2 -140l4 -194l196 -2l275 8zM231 1239q137 94 238 186h47q92 -82 240 -186l-33 -70h-18q-115 70 -211 136q-80 -55 -209 -136h-21z
M811 1616q0 -66 -100 -148l39 -65l-68 -37l-61 107q98 72 98 126q0 41 -54.5 41t-111.5 -47l-31 52q76 80 166 79q53 0 88 -30.5t35 -77.5z" />
    <glyph glyph-name="Ecircumflextilde" unicode="&#x1ec4;" horiz-adv-x="987" 
d="M928 0h-738l11 395l-11 918h740l8 -17l-12 -127l-310 7l-260 -5l-4 -430l246 -4l217 6l12 -14l-14 -127l-229 4l-234 -2l-2 -194l6 -273l260 -2l316 8l10 -16zM535 1716h47q92 -82 239 -186l-33 -70h-18q-115 70 -211 135q-80 -55 -209 -135h-20l-33 70q138 94 238 186z
M844 1724l-60 -47h-14l-168 205l2 16l82 41l14 -4z" />
    <glyph glyph-name="ecircumflextilde" unicode="&#x1ec5;" horiz-adv-x="890" 
d="M819 119l-14 -119h-621l6 307l-6 713h625l10 -12l-12 -119l-258 8l-211 -2l-2 -309l203 -2l178 6l8 -15l-10 -120l-191 6l-190 -2l-2 -140l4 -194l196 -2l275 8zM756 1239l-33 -70h-18q-115 70 -211 136q-80 -55 -209 -136h-21l-33 70q137 94 238 186h47q93 -82 240 -186
zM631 1595q20 0 36.5 14.5t39 39t36.5 39.5h17l45 -50v-16l-117 -137l-18 -6q-47 4 -161 39t-138.5 34.5t-77.5 -61.5l-29 -31h-16l-47 49v17l116 137l19 4q49 -4 162 -38t133 -34z" />
    <glyph glyph-name="Ecircumflexdotbelow" unicode="&#x1ec6;" horiz-adv-x="987" 
d="M668 -237q0 -44 -26 -70.5t-71 -26.5q-90 0 -90 94q0 43 25.5 70t68.5 27t68 -25t25 -69zM940 127l-12 -127h-738l11 395l-11 918h740l10 -17l-14 -127l-310 7l-260 -5l-4 -430l246 -4l217 6l10 -14l-12 -127l-229 4l-234 -2l-2 -194l6 -273l262 -2l314 8zM299 1571
q137 94 238 186h47q92 -82 239 -186l-32 -70h-19q-115 70 -211 135q-80 -55 -209 -135h-20z" />
    <glyph glyph-name="ecircumflexdotbelow" unicode="&#x1ec7;" horiz-adv-x="890" 
d="M594 -237q0 -44 -25.5 -70.5t-70.5 -26.5q-90 0 -90 94q0 43 25.5 70t68.5 27t67.5 -25t24.5 -69zM819 119l-14 -119h-621l6 307l-6 713h625l10 -12l-12 -119l-258 8l-211 -2l-2 -309l203 -2l178 6l8 -15l-10 -120l-191 6l-190 -2l-2 -140l4 -194l196 -2l275 8zM223 1219
q117 117 250 274h49q127 -158 248 -274l-45 -66h-18q-127 121 -209 213q-78 -86 -209 -213h-21z" />
    <glyph glyph-name="Ihookabove" unicode="&#x1ec8;" horiz-adv-x="548" 
d="M356 0h-166l11 395l-11 918h168l-10 -903zM395 1706q0 -58 -106 -145l41 -70l-72 -39l-65 113q102 74 102 133q0 43 -57 43t-115 -49l-33 53q82 86 176 86q55 0 92 -34q37 -33 37 -91z" />
    <glyph glyph-name="ihookabove" unicode="&#x1ec9;" horiz-adv-x="530" 
d="M336 0h-152l6 307l-6 713h154l-6 -701zM389 1414q0 -58 -106 -144l41 -70l-72 -39l-66 113q102 74 103 133q0 43 -57 43t-115 -49l-33 53q82 86 176 86q55 0 92 -34t37 -92z" />
    <glyph glyph-name="Idotbelow" unicode="&#x1eca;" horiz-adv-x="548" 
d="M356 -237q0 -44 -25.5 -70.5t-70.5 -26.5q-90 0 -90 94q0 43 25.5 70t68.5 27t67.5 -25t24.5 -69zM356 0h-166l11 395l-11 918h168l-10 -903z" />
    <glyph glyph-name="idotbelow" unicode="&#x1ecb;" horiz-adv-x="530" 
d="M352 -237q0 -44 -25.5 -70.5t-70.5 -26.5q-90 0 -90 94q0 43 25.5 70t68.5 27t67.5 -25t24.5 -69zM338 0h-154l6 307l-6 713h156l-8 -701z" />
    <glyph glyph-name="Odotbelow" unicode="&#x1ecc;" horiz-adv-x="1300" 
d="M741 -237q0 -44 -25.5 -70.5t-70.5 -26.5q-90 0 -90 94q0 43 25.5 70t68.5 27t67.5 -25t24.5 -69zM653 1190q-407 0 -407 -534.5t399 -534.5q410 0 410 532q0 272 -99.5 404.5t-302.5 132.5zM1225 670.5q0 -322.5 -153.5 -504.5t-428 -182t-420 172t-145.5 494.5
t152.5 498.5t429 176t421 -166t144.5 -488.5z" />
    <glyph glyph-name="odotbelow" unicode="&#x1ecd;" horiz-adv-x="1140" 
d="M668 -237q0 -44 -26 -70.5t-71 -26.5q-90 0 -90 94q0 43 25.5 70t68.5 27t68 -25t25 -69zM252 513q0 -206 78 -302t239.5 -96t241.5 94t80 298t-79 300t-240.5 96t-240.5 -92t-79 -298zM1049 520q0 -250 -128 -392t-357.5 -142t-350.5 134t-121 385t128 389t358.5 138
t350.5 -131t120 -381z" />
    <glyph glyph-name="Ohookabove" unicode="&#x1ece;" horiz-adv-x="1300" 
d="M653 1190q-407 0 -407 -534t399 -535q410 0 410 532q1 273 -99 405t-303 132zM643 -16q-274 0 -420 172q-145 172 -145 494t152 499q154 176 430 176t420 -166q144 -167 144 -489t-153 -504q-154 -182 -428 -182zM774 1706q0 -58 -106 -145l41 -70l-72 -39l-66 113
q102 74 103 133q0 43 -57 43t-115 -49l-33 53q82 86 176 86q55 0 92 -34q37 -33 37 -91z" />
    <glyph glyph-name="ohookabove" unicode="&#x1ecf;" horiz-adv-x="1140" 
d="M252 513q0 -206 78 -302t240 -96t241 94q80 94 80 298t-79 300q-78 96 -240 96t-241 -92t-79 -298zM1049 520q0 -250 -128 -392q-127 -142 -357 -142t-351 134t-121 385t129 389t359 138t349 -131q120 -131 120 -381zM694 1414q0 -58 -106 -144l41 -70l-72 -39l-65 113
q102 74 102 133q0 43 -57 43t-115 -49l-33 53q82 86 176 86q55 0 92 -34t37 -92z" />
    <glyph glyph-name="Ocircumflexacute" unicode="&#x1ed0;" horiz-adv-x="1300" 
d="M653 1190q-407 0 -407 -534t399 -535q410 0 410 532q1 273 -99 405t-303 132zM643 -16q-274 0 -420 172q-145 172 -145 494t152 499q154 176 430 176t420 -166q144 -167 144 -489t-153 -504q-154 -182 -428 -182zM627 1716h47q92 -82 239 -186l-32 -70h-19
q-115 70 -211 135q-80 -55 -209 -135h-20l-33 70q138 94 238 186zM1004 1882l-168 -205h-17l-57 47l143 211l17 4l79 -41z" />
    <glyph glyph-name="ocircumflexacute" unicode="&#x1ed1;" horiz-adv-x="1140" 
d="M252 513q0 -206 78 -302t240 -96t241 94q80 94 80 298t-79 300q-78 96 -240 96t-241 -92t-79 -298zM1049 520q0 -250 -128 -392q-127 -142 -357 -142t-351 134t-121 385t129 389t359 138t349 -131q120 -131 120 -381zM547 1425h47q92 -82 240 -186l-33 -70h-19
q-115 70 -211 136q-80 -55 -209 -136h-20l-33 70q138 94 238 186zM924 1591l-168 -205h-17l-57 48l143 211l17 4l80 -41z" />
    <glyph glyph-name="Ocircumflexgrave" unicode="&#x1ed2;" horiz-adv-x="1300" 
d="M653 1190q-407 0 -407 -534t399 -535q410 0 410 532q1 273 -99 405t-303 132zM643 -16q-274 0 -420 172q-145 172 -145 494t152 499q154 176 430 176t420 -166q144 -167 144 -489t-153 -504q-154 -182 -428 -182zM627 1716h47q92 -82 239 -186l-32 -70h-19
q-115 70 -211 135q-80 -55 -209 -135h-20l-33 70q138 94 238 186zM936 1724l-59 -47h-15l-168 205l2 16l82 41l15 -4z" />
    <glyph glyph-name="ocircumflexgrave" unicode="&#x1ed3;" horiz-adv-x="1140" 
d="M252 513q0 -206 78 -302t240 -96t241 94q80 94 80 298t-79 300q-78 96 -240 96t-241 -92t-79 -298zM1049 520q0 -250 -128 -392q-127 -142 -357 -142t-351 134t-121 385t129 389t359 138t349 -131q120 -131 120 -381zM547 1425h47q92 -82 240 -186l-33 -70h-19
q-115 70 -211 136q-80 -55 -209 -136h-20l-33 70q138 94 238 186zM856 1434l-59 -48h-15l-168 205l2 17l82 41l15 -4z" />
    <glyph glyph-name="Ocircumflexhookabove" unicode="&#x1ed4;" horiz-adv-x="1300" 
d="M653 1190q-407 0 -407 -534.5t399 -534.5q410 0 410 532q0 272 -99.5 404.5t-302.5 132.5zM1225 670.5q0 -322.5 -153.5 -504.5t-428 -182t-420 172t-145.5 494.5t152.5 498.5t429 176t421 -166t144.5 -488.5zM627 1716h47q92 -82 239 -186l-32 -70h-19q-115 70 -211 135
q-80 -55 -209 -135h-20l-33 70q138 94 238 186zM969 1907q0 -66 -101 -148l39 -65l-67 -37l-62 106q98 72 99 127q0 41 -54.5 41t-111.5 -47l-31 51q76 80 166 80q53 0 88 -30.5t35 -77.5z" />
    <glyph glyph-name="ocircumflexhookabove" unicode="&#x1ed5;" horiz-adv-x="1140" 
d="M252 513q0 -206 78 -302t239.5 -96t241.5 94t80 298t-79 300t-240.5 96t-240.5 -92t-79 -298zM1049 520q0 -250 -128 -392t-357.5 -142t-350.5 134t-121 385t128 389t358.5 138t350.5 -131t120 -381zM547 1425h47q92 -82 240 -186l-33 -70h-19q-115 70 -211 136
q-80 -55 -209 -136h-20l-33 70q138 94 238 186zM889 1616q0 -66 -101 -148l39 -65l-67 -37l-62 107q98 72 99 126q0 41 -54.5 41t-111.5 -47l-31 52q76 80 166 79q53 0 88 -30.5t35 -77.5z" />
    <glyph glyph-name="Ocircumflextilde" unicode="&#x1ed6;" horiz-adv-x="1300" 
d="M653 1190q-407 0 -407 -534.5t399 -534.5q410 0 410 532q0 272 -99.5 404.5t-302.5 132.5zM1225 670.5q0 -322.5 -153.5 -504.5t-428 -182t-420 172t-145.5 494.5t152.5 498.5t429 176t421 -166t144.5 -488.5zM627 1716h47q92 -82 239 -186l-32 -70h-19q-115 70 -211 135
q-80 -55 -209 -135h-20l-33 70q138 94 238 186zM528 1843q-25 0 -77 -61l-29 -31h-16l-48 49v17l117 137l19 4q49 -4 161.5 -38t133 -34t37 14.5t39 39t36.5 38.5h17l45 -49v-16l-117 -137l-19 -7q-47 4 -160.5 39t-138.5 35z" />
    <glyph glyph-name="ocircumflextilde" unicode="&#x1ed7;" horiz-adv-x="1140" 
d="M252 513q0 -206 78 -302t239.5 -96t241.5 94t80 298t-79 300t-240.5 96t-240.5 -92t-79 -298zM1049 520q0 -250 -128 -392t-357.5 -142t-350.5 134t-121 385t128 389t358.5 138t350.5 -131t120 -381zM547 1425h47q92 -82 240 -186l-33 -70h-19q-115 70 -211 136
q-80 -55 -209 -136h-20l-33 70q138 94 238 186zM709 1595q20 0 36.5 14.5t39 39t36.5 39.5h17l45 -50v-16l-117 -137l-18 -6q-47 4 -161 39t-138.5 34.5t-77.5 -61.5l-29 -31h-16l-47 49v17l116 137l19 4q49 -4 162 -38t133 -34z" />
    <glyph glyph-name="Ocircumflexdotbelow" unicode="&#x1ed8;" horiz-adv-x="1300" 
d="M741 -237q0 -44 -25.5 -70.5t-70.5 -26.5q-90 0 -90 94q0 43 25.5 70t68.5 27t67.5 -25t24.5 -69zM653 1190q-407 0 -407 -534.5t399 -534.5q410 0 410 532q0 272 -99.5 404.5t-302.5 132.5zM1225 670.5q0 -322.5 -153.5 -504.5t-428 -182t-420 172t-145.5 494.5
t152.5 498.5t429 176t421 -166t144.5 -488.5zM647 1743h47q92 -82 240 -187l-33 -69h-18q-115 70 -211 135q-80 -55 -209 -135h-21l-32 69q137 95 237 187z" />
    <glyph glyph-name="ocircumflexdotbelow" unicode="&#x1ed9;" horiz-adv-x="1140" 
d="M668 -237q0 -44 -26 -70.5t-71 -26.5q-90 0 -90 94q0 43 25.5 70t68.5 27t68 -25t25 -69zM252 513q0 -206 78 -302t239.5 -96t241.5 94t80 298t-79 300t-240.5 96t-240.5 -92t-79 -298zM1049 520q0 -250 -128 -392t-357.5 -142t-350.5 134t-121 385t128 389t358.5 138
t350.5 -131t120 -381zM551 1493h49q127 -158 248 -274l-45 -66h-19q-127 121 -209 213q-78 -86 -208 -213h-21l-45 66q119 118 250 274z" />
    <glyph glyph-name="Ohornacute" unicode="&#x1eda;" horiz-adv-x="1310" 
d="M653 1190q-407 0 -407 -534t399 -535q410 0 410 532q1 273 -99 405t-303 132zM1292 1378q0 -84 -66 -141q-67 -57 -173 -63q172 -166 172 -496t-154 -512t-428 -182t-420 172q-145 172 -145 494t152 499q153 176 429 176q104 0 211 -35t157 -35t92 33q42 32 42 100
t-65 130l4 16q93 71 156 -20q36 -52 36 -136zM934 1667l-4 -16q-182 -84 -400 -176l-20 8l-29 73q211 104 393 211l19 -4z" />
    <glyph glyph-name="ohornacute" unicode="&#x1edb;" horiz-adv-x="1148" 
d="M891 507q0 206 -79 302t-242 96q-162 0 -240 -96t-78 -301q0 -402 317 -404q162 1 242 99t80 304zM1012 1221q34 0 66 -42t32 -110t-50 -117t-134 -61q123 -129 123 -375t-129 -388q-128 -142 -356 -142t-350 135t-122 385t128 388t364 138q84 0 172 -23t130 -23t72 21
t31 69q0 48 -55 104l4 12q39 29 74 29zM846 1376l-4 -16q-182 -84 -400 -176l-20 8l-29 74q211 104 393 211l19 -4z" />
    <glyph glyph-name="Ohorngrave" unicode="&#x1edc;" horiz-adv-x="1310" 
d="M653 1190q-407 0 -407 -534.5t399 -534.5q410 0 410 532q0 272 -99.5 404.5t-302.5 132.5zM1292 1378.5q0 -83.5 -66.5 -141t-172.5 -63.5q172 -166 172 -496t-153.5 -512t-428 -182t-420 172t-145.5 494.5t152.5 498.5t428.5 176q104 0 211 -35t157 -35t92 33t42 100.5
t-65 129.5l4 16q43 33 82 33t74.5 -52.5t35.5 -136zM879 1559l-29 -74l-21 -8q-217 92 -399 176l-4 16l41 96l18 4q183 -106 394 -210z" />
    <glyph glyph-name="ohorngrave" unicode="&#x1edd;" horiz-adv-x="1148" 
d="M891 507q0 206 -79 302t-242 96t-240.5 -96t-77.5 -301t79 -304.5t240.5 -99.5t240.5 98.5t79 304.5zM1011 1221q34 0 66.5 -42t32.5 -110t-51 -117t-135 -61q125 -127 125 -374t-129 -389t-356.5 -142t-349.5 135t-122 385t128 388t364 138q84 0 172.5 -23t130 -23.5
t72 21t30.5 69.5t-55 104l4 12q39 29 73 29zM791 1268l-29 -74l-21 -8q-217 92 -399 176l-4 16l41 97l18 4q183 -107 394 -211z" />
    <glyph glyph-name="Ohornhookabove" unicode="&#x1ede;" horiz-adv-x="1310" 
d="M653 1190q-407 0 -407 -534t399 -535q410 0 410 532q1 273 -99 405t-303 132zM1292 1378q0 -84 -66 -141q-67 -57 -173 -63q172 -166 172 -496t-154 -512t-428 -182t-420 172q-145 172 -145 494t152 499q153 176 429 176q104 0 211 -35t157 -35t92 33q42 32 42 100
t-65 130l4 16q93 71 156 -20q36 -52 36 -136zM774 1706q0 -58 -106 -145l41 -70l-72 -39l-66 113q102 74 103 133q0 43 -57 43t-115 -49l-33 53q82 86 176 86q55 0 92 -34q37 -33 37 -91z" />
    <glyph glyph-name="ohornhookabove" unicode="&#x1edf;" horiz-adv-x="1148" 
d="M891 507q0 206 -79 302t-242 96q-162 0 -240 -96t-78 -301q0 -402 317 -404q162 1 242 99t80 304zM1012 1221q34 0 66 -42t32 -110t-50 -117t-134 -61q123 -129 123 -375t-129 -388q-128 -142 -356 -142t-350 135t-122 385t128 388t364 138q84 0 172 -23t130 -23t72 21
t31 69q0 48 -55 104l4 12q39 29 74 29zM684 1414q0 -58 -106 -144l40 -70l-71 -39l-66 113q102 74 103 133q0 43 -58 43t-114 -49l-33 53q82 86 176 86q55 0 92 -34t37 -92z" />
    <glyph glyph-name="Ohorntilde" unicode="&#x1ee0;" horiz-adv-x="1310" 
d="M653 1190q-407 0 -407 -534t399 -535q410 0 410 532q1 273 -99 405t-303 132zM1292 1378q0 -84 -66 -141q-67 -57 -173 -63q172 -166 172 -496t-154 -512t-428 -182t-420 172q-145 172 -145 494t152 499q153 176 429 176q104 0 211 -35t157 -35t92 33q42 32 42 100
t-65 130l4 16q93 71 156 -20q36 -52 36 -136zM975 1671l-125 -141l-21 -6q-45 4 -167 40t-143 36t-37 -14q-16 -13 -52 -48l-33 -35h-18l-49 53v15l125 141l20 6q49 -4 170 -41q127 -33 151 -33t78 60l35 35h17l49 -51v-17z" />
    <glyph glyph-name="ohorntilde" unicode="&#x1ee1;" horiz-adv-x="1148" 
d="M891 507q0 206 -79 302t-242 96q-162 0 -240 -96t-78 -301q0 -402 317 -404q162 1 242 99t80 304zM1012 1221q34 0 66 -42t32 -110t-50 -117t-134 -61q123 -129 123 -375t-129 -388q-128 -142 -356 -142t-350 135t-122 385t128 388t364 138q84 0 172 -23t130 -23t72 21
t31 69q0 48 -55 104l4 12q39 29 74 29zM429 1309q-21 1 -37 -13t-52 -49l-33 -35h-18l-49 54v14l125 141l20 6q49 -4 170 -41q127 -32 151 -32t78 59l35 35h17l49 -51v-17l-125 -141l-21 -6q-45 4 -167 40t-143 36z" />
    <glyph glyph-name="Ohorndotbelow" unicode="&#x1ee2;" horiz-adv-x="1310" 
d="M741 -237q0 -44 -25.5 -70.5t-70.5 -26.5q-90 0 -90 94q0 43 25.5 70t68.5 27t67.5 -25t24.5 -69zM653 1190q-407 0 -407 -534.5t399 -534.5q410 0 410 532q0 272 -99.5 404.5t-302.5 132.5zM1292 1378.5q0 -83.5 -66.5 -141t-172.5 -63.5q172 -166 172 -496t-153.5 -512
t-428 -182t-420 172t-145.5 494.5t152.5 498.5t428.5 176q104 0 211 -35t157 -35t92 33t42 100.5t-65 129.5l4 16q43 33 82 33t74.5 -52.5t35.5 -136z" />
    <glyph glyph-name="ohorndotbelow" unicode="&#x1ee3;" horiz-adv-x="1148" 
d="M668 -237q0 -44 -26 -70.5t-71 -26.5q-90 0 -90 94q0 43 25.5 70t68.5 27t68 -25t25 -69zM891 507q0 206 -79 302t-242 96t-240.5 -96t-77.5 -301t79 -304.5t240.5 -99.5t240.5 98.5t79 304.5zM1011 1221q34 0 66.5 -42t32.5 -110t-51 -117t-135 -61q125 -127 125 -374
t-129 -389t-356.5 -142t-349.5 135t-122 385t128 388t364 138q84 0 172.5 -23t130 -23.5t72 21t30.5 69.5t-55 104l4 12q39 29 73 29z" />
    <glyph glyph-name="Udotbelow" unicode="&#x1ee4;" horiz-adv-x="1282" 
d="M731 -237q0 -44 -25.5 -70.5t-70.5 -26.5q-90 0 -90 94q0 43 25.5 70t68.5 27t67.5 -25t24.5 -69zM635 -14q-237 0 -360 128t-119 365l2 178l-2 656h161l-8 -813q-4 -371 333 -371t337 350l-8 834h164l-5 -668l-2 -147q4 -244 -126 -378t-367 -134z" />
    <glyph glyph-name="udotbelow" unicode="&#x1ee5;" horiz-adv-x="1124" 
d="M657 -237q0 -44 -25.5 -70.5t-70.5 -26.5q-90 0 -90 94q0 43 25.5 70t68.5 27t67.5 -25t24.5 -69zM558 -12q-200 0 -303 95t-99 271l2 156l-4 510h155l-10 -641q-4 -260 264 -260t264 260l-4 641h154l-6 -518v-148q4 -174 -104.5 -270t-308.5 -96z" />
    <glyph glyph-name="Uhookabove" unicode="&#x1ee6;" horiz-adv-x="1282" 
d="M636 -14q-236 0 -361 129q-124 129 -119 364l2 178l-2 656h161l-6 -813q-4 -371 334 -371t334 350l-8 834h164l-2 -668l-3 -147q4 -242 -126 -377q-132 -135 -368 -135zM768 1706q0 -58 -106 -145l40 -70l-71 -39l-66 113q102 74 103 133q0 43 -58 43t-114 -49l-33 53
q82 86 176 86q55 0 92 -34q37 -33 37 -91z" />
    <glyph glyph-name="uhookabove" unicode="&#x1ee7;" horiz-adv-x="1124" 
d="M560 -12q-200 0 -304 95t-100 271l2 156l-2 510h153l-8 -641q-4 -260 264 -260t264 260l-6 641h156l-6 -518v-148q2 -174 -106 -270q-107 -96 -307 -96zM688 1414q0 -58 -106 -144l41 -70l-72 -39l-66 113q102 74 103 133q0 43 -57 43t-115 -49l-33 53q82 86 176 86
q55 0 92 -34t37 -92z" />
    <glyph glyph-name="Uhornacute" unicode="&#x1ee8;" horiz-adv-x="1302" 
d="M635 -14q-237 0 -361 128q-123 128 -118 365l2 178l-2 656h161l-8 -813q-4 -371 333 -371t337 350l-8 834h78q133 0 133 104q0 63 -68 123l6 16q47 33 83 33t72 -48q36 -47 36 -115t-48 -120t-128 -73l-5 -588l-2 -147q4 -244 -126 -378t-367 -134zM926 1669l-4 -16
q-182 -84 -400 -176l-20 8l-29 74q211 104 393 210l19 -4z" />
    <glyph glyph-name="uhornacute" unicode="&#x1ee9;" horiz-adv-x="1142" 
d="M554 -12q-200 0 -303 95t-99 271l2 156l-4 510h153l-8 -641q-4 -260 264 -260t264 260l-6 641h78q106 0 106 80q0 51 -53 96l4 14q39 29 75 29t66 -37q29 -37 29 -91t-40 -99t-109 -64l-6 -446v-148q2 -174 -106 -270q-107 -96 -307 -96zM827 1376l-4 -16
q-182 -84 -399 -176l-21 8l-28 74q211 104 393 211l18 -4z" />
    <glyph glyph-name="Uhorngrave" unicode="&#x1eea;" horiz-adv-x="1302" 
d="M635 -14q-237 0 -360 128t-119 365l2 178l-2 656h161l-8 -813q-4 -371 333 -371t337 350l-8 834h78q133 0 133 104q0 63 -68 123l6 16q47 33 83 33t72 -48t36 -115.5t-48.5 -120t-127.5 -72.5l-5 -588l-2 -147q4 -244 -126 -378t-367 -134zM428 1655l-4 16l41 96l18 5
q182 -106 394 -211l-29 -74l-21 -8q-217 92 -399 176z" />
    <glyph glyph-name="uhorngrave" unicode="&#x1eeb;" horiz-adv-x="1142" 
d="M554 -12q-200 0 -303.5 95t-98.5 271l2 156l-4 510h153l-8 -641q-4 -260 264 -260t264 260l-6 641h78q106 0 106 80q0 51 -53 96l4 14q39 29 75 29t65.5 -37t29.5 -91t-40 -99t-109 -64l-6 -446v-148q2 -174 -105.5 -270t-307.5 -96zM328 1362l-4 16l41 97l18 4
q182 -106 393 -211l-28 -74l-21 -8q-217 92 -399 176z" />
    <glyph glyph-name="Uhornhookabove" unicode="&#x1eec;" horiz-adv-x="1302" 
d="M635 -14q-237 0 -361 128q-123 128 -118 365l2 178l-2 656h161l-8 -813q-4 -371 333 -371t337 350l-8 834h78q133 0 133 104q0 63 -68 123l6 16q47 33 83 33t72 -48q36 -47 36 -115t-48 -120t-128 -73l-5 -588l-2 -147q4 -244 -126 -378t-367 -134zM766 1708
q0 -58 -107 -145l41 -70l-71 -39l-66 113q102 74 103 133q0 43 -58 43t-114 -49l-33 53q82 86 176 86q55 0 92 -34q37 -33 37 -91z" />
    <glyph glyph-name="uhornhookabove" unicode="&#x1eed;" horiz-adv-x="1142" 
d="M554 -12q-200 0 -303 95t-99 271l2 156l-4 510h153l-8 -641q-4 -260 264 -260t264 260l-6 641h78q106 0 106 80q0 51 -53 96l4 14q39 29 75 29t66 -37q29 -37 29 -91t-40 -99t-109 -64l-6 -446v-148q2 -174 -106 -270q-107 -96 -307 -96zM668 1414q0 -58 -107 -144
l41 -70l-72 -39l-65 113q102 74 102 133q0 43 -57 43t-115 -49l-33 53q82 86 177 86q55 0 92 -34t37 -92z" />
    <glyph glyph-name="Uhorntilde" unicode="&#x1eee;" horiz-adv-x="1302" 
d="M635 -14q-237 0 -361 128q-123 128 -118 365l2 178l-2 656h161l-8 -813q-4 -371 333 -371t337 350l-8 834h78q133 0 133 104q0 63 -68 123l6 16q47 33 83 33t72 -48q36 -47 36 -115t-48 -120t-128 -73l-5 -588l-2 -147q4 -244 -126 -378t-367 -134zM511 1602
q-21 0 -37 -14t-52 -48l-33 -35h-18l-49 54v14l124 141l21 6q49 -4 170 -41q127 -33 151 -33t78 60l35 35h17l49 -51v-17l-125 -141l-21 -6q-45 4 -167 40t-143 36z" />
    <glyph glyph-name="uhorntilde" unicode="&#x1eef;" horiz-adv-x="1142" 
d="M554 -12q-200 0 -303 95t-99 271l2 156l-4 510h153l-8 -641q-4 -260 264 -260t264 260l-6 641h78q106 0 106 80q0 51 -53 96l4 14q39 29 75 29t66 -37q29 -37 29 -91t-40 -99t-109 -64l-6 -446v-148q2 -174 -106 -270q-107 -96 -307 -96zM413 1309q-21 1 -37 -13t-52 -49
l-33 -35h-19l-49 54v14l125 141l21 6q49 -4 170 -41q127 -32 151 -32t78 59l35 35h16l49 -51v-17l-125 -141l-20 -6q-45 4 -167 40t-143 36z" />
    <glyph glyph-name="Uhorndotbelow" unicode="&#x1ef0;" horiz-adv-x="1302" 
d="M737 -237q0 -44 -25.5 -70.5t-70.5 -26.5q-90 0 -90 94q0 43 25.5 70t68.5 27t67.5 -25t24.5 -69zM635 -14q-237 0 -360 128t-119 365l2 178l-2 656h161l-8 -813q-4 -371 333 -371t337 350l-8 834h78q133 0 133 104q0 63 -68 123l6 16q47 33 83 33t72 -48t36 -115.5
t-48.5 -120t-127.5 -72.5l-5 -588l-2 -147q4 -244 -126 -378t-367 -134z" />
    <glyph glyph-name="uhorndotbelow" unicode="&#x1ef1;" horiz-adv-x="1142" 
d="M659 -237q0 -44 -25.5 -70.5t-70.5 -26.5q-90 0 -90 94q0 43 25.5 70t68.5 27t67.5 -25t24.5 -69zM554 -12q-200 0 -303.5 95t-98.5 271l2 156l-4 510h153l-8 -641q-4 -260 264 -260t264 260l-6 641h78q106 0 106 80q0 51 -53 96l4 14q39 29 75 29t65.5 -37t29.5 -91
t-40 -99t-109 -64l-6 -446v-148q2 -174 -105.5 -270t-307.5 -96z" />
    <glyph glyph-name="Ygrave" unicode="&#x1ef2;" horiz-adv-x="1081" 
d="M604 0h-166l11 383l-3 90l-415 840h176l26 -74l287 -590h17l313 586l31 78h174l-457 -846l-2 -84zM307 1653l-4 16l41 96l18 4q182 -106 394 -210l-29 -74l-20 -8q-218 92 -400 176z" />
    <glyph glyph-name="ygrave" unicode="&#x1ef3;" horiz-adv-x="968" 
d="M545 0h-154l6 293v59l-346 668h166l21 -59l227 -439h12l250 432l29 66h159l-374 -664l-2 -63zM289 1405l-4 16l61 86l19 2q135 -133 335 -297l-45 -65l-18 -2q-145 102 -348 260z" />
    <glyph glyph-name="Ydotbelow" unicode="&#x1ef4;" horiz-adv-x="1081" 
d="M614 -237q0 -44 -25.5 -70.5t-70.5 -26.5q-90 0 -90 94q0 43 25.5 70t68.5 27t67.5 -25t24.5 -69zM31 1313h176l26 -74l287 -590h17l313 586l31 78h174l-457 -846l-2 -84l8 -383h-166l11 383l-3 90z" />
    <glyph glyph-name="ydotbelow" unicode="&#x1ef5;" horiz-adv-x="968" 
d="M561 -237q0 -44 -25.5 -70.5t-70.5 -26.5q-90 0 -90 94q0 43 25.5 70t68.5 27t67.5 -25t24.5 -69zM51 1020h166l21 -59l227 -439h12l250 432l29 66h159l-374 -664l-2 -63l6 -293h-154l6 293v59z" />
    <glyph glyph-name="Yhookabove" unicode="&#x1ef6;" horiz-adv-x="1081" 
d="M604 0h-166l13 383l-2 88l-418 842h176l26 -74l287 -590h17l313 586l31 78h174l-455 -842l-2 -88zM649 1706q0 -58 -106 -145l41 -70l-72 -39l-66 113q102 74 103 133q0 43 -57 43t-115 -49l-33 53q82 86 176 86q55 0 92 -34q37 -33 37 -91z" />
    <glyph glyph-name="yhookabove" unicode="&#x1ef7;" horiz-adv-x="968" 
d="M545 0h-154l6 293v61l-346 666h166l23 -59l227 -439h10l250 432l29 66h162l-377 -664l-2 -63zM514 1407q0 43 -57 43t-115 -49l-33 53q82 86 176 86q56 0 93 -34t36 -83q0 -66 -106 -153l41 -70l-72 -39l-65 113q102 74 102 133z" />
    <glyph glyph-name="endash" unicode="&#x2013;" horiz-adv-x="978" 
d="M1004 467h-1022l-13 12l11 103h1019l11 -15z" />
    <glyph glyph-name="emdash" unicode="&#x2014;" horiz-adv-x="1902" 
d="M1927 467h-1947l-13 12l10 103h1946l14 -15z" />
    <glyph glyph-name="quoteleft" unicode="&#x2018;" horiz-adv-x="342" 
d="M66 1049q0 120 149 268l61 -43l3 -14q-86 -92 -86 -174t79 -111v-17q-39 -37 -96 -69q-110 40 -110 160z" />
    <glyph glyph-name="quoteright" unicode="&#x2019;" horiz-adv-x="342" 
d="M281 1154q0 -120 -150 -267l-61 43l-2 14q86 92 86 173t-80 112v16q39 37 96 70q111 -41 111 -161z" />
    <glyph glyph-name="quotesinglbase" unicode="&#x201a;" horiz-adv-x="468" 
d="M338 41q0 -133 -193 -274l-55 51v14q113 88 113 180q0 55 -64 97v16q57 39 113 53q86 -53 86 -137z" />
    <glyph glyph-name="quotedblleft" unicode="&#x201c;" horiz-adv-x="591" 
d="M324 1051q0 120 149 268l62 -43l2 -14q-86 -92 -86 -173t79 -112v-16q-39 -37 -96 -70q-110 40 -110 160zM55 1051q0 120 150 268l61 -43l2 -14q-86 -92 -86 -173t80 -112v-16q-39 -37 -96 -70q-111 40 -111 160z" />
    <glyph glyph-name="quotedblright" unicode="&#x201d;" horiz-adv-x="604" 
d="M537 1154q0 -120 -150 -267l-61 43l-2 14q86 92 86 173t-80 112v16q39 37 96 70q111 -41 111 -161zM274 1154q0 -120 -149 -267l-62 43l-2 14q86 92 86 173t-79 112v16q39 37 96 70q110 -41 110 -161z" />
    <glyph glyph-name="quotedblbase" unicode="&#x201e;" horiz-adv-x="739" 
d="M604 41q0 -133 -192 -274l-56 51v14q113 88 113 180q0 55 -63 97v16q57 39 112 53q86 -53 86 -137zM338 41q0 -133 -193 -274l-55 51v14q113 88 113 180q0 55 -64 97v16q57 39 113 53q86 -53 86 -137z" />
    <glyph glyph-name="dagger" unicode="&#x2020;" horiz-adv-x="987" 
d="M549 713v-899l-103 -7l-12 15v891h-336l-12 12l10 100h338v373l109 10l8 -10l-2 -373h340l14 -12l-10 -100h-344z" />
    <glyph glyph-name="daggerdbl" unicode="&#x2021;" horiz-adv-x="987" 
d="M549 172v-358l-103 -7l-12 15v350h-336l-12 12l10 101h338v438h-336l-12 14l10 101h338v360l109 10l8 -10l-2 -360h340l14 -13l-10 -102h-344v-438h340l14 -13l-10 -100h-344z" />
    <glyph glyph-name="bullet" unicode="&#x2022;" horiz-adv-x="522" 
d="M367 538q0 -50 -29 -80t-80 -29q-101 0 -101 106q0 48 29 78t77 30t76 -28q28 -27 28 -77z" />
    <glyph glyph-name="onedotenleader" unicode="&#x2024;" horiz-adv-x="468" 
d="M328 87q0 -44 -26 -71t-71 -26q-90 0 -90 94q0 43 26 70q27 27 69 27t67 -25t25 -69z" />
    <glyph glyph-name="twodotenleader" unicode="&#x2025;" horiz-adv-x="831" 
d="M680 87q0 -44 -26 -71t-70 -26q-90 0 -90 94q0 43 25 70q27 27 69 27t67 -25t25 -69zM133 84q0 43 26 70q27 27 69 27t67 -25t25 -69t-26 -71t-71 -26q-90 0 -90 94z" />
    <glyph glyph-name="ellipsis" unicode="&#x2026;" horiz-adv-x="1191" 
d="M680 87q0 -44 -26 -71t-70 -26q-90 0 -90 94q0 43 25 70q27 27 69 27t67 -25t25 -69zM852 84q0 43 26 70t68 27t68 -25q24 -25 24 -69t-26 -71t-70 -26q-90 0 -90 94zM133 84q0 43 26 70q27 27 69 27t67 -25t25 -69t-26 -71t-71 -26q-90 0 -90 94z" />
    <glyph glyph-name="perthousand" unicode="&#x2030;" horiz-adv-x="2453" 
d="M2068 596q-184 0 -184 -246t186.5 -246t186.5 246t-189 246zM1304.5 104q186.5 0 186.5 246q-1 246 -187 246t-186 -246t186.5 -246zM2370 359q0 -176 -79 -271.5t-225 -95.5t-221.5 91t-75.5 266t79.5 270.5t225.5 95.5t221 -90t75 -266zM1604 359q0 -176 -79 -271.5
t-225 -95.5t-221 91t-75 266t79 270.5t225 95.5t221 -90t75 -266zM197 957q0 -246 186 -246.5t186 245.5t-188 246q-184 1 -184 -245zM682 965q0 -176 -79 -271.5t-224 -95.5t-221 91t-76 266t80 270.5t225 95.5t220 -90t75 -266zM1331 1319l-966 -1505l-72 41l-10 24
l964 1510l72 -41z" />
    <glyph glyph-name="minute" unicode="&#x2032;" horiz-adv-x="339" 
d="M205 920l-84 -13l-15 15l11 376l125 11l12 -15z" />
    <glyph glyph-name="second" unicode="&#x2033;" horiz-adv-x="583" 
d="M446 920l-84 -13l-14 15l10 376l125 11l13 -15zM205 920l-84 -13l-15 15l11 376l125 11l12 -15z" />
    <glyph glyph-name="guilsinglleft" unicode="&#x2039;" horiz-adv-x="468" 
d="M43 475l297 356l80 -45l2 -20l-254 -305l254 -305l-2 -19l-80 -45l-297 350v33z" />
    <glyph glyph-name="guilsinglright" unicode="&#x203a;" horiz-adv-x="481" 
d="M434 451l-297 -357l-80 45l-2 21l254 305l-254 305l2 18l80 46l297 -351v-32z" />
    <glyph glyph-name="fraction" unicode="&#x2044;" horiz-adv-x="155" 
d="M565 1319l-966 -1505l-72 41l-10 24l964 1510l72 -41z" />
    <glyph glyph-name="zerosuperior" unicode="&#x2070;" horiz-adv-x="765" 
d="M197 1046q0 -269 186 -270q186 0 186 269t-188 270q-184 0 -184 -269zM682 1055q0 -193 -80 -297t-224 -104t-220 100t-76 292t80 295q80 105 225 105t220 -99t75 -292z" />
    <glyph glyph-name="foursuperior" unicode="&#x2074;" horiz-adv-x="718" 
d="M403 975v301h-10l-213 -301h223zM522 868l8 -194l-8 -12l-114 -7l-9 9l2 204h-233l-105 -6l-10 15v90l336 471h133l-2 -463h119l10 -12l-8 -101z" />
    <glyph glyph-name="fivesuperior" unicode="&#x2075;" horiz-adv-x="622" 
d="M207 651q-61 0 -137 15l-9 100l11 10q63 -16 145 -16t133 39t51 106q0 92 -151 125l-125 23l-8 14l6 352l16 21l74 -2h201l123 4l8 -8l-15 -107l-10 -10l-100 10h-187l-4 -176l84 -21q117 -24 172 -76t55 -155t-91 -175q-92 -72 -242 -73z" />
    <glyph glyph-name="sixsuperior" unicode="&#x2076;" horiz-adv-x="690" 
d="M485 895q0 135 -131 135q-82 0 -145 -49l-2 -37q0 -203 139 -203t139 154zM616 899q0 -107 -70 -177t-200 -71q-129 0 -200 77q-70 76 -70 228t103 283t292 209h8l90 -62v-14q-145 -55 -226 -121t-114 -157l11 -13q72 49 166 49t152 -62t58 -169z" />
    <glyph glyph-name="sevensuperior" unicode="&#x2077;" horiz-adv-x="614" 
d="M496 1438l59 2l2 -105l-235 -512l-70 -176l-119 31l-8 22l289 621h-244l-115 -10l-8 16l12 113l136 -2h301z" />
    <glyph glyph-name="eightsuperior" unicode="&#x2078;" horiz-adv-x="698" 
d="M203 866q0 -55 38 -88q39 -33 105 -33t104 34t38 87t-38 81t-116 59q-131 -44 -131 -140zM233 1240q0 -50 32 -78t95 -56q109 55 109 137q0 49 -31 78t-86 29t-87 -30t-32 -80zM608 877q0 -105 -76 -165t-196 -60t-188 54q-67 54 -66 144q0 133 162 192v7
q-133 68 -133 176t69 165q70 56 178 56t167 -50q58 -50 59 -136q0 -117 -133 -187v-8q77 -35 117 -75t40 -113z" />
    <glyph glyph-name="ninesuperior" unicode="&#x2079;" horiz-adv-x="692" 
d="M350 1358q-139 0 -139 -144t131 -145q77 0 145 49l2 37q0 203 -139 203zM621 1142q1 -152 -103 -283q-104 -130 -295 -208h-8l-86 62v16q143 53 224 119t114 156l-12 12q-70 -47 -163 -47t-153 63q-59 63 -59 169q0 105 71 177t199 72t200 -78q71 -78 71 -230z" />
    <glyph glyph-name="franc" unicode="&#x20a3;" horiz-adv-x="800" 
d="M311 285h240l8 -9l-6 -71h-240l4 -205h-133l2 205h-131l-8 8l6 72h135v22l-4 711h594l13 -12l-15 -97l-254 4h-205l-4 -354h193l184 2l8 -14l-10 -94h-375l-2 -134v-34z" />
    <glyph glyph-name="Euro" unicode="&#x20ac;" horiz-adv-x="993" 
d="M627 -12q-360 0 -434 342h-152l-8 10l6 86h141l-2 70q0 45 2 67h-139l-8 10l6 86h154q37 178 153.5 272.5t286.5 94.5t291 -74l-25 -108l-14 -4q-104 76 -242 75q-256 0 -311 -256h381l8 -10l-6 -86h-393l-3 -57q0 -55 3 -80h391l8 -10l-6 -86h-377q66 -227 295 -228
q147 0 264 82l18 -10l-12 -106q-135 -80 -276 -80z" />
    <glyph glyph-name="uni2113" unicode="&#x2113;" horiz-adv-x="772" 
d="M723 0h-543l6 307l-6 713h154l-6 -701l4 -190h393l8 -14z" />
    <glyph glyph-name="trademark" unicode="&#x2122;" horiz-adv-x="1191" 
d="M999 829l-12 146l-20 199h-9l-127 -293h-73l-119 293h-6l-25 -189l-12 -156h-78l53 482h109l22 -72l93 -240h6l102 240l25 72h102l49 -482h-80zM432 1303l-6 -66l-92 4h-43l-4 -260l4 -152h-90l4 144l-2 268h-43l-99 -4l-6 6l6 68h365z" />
    <glyph glyph-name="Ohm" unicode="&#x2126;" horiz-adv-x="1523" 
d="M1341 744q-1 -164 -73 -328t-209 -281l4 -8h205l168 14l10 -12l-21 -137l-202 8h-271l-78 -4l-10 8v131q144 105 226 271t82 349t-105 310q-104 127 -305 127t-305 -126q-105 -126 -105 -310t80 -350t223 -271v-131l-8 -8l-80 4h-299l-180 -6l-12 14l22 131l176 -12h185
l2 8q-135 113 -207 271t-72 322t68 301q68 136 202 216t322 80t315 -77q128 -77 190 -208q62 -132 62 -296z" />
    <glyph glyph-name="estimated" unicode="&#x212e;" horiz-adv-x="1613" 
d="M346 1049v-355q0 -14 14 -14h938q14 0 15 14v363q0 25 -23 47q-184 184 -460 184t-461 -190q-23 -18 -23 -49zM1579 653v-12h-1219q-14 0 -14 -12v-371q0 -20 21 -45q189 -193 470 -193q141 0 274.5 57.5t229.5 158.5h78q-104 -119 -258.5 -187.5t-344.5 -68.5t-362.5 90
t-274 245.5t-101.5 338.5t101.5 338t274.5 246t375.5 91t375.5 -91t273.5 -245.5t100.5 -339.5z" />
    <glyph glyph-name="oneeighth" unicode="&#x215b;" horiz-adv-x="1437" 
d="M942 205q0 -55 38 -88t104 -33t104.5 34t38.5 87t-38 80.5t-116 58.5q-131 -43 -131 -139zM973 579q0 -50 31.5 -78t95.5 -57q109 55 108 138q0 49 -30 77.5t-86 28.5t-87.5 -29.5t-31.5 -79.5zM1323 598q0 -117 -133 -186v-9q76 -35 117 -74.5t41 -128.5t-76 -149.5
t-197 -60.5t-187.5 54t-66.5 144q0 133 162 193v6q-133 68 -133 176t70 164.5t178 56.5t166.5 -50t58.5 -136zM342 815l4 -276h-145l4 258v366l-164 -43l-12 6v115l299 84l18 -18zM1149 1319l-967 -1505l-71 41l-11 24l965 1510l72 -41z" />
    <glyph glyph-name="threeeighths" unicode="&#x215c;" horiz-adv-x="1513" 
d="M1018 205q0 -55 38 -88t104 -33t104.5 34t38.5 87t-38 80.5t-116 58.5q-131 -43 -131 -139zM1049 579q0 -50 31.5 -78t95.5 -57q109 55 108 138q0 49 -30 77.5t-86 28.5t-87.5 -29.5t-31.5 -79.5zM1399 598q0 -117 -133 -186v-9q76 -35 116.5 -74.5t40.5 -128.5
t-75.5 -149.5t-196.5 -60.5t-187.5 54t-66.5 144q0 133 162 193v6q-133 68 -133 176t70 164.5t178 56.5t166.5 -50t58.5 -136zM512 1160q0 -143 -127 -199v-9q156 -41 156 -186q0 -106 -89.5 -171t-234.5 -65q-80 0 -139 15l-10 102l12 10q74 -18 148 -18t122.5 35t48.5 94
q0 113 -143 117h-88l-8 10l2 96h61q51 0 97.5 38t46.5 86q0 95 -107 95q-70 0 -162 -63h-14l-23 96q104 80 217 80t173.5 -47.5t60.5 -115.5zM1225 1319l-967 -1505l-72 41l-10 24l965 1510l71 -41z" />
    <glyph glyph-name="fiveeighths" unicode="&#x215d;" horiz-adv-x="1474" 
d="M979 205q0 -55 38.5 -88t104.5 -33t104 34t38 87t-38 80.5t-116 58.5q-131 -43 -131 -139zM1010 579q0 -50 31.5 -78t95.5 -57q109 55 108 138q0 49 -30.5 77.5t-86.5 28.5t-87 -29.5t-31 -79.5zM1360 598q0 -117 -133 -186v-9q76 -35 116.5 -74.5t40.5 -128.5
t-75.5 -149.5t-196.5 -60.5t-187.5 54t-66.5 144q0 133 162 193v6q-133 68 -133 176t69.5 164.5t177.5 56.5t167 -50t59 -136zM541 793q0 -119 -92.5 -192t-241.5 -73q-61 0 -137 15l-9 100l11 10q63 -16 145 -16t133 39t51 106q0 92 -151 125l-125 23l-8 14l6 352l16 21
l74 -2h201l123 4l8 -8l-15 -107l-10 -10l-100 10h-187l-4 -176l84 -20q117 -25 172.5 -77t55.5 -138zM1186 1319l-967 -1505l-72 41l-10 24l965 1510l72 -41z" />
    <glyph glyph-name="seveneighths" unicode="&#x215e;" horiz-adv-x="1435" 
d="M940 205q0 -55 38 -88t104 -33t104.5 34t38.5 87t-38 80.5t-116 58.5q-131 -43 -131 -139zM971 579q0 -50 31.5 -78t95.5 -57q109 55 108 138q0 49 -30 77.5t-86 28.5t-87.5 -29.5t-31.5 -79.5zM1321 598q0 -117 -133 -186v-9q76 -35 117 -74.5t41 -128.5t-76 -149.5
t-197 -60.5t-187.5 54t-66.5 144q0 133 162 193v6q-133 68 -133 176t70 164.5t178 56.5t166.5 -50t58.5 -136zM496 1315l59 2l2 -105l-235 -512l-70 -176l-119 31l-8 23l289 620h-244l-115 -10l-8 16l12 113l136 -2h301zM1147 1319l-967 -1505l-71 41l-11 24l965 1510
l72 -41z" />
    <glyph glyph-name="arrowleft" unicode="&#x2190;" horiz-adv-x="1056" 
d="M45 459v26l397 406l90 -27v-24l-303 -316l762 8l13 -12l-9 -104l-768 6l305 -316v-26l-90 -25z" />
    <glyph glyph-name="arrowup" unicode="&#x2191;" horiz-adv-x="1056" 
d="M512 958h27l405 -397l-26 -90h-25l-315 303l8 -762l-13 -12l-104 8l6 768l-315 -305h-27l-24 90z" />
    <glyph glyph-name="arrowright" unicode="&#x2192;" horiz-adv-x="1056" 
d="M1006 494v-27l-398 -406l-90 27v25l303 315l-762 -8l-12 12l8 105l768 -7l-305 316v26l90 25z" />
    <glyph glyph-name="arrowdown" unicode="&#x2193;" horiz-adv-x="1056" 
d="M543 -8h-27l-405 397l26 90h25l315 -303l-8 762l12 12l105 -8l-6 -768l315 305h27l24 -90z" />
    <glyph glyph-name="arrowupleft" unicode="&#x2196;" horiz-adv-x="1056" 
d="M204 806l19 19l568 5l45 -82l-18 -17l-437 -9l544 -533v-17l-79 -68l-539 547l-7 -439l-19 -19l-81 47z" />
    <glyph glyph-name="arrowupright" unicode="&#x2197;" horiz-adv-x="1056" 
d="M828 832l19 -19l6 -568l-83 -44l-17 17l-9 437l-532 -544h-18l-68 79l547 539l-438 7l-19 19l46 81z" />
    <glyph glyph-name="arrowdownright" unicode="&#x2198;" horiz-adv-x="1056" 
d="M846 138l-19 -19l-567 -5l-45 82l17 18l438 8l-545 533v17l80 68l538 -547l8 439l18 19l82 -47z" />
    <glyph glyph-name="arrowdownleft" unicode="&#x2199;" horiz-adv-x="1056" 
d="M226 123l-18 18l-6 568l82 45l18 -18l8 -437l533 545h18l68 -80l-548 -539l439 -7l19 -19l-47 -81z" />
    <glyph glyph-name="partialdiff" unicode="&#x2202;" horiz-adv-x="1046" 
d="M809 522q0 29 -4 86q-147 129 -289 129t-215.5 -79.5t-73.5 -234.5t72 -237t215 -82t219 106.5t76 311.5zM963 530q0 -258 -120 -402t-333 -144t-323.5 118.5t-110.5 320.5t108.5 322.5t302.5 120.5q135 -6 271 -100l16 14q-115 406 -641 586v20l107 80h16
q342 -143 524.5 -378.5t182.5 -557.5z" />
    <glyph glyph-name="increment" unicode="&#x2206;" horiz-adv-x="1183" 
d="M227 137h709l-328 1006h-14zM29 0l479 1313h190l441 -1313h-1110z" />
    <glyph glyph-name="product" unicode="&#x220f;" horiz-adv-x="1361" 
d="M1135 410l6 -410h-166l12 395l-10 785h-594l-8 -770l8 -410h-166l12 395l-10 783l-102 -2l-13 16l15 121h1124l12 -17l-14 -120l-100 2z" />
    <glyph glyph-name="summation" unicode="&#x2211;" horiz-adv-x="997" 
d="M948 1167l-196 11h-482l404 -500v-31l-410 -514h463l217 10l14 -16l-12 -129l-719 2l-161 -2v117l428 549l-422 524v125l876 2l13 -17z" />
    <glyph glyph-name="minus" unicode="&#x2212;" horiz-adv-x="983" 
d="M909 485h-833l-13 13l11 102h833l13 -12z" />
    <glyph glyph-name="divisionslash" unicode="&#x2215;" horiz-adv-x="587" 
d="M170 -231h-113l-12 16l420 1604h113l12 -19z" />
    <glyph glyph-name="bulletoperator" unicode="&#x2219;" horiz-adv-x="522" 
d="M256 431q-101 0 -101 106q0 48 29 78t77 30t76 -28q27 -27 27 -77t-28 -80t-80 -29z" />
    <glyph glyph-name="radical" unicode="&#x221a;" horiz-adv-x="1046" 
d="M397 0l-256 823h-184l-6 8l4 107h291l10 -10l233 -774h13l469 1288l16 12h111l-529 -1454h-172z" />
    <glyph glyph-name="infinity" unicode="&#x221e;" horiz-adv-x="983" 
d="M740 362q70 0 112.5 46.5t42.5 127.5t-40.5 130t-116.5 49t-119.5 -48.5t-77.5 -134.5q41 -82 85 -126t114 -44zM86 544q0 -81 41 -128t112.5 -47t116.5 49t84 139q-37 78 -80 120t-116.5 42t-115.5 -47t-42 -128zM993 536q0 -130 -67.5 -203t-165.5 -73t-155.5 47
t-106.5 137q-92 -184 -256 -184q-117 0 -185.5 77t-68.5 207t67 205.5t169 75.5t159 -46t102 -128q92 174 256 174q117 0 184.5 -79.5t67.5 -209.5z" />
    <glyph glyph-name="integral" unicode="&#x222b;" horiz-adv-x="557" 
d="M508 1348q-166 0 -170 -185l2 -1054q0 -141 -44 -227.5t-165 -178.5l-72 64v18q82 78 113 143.5t29 173.5l-4 1041q-2 154 81.5 235.5t237.5 81.5q80 0 148 -18l-9 -113l-14 -8q-66 27 -133 27z" />
    <glyph glyph-name="approxequal" unicode="&#x2248;" horiz-adv-x="983" 
d="M702 729q26 0 54 20q27 20 92 85h16l45 -56v-18l-149 -152l-21 -4q-45 6 -212 52t-191 46t-45 -15q-20 -15 -68 -58l-30 -31h-19l-45 55v19l150 149l20 8q51 -6 214 -53t189 -47zM702 389q26 0 56 22q29 22 90 83h16l45 -56v-18l-149 -152l-21 -4q-45 6 -212 52t-191 46
t-45 -15q-20 -15 -68 -58l-30 -31h-19l-45 55v19l150 149l20 8q51 -6 214 -53t189 -47z" />
    <glyph glyph-name="notequal" unicode="&#x2260;" horiz-adv-x="983" 
d="M920 416l-11 -103h-432l-71 -303h-105l-10 13l69 290h-284l-13 13l11 102h313l53 227h-364l-13 13l11 102h393l70 291h104l12 -14l-65 -277h319l13 -12l-11 -103h-350l-53 -227h401z" />
    <glyph glyph-name="lessequal" unicode="&#x2264;" horiz-adv-x="983" 
d="M909 -186h-833l-13 10l11 102h833l13 -12zM897 840l-696 -289v-12l700 -271l-24 -94l-19 -10l-784 311v133l14 19l780 321l37 -94z" />
    <glyph glyph-name="greaterequal" unicode="&#x2265;" horiz-adv-x="983" 
d="M909 608v-133l-784 -311l-19 10l-24 94l700 271v12l-696 289l-8 14l37 94l780 -321zM909 -186h-833l-13 12l11 102h833l13 -12z" />
    <glyph glyph-name="lozenge" unicode="&#x25ca;" horiz-adv-x="1017" 
d="M221 569l281 -602h10l272 608l-280 609h-10zM897 602v-51l-326 -715l-120 -2l-15 6l-325 709v51l323 713l125 6l10 -8z" />
    <glyph glyph-name="dieresisacute" unicode="&#xf6d7;" 
d="M643 1203q0 -40 -23.5 -63.5t-62.5 -23.5t-61.5 22.5t-22.5 62.5t23.5 63.5t63.5 23.5t61.5 -22.5t21.5 -62.5zM322 1203q0 -40 -24 -63.5t-65 -23.5q-82 0 -81 84q0 41 24 64.5t62 23.5t61 -22.5t23 -62.5zM631 1513l-10 -18q-158 -41 -424 -100l-19 10l-14 78
q217 63 424 139l16 -6z" />
    <glyph glyph-name="dieresisgrave" unicode="&#xf6d8;" 
d="M643 1203q0 -40 -23.5 -63.5t-62.5 -23.5t-61.5 22.5t-22.5 62.5t23.5 63.5t63.5 23.5t61.5 -22.5t21.5 -62.5zM322 1203q0 -40 -24 -63.5t-65 -23.5q-82 0 -81 84q0 41 24 64.5t62 23.5t61 -22.5t23 -62.5zM631 1483l-19 -78l-16 -10q-254 55 -422 100l-10 18l24 103
l19 6q180 -67 424 -139z" />
    <glyph glyph-name="Iacute_J.loclNLD" horiz-adv-x="1183" 
d="M356 0h-166l11 395l-11 918h168l-10 -903zM555 1667l-4 -16q-182 -84 -399 -176l-21 8l-29 73q211 104 394 211l18 -4zM989 242q0 -156 -78 -257t-270 -194l-63 92v21q141 76 200 150t60 186v178l-9 762l-251 -2l-17 14l10 121h422l-8 -879zM1102 1667l-4 -16
q-182 -84 -400 -176l-20 8l-29 73q211 104 393 211l19 -4z" />
    <glyph glyph-name="C.ss01" horiz-adv-x="944" 
d="M563.5 893q-149.5 0 -227.5 -94t-78 -282.5t78 -288t225.5 -99.5t274.5 92l16 -8l-12 -137l-9 -4h318v-72h-1354v72h498q-190 123 -190.5 439.5t206.5 438.5h-514v70h1354v-70h-293l8 -4l-28 -137l-19 -4q-104 88 -253.5 88z" />
    <glyph glyph-name="D.ss01" horiz-adv-x="1159" 
d="M901 511q0 194 -82 285t-246 91q-102 0 -229 -8l-6 -555l4 -189q131 -12 227 -12q160 0 246 97t86 291zM1053 543q0 -342 -219 -471h530v-72h-1569v72h402l4 239l-6 639h-400v70h1569v-70h-510q199 -115 199 -407z" />
    <glyph glyph-name="I.ss01" horiz-adv-x="530" 
d="M735 72v-72h-940v72h391l4 235l-6 643h-389v70h940v-70h-397l-6 -628l4 -250h399z" />
    <glyph glyph-name="L.ss01" horiz-adv-x="804" 
d="M328 131h323l11 174l106 6l-4 -239h246v-72h-1215v72h389l4 258l-6 620h-387v70h1215v-70h-676l-6 -606v-213z" />
    <glyph glyph-name="M.ss01" horiz-adv-x="1398" 
d="M1085 336l-49 450h-10l-281 -614h-118l-267 614h-8l-51 -440l-22 -274h827zM444 950l31 -88l213 -502h12l256 590h-512zM1604 72v-72h-1809v72h359l96 878h-455v70h1809v-70h-459l90 -878h369z" />
    <glyph glyph-name="V.ss01" horiz-adv-x="1024" 
d="M233 950l13 -51l258 -739h10l285 731l12 59h-578zM1229 72v-72h-1434v72h600l-307 878h-293v70h1434v-70h-277l-336 -878h613z" />
    <glyph glyph-name="X.ss01" horiz-adv-x="1064" 
d="M289 104l-19 -32h504l-20 39l-228 309zM750 915l18 35h-461l19 -37l211 -288zM1270 72v-72h-1475v72h330l315 442l-307 436h-338v70h1475v-70h-352l-293 -415l319 -463h326z" />
    <glyph glyph-name="i.loclTRK" horiz-adv-x="530" 
d="M338 0h-154l6 307l-6 713h156l-8 -701zM362 1347q0 -44 -25.5 -71t-70.5 -27q-90 0 -90 94q0 43 25.5 70t68.5 27t67.5 -24.5t24.5 -68.5z" />
    <glyph glyph-name="germandbls.calt" horiz-adv-x="1292" 
d="M524 256q148 -137 327 -137q89 0 154 61t65 163q0 103 -108 175t-356 137l-10 35l342 428q-147 70 -298 70t-240 -85t-89 -235l-4 -456l6 -412h-166l13 389l-6 479q-2 134 58 238t175 160t268 57q214 0 482 -127l8 -33l-342 -418q219 -67 323 -155t105 -240
q0 -112 -54 -194q-53 -82 -147 -126t-207 -44q-184 0 -342 92l21 168z" />
    <glyph glyph-name="iacute_j.loclNLD" horiz-adv-x="1122" 
d="M928 190q0 -125 -57.5 -204.5t-198.5 -149.5l-62 80v14q96 53 136 111.5t40 146.5v131l-4 584l-194 -2l-13 12l13 107h346l-6 -682v-148zM332 319l6 -319h-154l6 307l-6 713h156zM985 1403q-203 -158 -348 -260l-19 2l-45 65q201 164 336 297l19 -2l61 -86zM532 1421
l-4 -16q-203 -158 -348 -260l-18 2l-45 65q201 164 336 297l18 -2z" />
    <glyph glyph-name="a.sups" horiz-adv-x="655" 
d="M201 874q0 -90 94 -90q49 0 111 74l2 123l-144 -33q-63 -13 -63 -74zM567 791q25 0 39 12l12 -8l-16 -82q-39 -31 -85 -31t-68.5 22.5t-32.5 75.5h-6q-72 -82 -154 -100q-88 4 -137 52t-49 130q0 127 133 152l207 39l2 75q0 96 -99 97q-78 0 -186 -76l-10 4l-19 96
q120 80 230 80q216 0 217 -174l-6 -166q-6 -98 -6.5 -148t34.5 -50z" />
    <glyph glyph-name="b.sups" horiz-adv-x="708" 
d="M508 1004q0 203 -141 202q-63 0 -125 -57l-2 -178l2 -176q51 -18 92 -19q174 1 174 228zM645 1008q0 -152 -81 -241t-222 -89q-76 0 -162 27l-65 -21l-15 14l4 252l-4 680l148 10l-4 -415h2q82 96 162 96q112 0 174.5 -80.5t62.5 -232.5z" />
    <glyph glyph-name="c.sups" horiz-adv-x="528" 
d="M344.5 1208q-66.5 0 -105 -52t-38.5 -149t41 -152.5t111.5 -55.5t150.5 37l10 -7l-14 -112q-96 -39 -174 -39q-123 0 -193 86t-70 237.5t77 239.5t210 88q88 0 170 -45l-26 -113l-15 -6q-68 43 -134.5 43z" />
    <glyph glyph-name="d.sups" horiz-adv-x="718" 
d="M199 1010q0 -104 38.5 -159.5t107.5 -55.5t130 71l-6 342q-53 16 -100 17q-170 0 -170 -215zM641 791q20 0 41 12l10 -8l-16 -82q-43 -31 -96 -31q-80 0 -101 94h-6q-80 -90 -156 -90q-117 0 -185.5 82t-68.5 234t82 239.5t228 87.5q23 0 96 -16l-2 317l145 10l-6 -794
q0 -55 35 -55z" />
    <glyph glyph-name="e.sups" horiz-adv-x="630" 
d="M340 1229q-119 0 -137 -162h256l2 27q0 63 -33 99t-88 36zM356 678q-139 0 -216 86t-77 237.5t76 239.5t198 88t185.5 -67.5t63.5 -184.5l-4 -65l-13 -19h-370q6 -203 170 -202q100 0 186 47l12 -9l-14 -106q-104 -45 -197 -45z" />
    <glyph glyph-name="f.sups" horiz-adv-x="387" 
d="M379 1538q-90 0 -90 -111v-114h147l4 -8l-6 -80h-145l-2 -262l6 -271h-146l7 256l-4 277h-89l-6 8l6 80h89l-3 90q0 117 64.5 179.5t181.5 62.5q52 -1 107 -13l-8 -108l-13 -11q-55 25 -100 25z" />
    <glyph glyph-name="g.sups" horiz-adv-x="673" 
d="M203 609.5q0 -44.5 36.5 -70t104.5 -25.5t115 29.5t47 71.5t-41 57.5t-131 27.5l-47 7q-84 -53 -84 -97.5zM473 1112q0 57 -31.5 89t-92 32t-93.5 -32t-33 -91q0 -123 125 -123t125 125zM602 1116q0 -100 -68.5 -158.5t-189.5 -58.5q-43 0 -88 10q-33 -27 -33 -49.5
t35 -32.5t112 -19q77 -8 131 -22q132 -33 132 -145q0 -92 -85 -151.5t-208 -59.5t-189.5 46t-66.5 120q8 61 119 121v8q-102 33 -103 117q20 35 90 86v6q-98 53 -98 164.5t68.5 170t170 58.5t158.5 -31q63 10 183 54l14 -9v-96q-74 -14 -113 -18l-2 -4q31 -45 31 -107z" />
    <glyph glyph-name="h.sups" horiz-adv-x="700" 
d="M375 1204q-63 0 -131 -61l-2 -178l6 -273h-148l9 260l-7 678l146 10l-4 -419h6q96 100 182 100t135 -45t47 -133l-4 -178l4 -273h-145l10 393q0 119 -104 119z" />
    <glyph glyph-name="i.sups" horiz-adv-x="339" 
d="M252 692h-148l7 260l-5 355l146 14l-8 -356zM182 1612q72 0 72 -81t-80 -81q-74 0 -74 80q0 37 22.5 59.5t59.5 22.5z" />
    <glyph glyph-name="j.sups" horiz-adv-x="380" 
d="M96 719v233l-2 250l-78 -4l-6 12l6 103h80l133 8l4 -2l-6 -354l4 -240q0 -104 -37.5 -172t-125.5 -123l-52 68v12q43 39 61.5 86t18.5 123zM229 1532q0 -39 -21.5 -60.5t-55.5 -21.5q-76 0 -76 80q0 37 21.5 59.5t58.5 22.5q73 0 73 -80z" />
    <glyph glyph-name="k.sups" horiz-adv-x="614" 
d="M555 799l57 -82v-17q-23 -6 -133 -20l-18 6q-133 193 -209 334v8l162 225l30 66h154l-205 -287q27 -43 162 -233zM248 692h-148l9 260l-7 678l146 10l-6 -675z" />
    <glyph glyph-name="l.sups" horiz-adv-x="337" 
d="M246 692h-146l9 260l-7 678l144 10l-4 -675z" />
    <glyph glyph-name="m.sups" horiz-adv-x="1085" 
d="M760 1208q-66 0 -135 -59v-6l-7 -178l7 -273h-144l4 395q0 121 -104 121q-61 0 -139 -67v-176l2 -273h-144l9 260l-7 355l140 14v-100h6q104 100 184 100q145 0 182 -104h7q94 104 190 104q190 0 190 -178l-2 -178l2 -273h-143l6 395q0 121 -104 121z" />
    <glyph glyph-name="n.sups" horiz-adv-x="700" 
d="M375 1204q-68 0 -133 -63v-176l6 -273h-148l9 260l-7 355l140 14v-100h8q96 100 180 100q188 0 184 -178l-2 -178l4 -273h-147l10 393q0 119 -104 119z" />
    <glyph glyph-name="o.sups" horiz-adv-x="694" 
d="M203 1003q0 -222 145 -223q150 0 150 222t-147.5 222.5t-147.5 -221.5zM631 1008.5q0 -156.5 -76 -243.5t-212 -87t-208 82t-72 239.5t76 243.5t213 86t208 -82t71 -238.5z" />
    <glyph glyph-name="p.sups" horiz-adv-x="708" 
d="M506 1004q0 201 -141 200q-70 0 -125 -57v-182l2 -170q49 -18 92 -19q172 1 172 228zM645 1010q0 -154 -81 -243t-224 -89q-49 0 -98 12l2 -246h-144l4 508l-4 355l140 14v-94h6q80 94 162 94q112 0 174.5 -78.5t62.5 -232.5z" />
    <glyph glyph-name="q.sups" horiz-adv-x="690" 
d="M199 1010q0 -104 36.5 -159.5t104.5 -55.5t127 69v344q-51 16 -102 17q-166 0 -166 -215zM467 770h-8q-74 -84 -146 -84q-115 0 -182.5 83t-67.5 235t81 238.5t218 86.5q61 0 160 -29l74 27l10 -8l-4 -365l4 -510h-145l6 301v25z" />
    <glyph glyph-name="r.sups" horiz-adv-x="442" 
d="M379 1186q-74 0 -137 -105v-116l6 -273h-148l9 260l-7 355l140 14v-137h6q61 135 158 135q18 0 30 -2v-129l-18 -8q-20 6 -39 6z" />
    <glyph glyph-name="s.sups" horiz-adv-x="530" 
d="M286 1229q-92 0 -93 -78q0 -29 25.5 -47.5t92 -49t110.5 -68.5t44 -115t-60.5 -135t-162 -58t-195.5 43l16 113l15 10q80 -68 170 -68q43 0 67.5 23.5t24.5 54.5t-25.5 50.5t-94.5 50t-111.5 68.5t-42.5 117t61 133t154.5 54t169.5 -29l-21 -108l-18 -8q-78 47 -126 47z
" />
    <glyph glyph-name="t.sups" horiz-adv-x="434" 
d="M293 686q-82 0 -128 45t-44 123l2 143v228h-80l-6 8l6 80h80v141l133 31l10 -6l-2 -166h160l4 -8l-8 -80h-158l-6 -320q0 -104 78 -104q41 -1 80 22l12 -14l-12 -82q-78 -41 -121 -41z" />
    <glyph glyph-name="u.sups" horiz-adv-x="698" 
d="M623 791q25 0 41 12l10 -8l-15 -82q-45 -31 -90 -31q-88 0 -108 111h-8q-93 -105 -183 -105t-137 46t-47 132l2 131l-4 310l139 14v-401q0 -115 94 -115q76 0 140 69v433l137 14l-6 -473q0 -57 35 -57z" />
    <glyph glyph-name="v.sups" horiz-adv-x="575" 
d="M287 836h10l127 383l22 100h129l-210 -627h-160l-180 621l139 10l16 -96z" />
    <glyph glyph-name="w.sups" horiz-adv-x="923" 
d="M270 846h9l108 377l21 96h145l14 -88l92 -381h9l108 373l23 96h125l-197 -627h-139l-111 436h-12l-127 -436h-145l-166 621l135 10l16 -92z" />
    <glyph glyph-name="x.sups" horiz-adv-x="602" 
d="M309 1094l99 159l32 62h129l-182 -305l188 -312l-155 -12l-31 74l-100 164l-109 -174l-26 -58h-134l187 318l-178 301l157 12l27 -68z" />
    <glyph glyph-name="y.sups" horiz-adv-x="557" 
d="M268 846h11l127 373l22 100h127l-207 -594q-49 -131 -113.5 -190.5t-197.5 -100.5h-12q-39 41 -62 86l2 17q88 18 141.5 51t100.5 104l-225 621l141 10l20 -92z" />
    <glyph glyph-name="z.sups" horiz-adv-x="577" 
d="M461 1319l61 2l2 -92l-319 -445h221l98 7l8 -11l-10 -90l-135 2h-266l-74 -4v90l320 447h-211l-95 -6l-8 12l10 90l113 -2h285z" />
    <glyph glyph-name="zero.lf" horiz-adv-x="1087" 
d="M541 1059q-303 0 -303 -462q0 -228 78.5 -348t228 -120t226.5 118t77 346t-78 347t-229 119zM977 604q0 -295 -114.5 -456.5t-323.5 -161.5t-319.5 155.5t-110.5 450.5t115.5 456.5t324.5 161.5t318.5 -155.5t109.5 -450.5z" />
    <glyph glyph-name="one.lf" horiz-adv-x="729" 
d="M465 424l10 -424h-164l8 403l-2 625l-280 -76l-14 11v129l430 125l24 -21z" />
    <glyph glyph-name="two.lf" horiz-adv-x="1003" 
d="M809 960q0 -106 -61.5 -217.5t-200.5 -291.5l-236 -312l4 -8h435l188 12l12 -16l-20 -135l-228 8h-505l-84 -4l-11 8v105l308 385q131 168 185 257t54 159t-47 115.5t-131 45.5q-168 0 -309 -170h-19l-28 127q180 184 391 184q133 0 218 -73t85 -179z" />
    <glyph glyph-name="three.lf" horiz-adv-x="878" 
d="M715 956q0 -86 -52.5 -167.5t-154.5 -135.5v-8q250 -59 250 -270q0 -113 -58.5 -201t-164 -137t-221.5 -49t-224 18l-10 139l12 13q102 -43 223 -43t205 65.5t84 167.5t-68.5 157.5t-195.5 59.5h-121l-10 13l4 112l90 2q57 0 114.5 30t94.5 83t37 123t-49 112.5
t-129 42.5q-117 0 -254 -120h-19l-24 127q156 129 312 129t242.5 -73t86.5 -190z" />
    <glyph glyph-name="four.lf" horiz-adv-x="1007" 
d="M588 1004h-13l-370 -535h385zM913 340l-186 4h-6l6 -330l-8 -14l-125 -10l-10 12l4 342h-381l-133 -4l-13 14v107l514 739h150l-4 -731h190l13 -14z" />
    <glyph glyph-name="five.lf" horiz-adv-x="868" 
d="M758 398q0 -124 -61.5 -217t-173 -144t-226.5 -51t-221 20l-10 146l12 12q122 -49 242 -49t202 69.5t82 173.5t-62.5 158.5t-203.5 81.5l-174 33l-14 16l10 533l26 24l109 -4h278l187 8l10 -12l-18 -129l-11 -12l-151 10h-303l-8 -317l129 -29q190 -39 270 -118t80 -203z
" />
    <glyph glyph-name="six.lf" horiz-adv-x="966" 
d="M729 345q-1 249 -241 249q-122 0 -244 -107l-2 -55q0 -336 245 -336q115 0 178.5 64.5t63.5 184.5zM874 362q0 -164 -106 -271t-294 -107t-284 116.5t-96 331.5q0 260 159 464t447 321h11l127 -74v-17q-246 -86 -384.5 -204.5t-185.5 -282.5l13 -14q123 90 271 90
t235 -94.5t87 -258.5z" />
    <glyph glyph-name="seven.lf" horiz-adv-x="856" 
d="M702 1200l89 2v-119l-383 -862l-97 -244l-131 39l-10 25l463 1024h-418l-152 -10l-12 18l12 131l181 -4h458z" />
    <glyph glyph-name="eight.lf" horiz-adv-x="970" 
d="M238 312q0 -96 65 -153t175 -57t176.5 58.5t66.5 138.5t-35 124t-83 69.5t-138 62.5q-105 -37 -166 -92t-61 -151zM283 903q0 -88 54 -136t157 -89q92 39 144 91t52 140t-52 136.5t-146 48.5t-151.5 -51.5t-57.5 -139.5zM821 926q0 -188 -217 -289v-10
q121 -53 187.5 -119t66.5 -184q0 -154 -108.5 -246t-282.5 -92t-271.5 85t-97.5 222q0 209 260 309v10q-98 45 -155.5 113t-57.5 174q0 145 98.5 229t252.5 84t239.5 -76.5t85.5 -209.5z" />
    <glyph glyph-name="nine.lf" horiz-adv-x="962" 
d="M248 857q0 -249 242 -249q124 0 243 107l2 55q0 336 -246 336q-115 0 -178 -64.5t-63 -184.5zM883 772q0 -262 -159 -467t-448 -319h-10l-125 73v17q244 86 382.5 204.5t185.5 282.5l-13 15q-124 -90 -272 -90t-235 94t-87 258t106 271.5t294 107.5t284.5 -116t96.5 -331
z" />
    <glyph glyph-name="zero.sinf" horiz-adv-x="765" 
d="M197 136q0 -269 186 -269t186 269t-188 270q-184 -1 -184 -270zM682 146q0 -192 -80 -297t-224 -105t-220 100t-76 292t80 296.5t225 104.5t220 -99.5t75 -291.5z" />
    <glyph glyph-name="one.sinf" horiz-adv-x="528" 
d="M342 31l4 -277h-145l4 258v367l-164 -43l-12 6v115l299 84l18 -19z" />
    <glyph glyph-name="two.sinf" horiz-adv-x="714" 
d="M330 420q-111 0 -201 -105h-18l-23 109q133 113 274 113q95 0 157.5 -48.5t62.5 -118.5t-40 -139t-134 -186l-138 -174l4 -4h252l131 6l7 -12l-17 -113l-164 6h-340l-55 -2l-8 6v86l201 234q84 102 118.5 155.5t34.5 94.5t-27.5 66.5t-76.5 25.5z" />
    <glyph glyph-name="three.sinf" horiz-adv-x="630" 
d="M512 374q0 -141 -127 -198v-8q156 -41 156 -186q0 -106 -89.5 -171t-234.5 -65q-80 0 -139 14l-10 103l12 10q74 -18 148 -18t122.5 34.5t48.5 94.5q0 113 -143 116h-88l-8 11l2 96h61q51 0 97.5 38t46.5 86q0 95 -107 95q-70 0 -162 -64h-14l-23 97q104 80 217 80
t173.5 -48.5t60.5 -116.5z" />
    <glyph glyph-name="four.sinf" horiz-adv-x="718" 
d="M403 68v301h-10l-213 -301h223zM522 -39l8 -194l-8 -13l-114 -6l-9 8l2 205h-233l-105 -6l-10 14v90l336 471h133l-2 -462h119l10 -13l-8 -100z" />
    <glyph glyph-name="five.sinf" horiz-adv-x="622" 
d="M541 8q0 -119 -92.5 -191.5t-241.5 -72.5q-61 0 -137 14l-9 101l11 10q63 -16 145 -16t133 38.5t51 106.5q0 92 -151 125l-125 22l-8 15l6 352l16 20l74 -2h201l123 5l8 -9l-15 -106l-10 -10l-100 10h-187l-4 -176l84 -21q117 -25 172.5 -77t55.5 -138z" />
    <glyph glyph-name="six.sinf" horiz-adv-x="690" 
d="M485 -12q0 135 -131 135q-82 0 -145 -49l-2 -37q0 -203 139 -203t139 154zM616 -8q0 -106 -70.5 -177t-199.5 -71t-199.5 77t-70.5 229t103.5 282.5t291.5 208.5h8l90 -62v-14q-145 -55 -226 -120.5t-114 -158.5l11 -12q72 49 166 49t152 -62.5t58 -168.5z" />
    <glyph glyph-name="seven.sinf" horiz-adv-x="614" 
d="M496 530l59 2l2 -104l-235 -512l-70 -176l-119 31l-8 22l289 621h-244l-115 -11l-8 17l12 112l136 -2h301z" />
    <glyph glyph-name="eight.sinf" horiz-adv-x="698" 
d="M203 -41q0 -55 38.5 -88t104.5 -33t103.5 34t37.5 87t-37.5 81t-115.5 58q-131 -43 -131 -139zM233 333q0 -50 32 -78t95 -56q109 55 109 137q0 49 -30.5 77.5t-86.5 28.5t-87.5 -29.5t-31.5 -79.5zM584 352q0 -117 -133 -186v-8q76 -35 116.5 -75t40.5 -129
t-75.5 -149.5t-196.5 -60.5t-187.5 54.5t-66.5 144.5q0 133 162 192v6q-133 68 -133 187q0 98 69.5 154.5t177.5 56.5t167 -50.5t59 -136.5z" />
    <glyph glyph-name="nine.sinf" horiz-adv-x="692" 
d="M350 451q-139 -1 -139 -145t131 -144q77 0 145 49l2 37q0 203 -139 203zM621 234q0 -152 -103.5 -282t-294.5 -208h-8l-86 61v17q143 53 224 117.5t114 156.5l-12 13q-70 -47 -163 -47t-152.5 63t-59.5 169t70.5 177.5t199.5 71.5t200 -78.5t71 -230.5z" />
    <glyph glyph-name="zero.tf" horiz-adv-x="972" 
d="M484 1059q-276 0 -275 -462q0 -228 70.5 -348t206.5 -120t206 118t70 345t-71 347t-207 120zM891 604q0 -295 -107.5 -456.5t-301.5 -161.5t-297 155.5t-103 450.5t108 456.5t302 161.5t296.5 -155.5t102.5 -450.5z" />
    <glyph glyph-name="one.tf" horiz-adv-x="972" 
d="M592 424l10 -424h-164l8 403l-2 625l-346 -76l-16 11v129l496 125l26 -21z" />
    <glyph glyph-name="two.tf" horiz-adv-x="972" 
d="M788 960q0 -106 -59 -217.5t-197 -291.5l-229 -312l4 -8h420l188 6l11 -14l-21 -131l-221 8h-498l-82 -4l-10 8v105l301 385q131 172 183.5 259t52.5 157t-46 115.5t-127 45.5q-169 0 -304 -170h-19l-26 127q174 184 383 184q131 0 213.5 -73t82.5 -179z" />
    <glyph glyph-name="three.tf" horiz-adv-x="972" 
d="M770 956q0 -86 -55.5 -167.5t-161.5 -135.5v-8q262 -59 262 -270q0 -113 -60.5 -201t-169.5 -137t-229 -49t-231 18l-10 139l10 13q109 -43 235 -43t214 65.5t88 167.5t-72 157.5t-207 59.5h-125l-10 13l4 112l92 2q59 0 119.5 30t100.5 83t40 123t-51 112.5t-135 42.5
q-123 0 -268 -120h-17l-24 127q165 129 323 129t248 -73t90 -190z" />
    <glyph glyph-name="four.tf" horiz-adv-x="972" 
d="M567 469v535h-14l-354 -535h368zM700 344l7 -330l-11 -14l-125 -10l-10 12l4 342h-368l-131 -4l-13 14v107l500 739h147l-2 -731h187l12 -14l-10 -115l-185 4h-2z" />
    <glyph glyph-name="five.tf" horiz-adv-x="972" 
d="M840 395q0 -125 -65.5 -217t-185.5 -142t-244 -50t-232 20l-13 117l13 14q111 -25 200 -24q170 0 271.5 72.5t101.5 193.5q0 84 -71.5 137t-225.5 84l-186 37l-15 16l11 527l24 24l119 -4h315l179 8l12 -12l-17 -125l-14 -10l-135 10h-356l-11 -321l144 -29
q195 -41 288 -121t93 -205z" />
    <glyph glyph-name="six.tf" horiz-adv-x="972" 
d="M244 432q0 -336 238 -336q120 0 183.5 64.5t63.5 184.5q1 249 -239 249q-122 0 -244 -105zM874 362q0 -164 -106 -271t-294 -107t-283 116.5t-95 331.5q0 260 159 465t447 320h11l125 -74v-17q-246 -86 -383.5 -204.5t-184.5 -282.5l13 -14q121 90 269 90t235 -94.5
t87 -258.5z" />
    <glyph glyph-name="seven.tf" horiz-adv-x="972" 
d="M784 1200l93 2l2 -119l-426 -862l-101 -244l-133 39l-8 25l510 1024h-469l-160 -10l-12 18l12 131l191 -4h501z" />
    <glyph glyph-name="eight.tf" horiz-adv-x="972" 
d="M238 312q0 -96 65 -153t177 -57t177.5 58.5t65.5 138.5t-34 124t-83 69.5t-139 62.5q-107 -37 -168 -92t-61 -151zM281 902q0 -87 54 -135t157 -89q94 39 147 91t53 140t-52 136.5t-148 48.5t-153.5 -52.5t-57.5 -139.5zM823 926q0 -190 -219 -289v-10
q123 -55 190.5 -120t67.5 -183q0 -154 -109.5 -246t-284.5 -92t-273.5 85t-98.5 222q0 207 260 309v10q-98 45 -154.5 112t-56.5 175q0 145 99.5 229t253.5 84t239.5 -76.5t85.5 -209.5z" />
    <glyph glyph-name="nine.tf" horiz-adv-x="972" 
d="M250 793.5q0 -185.5 240 -185.5q122 0 245 107l2 55q0 336 -245 336q-113 0 -177.5 -63.5t-64.5 -249zM883 772q0 -262 -158 -467t-446 -319h-11l-127 73v17q246 86 384.5 204.5t185.5 282.5l-13 15q-124 -90 -272 -90t-235 94t-87 259t106 271.5t294 106.5t283.5 -117
t95.5 -330z" />
    <glyph glyph-name="zero.tosf" horiz-adv-x="972" 
d="M485 883q-286 0 -286 -377t290 -377q139 0 212 93.5t73 279.5t-73.5 283.5t-215.5 97.5zM901 513q0 -251 -109.5 -389t-309.5 -138t-305 133t-105 384t110 390t310 139t304.5 -134t104.5 -385z" />
    <glyph glyph-name="one.tosf" horiz-adv-x="972" 
d="M592 424l4 -424h-158l6 403v439l-338 -74l-16 8v129l485 123l23 -16z" />
    <glyph glyph-name="two.tosf" horiz-adv-x="972" 
d="M418.5 889q-111.5 0 -244.5 -139h-18l-27 124q168 154 360 154q125 0 204 -62.5t79 -155.5t-57.5 -193.5t-184.5 -245.5l-208 -236l4 -8h381l176 12l12 -10l-23 -137l-210 8h-465l-76 -4l-8 8v102l286 310q113 123 164 203.5t51 138.5t-42 94.5t-153.5 36.5z" />
    <glyph glyph-name="three.tosf" horiz-adv-x="972" 
d="M791 768q0 -88 -59.5 -170t-168.5 -131v-8q279 -68 279 -297q0 -104 -64.5 -186t-180 -128.5t-239.5 -46.5t-245 19l-11 121l13 10q119 -23 219 -23q162 0 257 65t95 167t-78 157.5t-225 59.5h-129l-10 12l6 113l98 2q61 0 126 30.5t108 84t43 121.5t-55.5 111.5
t-147.5 43.5q-133 0 -283 -109h-16l-27 117q170 127 338 127t262.5 -72.5t94.5 -189.5z" />
    <glyph glyph-name="four.tosf" horiz-adv-x="972" 
d="M578 285l-3 538h-12l-366 -538h381zM709 158l6 -334l-8 -12l-125 -11l-11 13l4 344h-378l-134 -4l-12 16v104l512 746h150l-4 -735h190l12 -17l-10 -114l-188 4h-4z" />
    <glyph glyph-name="five.tosf" horiz-adv-x="972" 
d="M842 212q0 -126 -66.5 -218t-188.5 -143.5t-247 -51.5t-234 21l-12 117l12 12q104 -20 203 -21q172 0 275.5 73t103.5 196q0 84 -72.5 137t-226.5 86l-188 35l-15 14l13 532l24 23l119 -4h320l182 8l8 -12l-16 -123l-15 -12l-135 10h-362l-11 -324l146 -28
q197 -41 290 -121t93 -206z" />
    <glyph glyph-name="six.tosf" horiz-adv-x="972" 
d="M737 352q1 242 -241 242q-122 0 -248 -92q-2 -23 -2 -70q0 -336 239 -336q121 0 186.5 67.5t65.5 188.5zM883 360q0 -166 -103.5 -271t-291.5 -105t-289 117.5t-101 330.5q0 260 159 465t452 320h12l92 -74v-17q-229 -86 -362.5 -204.5t-178.5 -282.5l13 -14
q121 90 271 90t238.5 -94.5t88.5 -260.5z" />
    <glyph glyph-name="seven.tosf" horiz-adv-x="972" 
d="M793 1020l94 4v-121l-438 -868l-101 -244l-133 37l-8 27l524 1030h-483l-164 -11l-12 19l12 133l192 -6h517z" />
    <glyph glyph-name="eight.tosf" horiz-adv-x="972" 
d="M238 312q0 -96 65 -153t177 -57t177.5 58.5t65.5 138.5t-34 124t-83 69.5t-139 62.5q-107 -37 -168 -92t-61 -151zM281 902q0 -87 54 -135t157 -89q94 39 147 91t53 140t-52 136.5t-148 48.5t-153.5 -52.5t-57.5 -139.5zM823 926q0 -190 -219 -289v-10
q123 -55 190.5 -120t67.5 -183q0 -154 -109.5 -246t-284.5 -92t-273.5 85t-98.5 222q0 207 260 309v10q-98 45 -154.5 112t-56.5 175q0 145 99.5 229t253.5 84t239.5 -76.5t85.5 -209.5z" />
    <glyph glyph-name="nine.tosf" horiz-adv-x="972" 
d="M236 670q0 -244 238 -244q120 0 251 94q2 23 2 68q0 338 -240 338q-121 0 -186 -67.5t-65 -188.5zM874 590q0 -262 -158.5 -466t-451.5 -319h-10l-94 72v21q231 86 363 203.5t177 281.5l-12 12q-122 -88 -272 -88t-238 94.5t-88 258.5t104 270t292 106t288 -116.5
t100 -329.5z" />
    <glyph glyph-name="zero.dnom" horiz-adv-x="765" 
d="M383 113q186 0 186 269t-186 269t-186 -269t186 -269zM682 391q0 -193 -80 -297t-224 -104t-220 100t-76 292t80 296t225 104t220 -99t75 -292z" />
    <glyph glyph-name="one.dnom" horiz-adv-x="528" 
d="M342 276l4 -276h-145l4 258v367l-164 -43l-12 6v114l299 84l18 -18z" />
    <glyph glyph-name="two.dnom" horiz-adv-x="714" 
d="M330 666q-109 0 -201 -105h-18l-23 109q133 113 274 112q95 0 157.5 -48t62.5 -118t-40 -139t-134 -186l-138 -174l4 -4h252l131 6l7 -13l-17 -112l-164 6h-340l-55 -2l-8 6v86l201 234q84 102 118.5 155t34.5 94t-27.5 67t-76.5 26z" />
    <glyph glyph-name="three.dnom" horiz-adv-x="630" 
d="M512 620q0 -141 -127 -198v-8q156 -41 156 -187q0 -106 -89.5 -170.5t-234.5 -64.5q-80 0 -139 14l-10 103l12 10q187 -45 253 3t66 107q0 113 -143 117h-88l-8 10l2 97h61q51 0 97.5 37.5t46.5 85.5q0 96 -107 96q-70 0 -162 -64h-14l-23 97q104 79 217 79t173.5 -48
t60.5 -116z" />
    <glyph glyph-name="four.dnom" horiz-adv-x="718" 
d="M403 313v301h-10l-213 -301h223zM522 207l8 -195l-8 -12l-114 -6l-9 8l2 205h-233l-105 -6l-10 14v90l336 471h133l-2 -463h119l10 -12l-8 -100z" />
    <glyph glyph-name="five.dnom" horiz-adv-x="622" 
d="M541 254q0 -119 -92.5 -191.5t-241.5 -72.5q-61 0 -137 14l-9 100l11 11q63 -17 145 -17t133 39t51 107q0 92 -151 125l-125 22l-8 15l6 352l16 20l74 -2h201l123 4l8 -8l-15 -106l-10 -11l-100 11h-187l-4 -177l84 -20q117 -25 172.5 -77t55.5 -138z" />
    <glyph glyph-name="six.dnom" horiz-adv-x="690" 
d="M485 233q0 135 -131 136q-82 0 -145 -50l-2 -36q0 -203 139 -203.5t139 153.5zM616 238q0 -106 -70.5 -177t-199.5 -71t-199.5 76.5t-70.5 228.5t103.5 283t291.5 208h8l90 -61v-14q-145 -55 -226 -121t-114 -158l11 -12q72 49 166 49t152 -62.5t58 -168.5z" />
    <glyph glyph-name="seven.dnom" horiz-adv-x="614" 
d="M496 776l59 2l2 -104l-235 -512l-70 -176l-119 30l-8 23l289 620h-244l-115 -10l-8 17l12 112l136 -2h301z" />
    <glyph glyph-name="eight.dnom" horiz-adv-x="698" 
d="M203 205q0 -55 38.5 -88t104.5 -33t103.5 34t37.5 87t-37.5 80.5t-115.5 58.5q-131 -43 -131 -139zM233 579q0 -50 32 -78t95 -57q109 55 109 138q0 49 -30.5 77.5t-86.5 28.5t-87.5 -29.5t-31.5 -79.5zM584 598q0 -117 -133 -186v-9q76 -35 116.5 -74.5t40.5 -128.5
t-75.5 -149.5t-196.5 -60.5t-187.5 54t-66.5 144q0 133 162 193v6q-133 68 -133 176t69.5 164.5t177.5 56.5t167 -50t59 -136z" />
    <glyph glyph-name="nine.dnom" horiz-adv-x="692" 
d="M211 552q0 -144 131 -144q77 0 145 49l2 37q0 203 -137 202q-141 0 -141 -144zM621 480q0 -152 -103.5 -282t-294.5 -208h-8l-86 61v17q143 53 224 118.5t114 155.5l-12 12q-70 -47 -163 -47t-152.5 63.5t-59.5 169.5t70.5 177t199.5 71t200 -78t71 -230z" />
    <glyph glyph-name="zero.numr" horiz-adv-x="765" 
d="M569 920q0 270 -186 270t-186 -269t186 -270t186 269zM682 930q0 -193 -80 -297q-80 -105 -224 -105t-220 100t-76 292t80 296t225 105q145 0 220 -99t75 -292z" />
    <glyph glyph-name="one.numr" horiz-adv-x="528" 
d="M342 815l4 -276h-145l4 258v366l-164 -43l-12 6v115l299 84l18 -18z" />
    <glyph glyph-name="two.numr" horiz-adv-x="714" 
d="M362 1321q95 0 157 -48q63 -47 63 -117t-40 -140t-134 -187l-138 -174l4 -4h252l131 6l7 -12l-17 -113l-164 7h-340l-55 -2l-8 6v86l201 233q85 102 119 156t34 94q0 41 -27 67q-28 26 -77 25q-110 0 -201 -104h-18l-23 108q133 113 274 113z" />
    <glyph glyph-name="three.numr" horiz-adv-x="630" 
d="M367 1115q1 95 -117 95q-60 0 -152 -63h-14l-23 96q103 80 217 80t174 -48q60 -47 60 -115q0 -142 -127 -199v-9q156 -41 156 -186q0 -106 -89 -171t-235 -65q-80 0 -139 15l-10 102l12 10q74 -18 148 -18t123 35q48 35 48 94q0 113 -143 117h-88l-8 10l2 96h61
q51 0 98 38q46 38 46 86z" />
    <glyph glyph-name="four.numr" horiz-adv-x="718" 
d="M403 852v301h-10l-213 -301h223zM522 745l8 -194l-8 -12l-114 -7l-9 9l2 204h-233l-105 -6l-10 15v90l336 471h133l-2 -463h119l10 -12l-8 -101z" />
    <glyph glyph-name="five.numr" horiz-adv-x="622" 
d="M207 528q-61 0 -137 15l-9 100l11 10q63 -16 145 -16t133 39t51 106q0 92 -151 125l-125 23l-8 14l6 352l16 21l74 -2h201l123 4l8 -8l-15 -107l-10 -10l-100 10h-187l-4 -176l84 -20q117 -25 172 -77t56 -138q0 -119 -92 -192t-242 -73z" />
    <glyph glyph-name="six.numr" horiz-adv-x="690" 
d="M485 772q0 135 -131 135q-82 0 -145 -49l-2 -37q0 -203 139 -203t139 154zM616 776q0 -108 -70 -178t-200 -70q-129 0 -200 77q-70 77 -70 229t103 282q103 131 292 209h8l90 -61v-15q-145 -55 -226 -121t-114 -157l11 -13q72 49 166 49t152 -62t58 -169z" />
    <glyph glyph-name="seven.numr" horiz-adv-x="614" 
d="M496 1315l59 2l2 -105l-235 -512l-70 -176l-119 31l-8 23l289 620h-244l-115 -10l-8 16l12 113l136 -2h301z" />
    <glyph glyph-name="eight.numr" horiz-adv-x="698" 
d="M203 743q0 -55 38 -88q39 -33 105 -33t104 34t38 87t-38 81t-116 59q-131 -44 -131 -140zM233 1117q0 -50 32 -78t95 -56q109 55 109 137q0 49 -31 78t-86 29t-87 -30t-32 -80zM608 754q0 -104 -76 -164t-196 -62q-120 0 -188 54q-67 54 -66 145q0 133 162 193v6
q-133 68 -133 176t69 165q70 56 178 56t167 -50q58 -50 59 -136q0 -117 -133 -187v-8q77 -35 117 -75t40 -113z" />
    <glyph glyph-name="nine.numr" horiz-adv-x="692" 
d="M350 1235q-139 -1 -139 -145t131 -144q77 0 145 49l2 37q0 203 -139 203zM621 1018q1 -152 -103 -282t-295 -208h-8l-86 62v16q143 53 224 119t114 156l-12 12q-70 -47 -163 -47t-153 63q-59 63 -59 169t71 178t199 71q128 0 200 -78q71 -79 71 -231z" />
    <glyph glyph-name="acute.cap" 
d="M625 1294l-4 -16q-182 -84 -400 -176l-20 8l-29 74q211 104 393 211l19 -4z" />
    <glyph glyph-name="breve.cap" 
d="M396 1110q-196 0 -255 184l45 58h25q45 -125 186 -125t191 125h24l47 -58q-32 -88 -99.5 -136t-163.5 -48z" />
    <glyph glyph-name="caron.cap" 
d="M424 1108h-47q-92 82 -240 186l33 70h18q115 -70 211 -135q80 55 209 135h21l33 -70q-138 -94 -238 -186z" />
    <glyph glyph-name="circumflex.cap" 
d="M373 1384h47q92 -82 239 -186l-32 -70h-19q-115 70 -211 136q-80 -55 -209 -136h-20l-33 70q138 94 238 186z" />
    <glyph glyph-name="grave.cap" 
d="M174 1296l41 97l18 4q182 -106 394 -211l-29 -74l-20 -8q-217 92 -400 176z" />
    <glyph glyph-name="hungarumlaut.cap" 
d="M610 1395h15l75 -52v-18l-241 -225l-19 -2l-53 49q147 160 223 248zM131 1186q145 160 186 209h17l74 -52v-18q-74 -74 -242 -225l-19 -2l-53 49z" />
    <glyph glyph-name="caron.alt" 
d="M424 1044l-78 -12l-12 12l8 359l117 8l12 -14z" />
    <glyph glyph-name="dieresis.i" 
d="M355 1195q0 -42 -25 -67t-68 -26q-86 0 -86 90q0 40 25 66t65 26t65 -23q24 -24 24 -66zM607 1195q0 -42 -25 -67t-68 -26q-86 0 -86 90q0 40 25 66t65 26t65 -23q24 -24 24 -66z" />
    <glyph glyph-name="macron.i" 
d="M623 1192h-445l-10 12l8 94h445l10 -10z" />
    <glyph glyph-name="tilde.i" 
d="M281 1221q-17 0 -31 -13.5t-43 -48.5l-29 -33h-16l-49 54v14l112 139l19 8q33 -6 142 -40q109 -33 130 -33t70 55l32 37h15l51 -51v-17l-115 -141l-16 -6q-47 8 -151 42t-121 34z" />
    <glyph glyph-name="Gdieresis" horiz-adv-x="1228" 
d="M664 -14q-586 0 -586 657q0 326 166 503t473 177q205 0 387 -92l-35 -156l-20 -4q-185 115 -357 115q-444 0 -444 -549q0 -264 103.5 -388t320.5 -124q102 0 266 49l6 154l-4 186l154 12l-4 -176l8 -287q-250 -78 -434 -77zM832 1706q88 0 88 -87q0 -42 -25 -68.5
t-67 -26.5t-64.5 24.5t-22.5 65.5t24.5 66.5t66.5 25.5zM512 1706q86 0 86 -87q0 -42 -24.5 -68.5t-66.5 -26.5t-64.5 24.5t-22.5 65.5t24.5 66.5t67.5 25.5z" />
    <glyph glyph-name="breveacute" 
d="M396 1069q-196 0 -255 184l45 58h25q45 -125 186 -125t191 125h24l47 -58q-32 -88 -99.5 -136t-163.5 -48zM590 1501q-98 -100 -201 -201h-16l-56 46q117 141 181 223l14 2l76 -53z" />
    <glyph glyph-name="brevegrave" 
d="M396 1069q-196 0 -255 184l45 58h25q45 -125 186 -125t191 125h24l47 -58q-32 -88 -99.5 -136t-163.5 -48zM477 1346l-57 -46h-17l-198 201v17l76 53l16 -2q94 -123 180 -223z" />
    <glyph glyph-name="brevehookabove" 
d="M396 1069q-196 0 -255 184l45 58h25q45 -125 186 -125t191 125h24l47 -58q-32 -88 -100 -136t-163 -48zM430 1536q0 43 -57 43t-115 -49l-33 53q82 86 176 86q56 0 93 -34t36 -83q0 -66 -106 -153l41 -70l-72 -39l-65 113q102 74 102 133z" />
    <glyph glyph-name="brevetilde" 
d="M400 1070q-193 0 -250 180l44 56h24q44 -122 182 -122t187 122h24l46 -56q-32 -86 -98 -133t-159 -47zM278 1462q-20 0 -36 -13t-48 -46l-31 -34h-17l-46 52v13l117 137l19 6q46 -4 160 -39q119 -32 141 -32t74 58l33 33h15l46 -49v-16l-117 -137l-19 -6q-42 5 -157 39
q-114 34 -134 34z" />
    <glyph glyph-name="circle1" horiz-adv-x="923" 
d="M950 463q0 -131 -65.5 -244t-178 -178.5t-243.5 -65.5t-244 65.5t-178.5 178.5t-65.5 244t65.5 243.5t178.5 178t244 65.5t243.5 -65.5t178 -178t65.5 -243.5z" />
    <glyph glyph-name="circle2" horiz-adv-x="1302" 
d="M1331 649.5q0 -184.5 -91 -340t-247.5 -247t-341 -91.5t-340 91.5t-247 247t-91.5 340t91.5 341t247 247.5t340 91t341 -91t247.5 -247.5t91 -341z" />
    <glyph glyph-name="circumflexacute" 
d="M373 1343h47q92 -82 239 -186l-32 -70h-19q-115 70 -211 136q-80 -55 -209 -136h-20l-33 70q138 94 238 186zM750 1509l-168 -204h-17l-57 47l143 211l17 4l80 -41z" />
    <glyph glyph-name="circumflexgrave" 
d="M373 1343h47q92 -82 239 -186l-32 -70h-19q-115 70 -211 136q-80 -55 -209 -136h-20l-33 70q138 94 238 186zM682 1352l-59 -47h-15l-168 204l2 17l82 41l15 -4z" />
    <glyph glyph-name="circumflexhookabove" 
d="M373 1343h47q92 -82 239 -186l-32 -70h-19q-115 70 -211 136q-80 -55 -209 -136h-20l-33 70q138 94 238 186zM704 1512q0 -54 -101 -140l39 -66l-69 -37l-62 107q97 70 97 127q0 41 -54 41t-109 -47l-31 51q78 82 167 82q53 0 88 -32t35 -86z" />
    <glyph glyph-name="circumflextilde" 
d="M373 1343h47q92 -82 239 -186l-32 -70h-19q-115 70 -211 136q-80 -55 -209 -136h-20l-33 70q138 94 238 186zM278 1462q-20 0 -36 -13t-48 -46l-31 -34h-17l-46 52v13l117 137l19 6q46 -4 160 -39q119 -32 141 -32t74 58l33 33h15l46 -49v-16l-117 -137l-19 -6
q-42 5 -157 39q-114 34 -134 34z" />
    <glyph glyph-name="dieresiscaron" 
d="M643 1203q0 -40 -23.5 -63.5t-62.5 -23.5t-61.5 22.5t-22.5 62.5t23.5 63.5t63.5 23.5t61.5 -22.5t21.5 -62.5zM322 1203q0 -40 -24 -63.5t-65 -23.5q-82 0 -81 84q0 41 24 64.5t62 23.5t61 -22.5t23 -62.5zM424 1335h-47q-117 98 -240 185l33 69h18q47 -29 87 -54.5
t73 -45.5l51 -35l209 135h21l33 -69q-117 -81 -238 -185z" />
    <glyph glyph-name="dieresismacron" 
d="M643 1203q0 -40 -23.5 -63.5t-62.5 -23.5t-61.5 22.5t-22.5 62.5t23.5 63.5t63.5 23.5t61.5 -22.5t21.5 -62.5zM322 1203q0 -40 -24 -63.5t-65 -23.5q-82 0 -81 84q0 41 24 64.5t62 23.5t61 -22.5t23 -62.5zM666 1423h-529l-14 13l10 96h531l12 -12z" />
    <glyph glyph-name="down" horiz-adv-x="841" 
d="M131 733h582l-291 -581z" />
    <glyph glyph-name="firstofchinese" 
d="M690 1192h-579l-13 12l11 94h579l12 -10z" />
    <glyph glyph-name="foundryicon" horiz-adv-x="1603" 
d="M891 618h53q20 0 21 -20v-270q0 -66 45 -108t114 -42l129 76v51q-25 -8 -61 -8q-76 0 -76 117v184q0 20 21 20h118v74h-118q-20 0 -21 21v57h-43l-182 -115v-37zM391 190h152v369q0 25 49 25q88 0 88 -115v-279h151v365q0 66 -45 108t-114 42l-99 -58q-12 -8 -21 -8
t-9 18v238h-152v-705zM1399 909v-866q0 -164 -164 -164h-866q-164 0 -164 164v866q0 164 164 164h866q164 0 164 -164z" />
    <glyph glyph-name="gdieresis" horiz-adv-x="1077" 
d="M252 501q0 -204 81 -294t253 -90q98 0 215 43v102l-2 146l141 10l-2 -133v-236q-205 -61 -356 -61q-242 0 -366 130t-124 382t140.5 391t392.5 139q161 1 321 -69l-51 -148h-16q-136 88 -295 88q-158 0 -245 -98t-87 -302zM737 1415q86 0 86 -87q0 -42 -24.5 -68.5
t-66.5 -26.5t-64.5 24.5t-22.5 65.5t24.5 66.5t67.5 25.5zM416 1415q86 0 86 -87q0 -42 -24.5 -68.5t-66.5 -26.5t-64.5 24.5t-22.5 65.5t24.5 66.5t67.5 25.5z" />
    <glyph glyph-name="hookabove" 
d="M522 1335q0 -58 -106 -145l41 -70l-72 -39l-66 113q102 74 103 133q0 43 -57 43t-115 -49l-33 53q82 86 176 86q56 0 92.5 -33.5t36.5 -91.5z" />
    <glyph glyph-name="left" horiz-adv-x="841" 
d="M70 463l579 291v-582z" />
    <glyph glyph-name="puso" horiz-adv-x="245" 
d="M154 551l-84 -14l-13 18l9 514l124 12l13 -18z" />
    <glyph glyph-name="right" horiz-adv-x="841" 
d="M195 172v582l579 -291z" />
    <glyph glyph-name="ringacute" 
d="M303 1219q0 -45 26 -69q25 -24 67 -24t68 23t25 65q0 92 -93 92t-93 -87zM569 1218q0 -76 -50 -123q-50 -46 -125 -46t-122 44t-47 123q0 78 47 124t127 46t125 -46t45 -122zM677 1541l-7 -16q-193 -53 -423 -109l-18 11l-17 78q225 69 422 144l18 -7z" />
    <glyph glyph-name="square1" horiz-adv-x="923" 
d="M0 0v926h926v-926h-926z" />
    <glyph glyph-name="square2" horiz-adv-x="1302" 
d="M0 0v1305h1305v-1305h-1305z" />
    <glyph glyph-name="up" horiz-adv-x="841" 
d="M131 213l291 582l291 -582h-582z" />
    <glyph glyph-name="gdieresis.sc" horiz-adv-x="1077" 
d="M252 501q0 -204 81 -294t253 -90q98 0 215 43v102l-2 146l141 10l-2 -133v-236q-205 -61 -356 -61q-242 0 -366 130t-124 382t140.5 391t392.5 139q161 1 321 -69l-51 -148h-16q-136 88 -295 88q-158 0 -245 -98t-87 -302zM737 1415q86 0 86 -87q0 -42 -24.5 -68.5
t-66.5 -26.5t-64.5 24.5t-22.5 65.5t24.5 66.5t67.5 25.5zM416 1415q86 0 86 -87q0 -42 -24.5 -68.5t-66.5 -26.5t-64.5 24.5t-22.5 65.5t24.5 66.5t67.5 25.5z" />
    <glyph glyph-name="gtilde.sc" horiz-adv-x="1077" 
d="M254 500q0 -205 80 -294t254 -89q96 0 213 43v102l-2 146l141 10v-369q-207 -61 -358 -61q-242 0 -366 130t-124 382t140 390q140 140 395 140q159 1 321 -69l-51 -148h-18q-136 88 -294 88q-157 0 -244 -98t-87 -303zM437 1309q-21 1 -37 -13t-52 -49l-33 -35h-18
l-49 54v14l125 141l20 6q49 -4 170 -41q127 -32 151 -32t79 59l34 35h17l49 -51v-17l-125 -141l-20 -6q-46 4 -168 40t-143 36z" />
    <glyph glyph-name="puso.cap" horiz-adv-x="245" 
d="M154 711l-84 -17l-13 21l9 534l124 13l13 -19z" />
    </font>
</defs>
</svg>
