<?xml version="1.0" standalone="no"?>
<!DOCTYPE svg PUBLIC "-//W3C//DTD SVG 1.1//EN" "http://www.w3.org/Graphics/SVG/1.1/DTD/svg11.dtd" >
<svg xmlns="http://www.w3.org/2000/svg">
<metadata>
Created by FontPrep 20130207 at Tue May 10 19:19:52 2016
 By Guillaume Coquoz
Copyright (c) 2011, Juan Pablo del Peral (juan@huertatipografica.com.ar), with Reserved Font Names "Alegreya" "Alegreya SC"
</metadata>
<defs>
<font id="fdbcad4592155f21e3dab75a1c418871" horiz-adv-x='1024' >
  <font-face 
    font-family="AlegreyaSC-BlackItalic"
    font-weight="900"
    font-style="italic"
    font-stretch="normal"
    units-per-em="2048"
    panose-1="2 0 5 3 5 0 0 2 0 4"
    ascent="1638"
    descent="-410"
    x-height="1038"
    cap-height="1335"
    bbox="-467 -707 2179.01 2081"
    underline-thickness="114"
    underline-position="-121"
    unicode-range="U+0020-FB02"
  />
<missing-glyph horiz-adv-x="280" 
 />
    <glyph glyph-name=".notdef" horiz-adv-x="280" 
 />
    <glyph glyph-name=".null" horiz-adv-x="0" 
 />
    <glyph glyph-name="nonmarkingreturn" horiz-adv-x="681" 
 />
    <glyph glyph-name="space" unicode=" " horiz-adv-x="280" 
 />
    <glyph glyph-name="exclam" unicode="!" horiz-adv-x="563" 
d="M160 543l30 823l43 49l392 53l45 -53l-256 -880l-217 -33zM33 145q0 111 64 178q65 67 158 67t137 -45q44 -44 44 -137t-64 -160q-65 -67 -159 -66q-180 0 -180 163z" />
    <glyph glyph-name="quotedbl" unicode="&#x22;" horiz-adv-x="692" 
d="M768 1350l14 -25q-59 -223 -139 -453l-156 -51l-36 13q29 217 41 487zM426 1350l14 -25q-59 -223 -139 -453l-158 -51l-37 13q31 199 44 487z" />
    <glyph glyph-name="numbersign" unicode="#" horiz-adv-x="1112" 
d="M500 664l-35 -129h162l43 161h-164zM119 694l-15 27l54 215l178 -2l61 240l226 18l26 -14l-74 -244h158l62 240l223 18l26 -14l-71 -238l168 6l10 -31l-43 -217l-205 -2l-43 -155l170 6l10 -31l-43 -217l-200 -2l-54 -205l-221 -29l-24 19l61 215h-160l-51 -205l-221 -29
l-25 19l60 213h-154l-14 27l53 215l184 -2l41 159h-153z" />
    <glyph glyph-name="dollar" unicode="$" horiz-adv-x="909" 
d="M674 721q0 88 -99 88q-41 0 -67 -17t-25 -47q0 -45 115 -94q158 -63 209 -100q104 -80 104 -217t-116 -231q-117 -93 -328 -115l-74 -297l-239 -27l-15 12l76 316q-121 16 -213 59l-18 31q53 164 71 260l234 16q-2 -10 -2 -39q1 -29 29 -67t87 -37q94 0 95 51
q0 54 -118 96q-42 17 -44 17q-195 78 -245 184q-22 47 -21 107q0 145 107 242q108 97 296 126l70 281l243 29l11 -19l-70 -282q123 -12 242 -41l18 -39q-49 -135 -80 -279l-217 -14l-20 14q4 31 4 33z" />
    <glyph glyph-name="percent" unicode="%" horiz-adv-x="1515" 
d="M1276 1325l20 -49q-367 -567 -553 -852l-387 -610l-190 71l-12 35q227 328 397 598l547 873zM1126 -25q-124 0 -192 75t-68 220q0 219 106 340t279 121q123 0 190 -74t66 -219q1 -219 -105 -341t-276 -122zM1182 258q84 0 118 24t35 74q0 84 -147 84q-84 0 -119 -22
t-35 -76q1 -84 148 -84zM309 594q-123 0 -191 75t-69 220q1 219 107 340t278 121q123 0 190 -74t66 -219q0 -219 -106 -341t-275 -122zM365 877q85 -1 119 23t34 75q0 84 -147 84q-84 0 -119 -23t-35 -75q1 -84 148 -84z" />
    <glyph glyph-name="ampersand" unicode="&#x26;" horiz-adv-x="1374" 
d="M293 564q0 -58 10 -103q109 67 139 99t29 75q0 70 -56 70t-89 -42q-33 -41 -33 -99zM553 -25q-231 -1 -369 133t-139 349q0 215 142 373t323 159q70 0 119 -39t49 -88v-22l14 -9q80 117 122 215t73 240l31 33h108q109 -182 109 -240q0 -29 -33 -78q-348 -469 -725 -675
q92 -96 252 -97q238 0 299 197l-25 2q-39 0 -90 -39h-12l-72 121l2 8l150 135l34 11l347 -25q55 0 133 43h12l68 -119v-10l-146 -135l-39 -12l-119 6q-82 -190 -256 -314t-362 -123z" />
    <glyph glyph-name="quotesingle" unicode="'" horiz-adv-x="350" 
d="M426 1350l14 -25q-59 -223 -139 -453l-158 -51l-37 13q31 199 44 487z" />
    <glyph glyph-name="parenleft" unicode="(" horiz-adv-x="614" 
d="M76 228q0 24 53 460q16 141 66 259q49 118 106 186q119 139 203 178l37 18h37l90 -131l-4 -18q-23 -14 -58 -56q-116 -138 -151 -405q-53 -440 -54 -531t26 -186q26 -94 65 -139l14 -17l-2 -22l-144 -123h-24q-60 32 -106 81q-46 50 -65 85t-46 93t-41 222q-2 22 -2 46z
" />
    <glyph glyph-name="parenright" unicode=")" horiz-adv-x="622" 
d="M168 311q53 440 53 532q1 92 -25 185q-26 94 -65 139l-14 17l2 22l141 123h27q45 -23 99 -77q111 -111 138 -264t13 -292l-45 -354q-16 -141 -66 -259t-107 -185q-119 -139 -202 -181l-37 -16h-35l-92 131l4 18q23 14 57 56q122 146 154 405z" />
    <glyph glyph-name="asterisk" unicode="*" horiz-adv-x="712" 
d="M582 1520q-23 -100 -72 -250l-102 -10l-17 10l-16 237q106 33 192 33zM829 1155q-74 -12 -258 -12l-45 94l9 23l221 83q68 -90 90 -172zM559 805q-43 90 -90 242l76 71h22l150 -184q-63 -92 -135 -139zM143 952q74 70 201 160l92 -49l6 -19l-127 -200q-106 33 -174 84z
M156 1395q90 -49 215 -144l-19 -100l-18 -14l-230 61q0 111 29 191z" />
    <glyph glyph-name="plus" unicode="+" horiz-adv-x="1005" 
d="M688 1010l29 -15q-31 -180 -53 -333l319 12l10 -31l-61 -278l-305 -3l-33 -288l-272 -37l-23 18q18 152 39 307l-305 -2l-15 27l70 277q141 -2 287 -2l41 321z" />
    <glyph glyph-name="comma" unicode="," horiz-adv-x="473" 
d="M210 387q85 0 133 -56q48 -55 48 -157t-92 -218t-250 -206l-119 94v52q133 97 131 234q0 73 -59 138l6 29q117 90 202 90z" />
    <glyph glyph-name="hyphen" unicode="-" horiz-adv-x="643" 
d="M578 672l18 -37l-53 -221l-467 -54l-21 37l47 217z" />
    <glyph glyph-name="period" unicode="." horiz-adv-x="473" 
d="M166 -18q-168 0 -168 163q0 111 64 178q65 67 159 66q178 0 178 -166q-1 -109 -65 -175t-168 -66z" />
    <glyph glyph-name="slash" unicode="/" horiz-adv-x="653" 
d="M764 1382l31 -41q-223 -569 -351 -901l-245 -665h-258l-19 30q141 346 256 658l342 919h244z" />
    <glyph glyph-name="zero" unicode="0" horiz-adv-x="921" 
d="M455 367q119 -1 172 37t53 118q0 133 -217 133t-217 -155q0 -133 209 -133zM377 -25q-176 0 -268 109t-93 311q0 299 146 479t393 181q174 0 265 -108t91 -310q0 -303 -144 -483t-390 -179z" />
    <glyph glyph-name="one" unicode="1" horiz-adv-x="751" 
d="M541 276q0 -96 63 -96l88 4l6 -12l-51 -184q-203 12 -307 12q-107 0 -381 -20l37 165q94 10 139 43t53 97q53 434 54 463q0 29 -12 47t-70 18l-92 -6l-17 20l35 154q272 25 627 74l22 -88q-61 -45 -98 -148q-96 -277 -96 -543z" />
    <glyph glyph-name="two" unicode="2" horiz-adv-x="980" 
d="M331 752q-91 0 -204 -129h-37l-24 213q242 219 475 219q147 0 235 -71t88 -185q0 -76 -18 -123q-41 -102 -354 -395l8 -19h55q74 0 113 42t61 145l240 18q-78 -272 -109 -455l-39 -37q-512 25 -719 25l-151 -12l2 102l158 158q179 186 245 274t66 159t-91 71z" />
    <glyph glyph-name="three" unicode="3" horiz-adv-x="894" 
d="M549 1055q117 -1 201 -61t84 -160t-70 -180t-186 -115l-3 -23q250 -80 250 -262q0 -111 -104 -215t-269 -169t-333 -65q-102 -1 -134 55t-32 175v45l51 47q66 -37 174 -37t172 35q63 35 64 92q0 102 -207 102l-23 31l2 185l133 26q131 53 132 158q-1 31 -21 49t-55 18
q-84 0 -217 -98l-31 -2l-41 211q98 68 222 113t241 45z" />
    <glyph glyph-name="four" unicode="4" horiz-adv-x="978" 
d="M455 614l-195 -260h184l33 260h-22zM573 1051l19 4l287 -25l-84 -676h135l18 -30l-49 -232q-53 2 -133 4l-18 -243l-25 -23l-340 -25l-16 25q25 141 45 276q-236 6 -457 7l27 204z" />
    <glyph glyph-name="five" unicode="5" horiz-adv-x="839" 
d="M784 307q0 -190 -218 -346t-484 -156q-102 1 -135 55t-33 158q0 29 2 62l51 47q68 -37 173 -37t170 36t65 89t-70 83t-239 48l-17 23q59 256 123 612l16 16l398 13q55 2 84 19t51 63l162 10l-103 -367l-45 -39q-152 16 -348 17l-29 -107q227 -37 327 -106q99 -70 99 -193
z" />
    <glyph glyph-name="six" unicode="6" horiz-adv-x="942" 
d="M485 530q-55 0 -112 -34q-18 -106 -19 -136q0 -145 88 -145q70 0 97 47t26 146q0 122 -80 122zM915 469q0 -225 -144 -359t-386 -135q-172 -1 -270 105q-99 106 -99 265q-1 295 159 482q160 186 345 275q184 90 279 115l45 10l24 -15l41 -165q-27 -9 -69 -29t-151 -95
q-108 -75 -181 -167l8 -23l115 43q133 0 209 -83t75 -224z" />
    <glyph glyph-name="seven" unicode="7" horiz-adv-x="866" 
d="M379 1030h444l99 -143q-162 -289 -418 -789l-113 -293h-57l-242 78l-18 58l479 796l-176 -18q-88 -10 -121 -40t-61 -128l-170 -12q61 272 98 489l14 10q117 -8 242 -8z" />
    <glyph glyph-name="eight" unicode="8" horiz-adv-x="937" 
d="M440 893q0 -41 34 -71t104 -64q47 70 47 135q0 96 -86 96q-43 1 -71 -27t-28 -69zM315 328q0 -64 29 -98t79 -34t79 28t28 66q0 61 -69 105q-23 15 -58 35t-41 25q-47 -63 -47 -127zM6 254q0 199 217 291q-131 113 -131 281t146 284q146 117 350 117q150 0 249 -80
t99 -197q0 -182 -191 -280q135 -98 135 -270t-146 -298q-146 -127 -357 -127q-163 0 -267 78t-104 201z" />
    <glyph glyph-name="nine" unicode="9" horiz-adv-x="942" 
d="M463 500q55 0 110 32q20 70 21 138q0 145 -86 145q-70 0 -98 -47t-27 -145q0 -123 80 -123zM33 561q0 225 144 359t386 135q171 1 271 -105t100 -286q0 -138 -46 -260t-119 -206q-157 -181 -340 -271q-183 -89 -277 -111l-46 -13l-24 15l-41 166q27 10 70 28t149 94
t180 168l-8 23l-115 -43q-131 0 -207 83t-77 224z" />
    <glyph glyph-name="colon" unicode=":" horiz-adv-x="473" 
d="M242 524q-168 0 -168 164q0 112 64 178t157 66q180 0 180 -166q-1 -110 -65 -176t-168 -66zM176 -18q-168 0 -168 163q0 111 65 178t156 66q180 0 181 -166q0 -109 -65 -175t-169 -66z" />
    <glyph glyph-name="semicolon" unicode=";" horiz-adv-x="473" 
d="M242 524q-168 0 -168 164q0 112 64 178t157 66q180 0 180 -166q-1 -110 -65 -176t-168 -66zM70 130q0 73 -60 138l6 29q117 90 202 90t133 -56q48 -55 48 -157t-92 -218t-250 -206l-118 94v52q131 95 131 234z" />
    <glyph glyph-name="less" unicode="&#x3c;" horiz-adv-x="847" 
d="M51 377l-12 31l39 313l371 158l311 143l35 -23l43 -215q-236 -92 -525 -219l-2 -16l183 -100l268 -132l14 -43l-137 -188q-121 59 -254 129z" />
    <glyph glyph-name="equal" unicode="=" horiz-adv-x="1005" 
d="M1008 879l10 -31l-60 -279l-901 -4l-14 27l70 276q276 -2 454 -2zM958 469l11 -31l-62 -278l-899 -4l-16 26l71 277q276 -2 453 -2z" />
    <glyph glyph-name="greater" unicode="&#x3e;" horiz-adv-x="847" 
d="M813 731l12 -31l-37 -313l-370 -158l-314 -143l-32 23l-45 215q209 80 526 219l2 16l-184 100l-269 132l-12 43l137 188q119 -59 252 -129z" />
    <glyph glyph-name="question" unicode="?" horiz-adv-x="759" 
d="M90 145q0 111 65 178t156 66q182 0 183 -166q0 -108 -65 -175t-159 -66q-180 0 -180 163zM489 1018q0 135 -301 151l-24 37l112 242l37 18q242 -6 397 -104t154 -244q0 -110 -79 -198t-296 -222l-6 -12l-4 -141l-20 -29l-246 -41l-29 17l-14 272l10 31l201 96
q108 55 108 127z" />
    <glyph glyph-name="at" unicode="@" horiz-adv-x="1787" 
d="M772 293q35 0 101 130q67 130 106 275q-78 53 -152 54q-29 0 -57 -106t-27 -230q0 -123 29 -123zM14 346q0 201 83 391q168 385 540 556q184 85 381 85q360 0 568 -177t208 -501t-206 -524t-556 -201q-49 0 -80 31t-30 69q0 38 49 249h-21q-156 -268 -272 -349
q-145 0 -227 85t-82 237q0 242 167 456t353 214l147 -41l11 41l38 24l275 -24l16 -47q-98 -428 -141 -691l14 -16q141 0 234 120q92 120 92 302q0 246 -166 387t-465 140t-503 -214q-203 -213 -203 -548t214 -520t621 -185l-2 -55l-76 -132q-459 0 -720 224t-261 614z" />
    <glyph glyph-name="A" unicode="A" horiz-adv-x="1353" 
d="M659 616q14 0 101 5l-21 358h-45l-133 -363h98zM772 248v117q-133 4 -149 4l-158 -11q-39 -131 -39 -145q0 -31 47 -31h55l15 -20l-37 -170q-186 6 -307 6l-267 -2l35 178q74 18 113 113l432 1028l547 33l28 -25q98 -788 127 -1010q8 -71 31 -101t66 -36l12 -20l-37 -162
q-172 4 -282 4l-386 -10l-14 18l33 172q87 10 111 22t24 48z" />
    <glyph glyph-name="B" unicode="B" horiz-adv-x="1325" 
d="M874 963q0 119 -167 118q-33 0 -39 -28l-45 -256q106 -23 151 -23q40 22 70 78t30 111zM680 233q162 0 162 175q0 88 -103 124h-153q-37 -215 -37 -225q0 -74 131 -74zM246 1079q0 66 -43 66l-70 -4l-20 24l43 164q279 -4 342 -4l370 14q209 -1 325 -75t116 -209
q1 -105 -55 -189t-179 -164q213 -90 213 -272q0 -453 -633 -453q-35 7 -157 15t-170 8l-369 -14l41 184q78 14 111 45t41 104q94 746 94 760z" />
    <glyph glyph-name="C" unicode="C" horiz-adv-x="1196" 
d="M572 -23q-257 -1 -396 143t-139 410q0 401 192 611q193 209 562 209q152 0 454 -54l12 -41q-66 -188 -110 -438l-320 -18q23 117 23 153q0 115 -135 115q-113 0 -160 -119t-47 -399q0 -155 32 -219t108 -64t111 48q36 48 64 190l318 20q-53 -240 -76 -436l-31 -33
q-205 -78 -462 -78z" />
    <glyph glyph-name="D" unicode="D" horiz-adv-x="1351" 
d="M702 1077q-20 0 -30 -11t-18 -53t-58 -371q-49 -329 -49 -355q0 -55 53 -56q291 0 291 584q0 145 -42 204q-43 58 -147 58zM244 1087q0 53 -39 54l-64 -4l-16 28l39 166q223 -6 305 -6l313 12q280 0 430 -131t150 -383q0 -383 -217 -615t-574 -233q-188 25 -313 25
l-291 -16l41 190q74 12 104 47t44 123q88 720 88 743z" />
    <glyph glyph-name="E" unicode="E" horiz-adv-x="1200" 
d="M755 545q-65 0 -175 -13q-29 -196 -29 -232t17 -50t65 -14q123 0 169 40t81 177l264 18l22 -31q-61 -199 -108 -422l-35 -32q-324 14 -572 14t-495 -20l41 188q76 12 108 50t42 130q92 719 92 741q0 23 -6 39t-39 17l-52 -4l-20 28l39 162q287 -6 592 -6t497 25l23 -33
q-63 -215 -96 -408l-287 -18q16 65 16 109t-37 62q-38 18 -108 17q-70 0 -83 -10t-19 -45l-41 -231l161 -2l219 12l21 -29l-57 -235q-145 6 -210 6z" />
    <glyph glyph-name="F" unicode="F" horiz-adv-x="1105" 
d="M626 236q52 0 113 16l29 -37l-53 -221q-231 6 -371 6t-385 -20l41 188q76 12 106 50t44 130q92 719 92 741q0 23 -6 39t-39 17l-52 -4l-20 28l39 162q288 -6 572 -6t460 25l23 -33q-53 -219 -84 -408l-287 -16q14 63 14 106t-27 62q-28 18 -84 18q-55 0 -69 -10t-20 -45
l-48 -266l164 -2l209 12l23 -29l-58 -235q-139 6 -206 6t-171 -12q-23 -172 -23 -198t11 -45t63 -19z" />
    <glyph glyph-name="G" unicode="G" horiz-adv-x="1265" 
d="M571 -23q-256 -1 -395 143t-139 410q0 401 192 611q193 209 562 209q152 0 454 -54l12 -41q-66 -160 -110 -409l-320 -19q23 94 23 131q0 109 -135 109q-113 0 -160 -119t-47 -399q0 -155 32 -219t99 -64t121 25q16 150 16 167t-8 31t-43 15l-63 -2l-15 28l47 195h307
q221 0 222 10l6 -119q-82 -51 -99 -153q-41 -213 -40 -307l2 -78l-29 -33q-166 -68 -492 -68z" />
    <glyph glyph-name="H" unicode="H" horiz-adv-x="1466" 
d="M1280 272q0 -90 63 -90l56 6l14 -22l-39 -170q-113 2 -244 4h-100l-336 -2l37 178q70 2 105 37t45 119l26 209q-59 2 -108 2l-221 -19q-31 -256 -31 -286t11 -45q11 -14 40 -15l53 6l15 -20l-39 -172q-248 8 -330 8l-332 -10l37 174q80 16 109 49t39 119q92 735 92 758
q0 22 -10 38t-52 17l-51 -2l-14 28l35 154h258l405 10l-37 -184q-63 -11 -86 -31t-31 -76l-41 -247l158 -6q109 0 162 6q35 270 35 292q0 23 -10 39t-52 17l-53 -2l-14 28l35 154h381l301 10l-35 -180q-74 -13 -99 -33t-43 -114t-61 -388t-43 -348z" />
    <glyph glyph-name="I" unicode="I" horiz-adv-x="735" 
d="M547 261q0 -50 11 -66t40 -17l64 6l12 -20l-39 -172q-250 8 -334 8l-336 -10l37 174q82 18 110 50t38 118q92 735 92 758q0 22 -10 38t-52 17l-49 -2l-16 28l35 154h325l348 10l-37 -184q-68 -9 -90 -29t-34 -78q-31 -167 -73 -450t-42 -333z" />
    <glyph glyph-name="J" unicode="J" horiz-adv-x="673" 
d="M225 1093q0 23 -7 37t-46 15l-72 -4l-14 28l35 156l285 2l387 14l-41 -190q-58 -13 -76 -31q-48 -48 -160 -946q-29 -198 -169 -320t-419 -190l-71 98l8 31q133 96 184 187t78 290q98 801 98 823z" />
    <glyph glyph-name="K" unicode="K" horiz-adv-x="1384" 
d="M930 1090q0 26 -16 38t-56 15l-10 20l39 168q195 -6 287 -6l292 10l15 -30l-37 -154q-160 -88 -295 -260l-123 -162l133 -373q33 -90 71 -132t97 -52l19 -31l-41 -151q-264 -23 -329 -23t-107 36t-76 130l-183 516l19 62l231 256q70 74 70 123zM242 1090q0 22 -10 38
t-52 17l-51 -2l-14 28l37 156q289 -2 323 -2l350 10l-37 -184q-78 -20 -104 -42t-29 -73l-102 -717q-6 -47 -6 -73t4 -39q8 -29 47 -29l64 6l14 -20l-39 -172q-252 8 -336 8l-336 -10l37 174q80 16 110 49t38 119q92 735 92 758z" />
    <glyph glyph-name="L" unicode="L" horiz-adv-x="1112" 
d="M441 0q-237 0 -482 -20l41 188q76 12 108 50t42 130q90 719 90 742q0 22 -10 38t-52 17l-51 -2l-14 28l34 154h326l422 10l-47 -200q-104 -10 -143 -32t-48 -75q-106 -598 -106 -727q0 -66 59 -65q102 0 147 64q44 65 79 269l266 27l20 -31q-61 -262 -114 -547l-35 -32
q-295 14 -532 14z" />
    <glyph glyph-name="M" unicode="M" horiz-adv-x="1654" 
d="M395 236q0 -55 58 -56l51 4l16 -16l-47 -176q-221 8 -272 8t-151 -7t-101 -9l39 184q55 6 84 37t50 125q22 94 87 406q66 312 65 344q0 32 -19 43t-93 20l-15 16l41 176q211 -10 295 -10l316 8q12 -270 57 -651h27q137 346 237 643q346 0 379 2l187 10l14 -8l-39 -180
q-80 -3 -107 -23t-34 -82q-18 -154 -26 -430t-9 -319q0 -43 12 -78t57 -35l60 4l12 -16l-39 -176q-227 8 -410 2t-202 -12l47 186q55 6 81 29t32 71l53 473h-27q-2 -2 -26 -64t-106 -260q-81 -198 -167 -423l-262 -21l-111 768h-26q-68 -481 -68 -507z" />
    <glyph glyph-name="N" unicode="N" horiz-adv-x="1470" 
d="M1055 1090q0 53 -56 55h-61l-8 22l31 166q223 -8 418 -8t198 6l-33 -184q-63 -8 -91 -37t-38 -92l-151 -1018l-394 -25q-139 319 -307 670h-31q-38 -383 -38 -407t11 -42q11 -19 56 -20l66 8l16 -18l-43 -174q-224 8 -330 8t-295 -16l43 184q59 8 91 38q31 30 38 91
q113 735 113 764t-20 49t-113 31l-21 28l31 166q150 -10 299 -10l262 8q115 -295 287 -651h31q39 385 39 408z" />
    <glyph glyph-name="O" unicode="O" horiz-adv-x="1296" 
d="M580 -25q-256 1 -400 143t-143 406q0 398 185 612t540 214q262 0 403 -136t142 -399q-1 -397 -189 -619t-538 -221zM635 233q106 -1 152 137t47 453q0 246 -134 246q-102 0 -148 -138t-46 -452q0 -246 129 -246z" />
    <glyph glyph-name="P" unicode="P" horiz-adv-x="1210" 
d="M874 926q0 82 -43 118t-133 37q-20 0 -26 -8q-16 -23 -70 -395l129 -21q143 52 143 269zM242 1085q0 59 -41 60l-72 -4l-16 24l39 160h286l346 12q150 -1 258 -35t160 -94q98 -106 98 -239q0 -217 -173 -380t-390 -163h-170q-16 -129 -16 -162q0 -32 13 -58t73 -26l63 4
l9 -16l-41 -176q-246 8 -332 8l-375 -18l41 188q74 12 107 50t43 124q90 723 90 741z" />
    <glyph glyph-name="Q" unicode="Q" horiz-adv-x="1304" 
d="M635 233q106 -1 152 137t47 453q0 246 -134 246q-102 0 -148 -138t-46 -452q0 -246 129 -246zM37 524q0 398 185 612t540 214q262 0 403 -136t141 -411q0 -274 -98 -472q-100 -198 -290 -288v-6q90 -84 202 -134t201 -50q88 0 195 20l20 -23l18 -139q-307 -207 -383 -207
q-121 0 -233 86t-379 385q-248 5 -385 147t-137 402z" />
    <glyph glyph-name="R" unicode="R" horiz-adv-x="1353" 
d="M899 938q0 143 -199 143q-20 0 -27 -8t-29 -127t-36 -221l148 -20q143 55 143 233zM551 260q0 -37 16 -56t111 -24l8 -16l-41 -172q-249 8 -367 8t-317 -18l41 188q74 12 107 49t43 125q90 730 90 750t-6 35t-35 16l-72 -4l-16 24l41 162q203 -2 284 -2l357 12
q258 0 395 -85t137 -251q0 -272 -287 -436l93 -213q80 -180 167 -180l19 -33l-37 -149l-317 -23q-86 0 -132 42t-73 145l-80 313h-109q-20 -170 -20 -207z" />
    <glyph glyph-name="S" unicode="S" horiz-adv-x="1097" 
d="M399 -25q-104 0 -205 22t-151 44l-49 22l-21 37q63 203 86 338l260 19q-2 -20 -2 -41q0 -70 33 -119t104 -49q72 0 108 26t36 62q0 38 -35 72t-157 90q-244 109 -300 239q-27 59 -26 133q0 216 180 348t477 132q195 0 344 -43l52 -15l20 -45q-59 -172 -96 -356l-242 -17
l-22 17q6 47 6 57q0 119 -127 119q-57 0 -93 -29q-36 -30 -36 -70q0 -65 107 -119q38 -19 98 -47t78 -38t68 -39t70 -52q19 -24 48 -59q51 -66 51 -172q1 -217 -177 -342t-487 -125z" />
    <glyph glyph-name="T" unicode="T" horiz-adv-x="1183" 
d="M971 932q0 68 -8 96q-14 49 -86 49q-105 -690 -105 -767q0 -76 20 -100t68 -24l103 7l8 -13l-41 -192q-293 12 -408 12l-409 -18l39 188q122 10 164 44t55 130l90 733q-74 0 -104 -51t-64 -227l-258 -17q51 303 82 537l30 29l236 -23h625l247 23l23 -29l-55 -520
l-256 -17q4 82 4 150z" />
    <glyph glyph-name="U" unicode="U" horiz-adv-x="1239" 
d="M510 383q0 -147 121 -147q73 0 107 40t48 140q78 653 78 671q0 57 -41 58l-43 -4l-6 8l45 182q166 -6 238 -6l293 6l-39 -184q-63 -21 -81 -37t-24 -53l-71 -578q-35 -256 -175 -380t-388 -124t-362 86t-114 265l88 766q0 24 -6 38t-39 15l-57 -4l-4 8l43 182
q197 -6 356 -6l271 8l-43 -190q-53 -6 -77 -29t-30 -72l-84 -591q-4 -39 -4 -68z" />
    <glyph glyph-name="V" unicode="V" horiz-adv-x="1275" 
d="M920 1100q0 41 -54 41h-49l-14 20l37 170q186 -6 307 -6l246 2l-35 -178q-35 -10 -52 -32t-42 -81l-408 -1028l-573 -35q-84 815 -109 1037q-10 70 -30 100t-58 37l-12 20l37 162q166 -4 274 -4l385 10l12 -18l-32 -172q-82 -10 -109 -32t-27 -75l13 -694h45
q248 682 248 756z" />
    <glyph glyph-name="W" unicode="W" horiz-adv-x="1988" 
d="M1649 1101q1 28 -9 34t-43 6h-47l-12 20l37 170q180 -6 295 -6l235 2l-34 -178q-35 -12 -53 -34t-40 -79l-385 -1028l-553 -35l-12 584h-29l-178 -549l-553 -35q-78 815 -98 1037q-14 72 -32 100t-52 37l-12 20l39 162q158 -4 262 -4l370 10l13 -18l-35 -172
q-76 -12 -105 -35t-28 -70l10 -696h43q143 401 229 684q10 45 15 55q3 39 -15 51t-86 13l-12 20l39 162q207 -4 326 -4l368 10l15 -18l-35 -172q-80 -8 -108 -30t-27 -75l12 -696h43q66 177 154 453t88 304z" />
    <glyph glyph-name="X" unicode="X" horiz-adv-x="1419" 
d="M748 1090q0 -49 34 -113t58 -109q61 92 76 117t34 51q33 55 33 78q0 35 -68 35l-4 12l33 164h313l261 6l6 -16l-33 -178q-101 -47 -161 -95t-120 -129l-219 -297l135 -249q52 -91 104 -133t122 -44l-33 -192q-195 6 -270 6l-418 -14l-13 14l35 172q59 4 60 47
q0 20 -17 49l-94 181l-84 -129q-41 -63 -41 -93q0 -51 68 -51l10 -22l-31 -166q-240 12 -303 12l-270 -12l-6 28l30 164q45 23 131 104t148 161l205 260l-127 247q-59 115 -131 146q-27 12 -82 26l-8 13l41 186q135 -2 352 -2l348 12l10 -22l-35 -168q-79 0 -79 -57z" />
    <glyph glyph-name="Y" unicode="Y" horiz-adv-x="1331" 
d="M680 1092q0 -68 68 -299h28l103 233q37 68 37 96t-70 27l-4 12l37 162h317l227 8l7 -16l-37 -178q-150 -84 -250 -258l-225 -373q-39 -72 -54 -191q-4 -25 -4 -53t16 -52t72 -24l103 7l8 -13l-41 -192q-301 12 -418 12l-412 -18l39 188q129 10 173 41t52 101t9 83
q0 68 -35 154l-164 407q-41 109 -172 172l-8 13l43 186q238 -4 303 -4l363 14l12 -22l-39 -168q-84 0 -84 -55z" />
    <glyph glyph-name="Z" unicode="Z" horiz-adv-x="1183" 
d="M1087 39l-47 -45l-858 12l-166 -20l-59 118l766 1006l-145 -20q-117 -16 -152 -58t-55 -176l-262 -18q61 301 90 491l24 23l359 -23h665l37 -110q-281 -334 -778 -996l203 31q96 14 147 81t80 210l262 18q-82 -319 -111 -524z" />
    <glyph glyph-name="bracketleft" unicode="[" horiz-adv-x="649" 
d="M539 -260l-502 22q92 565 117 770l73 777l514 22l7 -20l-37 -172l-185 -35l-141 -1137l184 -35l6 -22z" />
    <glyph glyph-name="backslash" unicode="\" horiz-adv-x="653" 
d="M70 1341l41 41h243l115 -919l96 -658l-26 -30h-258q-41 328 -84 665z" />
    <glyph glyph-name="bracketright" unicode="]" horiz-adv-x="649" 
d="M123 1331l502 -22q-90 -565 -117 -770l-74 -777l-514 -22l-6 20l39 172l184 35l139 1137l-184 35l-6 22z" />
    <glyph glyph-name="asciicircum" unicode="^" horiz-adv-x="929" 
d="M668 991l28 -16q72 -240 113 -381l94 -283l-201 -114l-40 18l-166 506h-15l-274 -524l-207 69l-18 37q92 152 176 309l196 365z" />
    <glyph glyph-name="underscore" unicode="_" horiz-adv-x="888" 
d="M772 -446l-889 -3l-18 39l49 215h725l174 5l14 -39z" />
    <glyph glyph-name="grave" unicode="`" 
d="M63 1315l-4 35l148 206h35q190 -176 383 -342l-84 -124l-45 -15q-234 138 -433 240z" />
    <glyph glyph-name="a" unicode="a" horiz-adv-x="1175" 
d="M565 487q39 0 76 2l-12 254h-41l-96 -256h73zM387 174q0 -18 33 -18h39l14 -19l-31 -143q-160 4 -260 4h-225l29 149q57 16 86 80l344 797l499 27l25 -23q88 -635 102 -752t76 -126l12 -19l-32 -135q-145 2 -242 2l-330 -6l-12 14l27 148q70 8 88 16t18 33l4 65l-116 2
l-125 -6q-23 -84 -23 -90z" />
    <glyph glyph-name="b" unicode="b" horiz-adv-x="1144" 
d="M727 740q0 79 -123 79q-27 0 -33 -18q-12 -43 -21 -103t-11 -67q54 -19 120 -19q68 49 68 128zM481 254q0 -51 101 -51q121 0 120 110q0 59 -71 88l-123 2q-27 -141 -27 -149zM1116 819q0 -150 -186 -270q172 -76 172 -215q0 -180 -133 -266t-406 -86q-25 6 -130 12
t-146 6l-322 -10l35 155q63 10 89 34t34 79q72 568 72 576q0 45 -35 45l-58 -2l-18 20l37 139q246 -4 297 -4l323 12q179 0 277 -59t98 -166z" />
    <glyph glyph-name="c" unicode="c" horiz-adv-x="1017" 
d="M479 -16q-217 0 -332 112t-114 326q0 631 618 631q137 0 387 -43l13 -37q-53 -150 -90 -352l-291 -17q18 94 18 123q0 82 -98 82q-78 0 -108 -79t-30 -244q0 -164 20 -208t74 -44t78 32q24 33 44 140l286 18q-41 -195 -57 -354l-27 -27q-174 -59 -391 -59z" />
    <glyph glyph-name="d" unicode="d" horiz-adv-x="1146" 
d="M596 817q-27 0 -35 -43q-4 12 -43 -258t-39 -274q0 -41 25 -41q213 0 213 432q-1 109 -25 147t-96 37zM193 825q0 51 -31 52l-51 -5l-17 25l33 141q197 -6 264 -6l264 10q483 0 484 -401q0 -303 -178 -481t-478 -178q-156 18 -262 18l-248 -12l35 162q59 10 84 36t35 95
q66 521 66 544z" />
    <glyph glyph-name="e" unicode="e" horiz-adv-x="1028" 
d="M644 821q-52 0 -62 -8t-15 -31l-30 -157h131l178 8l18 -27l-47 -198q-119 4 -155 4t-160 -9q-33 -167 -5 -189q13 -11 75 -11t99 30q36 31 62 134l240 16l20 -27q-51 -158 -88 -340l-33 -26q-260 10 -477 10t-430 -16l35 159q61 10 87 40t34 102q69 529 69 549
q0 45 -34 45l-41 -2l-21 24l33 137q254 -6 515 -6t415 21l20 -29q-53 -176 -78 -328l-260 -14q14 47 15 79q0 60 -110 60z" />
    <glyph glyph-name="f" unicode="f" horiz-adv-x="956" 
d="M190 834q0 45 -34 45l-41 -2l-21 24l33 137q254 -6 498 -6t381 21l22 -29q-43 -180 -67 -326l-259 -14q10 45 11 76q0 61 -95 61q-26 0 -36 -8t-15 -31l-35 -184l132 -2l174 8l20 -24l-47 -199q-115 4 -156 4t-155 -8q-14 -94 -14 -119t8 -40q10 -15 57 -15t86 14l27 -33
l-46 -188q-196 4 -316 4t-337 -16l35 161q61 8 86 38t35 102q69 529 69 549z" />
    <glyph glyph-name="g" unicode="g" horiz-adv-x="1075" 
d="M483 -16q-215 0 -329 110t-115 320q0 637 625 637q129 0 387 -41l12 -35q-55 -127 -94 -328l-289 -16q20 76 20 102q0 78 -100 78q-80 0 -111 -85t-31 -249t20 -205q18 -41 66 -41t85 13l10 84q4 35 -3 48t-34 13l-45 -2l-14 27l41 161q180 3 315 3t135 8l4 -103
q-68 -41 -82 -116q-35 -162 -34 -246v-62l-25 -28q-135 -47 -414 -47z" />
    <glyph glyph-name="h" unicode="h" horiz-adv-x="1245" 
d="M479 193q0 -41 41 -41l41 4l12 -19l-30 -143q-223 6 -279 6t-129 -2q-72 -2 -164 -4l31 147q63 12 87 35t32 84q69 558 69 576t-8 30t-43 13h-41l-12 24l29 129h217l358 6l-31 -155q-51 -9 -68 -23t-24 -49l-32 -180l112 -6q80 0 121 4q25 179 25 201q-1 22 -9 35t-43 14
h-43l-12 24l29 129h336l258 6l-31 -151q-60 -9 -80 -25t-34 -78t-47 -288q-34 -227 -34 -271q0 -70 54 -69l41 4l14 -21l-33 -141q-88 0 -203 2h-86l-299 -2l31 152q106 2 121 112l20 148q-35 2 -71 2l-170 -15q-23 -186 -23 -204z" />
    <glyph glyph-name="i" unicode="i" horiz-adv-x="641" 
d="M479 216q0 -40 9 -52t32 -12l49 4l11 -19l-33 -143q-215 6 -285 6l-289 -6l29 147q68 14 90 39t29 90q69 548 69 566t-8 30t-43 13h-37q-6 8 -14 24l29 129h278l303 6l-30 -155q-54 -9 -72 -23t-29 -59q-20 -107 -54 -326t-34 -259z" />
    <glyph glyph-name="j" unicode="j" horiz-adv-x="591" 
d="M176 838q0 18 -5 30t-38 13l-55 -4l-15 26l29 129l244 2l338 10l-35 -161q-47 -11 -60 -25q-41 -46 -126 -731q-23 -152 -144 -247t-362 -146l-66 80l6 26q113 78 154 148t61 227q74 605 74 623z" />
    <glyph glyph-name="k" unicode="k" horiz-adv-x="1193" 
d="M770 836q0 39 -55 41l-8 18l30 141q168 -4 246 -4l256 8l12 -26l-30 -129q-139 -78 -248 -213l-76 -101l98 -278q25 -70 56 -103t77 -43l17 -26l-35 -129q-230 -18 -288 -18t-92 26q-34 27 -62 102l-144 404l17 51l172 182q57 58 57 97zM479 201q0 -49 41 -49l49 4
l15 -19l-33 -143q-219 6 -289 6l-291 -8l31 145q66 14 90 40t29 93q69 548 69 566t-8 30t-43 13h-41l-12 24l31 131q254 -2 278 -2l307 6l-32 -155q-66 -17 -86 -33t-23 -55q-82 -576 -82 -594z" />
    <glyph glyph-name="l" unicode="l" horiz-adv-x="964" 
d="M384 0q-206 0 -419 -16l33 159q63 10 89 40t34 102q67 533 67 551t-8 30t-43 13h-41l-12 24l29 129h280l373 6l-41 -170q-86 -8 -121 -23t-39 -48q-82 -451 -82 -547q0 -47 39 -47q78 0 112 52t60 214l240 23q14 -20 18 -27q-49 -215 -92 -447l-31 -28q-239 10 -445 10z
" />
    <glyph glyph-name="m" unicode="m" horiz-adv-x="1400" 
d="M1249 240q0 -86 60 -84l49 2l12 -15l-33 -147q-457 8 -530 -8l39 157q47 3 67 21t25 57l43 309h-25q-121 -270 -221 -532l-239 -16l-82 548h-25q-41 -315 -41 -335q0 -43 49 -43l39 2q8 -6 15 -15l-39 -147q-195 6 -237 6t-92 -3q-51 -3 -87 -5t-37 -4l33 155
q82 8 104 103q10 37 67 298q56 262 56 286t-13 31t-75 13l-14 15l35 151q182 -8 254 -8l280 6q4 -195 35 -454h24q104 258 170 448q311 0 340 2l152 8l14 -6l-32 -155q-69 -3 -89 -17t-28 -81t-16 -289t-7 -254z" />
    <glyph glyph-name="n" unicode="n" horiz-adv-x="1255" 
d="M819 881h-49l-8 18l24 139q197 -6 367 -6t170 4l-27 -155q-52 -8 -74 -30t-30 -71l-117 -772l-362 -18l-228 454h-28q-23 -221 -23 -241q0 -21 10 -37t50 -16l51 6l14 -15l-35 -147q-199 6 -268 6l-276 -12l36 155q49 6 74 30t33 71q86 544 86 568t-16 38t-93 24l-20 25
l26 141q127 -8 263 -8l231 6q94 -225 215 -454h27l22 227q4 41 -5 55t-40 15z" />
    <glyph glyph-name="o" unicode="o" horiz-adv-x="1097" 
d="M492 -18q-219 0 -339 110t-120 326q0 635 596 635q459 0 458 -424q0 -313 -151 -480t-444 -167zM535 203q75 0 103 94t28 263t-20 210t-66 41q-70 0 -99 -94t-29 -263t20 -210q18 -41 63 -41z" />
    <glyph glyph-name="p" unicode="p" horiz-adv-x="1046" 
d="M723 711q0 112 -129 110q-14 0 -20 -6t-9 -30l-12 -72q-8 -49 -16 -93t-15 -85l99 -15q102 39 102 191zM308 0q-52 0 -133 -4t-208 -10l35 159q57 8 84 39t37 97q68 528 67 544q0 53 -30 54l-62 -2l-14 20l33 135h245l300 10q131 0 224 -30t138 -76q82 -86 82 -191
q0 -171 -145 -297t-328 -126h-139q-10 -84 -10 -107t10 -42q12 -19 63 -19l47 2l8 -15l-34 -147q-218 6 -270 6z" />
    <glyph glyph-name="q" unicode="q" horiz-adv-x="1103" 
d="M535 203q75 0 103 94t28 263t-20 210t-66 41q-70 0 -99 -94t-29 -263t20 -210q18 -41 63 -41zM33 418q0 635 596 635q459 0 458 -424q0 -446 -299 -588v-6q66 -57 158 -94t164 -37t162 16l18 -20l17 -123q-268 -170 -336 -170q-97 1 -189 69t-311 306q-211 6 -325 115
q-113 110 -113 321z" />
    <glyph glyph-name="r" unicode="r" horiz-adv-x="1169" 
d="M750 719q0 53 -36 77t-85 24t-57 -11q-8 -10 -46 -238l117 -16q107 39 107 164zM251 0q-91 0 -284 -16l35 159q59 10 86 40t35 98q70 543 70 553q0 45 -33 45l-62 -2l-14 20l35 137q174 -2 243 -2l310 10q461 0 461 -270q0 -209 -232 -338l70 -145q31 -66 67 -103t66 -36
l18 -31l-32 -127l-279 -17q-76 0 -115 32t-59 112l-59 231h-82q-12 -108 -12 -136t12 -42q14 -14 94 -18l6 -15l-33 -145q-221 6 -312 6z" />
    <glyph glyph-name="s" unicode="s" horiz-adv-x="946" 
d="M674 721q0 88 -99 88q-41 0 -67 -17t-25 -47q0 -45 115 -94q158 -63 209 -100q104 -80 104 -203q-1 -172 -151 -269t-414 -97q-182 0 -344 69l-18 31q53 164 71 260l234 16q-2 -10 -2 -39q1 -29 29 -67t87 -37q94 0 95 51q0 54 -118 96q-42 17 -44 17q-195 78 -245 184
q-22 47 -21 107q0 174 152 277q153 103 411 104q164 0 336 -45l18 -39q-49 -135 -80 -279l-217 -14l-20 14q4 31 4 33z" />
    <glyph glyph-name="t" unicode="t" horiz-adv-x="1021" 
d="M809 706q0 46 -6 68q-8 43 -55 43q-76 -551 -76 -579q0 -80 71 -80l84 6l9 -10l-35 -164q-252 10 -350 10l-355 -16l33 161q98 8 134 33t44 90l70 549q-47 0 -67 -43t-48 -178l-233 -12q41 252 65 442l27 25l205 -19h520l213 19l20 -25l-47 -430l-229 -12q6 76 6 122z
" />
    <glyph glyph-name="u" unicode="u" horiz-adv-x="1046" 
d="M446 303q0 -100 84 -100q49 -1 73 25t32 91q61 511 61 519q0 41 -32 41l-31 -2l-6 6l39 155q139 -6 198 -6l254 4l-33 -157q-49 -17 -63 -29t-18 -37l-54 -432q-28 -205 -144 -302t-325 -97t-306 66t-99 202l67 588q0 18 -4 29t-30 12l-48 -2l-2 6l35 155q170 -6 312 -6
l231 4l-37 -159q-78 -8 -84 -76q-70 -487 -70 -498z" />
    <glyph glyph-name="v" unicode="v" horiz-adv-x="1095" 
d="M535 795v-506h40q180 508 181 559q0 27 -37 26h-35l-12 19l30 143q158 -4 259 -4l206 2l-28 -151q-25 -11 -39 -27t-33 -61l-317 -789l-525 -26q-72 666 -84 792q-10 57 -23 81t-42 28l-13 18l31 137q139 -4 234 -4l327 6l13 -14l-27 -147q-63 -9 -85 -25t-21 -57z" />
    <glyph glyph-name="w" unicode="w" horiz-adv-x="1695" 
d="M868 393h-26l-123 -387l-504 -26q-68 666 -78 792q-12 59 -24 81t-39 28l-11 18l33 137q131 -4 221 -4l318 6l10 -14l-29 -147q-52 -7 -78 -111t-26 -172v-305h39q113 315 170 516l18 55q-2 20 -67 21h-13l-10 18l33 137q176 -4 281 -4l315 6l12 -14l-28 -147
q-61 -5 -84 -23t-23 -59l2 -506h39q49 129 112 333q62 204 62 226t-5 24t-30 2h-32l-13 19l31 143q154 -4 248 -4l198 2l-28 -151q-27 -11 -41 -29t-31 -59l-295 -789l-504 -26v413z" />
    <glyph glyph-name="x" unicode="x" horiz-adv-x="1220" 
d="M588 182q0 10 -13 35l-71 117l-55 -82q-25 -39 -25 -59q0 -39 53 -39l8 -19l-24 -141q-209 10 -262 10l-232 -10l-6 24l27 140q32 16 104 81t117 119l164 201l-99 170q-51 90 -106 115q-20 8 -68 20l-8 8l35 162q106 -2 299 -2l299 8l8 -18l-28 -143h-5q-53 0 -53 -40
t70 -151q98 154 98 168q0 27 -51 25q0 6 -4 10l26 139l496 6l4 -12l-26 -154q-156 -74 -232 -174l-172 -229l102 -168q86 -137 187 -137l-29 -164q-166 6 -227 6l-359 -10l-10 10l29 148q39 0 39 30z" />
    <glyph glyph-name="y" unicode="y" horiz-adv-x="1163" 
d="M756 250q0 -52 14 -72t59 -20l86 6l9 -10l-35 -164q-264 10 -365 10l-360 -14l33 159q109 6 153 33t43 143q0 30 -31 97l-143 321q-27 57 -137 125l-8 8l37 162q209 -4 260 -4l309 10l12 -18l-33 -143h-6q-55 0 -55 -40t47 -200h27l63 152q31 55 31 73t-53 17l-4 10
l30 137l275 2l194 6l4 -12l-30 -154q-127 -78 -201 -198l-184 -291q-41 -78 -41 -131z" />
    <glyph glyph-name="z" unicode="z" horiz-adv-x="1017" 
d="M930 33l-39 -37l-729 8l-139 -16l-56 100l619 760l-101 -17q-93 -14 -119 -45t-40 -131l-236 -14q49 246 72 395l20 17l299 -17l570 2l34 -94q-285 -315 -626 -751l147 26q80 13 119 63t59 156l236 17q-67 -262 -90 -422z" />
    <glyph glyph-name="braceleft" unicode="{" horiz-adv-x="667" 
d="M512 422q0 -49 -47 -174t-47 -169t26 -71t70 -26l61 10l23 -27l-49 -170q-80 -47 -211 -47t-209 62t-78 144q0 81 77 217t77 177q0 96 -125 133l29 156q73 23 111 61t38 79q0 42 -34 153t-34 162q0 114 109 186t274 72q74 0 181 -25l16 -33l-57 -170q-106 27 -151 -21
q-30 -32 -30 -87l25 -226q0 -72 -44 -122t-124 -72l-2 -10q125 -43 125 -162z" />
    <glyph glyph-name="bar" unicode="|" horiz-adv-x="573" 
d="M526 1653l39 -33q-96 -684 -137 -1024l-135 -1124l-242 -23l-26 33q14 119 268 2148z" />
    <glyph glyph-name="braceright" unicode="}" horiz-adv-x="667" 
d="M174 696q0 47 46 164t46 160t-25 70q-26 27 -71 26l-61 -10l-23 27l49 170q80 47 211 47t209 -62t78 -142q0 -79 -75 -208t-75 -168q0 -111 123 -133l-26 -156q-68 -16 -109 -56t-41 -83t33 -154t33 -161q0 -123 -109 -201t-276 -78q-74 0 -181 25l-16 32l57 170
q39 -10 80 -10t71 33t30 90l-23 238q0 152 168 198l2 11q-125 43 -125 161z" />
    <glyph glyph-name="asciitilde" unicode="~" horiz-adv-x="1003" 
d="M688 631q59 0 164 90l35 29h33l86 -115l-5 -33l-245 -235l-45 -9q-47 0 -200 35t-185 35q-59 0 -164 -88l-35 -31h-33l-86 115l4 33l246 235l45 8q47 1 200 -34t185 -35z" />
    <glyph glyph-name="nbspace" unicode="&#xa0;" horiz-adv-x="280" 
 />
    <glyph glyph-name="exclamdown" unicode="&#xa1;" horiz-adv-x="563" 
d="M406 430l-31 -823l-43 -49l-391 -54l-45 54l256 880l217 33zM532 827q0 -111 -64 -177t-158 -66q-93 0 -137 44t-44 137t65 160t158 66q180 0 180 -164z" />
    <glyph glyph-name="cent" unicode="&#xa2;" horiz-adv-x="804" 
d="M525 743q-65 0 -103 -91q-38 -90 -37 -240q0 -150 98 -150q84 0 154 152l43 -6l106 -119q-38 -98 -124 -178t-187 -115l-76 -305l-239 -27l-15 12l78 324q-92 37 -144 126t-52 216q0 223 124 398t312 231l86 348l244 29l10 -19l-88 -352q63 -12 110 -37l9 -37l-105 -264
l-88 -2q-51 106 -116 106z" />
    <glyph glyph-name="sterling" unicode="&#xa3;" horiz-adv-x="1013" 
d="M985 260q0 -127 -79 -206t-195 -79q-63 -1 -187 55t-186 56q-131 0 -289 -88l-29 12l-28 187q168 86 182 215l10 69q2 47 -22 63q-25 15 -103 19l-6 12l35 144l127 18l6 56q19 159 205 295t364 136t259 -30l8 -23l-121 -268l-39 -6q-137 88 -203 88t-90 -29t-31 -102
l-18 -117l274 6l9 -14l-43 -174q-111 6 -267 6l-12 -78q-6 -53 -29 -108t-49 -80l123 29q18 0 94 -18t114 -17q38 0 72 43t42 110h63q39 -55 39 -182z" />
    <glyph glyph-name="currency" unicode="&#xa4;" horiz-adv-x="882" 
d="M348 690q0 -64 36 -102q36 -39 96 -39t111 50q50 51 50 113t-37 102q-38 40 -98 40t-109 -50t-49 -114zM535 1055q63 0 127 -27l155 162l47 -8l131 -215l-164 -131q11 -47 11 -117t-47 -158l137 -137l-14 -47l-234 -158l-111 152q-61 -23 -127 -23t-127 29l-157 -162
l-47 8l-133 215l172 135q-8 33 -9 103q0 70 41 158l-141 147l14 47l236 158q72 -98 111 -158q66 27 129 27z" />
    <glyph glyph-name="yen" unicode="&#xa5;" horiz-adv-x="1173" 
d="M725 236v-19q0 -59 78 -59l86 6l8 -10l-33 -164q-262 10 -358 10l-361 -14l33 159q92 7 129 25t51 66l-321 -3l-19 17l45 174h289l-37 96l-237 -2l-19 17l45 174h117q-6 12 -82 75t-80 90l37 160q141 -4 335 -4t235 12l8 -20l-33 -143q-59 0 -59 -33q0 -14 57 -207h16
l88 201q6 12 7 26q0 25 -41 25l-11 18l25 119l274 2l193 6l8 -12l-35 -154q-68 -37 -102 -63q-33 -29 -70 -94l144 4l14 -21l-35 -176h-256l-39 -63l-22 -31l297 6l14 -20l-35 -176h-348z" />
    <glyph glyph-name="brokenbar" unicode="&#xa6;" horiz-adv-x="573" 
d="M127 307l231 35l33 -35l-100 -835l-242 -23l-24 33q53 448 102 825zM449 766l-242 -33l-25 23l111 874l233 23l39 -33q-71 -498 -116 -854z" />
    <glyph glyph-name="section" unicode="&#xa7;" horiz-adv-x="962" 
d="M379 638q0 -78 51 -117q51 -40 139 -93q33 39 33 81q0 78 -57 126q-45 41 -125 90q-41 -45 -41 -87zM311 -195q-117 1 -207 47t-90 105q0 131 115 262l55 -4q2 -70 49 -119t111 -49t64 55q0 35 -37 66q-37 32 -90 60t-107 62t-92 90q-37 56 -37 128q0 186 244 311
q-84 80 -84 180q0 147 133 249t324 102q112 0 198 -30t86 -71q0 -47 -43 -145t-76 -123h-51q-10 51 -42 84t-64 33t-52 -16t-20 -45t36 -59t87 -63t102 -71t87 -95q36 -58 36 -126q0 -168 -227 -295q78 -72 78 -164q0 -14 -2 -27q-18 -141 -157 -237t-327 -95z" />
    <glyph glyph-name="dieresis" unicode="&#xa8;" 
d="M276 1145q-143 0 -143 137q0 92 54 148t135 57q154 0 153 -139q0 -90 -55 -147q-56 -56 -144 -56zM664 1145q-145 0 -146 137q0 92 54 148t135 57q154 0 153 -139q0 -90 -54 -146t-142 -57z" />
    <glyph glyph-name="copyright" unicode="&#xa9;" horiz-adv-x="1388" 
d="M680 272q-137 0 -210 71t-73 206q0 399 391 399q66 0 244 -26l8 -25q-33 -94 -57 -221l-182 -10q10 59 10 75q0 53 -55 53q-56 0 -74 -50t-18 -154t11 -132t46 -28t50 22t28 87l180 12q-25 -123 -35 -223l-16 -19q-111 -37 -248 -37zM221 547q0 -191 121 -321t303 -130
q219 0 385 166t166 391q0 191 -122 321t-304 130q-219 0 -384 -166t-165 -391zM98 535q0 281 207 485t479 205q229 0 382 -163t153 -398q0 -279 -208 -484t-480 -205q-229 0 -381 161t-152 399z" />
    <glyph glyph-name="ordfeminine" unicode="&#xaa;" horiz-adv-x="798" 
d="M311 881q23 0 63 82t60 170q-53 33 -98 32q-14 -1 -28 -67t-15 -142q0 -76 18 -75zM477 653q-74 0 -74 72q0 25 31 149h-14q-100 -168 -178 -221q-106 1 -166 59t-62 162q0 162 116 304t247 141l96 -27l6 27l31 18l207 -16l12 -35q-51 -219 -78 -383l6 -4q12 0 68 53
l35 -6l28 -72q-119 -131 -182 -176t-129 -45z" />
    <glyph glyph-name="guillemotleft" unicode="&#xab;" horiz-adv-x="950" 
d="M420 864l119 -71l10 -48q-37 -51 -168 -270q49 -150 100 -268l-20 -47l-135 -74q-125 184 -265 363l7 55q196 190 352 360zM834 864l118 -71l11 -48q-37 -51 -168 -270q49 -150 100 -268l-21 -47l-135 -74q-125 184 -264 363l6 55q197 190 353 360z" />
    <glyph glyph-name="logicalnot" unicode="&#xac;" horiz-adv-x="1005" 
d="M932 735l10 -30q-45 -160 -72 -369l-32 -277l-283 -36l-23 18q23 186 50 383h-93l-448 -2l-16 27l71 276q276 -2 453 -2z" />
    <glyph glyph-name="registered" unicode="&#xae;" horiz-adv-x="929" 
d="M596 1141q0 45 -59 45q-11 0 -13 -14t-9 -49q-7 -34 -9 -50l47 -2q43 12 43 70zM424 854h-23l-90 -6l13 55q39 8 45 55l26 211q6 37 -10 37l-23 -2l-6 4l13 52h106q43 0 84 4q168 0 168 -103q0 -86 -88 -135q41 -90 55 -105t27 -18l4 -6q-2 -6 -2 -21t-6 -18
q-29 -12 -76 -13t-62 8t-26 46l-25 96h-32q-8 -57 -8 -71t42 -17v-4l-12 -53q-68 4 -94 4zM503 707q133 -1 243 109t110 246t-81 222t-213 86t-243 -109q-111 -110 -111 -246t82 -222q81 -86 213 -86zM125 1010q0 172 138 309t306 137t271 -108q102 -109 102 -281t-139 -309
q-139 -138 -307 -138t-270 109q-101 109 -101 281z" />
    <glyph glyph-name="macron" unicode="&#xaf;" 
d="M805 1419l18 -37l-65 -223l-543 -4l-29 31l66 223q188 -2 305 -2z" />
    <glyph glyph-name="degree" unicode="&#xb0;" horiz-adv-x="600" 
d="M382 1196q-52 0 -90 -40t-38 -93t28 -83t80 -30t90 39t37 93q0 114 -107 114zM100 1055q0 115 92 205t206 90q112 0 179 -71t67 -187t-92 -205q-92 -91 -204 -91t-180 72t-68 187z" />
    <glyph glyph-name="plusminus" unicode="&#xb1;" horiz-adv-x="1005" 
d="M821 -252l-827 -2l-17 39l48 215h661l174 4l17 -39zM938 410l-305 -2l-33 -289l-272 -37l-25 18q20 152 41 308l-305 -2l-16 26l71 277q141 -2 287 -2q8 74 41 321l272 27l29 -15q-31 -180 -53 -333l319 12l10 -31z" />
    <glyph glyph-name="two.sups" unicode="&#xb2;" horiz-adv-x="755" 
d="M346 1198q0 51 -66 51t-155 -90h-29l-16 176q156 156 323 156q113 0 181 -52q68 -53 68 -143t-64 -183q-63 -93 -230 -243l7 -12h53q47 0 74 28t40 97l179 12q-53 -190 -74 -315l-29 -27q-324 16 -471 17l-141 -8l4 149l213 199q133 129 133 188z" />
    <glyph glyph-name="three.sups" unicode="&#xb3;" horiz-adv-x="659" 
d="M396 1491q84 0 142 -41t58 -110q0 -68 -48 -122t-128 -75v-17q174 -66 174 -182t-148 -204q-148 -87 -333 -87q-74 0 -98 40t-23 126v29l39 35q53 -27 120 -27t103 20t35 56q0 53 -131 53l-19 23v135l92 16q84 31 84 98q0 41 -51 41t-143 -55h-23l-28 152q154 96 326 96z
" />
    <glyph glyph-name="acute" unicode="&#xb4;" 
d="M709 1350l-4 -35q-221 -115 -433 -240l-45 15l-84 124l383 342h35z" />
    <glyph glyph-name="mu" unicode="&#xb5;" horiz-adv-x="1087" 
d="M977 262q27 0 63 17l29 -54q-57 -79 -138 -153t-140 -97q-209 0 -218 150l-20 10q-129 -155 -163 -155t-56 14l-10 -6l-23 -203l-14 -205l-19 -24l-325 -52l-27 29q63 287 115 617l82 516q8 61 8 111t-6 97l26 58l379 59l21 -45q-39 -62 -82 -290t-43 -285q0 -96 67 -97
q29 0 90 33l43 355q6 63 7 110q0 47 -9 98l29 56l404 57l22 -45q-31 -43 -86 -298q-55 -254 -55 -316t49 -62z" />
    <glyph glyph-name="mu" unicode="&#x3bc;" horiz-adv-x="1087" 
d="M977 262q27 0 63 17l29 -54q-57 -79 -138 -153t-140 -97q-209 0 -218 150l-20 10q-129 -155 -163 -155t-56 14l-10 -6l-23 -203l-14 -205l-19 -24l-325 -52l-27 29q63 287 115 617l82 516q8 61 8 111t-6 97l26 58l379 59l21 -45q-39 -62 -82 -290t-43 -285q0 -96 67 -97
q29 0 90 33l43 355q6 63 7 110q0 47 -9 98l29 56l404 57l22 -45q-31 -43 -86 -298q-55 -254 -55 -316t49 -62z" />
    <glyph glyph-name="paragraph" unicode="&#xb6;" horiz-adv-x="1140" 
d="M94 -13q0 65 39 147t88 142h35q0 -116 44 -184t124 -68t121 45q41 44 53 148l111 899q3 18 -7 24t-45 7q-71 -1 -113 -107t-42 -268t78 -297l-9 -72q-242 0 -382 112q-140 113 -140 317t159 354t390 149l324 -10l329 6l-32 -172l-7 -8q-55 -13 -70 -29q-14 -16 -28 -74
t-51 -290t-53 -369q-27 -225 -227 -403t-421 -179q-108 -1 -188 57t-80 123z" />
    <glyph glyph-name="periodcentered" unicode="&#xb7;" horiz-adv-x="473" 
d="M207 315q-168 0 -168 164q1 111 65 177t158 67q178 0 178 -166q0 -109 -64 -175t-169 -67z" />
    <glyph glyph-name="cedilla" unicode="&#xb8;" horiz-adv-x="800" 
d="M188 -258q0 -98 82 -98q63 0 64 48q0 48 -158 130l92 252h127l-47 -150q76 -39 136 -93t61 -114q1 -88 -97 -151t-233 -64q-61 0 -115 29q-53 29 -53 74t125 153h16v-16z" />
    <glyph glyph-name="one.sups" unicode="&#xb9;" horiz-adv-x="565" 
d="M393 855q0 -56 41 -56l60 2l4 -8l-37 -131q-141 8 -217 8l-273 -15l27 119q125 12 133 90q47 396 47 414t-7 30t-46 11l-66 -2l-12 14l27 109q14 0 444 51l19 -66q-43 -29 -63 -77t-50 -243q-31 -194 -31 -250z" />
    <glyph glyph-name="ordmasculine" unicode="&#xba;" horiz-adv-x="741" 
d="M297 653q-127 0 -197 72t-69 205q0 188 104 298t283 109q130 -1 198 -69t68 -199q0 -190 -106 -303t-281 -113zM348 809q60 0 62 200q0 99 -10 126t-38 26q-61 0 -61 -221q0 -131 47 -131z" />
    <glyph glyph-name="guillemotright" unicode="&#xbb;" horiz-adv-x="950" 
d="M211 86l-119 72l-8 47q72 104 166 270q-49 150 -100 268l20 48l135 73q98 -145 264 -362l-6 -56q-194 -190 -352 -360zM625 86l-119 72l-8 47q72 104 166 270q-49 150 -101 268l21 48l135 73q98 -145 264 -362l-6 -56q-194 -190 -352 -360z" />
    <glyph glyph-name="onequarter" unicode="&#xbc;" horiz-adv-x="1730" 
d="M1300 512l-114 -166h110l21 166h-17zM967 174l18 148l397 495l13 4l217 -18l-56 -457h89l14 -20l-37 -166l-86 2l-12 -146l-17 -16l-250 -16l-14 16q16 82 29 170zM393 706q0 -56 41 -57l60 2l4 -8l-37 -131q-141 8 -217 8l-273 -14l27 119q125 12 133 90q47 397 47 414
t-7 29t-46 11l-66 -2l-12 15l27 108q14 0 444 51l19 -65q-43 -29 -63 -78t-50 -243q-31 -193 -31 -249zM1317 1325l20 -49q-367 -567 -553 -852l-387 -610l-190 71l-12 35q227 328 397 598l547 873z" />
    <glyph glyph-name="onehalf" unicode="&#xbd;" horiz-adv-x="1796" 
d="M1370 528q0 52 -66 52t-155 -91h-29l-16 177q156 156 323 155q113 0 181 -52t68 -142q0 -89 -64 -183q-63 -94 -230 -243l7 -13h53q47 0 74 28t40 97l179 13q-53 -190 -74 -316l-29 -26q-324 16 -471 16l-141 -8l4 149l213 199q133 129 133 188zM393 706q0 -56 41 -57
l60 2l4 -8l-37 -131q-141 8 -217 8l-273 -14l27 119q125 12 133 90q47 397 47 414t-7 29t-46 11l-66 -2l-12 15l27 108q14 0 444 51l19 -65q-43 -29 -63 -78t-50 -243q-31 -193 -31 -249zM1317 1325l20 -49q-367 -567 -553 -852l-387 -610l-190 71l-12 35q227 328 397 598
l547 873z" />
    <glyph glyph-name="threequarters" unicode="&#xbe;" horiz-adv-x="1722" 
d="M596 1190q0 -68 -48 -122t-128 -75v-16q174 -67 174 -183t-148 -203t-333 -87q-74 0 -98 40t-23 126v28l39 35q53 -27 120 -27q138 1 138 76q0 53 -131 54l-19 22v135l92 17q84 31 84 98q0 41 -51 41t-143 -55h-23l-28 151q157 98 326 96q84 0 142 -41q58 -42 58 -110z
M1292 512l-114 -166h110l21 166h-17zM958 174l19 148l397 495l12 4l218 -18l-56 -457h88l15 -20l-37 -166l-86 2l-12 -146l-17 -16l-250 -16l-14 16q16 82 29 170zM1309 1325l20 -49q-367 -567 -553 -852l-387 -610l-190 71l-13 35q227 328 398 598l546 873z" />
    <glyph glyph-name="questiondown" unicode="&#xbf;" horiz-adv-x="759" 
d="M266 750q0 108 65 175t156 66q182 0 183 -164q0 -111 -65 -177t-159 -66q-180 0 -180 166zM270 -47q0 -137 301 -150l25 -36l-113 -242l-37 -19q-242 6 -396 104t-154 245q0 106 78 196q79 90 296 223l6 13l5 141l20 29l246 41l28 -17l15 -272l-10 -31l-201 -96
q-109 -55 -109 -129z" />
    <glyph glyph-name="Agrave" unicode="&#xc0;" horiz-adv-x="1353" 
d="M659 616q14 0 101 5l-21 358h-45l-133 -363h98zM514 1528l-14 33l73 221l33 10q258 -111 510 -205l-43 -145l-39 -27q-190 50 -520 113zM772 248v117q-133 4 -149 4l-158 -11q-39 -131 -39 -145q0 -31 47 -31h55l15 -20l-37 -170q-186 6 -307 6l-267 -2l35 178
q74 18 113 113l432 1028l547 33l28 -25q98 -788 127 -1010q8 -71 31 -101t66 -36l12 -20l-37 -162q-172 4 -282 4l-386 -10l-14 18l33 172q87 10 111 22t24 48z" />
    <glyph glyph-name="Aacute" unicode="&#xc1;" horiz-adv-x="1353" 
d="M1128 1561l-14 -33q-266 -49 -520 -113l-39 27l-43 145q211 78 510 205l33 -10zM659 616q14 0 101 5l-21 358h-45l-133 -363h98zM772 248v117q-133 4 -149 4l-158 -11q-39 -131 -39 -145q0 -31 47 -31h55l15 -20l-37 -170q-186 6 -307 6l-267 -2l35 178q74 18 113 113
l432 1028l547 33l28 -25q98 -788 127 -1010q8 -71 31 -101t66 -36l12 -20l-37 -162q-172 4 -282 4l-386 -10l-14 18l33 172q87 10 111 22t24 48z" />
    <glyph glyph-name="Acircumflex" unicode="&#xc2;" horiz-adv-x="1353" 
d="M883 1860q0 6 129 -112t190 -171l-88 -127l-49 -14q-90 41 -250 104q-102 -37 -274 -104l-45 14l-58 127q164 111 389 283h56zM659 616q14 0 101 5l-21 358h-45l-133 -363h98zM772 248v117q-133 4 -149 4l-158 -11q-39 -131 -39 -145q0 -31 47 -31h55l15 -20l-37 -170
q-186 6 -307 6l-267 -2l35 178q74 18 113 113l432 1028l547 33l28 -25q98 -788 127 -1010q8 -71 31 -101t66 -36l12 -20l-37 -162q-172 4 -282 4l-386 -10l-14 18l33 172q87 10 111 22t24 48z" />
    <glyph glyph-name="Atilde" unicode="&#xc3;" horiz-adv-x="1353" 
d="M710 1501q-50 0 -153 -119h-33l-106 111l4 33l190 235l35 8q37 1 153 -34t142 -35q45 0 125 90l27 29h32l107 -111l-4 -33l-191 -235l-34 -8q-37 0 -153 34t-141 35zM659 616q14 0 101 5l-21 358h-45l-133 -363h98zM772 248v117q-133 4 -149 4l-158 -11
q-39 -131 -39 -145q0 -31 47 -31h55l15 -20l-37 -170q-186 6 -307 6l-267 -2l35 178q74 18 113 113l432 1028l547 33l28 -25q98 -788 127 -1010q8 -71 31 -101t66 -36l12 -20l-37 -162q-172 4 -282 4l-386 -10l-14 18l33 172q87 10 111 22t24 48z" />
    <glyph glyph-name="Adieresis" unicode="&#xc4;" horiz-adv-x="1353" 
d="M602 1423q-143 0 -143 138q0 92 54 148t134 56q152 0 152 -139q-1 -90 -55 -146t-142 -57zM987 1423q-145 0 -145 138q0 92 54 148t134 56q154 0 154 -139q0 -90 -54 -146t-143 -57zM659 616q14 0 101 5l-21 358h-45l-133 -363h98zM772 248v117q-133 4 -149 4l-158 -11
q-39 -131 -39 -145q0 -31 47 -31h55l15 -20l-37 -170q-186 6 -307 6l-267 -2l35 178q74 18 113 113l432 1028l547 33l28 -25q98 -788 127 -1010q8 -71 31 -101t66 -36l12 -20l-37 -162q-172 4 -282 4l-386 -10l-14 18l33 172q87 10 111 22t24 48z" />
    <glyph glyph-name="Aring" unicode="&#xc5;" horiz-adv-x="1353" 
d="M825 1540q29 0 54 18t24 60q0 61 -69 61q-76 0 -76 -75q-1 -64 67 -64zM659 616q14 0 101 5l-21 358h-45l-133 -363h98zM857 1827q188 0 190 -188q0 -88 -71 -165t-170 -77q-192 0 -192 193q0 95 71 166t172 71zM772 248v117q-133 4 -149 4l-158 -11q-39 -131 -39 -145
q0 -31 47 -31h55l15 -20l-37 -170q-186 6 -307 6l-267 -2l35 178q74 18 113 113l432 1028l547 33l28 -25q98 -788 127 -1010q8 -71 31 -101t66 -36l12 -20l-37 -162q-172 4 -282 4l-386 -10l-14 18l33 172q87 10 111 22t24 48z" />
    <glyph glyph-name="AE" unicode="&#xc6;" horiz-adv-x="1875" 
d="M623 664l82 8l100 18l8 289h-45zM430 202q0 -12 17 -16t90 -4l6 -20l-35 -170q-12 6 -397 6l-160 -2l16 178q78 18 127 113l412 800q-2 57 -45 58l-51 -4l-23 28l39 162q334 -6 777 -4t593 23l23 -33q-61 -215 -97 -408l-284 -18q14 65 14 109t-37 62t-139 17
q-70 0 -70 -49l13 -268l143 26l207 54l30 -35l-51 -238l-196 -24l-127 -25l2 -149q2 -137 90 -138q109 0 151 40t76 180l264 18l23 -31q-61 -199 -109 -422l-34 -32q-328 14 -725 14l-345 -12l-12 18l33 172q82 8 111 27q39 23 38 127l7 117l-150 -27l-158 -47
q-57 -160 -57 -173z" />
    <glyph glyph-name="Ccedilla" unicode="&#xc7;" horiz-adv-x="1196" 
d="M455 -258q0 -98 82 -98q63 0 63 48t-158 130l58 160q-223 18 -343 159t-120 389q0 401 192 611q193 209 562 209q152 0 454 -54l12 -41q-66 -188 -110 -438l-320 -18q23 117 23 153q0 115 -135 115q-113 0 -160 -119t-47 -399q0 -155 32 -219t108 -64t111 48
q36 48 64 190l318 20q-53 -240 -76 -436l-31 -33q-174 -66 -403 -75l-17 -56q76 -39 136 -93t61 -114q0 -88 -97 -151t-233 -64q-61 0 -114 29t-54 74q0 45 125 153h17v-16z" />
    <glyph glyph-name="Egrave" unicode="&#xc8;" horiz-adv-x="1200" 
d="M453 1528l-15 33l74 221l33 10q258 -111 510 -205l-43 -145l-39 -27q-190 50 -520 113zM755 545q-65 0 -175 -13q-29 -196 -29 -232t17 -50t65 -14q123 0 169 40t81 177l264 18l22 -31q-61 -199 -108 -422l-35 -32q-324 14 -572 14t-495 -20l41 188q76 12 108 50t42 130
q92 719 92 741q0 23 -6 39t-39 17l-52 -4l-20 28l39 162q287 -6 592 -6t497 25l23 -33q-63 -215 -96 -408l-287 -18q16 65 16 109t-37 62q-38 18 -108 17q-70 0 -83 -10t-19 -45l-41 -231l161 -2l219 12l21 -29l-57 -235q-145 6 -210 6z" />
    <glyph glyph-name="Eacute" unicode="&#xc9;" horiz-adv-x="1200" 
d="M1057 1561l-15 -33q-266 -49 -520 -113l-39 27l-43 145q211 78 510 205l33 -10zM755 545q-65 0 -175 -13q-29 -196 -29 -232t17 -50t65 -14q123 0 169 40t81 177l264 18l22 -31q-61 -199 -108 -422l-35 -32q-324 14 -572 14t-495 -20l41 188q76 12 108 50t42 130
q92 719 92 741q0 23 -6 39t-39 17l-52 -4l-20 28l39 162q287 -6 592 -6t497 25l23 -33q-63 -215 -96 -408l-287 -18q16 65 16 109t-37 62q-38 18 -108 17q-70 0 -83 -10t-19 -45l-41 -231l161 -2l219 12l21 -29l-57 -235q-145 6 -210 6z" />
    <glyph glyph-name="Ecircumflex" unicode="&#xca;" horiz-adv-x="1200" 
d="M852 1860q0 6 129 -112t190 -171l-88 -127l-49 -14q-90 41 -250 104q-102 -37 -274 -104l-45 14l-57 127q164 111 389 283h55zM755 545q-65 0 -175 -13q-29 -196 -29 -232t17 -50t65 -14q123 0 169 40t81 177l264 18l22 -31q-61 -199 -108 -422l-35 -32q-324 14 -572 14
t-495 -20l41 188q76 12 108 50t42 130q92 719 92 741q0 23 -6 39t-39 17l-52 -4l-20 28l39 162q287 -6 592 -6t497 25l23 -33q-63 -215 -96 -408l-287 -18q16 65 16 109t-37 62q-38 18 -108 17q-70 0 -83 -10t-19 -45l-41 -231l161 -2l219 12l21 -29l-57 -235q-145 6 -210 6
z" />
    <glyph glyph-name="Edieresis" unicode="&#xcb;" horiz-adv-x="1200" 
d="M571 1423q-143 0 -143 138q0 92 54 148t132 56q154 0 154 -139q0 -90 -54 -146t-143 -57zM956 1423q-145 0 -145 138q0 92 54 148t134 56q154 0 154 -139q-1 -90 -55 -146t-142 -57zM755 545q-65 0 -175 -13q-29 -196 -29 -232t17 -50t65 -14q123 0 169 40t81 177l264 18
l22 -31q-61 -199 -108 -422l-35 -32q-324 14 -572 14t-495 -20l41 188q76 12 108 50t42 130q92 719 92 741q0 23 -6 39t-39 17l-52 -4l-20 28l39 162q287 -6 592 -6t497 25l23 -33q-63 -215 -96 -408l-287 -18q16 65 16 109t-37 62q-38 18 -108 17q-70 0 -83 -10t-19 -45
l-41 -231l161 -2l219 12l21 -29l-57 -235q-145 6 -210 6z" />
    <glyph glyph-name="Igrave" unicode="&#xcc;" horiz-adv-x="735" 
d="M182 1528l-14 33l74 221l32 10q258 -111 510 -205l-43 -145l-39 -27q-190 50 -520 113zM547 261q0 -50 11 -66t40 -17l64 6l12 -20l-39 -172q-250 8 -334 8l-336 -10l37 174q82 18 110 50t38 118q92 735 92 758q0 22 -10 38t-52 17l-49 -2l-16 28l35 154h325l348 10
l-37 -184q-68 -9 -90 -29t-34 -78q-31 -167 -73 -450t-42 -333z" />
    <glyph glyph-name="Iacute" unicode="&#xcd;" horiz-adv-x="735" 
d="M813 1561l-14 -33q-266 -49 -520 -113l-39 27l-43 145q211 78 510 205l32 -10zM547 261q0 -50 11 -66t40 -17l64 6l12 -20l-39 -172q-250 8 -334 8l-336 -10l37 174q82 18 110 50t38 118q92 735 92 758q0 22 -10 38t-52 17l-49 -2l-16 28l35 154h325l348 10l-37 -184
q-68 -9 -90 -29t-34 -78q-31 -167 -73 -450t-42 -333z" />
    <glyph glyph-name="Icircumflex" unicode="&#xce;" horiz-adv-x="735" 
d="M567 1860q0 6 129 -112t191 -171l-88 -127l-49 -14q-90 41 -250 104q-102 -37 -275 -104l-45 14l-57 127q164 111 389 283h55zM547 261q0 -50 11 -66t40 -17l64 6l12 -20l-39 -172q-250 8 -334 8l-336 -10l37 174q82 18 110 50t38 118q92 735 92 758q0 22 -10 38t-52 17
l-49 -2l-16 28l35 154h325l348 10l-37 -184q-68 -9 -90 -29t-34 -78q-31 -167 -73 -450t-42 -333z" />
    <glyph glyph-name="Idieresis" unicode="&#xcf;" horiz-adv-x="735" 
d="M287 1423q-143 0 -144 138q1 92 55 148t134 56q152 0 151 -139q0 -90 -54 -146t-142 -57zM672 1423q-145 0 -146 138q0 92 54 148t135 56q154 0 153 -139q0 -90 -54 -146t-142 -57zM547 261q0 -50 11 -66t40 -17l64 6l12 -20l-39 -172q-250 8 -334 8l-336 -10l37 174
q82 18 110 50t38 118q92 735 92 758q0 22 -10 38t-52 17l-49 -2l-16 28l35 154h325l348 10l-37 -184q-68 -9 -90 -29t-34 -78q-31 -167 -73 -450t-42 -333z" />
    <glyph glyph-name="Eth" unicode="&#xd0;" horiz-adv-x="1392" 
d="M743 1077q-20 0 -30 -11q-11 -11 -17 -44t-45 -277l144 7l14 -21l-37 -184h-149q-35 -225 -35 -256q0 -59 53 -60q291 0 291 584q0 145 -42 204q-43 58 -147 58zM285 1087q0 53 -39 54l-64 -4l-16 28l39 166q223 -6 305 -6l313 12q281 0 431 -131t149 -383
q0 -383 -217 -615t-574 -233q-188 25 -313 25l-291 -16l41 190q74 12 104 47t44 123l24 201h-180l-18 16l49 182h174q39 324 39 344z" />
    <glyph glyph-name="Ntilde" unicode="&#xd1;" horiz-adv-x="1470" 
d="M777 1501q-49 0 -152 -119h-33l-107 111l4 33l191 235l35 8q36 1 152 -34t141 -35q47 0 127 90l26 29h33l106 -111l-4 -33l-190 -235l-35 -8q-37 0 -153 34t-141 35zM1055 1090q0 53 -56 55h-61l-8 22l31 166q223 -8 418 -8t198 6l-33 -184q-63 -8 -91 -37t-38 -92
l-151 -1018l-394 -25q-139 319 -307 670h-31q-38 -383 -38 -407t11 -42q11 -19 56 -20l66 8l16 -18l-43 -174q-224 8 -330 8t-295 -16l43 184q59 8 91 38q31 30 38 91q113 735 113 764t-20 49t-113 31l-21 28l31 166q150 -10 299 -10l262 8q115 -295 287 -651h31
q39 385 39 408z" />
    <glyph glyph-name="Ograve" unicode="&#xd2;" horiz-adv-x="1296" 
d="M481 1528l-14 33l74 221l32 10q258 -111 510 -205l-43 -145l-39 -27q-190 50 -520 113zM580 -25q-256 1 -400 143t-143 406q0 398 185 612t540 214q262 0 403 -136t142 -399q-1 -397 -189 -619t-538 -221zM635 233q106 -1 152 137t47 453q0 246 -134 246
q-102 0 -148 -138t-46 -452q0 -246 129 -246z" />
    <glyph glyph-name="Oacute" unicode="&#xd3;" horiz-adv-x="1296" 
d="M1081 1561l-14 -33q-266 -49 -520 -113l-39 27l-43 145q211 78 510 205l33 -10zM580 -25q-256 1 -400 143t-143 406q0 398 185 612t540 214q262 0 403 -136t142 -399q-1 -397 -189 -619t-538 -221zM635 233q106 -1 152 137t47 453q0 246 -134 246q-102 0 -148 -138
t-46 -452q0 -246 129 -246z" />
    <glyph glyph-name="Ocircumflex" unicode="&#xd4;" horiz-adv-x="1296" 
d="M848 1860q0 6 129 -112t190 -171l-88 -127l-49 -14q-90 41 -250 104q-102 -37 -274 -104l-45 14l-58 127q164 111 390 283h55zM580 -25q-256 1 -400 143t-143 406q0 398 185 612t540 214q262 0 403 -136t142 -399q-1 -397 -189 -619t-538 -221zM635 233q106 -1 152 137
t47 453q0 246 -134 246q-102 0 -148 -138t-46 -452q0 -246 129 -246z" />
    <glyph glyph-name="Otilde" unicode="&#xd5;" horiz-adv-x="1296" 
d="M675 1501q-50 0 -153 -119h-33l-106 111l4 33l191 235l34 8q37 1 153 -34t140 -35q47 0 127 90l27 29h33l106 -111l-4 -33l-190 -235l-35 -8q-37 0 -153 34t-141 35zM580 -25q-256 1 -400 143t-143 406q0 398 185 612t540 214q262 0 403 -136t142 -399q-1 -397 -189 -619
t-538 -221zM635 233q106 -1 152 137t47 453q0 246 -134 246q-102 0 -148 -138t-46 -452q0 -246 129 -246z" />
    <glyph glyph-name="Odieresis" unicode="&#xd6;" horiz-adv-x="1296" 
d="M567 1423q-143 0 -143 138q0 92 54 148t132 56q154 0 154 -139q0 -90 -54 -146t-143 -57zM952 1423q-145 0 -145 138q0 92 54 148t134 56q154 0 154 -139q-1 -90 -55 -146t-142 -57zM580 -25q-256 1 -400 143t-143 406q0 398 185 612t540 214q262 0 403 -136t142 -399
q-1 -397 -189 -619t-538 -221zM635 233q106 -1 152 137t47 453q0 246 -134 246q-102 0 -148 -138t-46 -452q0 -246 129 -246z" />
    <glyph glyph-name="multiply" unicode="&#xd7;" horiz-adv-x="1005" 
d="M776 932l29 -12l145 -209l-241 -228l196 -219l-16 -33l-236 -178l-184 217l-233 -217l-31 6l-135 213q106 100 219 203l-195 232l10 32l242 170q90 -113 180 -221z" />
    <glyph glyph-name="Oslash" unicode="&#xd8;" horiz-adv-x="1296" 
d="M635 233q106 -1 152 137t47 453q0 246 -134 246q-102 0 -148 -138t-46 -452q0 -246 129 -246zM37 524q0 398 185 612t540 214q113 0 209 -29l141 219l199 -110l4 -27l-135 -205q127 -139 127 -383q-1 -397 -189 -618t-538 -222q-109 0 -197 25l-162 -240l-194 113l-9 21
l156 229q-137 143 -137 401z" />
    <glyph glyph-name="Ugrave" unicode="&#xd9;" horiz-adv-x="1239" 
d="M465 1528l-14 33l73 221l33 10q258 -111 510 -205l-43 -145l-39 -27q-190 50 -520 113zM510 383q0 -147 121 -147q73 0 107 40t48 140q78 653 78 671q0 57 -41 58l-43 -4l-6 8l45 182q166 -6 238 -6l293 6l-39 -184q-63 -21 -81 -37t-24 -53l-71 -578q-35 -256 -175 -380
t-388 -124t-362 86t-114 265l88 766q0 24 -6 38t-39 15l-57 -4l-4 8l43 182q197 -6 356 -6l271 8l-43 -190q-53 -6 -77 -29t-30 -72l-84 -591q-4 -39 -4 -68z" />
    <glyph glyph-name="Uacute" unicode="&#xda;" horiz-adv-x="1239" 
d="M1069 1561l-14 -33q-266 -49 -520 -113l-39 27l-43 145q211 78 510 205l32 -10zM510 383q0 -147 121 -147q73 0 107 40t48 140q78 653 78 671q0 57 -41 58l-43 -4l-6 8l45 182q166 -6 238 -6l293 6l-39 -184q-63 -21 -81 -37t-24 -53l-71 -578q-35 -256 -175 -380
t-388 -124t-362 86t-114 265l88 766q0 24 -6 38t-39 15l-57 -4l-4 8l43 182q197 -6 356 -6l271 8l-43 -190q-53 -6 -77 -29t-30 -72l-84 -591q-4 -39 -4 -68z" />
    <glyph glyph-name="Ucircumflex" unicode="&#xdb;" horiz-adv-x="1239" 
d="M864 1860q0 6 129 -112t191 -171l-88 -127l-49 -14q-90 41 -250 104q-102 -37 -275 -104l-45 14l-57 127q164 111 389 283h55zM510 383q0 -147 121 -147q73 0 107 40t48 140q78 653 78 671q0 57 -41 58l-43 -4l-6 8l45 182q166 -6 238 -6l293 6l-39 -184q-63 -21 -81 -37
t-24 -53l-71 -578q-35 -256 -175 -380t-388 -124t-362 86t-114 265l88 766q0 24 -6 38t-39 15l-57 -4l-4 8l43 182q197 -6 356 -6l271 8l-43 -190q-53 -6 -77 -29t-30 -72l-84 -591q-4 -39 -4 -68z" />
    <glyph glyph-name="Udieresis" unicode="&#xdc;" horiz-adv-x="1239" 
d="M584 1423q-143 0 -144 138q0 92 54 148t133 56q154 0 153 -139q0 -90 -54 -146t-142 -57zM969 1423q-145 0 -146 138q1 92 55 148t134 56q154 0 153 -139q0 -90 -54 -146t-142 -57zM510 383q0 -147 121 -147q73 0 107 40t48 140q78 653 78 671q0 57 -41 58l-43 -4l-6 8
l45 182q166 -6 238 -6l293 6l-39 -184q-63 -21 -81 -37t-24 -53l-71 -578q-35 -256 -175 -380t-388 -124t-362 86t-114 265l88 766q0 24 -6 38t-39 15l-57 -4l-4 8l43 182q197 -6 356 -6l271 8l-43 -190q-53 -6 -77 -29t-30 -72l-84 -591q-4 -39 -4 -68z" />
    <glyph glyph-name="Yacute" unicode="&#xdd;" horiz-adv-x="1331" 
d="M1135 1561l-15 -33q-266 -49 -520 -113l-39 27l-43 145q211 78 510 205l33 -10zM680 1092q0 -68 68 -299h28l103 233q37 68 37 96t-70 27l-4 12l37 162h317l227 8l7 -16l-37 -178q-150 -84 -250 -258l-225 -373q-39 -72 -54 -191q-4 -25 -4 -53t16 -52t72 -24l103 7
l8 -13l-41 -192q-301 12 -418 12l-412 -18l39 188q129 10 173 41t52 101t9 83q0 68 -35 154l-164 407q-41 109 -172 172l-8 13l43 186q238 -4 303 -4l363 14l12 -22l-39 -168q-84 0 -84 -55z" />
    <glyph glyph-name="Thorn" unicode="&#xde;" horiz-adv-x="1208" 
d="M815 705q0 129 -153 129q-39 0 -46 -46q-20 -147 -34 -264q86 -20 118 -20q115 33 115 201zM799 1069q440 0 440 -332q0 -203 -154 -327t-395 -125h-141l-6 -47q-4 -36 7 -48t48 -12l84 6l14 -20l-39 -172q-266 8 -356 8l-336 -10l37 174q80 16 110 49t38 119
q92 735 92 758q0 22 -10 38t-52 17l-49 -2l-16 28l35 154h325l348 10l-37 -184q-76 -16 -94 -29q-20 -10 -28 -53h135z" />
    <glyph glyph-name="germandbls" unicode="&#xdf;" horiz-adv-x="1892" 
d="M1620 721q0 88 -98 88q-41 0 -67 -17t-25 -47q0 -45 114 -94q158 -63 209 -100q104 -80 105 -203q0 -172 -151 -269t-415 -97q-182 0 -344 69l-18 31q53 164 71 260l234 16q-2 -10 -2 -39t29 -67t88 -37q94 0 94 52t-118 95q-42 17 -44 17q-195 78 -245 184
q-22 47 -21 107q0 174 152 277q153 103 411 104q164 0 336 -45l18 -39q-49 -135 -80 -279l-217 -14l-20 14q4 31 4 33zM674 721q0 88 -99 88q-41 0 -67 -17t-25 -47q0 -45 115 -94q158 -63 209 -100q104 -80 104 -203q-1 -172 -151 -269t-414 -97q-182 0 -344 69l-18 31
q53 164 71 260l234 16q-2 -10 -2 -39q1 -29 29 -67t87 -37q94 0 95 51q0 54 -118 96q-42 17 -44 17q-195 78 -245 184q-22 47 -21 107q0 174 152 277q153 103 411 104q164 0 336 -45l18 -39q-49 -135 -80 -279l-217 -14l-20 14q4 31 4 33z" />
    <glyph glyph-name="agrave" unicode="&#xe0;" horiz-adv-x="1175" 
d="M565 487q39 0 76 2l-12 254h-41l-96 -256h73zM397 1233l-14 33l74 221l32 10q258 -111 510 -205l-43 -145l-38 -27q-191 50 -521 113zM387 174q0 -18 33 -18h39l14 -19l-31 -143q-160 4 -260 4h-225l29 149q57 16 86 80l344 797l499 27l25 -23q88 -635 102 -752t76 -126
l12 -19l-32 -135q-145 2 -242 2l-330 -6l-12 14l27 148q70 8 88 16t18 33l4 65l-116 2l-125 -6q-23 -84 -23 -90z" />
    <glyph glyph-name="aacute" unicode="&#xe1;" horiz-adv-x="1175" 
d="M565 487q39 0 76 2l-12 254h-41l-96 -256h73zM983 1266l-14 -33q-266 -49 -520 -113l-39 27l-43 145q211 78 510 205l32 -10zM387 174q0 -18 33 -18h39l14 -19l-31 -143q-160 4 -260 4h-225l29 149q57 16 86 80l344 797l499 27l25 -23q88 -635 102 -752t76 -126l12 -19
l-32 -135q-145 2 -242 2l-330 -6l-12 14l27 148q70 8 88 16t18 33l4 65l-116 2l-125 -6q-23 -84 -23 -90z" />
    <glyph glyph-name="acircumflex" unicode="&#xe2;" horiz-adv-x="1175" 
d="M565 487q39 0 76 2l-12 254h-41l-96 -256h73zM754 1565q0 6 129 -112t190 -171l-88 -127l-49 -14q-90 41 -250 104q-102 -37 -274 -104l-45 14l-58 127q164 111 389 283h56zM387 174q0 -18 33 -18h39l14 -19l-31 -143q-160 4 -260 4h-225l29 149q57 16 86 80l344 797
l499 27l25 -23q88 -635 102 -752t76 -126l12 -19l-32 -135q-145 2 -242 2l-330 -6l-12 14l27 148q70 8 88 16t18 33l4 65l-116 2l-125 -6q-23 -84 -23 -90z" />
    <glyph glyph-name="atilde" unicode="&#xe3;" horiz-adv-x="1175" 
d="M565 487q39 0 76 2l-12 254h-41l-96 -256h73zM579 1206q-52 0 -153 -119h-33l-106 111l4 33l190 235l35 9q37 0 153 -35t142 -35q45 0 125 90l27 29h32l107 -111l-4 -33l-191 -235l-35 -8q-36 1 -152 35t-141 34zM387 174q0 -18 33 -18h39l14 -19l-31 -143q-160 4 -260 4
h-225l29 149q57 16 86 80l344 797l499 27l25 -23q88 -635 102 -752t76 -126l12 -19l-32 -135q-145 2 -242 2l-330 -6l-12 14l27 148q70 8 88 16t18 33l4 65l-116 2l-125 -6q-23 -84 -23 -90z" />
    <glyph glyph-name="adieresis" unicode="&#xe4;" horiz-adv-x="1175" 
d="M565 487q39 0 76 2l-12 254h-41l-96 -256h73zM473 1128q-143 0 -143 138q0 92 54 148t132 56q154 0 154 -139q0 -91 -54 -147t-143 -56zM858 1128q-145 0 -145 138q0 92 54 148t134 56q154 0 154 -139q-1 -91 -55 -147t-142 -56zM387 174q0 -18 33 -18h39l14 -19
l-31 -143q-160 4 -260 4h-225l29 149q57 16 86 80l344 797l499 27l25 -23q88 -635 102 -752t76 -126l12 -19l-32 -135q-145 2 -242 2l-330 -6l-12 14l27 148q70 8 88 16t18 33l4 65l-116 2l-125 -6q-23 -84 -23 -90z" />
    <glyph glyph-name="aring" unicode="&#xe5;" horiz-adv-x="1175" 
d="M696 1245q29 -1 54 17t24 61q0 61 -69 61q-76 0 -76 -75q-1 -64 67 -64zM565 487q39 0 76 2l-12 254h-41l-96 -256h73zM728 1532q188 0 190 -187q0 -89 -71 -166t-170 -77q-192 0 -192 193q0 95 71 166t172 71zM387 174q0 -18 33 -18h39l14 -19l-31 -143q-160 4 -260 4
h-225l29 149q57 16 86 80l344 797l499 27l25 -23q88 -635 102 -752t76 -126l12 -19l-32 -135q-145 2 -242 2l-330 -6l-12 14l27 148q70 8 88 16t18 33l4 65l-116 2l-125 -6q-23 -84 -23 -90z" />
    <glyph glyph-name="ae" unicode="&#xe6;" horiz-adv-x="1613" 
d="M543 520l59 6l78 15l6 202h-41zM393 170q0 -14 90 -14l-6 -19l-28 -143q-8 4 -343 4h-135l15 152q72 18 102 77l318 604q-2 49 -37 50l-41 -4l-21 24l33 135q936 -12 1184 15l20 -27q-49 -176 -78 -326l-256 -16q12 49 13 81q0 32 -29 45q-30 13 -94 13t-64 -35l15 -182
l108 21l174 45l29 -31l-43 -201l-166 -22l-96 -19l2 -90q2 -106 69 -106q80 -1 112 31t60 135l238 14l21 -27q-51 -158 -91 -338l-30 -26q-375 10 -615 10l-291 -8l-12 14l29 146q69 8 93 20t24 88l6 74l-119 -23l-129 -41q-18 -70 -24 -82t-7 -18z" />
    <glyph glyph-name="ccedilla" unicode="&#xe7;" horiz-adv-x="1017" 
d="M371 -258q0 -98 82 -98q63 0 63 48t-158 130l60 164q-188 16 -287 127q-98 111 -98 309q0 631 618 631q137 0 387 -43l13 -37q-53 -150 -90 -352l-291 -17q18 94 18 123q0 82 -98 82q-78 0 -108 -79t-30 -244q0 -164 20 -208t74 -44t78 32q24 33 44 140l286 18
q-41 -195 -57 -354l-27 -27q-139 -47 -321 -57l-19 -62q76 -39 136 -93t61 -114q0 -88 -97 -151t-233 -64q-61 0 -114 29t-54 74q0 45 125 153h17v-16z" />
    <glyph glyph-name="egrave" unicode="&#xe8;" horiz-adv-x="1028" 
d="M336 1233l-14 33l73 221l33 10q258 -111 510 -205l-43 -145l-39 -27q-190 50 -520 113zM644 821q-52 0 -62 -8t-15 -31l-30 -157h131l178 8l18 -27l-47 -198q-119 4 -155 4t-160 -9q-33 -167 -5 -189q13 -11 75 -11t99 30q36 31 62 134l240 16l20 -27q-51 -158 -88 -340
l-33 -26q-260 10 -477 10t-430 -16l35 159q61 10 87 40t34 102q69 529 69 549q0 45 -34 45l-41 -2l-21 24l33 137q254 -6 515 -6t415 21l20 -29q-53 -176 -78 -328l-260 -14q14 47 15 79q0 60 -110 60z" />
    <glyph glyph-name="eacute" unicode="&#xe9;" horiz-adv-x="1028" 
d="M922 1266l-15 -33q-266 -49 -520 -113l-39 27l-43 145q211 78 510 205l33 -10zM644 821q-52 0 -62 -8t-15 -31l-30 -157h131l178 8l18 -27l-47 -198q-119 4 -155 4t-160 -9q-33 -167 -5 -189q13 -11 75 -11t99 30q36 31 62 134l240 16l20 -27q-51 -158 -88 -340l-33 -26
q-260 10 -477 10t-430 -16l35 159q61 10 87 40t34 102q69 529 69 549q0 45 -34 45l-41 -2l-21 24l33 137q254 -6 515 -6t415 21l20 -29q-53 -176 -78 -328l-260 -14q14 47 15 79q0 60 -110 60z" />
    <glyph glyph-name="ecircumflex" unicode="&#xea;" horiz-adv-x="1028" 
d="M721 1565q0 6 129 -112t190 -171l-88 -127l-49 -14q-90 41 -250 104q-102 -37 -274 -104l-45 14l-58 127q164 111 390 283h55zM644 821q-52 0 -62 -8t-15 -31l-30 -157h131l178 8l18 -27l-47 -198q-119 4 -155 4t-160 -9q-33 -167 -5 -189q13 -11 75 -11t99 30
q36 31 62 134l240 16l20 -27q-51 -158 -88 -340l-33 -26q-260 10 -477 10t-430 -16l35 159q61 10 87 40t34 102q69 529 69 549q0 45 -34 45l-41 -2l-21 24l33 137q254 -6 515 -6t415 21l20 -29q-53 -176 -78 -328l-260 -14q14 47 15 79q0 60 -110 60z" />
    <glyph glyph-name="edieresis" unicode="&#xeb;" horiz-adv-x="1028" 
d="M440 1128q-143 0 -143 138q0 92 54 148t132 56q154 0 154 -139q-1 -91 -55 -147t-142 -56zM825 1128q-145 0 -145 138q0 92 54 148t134 56q154 0 154 -139q0 -91 -54 -147t-143 -56zM644 821q-52 0 -62 -8t-15 -31l-30 -157h131l178 8l18 -27l-47 -198q-119 4 -155 4
t-160 -9q-33 -167 -5 -189q13 -11 75 -11t99 30q36 31 62 134l240 16l20 -27q-51 -158 -88 -340l-33 -26q-260 10 -477 10t-430 -16l35 159q61 10 87 40t34 102q69 529 69 549q0 45 -34 45l-41 -2l-21 24l33 137q254 -6 515 -6t415 21l20 -29q-53 -176 -78 -328l-260 -14
q14 47 15 79q0 60 -110 60z" />
    <glyph glyph-name="igrave" unicode="&#xec;" horiz-adv-x="641" 
d="M111 1233l-15 33l74 221l33 10q258 -111 510 -205l-43 -145l-39 -27q-190 50 -520 113zM479 216q0 -40 9 -52t32 -12l49 4l11 -19l-33 -143q-215 6 -285 6l-289 -6l29 147q68 14 90 39t29 90q69 548 69 566t-8 30t-43 13h-37q-6 8 -14 24l29 129h278l303 6l-30 -155
q-54 -9 -72 -23t-29 -59q-20 -107 -54 -326t-34 -259z" />
    <glyph glyph-name="iacute" unicode="&#xed;" horiz-adv-x="641" 
d="M715 1266l-15 -33q-266 -49 -520 -113l-39 27l-43 145q211 78 510 205l33 -10zM479 216q0 -40 9 -52t32 -12l49 4l11 -19l-33 -143q-215 6 -285 6l-289 -6l29 147q68 14 90 39t29 90q69 548 69 566t-8 30t-43 13h-37q-6 8 -14 24l29 129h278l303 6l-30 -155
q-54 -9 -72 -23t-29 -59q-20 -107 -54 -326t-34 -259z" />
    <glyph glyph-name="icircumflex" unicode="&#xee;" horiz-adv-x="641" 
d="M481 1565q0 6 129 -112t191 -171l-88 -127l-49 -14q-90 41 -250 104q-102 -37 -275 -104l-45 14l-57 127q164 111 389 283h55zM479 216q0 -40 9 -52t32 -12l49 4l11 -19l-33 -143q-215 6 -285 6l-289 -6l29 147q68 14 90 39t29 90q69 548 69 566t-8 30t-43 13h-37
q-6 8 -14 24l29 129h278l303 6l-30 -155q-54 -9 -72 -23t-29 -59q-20 -107 -54 -326t-34 -259z" />
    <glyph glyph-name="idieresis" unicode="&#xef;" horiz-adv-x="641" 
d="M209 1128q-143 0 -143 138q0 92 54 148t134 56q152 0 152 -139q0 -91 -54 -147t-143 -56zM594 1128q-145 0 -145 138q0 92 54 148t134 56q154 0 154 -139q-1 -91 -55 -147t-142 -56zM479 216q0 -40 9 -52t32 -12l49 4l11 -19l-33 -143q-215 6 -285 6l-289 -6l29 147
q68 14 90 39t29 90q69 548 69 566t-8 30t-43 13h-37q-6 8 -14 24l29 129h278l303 6l-30 -155q-54 -9 -72 -23t-29 -59q-20 -107 -54 -326t-34 -259z" />
    <glyph glyph-name="eth" unicode="&#xf0;" horiz-adv-x="1183" 
d="M633 817q-29 0 -39 -62q-2 -20 -6 -39l-7 -36q-3 -16 -7 -38t-9 -56l99 4l12 -17l-31 -159h-104q-25 -166 -25 -172q0 -41 25 -41q213 0 213 432q0 109 -24 147t-97 37zM229 825q0 51 -30 52l-52 -5l-16 25l33 141q197 -6 264 -6l264 10q483 0 484 -401q0 -303 -178 -481
t-478 -178q-156 18 -262 18l-248 -12l35 162q59 10 84 36t35 95l16 133h-141l-14 12l41 158h135q28 218 28 241z" />
    <glyph glyph-name="ntilde" unicode="&#xf1;" horiz-adv-x="1255" 
d="M628 1206q-52 0 -153 -119h-33l-106 111l4 33l190 235l35 9q37 0 153 -35t142 -35q45 0 125 90l27 29h32l107 -111l-4 -33l-191 -235l-34 -8q-37 1 -153 35t-141 34zM819 881h-49l-8 18l24 139q197 -6 367 -6t170 4l-27 -155q-52 -8 -74 -30t-30 -71l-117 -772l-362 -18
l-228 454h-28q-23 -221 -23 -241q0 -21 10 -37t50 -16l51 6l14 -15l-35 -147q-199 6 -268 6l-276 -12l36 155q49 6 74 30t33 71q86 544 86 568t-16 38t-93 24l-20 25l26 141q127 -8 263 -8l231 6q94 -225 215 -454h27l22 227q4 41 -5 55t-40 15z" />
    <glyph glyph-name="ograve" unicode="&#xf2;" horiz-adv-x="1097" 
d="M356 1233l-14 33l74 221l33 10q258 -111 509 -205l-43 -145l-38 -27q-191 50 -521 113zM492 -18q-219 0 -339 110t-120 326q0 635 596 635q459 0 458 -424q0 -313 -151 -480t-444 -167zM535 203q75 0 103 94t28 263t-20 210t-66 41q-70 0 -99 -94t-29 -263t20 -210
q18 -41 63 -41z" />
    <glyph glyph-name="oacute" unicode="&#xf3;" horiz-adv-x="1097" 
d="M936 1266l-14 -33q-266 -49 -521 -113l-39 27l-43 145q211 78 510 205l33 -10zM492 -18q-219 0 -339 110t-120 326q0 635 596 635q459 0 458 -424q0 -313 -151 -480t-444 -167zM535 203q75 0 103 94t28 263t-20 210t-66 41q-70 0 -99 -94t-29 -263t20 -210q18 -41 63 -41
z" />
    <glyph glyph-name="ocircumflex" unicode="&#xf4;" horiz-adv-x="1097" 
d="M713 1565q0 6 129 -112t190 -171l-88 -127l-49 -14q-90 41 -250 104q-102 -37 -274 -104l-45 14l-58 127q164 111 389 283h56zM492 -18q-219 0 -339 110t-120 326q0 635 596 635q459 0 458 -424q0 -313 -151 -480t-444 -167zM535 203q75 0 103 94t28 263t-20 210t-66 41
q-70 0 -99 -94t-29 -263t20 -210q18 -41 63 -41z" />
    <glyph glyph-name="otilde" unicode="&#xf5;" horiz-adv-x="1097" 
d="M536 1206q-52 0 -153 -119h-33l-106 111l4 33l190 235l35 9q37 0 153 -35t140 -35q47 0 127 90l27 29h32l107 -111l-4 -33l-191 -235l-35 -8q-37 1 -153 35t-140 34zM492 -18q-219 0 -339 110t-120 326q0 635 596 635q459 0 458 -424q0 -313 -151 -480t-444 -167z
M535 203q75 0 103 94t28 263t-20 210t-66 41q-70 0 -99 -94t-29 -263t20 -210q18 -41 63 -41z" />
    <glyph glyph-name="odieresis" unicode="&#xf6;" horiz-adv-x="1097" 
d="M432 1128q-143 0 -143 138q0 92 54 148t132 56q154 0 154 -139q-1 -91 -55 -147t-142 -56zM817 1128q-145 0 -145 138q0 92 54 148t134 56q154 0 154 -139q0 -91 -54 -147t-143 -56zM492 -18q-219 0 -339 110t-120 326q0 635 596 635q459 0 458 -424q0 -313 -151 -480
t-444 -167zM535 203q75 0 103 94t28 263t-20 210t-66 41q-70 0 -99 -94t-29 -263t20 -210q18 -41 63 -41z" />
    <glyph glyph-name="divide" unicode="&#xf7;" horiz-adv-x="1005" 
d="M524 705q-154 0 -153 141q0 96 54 152t136 57q154 0 154 -142q-1 -94 -56 -151t-135 -57zM469 315q154 0 154 -141q-1 -96 -55 -152t-134 -57q-154 0 -153 141q0 96 54 152t134 57zM983 674l10 -31l-61 -278l-899 -5l-15 27l70 277q276 -2 453 -2z" />
    <glyph glyph-name="oslash" unicode="&#xf8;" horiz-adv-x="1097" 
d="M535 203q75 0 103 94t28 263t-20 210t-66 41q-70 0 -99 -94t-29 -263t20 -210q18 -41 63 -41zM33 418q0 635 596 635q100 0 174 -21l143 195l197 -113l2 -22l-137 -187q80 -102 79 -276q0 -313 -151 -481q-152 -167 -444 -166q-78 0 -154 16l-148 -197l-192 117l-6 16
l137 181q-96 108 -96 303z" />
    <glyph glyph-name="ugrave" unicode="&#xf9;" horiz-adv-x="1046" 
d="M340 1233l-14 33l73 221l33 10q258 -111 510 -205l-43 -145l-39 -27q-190 50 -520 113zM446 303q0 -100 84 -100q49 -1 73 25t32 91q61 511 61 519q0 41 -32 41l-31 -2l-6 6l39 155q139 -6 198 -6l254 4l-33 -157q-49 -17 -63 -29t-18 -37l-54 -432q-28 -205 -144 -302
t-325 -97t-306 66t-99 202l67 588q0 18 -4 29t-30 12l-48 -2l-2 6l35 155q170 -6 312 -6l231 4l-37 -159q-78 -8 -84 -76q-70 -487 -70 -498z" />
    <glyph glyph-name="uacute" unicode="&#xfa;" horiz-adv-x="1046" 
d="M918 1266l-15 -33q-266 -49 -520 -113l-39 27l-43 145q211 78 510 205l33 -10zM446 303q0 -100 84 -100q49 -1 73 25t32 91q61 511 61 519q0 41 -32 41l-31 -2l-6 6l39 155q139 -6 198 -6l254 4l-33 -157q-49 -17 -63 -29t-18 -37l-54 -432q-28 -205 -144 -302t-325 -97
t-306 66t-99 202l67 588q0 18 -4 29t-30 12l-48 -2l-2 6l35 155q170 -6 312 -6l231 4l-37 -159q-78 -8 -84 -76q-70 -487 -70 -498z" />
    <glyph glyph-name="ucircumflex" unicode="&#xfb;" horiz-adv-x="1046" 
d="M725 1565q0 6 129 -112t190 -171l-88 -127l-49 -14q-90 41 -250 104q-102 -37 -274 -104l-45 14l-57 127q164 111 389 283h55zM446 303q0 -100 84 -100q49 -1 73 25t32 91q61 511 61 519q0 41 -32 41l-31 -2l-6 6l39 155q139 -6 198 -6l254 4l-33 -157q-49 -17 -63 -29
t-18 -37l-54 -432q-28 -205 -144 -302t-325 -97t-306 66t-99 202l67 588q0 18 -4 29t-30 12l-48 -2l-2 6l35 155q170 -6 312 -6l231 4l-37 -159q-78 -8 -84 -76q-70 -487 -70 -498z" />
    <glyph glyph-name="udieresis" unicode="&#xfc;" horiz-adv-x="1046" 
d="M444 1128q-143 0 -143 138q0 92 54 148t132 56q154 0 154 -139q-1 -91 -55 -147t-142 -56zM829 1128q-145 0 -145 138q0 92 54 148t134 56q154 0 154 -139q0 -91 -54 -147t-143 -56zM446 303q0 -100 84 -100q49 -1 73 25t32 91q61 511 61 519q0 41 -32 41l-31 -2l-6 6
l39 155q139 -6 198 -6l254 4l-33 -157q-49 -17 -63 -29t-18 -37l-54 -432q-28 -205 -144 -302t-325 -97t-306 66t-99 202l67 588q0 18 -4 29t-30 12l-48 -2l-2 6l35 155q170 -6 312 -6l231 4l-37 -159q-78 -8 -84 -76q-70 -487 -70 -498z" />
    <glyph glyph-name="yacute" unicode="&#xfd;" horiz-adv-x="1163" 
d="M991 1266l-14 -33q-266 -49 -520 -113l-39 27l-43 145q211 78 510 205l33 -10zM756 250q0 -52 14 -72t59 -20l86 6l9 -10l-35 -164q-264 10 -365 10l-360 -14l33 159q109 6 153 33t43 143q0 30 -31 97l-143 321q-27 57 -137 125l-8 8l37 162q209 -4 260 -4l309 10l12 -18
l-33 -143h-6q-55 0 -55 -40t47 -200h27l63 152q31 55 31 73t-53 17l-4 10l30 137l275 2l194 6l4 -12l-30 -154q-127 -78 -201 -198l-184 -291q-41 -78 -41 -131z" />
    <glyph glyph-name="thorn" unicode="&#xfe;" horiz-adv-x="1046" 
d="M676 547q0 88 -111 88q-33 0 -35 -39l-24 -176q76 -14 92 -14q78 26 78 141zM680 836q373 0 373 -267q0 -160 -127 -255t-330 -95h-117q-6 -55 2 -62t39 -7l68 6l12 -19l-33 -143q-231 6 -305 6l-289 -6l31 145q66 14 88 39t29 92q69 548 69 566t-8 31t-43 14l-37 -2
l-14 24l29 129h278l301 6l-30 -155q-60 -11 -76 -19t-21 -28h111z" />
    <glyph glyph-name="ydieresis" unicode="&#xff;" horiz-adv-x="1163" 
d="M500 1128q-143 0 -144 138q0 92 54 148t135 56q152 0 151 -139q0 -91 -54 -147t-142 -56zM885 1128q-145 0 -146 138q1 92 55 148t134 56q154 0 153 -139q0 -91 -54 -147t-142 -56zM756 250q0 -52 14 -72t59 -20l86 6l9 -10l-35 -164q-264 10 -365 10l-360 -14l33 159
q109 6 153 33t43 143q0 30 -31 97l-143 321q-27 57 -137 125l-8 8l37 162q209 -4 260 -4l309 10l12 -18l-33 -143h-6q-55 0 -55 -40t47 -200h27l63 152q31 55 31 73t-53 17l-4 10l30 137l275 2l194 6l4 -12l-30 -154q-127 -78 -201 -198l-184 -291q-41 -78 -41 -131z" />
    <glyph glyph-name="Amacron" unicode="&#x100;" horiz-adv-x="1353" 
d="M1128 1686l19 -37l-66 -224l-542 -4l-29 31l65 223q188 -2 306 -2zM659 616q14 0 101 5l-21 358h-45l-133 -363h98zM772 248v117q-133 4 -149 4l-158 -11q-39 -131 -39 -145q0 -31 47 -31h55l15 -20l-37 -170q-186 6 -307 6l-267 -2l35 178q74 18 113 113l432 1028
l547 33l28 -25q98 -788 127 -1010q8 -71 31 -101t66 -36l12 -20l-37 -162q-172 4 -282 4l-386 -10l-14 18l33 172q87 10 111 22t24 48z" />
    <glyph glyph-name="amacron" unicode="&#x101;" horiz-adv-x="1175" 
d="M565 487q39 0 76 2l-12 254h-41l-96 -256h73zM997 1391l19 -37l-66 -224l-542 -4l-29 31l65 223q188 -2 306 -2zM387 174q0 -18 33 -18h39l14 -19l-31 -143q-160 4 -260 4h-225l29 149q57 16 86 80l344 797l499 27l25 -23q88 -635 102 -752t76 -126l12 -19l-32 -135
q-145 2 -242 2l-330 -6l-12 14l27 148q70 8 88 16t18 33l4 65l-116 2l-125 -6q-23 -84 -23 -90z" />
    <glyph glyph-name="Abreve" unicode="&#x102;" horiz-adv-x="1353" 
d="M659 616q14 0 101 5l-21 358h-45l-133 -363h98zM829 1700q162 0 242 143l53 -14l66 -127q-50 -119 -150 -199t-243 -80t-225 80q-81 80 -101 199l98 127l58 14q18 -71 73 -107t129 -36zM772 248v117q-133 4 -149 4l-158 -11q-39 -131 -39 -145q0 -31 47 -31h55l15 -20
l-37 -170q-186 6 -307 6l-267 -2l35 178q74 18 113 113l432 1028l547 33l28 -25q98 -788 127 -1010q8 -71 31 -101t66 -36l12 -20l-37 -162q-172 4 -282 4l-386 -10l-14 18l33 172q87 10 111 22t24 48z" />
    <glyph glyph-name="abreve" unicode="&#x103;" horiz-adv-x="1175" 
d="M565 487q39 0 76 2l-12 254h-41l-96 -256h73zM696 1384q162 0 242 144l53 -15l66 -127q-51 -118 -151 -198t-242 -80q-143 0 -225 80q-81 80 -101 198l98 127l58 15q18 -70 73 -107t129 -37zM387 174q0 -18 33 -18h39l14 -19l-31 -143q-160 4 -260 4h-225l29 149
q57 16 86 80l344 797l499 27l25 -23q88 -635 102 -752t76 -126l12 -19l-32 -135q-145 2 -242 2l-330 -6l-12 14l27 148q70 8 88 16t18 33l4 65l-116 2l-125 -6q-23 -84 -23 -90z" />
    <glyph glyph-name="Aogonek" unicode="&#x104;" horiz-adv-x="1353" 
d="M659 616q14 0 101 5l-21 358h-45l-133 -363h98zM426 213q0 -31 47 -31h55l15 -20l-37 -170q-186 6 -307 6l-267 -2l35 178q74 18 113 113l432 1028l547 33l28 -25q98 -788 127 -1010q8 -71 31 -101t66 -36l12 -20l-37 -162q-43 2 -92 2q-90 -109 -119 -157t-29 -83
t19 -54q18 -19 56 -19t128 51l43 -82q-127 -111 -225 -148q-115 0 -178 44t-64 117q0 73 43 144t168 189h-32l-386 -10l-14 18l33 172q86 10 111 22t24 48v117q-133 4 -149 4l-158 -11q-39 -131 -39 -145z" />
    <glyph glyph-name="aogonek" unicode="&#x105;" horiz-adv-x="1175" 
d="M565 487q39 0 76 2l-12 254h-41l-96 -256h73zM891 -244q0 -73 74 -73q38 0 129 51l43 -82q-127 -111 -226 -148q-115 0 -178 44t-63 117t43 144t168 189h-25l-330 -6l-12 14l27 148q70 8 88 16t18 33l4 65l-116 2l-125 -6q-23 -84 -23 -90q0 -18 33 -18h39l14 -19
l-31 -143q-160 4 -260 4h-225l29 149q57 16 86 80l344 797l499 27l25 -23q88 -635 102 -752t76 -126l12 -19l-32 -135q-27 2 -58 2q-92 -109 -120 -158t-29 -84z" />
    <glyph glyph-name="Cacute" unicode="&#x106;" horiz-adv-x="1196" 
d="M1055 1561l-15 -33q-266 -49 -520 -113l-39 27l-43 145q211 78 510 205l33 -10zM572 -23q-257 -1 -396 143t-139 410q0 401 192 611q193 209 562 209q152 0 454 -54l12 -41q-66 -188 -110 -438l-320 -18q23 117 23 153q0 115 -135 115q-113 0 -160 -119t-47 -399
q0 -155 32 -219t108 -64t111 48q36 48 64 190l318 20q-53 -240 -76 -436l-31 -33q-205 -78 -462 -78z" />
    <glyph glyph-name="cacute" unicode="&#x107;" horiz-adv-x="1017" 
d="M905 1266l-14 -33q-266 -49 -520 -113l-39 27l-43 145q211 78 510 205l32 -10zM479 -16q-217 0 -332 112t-114 326q0 631 618 631q137 0 387 -43l13 -37q-53 -150 -90 -352l-291 -17q18 94 18 123q0 82 -98 82q-78 0 -108 -79t-30 -244q0 -164 20 -208t74 -44t78 32
q24 33 44 140l286 18q-41 -195 -57 -354l-27 -27q-174 -59 -391 -59z" />
    <glyph glyph-name="Ccircumflex" unicode="&#x108;" horiz-adv-x="1196" 
d="M494 1466l-78 127q156 127 372 320h56q156 -178 295 -320l-109 -127l-49 -14q-55 43 -205 141q-147 -82 -235 -141zM572 -23q-257 -1 -396 143t-139 410q0 401 192 611q193 209 562 209q152 0 454 -54l12 -41q-66 -188 -110 -438l-320 -18q23 117 23 153q0 115 -135 115
q-113 0 -160 -119t-47 -399q0 -155 32 -219t108 -64t111 48q36 48 64 190l318 20q-53 -240 -76 -436l-31 -33q-205 -78 -462 -78z" />
    <glyph glyph-name="ccircumflex" unicode="&#x109;" horiz-adv-x="1017" 
d="M356 1171l-77 127q156 127 372 320h56q156 -178 294 -320l-108 -127l-49 -14q-55 43 -205 141q-147 -82 -236 -141zM479 -16q-217 0 -332 112t-114 326q0 631 618 631q137 0 387 -43l13 -37q-53 -150 -90 -352l-291 -17q18 94 18 123q0 82 -98 82q-78 0 -108 -79
t-30 -244q0 -164 20 -208t74 -44t78 32q24 33 44 140l286 18q-41 -195 -57 -354l-27 -27q-174 -59 -391 -59z" />
    <glyph glyph-name="Cdotaccent" unicode="&#x10a;" horiz-adv-x="1196" 
d="M1016 1640q0 -108 -65 -175t-156 -66q-182 0 -183 164q0 111 65 177t159 66q180 0 180 -166zM572 -23q-257 -1 -396 143t-139 410q0 401 192 611q193 209 562 209q152 0 454 -54l12 -41q-66 -188 -110 -438l-320 -18q23 117 23 153q0 115 -135 115q-113 0 -160 -119
t-47 -399q0 -155 32 -219t108 -64t111 48q36 48 64 190l318 20q-53 -240 -76 -436l-31 -33q-205 -78 -462 -78z" />
    <glyph glyph-name="cdotaccent" unicode="&#x10b;" horiz-adv-x="1017" 
d="M469 1268q0 112 65 178t158 65q180 0 180 -165q1 -109 -64 -176t-157 -66q-182 0 -182 164zM479 -16q-217 0 -332 112t-114 326q0 631 618 631q137 0 387 -43l13 -37q-53 -150 -90 -352l-291 -17q18 94 18 123q0 82 -98 82q-78 0 -108 -79t-30 -244q0 -164 20 -208
t74 -44t78 32q24 33 44 140l286 18q-41 -195 -57 -354l-27 -27q-174 -59 -391 -59z" />
    <glyph glyph-name="Ccaron" unicode="&#x10c;" horiz-adv-x="1196" 
d="M1122 1819l60 -127q-182 -123 -391 -283h-56q-166 158 -317 283l86 127l49 14q47 -23 250 -104q102 37 274 104zM572 -23q-257 -1 -396 143t-139 410q0 401 192 611q193 209 562 209q152 0 454 -54l12 -41q-66 -188 -110 -438l-320 -18q23 117 23 153q0 115 -135 115
q-113 0 -160 -119t-47 -399q0 -155 32 -219t108 -64t111 48q36 48 64 190l318 20q-53 -240 -76 -436l-31 -33q-205 -78 -462 -78z" />
    <glyph glyph-name="ccaron" unicode="&#x10d;" horiz-adv-x="1017" 
d="M979 1524l59 -127q-182 -123 -391 -283h-55q-166 158 -318 283l86 127l50 14q47 -23 249 -104q102 37 275 104zM479 -16q-217 0 -332 112t-114 326q0 631 618 631q137 0 387 -43l13 -37q-53 -150 -90 -352l-291 -17q18 94 18 123q0 82 -98 82q-78 0 -108 -79t-30 -244
q0 -164 20 -208t74 -44t78 32q24 33 44 140l286 18q-41 -195 -57 -354l-27 -27q-174 -59 -391 -59z" />
    <glyph glyph-name="Dcaron" unicode="&#x10e;" horiz-adv-x="1351" 
d="M1126 1819l60 -127q-182 -123 -391 -283h-56q-166 158 -317 283l86 127l49 14q47 -23 250 -104q102 37 274 104zM702 1077q-20 0 -30 -11t-18 -53t-58 -371q-49 -329 -49 -355q0 -55 53 -56q291 0 291 584q0 145 -42 204q-43 58 -147 58zM244 1087q0 53 -39 54l-64 -4
l-16 28l39 166q223 -6 305 -6l313 12q280 0 430 -131t150 -383q0 -383 -217 -615t-574 -233q-188 25 -313 25l-291 -16l41 190q74 12 104 47t44 123q88 720 88 743z" />
    <glyph glyph-name="dcaron" unicode="&#x10f;" horiz-adv-x="1146" 
d="M989 1524l60 -127q-182 -123 -392 -283h-55q-166 158 -317 283l86 127l49 14q47 -23 250 -104q102 37 274 104zM596 817q-27 0 -35 -43q-4 12 -43 -258t-39 -274q0 -41 25 -41q213 0 213 432q-1 109 -25 147t-96 37zM193 825q0 51 -31 52l-51 -5l-17 25l33 141
q197 -6 264 -6l264 10q483 0 484 -401q0 -303 -178 -481t-478 -178q-156 18 -262 18l-248 -12l35 162q59 10 84 36t35 95q66 521 66 544z" />
    <glyph glyph-name="Dcroat" unicode="&#x110;" horiz-adv-x="1392" 
d="M743 1077q-20 0 -30 -11q-11 -11 -17 -44t-45 -277l144 7l14 -21l-37 -184h-149q-35 -225 -35 -256q0 -59 53 -60q291 0 291 584q0 145 -42 204q-43 58 -147 58zM285 1087q0 53 -39 54l-64 -4l-16 28l39 166q223 -6 305 -6l313 12q281 0 431 -131t149 -383
q0 -383 -217 -615t-574 -233q-188 25 -313 25l-291 -16l41 190q74 12 104 47t44 123l24 201h-180l-18 16l49 182h174q39 324 39 344z" />
    <glyph glyph-name="dcroat" unicode="&#x111;" horiz-adv-x="1183" 
d="M633 817q-29 0 -39 -62q-2 -20 -6 -39l-7 -36q-3 -16 -7 -38t-9 -56l99 4l12 -17l-31 -159h-104q-25 -166 -25 -172q0 -41 25 -41q213 0 213 432q0 109 -24 147t-97 37zM229 825q0 51 -30 52l-52 -5l-16 25l33 141q197 -6 264 -6l264 10q483 0 484 -401q0 -303 -178 -481
t-478 -178q-156 18 -262 18l-248 -12l35 162q59 10 84 36t35 95l16 133h-141l-14 12l41 158h135q28 218 28 241z" />
    <glyph glyph-name="Emacron" unicode="&#x112;" horiz-adv-x="1200" 
d="M1098 1686l18 -37l-65 -224l-543 -4l-29 31l66 223q188 -2 305 -2zM755 545q-65 0 -175 -13q-29 -196 -29 -232t17 -50t65 -14q123 0 169 40t81 177l264 18l22 -31q-61 -199 -108 -422l-35 -32q-324 14 -572 14t-495 -20l41 188q76 12 108 50t42 130q92 719 92 741
q0 23 -6 39t-39 17l-52 -4l-20 28l39 162q287 -6 592 -6t497 25l23 -33q-63 -215 -96 -408l-287 -18q16 65 16 109t-37 62q-38 18 -108 17q-70 0 -83 -10t-19 -45l-41 -231l161 -2l219 12l21 -29l-57 -235q-145 6 -210 6z" />
    <glyph glyph-name="emacron" unicode="&#x113;" horiz-adv-x="1028" 
d="M967 1391l18 -37l-65 -224l-543 -4l-29 31l66 223q188 -2 305 -2zM644 821q-52 0 -62 -8t-15 -31l-30 -157h131l178 8l18 -27l-47 -198q-119 4 -155 4t-160 -9q-33 -167 -5 -189q13 -11 75 -11t99 30q36 31 62 134l240 16l20 -27q-51 -158 -88 -340l-33 -26
q-260 10 -477 10t-430 -16l35 159q61 10 87 40t34 102q69 529 69 549q0 45 -34 45l-41 -2l-21 24l33 137q254 -6 515 -6t415 21l20 -29q-53 -176 -78 -328l-260 -14q14 47 15 79q0 60 -110 60z" />
    <glyph glyph-name="Ebreve" unicode="&#x114;" horiz-adv-x="1200" 
d="M767 1690q163 0 239 143l55 -14l65 -127q-51 -119 -150 -199q-98 -80 -242 -80t-225 80t-101 199l96 127l57 14q43 -143 206 -143zM755 545q-65 0 -175 -13q-29 -196 -29 -232t17 -50t65 -14q123 0 169 40t81 177l264 18l22 -31q-61 -199 -108 -422l-35 -32
q-324 14 -572 14t-495 -20l41 188q76 12 108 50t42 130q92 719 92 741q0 23 -6 39t-39 17l-52 -4l-20 28l39 162q287 -6 592 -6t497 25l23 -33q-63 -215 -96 -408l-287 -18q16 65 16 109t-37 62q-38 18 -108 17q-70 0 -83 -10t-19 -45l-41 -231l161 -2l219 12l21 -29
l-57 -235q-145 6 -210 6z" />
    <glyph glyph-name="ebreve" unicode="&#x115;" horiz-adv-x="1028" 
d="M655 1384q162 0 242 144l53 -15l66 -127q-50 -118 -150 -198t-243 -80t-225 80q-81 80 -101 198l98 127l58 15q18 -70 73 -107t129 -37zM644 821q-52 0 -62 -8t-15 -31l-30 -157h131l178 8l18 -27l-47 -198q-119 4 -155 4t-160 -9q-33 -167 -5 -189q13 -11 75 -11t99 30
q36 31 62 134l240 16l20 -27q-51 -158 -88 -340l-33 -26q-260 10 -477 10t-430 -16l35 159q61 10 87 40t34 102q69 529 69 549q0 45 -34 45l-41 -2l-21 24l33 137q254 -6 515 -6t415 21l20 -29q-53 -176 -78 -328l-260 -14q14 47 15 79q0 60 -110 60z" />
    <glyph glyph-name="Edotaccent" unicode="&#x116;" horiz-adv-x="1200" 
d="M594 1563q0 111 64 177t157 66q182 0 182 -166q1 -108 -64 -175t-159 -66q-180 0 -180 164zM755 545q-65 0 -175 -13q-29 -196 -29 -232t17 -50t65 -14q123 0 169 40t81 177l264 18l22 -31q-61 -199 -108 -422l-35 -32q-324 14 -572 14t-495 -20l41 188q76 12 108 50
t42 130q92 719 92 741q0 23 -6 39t-39 17l-52 -4l-20 28l39 162q287 -6 592 -6t497 25l23 -33q-63 -215 -96 -408l-287 -18q16 65 16 109t-37 62q-38 18 -108 17q-70 0 -83 -10t-19 -45l-41 -231l161 -2l219 12l21 -29l-57 -235q-145 6 -210 6z" />
    <glyph glyph-name="edotaccent" unicode="&#x117;" horiz-adv-x="1028" 
d="M463 1268q1 112 65 178t156 65q182 0 182 -165q1 -109 -64 -176t-159 -66q-180 0 -180 164zM644 821q-52 0 -62 -8t-15 -31l-30 -157h131l178 8l18 -27l-47 -198q-119 4 -155 4t-160 -9q-33 -167 -5 -189q13 -11 75 -11t99 30q36 31 62 134l240 16l20 -27
q-51 -158 -88 -340l-33 -26q-260 10 -477 10t-430 -16l35 159q61 10 87 40t34 102q69 529 69 549q0 45 -34 45l-41 -2l-21 24l33 137q254 -6 515 -6t415 21l20 -29q-53 -176 -78 -328l-260 -14q14 47 15 79q0 60 -110 60z" />
    <glyph glyph-name="Eogonek" unicode="&#x118;" horiz-adv-x="1200" 
d="M821 -244q0 -73 75 -73q38 0 128 51l43 -82q-127 -111 -225 -148q-115 0 -178 44t-64 117q0 73 42 141t165 188q-176 6 -389 6t-459 -20l41 188q76 12 108 50t42 130q92 719 92 741q0 23 -6 39t-39 17l-52 -4l-20 28l39 162q287 -6 592 -6t497 25l23 -33
q-63 -215 -96 -408l-287 -18q16 65 16 109t-37 62q-38 18 -108 17q-70 0 -83 -10t-19 -45l-41 -231l161 -2l219 12l21 -29l-57 -235q-145 6 -210 6t-175 -13q-29 -196 -29 -232t17 -50t65 -14q123 0 169 40t81 177l264 18l22 -31q-61 -199 -108 -422l-35 -32q-25 2 -63 4
q-88 -104 -115 -152t-27 -82z" />
    <glyph glyph-name="eogonek" unicode="&#x119;" horiz-adv-x="1028" 
d="M694 -244q0 -73 75 -73q38 0 128 51l43 -82q-127 -111 -225 -148q-115 0 -178 44t-64 117q0 73 43 144t166 187q-192 4 -348 4t-369 -16l35 159q61 10 87 40t34 102q69 529 69 549q0 45 -34 45l-41 -2l-21 24l33 137q254 -6 515 -6t415 21l20 -29q-53 -176 -78 -328
l-260 -14q14 47 15 79q0 60 -110 60q-52 0 -62 -8t-15 -31l-30 -157h131l178 8l18 -27l-47 -198q-119 4 -155 4t-160 -9q-33 -167 -5 -189q13 -11 75 -11t99 30q36 31 62 134l240 16l20 -27q-51 -158 -88 -340l-33 -26q-16 2 -34 2q-88 -106 -116 -154t-28 -82z" />
    <glyph glyph-name="Ecaron" unicode="&#x11a;" horiz-adv-x="1200" 
d="M1124 1819l60 -127q-182 -123 -391 -283h-56q-166 158 -317 283l86 127l49 14q47 -23 250 -104q102 37 274 104zM755 545q-65 0 -175 -13q-29 -196 -29 -232t17 -50t65 -14q123 0 169 40t81 177l264 18l22 -31q-61 -199 -108 -422l-35 -32q-324 14 -572 14t-495 -20
l41 188q76 12 108 50t42 130q92 719 92 741q0 23 -6 39t-39 17l-52 -4l-20 28l39 162q287 -6 592 -6t497 25l23 -33q-63 -215 -96 -408l-287 -18q16 65 16 109t-37 62q-38 18 -108 17q-70 0 -83 -10t-19 -45l-41 -231l161 -2l219 12l21 -29l-57 -235q-145 6 -210 6z" />
    <glyph glyph-name="ecaron" unicode="&#x11b;" horiz-adv-x="1028" 
d="M991 1524l60 -127q-182 -123 -392 -283h-55q-166 158 -317 283l86 127l49 14q47 -23 250 -104q102 37 274 104zM644 821q-52 0 -62 -8t-15 -31l-30 -157h131l178 8l18 -27l-47 -198q-119 4 -155 4t-160 -9q-33 -167 -5 -189q13 -11 75 -11t99 30q36 31 62 134l240 16
l20 -27q-51 -158 -88 -340l-33 -26q-260 10 -477 10t-430 -16l35 159q61 10 87 40t34 102q69 529 69 549q0 45 -34 45l-41 -2l-21 24l33 137q254 -6 515 -6t415 21l20 -29q-53 -176 -78 -328l-260 -14q14 47 15 79q0 60 -110 60z" />
    <glyph glyph-name="Gcircumflex" unicode="&#x11c;" horiz-adv-x="1265" 
d="M508 1466l-78 127q156 127 373 320h55q156 -178 295 -320l-109 -127l-49 -14q-55 43 -204 141q-147 -82 -236 -141zM571 -23q-256 -1 -395 143t-139 410q0 401 192 611q193 209 562 209q152 0 454 -54l12 -41q-66 -160 -110 -409l-320 -19q23 94 23 131q0 109 -135 109
q-113 0 -160 -119t-47 -399q0 -155 32 -219t99 -64t121 25q16 150 16 167t-8 31t-43 15l-63 -2l-15 28l47 195h307q221 0 222 10l6 -119q-82 -51 -99 -153q-41 -213 -40 -307l2 -78l-29 -33q-166 -68 -492 -68z" />
    <glyph glyph-name="gcircumflex" unicode="&#x11d;" horiz-adv-x="1075" 
d="M373 1171l-78 127q156 127 373 320h55q156 -178 295 -320l-109 -127l-49 -14q-55 43 -205 141q-147 -82 -235 -141zM483 -16q-215 0 -329 110t-115 320q0 637 625 637q129 0 387 -41l12 -35q-55 -127 -94 -328l-289 -16q20 76 20 102q0 78 -100 78q-80 0 -111 -85
t-31 -249t20 -205q18 -41 66 -41t85 13l10 84q4 35 -3 48t-34 13l-45 -2l-14 27l41 161q180 3 315 3t135 8l4 -103q-68 -41 -82 -116q-35 -162 -34 -246v-62l-25 -28q-135 -47 -414 -47z" />
    <glyph glyph-name="Gbreve" unicode="&#x11e;" horiz-adv-x="1265" 
d="M805 1700q162 0 242 143l53 -14l65 -127q-51 -119 -150 -199t-243 -80t-224 80q-81 80 -102 199l99 127l57 14q18 -71 74 -107t129 -36zM571 -23q-256 -1 -395 143t-139 410q0 401 192 611q193 209 562 209q152 0 454 -54l12 -41q-66 -160 -110 -409l-320 -19
q23 94 23 131q0 109 -135 109q-113 0 -160 -119t-47 -399q0 -155 32 -219t99 -64t121 25q16 150 16 167t-8 31t-43 15l-63 -2l-15 28l47 195h307q221 0 222 10l6 -119q-82 -51 -99 -153q-41 -213 -40 -307l2 -78l-29 -33q-166 -68 -492 -68z" />
    <glyph glyph-name="gbreve" unicode="&#x11f;" horiz-adv-x="1075" 
d="M664 1405q162 0 241 143l53 -14l66 -127q-50 -119 -150 -199t-243 -80t-224 80t-102 199l98 127l58 14q17 -70 73 -106t130 -37zM483 -16q-215 0 -329 110t-115 320q0 637 625 637q129 0 387 -41l12 -35q-55 -127 -94 -328l-289 -16q20 76 20 102q0 78 -100 78
q-80 0 -111 -85t-31 -249t20 -205q18 -41 66 -41t85 13l10 84q4 35 -3 48t-34 13l-45 -2l-14 27l41 161q180 3 315 3t135 8l4 -103q-68 -41 -82 -116q-35 -162 -34 -246v-62l-25 -28q-135 -47 -414 -47z" />
    <glyph glyph-name="Gdotaccent" unicode="&#x120;" horiz-adv-x="1265" 
d="M627 1563q1 111 65 177t156 66q182 0 182 -166q1 -108 -64 -175t-159 -66q-180 0 -180 164zM571 -23q-256 -1 -395 143t-139 410q0 401 192 611q193 209 562 209q152 0 454 -54l12 -41q-66 -160 -110 -409l-320 -19q23 94 23 131q0 109 -135 109q-113 0 -160 -119
t-47 -399q0 -155 32 -219t99 -64t121 25q16 150 16 167t-8 31t-43 15l-63 -2l-15 28l47 195h307q221 0 222 10l6 -119q-82 -51 -99 -153q-41 -213 -40 -307l2 -78l-29 -33q-166 -68 -492 -68z" />
    <glyph glyph-name="gdotaccent" unicode="&#x121;" horiz-adv-x="1075" 
d="M889 1346q0 -109 -65 -176t-156 -66q-182 0 -183 164q0 112 65 178t159 65q180 0 180 -165zM483 -16q-215 0 -329 110t-115 320q0 637 625 637q129 0 387 -41l12 -35q-55 -127 -94 -328l-289 -16q20 76 20 102q0 78 -100 78q-80 0 -111 -85t-31 -249t20 -205
q18 -41 66 -41t85 13l10 84q4 35 -3 48t-34 13l-45 -2l-14 27l41 161q180 3 315 3t135 8l4 -103q-68 -41 -82 -116q-35 -162 -34 -246v-62l-25 -28q-135 -47 -414 -47z" />
    <glyph glyph-name="Gcommaaccent" unicode="&#x122;" horiz-adv-x="1265" 
d="M426 -327q0 73 -59 139l6 28q117 90 201 90t134 -56q48 -56 48 -158t-92 -217q-92 -116 -250 -206l-119 95v51q131 95 131 234zM571 -23q-256 -1 -395 143t-139 410q0 401 192 611q193 209 562 209q152 0 454 -54l12 -41q-66 -160 -110 -409l-320 -19q23 94 23 131
q0 109 -135 109q-113 0 -160 -119t-47 -399q0 -155 32 -219t99 -64t121 25q16 150 16 167t-8 31t-43 15l-63 -2l-15 28l47 195h307q221 0 222 10l6 -119q-82 -51 -99 -153q-41 -213 -40 -307l2 -78l-29 -33q-166 -68 -492 -68z" />
    <glyph glyph-name="gcommaaccent" unicode="&#x123;" horiz-adv-x="1075" 
d="M505 -70q85 0 133 -56t48 -158t-92 -217q-92 -116 -250 -206l-119 95v51q133 97 131 234q0 73 -59 139l6 28q117 90 202 90zM483 -16q-215 0 -329 110t-115 320q0 637 625 637q129 0 387 -41l12 -35q-55 -127 -94 -328l-289 -16q20 76 20 102q0 78 -100 78
q-80 0 -111 -85t-31 -249t20 -205q18 -41 66 -41t85 13l10 84q4 35 -3 48t-34 13l-45 -2l-14 27l41 161q180 3 315 3t135 8l4 -103q-68 -41 -82 -116q-35 -162 -34 -246v-62l-25 -28q-135 -47 -414 -47z" />
    <glyph glyph-name="Hcircumflex" unicode="&#x124;" horiz-adv-x="1466" 
d="M582 1520l-78 127q156 127 373 319h55q156 -178 295 -319l-109 -127l-49 -15q-55 43 -205 142q-147 -82 -235 -142zM1280 272q0 -90 63 -90l56 6l14 -22l-39 -170q-113 2 -244 4h-100l-336 -2l37 178q70 2 105 37t45 119l26 209q-59 2 -108 2l-221 -19q-31 -256 -31 -286
t11 -45q11 -14 40 -15l53 6l15 -20l-39 -172q-248 8 -330 8l-332 -10l37 174q80 16 109 49t39 119q92 735 92 758q0 22 -10 38t-52 17l-51 -2l-14 28l35 154h258l405 10l-37 -184q-63 -11 -86 -31t-31 -76l-41 -247l158 -6q109 0 162 6q35 270 35 292q0 23 -10 39t-52 17
l-53 -2l-14 28l35 154h381l301 10l-35 -180q-74 -13 -99 -33t-43 -114t-61 -388t-43 -348z" />
    <glyph glyph-name="hcircumflex" unicode="&#x125;" horiz-adv-x="1245" 
d="M430 1225l-78 127q156 127 373 319h55q156 -178 295 -319l-108 -127l-49 -15q-55 43 -205 142q-147 -82 -236 -142zM479 193q0 -41 41 -41l41 4l12 -19l-30 -143q-223 6 -279 6t-129 -2q-72 -2 -164 -4l31 147q63 12 87 35t32 84q69 558 69 576t-8 30t-43 13h-41l-12 24
l29 129h217l358 6l-31 -155q-51 -9 -68 -23t-24 -49l-32 -180l112 -6q80 0 121 4q25 179 25 201q-1 22 -9 35t-43 14h-43l-12 24l29 129h336l258 6l-31 -151q-60 -9 -80 -25t-34 -78t-47 -288q-34 -227 -34 -271q0 -70 54 -69l41 4l14 -21l-33 -141q-88 0 -203 2h-86
l-299 -2l31 152q106 2 121 112l20 148q-35 2 -71 2l-170 -15q-23 -186 -23 -204z" />
    <glyph glyph-name="Hbar" unicode="&#x126;" horiz-adv-x="1466" 
d="M950 895h-315l-17 -98l158 -6q109 0 162 6zM1280 279q0 -96 63 -97l56 6l14 -22l-39 -170q-113 2 -244 4h-100l-336 -2l37 178q70 2 105 37t45 119l26 209q-59 2 -108 2l-221 -19q-31 -256 -31 -286t11 -45q11 -14 40 -15l53 6l15 -20l-39 -172q-248 8 -330 8l-332 -10
l37 174q80 16 109 49t39 119l69 561h-166l-22 20l16 119q80 -2 189 -2q6 26 6 54t-10 44t-52 17l-51 -2l-14 28l35 154h258l405 10l-37 -184q-63 -11 -86 -31t-33 -90h310q6 28 6 54t-10 43t-52 18l-53 -2l-14 28l35 154h381l301 10l-35 -180q-74 -12 -98 -33t-35 -78l-2 -8
l151 4l31 -30l-10 -113l-197 -2q-86 -520 -86 -616z" />
    <glyph glyph-name="hbar" unicode="&#x127;" horiz-adv-x="1245" 
d="M776 692h-231l-10 -61l112 -6q80 0 121 4zM479 193q0 -41 41 -41l41 4l12 -19l-30 -143q-223 6 -279 6t-129 -2q-72 -2 -164 -4l31 147q63 12 87 35t32 84l53 430h-135l-19 17l13 98q66 -2 155 -2q6 45 -5 60t-44 16h-41l-12 24l29 129h217l358 6l-31 -155
q-51 -10 -69 -23q-12 -12 -25 -57h226q3 45 -7 60t-43 16h-43l-12 24l29 129h336l258 6l-31 -151q-58 -11 -78 -25t-29 -55l121 4l27 -25l-8 -92l-162 -2q-66 -371 -66 -467q0 -70 54 -69l41 4l14 -21l-33 -141q-88 0 -203 2h-86l-299 -2l31 152q106 2 121 112l20 148
q-35 2 -71 2l-170 -15q-23 -186 -23 -204z" />
    <glyph glyph-name="Itilde" unicode="&#x128;" horiz-adv-x="735" 
d="M625 1751q45 0 125 88l26 31h33l109 -111l-5 -33l-190 -235l-35 -8q-38 0 -154 35t-142 34q-48 0 -150 -118h-33l-109 110l4 33l191 235l35 9q36 0 153 -35t142 -35zM547 261q0 -50 11 -66t40 -17l64 6l12 -20l-39 -172q-250 8 -334 8l-336 -10l37 174q82 18 110 50
t38 118q92 735 92 758q0 22 -10 38t-52 17l-49 -2l-16 28l35 154h325l348 10l-37 -184q-68 -9 -90 -29t-34 -78q-31 -167 -73 -450t-42 -333z" />
    <glyph glyph-name="itilde" unicode="&#x129;" horiz-adv-x="641" 
d="M539 1456q45 0 125 88l26 31h33l108 -111l-4 -32l-190 -236l-35 -8q-38 0 -154 35t-142 34q-48 0 -150 -118h-33l-109 110l4 33l191 236l35 8q36 0 153 -35t142 -35zM479 216q0 -40 9 -52t32 -12l49 4l11 -19l-33 -143q-215 6 -285 6l-289 -6l29 147q68 14 90 39t29 90
q69 548 69 566t-8 30t-43 13h-37q-6 8 -14 24l29 129h278l303 6l-30 -155q-54 -9 -72 -23t-29 -59q-20 -107 -54 -326t-34 -259z" />
    <glyph glyph-name="Imacron" unicode="&#x12a;" horiz-adv-x="735" 
d="M813 1686l18 -37l-65 -224l-543 -4l-28 31l65 223q188 -2 305 -2zM547 261q0 -50 11 -66t40 -17l64 6l12 -20l-39 -172q-250 8 -334 8l-336 -10l37 174q82 18 110 50t38 118q92 735 92 758q0 22 -10 38t-52 17l-49 -2l-16 28l35 154h325l348 10l-37 -184q-68 -9 -90 -29
t-34 -78q-31 -167 -73 -450t-42 -333z" />
    <glyph glyph-name="imacron" unicode="&#x12b;" horiz-adv-x="641" 
d="M727 1391l18 -37l-65 -224l-543 -4l-28 31l65 223q188 -2 305 -2zM479 216q0 -40 9 -52t32 -12l49 4l11 -19l-33 -143q-215 6 -285 6l-289 -6l29 147q68 14 90 39t29 90q69 548 69 566t-8 30t-43 13h-37q-6 8 -14 24l29 129h278l303 6l-30 -155q-54 -9 -72 -23t-29 -59
q-20 -107 -54 -326t-34 -259z" />
    <glyph glyph-name="Ibreve" unicode="&#x12c;" horiz-adv-x="735" 
d="M520 1700q162 0 242 143l53 -14l66 -127q-51 -119 -151 -199t-242 -80q-144 0 -225 80t-101 199l98 127l57 14q17 -71 73 -107t130 -36zM547 261q0 -50 11 -66t40 -17l64 6l12 -20l-39 -172q-250 8 -334 8l-336 -10l37 174q82 18 110 50t38 118q92 735 92 758
q0 22 -10 38t-52 17l-49 -2l-16 28l35 154h325l348 10l-37 -184q-68 -9 -90 -29t-34 -78q-31 -167 -73 -450t-42 -333z" />
    <glyph glyph-name="ibreve" unicode="&#x12d;" horiz-adv-x="641" 
d="M424 1384q162 0 242 144l53 -15l65 -127q-51 -118 -150 -198q-98 -80 -242 -80t-225 80t-101 198l98 127l57 15q17 -70 73 -107t130 -37zM479 216q0 -40 9 -52t32 -12l49 4l11 -19l-33 -143q-215 6 -285 6l-289 -6l29 147q68 14 90 39t29 90q69 548 69 566t-8 30t-43 13
h-37q-6 8 -14 24l29 129h278l303 6l-30 -155q-54 -9 -72 -23t-29 -59q-20 -107 -54 -326t-34 -259z" />
    <glyph glyph-name="Iogonek" unicode="&#x12e;" horiz-adv-x="735" 
d="M393 -244q0 -73 75 -73q38 0 128 51l43 -82q-127 -111 -225 -148q-115 0 -178 44t-64 117q0 73 43 144t170 191h-84l-336 -10l37 174q82 18 110 50t38 118q92 735 92 758q0 22 -10 38t-52 17l-49 -2l-16 28l35 154h325l348 10l-37 -184q-68 -9 -90 -29t-34 -78
q-31 -168 -73 -450t-42 -333q0 -50 11 -66t40 -17l64 6l12 -20l-39 -172q-45 2 -94 4q-90 -109 -119 -157t-29 -83z" />
    <glyph glyph-name="iogonek" unicode="&#x12f;" horiz-adv-x="641" 
d="M336 -244q0 -73 74 -73q38 0 129 51l43 -82q-127 -111 -226 -148q-115 0 -178 44t-63 117t43 144t170 191h-66l-289 -6l29 147q68 14 90 39t29 90q69 548 69 566t-8 30t-43 13h-37q-6 8 -14 24l29 129h278l303 6l-30 -155q-54 -9 -72 -23t-29 -59q-20 -105 -54 -325
t-34 -260t9 -52t32 -12l49 4l11 -19l-33 -143q-29 2 -64 2q-91 -109 -119 -157t-28 -83z" />
    <glyph glyph-name="Idotaccent" unicode="&#x130;" horiz-adv-x="735" 
d="M648 1465q-65 -67 -156 -66q-182 0 -183 164q0 111 65 177t158 66q180 0 181 -166q0 -108 -65 -175zM547 261q0 -50 11 -66t40 -17l64 6l12 -20l-39 -172q-250 8 -334 8l-336 -10l37 174q82 18 110 50t38 118q92 735 92 758q0 22 -10 38t-52 17l-49 -2l-16 28l35 154h325
l348 10l-37 -184q-68 -9 -90 -29t-34 -78q-31 -167 -73 -450t-42 -333z" />
    <glyph glyph-name="dotlessi" unicode="&#x131;" horiz-adv-x="641" 
d="M479 216q0 -40 9 -52t32 -12l49 4l11 -19l-33 -143q-215 6 -285 6l-289 -6l29 147q68 14 90 39t29 90q69 548 69 566t-8 30t-43 13h-37q-6 8 -14 24l29 129h278l303 6l-30 -155q-54 -9 -72 -23t-29 -59q-20 -107 -54 -326t-34 -259z" />
    <glyph glyph-name="IJ" unicode="&#x132;" horiz-adv-x="1409" 
d="M862 270q98 801 99 823q1 23 -7 37t-47 15l-71 -4l-15 28l35 156l285 2l387 14l-41 -190q-59 -13 -77 -31q-48 -48 -159 -946q-29 -198 -169 -320t-418 -190l-72 98l8 31q133 96 184 187t78 290zM547 261q0 -50 11 -66t40 -17l64 6l12 -20l-39 -172q-250 8 -334 8
l-336 -10l37 174q82 18 110 50t38 118q92 735 92 758q0 22 -10 38t-52 17l-49 -2l-16 28l35 154h325l348 10l-37 -184q-68 -9 -90 -29t-34 -78q-31 -167 -73 -450t-42 -333z" />
    <glyph glyph-name="ij" unicode="&#x133;" horiz-adv-x="1204" 
d="M479 216q0 -40 9 -52t32 -12l49 4l11 -19l-33 -143q-215 6 -285 6l-289 -6l29 147q68 14 90 39t29 90q69 548 69 566t-8 30t-43 13h-37q-6 8 -14 24l29 129h278l303 6l-30 -155q-54 -9 -72 -23t-29 -59q-20 -107 -54 -326t-34 -259zM715 215q73 605 73 623t-5 30t-38 13
l-55 -4l-14 26l29 129l243 2l338 10l-35 -161q-47 -11 -60 -25q-41 -46 -126 -731q-23 -152 -143 -247t-363 -146l-65 80l6 26q113 78 154 148t61 227z" />
    <glyph glyph-name="Jcircumflex" unicode="&#x134;" horiz-adv-x="673" 
d="M213 1466l-78 127q156 127 373 320h55q156 -178 295 -320l-108 -127l-50 -14q-55 43 -204 141q-147 -82 -236 -141zM225 1093q0 23 -7 37t-46 15l-72 -4l-14 28l35 156l285 2l387 14l-41 -190q-58 -13 -76 -31q-48 -48 -160 -946q-29 -198 -169 -320t-419 -190l-71 98
l8 31q133 96 184 187t78 290q98 801 98 823z" />
    <glyph glyph-name="jcircumflex" unicode="&#x135;" horiz-adv-x="591" 
d="M129 1171l-78 127q156 127 373 320h55q156 -178 295 -320l-108 -127l-50 -14q-55 43 -204 141q-147 -82 -236 -141zM176 838q0 18 -5 30t-38 13l-55 -4l-15 26l29 129l244 2l338 10l-35 -161q-47 -11 -60 -25q-41 -46 -126 -731q-23 -152 -144 -247t-362 -146l-66 80
l6 26q113 78 154 148t61 227q74 605 74 623z" />
    <glyph glyph-name="Kcommaaccent" unicode="&#x136;" horiz-adv-x="1384" 
d="M504 -327q0 73 -60 139l7 28q117 90 201 90t133 -56t49 -158t-92 -217q-92 -116 -250 -206l-119 95v51q131 95 131 234zM930 1090q0 26 -16 38t-56 15l-10 20l39 168q195 -6 287 -6l292 10l15 -30l-37 -154q-160 -88 -295 -260l-123 -162l133 -373q33 -90 71 -132t97 -52
l19 -31l-41 -151q-264 -23 -329 -23t-107 36t-76 130l-183 516l19 62l231 256q70 74 70 123zM242 1090q0 22 -10 38t-52 17l-51 -2l-14 28l37 156q289 -2 323 -2l350 10l-37 -184q-78 -20 -104 -42t-29 -73l-102 -717q-6 -47 -6 -73t4 -39q8 -29 47 -29l64 6l14 -20
l-39 -172q-252 8 -336 8l-336 -10l37 174q80 16 110 49t38 119q92 735 92 758z" />
    <glyph glyph-name="kcommaaccent" unicode="&#x137;" horiz-adv-x="1193" 
d="M430 -327q0 73 -59 139l6 28q117 90 202 90t133 -56t48 -158t-92 -217q-92 -116 -250 -206l-119 95v51q131 95 131 234zM770 836q0 39 -55 41l-8 18l30 141q168 -4 246 -4l256 8l12 -26l-30 -129q-139 -78 -248 -213l-76 -101l98 -278q25 -70 56 -103t77 -43l17 -26
l-35 -129q-230 -18 -288 -18t-92 26q-34 27 -62 102l-144 404l17 51l172 182q57 58 57 97zM479 201q0 -49 41 -49l49 4l15 -19l-33 -143q-219 6 -289 6l-291 -8l31 145q66 14 90 40t29 93q69 548 69 566t-8 30t-43 13h-41l-12 24l31 131q254 -2 278 -2l307 6l-32 -155
q-66 -17 -86 -33t-23 -55q-82 -576 -82 -594z" />
    <glyph glyph-name="kgreenlandic" unicode="&#x138;" horiz-adv-x="1193" 
d="M770 836q0 39 -55 41l-8 18l30 141q168 -4 246 -4l256 8l12 -26l-30 -129q-139 -78 -248 -213l-76 -101l98 -278q25 -70 56 -103t77 -43l17 -26l-35 -129q-230 -18 -288 -18t-92 26q-34 27 -62 102l-144 404l17 51l172 182q57 58 57 97zM479 201q0 -49 41 -49l49 4
l15 -19l-33 -143q-219 6 -289 6l-291 -8l31 145q66 14 90 40t29 93q69 548 69 566t-8 30t-43 13h-41l-12 24l31 131q254 -2 278 -2l307 6l-32 -155q-66 -17 -86 -33t-23 -55q-82 -576 -82 -594z" />
    <glyph glyph-name="Lacute" unicode="&#x139;" horiz-adv-x="1112" 
d="M821 1561l-14 -33q-266 -49 -520 -113l-39 27l-43 145q211 78 510 205l33 -10zM441 0q-237 0 -482 -20l41 188q76 12 108 50t42 130q90 719 90 742q0 22 -10 38t-52 17l-51 -2l-14 28l34 154h326l422 10l-47 -200q-104 -10 -143 -32t-48 -75q-106 -598 -106 -727
q0 -66 59 -65q102 0 147 64q44 65 79 269l266 27l20 -31q-61 -262 -114 -547l-35 -32q-295 14 -532 14z" />
    <glyph glyph-name="lacute" unicode="&#x13a;" horiz-adv-x="964" 
d="M719 1266l-14 -33q-266 -49 -521 -113l-39 27l-43 145q211 78 510 205l33 -10zM384 0q-206 0 -419 -16l33 159q63 10 89 40t34 102q67 533 67 551t-8 30t-43 13h-41l-12 24l29 129h280l373 6l-41 -170q-86 -8 -121 -23t-39 -48q-82 -451 -82 -547q0 -47 39 -47
q78 0 112 52t60 214l240 23q14 -20 18 -27q-49 -215 -92 -447l-31 -28q-239 10 -445 10z" />
    <glyph glyph-name="Lcommaaccent" unicode="&#x13b;" horiz-adv-x="1112" 
d="M330 -327q0 73 -60 139l6 28q117 90 202 90t133 -56t48 -158t-92 -217q-92 -116 -250 -206l-118 95v51q131 95 131 234zM441 0q-237 0 -482 -20l41 188q76 12 108 50t42 130q90 719 90 742q0 22 -10 38t-52 17l-51 -2l-14 28l34 154h326l422 10l-47 -200
q-104 -10 -143 -32t-48 -75q-106 -598 -106 -727q0 -66 59 -65q102 0 147 64q44 65 79 269l266 27l20 -31q-61 -262 -114 -547l-35 -32q-295 14 -532 14z" />
    <glyph glyph-name="lcommaaccent" unicode="&#x13c;" horiz-adv-x="964" 
d="M423 -70q85 0 133 -56t48 -158t-92 -217q-92 -116 -250 -206l-119 95v51q133 97 131 234q0 73 -59 139l6 28q117 90 202 90zM384 0q-206 0 -419 -16l33 159q63 10 89 40t34 102q67 533 67 551t-8 30t-43 13h-41l-12 24l29 129h280l373 6l-41 -170q-86 -8 -121 -23
t-39 -48q-82 -451 -82 -547q0 -47 39 -47q78 0 112 52t60 214l240 23q14 -20 18 -27q-49 -215 -92 -447l-31 -28q-239 10 -445 10z" />
    <glyph glyph-name="Lcaron" unicode="&#x13d;" horiz-adv-x="1189" 
d="M441 0q-237 0 -482 -20l41 188q76 12 108 50t42 130q90 719 90 742q0 22 -10 38t-52 17l-51 -2l-14 28l34 154h326l422 10l-47 -200q-104 -10 -143 -32t-48 -75q-106 -598 -106 -727q0 -66 59 -65q102 0 147 64q44 65 79 269l266 27l20 -31q-61 -262 -114 -547l-35 -32
q-295 14 -532 14zM979 942q0 102 -18 354l274 29l18 -25q-33 -223 -86 -452l-149 -51l-39 12v133z" />
    <glyph glyph-name="lcaron" unicode="&#x13e;" horiz-adv-x="1048" 
d="M1051 1032l14 -18q-25 -174 -70 -355l-133 -43l-35 11q0 193 -18 385zM384 0q-206 0 -419 -16l33 159q63 10 89 40t34 102q67 533 67 551t-8 30t-43 13h-41l-12 24l29 129h280l373 6l-41 -170q-86 -8 -121 -23t-39 -48q-82 -451 -82 -547q0 -47 39 -47q78 0 112 52
t60 214l240 23q14 -20 18 -27q-49 -215 -92 -447l-31 -28q-239 10 -445 10z" />
    <glyph glyph-name="Ldot" unicode="&#x13f;" horiz-adv-x="1234" 
d="M1018 774q-168 0 -168 164q0 112 64 178t159 66q178 0 178 -166q-1 -110 -65 -176t-168 -66zM441 0q-237 0 -482 -20l41 188q76 12 108 50t42 130q90 719 90 742q0 22 -10 38t-52 17l-51 -2l-14 28l34 154h326l422 10l-47 -200q-104 -10 -143 -32t-48 -75
q-106 -598 -106 -727q0 -66 59 -65q102 0 147 64q44 65 79 269l266 27l20 -31q-61 -262 -114 -547l-35 -32q-295 14 -532 14z" />
    <glyph glyph-name="ldot" unicode="&#x140;" horiz-adv-x="1110" 
d="M895 571q-156 0 -156 150q1 99 61 161t146 62q162 0 162 -151q0 -100 -58 -161t-155 -61zM384 0q-206 0 -419 -16l33 159q63 10 89 40t34 102q67 533 67 551t-8 30t-43 13h-41l-12 24l29 129h280l373 6l-41 -170q-86 -8 -121 -23t-39 -48q-82 -451 -82 -547q0 -47 39 -47
q78 0 112 52t60 214l240 23q14 -20 18 -27q-49 -215 -92 -447l-31 -28q-239 10 -445 10z" />
    <glyph glyph-name="Lslash" unicode="&#x141;" horiz-adv-x="1112" 
d="M441 0q-237 0 -482 -20l41 188q76 12 108 50t42 130l14 119l-74 -37l-20 4l-64 193l189 94q45 344 45 368q0 23 -10 39t-52 17l-51 -2l-14 28l34 154h326l422 10l-47 -200q-104 -10 -143 -32t-48 -75l-22 -133l153 78l19 -8l63 -191l-278 -139q-41 -275 -41 -337t59 -62
q102 0 147 64q44 65 79 269l266 27l20 -31q-61 -262 -114 -547l-35 -32q-295 14 -532 14z" />
    <glyph glyph-name="lslash" unicode="&#x142;" horiz-adv-x="999" 
d="M418 0q-206 0 -418 -16l33 159q63 10 89 40t34 102l8 61l-53 -24l-19 2l-59 168l157 75q33 247 33 267t-8 32t-43 13h-41l-12 24l28 129h281l373 6l-41 -170q-86 -8 -121 -23t-39 -48l-16 -84l106 49l15 -6l59 -166l-217 -103q-29 -186 -29 -235t39 -49q78 0 112 52
t60 214l240 23q14 -20 18 -27q-49 -215 -92 -447l-31 -28q-240 10 -446 10z" />
    <glyph glyph-name="Nacute" unicode="&#x143;" horiz-adv-x="1470" 
d="M1135 1561l-15 -33q-266 -49 -520 -113l-39 27l-43 145q211 78 510 205l33 -10zM1055 1090q0 53 -56 55h-61l-8 22l31 166q223 -8 418 -8t198 6l-33 -184q-63 -8 -91 -37t-38 -92l-151 -1018l-394 -25q-139 319 -307 670h-31q-38 -383 -38 -407t11 -42q11 -19 56 -20
l66 8l16 -18l-43 -174q-224 8 -330 8t-295 -16l43 184q59 8 91 38q31 30 38 91q113 735 113 764t-20 49t-113 31l-21 28l31 166q150 -10 299 -10l262 8q115 -295 287 -651h31q39 385 39 408z" />
    <glyph glyph-name="nacute" unicode="&#x144;" horiz-adv-x="1255" 
d="M975 1266l-14 -33q-266 -49 -521 -113l-39 27l-43 145q211 78 510 205l33 -10zM819 881h-49l-8 18l24 139q197 -6 367 -6t170 4l-27 -155q-52 -8 -74 -30t-30 -71l-117 -772l-362 -18l-228 454h-28q-23 -221 -23 -241q0 -21 10 -37t50 -16l51 6l14 -15l-35 -147
q-199 6 -268 6l-276 -12l36 155q49 6 74 30t33 71q86 544 86 568t-16 38t-93 24l-20 25l26 141q127 -8 263 -8l231 6q94 -225 215 -454h27l22 227q4 41 -5 55t-40 15z" />
    <glyph glyph-name="Ncommaaccent" unicode="&#x145;" horiz-adv-x="1470" 
d="M526 -327q0 73 -59 139l6 28q117 90 202 90t133 -56t48 -158t-92 -217q-92 -116 -250 -206l-119 95v51q131 95 131 234zM1055 1090q0 53 -56 55h-61l-8 22l31 166q223 -8 418 -8t198 6l-33 -184q-63 -8 -91 -37t-38 -92l-151 -1018l-394 -25q-139 319 -307 670h-31
q-38 -383 -38 -407t11 -42q11 -19 56 -20l66 8l16 -18l-43 -174q-224 8 -330 8t-295 -16l43 184q59 8 91 38q31 30 38 91q113 735 113 764t-20 49t-113 31l-21 28l31 166q150 -10 299 -10l262 8q115 -295 287 -651h31q39 385 39 408z" />
    <glyph glyph-name="ncommaaccent" unicode="&#x146;" horiz-adv-x="1255" 
d="M593 -70q85 0 133 -56t48 -158t-92 -217q-92 -116 -250 -206l-119 95v51q133 97 131 234q0 73 -59 139l6 28q117 90 202 90zM819 881h-49l-8 18l24 139q197 -6 367 -6t170 4l-27 -155q-52 -8 -74 -30t-30 -71l-117 -772l-362 -18l-228 454h-28q-23 -221 -23 -241
q0 -21 10 -37t50 -16l51 6l14 -15l-35 -147q-199 6 -268 6l-276 -12l36 155q49 6 74 30t33 71q86 544 86 568t-16 38t-93 24l-20 25l26 141q127 -8 263 -8l231 6q94 -225 215 -454h27l22 227q4 41 -5 55t-40 15z" />
    <glyph glyph-name="Ncaron" unicode="&#x147;" horiz-adv-x="1470" 
d="M1223 1819l59 -127q-182 -123 -391 -283h-55q-166 158 -318 283l86 127l49 14q47 -23 250 -104q102 37 275 104zM1055 1090q0 53 -56 55h-61l-8 22l31 166q223 -8 418 -8t198 6l-33 -184q-63 -8 -91 -37t-38 -92l-151 -1018l-394 -25q-139 319 -307 670h-31
q-38 -383 -38 -407t11 -42q11 -19 56 -20l66 8l16 -18l-43 -174q-224 8 -330 8t-295 -16l43 184q59 8 91 38q31 30 38 91q113 735 113 764t-20 49t-113 31l-21 28l31 166q150 -10 299 -10l262 8q115 -295 287 -651h31q39 385 39 408z" />
    <glyph glyph-name="ncaron" unicode="&#x148;" horiz-adv-x="1255" 
d="M1071 1524l59 -127q-182 -123 -391 -283h-55q-166 158 -317 283l86 127l49 14q47 -23 250 -104q102 37 274 104zM819 881h-49l-8 18l24 139q197 -6 367 -6t170 4l-27 -155q-52 -8 -74 -30t-30 -71l-117 -772l-362 -18l-228 454h-28q-23 -221 -23 -241q0 -21 10 -37
t50 -16l51 6l14 -15l-35 -147q-199 6 -268 6l-276 -12l36 155q49 6 74 30t33 71q86 544 86 568t-16 38t-93 24l-20 25l26 141q127 -8 263 -8l231 6q94 -225 215 -454h27l22 227q4 41 -5 55t-40 15z" />
    <glyph glyph-name="Eng" unicode="&#x14a;" horiz-adv-x="1464" 
d="M1067 1104q0 49 -57 49l-62 -2l-6 20l29 162q272 -8 332 -8l268 8l-31 -178q-66 -8 -94 -37t-39 -92l-125 -852q-33 -209 -166 -334t-393 -192l-74 100l8 31q156 80 217 221q-123 281 -317 678h-29q-47 -422 -47 -447q0 -61 68 -61l69 6l15 -16l-41 -168q-203 8 -365 8
l-243 -16l43 176q59 8 89 39t40 94q115 741 114 772q0 31 -22 53t-113 31l-20 29l30 157q184 -10 295 -10l246 8q127 -315 307 -682h29q45 434 45 453z" />
    <glyph glyph-name="eng" unicode="&#x14b;" horiz-adv-x="1249" 
d="M829 887h-49l-6 16l23 135q242 -6 290 -6l230 6l-25 -149q-53 -8 -77 -30t-31 -71l-97 -653q-29 -164 -141 -263t-336 -151l-67 82l6 27q127 63 174 168l-244 479h-26q-31 -260 -31 -280q0 -53 59 -54l56 4l12 -14l-35 -139q-174 6 -317 6l-209 -12l37 147q92 12 104 98
q90 557 90 582t-18 42t-92 26l-21 24l27 133q160 -8 258 -8l215 6q115 -258 235 -485h25l29 266q3 39 -7 53t-41 15z" />
    <glyph glyph-name="Omacron" unicode="&#x14c;" horiz-adv-x="1296" 
d="M1094 1686l18 -37l-65 -224l-543 -4l-29 31l66 223q188 -2 305 -2zM580 -25q-256 1 -400 143t-143 406q0 398 185 612t540 214q262 0 403 -136t142 -399q-1 -397 -189 -619t-538 -221zM635 233q106 -1 152 137t47 453q0 246 -134 246q-102 0 -148 -138t-46 -452
q0 -246 129 -246z" />
    <glyph glyph-name="omacron" unicode="&#x14d;" horiz-adv-x="1097" 
d="M954 1391l19 -37l-66 -224l-542 -4l-29 31l65 223q188 -2 306 -2zM492 -18q-219 0 -339 110t-120 326q0 635 596 635q459 0 458 -424q0 -313 -151 -480t-444 -167zM535 203q75 0 103 94t28 263t-20 210t-66 41q-70 0 -99 -94t-29 -263t20 -210q18 -41 63 -41z" />
    <glyph glyph-name="Obreve" unicode="&#x14e;" horiz-adv-x="1296" 
d="M763 1690q163 0 238 143l56 -14l65 -127q-51 -119 -150 -199q-98 -80 -242 -80t-225 80t-102 199l97 127l57 14q43 -143 206 -143zM580 -25q-256 1 -400 143t-143 406q0 398 185 612t540 214q262 0 403 -136t142 -399q-1 -397 -189 -619t-538 -221zM635 233
q106 -1 152 137t47 453q0 246 -134 246q-102 0 -148 -138t-46 -452q0 -246 129 -246z" />
    <glyph glyph-name="obreve" unicode="&#x14f;" horiz-adv-x="1097" 
d="M635 1384q162 0 242 144l53 -15l65 -127q-51 -118 -150 -198t-243 -80t-224 80q-81 80 -102 198l99 127l57 15q18 -70 74 -107t129 -37zM492 -18q-219 0 -339 110t-120 326q0 635 596 635q459 0 458 -424q0 -313 -151 -480t-444 -167zM535 203q75 0 103 94t28 263
t-20 210t-66 41q-70 0 -99 -94t-29 -263t20 -210q18 -41 63 -41z" />
    <glyph glyph-name="Ohungarumlaut" unicode="&#x150;" horiz-adv-x="1296" 
d="M1212 1636v-30q-182 -109 -354 -226l-39 11l-78 98l306 311l30 2zM807 1636v-30q-182 -109 -354 -226l-39 11l-78 98l305 311l31 2zM580 -25q-256 1 -400 143t-143 406q0 398 185 612t540 214q262 0 403 -136t142 -399q-1 -397 -189 -619t-538 -221zM635 233
q106 -1 152 137t47 453q0 246 -134 246q-102 0 -148 -138t-46 -452q0 -246 129 -246z" />
    <glyph glyph-name="ohungarumlaut" unicode="&#x151;" horiz-adv-x="1097" 
d="M1087 1341v-30q-182 -109 -354 -226l-39 11l-78 98l306 311l30 2zM682 1341v-30q-182 -109 -354 -226l-39 11l-78 98l305 311l31 2zM492 -18q-219 0 -339 110t-120 326q0 635 596 635q459 0 458 -424q0 -313 -151 -480t-444 -167zM535 203q75 0 103 94t28 263t-20 210
t-66 41q-70 0 -99 -94t-29 -263t20 -210q18 -41 63 -41z" />
    <glyph glyph-name="OE" unicode="&#x152;" horiz-adv-x="1812" 
d="M633 221q127 0 147 180q66 520 66 539q0 141 -141 141q-203 0 -203 -600q0 -139 30 -199t101 -61zM1165 298q-1 -28 11 -45t71 -17q123 0 169 40t79 177l266 18l21 -31q-59 -199 -107 -422l-35 -32q-330 20 -526 20t-336 -13q-139 -13 -186 -13q-262 0 -409 143
q-146 143 -146 407q0 393 179 597t534 204q57 0 217 -12t258 -12q311 0 641 43l22 -33q-61 -215 -94 -408l-287 -18q17 65 17 109t-36 62t-109 17q-73 0 -86 -10t-17 -45l-41 -231l160 -2l219 12l22 -29l-57 -235q-145 6 -236 6l-149 -13q-29 -206 -29 -234z" />
    <glyph glyph-name="oe" unicode="&#x153;" horiz-adv-x="1525" 
d="M535 190q84 0 96 119q51 395 51 423t-24 60t-76 31q-135 0 -136 -440q0 -113 19 -153t70 -40zM981 256q0 -26 8 -40q8 -13 76 -13q67 1 103 31t63 133l239 14l19 -27q-49 -158 -88 -338l-31 -26q-264 16 -432 16t-283 -11t-151 -11q-225 0 -348 112t-123 328
q0 307 143 459t442 151q48 0 182 -9t291 -9t461 35l21 -27q-51 -176 -76 -326l-258 -16q12 49 12 81t-27 45q-28 13 -82 13t-64 -8t-13 -31l-31 -157l129 -2l178 8l21 -25l-47 -198q-117 6 -191 6l-125 -11q-18 -121 -18 -147z" />
    <glyph glyph-name="Racute" unicode="&#x154;" horiz-adv-x="1353" 
d="M1049 1561l-15 -33q-266 -49 -520 -113l-39 27l-43 145q211 78 510 205l33 -10zM899 938q0 143 -199 143q-20 0 -27 -8t-29 -127t-36 -221l148 -20q143 55 143 233zM551 260q0 -37 16 -56t111 -24l8 -16l-41 -172q-249 8 -367 8t-317 -18l41 188q74 12 107 49t43 125
q90 730 90 750t-6 35t-35 16l-72 -4l-16 24l41 162q203 -2 284 -2l357 12q258 0 395 -85t137 -251q0 -272 -287 -436l93 -213q80 -180 167 -180l19 -33l-37 -149l-317 -23q-86 0 -132 42t-73 145l-80 313h-109q-20 -170 -20 -207z" />
    <glyph glyph-name="racute" unicode="&#x155;" horiz-adv-x="1169" 
d="M909 1266l-14 -33q-266 -49 -520 -113l-39 27l-43 145q211 78 510 205l33 -10zM750 719q0 53 -36 77t-85 24t-57 -11q-8 -10 -46 -238l117 -16q107 39 107 164zM251 0q-91 0 -284 -16l35 159q59 10 86 40t35 98q70 543 70 553q0 45 -33 45l-62 -2l-14 20l35 137
q174 -2 243 -2l310 10q461 0 461 -270q0 -209 -232 -338l70 -145q31 -66 67 -103t66 -36l18 -31l-32 -127l-279 -17q-76 0 -115 32t-59 112l-59 231h-82q-12 -108 -12 -136t12 -42q14 -14 94 -18l6 -15l-33 -145q-221 6 -312 6z" />
    <glyph glyph-name="Rcommaaccent" unicode="&#x156;" horiz-adv-x="1353" 
d="M455 -327q0 73 -60 139l6 28q117 90 202 90t133 -56t48 -158t-92 -217q-92 -116 -250 -206l-118 95v51q131 95 131 234zM899 938q0 143 -199 143q-20 0 -27 -8t-29 -127t-36 -221l148 -20q143 55 143 233zM551 260q0 -37 16 -56t111 -24l8 -16l-41 -172q-249 8 -367 8
t-317 -18l41 188q74 12 107 49t43 125q90 730 90 750t-6 35t-35 16l-72 -4l-16 24l41 162q203 -2 284 -2l357 12q258 0 395 -85t137 -251q0 -272 -287 -436l93 -213q80 -180 167 -180l19 -33l-37 -149l-317 -23q-86 0 -132 42t-73 145l-80 313h-109q-20 -170 -20 -207z" />
    <glyph glyph-name="rcommaaccent" unicode="&#x157;" horiz-adv-x="1169" 
d="M387 -327q0 73 -59 139l6 28q117 90 202 90t133 -56t48 -158t-92 -217q-92 -116 -250 -206l-119 95v51q131 95 131 234zM750 719q0 53 -36 77t-85 24t-57 -11q-8 -10 -46 -238l117 -16q107 39 107 164zM251 0q-91 0 -284 -16l35 159q59 10 86 40t35 98q70 543 70 553
q0 45 -33 45l-62 -2l-14 20l35 137q174 -2 243 -2l310 10q461 0 461 -270q0 -209 -232 -338l70 -145q31 -66 67 -103t66 -36l18 -31l-32 -127l-279 -17q-76 0 -115 32t-59 112l-59 231h-82q-12 -108 -12 -136t12 -42q14 -14 94 -18l6 -15l-33 -145q-221 6 -312 6z" />
    <glyph glyph-name="Rcaron" unicode="&#x158;" horiz-adv-x="1353" 
d="M1137 1819l59 -127q-182 -123 -391 -283h-55q-166 158 -318 283l86 127l49 14q47 -23 250 -104q102 37 275 104zM899 938q0 143 -199 143q-20 0 -27 -8t-29 -127t-36 -221l148 -20q143 55 143 233zM551 260q0 -37 16 -56t111 -24l8 -16l-41 -172q-249 8 -367 8t-317 -18
l41 188q74 12 107 49t43 125q90 730 90 750t-6 35t-35 16l-72 -4l-16 24l41 162q203 -2 284 -2l357 12q258 0 395 -85t137 -251q0 -272 -287 -436l93 -213q80 -180 167 -180l19 -33l-37 -149l-317 -23q-86 0 -132 42t-73 145l-80 313h-109q-20 -170 -20 -207z" />
    <glyph glyph-name="rcaron" unicode="&#x159;" horiz-adv-x="1169" 
d="M1006 1524l59 -127q-182 -123 -391 -283h-56q-166 158 -317 283l86 127l49 14q47 -23 250 -104q102 37 275 104zM750 719q0 53 -36 77t-85 24t-57 -11q-8 -10 -46 -238l117 -16q107 39 107 164zM251 0q-91 0 -284 -16l35 159q59 10 86 40t35 98q70 543 70 553
q0 45 -33 45l-62 -2l-14 20l35 137q174 -2 243 -2l310 10q461 0 461 -270q0 -209 -232 -338l70 -145q31 -66 67 -103t66 -36l18 -31l-32 -127l-279 -17q-76 0 -115 32t-59 112l-59 231h-82q-12 -108 -12 -136t12 -42q14 -14 94 -18l6 -15l-33 -145q-221 6 -312 6z" />
    <glyph glyph-name="Sacute" unicode="&#x15a;" horiz-adv-x="1097" 
d="M997 1561l-14 -33q-266 -49 -520 -113l-39 27l-43 145q211 78 510 205l33 -10zM399 -25q-104 0 -205 22t-151 44l-49 22l-21 37q63 203 86 338l260 19q-2 -20 -2 -41q0 -70 33 -119t104 -49q72 0 108 26t36 62q0 38 -35 72t-157 90q-244 109 -300 239q-27 59 -26 133
q0 216 180 348t477 132q195 0 344 -43l52 -15l20 -45q-59 -172 -96 -356l-242 -17l-22 17q6 47 6 57q0 119 -127 119q-57 0 -93 -29q-36 -30 -36 -70q0 -65 107 -119q38 -19 98 -47t78 -38t68 -39t70 -52q19 -24 48 -59q51 -66 51 -172q1 -217 -177 -342t-487 -125z" />
    <glyph glyph-name="sacute" unicode="&#x15b;" horiz-adv-x="946" 
d="M889 1266l-15 -33q-266 -49 -520 -113l-39 27l-43 145q211 78 510 205l33 -10zM674 721q0 88 -99 88q-41 0 -67 -17t-25 -47q0 -45 115 -94q158 -63 209 -100q104 -80 104 -203q-1 -172 -151 -269t-414 -97q-182 0 -344 69l-18 31q53 164 71 260l234 16q-2 -10 -2 -39
q1 -29 29 -67t87 -37q94 0 95 51q0 54 -118 96q-42 17 -44 17q-195 78 -245 184q-22 47 -21 107q0 174 152 277q153 103 411 104q164 0 336 -45l18 -39q-49 -135 -80 -279l-217 -14l-20 14q4 31 4 33z" />
    <glyph glyph-name="Scircumflex" unicode="&#x15c;" horiz-adv-x="1097" 
d="M416 1466l-78 127q156 127 373 320h55q156 -178 295 -320l-109 -127l-49 -14q-55 43 -205 141q-147 -82 -235 -141zM399 -25q-104 0 -205 22t-151 44l-49 22l-21 37q63 203 86 338l260 19q-2 -20 -2 -41q0 -70 33 -119t104 -49q72 0 108 26t36 62q0 38 -35 72t-157 90
q-244 109 -300 239q-27 59 -26 133q0 216 180 348t477 132q195 0 344 -43l52 -15l20 -45q-59 -172 -96 -356l-242 -17l-22 17q6 47 6 57q0 119 -127 119q-57 0 -93 -29q-36 -30 -36 -70q0 -65 107 -119q38 -19 98 -47t78 -38t68 -39t70 -52q19 -24 48 -59q51 -66 51 -172
q1 -217 -177 -342t-487 -125z" />
    <glyph glyph-name="scircumflex" unicode="&#x15d;" horiz-adv-x="946" 
d="M299 1171l-78 127q156 127 373 320h55q156 -178 295 -320l-108 -127l-50 -14q-55 43 -204 141q-147 -82 -236 -141zM674 721q0 88 -99 88q-41 0 -67 -17t-25 -47q0 -45 115 -94q158 -63 209 -100q104 -80 104 -203q-1 -172 -151 -269t-414 -97q-182 0 -344 69l-18 31
q53 164 71 260l234 16q-2 -10 -2 -39q1 -29 29 -67t87 -37q94 0 95 51q0 54 -118 96q-42 17 -44 17q-195 78 -245 184q-22 47 -21 107q0 174 152 277q153 103 411 104q164 0 336 -45l18 -39q-49 -135 -80 -279l-217 -14l-20 14q4 31 4 33z" />
    <glyph glyph-name="Scedilla" unicode="&#x15e;" horiz-adv-x="1097" 
d="M330 -258q0 -98 82 -98q63 0 63 48t-158 130l56 153q-185 4 -379 88l-21 37q63 203 86 338l260 19q-2 -20 -2 -41q0 -70 33 -119t104 -49q72 0 108 26t36 62q0 38 -35 72t-157 90q-244 109 -300 239q-27 59 -26 133q0 216 180 348t477 132q195 0 344 -43l52 -15l20 -45
q-59 -172 -96 -356l-242 -17l-22 17q6 47 6 57q0 119 -127 119q-57 0 -93 -29q-36 -30 -36 -70q0 -65 107 -119q38 -19 98 -47t78 -38t68 -39t70 -52q19 -24 48 -59q51 -66 51 -172q1 -196 -147 -318t-410 -144l-17 -56q77 -39 137 -93t60 -114q0 -88 -97 -151t-233 -64
q-61 0 -114 29t-54 74q0 45 125 153h17v-16z" />
    <glyph glyph-name="scedilla" unicode="&#x15f;" horiz-adv-x="946" 
d="M274 -258q0 -98 82 -98q63 0 64 48q0 48 -158 130l57 160q-167 4 -317 69l-18 31q53 164 71 260l234 16q-2 -10 -2 -39q1 -29 29 -67t87 -37q94 0 95 51q0 54 -118 96q-237 90 -289 201q-22 47 -21 107q0 174 152 277q153 103 411 104q164 0 336 -45l18 -39
q-49 -135 -80 -279l-217 -14l-20 14q4 31 4 33q0 88 -99 88q-41 0 -67 -17t-25 -47q0 -45 115 -94q158 -63 209 -100q104 -80 104 -203q-1 -154 -121 -248t-337 -112l-19 -64q76 -39 136 -93t61 -114q0 -88 -97 -151t-233 -64q-61 0 -115 29q-53 29 -53 74t125 153h16v-16z
" />
    <glyph glyph-name="Scaron" unicode="&#x160;" horiz-adv-x="1097" 
d="M1065 1819l59 -127q-182 -123 -391 -283h-55q-166 158 -318 283l86 127l50 14q47 -23 249 -104q102 37 275 104zM399 -25q-104 0 -205 22t-151 44l-49 22l-21 37q63 203 86 338l260 19q-2 -20 -2 -41q0 -70 33 -119t104 -49q72 0 108 26t36 62q0 38 -35 72t-157 90
q-244 109 -300 239q-27 59 -26 133q0 216 180 348t477 132q195 0 344 -43l52 -15l20 -45q-59 -172 -96 -356l-242 -17l-22 17q6 47 6 57q0 119 -127 119q-57 0 -93 -29q-36 -30 -36 -70q0 -65 107 -119q38 -19 98 -47t78 -38t68 -39t70 -52q19 -24 48 -59q51 -66 51 -172
q1 -217 -177 -342t-487 -125z" />
    <glyph glyph-name="scaron" unicode="&#x161;" horiz-adv-x="946" 
d="M944 1524l60 -127q-182 -123 -392 -283h-55q-166 158 -317 283l86 127l49 14q47 -23 250 -104q102 37 274 104zM674 721q0 88 -99 88q-41 0 -67 -17t-25 -47q0 -45 115 -94q158 -63 209 -100q104 -80 104 -203q-1 -172 -151 -269t-414 -97q-182 0 -344 69l-18 31
q53 164 71 260l234 16q-2 -10 -2 -39q1 -29 29 -67t87 -37q94 0 95 51q0 54 -118 96q-42 17 -44 17q-195 78 -245 184q-22 47 -21 107q0 174 152 277q153 103 411 104q164 0 336 -45l18 -39q-49 -135 -80 -279l-217 -14l-20 14q4 31 4 33z" />
    <glyph glyph-name="Tcedilla" unicode="&#x162;" horiz-adv-x="1183" 
d="M410 -258q0 -98 82 -98q63 0 63 48t-158 130l64 178l-348 -18l39 188q122 10 164 44t55 130l90 733q-74 0 -104 -51t-64 -227l-258 -17q51 303 82 537l30 29l236 -23h625l247 23l23 -29l-55 -520l-256 -17q4 82 4 150t-8 96q-14 49 -86 49q-105 -690 -105 -767
q0 -76 20 -100t68 -24l103 7l8 -13l-41 -192q-203 8 -338 12l-23 -76q77 -39 137 -93t60 -114q0 -88 -97 -151t-233 -64q-61 0 -114 29t-54 74q0 45 125 153h17v-16z" />
    <glyph glyph-name="tcedilla" unicode="&#x163;" horiz-adv-x="1021" 
d="M344 -258q0 -98 82 -98q63 0 63 48t-157 130l63 178l-299 -16l33 161q98 8 134 33t44 90l70 549q-47 0 -67 -43t-48 -178l-233 -12q41 252 65 442l27 25l205 -19h520l213 19l20 -25l-47 -430l-229 -12q6 76 6 122t-6 68q-8 43 -55 43q-76 -551 -76 -579q0 -80 71 -80
l84 6l9 -10l-35 -164q-160 6 -275 10l-22 -76q76 -39 136 -93t60 -114q0 -88 -97 -151t-232 -64q-61 0 -115 29q-53 29 -53 74t125 153h16v-16z" />
    <glyph glyph-name="Tcaron" unicode="&#x164;" horiz-adv-x="1183" 
d="M1071 1819l59 -127q-182 -123 -391 -283h-55q-166 158 -317 283l86 127l49 14q47 -23 250 -104q102 37 274 104zM971 932q0 68 -8 96q-14 49 -86 49q-105 -690 -105 -767q0 -76 20 -100t68 -24l103 7l8 -13l-41 -192q-293 12 -408 12l-409 -18l39 188q122 10 164 44
t55 130l90 733q-74 0 -104 -51t-64 -227l-258 -17q51 303 82 537l30 29l236 -23h625l247 23l23 -29l-55 -520l-256 -17q4 82 4 150z" />
    <glyph glyph-name="tcaron" unicode="&#x165;" horiz-adv-x="1021" 
d="M948 1524l60 -127q-182 -123 -392 -283h-55q-166 158 -317 283l86 127l49 14q47 -23 250 -104q102 37 274 104zM809 706q0 46 -6 68q-8 43 -55 43q-76 -551 -76 -579q0 -80 71 -80l84 6l9 -10l-35 -164q-252 10 -350 10l-355 -16l33 161q98 8 134 33t44 90l70 549
q-47 0 -67 -43t-48 -178l-233 -12q41 252 65 442l27 25l205 -19h520l213 19l20 -25l-47 -430l-229 -12q6 76 6 122z" />
    <glyph glyph-name="Tbar" unicode="&#x166;" horiz-adv-x="1183" 
d="M971 932q0 68 -8 96q-14 49 -86 49q-31 -190 -66 -442l150 4l30 -31l-10 -112h-188q-20 -170 -21 -217q0 -92 88 -93l103 7l8 -13l-41 -192q-293 12 -408 12l-409 -18l39 188q122 10 164 44t55 130l18 150h-160l-22 20l16 119l183 -2l55 446q-74 0 -104 -51t-64 -227
l-258 -17q51 303 82 537l30 29l236 -23h625l247 23l23 -29l-55 -520l-256 -17q4 82 4 150z" />
    <glyph glyph-name="tbar" unicode="&#x167;" horiz-adv-x="1021" 
d="M809 706q0 46 -6 68q-8 43 -55 43l-50 -346l162 4l31 -31l-10 -112h-201q-8 -59 -8 -94q0 -80 71 -80l84 6l9 -10l-35 -164q-252 10 -350 10l-355 -16l33 161q98 8 134 33t44 90l8 62h-186l-23 20l17 119l209 -2l45 350q-47 0 -67 -43t-48 -178l-233 -12q41 252 65 442
l27 25l205 -19h520l213 19l20 -25l-47 -430l-229 -12q6 76 6 122z" />
    <glyph glyph-name="Utilde" unicode="&#x168;" horiz-adv-x="1239" 
d="M922 1751q45 0 125 88l26 31h33l108 -111l-4 -33l-190 -235l-35 -8q-37 0 -154 35t-142 34q-48 0 -150 -118h-33l-109 110l4 33l191 235l35 9q36 0 153 -35t142 -35zM510 383q0 -147 121 -147q73 0 107 40t48 140q78 653 78 671q0 57 -41 58l-43 -4l-6 8l45 182
q166 -6 238 -6l293 6l-39 -184q-63 -21 -81 -37t-24 -53l-71 -578q-35 -256 -175 -380t-388 -124t-362 86t-114 265l88 766q0 24 -6 38t-39 15l-57 -4l-4 8l43 182q197 -6 356 -6l271 8l-43 -190q-53 -6 -77 -29t-30 -72l-84 -591q-4 -39 -4 -68z" />
    <glyph glyph-name="utilde" unicode="&#x169;" horiz-adv-x="1046" 
d="M784 1456q45 0 125 88l27 31h33l108 -111l-4 -32l-190 -236l-35 -8q-37 0 -154 35t-142 34q-49 0 -151 -118h-32l-109 110l4 33l191 236l34 8q37 0 154 -35t141 -35zM446 303q0 -100 84 -100q49 -1 73 25t32 91q61 511 61 519q0 41 -32 41l-31 -2l-6 6l39 155
q139 -6 198 -6l254 4l-33 -157q-49 -17 -63 -29t-18 -37l-54 -432q-28 -205 -144 -302t-325 -97t-306 66t-99 202l67 588q0 18 -4 29t-30 12l-48 -2l-2 6l35 155q170 -6 312 -6l231 4l-37 -159q-78 -8 -84 -76q-70 -487 -70 -498z" />
    <glyph glyph-name="Umacron" unicode="&#x16a;" horiz-adv-x="1239" 
d="M1110 1686l18 -37l-65 -224l-543 -4l-28 31l65 223q188 -2 305 -2zM510 383q0 -147 121 -147q73 0 107 40t48 140q78 653 78 671q0 57 -41 58l-43 -4l-6 8l45 182q166 -6 238 -6l293 6l-39 -184q-63 -21 -81 -37t-24 -53l-71 -578q-35 -256 -175 -380t-388 -124t-362 86
t-114 265l88 766q0 24 -6 38t-39 15l-57 -4l-4 8l43 182q197 -6 356 -6l271 8l-43 -190q-53 -6 -77 -29t-30 -72l-84 -591q-4 -39 -4 -68z" />
    <glyph glyph-name="umacron" unicode="&#x16b;" horiz-adv-x="1046" 
d="M969 1391l18 -37l-65 -224l-543 -4l-29 31l66 223q188 -2 305 -2zM446 303q0 -100 84 -100q49 -1 73 25t32 91q61 511 61 519q0 41 -32 41l-31 -2l-6 6l39 155q139 -6 198 -6l254 4l-33 -157q-49 -17 -63 -29t-18 -37l-54 -432q-28 -205 -144 -302t-325 -97t-306 66
t-99 202l67 588q0 18 -4 29t-30 12l-48 -2l-2 6l35 155q170 -6 312 -6l231 4l-37 -159q-78 -8 -84 -76q-70 -487 -70 -498z" />
    <glyph glyph-name="Ubreve" unicode="&#x16c;" horiz-adv-x="1239" 
d="M779 1710q163 0 239 143l55 -14l66 -127q-51 -119 -151 -199q-100 -79 -242 -79q-144 0 -225 80t-101 198l96 127l57 14q43 -143 206 -143zM510 383q0 -147 121 -147q73 0 107 40t48 140q78 653 78 671q0 57 -41 58l-43 -4l-6 8l45 182q166 -6 238 -6l293 6l-39 -184
q-63 -21 -81 -37t-24 -53l-71 -578q-35 -256 -175 -380t-388 -124t-362 86t-114 265l88 766q0 24 -6 38t-39 15l-57 -4l-4 8l43 182q197 -6 356 -6l271 8l-43 -190q-53 -6 -77 -29t-30 -72l-84 -591q-4 -39 -4 -68z" />
    <glyph glyph-name="ubreve" unicode="&#x16d;" horiz-adv-x="1046" 
d="M655 1384q162 0 242 144l53 -15l66 -127q-50 -118 -150 -198t-243 -80t-225 80q-81 80 -101 198l98 127l58 15q18 -70 73 -107t129 -37zM446 303q0 -100 84 -100q49 -1 73 25t32 91q61 511 61 519q0 41 -32 41l-31 -2l-6 6l39 155q139 -6 198 -6l254 4l-33 -157
q-49 -17 -63 -29t-18 -37l-54 -432q-28 -205 -144 -302t-325 -97t-306 66t-99 202l67 588q0 18 -4 29t-30 12l-48 -2l-2 6l35 155q170 -6 312 -6l231 4l-37 -159q-78 -8 -84 -76q-70 -487 -70 -498z" />
    <glyph glyph-name="Uring" unicode="&#x16e;" horiz-adv-x="1239" 
d="M839 1827q189 0 189 -188q0 -88 -71 -165t-170 -77q-191 0 -191 193q0 95 71 166t172 71zM807 1540q29 0 53 18t25 60q0 61 -70 61q-76 0 -76 -75q0 -64 68 -64zM510 383q0 -147 121 -147q73 0 107 40t48 140q78 653 78 671q0 57 -41 58l-43 -4l-6 8l45 182
q166 -6 238 -6l293 6l-39 -184q-63 -21 -81 -37t-24 -53l-71 -578q-35 -256 -175 -380t-388 -124t-362 86t-114 265l88 766q0 24 -6 38t-39 15l-57 -4l-4 8l43 182q197 -6 356 -6l271 8l-43 -190q-53 -6 -77 -29t-30 -72l-84 -591q-4 -39 -4 -68z" />
    <glyph glyph-name="uring" unicode="&#x16f;" horiz-adv-x="1046" 
d="M699 1532q190 0 190 -187q0 -89 -71 -166t-170 -77q-191 0 -191 193q0 95 70 166q71 71 172 71zM668 1245q30 -1 54 17t23 61q0 61 -69 61q-76 0 -76 -75q0 -64 68 -64zM446 303q0 -100 84 -100q49 -1 73 25t32 91q61 511 61 519q0 41 -32 41l-31 -2l-6 6l39 155
q139 -6 198 -6l254 4l-33 -157q-49 -17 -63 -29t-18 -37l-54 -432q-28 -205 -144 -302t-325 -97t-306 66t-99 202l67 588q0 18 -4 29t-30 12l-48 -2l-2 6l35 155q170 -6 312 -6l231 4l-37 -159q-78 -8 -84 -76q-70 -487 -70 -498z" />
    <glyph glyph-name="Uhungarumlaut" unicode="&#x170;" horiz-adv-x="1239" 
d="M1229 1636v-30q-182 -109 -355 -226l-38 11l-78 98l305 311l31 2zM823 1636v-30q-182 -109 -354 -226l-39 11l-78 98l305 311l31 2zM510 383q0 -147 121 -147q73 0 107 40t48 140q78 653 78 671q0 57 -41 58l-43 -4l-6 8l45 182q166 -6 238 -6l293 6l-39 -184
q-63 -21 -81 -37t-24 -53l-71 -578q-35 -256 -175 -380t-388 -124t-362 86t-114 265l88 766q0 24 -6 38t-39 15l-57 -4l-4 8l43 182q197 -6 356 -6l271 8l-43 -190q-53 -6 -77 -29t-30 -72l-84 -591q-4 -39 -4 -68z" />
    <glyph glyph-name="uhungarumlaut" unicode="&#x171;" horiz-adv-x="1046" 
d="M1096 1341v-30q-182 -109 -355 -226l-39 11l-77 98l305 311l31 2zM690 1341v-30q-182 -109 -354 -226l-39 11l-78 98l305 311l31 2zM446 303q0 -100 84 -100q49 -1 73 25t32 91q61 511 61 519q0 41 -32 41l-31 -2l-6 6l39 155q139 -6 198 -6l254 4l-33 -157
q-49 -17 -63 -29t-18 -37l-54 -432q-28 -205 -144 -302t-325 -97t-306 66t-99 202l67 588q0 18 -4 29t-30 12l-48 -2l-2 6l35 155q170 -6 312 -6l231 4l-37 -159q-78 -8 -84 -76q-70 -487 -70 -498z" />
    <glyph glyph-name="Uogonek" unicode="&#x172;" horiz-adv-x="1239" 
d="M510 383q0 -147 121 -147q73 0 107 40t48 140q78 653 78 671q0 57 -41 58l-43 -4l-6 8l45 182q166 -6 238 -6l293 6l-39 -184q-63 -21 -81 -37t-24 -53l-71 -578q-31 -225 -191 -407q-203 -229 -203 -320q1 -31 19 -50t56 -19t128 51l43 -82q-127 -111 -225 -148
q-114 0 -178 43t-64 118t40 145t145 178q-66 -12 -144 -13q-237 0 -351 86t-114 265l88 766q0 24 -6 38t-39 15l-57 -4l-4 8l43 182q197 -6 356 -6l271 8l-43 -190q-53 -6 -77 -29t-30 -72l-84 -591q-4 -43 -4 -68z" />
    <glyph glyph-name="uogonek" unicode="&#x173;" horiz-adv-x="1046" 
d="M535 203q49 -1 73 25t31 91q61 498 61 515q0 45 -32 45l-31 -2l-6 6l39 155q139 -6 198 -6l254 4l-32 -157q-50 -15 -64 -27t-18 -39l-54 -432q-25 -180 -159 -328q-160 -171 -160 -241q0 -51 61 -52q33 0 103 41l39 -69q-106 -88 -189 -117q-96 0 -151 34t-56 92
q0 59 32 111t118 138q-47 -8 -115 -8q-201 0 -298 66t-99 202l67 588q0 18 -4 29t-30 12l-47 -2l-5 6l37 155q170 -6 312 -6l229 4l-37 -159q-76 -8 -84 -76q-68 -487 -67 -498q0 -100 84 -100z" />
    <glyph glyph-name="Wcircumflex" unicode="&#x174;" horiz-adv-x="1988" 
d="M1245 1860q0 6 129 -112t191 -171l-88 -127l-50 -14q-90 41 -249 104q-102 -37 -275 -104l-45 14l-57 127q164 111 389 283h55zM1649 1101q1 28 -9 34t-43 6h-47l-12 20l37 170q180 -6 295 -6l235 2l-34 -178q-35 -12 -53 -34t-40 -79l-385 -1028l-553 -35l-12 584h-29
l-178 -549l-553 -35q-78 815 -98 1037q-14 72 -32 100t-52 37l-12 20l39 162q158 -4 262 -4l370 10l13 -18l-35 -172q-76 -12 -105 -35t-28 -70l10 -696h43q143 401 229 684q10 45 15 55q3 39 -15 51t-86 13l-12 20l39 162q207 -4 326 -4l368 10l15 -18l-35 -172
q-80 -8 -108 -30t-27 -75l12 -696h43q66 177 154 453t88 304z" />
    <glyph glyph-name="wcircumflex" unicode="&#x175;" horiz-adv-x="1695" 
d="M1055 1565q0 6 129 -112t190 -171l-88 -127l-49 -14q-90 41 -250 104q-102 -37 -274 -104l-45 14l-58 127q164 111 389 283h56zM868 393h-26l-123 -387l-504 -26q-68 666 -78 792q-12 59 -24 81t-39 28l-11 18l33 137q131 -4 221 -4l318 6l10 -14l-29 -147
q-52 -7 -78 -111t-26 -172v-305h39q113 315 170 516l18 55q-2 20 -67 21h-13l-10 18l33 137q176 -4 281 -4l315 6l12 -14l-28 -147q-61 -5 -84 -23t-23 -59l2 -506h39q49 129 112 333q62 204 62 226t-5 24t-30 2h-32l-13 19l31 143q154 -4 248 -4l198 2l-28 -151
q-27 -11 -41 -29t-31 -59l-295 -789l-504 -26v413z" />
    <glyph glyph-name="Ycircumflex" unicode="&#x176;" horiz-adv-x="1331" 
d="M909 1860q0 6 129 -112t191 -171l-88 -127l-49 -14q-90 41 -250 104q-102 -37 -275 -104l-45 14l-57 127q164 111 389 283h55zM680 1092q0 -68 68 -299h28l103 233q37 68 37 96t-70 27l-4 12l37 162h317l227 8l7 -16l-37 -178q-150 -84 -250 -258l-225 -373
q-39 -72 -54 -191q-4 -25 -4 -53t16 -52t72 -24l103 7l8 -13l-41 -192q-301 12 -418 12l-412 -18l39 188q129 10 173 41t52 101t9 83q0 68 -35 154l-164 407q-41 109 -172 172l-8 13l43 186q238 -4 303 -4l363 14l12 -22l-39 -168q-84 0 -84 -55z" />
    <glyph glyph-name="ycircumflex" unicode="&#x177;" horiz-adv-x="1163" 
d="M780 1565q0 6 129 -112t191 -171l-88 -127l-49 -14q-90 41 -250 104q-102 -37 -275 -104l-45 14l-57 127q164 111 389 283h55zM756 250q0 -52 14 -72t59 -20l86 6l9 -10l-35 -164q-264 10 -365 10l-360 -14l33 159q109 6 153 33t43 143q0 30 -31 97l-143 321
q-27 57 -137 125l-8 8l37 162q209 -4 260 -4l309 10l12 -18l-33 -143h-6q-55 0 -55 -40t47 -200h27l63 152q31 55 31 73t-53 17l-4 10l30 137l275 2l194 6l4 -12l-30 -154q-127 -78 -201 -198l-184 -291q-41 -78 -41 -131z" />
    <glyph glyph-name="Ydieresis" unicode="&#x178;" horiz-adv-x="1331" 
d="M629 1403q-143 0 -144 137q1 92 55 148t132 57q154 0 153 -139q0 -90 -54 -146t-142 -57zM1014 1403q-145 0 -146 137q0 92 54 148t135 57q154 0 153 -139q0 -90 -54 -146t-142 -57zM680 1092q0 -68 68 -299h28l103 233q37 68 37 96t-70 27l-4 12l37 162h317l227 8l7 -16
l-37 -178q-150 -84 -250 -258l-225 -373q-39 -72 -54 -191q-4 -25 -4 -53t16 -52t72 -24l103 7l8 -13l-41 -192q-301 12 -418 12l-412 -18l39 188q129 10 173 41t52 101t9 83q0 68 -35 154l-164 407q-41 109 -172 172l-8 13l43 186q238 -4 303 -4l363 14l12 -22l-39 -168
q-84 0 -84 -55z" />
    <glyph glyph-name="Zacute" unicode="&#x179;" horiz-adv-x="1183" 
d="M1067 1561l-14 -33q-266 -49 -521 -113l-38 27l-43 145q211 78 510 205l32 -10zM1087 39l-47 -45l-858 12l-166 -20l-59 118l766 1006l-145 -20q-117 -16 -152 -58t-55 -176l-262 -18q61 301 90 491l24 23l359 -23h665l37 -110q-281 -334 -778 -996l203 31q96 14 147 81
t80 210l262 18q-82 -319 -111 -524z" />
    <glyph glyph-name="zacute" unicode="&#x17a;" horiz-adv-x="1017" 
d="M946 1266l-14 -33q-266 -49 -520 -113l-39 27l-43 145q211 78 510 205l32 -10zM930 33l-39 -37l-729 8l-139 -16l-56 100l619 760l-101 -17q-93 -14 -119 -45t-40 -131l-236 -14q49 246 72 395l20 17l299 -17l570 2l34 -94q-285 -315 -626 -751l147 26q80 13 119 63
t59 156l236 17q-67 -262 -90 -422z" />
    <glyph glyph-name="Zdotaccent" unicode="&#x17b;" horiz-adv-x="1183" 
d="M604 1563q0 111 65 177t158 66q180 0 181 -166q0 -108 -65 -175t-157 -66q-182 0 -182 164zM1087 39l-47 -45l-858 12l-166 -20l-59 118l766 1006l-145 -20q-117 -16 -152 -58t-55 -176l-262 -18q61 301 90 491l24 23l359 -23h665l37 -110q-281 -334 -778 -996l203 31
q96 14 147 81t80 210l262 18q-82 -319 -111 -524z" />
    <glyph glyph-name="zdotaccent" unicode="&#x17c;" horiz-adv-x="1017" 
d="M475 1268q0 112 65 178t156 65q182 0 183 -165q0 -109 -65 -176t-159 -66q-180 0 -180 164zM930 33l-39 -37l-729 8l-139 -16l-56 100l619 760l-101 -17q-93 -14 -119 -45t-40 -131l-236 -14q49 246 72 395l20 17l299 -17l570 2l34 -94q-285 -315 -626 -751l147 26
q80 13 119 63t59 156l236 17q-67 -262 -90 -422z" />
    <glyph glyph-name="Zcaron" unicode="&#x17d;" horiz-adv-x="1183" 
d="M1135 1819l59 -127q-182 -123 -391 -283h-55q-166 158 -318 283l86 127l49 14q47 -23 250 -104q102 37 275 104zM1087 39l-47 -45l-858 12l-166 -20l-59 118l766 1006l-145 -20q-117 -16 -152 -58t-55 -176l-262 -18q61 301 90 491l24 23l359 -23h665l37 -110
q-281 -334 -778 -996l203 31q96 14 147 81t80 210l262 18q-82 -319 -111 -524z" />
    <glyph glyph-name="zcaron" unicode="&#x17e;" horiz-adv-x="1017" 
d="M1004 1524l59 -127q-182 -123 -391 -283h-56q-166 158 -317 283l86 127l49 14q47 -23 250 -104q102 37 274 104zM930 33l-39 -37l-729 8l-139 -16l-56 100l619 760l-101 -17q-93 -14 -119 -45t-40 -131l-236 -14q49 246 72 395l20 17l299 -17l570 2l34 -94
q-285 -315 -626 -751l147 26q80 13 119 63t59 156l236 17q-67 -262 -90 -422z" />
    <glyph glyph-name="florin" unicode="&#x192;" horiz-adv-x="907" 
d="M291 786q0 154 175 296t376 143q76 -1 134 -15t58 -32q0 -31 -30 -124t-52 -126l-37 -6q-96 82 -155 82t-86 -37t-33 -123l-8 -88h233l11 -17l-21 -141h-233l-19 -395q-12 -211 -139 -375t-324 -164q-67 0 -133 34t-65 72t31 122t59 118h37q8 -57 41 -93t82 -36t71 48
t23 165l-2 420q-4 48 -39 66t-135 18l-7 12l17 121l170 27v28z" />
    <glyph glyph-name="Aringacute" unicode="&#x1fa;" horiz-adv-x="1353" 
d="M1126 1874l-12 -31q-240 -43 -469 -100l-35 24l-39 129l459 185l31 -8zM623 1525q0 85 63 149t155 65q171 0 171 -169q-1 -79 -64 -149t-152 -69q-173 0 -173 173zM813 1481q25 0 47 15t23 54q0 55 -62 56q-70 0 -69 -68q0 -57 61 -57zM659 616q14 0 101 5l-21 358h-45
l-133 -363h98zM772 248v117q-133 4 -149 4l-158 -11q-39 -131 -39 -145q0 -31 47 -31h55l15 -20l-37 -170q-186 6 -307 6l-267 -2l35 178q74 18 113 113l432 1028l547 33l28 -25q98 -788 127 -1010q8 -71 31 -101t66 -36l12 -20l-37 -162q-172 4 -282 4l-386 -10l-14 18
l33 172q87 10 111 22t24 48z" />
    <glyph glyph-name="aringacute" unicode="&#x1fb;" horiz-adv-x="1175" 
d="M674 1206q26 0 48 16t21 54q0 55 -61 55q-70 0 -70 -67q1 -58 62 -58zM565 487q39 0 76 2l-12 254h-41l-96 -256h73zM973 1579l-12 -31q-240 -43 -469 -100l-35 25l-39 129l459 184l30 -8zM656 1077q-173 0 -173 173q-1 85 63 150t155 64q173 0 171 -169q0 -78 -63 -148
t-153 -70zM387 174q0 -18 33 -18h39l14 -19l-31 -143q-160 4 -260 4h-225l29 149q57 16 86 80l344 797l499 27l25 -23q88 -635 102 -752t76 -126l12 -19l-32 -135q-145 2 -242 2l-330 -6l-12 14l27 148q70 8 88 16t18 33l4 65l-116 2l-125 -6q-23 -84 -23 -90z" />
    <glyph glyph-name="AEacute" unicode="&#x1fc;" horiz-adv-x="1875" 
d="M1391 1708l-5 -35q-221 -115 -432 -239l-45 14l-84 125l383 342h35zM623 664l82 8l100 18l8 289h-45zM430 202q0 -12 17 -16t90 -4l6 -20l-35 -170q-12 6 -397 6l-160 -2l16 178q78 18 127 113l412 800q-2 57 -45 58l-51 -4l-23 28l39 162q334 -6 777 -4t593 23l23 -33
q-61 -215 -97 -408l-284 -18q14 65 14 109t-37 62t-139 17q-70 0 -70 -49l13 -268l143 26l207 54l30 -35l-51 -238l-196 -24l-127 -25l2 -149q2 -137 90 -138q109 0 151 40t76 180l264 18l23 -31q-61 -199 -109 -422l-34 -32q-328 14 -725 14l-345 -12l-12 18l33 172
q82 8 111 27q39 23 38 127l7 117l-150 -27l-158 -47q-57 -160 -57 -173z" />
    <glyph glyph-name="aeacute" unicode="&#x1fd;" horiz-adv-x="1613" 
d="M543 520l59 6l78 15l6 202h-41zM1198 1413l-4 -35q-221 -115 -432 -239l-45 14l-84 125l383 342h35zM393 170q0 -14 90 -14l-6 -19l-28 -143q-8 4 -343 4h-135l15 152q72 18 102 77l318 604q-2 49 -37 50l-41 -4l-21 24l33 135q936 -12 1184 15l20 -27q-49 -176 -78 -326
l-256 -16q12 49 13 81q0 32 -29 45q-30 13 -94 13t-64 -35l15 -182l108 21l174 45l29 -31l-43 -201l-166 -22l-96 -19l2 -90q2 -106 69 -106q80 -1 112 31t60 135l238 14l21 -27q-51 -158 -91 -338l-30 -26q-375 10 -615 10l-291 -8l-12 14l29 146q69 8 93 20t24 88l6 74
l-119 -23l-129 -41q-18 -70 -24 -82t-7 -18z" />
    <glyph glyph-name="Oslashacute" unicode="&#x1fe;" horiz-adv-x="1296" 
d="M1030 1581l-14 -33q-266 -49 -520 -112l-39 26l-43 146q211 78 510 204l32 -10zM635 233q106 -1 152 137t47 453q0 246 -134 246q-102 0 -148 -138t-46 -452q0 -246 129 -246zM37 524q0 398 185 612t540 214q113 0 209 -29l141 219l199 -110l4 -27l-135 -205
q127 -139 127 -383q-1 -397 -189 -618t-538 -222q-109 0 -197 25l-162 -240l-194 113l-9 21l156 229q-137 143 -137 401z" />
    <glyph glyph-name="oslashacute" unicode="&#x1ff;" horiz-adv-x="1097" 
d="M535 203q75 0 103 94t28 263t-20 210t-66 41q-70 0 -99 -94t-29 -263t20 -210q18 -41 63 -41zM827 1333l-14 -33q-266 -49 -520 -112l-39 26l-43 146q211 78 510 205l33 -11zM33 418q0 635 596 635q100 0 174 -21l143 195l197 -113l2 -22l-137 -187q80 -102 79 -276
q0 -313 -151 -481q-152 -167 -444 -166q-78 0 -154 16l-148 -197l-192 117l-6 16l137 181q-96 108 -96 303z" />
    <glyph glyph-name="Scommaaccent" unicode="&#x218;" horiz-adv-x="1097" 
d="M281 -327q0 73 -60 139l6 28q117 90 202 90t133 -56t48 -158t-92 -217q-92 -116 -250 -206l-118 95v51q131 95 131 234zM399 -25q-104 0 -205 22t-151 44l-49 22l-21 37q63 203 86 338l260 19q-2 -20 -2 -41q0 -70 33 -119t104 -49q72 0 108 26t36 62q0 38 -35 72
t-157 90q-244 109 -300 239q-27 59 -26 133q0 216 180 348t477 132q195 0 344 -43l52 -15l20 -45q-59 -172 -96 -356l-242 -17l-22 17q6 47 6 57q0 119 -127 119q-57 0 -93 -29q-36 -30 -36 -70q0 -65 107 -119q38 -19 98 -47t78 -38t68 -39t70 -52q19 -24 48 -59
q51 -66 51 -172q1 -217 -177 -342t-487 -125z" />
    <glyph glyph-name="scommaaccent" unicode="&#x219;" horiz-adv-x="946" 
d="M240 -327q0 73 -60 139l6 28q117 90 202 90t133 -56t48 -158t-92 -217q-92 -116 -250 -206l-118 95v51q131 95 131 234zM674 721q0 88 -99 88q-41 0 -67 -17t-25 -47q0 -45 115 -94q158 -63 209 -100q104 -80 104 -203q-1 -172 -151 -269t-414 -97q-182 0 -344 69l-18 31
q53 164 71 260l234 16q-2 -10 -2 -39q1 -29 29 -67t87 -37q94 0 95 51q0 54 -118 96q-42 17 -44 17q-195 78 -245 184q-22 47 -21 107q0 174 152 277q153 103 411 104q164 0 336 -45l18 -39q-49 -135 -80 -279l-217 -14l-20 14q4 31 4 33z" />
    <glyph glyph-name="uni021A" unicode="&#x21a;" horiz-adv-x="1183" 
d="M340 -327q0 73 -59 139l6 28q117 90 201 90t134 -56q48 -56 48 -158t-92 -217q-92 -116 -250 -206l-119 95v51q131 95 131 234zM971 932q0 68 -8 96q-14 49 -86 49q-105 -690 -105 -767q0 -76 20 -100t68 -24l103 7l8 -13l-41 -192q-293 12 -408 12l-409 -18l39 188
q122 10 164 44t55 130l90 733q-74 0 -104 -51t-64 -227l-258 -17q51 303 82 537l30 29l236 -23h625l247 23l23 -29l-55 -520l-256 -17q4 82 4 150z" />
    <glyph glyph-name="uni021B" unicode="&#x21b;" horiz-adv-x="1021" 
d="M289 -327q0 73 -60 139l7 28q118 90 202 90t132 -56t48 -158t-92 -217q-92 -116 -250 -206l-118 95v51q131 95 131 234zM809 706q0 46 -6 68q-8 43 -55 43q-76 -551 -76 -579q0 -80 71 -80l84 6l9 -10l-35 -164q-252 10 -350 10l-355 -16l33 161q98 8 134 33t44 90
l70 549q-47 0 -67 -43t-48 -178l-233 -12q41 252 65 442l27 25l205 -19h520l213 19l20 -25l-47 -430l-229 -12q6 76 6 122z" />
    <glyph glyph-name="dotlessj" unicode="&#x237;" horiz-adv-x="591" 
d="M176 838q0 18 -5 30t-38 13l-55 -4l-15 26l29 129l244 2l338 10l-35 -161q-47 -11 -60 -25q-41 -46 -126 -731q-23 -152 -144 -247t-362 -146l-66 80l6 26q113 78 154 148t61 227q74 605 74 623z" />
    <glyph glyph-name="circumflex" unicode="&#x2c6;" 
d="M203 1110l-78 127q156 127 373 319h55q156 -178 295 -319l-109 -127l-49 -14q-55 43 -205 141q-147 -82 -235 -141z" />
    <glyph glyph-name="caron" unicode="&#x2c7;" 
d="M141 1374l109 127l49 15q63 -51 203 -142q147 82 237 142l45 -15l78 -127q-156 -127 -373 -319h-55q-154 178 -293 319z" />
    <glyph glyph-name="breve" unicode="&#x2d8;" 
d="M472 1096q-144 0 -225 80t-102 198l97 127l57 15q43 -144 206 -144t238 144l56 -15l65 -127q-51 -118 -150 -198q-98 -80 -242 -80z" />
    <glyph glyph-name="dotaccent" unicode="&#x2d9;" 
d="M475 1112q-180 0 -180 164q1 112 65 178t156 66q182 0 182 -166q1 -108 -64 -175t-159 -67z" />
    <glyph glyph-name="ring" unicode="&#x2da;" 
d="M525 1540q190 0 190 -187q0 -89 -70 -166t-170 -77q-192 0 -192 193q1 93 71 165t171 72zM494 1253q30 -1 54 17t23 61q0 61 -67 62q-78 0 -78 -76q0 -64 68 -64z" />
    <glyph glyph-name="ogonek" unicode="&#x2db;" horiz-adv-x="794" 
d="M272 -240q0 -76 75 -77q38 0 128 51l43 -82q-127 -111 -225 -148q-115 0 -178 44t-64 122q0 78 61 163q60 85 246 253h140q-142 -164 -184 -226t-42 -100z" />
    <glyph glyph-name="tilde" unicode="&#x2dc;" 
d="M378 1194q-48 0 -151 -119h-32l-109 111l4 33l191 235l34 8q37 0 154 -35t141 -34q45 0 125 90l27 28h33l108 -110l-4 -33l-190 -235l-35 -9q-37 0 -154 35t-142 35z" />
    <glyph glyph-name="hungarumlaut" unicode="&#x2dd;" 
d="M739 1415l6 -29q-150 -150 -288 -305h-39l-101 78l222 375l28 10zM406 1415l6 -29q-150 -150 -289 -305h-39l-100 78l221 375l28 10z" />
    <glyph glyph-name="dotbelowcomb" unicode="&#x323;" horiz-adv-x="456" 
d="M336 -233q0 -109 -65 -176t-156 -66q-182 0 -183 164q0 111 65 177t159 66q180 0 180 -165z" />
    <glyph glyph-name="Delta" unicode="&#x394;" horiz-adv-x="1355" 
d="M748 1018h-50l-258 -739h340zM-10 0l-23 27l545 1288l551 35h20q88 -737 193 -1336l-21 -14h-1265z" />
    <glyph glyph-name="Delta" unicode="&#x2206;" horiz-adv-x="1355" 
d="M748 1018h-50l-258 -739h340zM-10 0l-23 27l545 1288l551 35h20q88 -737 193 -1336l-21 -14h-1265z" />
    <glyph glyph-name="Omega" unicode="&#x3a9;" horiz-adv-x="1720" 
d="M922 1069q-104 0 -150 -134q-46 -135 -47 -405q0 -270 78 -378l-74 -166l-143 20l-594 -12l-37 45l53 465l219 18q-2 -41 -2 -104q0 -174 117 -189l100 -18q-170 188 -170 472t198 475t503 192q253 0 407 -130t154 -348q0 -375 -332 -663l113 20q69 9 111 73t73 202
l219 18q-39 -295 -63 -483l-47 -45l-578 12l-149 -20l-35 166q100 100 155 265t56 341q0 176 -32 244t-103 67z" />
    <glyph glyph-name="Omega" unicode="&#x2126;" horiz-adv-x="1720" 
d="M922 1069q-104 0 -150 -134q-46 -135 -47 -405q0 -270 78 -378l-74 -166l-143 20l-594 -12l-37 45l53 465l219 18q-2 -41 -2 -104q0 -174 117 -189l100 -18q-170 188 -170 472t198 475t503 192q253 0 407 -130t154 -348q0 -375 -332 -663l113 20q69 9 111 73t73 202
l219 18q-39 -295 -63 -483l-47 -45l-578 12l-149 -20l-35 166q100 100 155 265t56 341q0 176 -32 244t-103 67z" />
    <glyph glyph-name="pi" unicode="&#x3c0;" horiz-adv-x="1282" 
d="M221 1034l733 -20q98 0 365 20l10 -14l-55 -197l-17 -14q-96 -1 -128 -21t-48 -78t-35 -175q-20 -117 -20 -169t27 -70t104 -20l25 -49q-2 -35 -124 -143t-157 -109q-143 -1 -194 57t-52 154l66 567q0 19 -8 34t-44 15t-48 -11q-12 -12 -21 -64l-82 -637l-20 -194
l-27 -31l-346 -58l-16 35q12 27 71 422q60 396 60 454t-33 58q-43 0 -150 -67l-20 -2l-55 141l6 18l200 154z" />
    <glyph glyph-name="Wgrave" unicode="&#x1e80;" horiz-adv-x="1988" 
d="M846 1528l-15 33l74 221l33 10q258 -111 510 -205l-43 -145l-39 -27q-190 50 -520 113zM1649 1101q1 28 -9 34t-43 6h-47l-12 20l37 170q180 -6 295 -6l235 2l-34 -178q-35 -12 -53 -34t-40 -79l-385 -1028l-553 -35l-12 584h-29l-178 -549l-553 -35q-78 815 -98 1037
q-14 72 -32 100t-52 37l-12 20l39 162q158 -4 262 -4l370 10l13 -18l-35 -172q-76 -12 -105 -35t-28 -70l10 -696h43q143 401 229 684q10 45 15 55q3 39 -15 51t-86 13l-12 20l39 162q207 -4 326 -4l368 10l15 -18l-35 -172q-80 -8 -108 -30t-27 -75l12 -696h43
q66 177 154 453t88 304z" />
    <glyph glyph-name="wgrave" unicode="&#x1e81;" horiz-adv-x="1695" 
d="M672 1233l-15 33l74 221l33 10q258 -111 510 -205l-43 -145l-39 -27q-190 50 -520 113zM868 393h-26l-123 -387l-504 -26q-68 666 -78 792q-12 59 -24 81t-39 28l-11 18l33 137q131 -4 221 -4l318 6l10 -14l-29 -147q-52 -7 -78 -111t-26 -172v-305h39q113 315 170 516
l18 55q-2 20 -67 21h-13l-10 18l33 137q176 -4 281 -4l315 6l12 -14l-28 -147q-61 -5 -84 -23t-23 -59l2 -506h39q49 129 112 333q62 204 62 226t-5 24t-30 2h-32l-13 19l31 143q154 -4 248 -4l198 2l-28 -151q-27 -11 -41 -29t-31 -59l-295 -789l-504 -26v413z" />
    <glyph glyph-name="Wacute" unicode="&#x1e82;" horiz-adv-x="1988" 
d="M1470 1561l-14 -33q-266 -49 -520 -113l-39 27l-43 145q211 78 510 205l33 -10zM1649 1101q1 28 -9 34t-43 6h-47l-12 20l37 170q180 -6 295 -6l235 2l-34 -178q-35 -12 -53 -34t-40 -79l-385 -1028l-553 -35l-12 584h-29l-178 -549l-553 -35q-78 815 -98 1037
q-14 72 -32 100t-52 37l-12 20l39 162q158 -4 262 -4l370 10l13 -18l-35 -172q-76 -12 -105 -35t-28 -70l10 -696h43q143 401 229 684q10 45 15 55q3 39 -15 51t-86 13l-12 20l39 162q207 -4 326 -4l368 10l15 -18l-35 -172q-80 -8 -108 -30t-27 -75l12 -696h43
q66 177 154 453t88 304z" />
    <glyph glyph-name="wacute" unicode="&#x1e83;" horiz-adv-x="1695" 
d="M1266 1266l-15 -33q-266 -49 -520 -113l-39 27l-43 145q211 78 510 205l33 -10zM868 393h-26l-123 -387l-504 -26q-68 666 -78 792q-12 59 -24 81t-39 28l-11 18l33 137q131 -4 221 -4l318 6l10 -14l-29 -147q-52 -7 -78 -111t-26 -172v-305h39q113 315 170 516l18 55
q-2 20 -67 21h-13l-10 18l33 137q176 -4 281 -4l315 6l12 -14l-28 -147q-61 -5 -84 -23t-23 -59l2 -506h39q49 129 112 333q62 204 62 226t-5 24t-30 2h-32l-13 19l31 143q154 -4 248 -4l198 2l-28 -151q-27 -11 -41 -29t-31 -59l-295 -789l-504 -26v413z" />
    <glyph glyph-name="Wdieresis" unicode="&#x1e84;" horiz-adv-x="1988" 
d="M965 1403q-143 0 -144 137q1 92 55 148t132 57q154 0 153 -139q0 -90 -54 -146t-142 -57zM1350 1403q-145 0 -146 137q0 92 54 148t135 57q154 0 153 -139q0 -90 -54 -146t-142 -57zM1649 1101q1 28 -9 34t-43 6h-47l-12 20l37 170q180 -6 295 -6l235 2l-34 -178
q-35 -12 -53 -34t-40 -79l-385 -1028l-553 -35l-12 584h-29l-178 -549l-553 -35q-78 815 -98 1037q-14 72 -32 100t-52 37l-12 20l39 162q158 -4 262 -4l370 10l13 -18l-35 -172q-76 -12 -105 -35t-28 -70l10 -696h43q143 401 229 684q10 45 15 55q3 39 -15 51t-86 13
l-12 20l39 162q207 -4 326 -4l368 10l15 -18l-35 -172q-80 -8 -108 -30t-27 -75l12 -696h43q66 177 154 453t88 304z" />
    <glyph glyph-name="wdieresis" unicode="&#x1e85;" horiz-adv-x="1695" 
d="M774 1128q-143 0 -143 138q0 92 54 148t134 56q152 0 152 -139q-1 -91 -55 -147t-142 -56zM1159 1128q-145 0 -145 138q0 92 54 148t134 56q154 0 154 -139q0 -91 -54 -147t-143 -56zM868 393h-26l-123 -387l-504 -26q-68 666 -78 792q-12 59 -24 81t-39 28l-11 18
l33 137q131 -4 221 -4l318 6l10 -14l-29 -147q-52 -7 -78 -111t-26 -172v-305h39q113 315 170 516l18 55q-2 20 -67 21h-13l-10 18l33 137q176 -4 281 -4l315 6l12 -14l-28 -147q-61 -5 -84 -23t-23 -59l2 -506h39q49 129 112 333q62 204 62 226t-5 24t-30 2h-32l-13 19
l31 143q154 -4 248 -4l198 2l-28 -151q-27 -11 -41 -29t-31 -59l-295 -789l-504 -26v413z" />
    <glyph glyph-name="Ygrave" unicode="&#x1ef2;" horiz-adv-x="1331" 
d="M489 1528l-14 33l74 221l33 10q258 -111 510 -205l-43 -145l-39 -27q-191 50 -521 113zM680 1092q0 -68 68 -299h28l103 233q37 68 37 96t-70 27l-4 12l37 162h317l227 8l7 -16l-37 -178q-150 -84 -250 -258l-225 -373q-39 -72 -54 -191q-4 -25 -4 -53t16 -52t72 -24
l103 7l8 -13l-41 -192q-301 12 -418 12l-412 -18l39 188q129 10 173 41t52 101t9 83q0 68 -35 154l-164 407q-41 109 -172 172l-8 13l43 186q238 -4 303 -4l363 14l12 -22l-39 -168q-84 0 -84 -55z" />
    <glyph glyph-name="ygrave" unicode="&#x1ef3;" horiz-adv-x="1163" 
d="M356 1233l-14 33l74 221l33 10q258 -111 509 -205l-43 -145l-38 -27q-191 50 -521 113zM756 250q0 -52 14 -72t59 -20l86 6l9 -10l-35 -164q-264 10 -365 10l-360 -14l33 159q109 6 153 33t43 143q0 30 -31 97l-143 321q-27 57 -137 125l-8 8l37 162q209 -4 260 -4
l309 10l12 -18l-33 -143h-6q-55 0 -55 -40t47 -200h27l63 152q31 55 31 73t-53 17l-4 10l30 137l275 2l194 6l4 -12l-30 -154q-127 -78 -201 -198l-184 -291q-41 -78 -41 -131z" />
    <glyph glyph-name="endash" unicode="&#x2013;" horiz-adv-x="888" 
d="M502 659q281 0 416 5l14 -39l-53 -217l-891 -2l-17 38l47 215h484z" />
    <glyph glyph-name="emdash" unicode="&#x2014;" horiz-adv-x="1640" 
d="M821 659q803 0 846 5l16 -39l-55 -217l-1640 -2l-17 38l47 215h803z" />
    <glyph glyph-name="quoteleft" unicode="&#x2018;" horiz-adv-x="532" 
d="M302 713q-85 0 -133 56q-48 55 -48 157t92 218t250 206l119 -95v-51q-133 -97 -131 -234q0 -73 59 -139l-6 -28q-117 -90 -202 -90z" />
    <glyph glyph-name="quoteright" unicode="&#x2019;" horiz-adv-x="532" 
d="M215 1092q0 74 -59 139l6 29q117 90 202 90t133 -56t48 -158q0 -101 -92 -217t-250 -206l-119 94v51q131 91 131 234z" />
    <glyph glyph-name="quotesinglbase" unicode="&#x201a;" horiz-adv-x="473" 
d="M70 130q0 73 -60 138l6 29q117 90 202 90t133 -56q48 -55 48 -157t-92 -218t-250 -206l-118 94v52q131 95 131 234z" />
    <glyph glyph-name="quotedblleft" unicode="&#x201c;" horiz-adv-x="964" 
d="M567 970q0 -73 60 -139l-6 -28q-117 -90 -202 -90t-133 56q-48 55 -48 157t92 218t250 206l118 -95v-51q-131 -95 -131 -234zM1001 970q0 -73 60 -139l-6 -28q-117 -90 -202 -90t-133 56q-48 55 -48 157t92 218t250 206l119 -95v-51q-132 -96 -132 -234z" />
    <glyph glyph-name="quotedblright" unicode="&#x201d;" horiz-adv-x="964" 
d="M342 1092q0 74 -59 139l6 29q117 90 201 90t134 -56q48 -56 48 -158q0 -101 -92 -217t-250 -206l-119 94v51q131 91 131 234zM776 1092q0 74 -59 139l6 29q117 90 202 90t133 -56t48 -158q0 -101 -92 -217t-250 -206l-119 94v51q131 91 131 234z" />
    <glyph glyph-name="quotedblbase" unicode="&#x201e;" horiz-adv-x="892" 
d="M634 387q85 0 133 -56q48 -55 48 -157t-92 -218t-250 -206l-119 94v52q133 97 131 234q0 73 -59 138l6 29q117 90 202 90zM206 387q85 0 133 -56q48 -55 48 -157t-92 -218t-250 -206l-119 94v52q133 97 131 234q0 73 -59 138l6 29q117 90 202 90z" />
    <glyph glyph-name="dagger" unicode="&#x2020;" horiz-adv-x="1040" 
d="M735 1214l25 -20l-45 -320l307 11l16 -29l-51 -231h-307l-96 -799l-250 -14l-19 18l101 793h-305l-17 20l51 234l301 -3l39 326z" />
    <glyph glyph-name="daggerdbl" unicode="&#x2021;" horiz-adv-x="1038" 
d="M735 1214l25 -20l-43 -307l305 10l18 -29l-51 -231h-307l-31 -248l312 10l16 -28l-51 -232h-307l-37 -313l-250 -14l-19 18l39 307h-303l-16 21l51 233l299 -2l33 246h-305l-17 20l51 234l302 -2l36 313z" />
    <glyph glyph-name="bullet" unicode="&#x2022;" horiz-adv-x="675" 
d="M311 223q-238 0 -237 219q0 148 84 236t227 88q105 0 161 -57t56 -162q0 -146 -84 -235t-207 -89z" />
    <glyph glyph-name="onedotenleader" unicode="&#x2024;" horiz-adv-x="473" 
d="M166 -18q-168 0 -168 163q0 111 64 178q65 67 159 66q178 0 178 -166q-1 -109 -65 -175t-168 -66z" />
    <glyph glyph-name="twodotenleader" unicode="&#x2025;" horiz-adv-x="931" 
d="M657 -18q-168 0 -168 163q0 111 65 178t159 66q178 0 178 -166q0 -109 -65 -175t-169 -66zM154 -18q-168 0 -168 163q0 111 64 178q65 67 159 66q178 0 178 -166q-1 -109 -65 -175t-168 -66z" />
    <glyph glyph-name="ellipsis" unicode="&#x2026;" horiz-adv-x="1390" 
d="M176 -18q-168 0 -168 163q0 111 65 178t156 66q180 0 181 -166q0 -109 -65 -175t-169 -66zM1094 -18q-168 0 -168 163q0 111 64 178q65 67 157 66q180 0 180 -166q-1 -109 -65 -175t-168 -66zM635 -18q-168 0 -168 163q0 111 64 178q65 67 157 66q180 0 180 -166
q0 -109 -64 -175t-169 -66z" />
    <glyph glyph-name="perthousand" unicode="&#x2030;" horiz-adv-x="2187" 
d="M1276 1325l20 -49q-367 -567 -553 -852l-387 -610l-190 71l-12 35q227 328 397 598l547 873zM1798 -25q-124 0 -192 75t-68 220q0 219 106 340t279 121q123 0 190 -74t66 -219q1 -219 -105 -341t-276 -122zM1853 258q86 0 120 24t34 74q0 84 -147 84q-84 0 -119 -22
t-35 -76q0 -84 147 -84zM1126 -25q-124 0 -192 75t-68 220q0 219 106 340t279 121q123 0 190 -74t66 -219q1 -219 -105 -341t-276 -122zM1182 258q84 0 118 24t35 74q0 84 -147 84q-84 0 -119 -22t-35 -76q1 -84 148 -84zM309 594q-123 0 -191 75t-69 220q1 219 107 340
t278 121q123 0 190 -74t66 -219q0 -219 -106 -341t-275 -122zM365 877q85 -1 119 23t34 75q0 84 -147 84q-84 0 -119 -23t-35 -75q1 -84 148 -84z" />
    <glyph glyph-name="guilsinglleft" unicode="&#x2039;" horiz-adv-x="536" 
d="M373 864l119 -71l10 -48q-37 -51 -168 -270q49 -150 100 -268l-20 -47l-135 -74q-125 184 -265 363l6 55q197 190 353 360z" />
    <glyph glyph-name="guilsinglright" unicode="&#x203a;" horiz-adv-x="536" 
d="M162 86l-119 72l-8 47q72 104 166 270q-49 150 -101 268l21 48l135 73q98 -145 264 -362l-6 -56q-194 -190 -352 -360z" />
    <glyph glyph-name="fraction" unicode="&#x2044;" horiz-adv-x="382" 
d="M655 1325l21 -49q-367 -567 -553 -852l-387 -610l-191 71l-12 35q227 328 397 598l547 873z" />
    <glyph glyph-name="zero.sups" unicode="&#x2070;" horiz-adv-x="704" 
d="M336 930q76 0 106 36t29 110q0 74 -28 103q-29 27 -95 27t-96 -37t-31 -127q0 -112 115 -112zM283 653q-246 0 -246 314q0 244 101 384t278 140q242 0 241 -315q0 -244 -99 -384t-275 -139z" />
    <glyph glyph-name="four.sups" unicode="&#x2074;" horiz-adv-x="731" 
d="M317 1182l-114 -166h110l21 166h-17zM-16 844l18 147l397 496l13 4l217 -18l-56 -457h89l14 -21l-37 -166l-86 2l-12 -145l-17 -16l-250 -17l-14 17q16 82 29 170z" />
    <glyph glyph-name="five.sups" unicode="&#x2075;" horiz-adv-x="643" 
d="M578 969q0 -125 -146 -220t-326 -96q-74 0 -98 40t-22 126v29l41 35q47 -27 115 -27t102 20q35 20 35 49q-1 30 -47 46t-158 30l-11 17l78 422l15 10l288 8q70 0 95 55l120 7l-71 -256l-35 -29q-115 10 -250 10l-10 -53q153 -29 219 -81t66 -142z" />
    <glyph glyph-name="six.sups" unicode="&#x2076;" horiz-adv-x="694" 
d="M387 952q0 68 -42 68t-71 -19q-12 -61 -12 -88q0 -86 51 -86q44 0 59 28q15 29 15 97zM645 989q0 -156 -101 -246t-272 -90q-124 0 -192 72t-68 197t60 229q59 104 143 164q170 123 313 160l60 16l18 -8l31 -121q-145 -51 -262 -172l6 -16q39 10 70 22q90 0 142 -54
t52 -153z" />
    <glyph glyph-name="seven.sups" unicode="&#x2077;" horiz-adv-x="638" 
d="M274 1475h310l73 -103q-117 -209 -274 -510l-80 -207h-41l-180 56l-12 39l317 516l-108 -13q-61 -8 -83 -26t-40 -84l-125 -8q43 188 69 340l9 6q81 -6 165 -6z" />
    <glyph glyph-name="eight.sups" unicode="&#x2078;" horiz-adv-x="686" 
d="M317 1264q0 -41 89 -80q23 41 22 80q0 55 -53 55q-27 0 -43 -15t-15 -40zM295 813q63 0 63 57q0 38 -89 83q-13 7 -19 12q-18 -27 -19 -76q1 -76 64 -76zM4 844q0 129 143 186q-88 78 -88 192q-1 114 101 192t227 77q125 0 197 -54t71 -134q0 -121 -127 -183
q90 -63 90 -180t-102 -202t-234 -85q-132 1 -205 55t-73 136z" />
    <glyph glyph-name="nine.sups" unicode="&#x2079;" horiz-adv-x="694" 
d="M340 1122q31 0 68 19q14 45 14 90q0 86 -51 86q-45 0 -59 -28q-14 -27 -15 -97q0 -70 43 -70zM37 1155q0 154 102 245t273 91q120 0 190 -72q70 -73 70 -197t-60 -230t-143 -165q-170 -123 -313 -159l-60 -17l-18 11l-31 120q143 49 260 172l-4 17q-61 -20 -70 -25
q-90 0 -143 56t-53 153z" />
    <glyph glyph-name="n.sups" unicode="&#x207f;" horiz-adv-x="806" 
d="M492 657q-100 0 -101 88q0 29 41 162t41 162q1 29 -21 29t-63 -81t-84 -204l-8 -76q-4 -33 -71 -55t-154 -23l-31 35q57 346 67 404t0 72q-9 13 -38 14h-37l16 121q90 0 326 18l22 -31q-29 -98 -41 -190l11 2q78 186 149 235q106 0 166 -40t59 -109q0 -29 -38 -148
t-39 -135l4 -4q10 0 67 53l37 -6l29 -69q-117 -129 -181 -177t-128 -47z" />
    <glyph glyph-name="zero.sinf" unicode="&#x2080;" horiz-adv-x="704" 
d="M336 14q76 0 106 36t29 111q0 75 -28 103q-29 28 -95 27q-66 0 -96 -37t-31 -127q0 -113 115 -113zM283 -262q-246 0 -246 313q0 244 101 384t278 140q242 0 241 -315q0 -244 -99 -383t-275 -139z" />
    <glyph glyph-name="one.sinf" unicode="&#x2081;" horiz-adv-x="565" 
d="M393 -60q0 -56 41 -57l60 2l4 -8l-37 -131q-141 8 -217 8l-273 -14l27 119q125 12 133 90q47 397 47 415t-7 28q-7 11 -46 11l-66 -2l-12 15l27 108q14 0 444 51l19 -65q-43 -29 -63 -78t-50 -243q-31 -193 -31 -249z" />
    <glyph glyph-name="two.sinf" unicode="&#x2082;" horiz-adv-x="755" 
d="M346 283q0 51 -66 51t-155 -90h-29l-16 176q156 156 323 155q113 0 181 -52t68 -142t-64 -183q-63 -93 -230 -243l7 -12h53q47 -1 74 27t40 98l179 12q-53 -190 -74 -316l-29 -26q-324 16 -471 16l-141 -8l4 150l213 198q133 130 133 189z" />
    <glyph glyph-name="three.sinf" unicode="&#x2083;" horiz-adv-x="659" 
d="M596 425q0 -69 -48 -123t-128 -75v-16q174 -67 174 -183t-148 -203t-333 -87q-74 0 -98 40t-23 126v28l39 35q53 -27 120 -27q138 1 138 76q0 53 -131 54l-19 22v135l92 17q84 31 84 98q0 41 -51 41t-143 -55h-23l-28 151q157 98 326 96q83 0 142 -40q58 -41 58 -110z
" />
    <glyph glyph-name="four.sinf" unicode="&#x2084;" horiz-adv-x="731" 
d="M317 266l-114 -166h110l21 166h-17zM-16 -72l18 148l397 495l13 4l217 -18l-56 -457h89l14 -20l-37 -166l-86 2l-12 -145l-17 -17l-250 -16l-14 16q16 82 29 170z" />
    <glyph glyph-name="five.sinf" unicode="&#x2085;" horiz-adv-x="643" 
d="M578 53q0 -125 -146 -220t-326 -95q-74 0 -98 40t-22 126v28l41 35q47 -27 115 -27t102 20q35 19 35 49q-1 30 -47 46t-158 31l-11 16l78 422l15 11l288 8q70 0 95 55l120 6l-71 -256l-35 -29q-115 10 -250 11l-10 -54q153 -29 219 -81t66 -142z" />
    <glyph glyph-name="six.sinf" unicode="&#x2086;" horiz-adv-x="694" 
d="M387 36q0 68 -42 68t-71 -18q-12 -61 -12 -88q0 -86 51 -86q44 0 59 28t15 96zM645 74q0 -156 -101 -246t-272 -90q-124 0 -192 72t-68 196t60 230q60 104 143 165q170 121 313 160l60 14l18 -8l31 -121q-145 -51 -262 -172l6 -16q39 10 70 23q90 -1 142 -55t52 -152z
" />
    <glyph glyph-name="seven.sinf" unicode="&#x2087;" horiz-adv-x="638" 
d="M274 559h310l73 -102q-117 -209 -274 -510l-80 -207h-41l-180 55l-12 39l317 516l-108 -12q-61 -8 -83 -26t-40 -85l-125 -8q43 188 69 340l9 6q81 -6 165 -6z" />
    <glyph glyph-name="eight.sinf" unicode="&#x2088;" horiz-adv-x="686" 
d="M317 348q0 -41 89 -80q23 41 22 80q0 55 -53 55q-27 0 -43 -15t-15 -40zM295 -102q63 0 63 57q0 29 -28 45t-37 24t-23 14q-14 7 -20 11q-18 -27 -19 -76q1 -75 64 -75zM4 -72q0 129 143 187q-88 77 -88 191q-1 114 101 192t227 78t197 -55q72 -54 71 -134
q0 -121 -127 -182q90 -63 90 -180t-102 -202t-234 -85t-205 54t-73 136z" />
    <glyph glyph-name="nine.sinf" unicode="&#x2089;" horiz-adv-x="694" 
d="M340 207q31 0 68 18q14 45 14 90q0 86 -51 86q-45 0 -60 -27q-14 -28 -14 -98t43 -69zM37 240q0 154 102 244t273 91q120 1 190 -71t70 -197t-60 -230t-143 -167q-170 -121 -313 -160l-60 -14l-18 10l-31 121q143 49 260 172l-4 16q-61 -20 -70 -24q-90 -1 -143 55
t-53 154z" />
    <glyph glyph-name="franc" unicode="&#x20a3;" horiz-adv-x="993" 
d="M333 0q-87 0 -335 -14l35 157q53 6 77 30t37 83h-116l-11 10l31 121h115q55 430 55 449q0 43 -35 43l-41 -2l-20 24l33 135q150 -2 293 -4h114q299 0 475 19l23 -27q-43 -168 -66 -305l-258 -14q12 45 13 63q0 51 -101 53q-29 0 -40 -8t-15 -31l-23 -137l129 -2l175 8
l18 -24l-39 -185q-123 4 -194 4l-121 -8l-9 -51l211 4l11 -12l-23 -123h-219q-4 -43 8 -58q12 -16 58 -16t81 15l27 -33l-43 -168q-223 4 -310 4z" />
    <glyph glyph-name="Euro" unicode="&#x20ac;" horiz-adv-x="1103" 
d="M637 203q67 0 99 39t57 147l249 17q-43 -186 -61 -338l-25 -25q-166 -59 -366 -59t-312 88q-114 88 -139 256h-147l-15 12l35 137h123q0 43 6 82h-121l-14 12l35 138h137q129 342 574 342q113 0 370 -43l11 -33q-51 -143 -89 -336l-249 -14q16 88 16 116q0 93 -118 93
t-158 -125l231 8l14 -17l-30 -139l-242 -2q-4 -49 -4 -82h2l231 8l15 -16l-29 -139l-211 -2q21 -125 125 -125z" />
    <glyph glyph-name="trademark" unicode="&#x2122;" horiz-adv-x="1140" 
d="M383 1171q0 20 -2 29q-4 23 -27 23q-33 -256 -32 -277q0 -37 34 -37l39 2l4 -6l-16 -76q-123 4 -170 5l-174 -9l16 76q47 5 65 17t21 43l31 262q-18 0 -28 -22t-23 -85l-113 -6q18 121 31 213l12 8l99 -8h251l105 8l8 -8l-20 -207l-115 -6q4 41 4 61zM674 1085h-10
q-20 -150 -21 -157q0 -23 23 -23l20 2l8 -6l-20 -70q-94 2 -121 3l-100 -7l16 74q39 2 51 49q59 238 60 281q0 14 -43 18l-9 6l19 72q88 -4 123 -4l137 4l14 -217h13q51 125 79 213q96 0 168 2t78 0l-16 -74q-31 0 -41 -6q-23 -18 -23 -282q0 -55 27 -56l24 2l7 -8l-17 -70
q-223 9 -258 -4l19 76q43 2 45 37l20 145h-12q-61 -145 -103 -254l-118 -8q-39 250 -39 262z" />
    <glyph glyph-name="estimated" unicode="&#x212e;" horiz-adv-x="1632" 
d="M1317 1057q0 25 -21 45q-190 190 -458 190t-459 -196q-20 -20 -21 -47v-365q0 -10 11 -10h938q10 0 10 10v373zM369 637q-10 0 -11 -8v-371q0 -20 19 -43q186 -199 472 -199t476 224h111q-104 -123 -262 -194t-336 -71q-311 0 -534 199q-222 198 -222 480t221 481
t533 199t534 -200q221 -198 221 -481v-16h-1222z" />
    <glyph glyph-name="partialdiff" unicode="&#x2202;" horiz-adv-x="1015" 
d="M596 557q0 109 -2 133q-27 20 -62 21q-61 -1 -96 -103t-35 -226q-1 -124 19 -158t62 -34t78 129t36 238zM999 598q-1 -284 -155 -456q-154 -171 -418 -171q-198 1 -306 103t-108 291q0 247 128 423t304 177l70 -45l10 18q-92 178 -383 395l125 166l35 17
q330 -146 514 -390t184 -528z" />
    <glyph glyph-name="product" unicode="&#x220f;" horiz-adv-x="1427" 
d="M242 1078q0 38 -14 52t-48 15l-49 -2l-16 28l41 164q242 -10 319 -10h694l347 10l-37 -184q-70 -13 -93 -31t-32 -76q-31 -168 -73 -452t-42 -332q0 -49 11 -65t40 -17l62 6l14 -20l-39 -172q-252 8 -334 8l-317 -10l37 174q71 16 95 49t33 111t47 318t40 342
q0 104 -14 118t-26 16t-18 4t-36 2h-75q-46 0 -68 -22t-32 -84q-113 -655 -112 -764q0 -43 11 -59q11 -17 41 -17t42 6l14 -20l-39 -172q-239 8 -319 8l-289 -8q-20 0 -43 -2l37 174q80 16 110 49t38 119q92 708 92 746z" />
    <glyph glyph-name="summation" unicode="&#x2211;" horiz-adv-x="1206" 
d="M903 921q0 52 -29 101t-122 65l-179 29l189 -407l-10 -88l-379 -412l307 45q88 10 137 68t78 188l262 18q-74 -299 -98 -489l-47 -45l-852 12l-170 -20l-56 139l463 506l-291 608l48 90h96l557 -2l362 23l21 -23l-39 -453l-250 -34q2 29 2 81z" />
    <glyph glyph-name="minus" unicode="&#x2212;" horiz-adv-x="1005" 
d="M983 674l10 -31l-61 -278l-899 -5l-15 27l70 277q276 -2 453 -2z" />
    <glyph glyph-name="radical" unicode="&#x221a;" horiz-adv-x="1001" 
d="M23 756h-13l-4 8l43 176q139 10 422 47l10 -14l19 -676h35l442 1182l61 41h240l-614 -1520l-449 -25q-53 535 -68 680q-10 59 -36 80q-27 21 -88 21z" />
    <glyph glyph-name="infinity" unicode="&#x221e;" horiz-adv-x="1042" 
d="M754 623q-44 0 -95 -35q47 -121 67 -139t38 -19q84 0 84 100q0 43 -25 68t-69 25zM291 414q37 0 90 30q-21 66 -41 100t-53 34q-72 0 -72 -93q0 -71 76 -71zM360 866q145 0 236 -145q92 158 235 158q95 0 153 -82t58 -211q0 -186 -111 -315q-113 -128 -267 -128t-226 150
q-88 -137 -221 -137q-90 0 -149 82t-60 200q1 176 104 302t248 126z" />
    <glyph glyph-name="integral" unicode="&#x222b;" horiz-adv-x="905" 
d="M788 1225q76 -1 134 -15t59 -32q0 -31 -31 -124t-51 -126l-37 -6q-96 82 -154 82t-86 -37t-34 -123l-35 -641q-10 -223 -145 -381t-318 -158q-68 0 -134 34t-65 72q0 38 31 122t60 118h36q8 -57 41 -93t82 -36t72 48t23 165l2 692q0 156 176 298t374 141z" />
    <glyph glyph-name="approxequal" unicode="&#x2248;" horiz-adv-x="1005" 
d="M295 182q-62 0 -197 -119h-32l-86 115l4 33l243 235l45 9q47 0 201 -35t186 -35q60 0 197 119h33l86 -115l-4 -33l-244 -235l-47 -8q-47 1 -200 35t-185 34zM346 592q-59 0 -164 -88l-35 -31h-32l-86 115l4 33l246 235l45 8q46 0 199 -35t186 -34q59 0 163 90l35 28h33
l86 -114l-4 -33l-246 -236l-45 -8q-47 0 -200 35t-185 35z" />
    <glyph glyph-name="notequal" unicode="&#x2260;" horiz-adv-x="1005" 
d="M901 160l-313 -2h-64l-57 -221l-244 -23l-4 18l57 226l-274 -2l-16 26l71 277q147 -2 299 -2l29 110l-334 -2l-14 27l69 276q190 -2 357 -2l67 254l242 21l10 -17l-67 -256l286 11l11 -31l-60 -279l-317 -2l-29 -110q137 0 346 12l11 -31z" />
    <glyph glyph-name="lessequal" unicode="&#x2264;" horiz-adv-x="929" 
d="M465 0q303 0 315 2l15 -37l-56 -217l-743 -2l-16 39l47 215h438zM92 377l-12 31l37 313l370 158l314 143l33 -23l45 -215q-209 -80 -527 -219l-2 -16l185 -100l268 -132l12 -43l-137 -188q-547 273 -586 291z" />
    <glyph glyph-name="greaterequal" unicode="&#x2265;" horiz-adv-x="929" 
d="M459 0q303 0 313 2l16 -37l-55 -217l-743 -2l-17 39l47 215h439zM854 731l12 -31l-39 -313l-370 -158l-312 -143l-34 23l-43 215q236 92 524 219l2 16l-182 100l-269 132l-14 43l137 188q563 -281 588 -291z" />
    <glyph glyph-name="lozenge" unicode="&#x25ca;" horiz-adv-x="1081" 
d="M477 825l-135 -268l70 -225l84 -252h16l266 493l-69 236l-86 254h-17zM82 516l12 100l189 334l200 369l314 14l24 -14l109 -365l112 -327l-16 -105l-176 -313l-211 -385l-313 -14l-29 14l-102 348z" />
    <glyph glyph-name="fi" unicode="&#xfb01;" horiz-adv-x="1597" 
d="M1147 836q0 18 -8 30t-43 13h-37q-6 8 -15 24l29 129h279l303 6l-31 -155q-54 -9 -72 -23t-34 -90t-49 -295t-33 -259t9 -52t32 -12l49 4l10 -19l-33 -143q-215 6 -284 6l-289 -6l28 147q68 14 91 39t28 90q70 548 70 566zM190 834q0 45 -34 45l-41 -2l-21 24l33 137
q254 -6 498 -6t381 21l22 -29q-43 -180 -67 -326l-259 -14q10 45 11 76q0 61 -95 61q-26 0 -36 -8t-15 -31l-35 -184l132 -2l174 8l20 -24l-47 -199q-115 4 -156 4t-155 -8q-14 -94 -14 -119t8 -40q10 -15 57 -15t86 14l27 -33l-46 -188q-196 4 -316 4t-337 -16l35 161
q61 8 86 38t35 102q69 529 69 549z" />
    <glyph glyph-name="fl" unicode="&#xfb02;" horiz-adv-x="1921" 
d="M1340 0q-206 0 -418 -16l32 159q63 10 89 40t34 102q68 533 68 551t-8 30t-43 13h-41l-13 24l29 129h281l372 6l-41 -170q-87 -8 -121 -23t-38 -48q-82 -451 -82 -547q0 -47 39 -47q77 0 111 52t61 214l239 23q16 -20 19 -27q-49 -215 -92 -447l-31 -28q-240 10 -446 10z
M190 834q0 45 -34 45l-41 -2l-21 24l33 137q254 -6 498 -6t381 21l22 -29q-43 -180 -67 -326l-259 -14q10 45 11 76q0 61 -95 61q-26 0 -36 -8t-15 -31l-35 -184l132 -2l174 8l20 -24l-47 -199q-115 4 -156 4t-155 -8q-14 -94 -14 -119t8 -40q10 -15 57 -15t86 14l27 -33
l-46 -188q-196 4 -316 4t-337 -16l35 161q61 8 86 38t35 102q69 529 69 549z" />
    <glyph glyph-name="acute.cap" 
d="M696 1561l-14 -33q-266 -49 -520 -113l-39 27l-43 145q211 78 510 205l33 -10z" />
    <glyph glyph-name="breve.cap" 
d="M539 1618q162 0 241 143l54 -14l65 -127q-51 -119 -150 -199t-243 -80t-224 80q-81 80 -102 199l99 127l57 14q18 -71 74 -107t129 -36z" />
    <glyph glyph-name="circumflex.cap" 
d="M588 1860q0 6 129 -112t190 -171l-88 -127l-49 -14q-90 41 -250 104q-102 -37 -274 -104l-45 14l-58 127q164 111 389 283h56z" />
    <glyph glyph-name="dieresis.cap" 
d="M309 1403q-143 0 -143 137q0 92 54 148t132 57q154 0 154 -139q0 -90 -54 -147q-55 -56 -143 -56zM694 1403q-145 0 -145 137q0 92 54 148t134 57q154 0 154 -139q0 -90 -54 -147q-55 -56 -143 -56z" />
    <glyph glyph-name="grave.cap" 
d="M12 1528l-14 33l74 221l32 10q258 -111 510 -205l-43 -145l-39 -27q-190 50 -520 113z" />
    <glyph glyph-name="macron.cap" 
d="M838 1686l18 -37l-65 -224l-543 -4l-29 31l66 223q188 -2 305 -2z" />
    <glyph glyph-name="ring.cap" 
d="M564 1827q190 0 190 -188q0 -88 -71 -165t-170 -77q-191 0 -191 193q0 95 70 166q71 71 172 71zM532 1540q29 0 54 18t24 60q0 61 -69 61q-76 0 -76 -75q-1 -64 67 -64z" />
    <glyph glyph-name="tilde.cap" 
d="M419 1501q-50 0 -153 -119h-33l-106 111l4 33l191 235l34 8q37 1 153 -34t142 -35q45 0 125 90l27 29h33l106 -111l-4 -33l-190 -235l-35 -8q-37 0 -153 34t-141 35z" />
    <glyph glyph-name="caron.cap" 
d="M864 1819l60 -127q-182 -123 -392 -283h-55q-166 158 -317 283l86 127l49 14q47 -23 250 -104q102 37 274 104z" />
    <glyph glyph-name="dotaccent.cap" 
d="M328 1563q0 111 64 177t157 66q182 0 182 -166q1 -108 -64 -175t-159 -66q-180 0 -180 164z" />
    <glyph glyph-name="commaaccent" 
d="M294 -70q85 0 133 -56t48 -158t-92 -217q-92 -116 -250 -206l-119 95v51q133 97 131 234q0 73 -59 139l6 28q117 90 202 90z" />
    <glyph glyph-name="hungarumlaut.cap" 
d="M856 1636v-30q-182 -109 -354 -226l-39 11l-78 98l305 311l31 2zM451 1636v-30q-182 -109 -355 -226l-39 11l-77 98l305 311l30 2z" />
    <glyph glyph-name="zero.lf" horiz-adv-x="970" 
d="M479 356q117 0 167 65t50 216q0 195 -180 194q-115 -1 -166 -67t-51 -215q0 -193 180 -193zM403 -25q-174 0 -264 119t-90 348q1 360 149 572t404 211q170 0 259 -119t89 -348q0 -362 -146 -573q-147 -210 -401 -210z" />
    <glyph glyph-name="one.lf" horiz-adv-x="753" 
d="M541 276q0 -96 63 -96l88 4l6 -12l-51 -184q-203 12 -324 12t-366 -20l39 165q94 10 139 43t53 97q74 604 74 633t-12 47t-68 18l-94 -6l-16 20l34 154q197 16 363 39t260 35l23 -88q-66 -51 -93 -130t-73 -370t-45 -361z" />
    <glyph glyph-name="two.lf" horiz-adv-x="1024" 
d="M592 262q74 0 112 41t62 146l240 18q-76 -272 -109 -455l-39 -37q-469 25 -676 25l-194 -14l2 200l301 291q219 230 219 332q0 84 -90 84q-117 0 -250 -145h-37l-22 241q215 234 484 236q136 0 232 -75q97 -75 97 -207t-96 -276t-347 -386l8 -19h103z" />
    <glyph glyph-name="three.lf" horiz-adv-x="888" 
d="M212 260q101 0 159 36q57 36 57 95q0 94 -207 94l-24 31l2 184l133 27q131 55 131 162q-1 31 -21 49t-55 18q-82 0 -215 -82l-31 -2l-39 211q98 61 222 101t238 41q116 -1 200 -61t84 -162t-71 -182q-71 -81 -185 -115l-2 -23q250 -92 250 -266t-213 -307t-473 -134
q-102 -1 -136 55t-32 167q0 25 2 53l51 47q74 -37 175 -37z" />
    <glyph glyph-name="four.lf" horiz-adv-x="987" 
d="M461 784l-191 -270h181l32 270h-22zM-31 272l27 205l584 744l18 4l287 -25l-84 -686h135l18 -31l-51 -231l-131 4l-18 -233l-25 -23l-338 -25l-18 25q25 133 45 266z" />
    <glyph glyph-name="five.lf" horiz-adv-x="868" 
d="M815 449q0 -185 -210 -329t-462 -145q-100 1 -135 57t-35 167q0 25 2 51l54 47q68 -37 169 -37t157 35t57 88q0 53 -71 82t-235 47l-14 23l113 616l18 16l416 13q57 2 86 19t49 63l164 10l-102 -367l-45 -39q-172 16 -371 17l-21 -107q221 -42 319 -118t97 -209z" />
    <glyph glyph-name="six.lf" horiz-adv-x="942" 
d="M485 530q-55 0 -112 -34q-18 -106 -19 -136q0 -145 88 -145q70 0 97 47t26 146q0 122 -80 122zM915 469q0 -225 -144 -359t-386 -135q-172 -1 -270 105q-99 106 -99 265q-1 295 159 482q160 186 345 275q184 90 279 115l45 10l24 -15l41 -165q-27 -9 -69 -29t-151 -95
q-108 -75 -181 -167l8 -23l115 43q133 0 209 -83t75 -224z" />
    <glyph glyph-name="seven.lf" horiz-adv-x="862" 
d="M399 1202h445l98 -143q-182 -332 -418 -789l-112 -293h-56l-243 78l-17 58l479 796l-178 -18q-88 -10 -121 -40t-61 -128l-170 -12q63 272 100 489l13 10q118 -8 241 -8z" />
    <glyph glyph-name="eight.lf" horiz-adv-x="937" 
d="M440 893q0 -41 34 -71t104 -64q47 70 47 135q0 96 -86 96q-43 1 -71 -27t-28 -69zM315 328q0 -64 29 -98t79 -34t79 28t28 66q0 61 -69 105q-23 15 -58 35t-41 25q-47 -63 -47 -127zM6 254q0 199 217 291q-131 113 -131 281t144 284q144 117 346 117q150 0 252 -80
t102 -197q0 -182 -191 -280q135 -98 135 -270t-146 -298q-146 -127 -357 -127q-163 0 -267 78t-104 201z" />
    <glyph glyph-name="nine.lf" horiz-adv-x="942" 
d="M483 670q55 0 111 32q20 70 20 138q0 145 -86 145q-70 0 -96 -47q-26 -48 -27 -158q0 -110 78 -110zM53 731q-1 223 145 359t388 135q172 1 270 -105t98 -286q0 -138 -46 -260t-118 -206q-155 -181 -339 -271q-184 -89 -279 -113l-45 -11l-25 15l-41 166q27 10 70 28
t149 94t181 168l-6 23l-117 -43q-131 0 -208 83t-77 224z" />
    <glyph glyph-name="zero.tf" horiz-adv-x="942" 
d="M467 356q113 0 160 65t47 216q0 195 -172 194q-109 -1 -158 -67t-49 -215q0 -193 172 -193zM391 -25q-170 0 -258 119t-88 346q0 360 146 572t397 213q168 0 254 -119t86 -346q0 -362 -144 -574t-393 -211z" />
    <glyph glyph-name="one.tf" horiz-adv-x="942" 
d="M627 279q0 -98 80 -99l104 4l6 -12l-49 -184q-224 12 -358 12t-396 -20l39 165q106 10 159 43q52 33 60 97q78 601 78 629t-16 48t-80 21l-111 -6l-16 20l33 154q648 64 669 74l23 -88q-74 -49 -109 -148q-25 -59 -71 -345t-45 -365z" />
    <glyph glyph-name="two.tf" horiz-adv-x="942" 
d="M459 811q0 82 -78 82q-104 0 -231 -145h-35l-21 241q96 109 215 172t249 63t222 -74q92 -75 92 -206t-89 -275t-322 -388l6 -19h80q67 0 103 41t59 146l239 18q-74 -272 -106 -455l-39 -37q-442 25 -643 25l-191 -14l4 200l295 291q191 228 191 334z" />
    <glyph glyph-name="three.tf" horiz-adv-x="942" 
d="M232 260q105 0 168 36q62 36 63 95q0 94 -223 94l-25 31l2 184l137 27q139 55 140 162q0 67 -86 67t-220 -82l-32 -2l-39 211q94 59 222 101t248 41t206 -61t86 -160t-73 -182t-192 -117l-2 -23q260 -92 260 -266t-219 -307t-485 -134q-102 1 -136 57t-34 177v41l51 47
q78 -37 183 -37z" />
    <glyph glyph-name="four.tf" horiz-adv-x="942" 
d="M436 784l-176 -270h166l33 270h-23zM-39 272l27 205l565 744l18 4l289 -25l-84 -686h129l17 -31l-52 -231l-122 4l-19 -233l-24 -23l-338 -25l-19 25q25 133 45 266z" />
    <glyph glyph-name="five.tf" horiz-adv-x="942" 
d="M862 446q0 -182 -218 -326t-478 -145q-104 1 -140 57t-36 169q0 23 2 49l53 47q69 -37 179 -37t172 35t63 88q0 53 -77 82t-253 47l-14 23l112 616l19 16l436 13q59 2 90 19t51 63l164 10l-102 -367l-45 -39q-184 16 -396 17l-24 -107q236 -41 339 -119t103 -211z" />
    <glyph glyph-name="six.tf" horiz-adv-x="942" 
d="M485 530q-55 0 -112 -34q-18 -106 -19 -136q0 -145 88 -145q70 0 97 47t26 146q0 122 -80 122zM915 469q0 -225 -144 -359t-386 -135q-172 -1 -270 105q-99 106 -99 265q-1 295 159 482q160 186 345 275q184 90 279 115l45 10l24 -15l41 -165q-27 -9 -69 -29t-151 -95
q-108 -75 -181 -167l8 -23l115 43q133 0 209 -83t75 -224z" />
    <glyph glyph-name="seven.tf" horiz-adv-x="942" 
d="M436 1202h467l101 -143q-287 -473 -451 -789l-113 -293h-55l-248 78l-16 58l514 796l-205 -18q-94 -10 -128 -39t-64 -129l-172 -12q63 272 100 489l14 10q125 -8 256 -8z" />
    <glyph glyph-name="eight.tf" horiz-adv-x="942" 
d="M440 893q0 -41 34 -71t106 -64q47 70 47 135q0 96 -86 96q-45 1 -73 -27t-28 -69zM535 295q0 43 -35 74q-55 45 -135 86q-49 -67 -49 -129t29 -96q30 -34 80 -34t80 28t30 71zM6 254q0 199 219 291q-133 115 -133 281t144 284q144 117 348 117q150 0 252 -80t102 -197
q0 -182 -190 -280q137 -98 137 -270q1 -172 -147 -298q-148 -127 -359 -127q-165 0 -269 78t-104 201z" />
    <glyph glyph-name="nine.tf" horiz-adv-x="942" 
d="M483 670q55 0 111 32q20 70 20 138q0 145 -86 145q-70 0 -96 -47q-26 -48 -27 -158q0 -110 78 -110zM53 731q-1 223 145 359t388 135q172 1 270 -105t98 -286q0 -138 -46 -260t-118 -206q-155 -181 -339 -271q-184 -89 -279 -113l-45 -11l-25 15l-41 166q27 10 70 28
t149 94t181 168l-6 23l-117 -43q-131 0 -208 83t-77 224z" />
    <glyph glyph-name="zero.tosf" horiz-adv-x="921" 
d="M455 367q119 -1 172 37t53 118q0 133 -217 133t-217 -155q0 -133 209 -133zM377 -25q-176 0 -268 109t-93 311q0 299 146 479t393 181q174 0 265 -108t91 -310q0 -303 -144 -483t-390 -179z" />
    <glyph glyph-name="one.tosf" horiz-adv-x="921" 
d="M616 299q0 -119 78 -119l105 4l6 -12l-49 -184q-223 12 -338 12q-125 0 -408 -20l35 165q111 8 161 41t60 99q53 431 53 459t-16 48t-80 21l-108 -6l-17 20l35 154q631 62 668 74l22 -88q-68 -43 -106 -148q-101 -248 -101 -520z" />
    <glyph glyph-name="two.tosf" horiz-adv-x="921" 
d="M304 752q-83 0 -193 -129h-35l-25 213q242 219 465 219q141 0 227 -70t86 -184q0 -78 -14 -125q-33 -96 -336 -395l6 -19h37q70 0 107 43t57 144l240 18q-78 -272 -107 -455l-39 -37q-494 25 -694 25l-147 -12l4 102l149 158q168 184 232 273t63 160q0 71 -83 71z" />
    <glyph glyph-name="three.tosf" horiz-adv-x="921" 
d="M842 244q0 -98 -106 -204t-274 -170q-167 -65 -337 -65q-102 1 -135 57t-33 175v43l51 47q68 -37 178 -37t178 35q67 35 66 92q0 102 -215 102l-22 31l2 185l135 26q63 25 100 67t37 81q0 77 -83 77t-220 -98l-31 -2l-41 211q96 68 223 113t246 45q119 -1 204 -61
t85 -160t-72 -180t-188 -115l-2 -23q254 -81 254 -272z" />
    <glyph glyph-name="four.tosf" horiz-adv-x="921" 
d="M424 614l-176 -260h166l30 260h-20zM539 1051l18 4l291 -25l-84 -676h125l18 -30l-49 -232q-49 2 -125 4l-18 -243l-23 -23l-340 -25l-16 25q25 141 45 276q-227 6 -436 7q4 35 14 103t14 101z" />
    <glyph glyph-name="five.tosf" horiz-adv-x="921" 
d="M836 305q0 -123 -106 -239t-276 -189q-171 -72 -350 -72q-104 -1 -139 55t-35 160q0 29 2 60l50 47q74 -37 186 -37t186 36q72 36 72 89t-76 83t-258 48l-18 23q59 256 123 612l18 16l418 13q59 2 89 19t52 63l164 10l-104 -367l-46 -39q-164 16 -374 17l-31 -107
q241 -38 347 -108t106 -193z" />
    <glyph glyph-name="six.tosf" horiz-adv-x="921" 
d="M475 530q-51 0 -108 -34q-18 -106 -19 -136q0 -145 84 -145q68 0 94 47q26 48 25 158q0 110 -76 110zM901 469q0 -225 -143 -359t-383 -135q-170 -1 -266 105t-97 287q0 297 211 522q96 102 260 197t346 141l25 -15l41 -165q-25 -9 -67 -29t-146 -95t-178 -167l8 -23
l111 43q129 0 203 -83t75 -224z" />
    <glyph glyph-name="seven.tosf" horiz-adv-x="921" 
d="M403 1030h461l101 -143q-262 -440 -441 -789l-114 -293h-56l-245 78l-19 58l504 796l-195 -18q-92 -10 -126 -39t-64 -129l-170 -12q61 272 98 489l15 10q122 -8 251 -8z" />
    <glyph glyph-name="eight.tosf" horiz-adv-x="921" 
d="M436 893q0 -43 33 -72t100 -63q45 66 45 135q0 96 -84 96q-42 -1 -68 -27t-26 -69zM518 295q0 67 -115 131q-43 25 -49 29q-43 -61 -43 -126t28 -99t76 -34q47 0 75 28t28 71zM2 254q0 201 215 291q-129 111 -129 279t144 286q144 117 348 117q147 0 245 -80t99 -197
q0 -182 -187 -280q131 -98 131 -270t-145 -298q-145 -127 -352 -127q-164 0 -267 78q-102 78 -102 201z" />
    <glyph glyph-name="nine.tosf" horiz-adv-x="921" 
d="M453 500q53 0 108 32q20 70 21 138q0 145 -84 145q-70 0 -96 -47q-26 -48 -26 -158t77 -110zM553 1055q170 1 268 -105q99 -106 99 -264q1 -297 -160 -484q-160 -187 -339 -276q-179 -88 -276 -110l-45 -13l-24 15l-39 166q25 10 67 28t144 94q104 76 178 168l-8 23
l-111 -43q-129 0 -204 83t-74 224q0 223 143 359t381 135z" />
    <glyph glyph-name="caron.alt" 
d="M653 1554l15 -24q-59 -223 -140 -453l-155 -51l-39 12q31 199 43 488z" />
    <glyph glyph-name="zero.numr" horiz-adv-x="704" 
d="M336 780q76 0 106 36t29 111q0 75 -28 103q-29 28 -95 27q-66 0 -96 -37t-31 -127q0 -113 115 -113zM283 504q-246 0 -246 313q0 244 101 384t278 140q242 0 241 -315q0 -244 -99 -383t-275 -139z" />
    <glyph glyph-name="one.numr" horiz-adv-x="565" 
d="M393 706q0 -56 41 -57l60 2l4 -8l-37 -131q-141 8 -217 8l-273 -14l27 119q125 12 133 90q47 397 47 414t-7 29t-46 11l-66 -2l-12 15l27 108q14 0 444 51l19 -65q-43 -29 -63 -78t-50 -243q-31 -193 -31 -249z" />
    <glyph glyph-name="two.numr" horiz-adv-x="755" 
d="M346 1049q0 51 -66 51t-155 -90h-29l-16 176q156 156 323 155q113 0 181 -52t68 -142t-64 -183q-63 -93 -230 -243l7 -12h53q47 -1 74 27t40 98l179 12q-53 -190 -74 -316l-29 -26q-324 16 -471 16l-141 -8l4 150l213 198q133 130 133 189z" />
    <glyph glyph-name="three.numr" horiz-adv-x="659" 
d="M596 1190q0 -68 -48 -122t-128 -75v-16q174 -67 174 -183t-148 -203t-333 -87q-74 0 -98 40t-23 126v28l39 35q53 -27 120 -27q138 1 138 76q0 53 -131 54l-19 22v135l92 17q84 31 84 98q0 41 -51 41t-143 -55h-23l-28 151q157 98 326 96q84 0 142 -41q58 -42 58 -110z
" />
    <glyph glyph-name="four.numr" horiz-adv-x="731" 
d="M317 1032l-114 -166h110l21 166h-17zM-16 694l18 148l397 495l13 4l217 -18l-56 -457h89l14 -20l-37 -166l-86 2l-12 -145l-17 -17l-250 -16l-14 16q16 82 29 170z" />
    <glyph glyph-name="five.numr" horiz-adv-x="643" 
d="M578 819q0 -125 -146 -220t-326 -95q-74 0 -98 40t-22 126v28l41 35q47 -27 115 -27t102 20q35 19 35 49q-1 30 -47 46t-158 31l-11 16l78 422l15 10l288 9q70 0 95 55l120 6l-71 -256l-35 -29q-115 10 -250 11l-10 -54q153 -29 219 -81t66 -142z" />
    <glyph glyph-name="six.numr" horiz-adv-x="694" 
d="M387 802q0 68 -42 68t-71 -18q-12 -61 -12 -88q0 -86 51 -86q44 0 59 28t15 96zM645 840q0 -156 -101 -246t-272 -90q-124 0 -192 72t-68 196q0 125 60 229q59 104 143 166q170 121 313 160l60 14l18 -8l31 -121q-145 -51 -262 -172l6 -16q39 10 70 23q90 -1 142 -55
t52 -152z" />
    <glyph glyph-name="seven.numr" horiz-adv-x="638" 
d="M274 1325h310l73 -102q-117 -209 -274 -510l-80 -207h-41l-180 55l-12 39l317 516l-108 -12q-61 -8 -83 -26t-40 -85l-125 -8q43 188 69 340l9 6q81 -6 165 -6z" />
    <glyph glyph-name="eight.numr" horiz-adv-x="686" 
d="M317 1114q0 -41 89 -80q23 41 22 80q0 55 -53 55q-27 0 -43 -15t-15 -40zM295 664q63 0 63 57q0 29 -28 45t-37 24t-23 14q-14 7 -20 11q-18 -27 -19 -76q1 -75 64 -75zM4 694q0 129 143 187q-88 77 -88 191q-1 114 101 192t227 78t197 -55q72 -54 71 -134
q0 -121 -127 -182q90 -63 90 -180t-102 -202t-234 -85t-205 54t-73 136z" />
    <glyph glyph-name="nine.numr" horiz-adv-x="694" 
d="M340 973q31 0 68 18q14 45 14 90q0 86 -51 86q-45 0 -60 -27q-14 -28 -14 -98t43 -69zM37 1006q0 154 102 244t273 91q120 1 190 -71t70 -197t-60 -230t-143 -167q-170 -121 -313 -160l-60 -14l-18 10l-31 121q143 49 260 172l-4 16q-61 -20 -70 -24q-90 -1 -143 55
t-53 154z" />
    <glyph glyph-name="zero.dnom" horiz-adv-x="704" 
d="M336 260q76 0 106 36t29 111q0 75 -28 103q-29 28 -95 27q-66 0 -96 -37t-31 -127q0 -113 115 -113zM283 -16q-246 0 -246 313q0 244 101 384t278 140q242 0 241 -315q0 -244 -99 -383t-275 -139z" />
    <glyph glyph-name="one.dnom" horiz-adv-x="565" 
d="M393 185q0 -56 41 -56l60 2l4 -8l-37 -131q-141 8 -217 8l-273 -14l27 118q125 12 133 91q47 397 47 414t-7 29t-46 11l-66 -2l-12 15l27 108q14 0 444 51l19 -65q-43 -29 -63 -78t-50 -243q-31 -194 -31 -250z" />
    <glyph glyph-name="two.dnom" horiz-adv-x="755" 
d="M346 528q0 52 -66 52t-155 -91h-29l-16 177q156 156 323 155q113 0 181 -52t68 -142q0 -89 -64 -183q-63 -94 -230 -243l7 -13h53q47 0 74 28t40 97l179 13q-53 -190 -74 -316l-29 -26q-324 16 -471 16l-141 -8l4 149l213 199q133 129 133 188z" />
    <glyph glyph-name="three.dnom" horiz-adv-x="659" 
d="M596 670q0 -68 -48 -122t-128 -75v-16q174 -66 174 -183q0 -118 -148 -204t-333 -86q-74 0 -98 40t-23 126v28l39 35q53 -27 120 -27t103 20t35 56q0 53 -131 53l-19 23v135l92 16q84 31 84 99q0 41 -51 41t-143 -56h-23l-28 152q157 98 326 96q84 0 142 -41
q58 -42 58 -110z" />
    <glyph glyph-name="four.dnom" horiz-adv-x="731" 
d="M317 512l-114 -166h110l21 166h-17zM-16 174l18 148l397 495l13 4l217 -18l-56 -457h89l14 -20l-37 -166l-86 2l-12 -146l-17 -16l-250 -16l-14 16q16 82 29 170z" />
    <glyph glyph-name="five.dnom" horiz-adv-x="643" 
d="M578 299q0 -125 -146 -220t-326 -95q-74 0 -98 40t-22 126v28l41 35q47 -27 115 -27t102 20q35 20 35 49q-1 30 -47 46t-158 31l-11 16l78 422l15 10l288 8q70 0 95 56l120 6l-71 -256l-35 -29q-115 10 -250 10l-10 -53q153 -29 219 -81t66 -142z" />
    <glyph glyph-name="six.dnom" horiz-adv-x="694" 
d="M387 282q0 69 -42 68q-42 0 -71 -18q-12 -61 -12 -88q0 -86 51 -86q44 -1 59 27t15 97zM645 319q0 -155 -101 -245t-272 -90q-124 0 -192 72t-68 196q0 125 60 229q59 104 143 166q170 121 313 160l60 14l18 -8l31 -121q-145 -51 -262 -172l6 -16q39 10 70 22
q90 0 142 -54t52 -153z" />
    <glyph glyph-name="seven.dnom" horiz-adv-x="638" 
d="M274 805h310l73 -103q-117 -209 -274 -509l-80 -207h-41l-180 55l-12 39l317 516l-108 -12q-61 -8 -83 -26t-40 -85l-125 -8q43 188 69 340l9 6q81 -6 165 -6z" />
    <glyph glyph-name="eight.dnom" horiz-adv-x="686" 
d="M317 594q0 -41 89 -80q23 41 22 80q0 55 -53 55q-27 0 -43 -15t-15 -40zM295 143q63 0 63 58q0 29 -39 53q-4 2 -17 10t-30 18q-16 9 -22 13q-18 -27 -19 -76q1 -76 64 -76zM4 174q0 129 143 186q-88 78 -88 192q-1 114 101 192t227 77q125 0 197 -54t71 -134
q0 -121 -127 -182q90 -63 90 -181t-102 -202t-234 -84t-205 54t-73 136z" />
    <glyph glyph-name="nine.dnom" horiz-adv-x="694" 
d="M340 453q31 0 68 18q14 45 14 90q0 86 -51 86q-45 0 -60 -27q-14 -28 -14 -98t43 -69zM37 485q0 154 102 245t273 91q120 1 190 -71t70 -197t-60 -230t-143 -167q-170 -121 -313 -160l-60 -14l-18 10l-31 121q143 49 260 172l-4 16q-61 -20 -70 -25q-90 0 -143 56
t-53 153z" />
    <glyph glyph-name="a.sups" horiz-adv-x="798" 
d="M311 881q23 0 63 82t60 170q-53 33 -98 32q-14 -1 -28 -67t-15 -142q0 -76 18 -75zM477 653q-74 0 -74 72q0 25 31 149h-14q-100 -168 -178 -221q-106 1 -166 59t-62 162q0 162 116 304t247 141l96 -27l6 27l31 18l207 -16l12 -35q-51 -219 -78 -383l6 -4q12 0 68 53
l35 -6l28 -72q-119 -131 -182 -176t-129 -45z" />
    <glyph glyph-name="b.sups" horiz-adv-x="794" 
d="M461 1120q-23 0 -67 -86t-60 -166q39 -33 69 -34q31 0 51 56q19 56 19 143t-12 87zM92 1550h-37l19 121q139 0 332 19l24 -29q-66 -324 -108 -559l14 2q98 162 176 215q113 -1 174 -61t62 -168q0 -176 -119 -306t-279 -131q-88 0 -165 22t-109 44l-33 22l-20 37
q117 688 116 730q0 42 -47 42z" />
    <glyph glyph-name="c.sups" horiz-adv-x="604" 
d="M372 1159q-42 0 -64 -55q-22 -56 -22 -150t64 -94q53 0 101 101l30 -7l80 -86q-33 -88 -123 -151t-189 -63t-164 68q-65 69 -65 181q0 180 119 306t287 126q96 0 158 -32l6 -27l-74 -189h-65q-37 72 -79 72z" />
    <glyph glyph-name="d.sups" horiz-adv-x="800" 
d="M293 956q0 -76 19 -75q19 0 60 80q40 80 64 169q-71 36 -97 36q-18 0 -32 -67t-14 -143zM477 653q-74 0 -74 74q0 23 31 147h-14q-96 -164 -178 -221q-106 1 -166 59t-62 162q0 162 116 304t247 141l94 -27l29 201q4 33 -5 45t-38 12h-37l16 121q141 0 334 19l23 -29
q-96 -518 -142 -758l6 -4q6 0 68 53l35 -6l28 -72q-121 -131 -183 -176t-128 -45z" />
    <glyph glyph-name="e.sups" horiz-adv-x="659" 
d="M377 1159q-72 0 -90 -133q123 49 123 107q0 26 -33 26zM635 1165q0 -84 -79 -142t-273 -116q11 -49 77 -49t123 94l33 -4l80 -86q-35 -88 -132 -148q-96 -60 -202 -60t-173 70q-67 71 -66 187q0 176 118 300q119 124 289 124q95 0 150 -43t55 -127z" />
    <glyph glyph-name="f.sups" horiz-adv-x="514" 
d="M578 1688q94 0 159 -21l6 -14l-88 -193l-28 -4q-78 60 -123 60q-44 0 -64 -24t-28 -85l-13 -102h174l11 -11l-19 -110l-170 2l-10 -6l-53 -506q-12 -117 -129 -227t-228 -109q-70 0 -126 26t-72 62q35 102 104 190h31q6 -61 29 -85q23 -23 69 -23t71 29q27 29 23 75
t-2 60l33 499l-16 15h-107l-4 6l12 96l125 19l7 61q12 116 148 218t278 102z" />
    <glyph glyph-name="g.sups" horiz-adv-x="759" 
d="M16 874q0 158 117 302t248 145l96 -29l6 27l31 18l205 -14l22 -43q-37 -94 -49 -217q-2 -15 -12 -151t-16 -187q-12 -113 -182 -250t-301 -137q-132 0 -206 53t-73 131q0 16 8 41q100 51 217 96v11q-111 46 -111 204zM145 578q0 -25 36 -40t89 -16q145 0 164 150l27 233
l-15 4q-147 -221 -188 -245t-77 -52t-36 -34zM293 954q0 -78 21 -77q22 0 63 85t61 171q-66 33 -98 32q-16 -1 -32 -67t-15 -144z" />
    <glyph glyph-name="h.sups" horiz-adv-x="788" 
d="M471 657q-100 0 -100 88q0 27 42 160t42 163t-22 30q-21 0 -63 -80t-85 -205l-9 -76q-4 -33 -70 -55t-153 -23l-30 35q109 678 129 797q4 33 -6 46t-37 13h-39l18 121q139 0 334 19l22 -31q-70 -319 -108 -557l10 2q78 186 150 235q106 0 166 -40t59 -109q0 -29 -38 -148
t-40 -135l4 -4q10 0 68 53l37 -6l28 -69q-114 -129 -180 -177t-129 -47z" />
    <glyph glyph-name="i.sups" horiz-adv-x="477" 
d="M262 1411q-117 0 -117 115q0 80 46 125t126 45q115 0 115 -111q0 -80 -46 -127t-124 -47zM113 1141q0 43 -45 43h-39l18 121q90 0 326 18l24 -29q-49 -190 -78 -391l7 -4q8 0 69 53l35 -6l29 -72q-115 -129 -179 -175t-114 -46q-49 0 -55 25q-5 14 -5 63l7 330v70z" />
    <glyph glyph-name="j.sups" horiz-adv-x="475" 
d="M293 1411q-117 0 -117 115q0 80 46 125t126 45q115 0 115 -111q0 -80 -46 -127t-124 -47zM96 1184h-37l19 121q90 0 325 18l25 -29q-47 -180 -113 -606q-12 -100 -103 -200t-230 -160l-64 63l6 23q74 56 105 118t45 183q68 387 67 428q0 41 -45 41z" />
    <glyph glyph-name="k.sups" horiz-adv-x="745" 
d="M471 1070q0 28 -25 28q-51 0 -161 -285l-9 -76q-4 -33 -70 -55t-153 -23l-30 35q131 766 131 811t-45 45h-39l18 121q139 0 334 19l22 -31q-70 -319 -108 -557l10 2q80 190 150 235q115 0 177 -41t62 -116q0 -125 -149 -240l108 -229l-6 -31l-248 -29l-18 11l-64 280
l13 25q4 -2 27 9t48 37q25 27 25 55z" />
    <glyph glyph-name="l.sups" horiz-adv-x="458" 
d="M133 653q-100 0 -100 99q0 29 60 385t61 370q0 43 -45 43h-39l18 121q139 0 332 19l24 -29q-117 -571 -143 -758l6 -4q8 0 70 53l35 -6l28 -72q-116 -129 -180 -175t-127 -46z" />
    <glyph glyph-name="m.sups" horiz-adv-x="1175" 
d="M858 657q-98 0 -98 88q0 29 40 162t40 162t-23 29t-71 -85t-97 -212l-6 -64q-2 -33 -69 -55t-156 -23l-29 35q88 322 88 363t-22 41q-23 0 -65 -80t-85 -205l-8 -76q-4 -33 -71 -55t-154 -23l-31 35q57 346 67 404t0 72q-9 13 -38 14h-37l16 121q90 0 326 18l22 -31
q-29 -98 -41 -190l11 2q84 193 151 235q102 0 160 -40t59 -109l-14 -88l10 2q82 190 150 235q105 0 165 -40t60 -109q0 -29 -38 -148t-40 -135l4 -4q6 0 68 53l37 -6l28 -69q-117 -129 -181 -177t-128 -47z" />
    <glyph glyph-name="o.sups" horiz-adv-x="741" 
d="M297 653q-127 0 -197 72t-69 205q0 188 104 298t283 109q130 -1 198 -69t68 -199q0 -190 -106 -303t-281 -113zM348 809q60 0 62 200q0 99 -10 126t-38 26q-61 0 -61 -221q0 -131 47 -131z" />
    <glyph glyph-name="p.sups" horiz-adv-x="815" 
d="M484 1139q-12 0 -33 -31q-57 -80 -97 -219l35 -23q35 -14 62 -14q18 0 31 70q14 70 14 144t-12 73zM59 1184h-36l18 121q90 0 326 18l22 -29q-25 -84 -41 -174l12 2q86 152 172 215q116 0 178 -57t62 -160q0 -166 -118 -307t-246 -141l-138 28l-22 -153q-4 -41 7 -54
t52 -14h68v-8l-23 -117l-448 -10l22 121q41 6 59 23q17 18 35 98t51 293q34 213 33 259q0 46 -45 46z" />
    <glyph glyph-name="q.sups" horiz-adv-x="768" 
d="M309 881q23 0 65 82t62 167l-43 23q-31 12 -57 12q-14 1 -28 -67t-15 -142q0 -74 16 -75zM14 870q0 164 116 306t247 143l96 -27l19 64l30 18l203 -18l10 -35q-262 -471 -340 -619l39 172h-14q-98 -166 -180 -221q-106 -1 -166 57t-60 160zM390 672q-57 -90 5 30z
M598 514q0 -23 6 -30t25 -7l33 2l4 -6l-25 -119q-256 0 -424 -16l25 119q70 4 92 18t31 66l25 131q71 112 325 545q-117 -588 -117 -703z" />
    <glyph glyph-name="r.sups" horiz-adv-x="641" 
d="M115 1138q0 46 -45 46h-37l16 121q90 0 326 18l22 -31q-25 -84 -35 -164l11 2q27 80 77 144t85 63q92 -59 92 -186q0 -39 -27 -107l-29 -14q-29 31 -79 31q-100 0 -185 -238l-10 -86q-4 -33 -71 -55t-154 -23l-31 35q74 398 74 444z" />
    <glyph glyph-name="s.sups" horiz-adv-x="620" 
d="M243 829q46 0 46 27q0 14 -8 20q-7 6 -13 9q-6 4 -16 8t-26 12q-16 7 -43 17q-122 45 -122 158q1 112 93 185t232 73t222 -58q-43 -106 -92 -186h-39q-29 61 -76 61t-47 -33q0 -23 52 -41t90 -43t49 -39q33 -45 33 -94q0 -111 -98 -181t-251 -71q-87 0 -153 26t-82 64
q16 100 88 181l41 -2q4 -37 39 -65t81 -28z" />
    <glyph glyph-name="t.sups" horiz-adv-x="516" 
d="M266 653q-106 0 -154 48t-49 120q0 14 3 31l59 322l-12 12h-74l-4 6l10 96l100 17l19 149l252 49l20 -16q-23 -90 -41 -182h129l11 -11l-17 -110l-129 2l-18 -10l-43 -244q-6 -39 22 -39t76 57l33 -6l30 -74q-153 -217 -223 -217z" />
    <glyph glyph-name="u.sups" horiz-adv-x="798" 
d="M53 809q0 35 38 166t38 164q0 45 -45 45h-37l16 121q88 0 328 18l23 -29q-96 -326 -96 -360t20 -33q51 0 149 283l15 121l30 18h162l31 -35q-47 -221 -76 -385l6 -4q8 0 68 53l35 -6l30 -72q-121 -131 -184 -176t-127 -45q-76 0 -76 70q0 10 39 176l-12 -2
q-88 -199 -154 -240q-104 0 -162 40t-59 112z" />
    <glyph glyph-name="v.sups" horiz-adv-x="733" 
d="M45 1190h-43l10 115l303 20l17 -10q18 -199 18 -430h25q70 197 69 256q0 59 -75 88l18 71l283 37q39 -45 39 -141q0 -152 -279 -524l-264 -19l-27 29q-20 266 -59 469q-8 39 -35 39z" />
    <glyph glyph-name="w.sups" horiz-adv-x="1079" 
d="M350 885h25q39 106 71 217l-34 162l14 26l231 47q39 -45 39 -131q0 -33 -14 -86l14 -235h27q68 193 68 254t-74 90l16 71l285 37q37 -47 37 -145q0 -147 -279 -520l-217 -19l-24 29l-17 174h-16q-53 -121 -88 -184l-248 -19l-27 29q-20 266 -59 469q-8 39 -35 39h-43
l10 115l303 20l17 -10q18 -199 18 -430z" />
    <glyph glyph-name="x.sups" horiz-adv-x="757" 
d="M618 1337q76 0 140 -55q-51 -121 -101 -217h-39q-18 76 -61 76t-80 -90q39 -125 59 -165t42 -40q12 0 32 14t29 31h16l39 -84q-154 -154 -260 -154q-59 0 -89 32t-62 130q-78 -162 -164 -162t-148 54q43 115 99 217h39q20 -72 63 -72t78 86q-38 127 -58 167t-42 40
q-12 -1 -32 -15t-32 -30h-14l-41 84q154 154 260 153q59 1 89 -31t62 -132q80 163 176 163z" />
    <glyph glyph-name="y.sups" horiz-adv-x="739" 
d="M715 1196q0 -160 -281 -530q-142 -182 -244 -255t-210 -73q-62 0 -118 28t-69 66q10 48 41 110t62 95l38 -2q-2 -55 29 -91t83 -36t132 82q-68 473 -92 561q-10 39 -43 39h-33l8 115l306 20l14 -10q8 -152 12 -447h21q80 174 80 267q0 68 -74 94l16 71l285 37
q37 -47 37 -141z" />
    <glyph glyph-name="z.sups" horiz-adv-x="692" 
d="M635 866q0 -94 -57 -153t-144 -60q-43 0 -121 30t-116 30q-88 0 -177 -54l-40 68l372 385l-49 2q-61 0 -91 -22t-46 -74l-111 -6q41 164 66 311l65 14q190 -39 266 -39t105 33l39 43l100 -98l6 -29q-197 -172 -385 -360l29 4l127 -8q33 -1 57 33t31 88h47q27 -44 27 -138
z" />
    <glyph glyph-name="foundryicon" horiz-adv-x="1603" 
d="M369 -121q-164 0 -164 164v866q0 164 164 164h866q164 0 164 -164v-866q0 -164 -164 -164h-866zM891 618h53q20 0 21 -20v-270q0 -66 45 -108t114 -42l129 76v51q-25 -8 -53 -8q-84 0 -84 117v184q0 20 21 20h118v74h-118q-20 0 -21 21v57h-43l-182 -115v-37zM543 657
v238h-152v-705h152v369q0 25 49 25q88 0 88 -115v-279h151v365q0 66 -45 108t-114 42q-113 -66 -121 -66t-8 18z" />
    <glyph glyph-name="square1" horiz-adv-x="940" 
d="M-57 0l118 967h940l-118 -967h-940z" />
    <glyph glyph-name="square2" horiz-adv-x="1286" 
d="M-57 0l161 1325h1287l-162 -1325h-1286z" />
    <glyph glyph-name="idotaccent" horiz-adv-x="641" 
d="M562 1170q-65 -67 -156 -66q-182 0 -183 164q0 112 65 178t158 65q180 0 181 -165q0 -109 -65 -176zM479 216q0 -40 9 -52t32 -12l49 4l11 -19l-33 -143q-215 6 -285 6l-289 -6l29 147q68 14 90 39t29 90q69 548 69 566t-8 30t-43 13h-37q-6 8 -14 24l29 129h278l303 6
l-30 -155q-54 -9 -72 -23t-29 -59q-20 -107 -54 -326t-34 -259z" />
  </font>
</defs>
</svg>
