<?xml version="1.0" standalone="no"?>
<!DOCTYPE svg PUBLIC "-//W3C//DTD SVG 1.1//EN" "http://www.w3.org/Graphics/SVG/1.1/DTD/svg11.dtd" >
<svg xmlns="http://www.w3.org/2000/svg">
<metadata>
Created by FontPrep 20130207 at Tue May 10 19:20:23 2016
 By Guillaume Coquoz
Copyright (c) 2011, Juan Pablo del Peral (juan@huertatipografica.com.ar), with Reserved Font Names "Alegreya" "Alegreya SC"
</metadata>
<defs>
<font id="298ddd297d053d182a0e58015f83cf24" horiz-adv-x='1024' >
  <font-face 
    font-family="Alegreya-Black"
    font-weight="900"
    font-stretch="normal"
    units-per-em="2048"
    panose-1="2 0 5 3 5 0 0 2 0 4"
    ascent="1638"
    descent="-410"
    x-height="977"
    cap-height="1335"
    bbox="-408 -707 2245 2081"
    underline-thickness="114"
    underline-position="-121"
    unicode-range="U+0020-FB02"
  />
<missing-glyph horiz-adv-x="294" 
 />
    <glyph glyph-name="fi" unicode="fi" horiz-adv-x="1353" 
d="M652 188q13 0 50 5l11 -11l-25 -192l-342 10q-102 0 -180 -6t-137 -10l18 178q61 6 86 30.5t25 81.5v394q-4 45 -30 61t-108 21l-8 12l17 143l129 19q0 276 156.5 436t447.5 160q151 0 270 -47l15 -48q-21 -64 -47.5 -134t-43.5 -122l-28 -8q-101 101 -219 101
q-112 0 -152.5 -48.5t-40.5 -203.5v-84q248 0 383 12t361 53l26 -45q-49 -92 -49 -713q0 -61 40 -61h21q21 0 37 4l6 -10l-24 -174q-204 8 -281 8t-156 -8t-128 -12l24 182q109 8 109 121v350q0 72 -19.5 95.5t-79.5 23.5h-272l-2 -488q0 -76 63 -76h77z" />
    <glyph glyph-name="fl" unicode="fl" horiz-adv-x="1314" 
d="M652 188q13 0 50 5l11 -11l-25 -192l-342 10q-104 0 -182 -6t-135 -10l18 178q61 6 86 30.5t25 81.5v394q-4 45 -30 61t-108 21l-8 12l17 143l129 19v28q0 259 153 413.5t410 154.5q120 0 227 -41l299 41l19 -54q-72 -72 -72 -1233q0 -37 10 -51t37 -14h37q12 0 29 2
l6 -14l-27 -164q-236 8 -297 8t-138 -4t-118 -6l23 176q51 6 68.5 28.5t17.5 77.5v885l-2 47q-86 58 -150 58t-94.5 -11.5t-55 -50t-24.5 -190.5v-86h76q77 0 164 6l10 -15l-23 -174l-88 2q-88 2 -141 5l-2 -484q0 -76 63 -76h77z" />
    <glyph glyph-name="fj" unicode="fj" horiz-adv-x="1349" 
d="M928 1161q-100 101 -224 101q-123 0 -155.5 -61t-32.5 -275q243 0 357.5 10t386.5 55l26 -45q-51 -111 -51 -975q0 -217 -157.5 -328.5t-250.5 -150.5l-96 88l4 31q92 92 121 186t29 271v565q0 72 -19.5 95.5t-79.5 23.5h-272l-2 -488q0 -76 63 -76h45q45 0 82 5l11 -11
l-25 -192l-342 10q-104 0 -182 -6t-135 -10l18 178q61 6 86 30.5t25 81.5v394q-4 47 -31 62t-107 20l-8 12l17 143l129 19q0 274 157.5 435t446.5 161q56 0 139 -14t131 -33l15 -48q-21 -64 -47.5 -134t-43.5 -122z" />
    <glyph glyph-name=".notdef" horiz-adv-x="294" 
 />
    <glyph glyph-name=".null" horiz-adv-x="0" 
 />
    <glyph glyph-name="nonmarkingreturn" horiz-adv-x="681" 
 />
    <glyph glyph-name="space" unicode=" " horiz-adv-x="294" 
 />
    <glyph glyph-name="exclam" unicode="!" horiz-adv-x="581" 
d="M90 1366l37 49l385 53l51 -53l-149 -880l-211 -33l-43 41zM271 -18q-193 0 -193 196q0 96 55 153.5t151 57.5t144.5 -51t48.5 -146t-55.5 -152.5t-150.5 -57.5z" />
    <glyph glyph-name="quotedbl" unicode="&#x22;" horiz-adv-x="708" 
d="M418 834q4 163 -19 487l275 29l18 -25q-37 -253 -86 -453l-149 -51zM344 1325q-37 -253 -86 -453l-149 -51l-39 13q4 162 -6 289q-9 126 -13 198l275 29z" />
    <glyph glyph-name="numbersign" unicode="#" horiz-adv-x="1140" 
d="M467 535h170l25 161h-170zM78 721l28 215l187 -2l35 240l221 18l29 -14l-46 -244h164l35 240l221 18l29 -14l-45 -238l174 6l14 -31l-18 -217l-211 -2l-4 -32l-21 -123l177 6l14 -31l-19 -217l-206 -2l-31 -205l-217 -29l-27 19l37 215h-168l-29 -205l-217 -29l-26 19
l37 213h-162l-19 27l29 215l190 -2l15 92l10 67h-162z" />
    <glyph glyph-name="dollar" unicode="$" horiz-adv-x="970" 
d="M436 215q96 0 96 47q0 41 -54 66.5t-97 41t-90 34.5q-118 48 -187 117t-69 191t100.5 210t276.5 116l37 281l237 29l12 -19l-36 -282q127 -10 245 -41l23 -39q-38 -154 -47 -279l-213 -14l-23 14v17q0 51 -30.5 77.5t-78.5 26.5t-74 -15.5t-26 -39.5q0 -43 56 -69.5
t132 -53.5q152 -52 232 -122.5t80 -199.5t-107.5 -213t-302.5 -106l-36 -299l-234 -27l-16 12l39 314q-97 11 -168 37q-37 10 -64 24l-22 31q19 110 39 260l231 16q0 -72 37 -107.5t102 -35.5z" />
    <glyph glyph-name="percent" unicode="%" horiz-adv-x="1552" 
d="M1307 1276q-106 -162 -178 -275q-145 -228 -216 -334t-188 -289q-116 -183 -208 -328q-91 -144 -150 -236l-191 71l-12 35q134 185 397 598l547 873l178 -66zM1243 731q309 0 309 -366q0 -182 -87.5 -286t-242.5 -104t-234 93.5t-79 273.5t90.5 284.5t243.5 104.5z
M1386 344q0 96 -165 96q-78 0 -113 -19.5t-35 -66.5q0 -96 164 -96q78 0 113.5 20.5t35.5 65.5zM334 1350q310 0 309 -367q0 -182 -88 -285.5t-243 -103.5q-312 0 -312 366q0 180 90 285t244 105zM477 963q0 96 -166 96q-78 0 -112.5 -19.5t-34.5 -66.5q0 -96 164 -96
q78 0 113.5 20.5t35.5 65.5z" />
    <glyph glyph-name="ampersand" unicode="&#x26;" horiz-adv-x="1517" 
d="M377 399q0 -86 64.5 -142t157.5 -56t167 26l-340 324q-49 -66 -49 -152zM610 1116q-61 0 -95 -29.5t-34 -73.5q0 -75 52 -147.5t176 -175.5l272 -231q16 71 16 135q0 130 -139 129q-26 0 -98 -12l-53 190q78 26 176 35l415 25q78 4 130.5 12t52.5 10l37 -45l-48 -147
q-14 -41 -47.5 -57.5t-93.5 -16.5h-133l-4 -17q35 -59 35 -131q0 -109 -90 -241l274 -232v-35q-173 -145 -264 -145q-37 0 -242 184q-199 -125 -368 -125q-231 0 -357.5 95.5t-126.5 256.5t119 265q53 45 119 72v22q-86 86 -121 151t-35 146q0 166 137 266.5t373 100.5
q180 0 326 -45l8 -41l-102 -226h-54q-86 78 -213 78z" />
    <glyph glyph-name="quotesingle" unicode="'" horiz-adv-x="360" 
d="M344 1325q-37 -253 -86 -453l-149 -51l-39 13q4 162 -6 289q-9 126 -13 198l275 29z" />
    <glyph glyph-name="parenleft" unicode="(" horiz-adv-x="632" 
d="M111 688q0 315 172 508q76 86 174 133h35l106 -131l-2 -18q-90 -70 -127 -198t-37 -263v-354q0 -258 84 -408q37 -70 86 -111v-22l-127 -123h-24q-138 68 -239 224t-101 409v354z" />
    <glyph glyph-name="parenright" unicode=")" horiz-adv-x="632" 
d="M522 342q0 -313 -174 -508q-76 -86 -172 -133h-35l-106 131l2 18q89 66 126.5 196t37.5 265v355q0 248 -86 407q-37 70 -84 111v22l127 123h24q94 -47 170 -131q170 -203 170 -502v-354z" />
    <glyph glyph-name="asterisk" unicode="*" horiz-adv-x="745" 
d="M295 1507q128 33 192 33l15 -20q-8 -33 -18 -68t-22.5 -81t-31.5 -101l-102 -10l-17 10q-6 126 -10 163q-4 38 -6 74zM750 1155q-31 -2 -93 -9t-165 -3l-46 94l9 23q41 14 102.5 38t118.5 45q67 -100 90 -172zM487 1118q101 -131 150 -184q-31 -47 -70 -85t-65 -54
l-23 10q-12 27 -25 61t-30.5 78.5t-34.5 102.5l76 71h22zM236 844q-122 39 -175 84l2 24q83 72 201 160l92 -49l6 -19q-91 -135 -126 -200zM254 1137l-229 61q0 104 28 191l23 6q71 -37 215 -144l-19 -100z" />
    <glyph glyph-name="plus" unicode="+" horiz-adv-x="1036" 
d="M657 162q0 -47 2 -88l-266 -37l-26 18v124q0 124 2 183q-59 -2 -73 -2h-247l-18 27l37 277q43 -2 94 -2h207l2 321l268 27l31 -15l-13 -333l118 4t110 4t104 4l15 -31l-27 -278l-320 -3v-200z" />
    <glyph glyph-name="comma" unicode="," horiz-adv-x="487" 
d="M115 113q0 93 -60 155l6 29q115 90 201 90t134 -56.5t48 -158.5t-91 -216t-251 -206l-118 94v52q59 43 95 102t36 115z" />
    <glyph glyph-name="hyphen" unicode="-" horiz-adv-x="663" 
d="M596 635l-27 -221l-475 -54l-26 37l20 217l313 35q78 6 118 14q39 7 52 9z" />
    <glyph glyph-name="period" unicode="." horiz-adv-x="487" 
d="M237 -18q-95 0 -144.5 50t-49.5 146t55.5 153.5t150.5 57.5t144 -51t49 -146t-55 -152.5t-150 -57.5z" />
    <glyph glyph-name="slash" unicode="/" horiz-adv-x="673" 
d="M705 1341q-96 -352 -124 -448t-47.5 -172t-39.5 -147.5t-44 -167.5t-64.5 -252t-96.5 -379h-258l-23 30q77 248 182 658l236 919h244z" />
    <glyph glyph-name="zero" unicode="0" horiz-adv-x="956" 
d="M487 367q115 0 167.5 32.5t52.5 104.5q0 152 -242 151q-217 0 -217 -139q-1 -149 239 -149zM464 -25q-216 0 -326.5 133.5t-110.5 389.5t127 406.5t342 150.5t324.5 -132t109.5 -390t-125 -408t-341 -150z" />
    <glyph glyph-name="one" unicode="1" horiz-adv-x="772" 
d="M714 180q7 0 31 4l9 -12l-29 -184l-317 12q-124 0 -345 -17l-38 -3l18 165q96 10 138 42t42 98v411q0 72 -18.5 94.5t-77.5 22.5l-96 -6l-19 20l17 154q154 13 249 25t168 21t181 24l28 4l33 -88q-60 -45 -86 -168q-27 -123 -27 -486q0 -133 80 -133h59z" />
    <glyph glyph-name="two" unicode="2" horiz-adv-x="1009" 
d="M418 659q0 93 -102 93t-201 -129h-37l-51 213q215 219 456 219q164 0 263.5 -79.5t99.5 -193.5q0 -113 -65.5 -209.5t-260.5 -291.5l10 -19h70q78 0 114 42t46 145l237 18q-43 -243 -55 -455l-35 -37q-633 25 -739 25l-154 -12l-10 102l143 158q159 183 215 269.5
t56 141.5z" />
    <glyph glyph-name="three" unicode="3" horiz-adv-x="917" 
d="M465 1055q156 0 250 -67.5t94 -169.5t-61.5 -174.5t-165.5 -104.5v-23q141 -41 216.5 -114.5t75.5 -163.5q0 -167 -206 -300t-461 -133q-104 0 -147.5 61t-55.5 214l45 47q73 -37 183 -37t172.5 31t62.5 87q0 111 -234 111l-26 31l-21 185l133 26q119 48 119 148
q0 35 -24.5 56t-65.5 21q-90 0 -213 -98l-31 -2l-65 211q136 104 257.5 131t168.5 27z" />
    <glyph glyph-name="four" unicode="4" horiz-adv-x="1003" 
d="M477 354v260h-22l-176 -260h198zM827 354h142l22 -30l-22 -232q-17 2 -37 2h-36q-36 0 -67 2q3 -72 13 -243l-23 -23l-336 -25l-20 25q6 123 12 276q-215 7 -475 7l2 204l520 734l19 4l286 -25v-676z" />
    <glyph glyph-name="five" unicode="5" horiz-adv-x="866" 
d="M827 272q0 -90 -55 -174t-200 -188.5t-402 -104.5q-102 0 -147.5 61.5t-55.5 213.5l45 47q76 -37 182 -37q107 0 171.5 32t64.5 87t-77 87t-265 50l-18 23q28 259 47 612l16 16l406 13q59 2 85.5 18t43.5 64l161 10l-59 -367l-39 -39q-208 17 -366 17l-17 -103
q259 -46 369 -121.5t110 -216.5z" />
    <glyph glyph-name="six" unicode="6" horiz-adv-x="968" 
d="M494 530q-66 0 -117 -34q-4 -40 -4 -82q0 -199 116 -199q59 0 85 35t26 112q0 168 -106 168zM944 416q0 -205 -130.5 -323t-340.5 -118q-211 0 -326.5 125.5t-115.5 331.5q0 390 370 631q164 106 373 164l27 -15l61 -165q-131 -51 -231.5 -132t-153.5 -159l12 -23l119 43
q154 0 245 -97t91 -263z" />
    <glyph glyph-name="seven" unicode="7" horiz-adv-x="890" 
d="M324 1030h456l117 -143q-237 -525 -338 -789l-78 -293h-55l-254 78l-25 58l400 796l-189 -18q-89 -8 -114 -32.5t-35 -55.5t-19 -80l-170 -12q33 335 41 489l13 10q148 -8 250 -8z" />
    <glyph glyph-name="eight" unicode="8" horiz-adv-x="968" 
d="M494 989q-99 0 -99 -92q0 -45 48.5 -77t117.5 -62q37 53 37 111t-28.5 89t-75.5 31zM342 337q0 -62 36 -101t93 -39q109 0 109 96q0 49 -59.5 85t-139.5 77q-39 -56 -39 -118zM739 670q179 -112 179 -282q0 -185 -132 -299t-323 -114t-307.5 86t-116.5 220q0 180 190 264
q-72 53 -123 129t-51 171q0 172 131.5 277t309.5 105t292.5 -88t114.5 -213q0 -171 -164 -256z" />
    <glyph glyph-name="nine" unicode="9" horiz-adv-x="968" 
d="M475 500q54 0 115 32q6 39 6 84q0 199 -117 199q-59 0 -84.5 -35t-25.5 -112q0 -168 106 -168zM25 614q0 207 130.5 324t341.5 117t326 -125.5t115 -335.5q0 -209 -104 -365t-268 -262q-165 -106 -371 -164l-27 15l-62 166q243 94 383 290l-10 23l-119 -43
q-154 0 -244.5 97.5t-90.5 262.5z" />
    <glyph glyph-name="colon" unicode=":" horiz-adv-x="487" 
d="M237 524q-95 0 -144.5 50.5t-49.5 146.5t55.5 153.5t150.5 57.5t144 -51.5t49 -146.5t-55 -152.5t-150 -57.5zM237 -18q-95 0 -144.5 50t-49.5 146t55.5 153.5t150.5 57.5t144 -51t49 -146t-55 -152.5t-150 -57.5z" />
    <glyph glyph-name="semicolon" unicode=";" horiz-adv-x="487" 
d="M237 524q-95 0 -144.5 50.5t-49.5 146.5t55.5 153.5t150.5 57.5t144 -51.5t49 -146.5t-55 -152.5t-150 -57.5zM115 113q0 93 -60 155l6 29q115 90 201 90t134 -56.5t48 -158.5t-91 -216t-251 -206l-118 94v52q59 43 95 102t36 115z" />
    <glyph glyph-name="less" unicode="&#x3c;" horiz-adv-x="882" 
d="M51 408v313l365 158q199 84 309 143l37 -23l69 -215q-57 -23 -161 -64t-178 -75l-185 -80v-16l209 -100q53 -25 107.5 -48.5t99.5 -44.5t90 -39l18 -43l-114 -188q-41 16 -86 39q-67 26 -157 70q-91 43 -154.5 71t-125.5 54t-126 57z" />
    <glyph glyph-name="equal" unicode="=" horiz-adv-x="1036" 
d="M233 866h304q234 0 452 13l15 -31l-27 -279l-465 -2l-301 -2h-162l-18 27l37 276q84 -2 165 -2zM233 457h304q200 0 452 12l15 -31l-27 -278l-465 -2l-301 -2h-162l-18 26l37 277q84 -2 165 -2z" />
    <glyph glyph-name="greater" unicode="&#x3e;" horiz-adv-x="882" 
d="M831 700v-313l-364 -158q-59 -27 -145 -64t-164 -79l-37 23l-70 215q57 23 145 58t195 81l184 80v16l-208 100l-203 91q-49 23 -94 41l-19 43l115 188q91 -42 159 -72t147 -67t178 -79q98 -42 165 -73z" />
    <glyph glyph-name="question" unicode="?" horiz-adv-x="780" 
d="M331 -18q-95 0 -144.5 50t-49.5 146t55.5 153.5t150.5 57.5t144.5 -51t49.5 -146t-55.5 -152.5t-150.5 -57.5zM442 1012q0 68 -86 108.5t-247 48.5l-29 37l84 242l35 18q261 -8 387.5 -84.5t172.5 -144.5t46 -132t-14.5 -108.5t-51.5 -88.5t-102.5 -93t-165.5 -117
l-6 -12l16 -141l-18 -29l-242 -41l-31 17l-49 272l6 31l199 96q96 53 96 121z" />
    <glyph glyph-name="at" unicode="@" horiz-adv-x="1837" 
d="M842 752q-29 0 -56.5 -103.5t-27.5 -229.5t28 -126q16 0 44 36t77.5 136.5t85.5 232.5q-96 54 -151 54zM29 346q0 274 139 508.5t368.5 379t495.5 144.5q360 0 568 -176t208 -502t-207 -525.5t-554 -199.5q-49 0 -80 31t-31 67t49 251h-20q-84 -145 -146.5 -225.5
t-126.5 -123.5q-147 0 -228 83.5t-81 221.5t46 257.5t120 215t167 155t187 59.5l148 -41l10 41l39 24l274 -24l17 -47q-90 -387 -142 -691l15 -16q142 0 233.5 120t91.5 302q0 246 -166 387t-454 141q-154 0 -286 -57t-281.5 -214.5t-149.5 -492.5t214 -519.5t621 -184.5
l-2 -55l-75 -132q-460 0 -720.5 224t-260.5 614z" />
    <glyph glyph-name="A" unicode="A" horiz-adv-x="1384" 
d="M657 616q59 0 107 5l-70 358h-45l-96 -363h104zM822 216q3 11 3 27t-4 42l-12 80q-82 4 -146 4t-176 -11l-20 -90q-6 -36 -6 -54t11 -25t52 -7h54l16 -20l-16 -170l-79 2l-421 2h-88l14 178q74 18 105 113l325 1028l539 33l31 -25q108 -438 140 -559t61 -241.5t51 -200.5
q22 -79 49.5 -110.5t74.5 -35.5l15 -20l-17 -162q-51 0 -102 2l-186 2q-107 0 -392 -10l-16 18l12 172q95 12 110 19.5t18 18.5z" />
    <glyph glyph-name="B" unicode="B" horiz-adv-x="1357" 
d="M594 797q126 -23 164 -23q44 31 65 78t21 90q0 139 -199 139q-35 0 -37 -28q-5 -43 -14 -256zM729 233q154 0 154 150q0 109 -131 149h-162l-10 -204q0 -49 35.5 -72t113.5 -23zM59 1329q160 -4 187 -4h128q103 0 425 14q229 0 348 -81.5t119 -236.5t-80 -223.5
t-119 -95.5q116 -41 186 -107.5t70 -188.5q0 -428 -590 -429q-264 23 -361 23q-96 0 -187 -6t-158 -8l18 184q80 14 108.5 45t28.5 104l2 732q0 94 -55 94l-45 -2q-12 -2 -25 -2l-24 24z" />
    <glyph glyph-name="C" unicode="C" horiz-adv-x="1234" 
d="M650 -23q-298 0 -458.5 174t-160.5 503t184 512.5t535 183.5q164 0 430 -54l16 -41q-48 -228 -57 -438l-316 -18q0 16 2 35l2 81q0 84 -31.5 118t-97.5 34t-102.5 -17.5t-67 -77t-30.5 -275.5q0 -215 47 -323t151 -108q78 0 115 53.5t47 184.5l313 20q-24 -288 -24 -436
l-27 -33q-224 -78 -470 -78z" />
    <glyph glyph-name="D" unicode="D" horiz-adv-x="1396" 
d="M580 332q0 -59 15 -80t69 -21q120 0 176.5 94.5t56.5 331.5t-54.5 328.5t-174.5 91.5q-48 0 -57 -12t-20 -182q-11 -169 -11 -551zM323 0q-92 0 -288 -16l16 190q78 12 105.5 48t27.5 122v686q0 66 -11 88.5t-40 22.5l-45 -2q-10 -2 -20 -2l-21 28l19 166q198 -6 208 -6
h103q133 0 340 12q649 0 649 -616q0 -345 -193 -545.5t-520 -200.5q-238 25 -330 25z" />
    <glyph glyph-name="E" unicode="E" horiz-adv-x="1234" 
d="M582 468v-110q0 -80 16 -101t82 -21t107.5 8t67.5 31.5t39 65.5t24 112l262 18l24 -31q-38 -226 -57 -422l-31 -32q-98 2 -252 8t-350 6q-197 0 -310 -8q-112 -8 -177 -12l18 188q78 12 105.5 50t27.5 130l2 686q0 66 -10 88.5t-45 22.5l-35 -2q-8 -2 -18 -2l-25 28
l19 162q252 -6 271 -6h206q479 0 633 25l26 -33q-34 -180 -47 -408l-283 -18q0 14 2 29l3 47q0 67 -38.5 89.5t-122.5 22.5q-83 0 -96.5 -10t-13.5 -45l-12 -231l168 -2q84 0 225 12l25 -29l-29 -235l-246 6q-80 0 -153 -13q-2 -53 -2 -64z" />
    <glyph glyph-name="F" unicode="F" horiz-adv-x="1134" 
d="M668 236q54 0 118 16l33 -37l-26 -221l-334 6q-142 0 -255 -8q-112 -8 -177 -12l18 188q78 12 105.5 50t27.5 130l2 686q0 66 -10 88.5t-45 22.5l-35 -2q-8 -2 -18 -2l-25 28l19 162q252 -6 271 -6h206q436 0 575 25l27 -33q-26 -218 -37 -408l-283 -16q0 12 2 27l2 47
q0 66 -31.5 89t-97.5 23t-80 -10t-14 -45l-14 -266l170 -2q80 0 215 12l24 -29l-28 -235l-236 6q-75 0 -153 -12l-2 -140q0 -74 16 -98t70 -24z" />
    <glyph glyph-name="G" unicode="G" horiz-adv-x="1308" 
d="M1004 725q134 0 222 8l21 2l21 -119q-35 -20 -56.5 -41.5t-36 -69.5t-14.5 -210t15 -217l-25 -33q-173 -68 -481 -68q-307 0 -473 173.5t-166 504.5q0 332 188.5 513.5t550.5 181.5q182 0 416 -54l22 -41q-46 -168 -57 -413l-315 -19q0 12 2 31l2 82q0 76 -24 103.5
t-92 27.5q-131 0 -178.5 -77.5t-47.5 -294.5t50 -323t163 -106q56 0 106 25v129q0 49 -13 66.5t-52 17.5l-47 -2h-21l-18 28l24 195h314z" />
    <glyph glyph-name="H" unicode="H" horiz-adv-x="1513" 
d="M1137 1325q167 0 360 10l-14 -180q-76 -12 -97.5 -32t-25.5 -80q-21 -313 -21 -724q0 -78 17.5 -107.5t62.5 -29.5h15q16 0 43 6l16 -22l-18 -170q-53 0 -111 2l-240 2l-204 -2h-136l17 178q74 2 104.5 37t30.5 119v209h-41l-80 2l-231 -19v-205q0 -86 12 -113.5
t50 -27.5t59 6l16 -20l-19 -172q-288 8 -324 8t-347 -10l16 174q78 15 100.5 41t27.5 55t5 72v708q0 63 -14 84t-57 21l-35 -2h-19l-18 28l16 154h264q203 0 408 10l-14 -184q-66 -12 -86.5 -31.5t-22.5 -75.5l-12 -247l174 -6q129 0 172 6v243q0 61 -14.5 83t-57.5 22
l-37 -2h-18l-18 28l16 154h330z" />
    <glyph glyph-name="I" unicode="I" horiz-adv-x="757" 
d="M383 1325q165 0 352 10l-14 -184q-74 -13 -93.5 -30.5t-23.5 -76.5q-20 -290 -20 -725q0 -86 12 -113.5t40 -27.5h28q27 0 51 6l16 -20l-18 -172q-296 8 -339 8t-343 -10l16 174q80 16 106.5 48.5t26.5 119.5v708q0 63 -14 84t-57 21l-35 -2h-19l-18 28l16 154h330z" />
    <glyph glyph-name="J" unicode="J" horiz-adv-x="694" 
d="M563 170q0 -194 -116.5 -316t-374.5 -190l-82 98l4 31q107 99 138.5 189.5t31.5 287.5v770q0 63 -12.5 84t-53.5 21l-49 -2q-12 -2 -24 -2l-19 28l17 156l288 2q161 0 247 6q85 6 142 8l-16 -190q-57 -11 -74.5 -30.5t-21.5 -83.5q-25 -406 -25 -867z" />
    <glyph glyph-name="K" unicode="K" horiz-adv-x="1419" 
d="M989 1325h158q82 0 248 10l18 -30l-18 -154q-145 -82 -301 -301l-86 -121l192 -373q47 -90 91 -132t110 -52l20 -31l-22 -151q-74 -6 -164 -15t-160 -8q-70 0 -119 36t-96 130l-258 516l10 62l230 272q43 43 43 86t-18.5 56.5t-65.5 17.5l-13 20l19 168q171 -6 182 -6z
M374 0q-43 0 -343 -10l16 174q78 15 100.5 41t27.5 55t5 72v708q0 63 -14 84t-57 21l-35 -2h-19l-18 28l18 156q82 -2 150 -2h178q165 0 352 10l-14 -184q-76 -21 -99.5 -40t-23.5 -75l-14 -717q-2 -86 11 -113.5t41 -27.5h28q27 0 51 6l16 -20l-18 -172q-296 8 -339 8z" />
    <glyph glyph-name="L" unicode="L" horiz-adv-x="1140" 
d="M381 1325q189 0 424 10l-23 -200q-102 -12 -131.5 -27.5t-38 -34.5t-11.5 -67q-19 -307 -19 -682q0 -47 17 -67.5t65 -20.5q102 0 140 62t50 271l262 27l25 -31q-33 -254 -49 -547l-31 -32q-89 2 -183 6q-413 18 -714 -2q-72 -6 -137 -10l18 188q78 12 105.5 50t27.5 130
v692q0 63 -14 84t-58 21l-34 -2h-19l-18 28l16 154h330z" />
    <glyph glyph-name="M" unicode="M" horiz-adv-x="1708" 
d="M432 250q0 -70 68 -70h16q15 0 37 4l18 -16l-24 -176q-252 8 -288 8q-106 0 -219 -13l-26 -3l17 184q57 6 84.5 35.5t31.5 99.5q28 308 42 431.5t22 210.5t8 111q0 49 -17.5 62t-109.5 25l-16 16l20 176q152 -10 269 -10q116 0 348 8q57 -288 151 -651h27q72 252 172 643
q96 0 189.5 -2t159.5 2t103.5 5t118.5 7l15 -8l-17 -180q-84 -4 -109.5 -23.5t-25.5 -73.5q0 -106 15 -330t26 -343q12 -119 31.5 -158t66.5 -39h20q20 0 42 4l14 -16l-18 -176l-96 2q-96 2 -120 3q-63 3 -225 -4.5t-178 -10.5l25 186q104 12 104 84v16l-4 271q-2 94 -4 202
h-27q-97 -282 -223 -747l-256 -21q-132 480 -221 768h-27q-4 -127 -6 -229l-1 -58z" />
    <glyph glyph-name="N" unicode="N" horiz-adv-x="1513" 
d="M39 1335q113 -10 249 -10t316 8q120 -215 227 -385q107 -171 166 -266h31l-8 375q-4 53 -17.5 70.5t-50.5 17.5h-63l-10 22l10 166q252 -8 351.5 -8t244.5 5l28 1l-10 -184q-66 -10 -91.5 -38t-27.5 -91l-26 -1018l-385 -25q-86 143 -215.5 346.5t-204.5 323.5h-31
l6 -364q4 -105 62 -105q27 0 88 8l18 -18l-22 -174q-386 12 -483 4t-148 -12l20 184q59 8 87 38t30 91l25 715q0 70 -28 93.5t-126 35.5l-24 28z" />
    <glyph glyph-name="O" unicode="O" horiz-adv-x="1341" 
d="M654 -25q-622 0 -623 675q0 335 171 517.5t498 182.5q610 0 611 -654q0 -348 -172.5 -534.5t-484.5 -186.5zM842 546q0 301 -40 412t-136 111q-95 0 -130.5 -74.5t-35.5 -234.5q0 -304 40.5 -415.5t133.5 -111.5q94 0 131 76.5t37 236.5z" />
    <glyph glyph-name="P" unicode="P" horiz-adv-x="1241" 
d="M850 891q0 100 -50 145t-161 45q-23 0 -29 -10t-22 -393l141 -21q121 46 121 234zM348 1325q129 0 369 12q223 0 389 -89t166 -337q0 -197 -153 -341t-359 -144h-176v-98q0 -84 19.5 -116t82.5 -32h21q21 0 47 4l10 -16l-21 -176q-288 8 -319 8t-395 -18l18 188
q76 12 104.5 50t28.5 124v690q0 63 -11 87t-42 24l-47 -2q-12 -2 -25 -2l-20 24l20 160h293z" />
    <glyph glyph-name="Q" unicode="Q" horiz-adv-x="1349" 
d="M842 546q0 301 -40 412t-136 111q-95 0 -130.5 -74.5t-35.5 -234.5q0 -304 40.5 -415.5t133.5 -111.5q94 0 131 76.5t37 236.5zM1448 -147q96 0 190 20l25 -23l35 -139q-176 -127 -258 -167t-103 -40q-63 0 -120.5 17.5t-165.5 92t-410 361.5q-299 0 -454.5 170
t-155.5 505t171 517.5t498 182.5q610 0 611 -654q0 -217 -85 -378.5t-233 -251.5v-29q111 -86 235 -135t220 -49z" />
    <glyph glyph-name="R" unicode="R" horiz-adv-x="1388" 
d="M870 911q0 88 -55 129t-176 41q-23 0 -32 -14t-17 -342l155 -20q70 29 97.5 73.5t27.5 132.5zM348 1325q133 0 379 12q565 0 565 -385q0 -242 -245 -387l127 -213q106 -180 198 -180l23 -33l-19 -149l-317 -23q-86 0 -139.5 42t-94.5 145l-127 313h-114v-139
q0 -97 19.5 -116t48 -24.5t77.5 -7.5l10 -16l-20 -172q-280 8 -350 8t-340 -18l18 188q76 12 104.5 50t28.5 124v711q0 51 -11 70.5t-42 19.5l-47 -2q-12 -2 -25 -2l-20 24l22 162q61 -2 115 -2h176z" />
    <glyph glyph-name="S" unicode="S" horiz-adv-x="1128" 
d="M508 248q63 0 99 22.5t36 58.5t-24.5 62.5t-66.5 49t-94 44t-110 47.5q-138 61 -224.5 147.5t-86.5 231.5q0 198 174 318.5t457 120.5q126 0 234 -20q107 -20 157 -38l24 -45q-39 -164 -55 -356l-237 -17l-25 17v33q0 143 -150 143q-57 0 -93 -25.5t-36 -61.5
q0 -59 64.5 -98t193.5 -89q169 -75 260 -157t91 -233q0 -200 -172.5 -314t-468.5 -114q-228 0 -404 88l-24 37q31 181 43 338l258 19q0 -209 180 -209z" />
    <glyph glyph-name="T" unicode="T" horiz-adv-x="1214" 
d="M403 344v733q-43 0 -68.5 -11t-47 -56t-33.5 -211l-254 -17q4 88 8 174t5 180.5t3 182.5l27 29l244 -23h643l248 23l26 -29q0 -110 10 -520l-253 -17q-17 197 -34.5 236t-42 49t-65.5 10q-10 -385 -10 -749q0 -78 23.5 -110t82.5 -32h35q35 0 70 7l10 -13l-18 -192
l-416 12q-52 0 -412 -18l17 188q126 12 156 37.5t38 57.5t8 79z" />
    <glyph glyph-name="U" unicode="U" horiz-adv-x="1284" 
d="M212 1325h171q78 0 149 3q72 3 125 5l-20 -190q-53 -4 -74.5 -28.5t-23.5 -72.5l-13 -591q0 -98 40 -156.5t118 -58.5t112.5 41.5t34.5 138.5v16l-1 78l-1 524q0 63 -11 87t-42 24l-31 -2q-8 -2 -16 -2l-6 8l22 182q147 -6 161 -6h124q109 0 256 6l-16 -184
q-86 -26 -92.5 -49t-6.5 -41v-578q0 -504 -546 -504q-264 0 -384 102.5t-120 330.5v626q0 68 -11.5 89.5t-46.5 21.5l-36 -2q-10 -2 -23 -2l-4 8l20 182q177 -6 192 -6z" />
    <glyph glyph-name="V" unicode="V" horiz-adv-x="1312" 
d="M6 1329q98 -4 122 -4h159q248 0 391 10l16 -18l-12 -172q-95 -12 -110 -20.5t-18 -19.5t-3 -29t4 -56.5t12 -94t18.5 -119.5t26.5 -172t50 -290h45q167 693 167 756q0 27 -11 34t-52 7h-53l-17 20l17 170q165 -6 176 -6h309q43 0 82 2l-14 -178q-35 -10 -50.5 -31.5
t-33.5 -81.5l-305 -1028l-564 -35q-52 231 -86 376t-54.5 235t-41.5 182t-63 258q-28 111 -109 123l-14 20z" />
    <glyph glyph-name="W" unicode="W" horiz-adv-x="2043" 
d="M729 1329q122 -4 149 -4h183q235 0 375 10l16 -18l-14 -172q-90 -11 -105.5 -19t-17.5 -19t-2 -32q0 -100 104 -731h43q68 310 96.5 431.5t47 211t18.5 114.5q0 26 -11.5 33t-49.5 7h-52l-14 20l16 170q159 -6 171 -6h296q41 0 78 2l-14 -178q-33 -10 -48.5 -31.5
t-33.5 -81.5l-283 -1028l-542 -35l-91 584h-28l-129 -549l-543 -35q-50 231 -82 376t-53 235t-62.5 286.5t-71.5 233.5t-71 43l-14 20l18 162q94 -4 116 -4h152q240 0 377 10l15 -18l-13 -172q-92 -12 -107.5 -20.5t-17.5 -19.5t-2 -30q0 -82 107 -731h43q162 662 162 752
q0 28 -21.5 39.5t-93.5 11.5l-14 20z" />
    <glyph glyph-name="X" unicode="X" horiz-adv-x="1456" 
d="M147 1325h263q129 0 354 12l12 -22l-14 -168q-80 0 -80 -49q0 -41 37 -96.5t92 -133.5q18 33 40.5 70t53.5 93t31 78t-16.5 31t-61.5 9l-4 12l12 164h226q227 0 356 6l8 -16l-10 -178q-101 -51 -156 -97.5t-106 -126.5l-193 -297l178 -249q66 -92 124.5 -133t131.5 -44
l9 -8l-19 -184l-276 6l-424 -14l-15 14l15 172q59 4 59 41q0 25 -22 55l-125 181l-78 -129q-35 -55 -35 -82q0 -61 80 -62l12 -22l-10 -166l-309 12l-275 -12l-10 28l12 164q61 26 145.5 125t112.5 140l181 260l-168 247q-85 126 -146 144t-98 28l-10 13l18 186q43 -2 98 -2
z" />
    <glyph glyph-name="Y" unicode="Y" horiz-adv-x="1357" 
d="M20 1327q140 -4 163 -4h177q59 0 336 14l15 -22l-19 -168q-84 0 -84 -51q0 -30 115 -303h29l84 233q27 59 26 90q0 33 -78 33l-6 12l17 162h323q84 0 232 8l8 -16l-17 -178q-136 -76 -227 -258l-186 -373q-23 -53 -27 -95t-4 -105t21.5 -91.5t80.5 -28.5h35t70 7l10 -13
l-18 -192l-424 12q-52 0 -412 -18l16 188q127 8 161 32.5t42 54.5t8 75v33q0 80 -57 184l-219 407q-61 113 -203 172l-8 13z" />
    <glyph glyph-name="Z" unicode="Z" horiz-adv-x="1216" 
d="M1126 -6l-878 12l-168 -20l-74 118l668 1006l-158 -20q-119 -24 -145.5 -56.5t-33.5 -72t-9 -105.5l-258 -18q15 216 30 491l23 23l371 -23h677l52 -110q-294 -394 -466.5 -662t-215.5 -334l215 31q142 23 169 121t33 170l259 18q-42 -280 -48 -524z" />
    <glyph glyph-name="bracketleft" unicode="[" horiz-adv-x="667" 
d="M156 532.5q0 38.5 -1.5 112t-9.5 286t-12 378.5l520 22l9 -20l-17 -172l-188 -35v-1137l196 -35l9 -22l-17 -170l-512 22q4 160 8 264t6.5 171t4.5 128.5t3 115t1 92z" />
    <glyph glyph-name="backslash" unicode="\" horiz-adv-x="673" 
d="M4 1382h244l235 -919q29 -117 62 -234.5t61 -220.5t60 -203l-23 -30h-258q-27 96 -93 360t-99 387t-57.5 213.5t-166.5 605.5z" />
    <glyph glyph-name="bracketright" unicode="]" horiz-adv-x="667" 
d="M512 441q0 -137 23 -679l-521 -22l-8 20l17 172l188 35v1137l-197 35l-8 22l17 170l512 -22q-7 -165 -11 -269t-6 -169.5t-3 -126t-2 -113.5t-1 -190z" />
    <glyph glyph-name="asciicircum" unicode="^" horiz-adv-x="962" 
d="M651 975q99 -240 191 -432q92 -193 110 -232l-188 -114l-43 18q-51 99 -137 297l-101 209h-16l-80 -184q-65 -148 -139 -340l-215 69l-23 37q25 45 62 129t82 180l157 365l310 14z" />
    <glyph glyph-name="underscore" unicode="_" horiz-adv-x="917" 
d="M-2 -195h450q449 0 476 5l20 -39l-29 -217l-917 -3l-23 39z" />
    <glyph glyph-name="grave" unicode="`" 
d="M301 1556q184 -171 383 -342l-84 -124l-45 -15q-80 47 -156.5 89t-143.5 79t-132 72l-4 35l147 206h35z" />
    <glyph glyph-name="a" unicode="a" horiz-adv-x="1011" 
d="M367 344q0 -35 21.5 -66.5t56.5 -31.5t104 12l2 176l-148 -33q-23 -4 -29.5 -13t-6.5 -44zM330 -16q-132 0 -219.5 100.5t-87.5 247.5q0 68 35.5 117t95.5 61l401 74v2q0 70 -45 108.5t-129 38.5t-229 -88l-25 12l-51 164q326 170 434 170q204 0 301.5 -83t97.5 -214
q0 -39 -22.5 -190.5t-22.5 -177.5t16.5 -45t44.5 -19t68 17l35 -56q-132 -225 -221 -248q-102 0 -161.5 39t-70.5 111l-24 10q-151 -151 -221 -151z" />
    <glyph glyph-name="b" unicode="b" horiz-adv-x="1064" 
d="M545 217q106 0 106 213q0 152 -29.5 222.5t-84.5 70.5t-82 -18l-4 -469q44 -19 94 -19zM653 981q184 0 283.5 -122t99.5 -355t-140.5 -375.5t-383.5 -142.5q-216 0 -393 39l-21 26v1106q0 74 -19.5 97.5t-78.5 23.5h-51l-10 14l16 154q92 10 188.5 24.5t182.5 25.5
t178 24l18 -54q-47 -43 -63 -606q173 121 194 121z" />
    <glyph glyph-name="c" unicode="c" horiz-adv-x="901" 
d="M456 328.5q40 -72.5 140 -72.5t186 53l21 -10l45 -154q-104 -93 -195.5 -131.5t-146.5 -38.5q-227 0 -352 130.5t-125 368.5t144 377.5t384 139.5q176 0 283 -45l10 -22q-38 -191 -47 -357l-189 -10v74q0 66 -18 92.5t-64 26.5q-117 0 -116 -191q0 -158 40 -230.5z" />
    <glyph glyph-name="d" unicode="d" horiz-adv-x="1097" 
d="M537 244q44 0 77 20v465q-14 5 -36 13q-22 9 -58 8q-106 0 -106 -213q0 -152 29.5 -222.5t93.5 -70.5zM128.5 107.5q-99.5 121.5 -99.5 355.5t141 376t383 142h25q26 0 36 -2v170q0 74 -19.5 97.5t-78.5 23.5l-29 -2q-8 -2 -18 -2l18 178q274 29 527 76l24 -45
q-50 -72 -60.5 -491t-10.5 -650q0 -72 45 -72q34 0 61 17l35 -56q-57 -104 -121.5 -166.5t-114.5 -81.5q-209 0 -231 150l-12 4q-184 -143 -217 -143q-184 0 -283.5 121.5z" />
    <glyph glyph-name="e" unicode="e" horiz-adv-x="980" 
d="M640 244q112 0 220 59l19 -10l45 -152q-117 -90 -222.5 -128t-171.5 -38q-242 0 -371.5 128t-129.5 368t142.5 380t379.5 140q389 0 389 -409q0 -56 -16 -136l-23 -20h-485v-4q14 -98 63 -138t161 -40zM600 631q0 133 -82 133q-61 0 -86.5 -42t-25.5 -140l169 12
q16 2 20.5 8t4.5 29z" />
    <glyph glyph-name="f" unicode="f" horiz-adv-x="727" 
d="M652 188q13 0 50 5l11 -11l-25 -192l-342 10q-104 0 -182 -6t-135 -10l18 178q61 6 86 30.5t25 81.5v394q-4 47 -31 62t-107 20l-8 12l17 143l129 19v28q0 259 153 413.5t410 154.5q126 0 240 -47l14 -48q-11 -35 -23 -69t-26.5 -76.5t-30.5 -89.5l-29 -8q-92 80 -189 80
t-129 -50t-32 -202v-86h76q77 0 164 6l10 -15l-23 -174l-88 2q-88 2 -141 5l-2 -484q0 -76 63 -76h77z" />
    <glyph glyph-name="g" unicode="g" horiz-adv-x="1064" 
d="M412 -182q0 -47 39 -74t103 -27t111.5 26t47.5 64q0 16 -6.5 26.5t-33 20t-84 18.5t-157.5 26q-20 -33 -20 -80zM629 616q0 90 -25.5 130t-85.5 40q-84 0 -84 -170t101 -172q49 0 71.5 41t22.5 131zM986 830l-64 -1l-9 -12q80 -82 80 -180q0 -182 -133 -282.5
t-350 -100.5q-74 0 -135 12q-20 -23 -21 -47q0 -53 153 -54q304 -2 428 -59t124 -202q0 -78 -49 -149.5t-179.5 -161t-336.5 -89.5q-205 0 -325 84.5t-120 223.5q53 41 207 110v15q-98 16 -151.5 73.5t-53.5 143.5q53 58 172 147v21q-157 92 -157 279t128 290.5t347 103.5
q72 0 120 -9t121 -6t275 75l16 -13l-29 -206q-16 -2 -34 -4t-24 -2z" />
    <glyph glyph-name="h" unicode="h" horiz-adv-x="1134" 
d="M115 272v885q0 74 -19.5 97.5t-79.5 23.5h-51l-10 14l16 154q92 10 188.5 24.5t183.5 25.5t177 24l19 -54q-52 -48 -68 -669q182 194 234 194q166 0 252.5 -67.5t86.5 -198.5q0 -53 -22.5 -251t-22.5 -234t12.5 -53t43.5 -17h32q8 0 19 2l4 -8l-23 -172q-212 8 -266 8
l-250 -6l17 178q37 4 53 25.5t18 68.5l5 289q2 78 -17 108.5t-59 30.5t-68 -18.5t-51 -34.5q-2 -92 -2 -117v-286q0 -37 10 -51.5t37 -14.5h18q6 0 11 2l6 -14l-23 -168q-270 11 -374 5q-105 -6 -146 -7l23 176q51 6 68.5 28.5t17.5 77.5z" />
    <glyph glyph-name="i" unicode="i" horiz-adv-x="624" 
d="M508 233q0 -61 40 -61h21q21 0 37 4l6 -10l-24 -174q-204 8 -281 8t-160 -8t-133 -12l25 182q117 8 117 121v350q0 72 -19.5 95.5t-79.5 23.5l-45 -7l17 170q206 22 501 76l27 -45q-49 -92 -49 -713zM339 1112q-95 0 -144.5 50t-49.5 146t55.5 154t150.5 58t144.5 -51.5
t49.5 -146.5t-55.5 -152.5t-150.5 -57.5z" />
    <glyph glyph-name="j" unicode="j" horiz-adv-x="616" 
d="M333 1112q-95 0 -144.5 50t-49.5 146t55.5 154t150.5 58t144.5 -51.5t49.5 -146.5t-55.5 -152.5t-150.5 -57.5zM150 633q0 119 -54 119q-40 0 -54.5 -3.5t-25.5 -3.5l17 166q125 16 269 41t226 39l27 -45q-55 -127 -55 -975q0 -141 -110.5 -270.5t-297.5 -208.5l-96 88
l4 31q90 90 120 184t30 273v565z" />
    <glyph glyph-name="k" unicode="k" horiz-adv-x="1110" 
d="M571 971q90 -4 115 -4h164q141 0 264 6l6 -10l-20 -175q-82 -41 -149.5 -106.5t-131.5 -128.5l127 -254q53 -115 164 -135l12 -23l-18 -151q-22 -2 -46 -4t-86 -10.5t-126 -8.5q-76 6 -120 41t-85 125l-164 344l6 66l142 162q34 39 34 64q0 24 -22.5 33t-77.5 9l-6 10z
M115 272v885q0 93 -35 109q-24 12 -115 12l-10 14l16 154q92 10 188.5 24.5t183.5 25.5t177 24l19 -54q-72 -72 -72 -1233q0 -37 10 -51t37 -14h18q6 0 15 2l6 -14l-27 -168l-262 12q-63 0 -140 -4t-118 -6l23 176q51 6 68.5 28.5t17.5 77.5z" />
    <glyph glyph-name="l" unicode="l" horiz-adv-x="587" 
d="M115 272v885q0 93 -35 109q-24 12 -115 12l-10 14l16 154q92 10 188.5 24.5t183.5 25.5t177 24l19 -54q-72 -72 -72 -1233q0 -37 10 -51t37 -14h37q12 0 29 2l6 -14l-27 -164q-311 11 -411 5q-101 -5 -142 -7l23 176q51 6 68.5 28.5t17.5 77.5z" />
    <glyph glyph-name="m" unicode="m" horiz-adv-x="1732" 
d="M637 694q-37 0 -61.5 -14t-47.5 -31q-22 -325 -22 -385q0 -61 10 -74.5t39 -13.5h18q6 0 15 2l6 -10l-25 -176q-187 8 -251 8t-154 -4l-135 -6l24 178q59 4 82 25.5t23 80.5v355q0 72 -19.5 95.5t-79.5 23.5h-32l-11 14l17 153q275 37 483 76l25 -24q-4 -25 -13 -62
t-12 -88l8 -6q192 180 230 180q270 0 321 -180q192 180 230 180q166 0 253 -68.5t87 -197.5q0 -48 -24 -243.5t-24 -237.5q0 -41 12.5 -57.5t43.5 -16.5h33q8 0 18 2l4 -8l-22 -172q-212 8 -267 8l-243 -6l16 178q35 4 48 22.5t17 71.5l5 289q4 139 -74 139q-54 0 -107 -43
l-28 -405q0 -43 11 -59.5t40 -16.5h29q8 0 12 2l4 -8l-27 -172q-266 11 -360 6q-94 -4 -144 -4l19 178q35 4 51.5 25.5t18.5 68.5l4 289q4 139 -74 139z" />
    <glyph glyph-name="n" unicode="n" horiz-adv-x="1185" 
d="M693.5 663.5q-19.5 30.5 -64.5 30.5t-99 -43q-4 -59 -8 -125.5t-10 -154t-6 -128.5q0 -40 10 -53.5t39 -13.5h18q6 0 15 2l6 -10l-25 -176q-187 8 -251 8t-154 -4l-135 -6l24 178q59 4 82 25.5t23 80.5v355q0 72 -19.5 95.5t-79.5 23.5h-32l-11 14l17 153q275 37 483 76
l25 -24q-4 -25 -13 -62t-12 -88l14 -8q31 31 105.5 106.5t116.5 75.5q166 0 253 -67.5t87 -198.5q0 -35 -7.5 -102.5t-22.5 -205.5t-15 -176t12 -54.5t43 -16.5h33q8 0 18 2l4 -8l-22 -172q-212 8 -267 8l-250 -6l17 178q37 4 53.5 25.5t18.5 68.5l4 289q2 78 -17.5 108.5z
" />
    <glyph glyph-name="o" unicode="o" horiz-adv-x="1042" 
d="M535 195q42 0 62.5 40.5t20.5 148.5q0 212 -21.5 286.5t-79.5 74.5t-78.5 -40.5t-20.5 -146.5t5 -176.5t17.5 -111.5t32.5 -58t62 -17zM512 -25q-232 0 -357.5 129t-125.5 369t136.5 379t372.5 139t356 -123.5t120 -367.5t-135 -384.5t-367 -140.5z" />
    <glyph glyph-name="p" unicode="p" horiz-adv-x="1122" 
d="M586 709q-33 0 -70 -17q-8 -230 -8 -456q44 -19 94 -19q106 0 107 213q0 147 -29 213t-94 66zM618 -479q-252 8 -309 8t-147 -4t-139 -6l24 178q49 4 66.5 25.5t17.5 80.5l14 285v541q0 72 -19.5 95.5t-78.5 23.5h-33l-10 14l16 153q294 39 478 76l24 -24
q-11 -46 -15.5 -85.5t-8.5 -64.5l8 -4q139 168 168 168q190 0 305 -127.5t115 -339.5q0 -266 -156 -397t-426 -131h-12q-2 0 -4 2l-2 -164q0 -63 5 -91t44 -28h23q24 0 75 6l6 -10z" />
    <glyph glyph-name="q" unicode="q" horiz-adv-x="1060" 
d="M537 244q44 0 77 20v465q-14 5 -36 13q-22 9 -58 8q-106 0 -106 -213q0 -152 29.5 -222.5t93.5 -70.5zM721 -471q-75 0 -291 -8l16 178q98 4 122 22.5t31 43t7 63.5l8 291q-172 -133 -202 -133q-184 0 -283.5 121.5t-99.5 355.5t141 376t383 142q92 0 268 -23l162 64
l31 -31q-32 -64 -40.5 -506t-8.5 -682q0 -55 10 -73.5t43 -18.5h37q8 0 16 2l6 -8l-14 -176h-342z" />
    <glyph glyph-name="r" unicode="r" horiz-adv-x="911" 
d="M158 274v355q0 74 -18.5 96.5t-80.5 22.5h-32l-11 14l17 153q275 37 483 76l25 -24q-4 -27 -12 -68t-13 -102l16 -9q132 183 287 183l80 -6l10 -25q-40 -247 -51 -467l-192 -10q0 113 -12.5 150.5t-49.5 37.5t-76 -33q-6 -96 -14 -211t-8 -157q0 -66 59 -66q71 0 117 11
l12 -17l-28 -190l-332 12q-66 0 -160 -4t-145 -6l24 178q59 4 82 25.5t23 80.5z" />
    <glyph glyph-name="s" unicode="s" horiz-adv-x="851" 
d="M354 188q96 0 97 54q0 33 -35.5 56t-147.5 68q-229 92 -229 285q0 155 128.5 247.5t350.5 92.5q161 0 256 -41l19 -35q-7 -43 -17 -109t-20 -173l-164 -8v8q-2 137 -113 137q-37 0 -58.5 -16.5t-21.5 -44.5q0 -49 145.5 -110.5t208 -127t62.5 -156.5q0 -90 -35 -148
t-134 -125t-287 -67q-136 0 -238 35q-47 14 -86 35l-21 29q19 123 31 264l164 12q2 -68 47.5 -115t97.5 -47z" />
    <glyph glyph-name="t" unicode="t" horiz-adv-x="684" 
d="M109 233v400q0 74 -20.5 96.5t-84.5 22.5l-33 18l17 145q234 106 450 259l78 -46q-4 -25 -15 -90t-16 -114l172 6l11 -15l-23 -174l-176 7q-10 -195 -10 -365q0 -135 98 -135q52 0 100 18l33 -82q-53 -59 -100 -102q-117 -107 -170 -107q-311 0 -311 258z" />
    <glyph glyph-name="u" unicode="u" horiz-adv-x="1132" 
d="M453 401q0 -127 88 -127q35 0 94 33v355q0 57 -13 70.5t-61 17.5h-18l26 168q300 38 457 65l29 -45q-47 -84 -57.5 -291t-10.5 -313q0 -33 16.5 -52.5t43.5 -19.5t67 17l35 -54q-132 -204 -252 -250q-213 0 -240 150l-22 12q-124 -157 -166 -157q-184 0 -278.5 70.5
t-94.5 207.5l19 408q0 49 -12.5 67.5t-47.5 18.5l-37 -2h-16l16 170q265 32 465 71l27 -45q-57 -119 -57 -545z" />
    <glyph glyph-name="v" unicode="v" horiz-adv-x="1007" 
d="M-10 971q78 -4 96 -4h125q138 0 317 14l4 -10l-22 -180q-55 -10 -65.5 -18.5t-10.5 -55.5t72 -420h35q64 216 87 330.5t23 130.5t-7 21t-36 5h-33l-8 15l23 172q86 -4 104 -4h267q37 0 69 2l-18 -181q-52 -8 -66 -20.5t-26 -60.5l-213 -707l-443 -27q-72 318 -94.5 405
t-35.5 141t-24.5 97t-17.5 68q-31 102 -115 104l-4 11z" />
    <glyph glyph-name="w" unicode="w" horiz-adv-x="1591" 
d="M590 971q78 -4 95 -4h122q141 0 305 14l4 -10l-22 -180q-55 -10 -65.5 -18.5t-10.5 -55.5t72 -420h34q67 227 89 336t22 125t-7 21t-36 5h-33l-8 15l23 172q86 -4 104 -4h266q37 0 70 2l-19 -181q-51 -8 -65.5 -21.5t-26.5 -59.5l-213 -707l-422 -27l-63 404h-35
l-74 -377l-432 -27q-72 318 -94.5 405t-35.5 141t-24.5 97t-17.5 68q-31 102 -115 104l-4 11l17 172q78 -4 96 -4h125q138 0 317 14l4 -10l-22 -180q-55 -10 -65.5 -18.5t-10.5 -55.5t72 -420h35q110 429 110 456q0 26 -13 28.5t-63 2.5l-8 15z" />
    <glyph glyph-name="x" unicode="x" horiz-adv-x="1067" 
d="M567 174q0 13 -16 39l-90 119q-29 -37 -57.5 -77t-28.5 -65q0 -45 59 -45l8 -16l-16 -137q-212 8 -255 8t-179 -8l-8 20l18 138q25 10 61.5 49t110.5 129l152 184l-119 158q-47 66 -93 89t-106 36l-6 10l14 164q29 -2 70 -2h205q183 0 301 10l10 -16l-14 -152
q-61 0 -62 -39q0 -27 10.5 -45t30.5 -43l54 -68l63 93q14 23 24.5 40t10.5 40.5t-57 23.5l-5 8l13 148h162q163 0 262 6l6 -12l-10 -160q-59 -37 -104.5 -72t-76.5 -80l-147 -213l123 -153q51 -63 93 -94t99 -35l6 -7l-22 -151q-45 0 -84 2l-127 2l-354 -10l-11 10l19 143
q63 2 63 31z" />
    <glyph glyph-name="y" unicode="y" horiz-adv-x="995" 
d="M612 971q82 -4 100 -4h335l-19 -181q-43 -12 -60.5 -26.5t-31.5 -52.5l-260 -644q-96 -254 -242.5 -406.5t-286.5 -152.5q-46 0 -136.5 87t-90.5 135l21 38q297 47 428 199q-31 76 -126.5 327t-172.5 417q-25 43 -47.5 58t-57.5 19l-4 11l16 172h148q157 0 271 6t114 8
l4 -10l-22 -180q-47 -4 -61.5 -14.5t-14.5 -53.5t94 -363h37q127 348 127 394q0 20 -7.5 25t-35.5 5h-33l-8 15z" />
    <glyph glyph-name="z" unicode="z" horiz-adv-x="933" 
d="M899 453q-35 -273 -35 -428l-30 -33l-654 8l-123 -14l-53 86l471 704l-106 -14q-114 -12 -143 -38t-38.5 -56.5t-11.5 -79.5l-133 -10q4 72 9 136t8 131.5t6 121.5l16 16l270 -16h527l36 -82q-180 -247 -309 -443t-164 -249l121 18q96 14 140.5 65.5t60.5 165.5z" />
    <glyph glyph-name="braceleft" unicode="{" horiz-adv-x="686" 
d="M649 1122q-66 11 -71 11q-102 0 -103 -103q0 -36 27.5 -126t27.5 -145q0 -54 -38.5 -100.5t-110.5 -64.5v-10q150 -49 149 -185q0 -52 -27.5 -154.5t-27.5 -151.5q0 -48 29.5 -79.5t75.5 -31.5t71 10l27 -27l-29 -170q-77 -47 -213 -47t-224.5 68t-88.5 170
q0 58 37 145.5t54 128.5t17 72q0 109 -147 149l8 156q66 20 102.5 55t36.5 73t-17 80t-54 127.5t-37 138.5q0 109 100.5 174t257.5 65q56 0 185 -25l20 -33z" />
    <glyph glyph-name="bar" unicode="|" horiz-adv-x="600" 
d="M428 982v-1080q0 -209 2 -430l-240 -23l-30 33v190l2 893l2 1065l233 23l43 -33q-12 -591 -12 -638z" />
    <glyph glyph-name="braceright" unicode="}" horiz-adv-x="686" 
d="M114 1116q-38 0 -79 -10l-27 27l29 170q90 47 220 47t218 -69t88 -169q0 -56 -37 -137.5t-54 -120.5t-17 -83t38.5 -83t108.5 -51l-8 -156q-63 -16 -101 -52t-38 -75t17 -81t54 -127.5t37 -140.5q0 -115 -99.5 -186t-258.5 -71q-74 0 -185 25l-20 32l37 170
q30 -10 72 -10q102 0 102 103q0 44 -27.5 137t-27.5 151q0 57 38.5 102.5t110.5 65.5v11q-150 49 -149 184q0 50 27.5 143t27.5 142q0 48 -29.5 80t-67.5 32z" />
    <glyph glyph-name="asciitilde" unicode="~" horiz-adv-x="1034" 
d="M750 358q-39 0 -211 35t-207 35t-91 -43q-55 -43 -87 -76h-33l-101 115v33l220 235l45 8q43 0 212.5 -34.5t204.5 -34.5t91 42q55 42 88 77h32l101 -115v-33l-219 -235z" />
    <glyph glyph-name="nonbreakingspace" unicode="&#xa0;" horiz-adv-x="294" 
 />
    <glyph glyph-name="exclamdown" unicode="&#xa1;" horiz-adv-x="581" 
d="M492 -393l-37 -49l-385 -54l-52 54l150 880l211 33l43 -41zM310 991q95 0 144.5 -50t49.5 -146t-55.5 -153.5t-150.5 -57.5t-144.5 51t-49.5 146t55.5 152.5t150.5 57.5z" />
    <glyph glyph-name="cent" unicode="&#xa2;" horiz-adv-x="901" 
d="M456 328.5q40 -72.5 140 -72.5t186 53l21 -10l45 -154q-142 -121 -268 -157l-37 -297l-234 -27l-16 12l41 324q-147 43 -226 164t-79 307q0 320 164.5 409t263.5 103l43 336l237 29l13 -19l-43 -350q72 -9 133 -33l10 -22q-38 -191 -47 -357l-189 -10v74q0 66 -18 92.5
t-64 26.5q-117 0 -116 -191q0 -158 40 -230.5z" />
    <glyph glyph-name="sterling" unicode="&#xa3;" horiz-adv-x="1046" 
d="M979 442q63 -84 63 -238q0 -92 -68.5 -160.5t-176.5 -68.5q-49 0 -99.5 17.5t-102.5 38t-102.5 38t-99.5 17.5q-136 0 -280 -88l-31 12l-51 187q164 84 164 215v69q-4 47 -31 62.5t-107 19.5l-8 12l17 144l129 18v56q0 80 47 156.5t123.5 138t174 99.5t182.5 38
q174 0 265 -31l10 -23l-88 -268l-39 -6q-154 88 -221 88t-88.5 -28.5t-21.5 -102.5l-4 -117h87q86 0 197 6l10 -14l-22 -174l-279 6l-2 -78q0 -53 -17 -108.5t-42 -79.5l121 29q26 0 102.5 -17.5t119.5 -17.5q44 0 74.5 42t30.5 111h64z" />
    <glyph glyph-name="currency" unicode="&#xa4;" horiz-adv-x="909" 
d="M328 700.5q0 -63.5 44 -107.5t107.5 -44t108.5 44t45 107.5t-45 108.5t-108.5 45t-107.5 -45t-44 -108.5zM127 703q0 69 25 131q-31 27 -61.5 52t-54.5 49t-48 46l8 47l215 158l135 -158q66 27 132 27t134 -27l142 162l47 -8l157 -215l-151 -131q27 -70 27 -139t-29 -136
q29 -27 57 -50t52 -45t49 -42l-9 -47l-215 -158l-133 152q-61 -23 -130 -23t-136 29q-128 -147 -143 -162l-47 8l-158 215l158 135q-23 61 -23 130z" />
    <glyph glyph-name="yen" unicode="&#xa5;" horiz-adv-x="1206" 
d="M33 1034q86 -4 101 -4h96q81 0 119 1t82 2t82 3t65.5 3t31.5 3l13 -20l-17 -143q-61 0 -61 -25.5t43 -118.5l41 -96h24l72 201q4 16 4 26q0 16 -26.5 6.5t-38.5 18.5l6 67l8 70l278 2h54q53 0 143 6l8 -12l-14 -154q-90 -46 -115.5 -80t-38.5 -59l-10 -18l109 2
q23 0 43 2l16 -21l-12 -176h-267l-34 -63l-19 -31l309 6l17 -20l-12 -176h-361q0 -19 8 -35q16 -43 80 -43h26q26 0 62 6l10 -10l-14 -164l-362 10q-108 0 -200 -6t-163 -8l14 159q92 6 128 23.5t45 67.5q-99 -3 -232 -3h-102l-21 17l25 174h301l-53 96q-51 -2 -62 -2h-184
l-21 17l25 174h125q-8 12 -92 71.5t-101 93.5q13 130 19 160z" />
    <glyph glyph-name="brokenbar" unicode="&#xa6;" horiz-adv-x="600" 
d="M440 1620q-12 -435 -12 -854l-240 -33l-26 23l2 874l233 23zM428 -254q0 -143 2 -274l-240 -23l-30 33v342q0 342 2 483l229 35l37 -35v-561z" />
    <glyph glyph-name="section" unicode="&#xa7;" horiz-adv-x="995" 
d="M629 500q0 73 -55.5 119.5t-172.5 111.5q-39 -39 -39 -83q0 -71 59.5 -120t176.5 -106q31 35 31 78zM611 1098q-70 0 -70 -57q0 -26 30.5 -51t77.5 -53t179.5 -102t132.5 -232t-205 -277q100 -78 100 -189q0 -141 -130.5 -236.5t-319.5 -95.5q-123 0 -221.5 49.5
t-98.5 108.5q0 145 82 256l55 -4q10 -70 65.5 -119t122.5 -49t66 49q0 35 -31.5 60.5t-133 75.5t-185.5 112t-84 193q0 173 217 284q-106 88 -106 217t121 220.5t298 91.5q117 0 209 -30.5t92 -74.5q0 -58 -28 -149t-58 -115h-51q-18 51 -55 84t-71 33z" />
    <glyph glyph-name="dieresis" unicode="&#xa8;" 
d="M203 1145q-162 0 -162 164q0 82 47 130t127 48t122 -43t42 -123t-47 -128t-129 -48zM598 1145q-164 0 -164 164q0 82 47 130t127 48t122 -43t42 -123t-47 -128t-127 -48z" />
    <glyph glyph-name="copyright" unicode="&#xa9;" horiz-adv-x="1431" 
d="M215 600.5q0 -104.5 39 -197t106.5 -160t158.5 -107.5t195.5 -40t195.5 40t159 107.5t108 160t40 197t-40 196.5t-108 159.5t-159 107.5t-195.5 40t-195.5 -40t-158.5 -107.5t-106.5 -159.5t-39 -196.5zM92 600q0 129 49 243.5t133 198.5t198 133.5t243 49.5t242.5 -49.5
t198.5 -134.5t134 -198.5t49 -242.5t-49 -243.5t-134 -198.5t-198.5 -133.5t-242.5 -49.5t-243 49.5t-198 133.5t-133 198.5t-49 243.5zM977 549q-10 -194 -8 -232l-17 -20q-137 -37 -279 -37q-143 0 -227 88t-84 248q0 356 388 356q59 0 237 -26l10 -23q-6 -29 -17 -82
t-15 -149l-185 -8v16l2 41q0 43 -14 59.5t-58 16.5t-60.5 -32.5t-16.5 -138.5q0 -204 83 -204q42 0 58.5 25.5t20.5 87.5z" />
    <glyph glyph-name="ordfeminine" unicode="&#xaa;" horiz-adv-x="743" 
d="M336 846h61l2 115l-92 -17q-23 -4 -22 -26q0 -72 51 -72zM401 1067q-8 86 -124 86q-59 0 -152 -57l-19 8l-36 117q232 116 308 116q149 0 216.5 -57.5t67.5 -144.5l-31 -232q0 -45 39 -45q15 0 43 8l24 -39q-99 -165 -155 -174q-72 0 -115 26t-49 73l-19 8
q-101 -101 -151 -101q-95 0 -156 69.5t-61 172.5q0 47 25.5 79t66.5 42z" />
    <glyph glyph-name="guillemotleft" unicode="&#xab;" horiz-adv-x="974" 
d="M340 475q71 -145 141 -268l-14 -47l-127 -74q-53 66 -109.5 129.5t-106.5 120.5t-104 113v55q54 54 104 112t106.5 120.5t109.5 127.5l127 -71l14 -48q-73 -124 -141 -270zM762 475q71 -145 141 -268l-14 -47l-127 -74q-53 66 -109.5 129.5t-106.5 120.5t-104 113v55
q54 54 104 112t106.5 120.5t109.5 127.5l127 -71l14 -48q-73 -124 -141 -270z" />
    <glyph glyph-name="logicalnot" unicode="&#xac;" horiz-adv-x="1036" 
d="M915 336v-193q0 -45 3 -84l-277 -36l-27 18v155q0 154 2 228h-104l-301 -2h-162l-18 27l37 276q84 -2 165 -2h304q169 0 391 12l14 -30q-27 -221 -27 -369z" />
    <glyph glyph-name="uni00AD" unicode="&#xad;" horiz-adv-x="663" 
d="M596 635l-27 -221l-475 -54l-26 37l20 217l313 35q78 6 118 14q39 7 52 9z" />
    <glyph glyph-name="registered" unicode="&#xae;" horiz-adv-x="958" 
d="M532 1134q0 52 -69 52q-10 -1 -10 -17q-7 -94 -7 -96l50 -2q36 11 36 63zM337.5 852q-15.5 0 -31.5 -2t-32 -2l7 55q41 8 41 55v211q0 23 -3.5 30t-13.5 7l-16 -2h-6l-7 4l7 52h110q52 0 84 4q187 0 187 -117q0 -76 -76 -121l41 -65q10 -23 28.5 -39.5t32.5 -18.5l4 -6
q-2 -14 0 -23.5t-5 -17.5t-62 -10q-56 -2 -74 5t-35 48l-39 96h-35v-43q0 -31 8 -37t24 -8t17 -2t1 -2l-7 -53q-20 0 -38 2l-58 2h-24q-14 -2 -29.5 -2zM147 1038.5q0 -67.5 27 -128t72 -105.5t105.5 -71.5t128 -26.5t128 26.5t105.5 71.5t71.5 105.5t26.5 128t-26.5 128
t-71.5 105.5t-105.5 71.5t-128 26.5t-128 -26.5t-105.5 -71.5t-72 -105.5t-27 -128zM61 1038q0 86 33 163t89.5 133.5t133 89t162.5 32.5t163 -32.5t133 -89t89 -133.5t33 -163t-33 -162.5t-89 -133t-133 -89t-163 -32.5t-162.5 32.5t-133 89t-89.5 133t-33 162.5z" />
    <glyph glyph-name="macron" unicode="&#xaf;" 
d="M254 1407h203q125 0 254 12l22 -37l-37 -223l-286 -2l-183 -2h-92l-33 31l39 223q57 -2 113 -2z" />
    <glyph glyph-name="degree" unicode="&#xb0;" horiz-adv-x="618" 
d="M186 1072q0 -54 34 -88t88 -34t89 34t35 88t-35 89t-89 35t-88 -35t-34 -89zM33 1073q0 57 21.5 107.5t59.5 88.5t88 59.5t107.5 21.5t107.5 -21.5t88 -59.5t59.5 -88.5t21.5 -107.5t-21.5 -107.5t-59.5 -88t-88 -59t-107.5 -21.5t-107.5 21.5t-88 59t-59.5 88
t-21.5 107.5z" />
    <glyph glyph-name="plusminus" unicode="&#xb1;" horiz-adv-x="1036" 
d="M86 0h416q416 0 448 4l21 -39l-29 -217l-856 -2l-23 39zM657 207q0 -47 2 -88l-266 -37l-26 18v124q0 124 2 184q-59 -2 -73 -2h-247l-18 26l37 277q43 -2 94 -2h207l2 321l268 27l31 -15l-13 -333l118 4t110 4t104 4l15 -31l-27 -278l-320 -2v-201z" />
    <glyph glyph-name="two.sups" unicode="&#xb2;" horiz-adv-x="772" 
d="M55 1335q131 156 331 156q104 0 180 -57t77 -152q0 -137 -133 -289q-49 -55 -119 -123l6 -12h64q53 0 77 28t27 97l178 12q-32 -220 -36 -315l-27 -27q-408 17 -485 17l-142 -8l-14 149l192 199q66 72 93 112t24 72q0 55 -72 55t-157 -90h-27z" />
    <glyph glyph-name="three.sups" unicode="&#xb3;" horiz-adv-x="673" 
d="M426 1126q203 -69 203 -197q0 -114 -137 -195t-318 -81q-76 0 -106 43t-41 152l34 35q59 -27 132 -27q133 0 133 72q0 57 -150 57l-18 23l-17 135l92 16q76 29 76 94q0 45 -57 45t-143 -55h-23l-49 152q139 96 325 96q88 0 154 -45q68 -46 68 -116t-43 -118t-115 -69v-17
z" />
    <glyph glyph-name="acute" unicode="&#xb4;" 
d="M203 1214q107 91 383 342h35l147 -206l-4 -35q-66 -35 -132 -72t-144 -79t-156 -89l-45 15z" />
    <glyph glyph-name="mu" unicode="&#xb5;" horiz-adv-x="1118" 
d="M434 401q0 -127 88 -127q35 0 94 33v355q0 104 -26 208l20 56q187 26 263 37q76 10 135 20l28 -45q-46 -82 -56.5 -290t-10.5 -314q0 -33 16 -52.5t41 -19.5t70 17l34 -54q-132 -204 -251 -250q-213 0 -240 150l-21 10q-60 -87 -103 -121t-67 -34t-49 14l-10 -6v-121
l2 -82q6 -126 12 -205l-16 -24l-319 -52l-31 29q32 348 41 617l18 516q0 96 -24 208l20 58q210 28 373 59l27 -45q-58 -121 -58 -545z" />
    <glyph glyph-name="mu" unicode="&#x3bc;" horiz-adv-x="1118" 
d="M434 401q0 -127 88 -127q35 0 94 33v355q0 104 -26 208l20 56q187 26 263 37q76 10 135 20l28 -45q-46 -82 -56.5 -290t-10.5 -314q0 -33 16 -52.5t41 -19.5t70 17l34 -54q-132 -204 -251 -250q-213 0 -240 150l-21 10q-60 -87 -103 -121t-67 -34t-49 14l-10 -6v-121
l2 -82q6 -126 12 -205l-16 -24l-319 -52l-31 29q32 348 41 617l18 516q0 96 -24 208l20 58q210 28 373 59l27 -45q-58 -121 -58 -545z" />
    <glyph glyph-name="paragraph" unicode="&#xb6;" horiz-adv-x="1175" 
d="M938 1325q10 0 238 6l-13 -172l-4 -8q-58 -16 -73 -31.5t-19 -55.5q-6 -65 -15.5 -298t-9.5 -362q0 -130 -48 -234t-130 -185t-187 -129.5t-191 -48.5q-148 0 -237 63t-89 145q0 83 38 159t56 102h37q14 -117 68.5 -184t137.5 -67t119.5 44t36.5 148v899q0 18 -11 24.5
t-46 6.5q-121 0 -121 -287q0 -121 27.5 -207t95.5 -178v-72q-266 0 -427 126.5t-161 334.5t140 339.5t360 131.5l330 -10h98z" />
    <glyph glyph-name="periodcentered" unicode="&#xb7;" horiz-adv-x="487" 
d="M237 315q-95 0 -144.5 50.5t-49.5 146.5t55.5 153.5t150.5 57.5t144 -50.5t49 -146.5t-55 -153.5t-150 -57.5z" />
    <glyph glyph-name="cedilla" unicode="&#xb8;" 
d="M424 -78q221 -107 221 -219q0 -81 -87.5 -140t-206.5 -59t-154 41t-35 66q0 43 100 143h19q2 -57 29.5 -85.5t70.5 -28.5q66 0 65 47q0 49 -178 135l64 250h125z" />
    <glyph glyph-name="one.sups" unicode="&#xb9;" horiz-adv-x="579" 
d="M483 799h41q8 0 19 2l6 -8l-21 -131q-172 8 -246 8q-73 0 -139 -6q-65 -6 -112 -9l12 119q125 11 125 90v377q0 47 -12 63t-54 15l-43 -2h-22l-12 14l10 109q53 4 100 10t129 13t127 15q45 7 68 10l22 3l25 -66q-39 -28 -57 -95t-19 -443q0 -88 53 -88z" />
    <glyph glyph-name="ordmasculine" unicode="&#xba;" horiz-adv-x="761" 
d="M388 811q26 0 36 23.5t10 94.5q0 144 -10.5 188t-44.5 44q-35 0 -45 -22.5t-10 -92.5t2 -115.5t8 -72.5t17 -37t37 -10zM390 1337q335 1 335 -331q0 -166 -92 -259.5t-256 -93.5t-252 87t-88 250t93 255t260 92z" />
    <glyph glyph-name="guillemotright" unicode="&#xbb;" horiz-adv-x="974" 
d="M213 475q-76 156 -141 268l14 48l127 73q53 -66 109.5 -129t106.5 -121t103 -112v-56q-53 -55 -103 -112t-106.5 -120.5t-109.5 -127.5l-127 72l-14 47q54 92 141 270zM635 475q-76 156 -141 268l14 48l127 73q53 -66 109.5 -129t106.5 -121t103 -112v-56
q-53 -55 -103 -112t-106.5 -120.5t-109.5 -127.5l-127 72l-14 47q54 92 141 270z" />
    <glyph glyph-name="onequarter" unicode="&#xbc;" horiz-adv-x="1730" 
d="M1397 1276q-106 -162 -214 -331t-164 -254t-146 -224t-224 -350q-133 -211 -192 -303l-191 71l-12 35q154 212 397 598l547 873l178 -66zM1319 346v166h-16l-105 -166h121zM1315 105q0 30 2 65l-318 4l2 148l347 495l14 4l217 -18v-457h92l17 -20l-17 -166l-90 2
q0 -66 8 -146l-18 -16l-248 -16l-14 16q6 75 6 105zM483 649h41q8 0 19 2l6 -8l-21 -131q-172 8 -246 8q-73 0 -139 -6q-65 -6 -112 -8l12 119q65 5 95 27t30 63v377q0 47 -12 62t-54 15l-43 -2h-22l-12 15l10 108q53 4 100 10t130 14t127 15q44 6 67 9l22 3l25 -65
q-39 -28 -57 -95t-19 -444q0 -88 53 -88z" />
    <glyph glyph-name="onehalf" unicode="&#xbd;" horiz-adv-x="1796" 
d="M1397 1276q-106 -162 -214 -331t-164 -254t-146 -224t-224 -350q-133 -211 -192 -303l-191 71l-12 35q154 212 397 598l547 873l178 -66zM1079 666q131 155 331 155q104 0 180 -57t77 -152q0 -139 -133 -288q-49 -55 -119 -123l6 -13h64q53 0 77 28t27 97l178 13
q-32 -220 -36 -316l-27 -26q-384 16 -485 16l-142 -8l-14 149l192 199q66 72 93 112t24 72q0 56 -72 56t-157 -91h-27zM483 649h41q8 0 19 2l6 -8l-21 -131q-172 8 -246 8q-73 0 -139 -6q-65 -6 -112 -8l12 119q65 5 95 27t30 63v377q0 47 -12 62t-54 15l-43 -2h-22l-12 15
l10 108q53 4 100 10t130 14t127 15q44 6 67 9l22 3l25 -65q-39 -28 -57 -95t-19 -444q0 -88 53 -88z" />
    <glyph glyph-name="threequarters" unicode="&#xbe;" horiz-adv-x="1722" 
d="M1376 1268q-106 -162 -214 -332t-164 -254t-146 -223t-224 -350q-133 -211 -192 -304l-190 72l-13 35q162 223 398 598l547 872l178 -65zM1311 346v166h-17l-104 -166h121zM1307 111q0 24 2 59l-318 4l2 148l346 495l15 4l217 -18v-457h92l16 -20l-16 -166l-90 2
q0 -66 8 -146l-18 -16l-248 -16l-15 16q7 87 7 111zM426 977q203 -69 203 -197q0 -114 -138 -196t-317 -80q-76 0 -106 43t-41 151l34 35q59 -27 132 -26q133 0 133 71q0 56 -150 58l-18 22l-17 135l92 17q76 29 76 94q0 45 -57 45t-143 -55h-23l-49 151q69 47 153 72
q205 61 326 -21q68 -45 68 -115q0 -71 -43 -119t-115 -69v-16z" />
    <glyph glyph-name="questiondown" unicode="&#xbf;" horiz-adv-x="780" 
d="M450 991q193 0 193 -196q0 -96 -55.5 -153.5t-150.5 -57.5t-144 51t-49 146t55.5 152.5t150.5 57.5zM338 -39q0 -68 87 -109.5t247 -48.5l28 -36l-84 -242l-34 -19q-254 4 -430.5 111.5t-176.5 261.5q0 105 67 184t267 211l6 13l-16 141l18 29l242 41l31 -17l49 -272
l-6 -31l-199 -96q-96 -53 -96 -121z" />
    <glyph glyph-name="Agrave" unicode="&#xc0;" horiz-adv-x="1384" 
d="M657 616q60 0 107 5l-70 358h-45l-96 -363h104zM694 178q99 13 115 21q16 9 16 35q0 25 -4 51l-12 80q-82 4 -157 4t-165 -11l-20 -90q-6 -36 -6 -54t11 -25t52 -7h54l16 -20l-16 -170l-316 6l-184 -2h-88l14 178q74 18 105 113l325 1028l539 33l31 -25
q108 -438 140 -559t61 -242t51 -200q22 -78 50 -110t74 -36l15 -20l-17 -162q-51 0 -102 2l-186 2q-107 0 -392 -10l-16 18zM492 1792q279 -121 509 -205l-43 -145l-38 -27q-96 23 -190 43t-173 38q-80 18 -158 32l-14 33l74 221z" />
    <glyph glyph-name="Aacute" unicode="&#xc1;" horiz-adv-x="1384" 
d="M657 616q60 0 107 5l-70 358h-45l-96 -363h104zM694 178q99 13 115 21q16 9 16 35q0 25 -4 51l-12 80q-82 4 -157 4t-165 -11l-20 -90q-6 -36 -6 -54t11 -25t52 -7h54l16 -20l-16 -170l-316 6l-184 -2h-88l14 178q74 18 105 113l325 1028l539 33l31 -25
q108 -438 140 -559t61 -242t51 -200q22 -78 50 -110t74 -36l15 -20l-17 -162q-51 0 -102 2l-186 2q-107 0 -392 -10l-16 18zM469 1587q266 99 510 205l33 -10l73 -221l-14 -33q-179 -31 -520 -113l-39 27z" />
    <glyph glyph-name="Acircumflex" unicode="&#xc2;" horiz-adv-x="1384" 
d="M657 616q60 0 107 5l-70 358h-45l-96 -363h104zM694 178q99 13 115 21q16 9 16 35q0 25 -4 51l-12 80q-82 4 -157 4t-165 -11l-20 -90q-6 -36 -6 -54t11 -25t52 -7h54l16 -20l-16 -170l-316 6l-184 -2h-88l14 178q74 18 105 113l325 1028l539 33l31 -25
q108 -438 140 -559t61 -242t51 -200q22 -78 50 -110t74 -36l15 -20l-17 -162q-51 0 -102 2l-186 2q-107 0 -392 -10l-16 18zM731 1860q0 6 94 -71t267 -212l-72 -127l-47 -14q-159 66 -271 104q-5 -2 -268 -104l-47 14l-74 127q139 99 363 283h55z" />
    <glyph glyph-name="Atilde" unicode="&#xc3;" horiz-adv-x="1384" 
d="M657 616q60 0 107 5l-70 358h-45l-96 -363h104zM694 178q99 13 115 21q16 9 16 35q0 25 -4 51l-12 80q-82 4 -157 4t-165 -11l-20 -90q-6 -36 -6 -54t11 -25t52 -7h54l16 -20l-16 -170l-316 6l-184 -2h-88l14 178q74 18 105 113l325 1028l539 33l31 -25
q108 -438 140 -559t61 -242t51 -200q22 -78 50 -110t74 -36l15 -20l-17 -162q-51 0 -102 2l-186 2q-107 0 -392 -10l-16 18zM588 1501q-50 0 -137 -119h-33l-121 111v33l166 235l35 8q43 -1 168 -35t151 -34t66 42q41 42 67 77h33l121 -111v-33l-166 -235l-35 -8
q-27 0 -71 11t-90 23q-48 12 -90 24t-64 11z" />
    <glyph glyph-name="Adieresis" unicode="&#xc4;" horiz-adv-x="1384" 
d="M657 616q60 0 107 5l-70 358h-45l-96 -363h104zM694 178q99 13 115 21q16 9 16 35q0 25 -4 51l-12 80q-82 4 -157 4t-165 -11l-20 -90q-6 -36 -6 -54t11 -25t52 -7h54l16 -20l-16 -170l-316 6l-184 -2h-88l14 178q74 18 105 113l325 1028l539 33l31 -25
q108 -438 140 -559t61 -242t51 -200q22 -78 50 -110t74 -36l15 -20l-17 -162q-51 0 -102 2l-186 2q-107 0 -392 -10l-16 18zM496 1403q-162 0 -162 164q0 82 47 130t127 48t122 -43t42 -123t-47 -128t-129 -48zM891 1403q-164 0 -164 164q0 82 47 130t127 48t122 -43
t42 -123t-47 -128t-127 -48z" />
    <glyph glyph-name="Aring" unicode="&#xc5;" horiz-adv-x="1384" 
d="M657 616q60 0 107 5l-70 358h-45l-96 -363h104zM694 178q99 13 115 21q16 9 16 35q0 25 -4 51l-12 80q-82 4 -157 4t-165 -11l-20 -90q-6 -36 -6 -54t11 -25t52 -7h54l16 -20l-16 -170l-316 6l-184 -2h-88l14 178q74 18 105 113l325 1028l539 33l31 -25
q108 -438 140 -559t61 -242t51 -200q22 -78 50 -110t74 -36l15 -20l-17 -162q-51 0 -102 2l-186 2q-107 0 -392 -10l-16 18zM692 1397q-102 0 -155 58q-53 59 -53 153t60 156t166 62t156 -56q50 -57 51 -123q2 -113 -60 -181q-63 -69 -165 -69zM625 1614q0 -43 27 -59
q28 -15 50 -15t49 13q26 13 25 55q0 72 -76 72t-75 -66z" />
    <glyph glyph-name="AE" unicode="&#xc6;" horiz-adv-x="1921" 
d="M698 672l103 18l-29 289h-45l-117 -315zM834 252v28q0 29 -3 52l-10 117l-153 -27l-158 -47l-33 -109q-12 -42 -12 -60t20.5 -21t92.5 -3l14 -20l-14 -170q-2 0 -51.5 1t-116 2l-133 2t-103.5 1l-115 -2h-49l-6 178q74 18 117 113l340 800q-4 33 -16.5 45.5t-36.5 12.5
l-35 -2q-8 -2 -19 -2l-24 28l18 162q294 -6 326 -6h354q526 0 707 25l26 -33q-34 -180 -47 -408l-282 -18q0 14 2 29l2 47q0 67 -38.5 89.5t-121.5 22.5q-82 0 -96.5 -10t-14.5 -39l39 -268l150 26l207 54l34 -35l-24 -238l-197 -24l-133 -25l23 -149q20 -137 112 -138
q119 0 157 40t58 180l262 18l25 -31q-38 -226 -57 -422l-31 -32q-98 2 -252 8t-405 6h-86q-320 -10 -351 -12l-14 18l12 172q86 10 113 27t27 47z" />
    <glyph glyph-name="Ccedilla" unicode="&#xc7;" horiz-adv-x="1234" 
d="M690 -78q221 -107 221 -219q0 -81 -87.5 -140t-206.5 -59t-154 41t-35 59q0 50 100 150h19q2 -57 29.5 -85.5t70.5 -28.5q66 0 66 45t-74 83.5t-104 53.5l38 158q-260 18 -401 189t-141 468q0 346 184 529.5t535 183.5q164 0 430 -54l16 -41q-48 -228 -57 -438l-316 -18
q0 16 2 35l2 81q0 84 -31.5 118t-97.5 34t-102.5 -17.5t-67 -77t-30.5 -275.5q0 -215 47 -323t151 -108q78 0 115 53.5t47 184.5l313 20q-24 -288 -24 -436l-27 -33q-198 -65 -418 -75z" />
    <glyph glyph-name="Egrave" unicode="&#xc8;" horiz-adv-x="1234" 
d="M582 436v-78q0 -80 16 -101t82 -21q131 0 175 39q26 24 39 66t24 112l262 18l24 -31q-38 -226 -57 -422l-31 -32q-98 2 -252 8t-350 6q-197 0 -310 -8q-112 -8 -177 -12l18 188q78 12 106 50t27 130l2 686q0 66 -10 88t-45 23l-35 -2q-8 -2 -18 -2l-25 28l19 162
q252 -6 329 -6h148q479 0 633 25l26 -33q-34 -180 -47 -408l-283 -18q0 14 2 29l3 47q0 68 -39 90t-122 22t-96 -10t-14 -45l-12 -231l168 -2q84 0 225 12l25 -29l-29 -235l-246 6q-80 0 -153 -13q-2 -53 -2 -96zM399 1792q274 -119 510 -205l-43 -145l-39 -27
q-96 23 -189 43t-173 38t-158 32l-14 33l74 221z" />
    <glyph glyph-name="Eacute" unicode="&#xc9;" horiz-adv-x="1234" 
d="M582 436v-78q0 -80 16 -101t82 -21q131 0 175 39q26 24 39 66t24 112l262 18l24 -31q-38 -226 -57 -422l-31 -32q-98 2 -252 8t-350 6q-197 0 -310 -8q-112 -8 -177 -12l18 188q78 12 106 50t27 130l2 686q0 66 -10 88t-45 23l-35 -2q-8 -2 -18 -2l-25 28l19 162
q252 -6 329 -6h148q479 0 633 25l26 -33q-34 -180 -47 -408l-283 -18q0 14 2 29l3 47q0 68 -39 90t-122 22t-96 -10t-14 -45l-12 -231l168 -2q84 0 225 12l25 -29l-29 -235l-246 6q-80 0 -153 -13q-2 -53 -2 -96zM438 1587q266 99 510 205l33 -10l74 -221l-15 -33
q-166 -29 -520 -113l-39 27z" />
    <glyph glyph-name="Ecircumflex" unicode="&#xca;" horiz-adv-x="1234" 
d="M582 436v-78q0 -80 16 -101t82 -21q131 0 175 39q26 24 39 66t24 112l262 18l24 -31q-38 -226 -57 -422l-31 -32q-98 2 -252 8t-350 6q-197 0 -310 -8q-112 -8 -177 -12l18 188q78 12 106 50t27 130l2 686q0 66 -10 88t-45 23l-35 -2q-8 -2 -18 -2l-25 28l19 162
q252 -6 329 -6h148q479 0 633 25l26 -33q-34 -180 -47 -408l-283 -18q0 14 2 29l3 47q0 68 -39 90t-122 22t-96 -10t-14 -45l-12 -231l168 -2q84 0 225 12l25 -29l-29 -235l-246 6q-80 0 -153 -13q-2 -53 -2 -96zM700 1860q0 6 94 -71t267 -212l-72 -127l-47 -14
q-164 68 -270 104q-13 -4 -269 -104l-47 14l-73 127q131 94 362 283h55z" />
    <glyph glyph-name="Edieresis" unicode="&#xcb;" horiz-adv-x="1234" 
d="M582 436v-78q0 -80 16 -101t82 -21q131 0 175 39q26 24 39 66t24 112l262 18l24 -31q-38 -226 -57 -422l-31 -32q-98 2 -252 8t-350 6q-197 0 -310 -8q-112 -8 -177 -12l18 188q78 12 106 50t27 130l2 686q0 66 -10 88t-45 23l-35 -2q-8 -2 -18 -2l-25 28l19 162
q252 -6 329 -6h148q479 0 633 25l26 -33q-34 -180 -47 -408l-283 -18q0 14 2 29l3 47q0 68 -39 90t-122 22t-96 -10t-14 -45l-12 -231l168 -2q84 0 225 12l25 -29l-29 -235l-246 6q-80 0 -153 -13q-2 -53 -2 -96zM465 1403q-162 0 -162 164q0 82 47 130t127 48t122 -43
t42 -123t-47 -128t-129 -48zM860 1403q-164 0 -164 164q0 82 47 130t127 48t122 -43t42 -123t-47 -128t-127 -48z" />
    <glyph glyph-name="Igrave" unicode="&#xcc;" horiz-adv-x="757" 
d="M383 1325q165 0 352 10l-14 -184q-75 -13 -94 -31t-23 -76q-20 -290 -20 -725q0 -85 12 -113t40 -28h42q10 0 37 6l16 -20l-18 -172q-296 8 -339 8t-343 -10l16 174q83 16 108 49t25 119v708q0 64 -14 84t-57 21l-35 -2h-19l-18 28l16 154h330zM117 1792
q286 -124 510 -205l-43 -145l-39 -27q-95 23 -189 43t-174 38t-157 32l-15 33l74 221z" />
    <glyph glyph-name="Iacute" unicode="&#xcd;" horiz-adv-x="757" 
d="M383 1325q165 0 352 10l-14 -184q-75 -13 -94 -31t-23 -76q-20 -290 -20 -725q0 -85 12 -113t40 -28h42q10 0 37 6l16 -20l-18 -172q-296 8 -339 8t-343 -10l16 174q83 16 108 49t25 119v708q0 64 -14 84t-57 21l-35 -2h-19l-18 28l16 154h330zM154 1587q266 99 510 205
l32 -10l74 -221l-14 -33q-179 -31 -520 -113l-39 27z" />
    <glyph glyph-name="Icircumflex" unicode="&#xce;" horiz-adv-x="757" 
d="M383 1325q165 0 352 10l-14 -184q-75 -13 -94 -31t-23 -76q-20 -290 -20 -725q0 -85 12 -113t40 -28h42q10 0 37 6l16 -20l-18 -172q-296 8 -339 8t-343 -10l16 174q83 16 108 49t25 119v708q0 64 -14 84t-57 21l-35 -2h-19l-18 28l16 154h330zM418 1860q0 6 102 -78
t258 -205l-71 -127l-48 -14q-164 68 -270 104q-31 -11 -268 -104l-47 14l-74 127q159 113 362 283h56z" />
    <glyph glyph-name="Idieresis" unicode="&#xcf;" horiz-adv-x="757" 
d="M383 1325q165 0 352 10l-14 -184q-75 -13 -94 -31t-23 -76q-20 -290 -20 -725q0 -85 12 -113t40 -28h42q10 0 37 6l16 -20l-18 -172q-296 8 -339 8t-343 -10l16 174q83 16 108 49t25 119v708q0 64 -14 84t-57 21l-35 -2h-19l-18 28l16 154h330zM182 1403q-162 0 -162 164
q0 82 48 130t127 48t121 -43t42 -123t-47 -128t-129 -48zM578 1403q-164 0 -164 164q0 82 47 130t127 48t122 -43t42 -123t-47 -128t-127 -48z" />
    <glyph glyph-name="Eth" unicode="&#xd0;" horiz-adv-x="1441" 
d="M627 547v-215q0 -59 15.5 -80t69.5 -21q119 0 175.5 93.5t56.5 332.5t-54 329.5t-174 90.5q-48 0 -57.5 -12t-11.5 -43l-14 -277l153 7l17 -21l-15 -184h-161zM231 344v201h-196l-21 16l27 182h190v287q0 66 -11 88.5t-40 22.5l-45 -2q-10 -2 -20 -2l-21 28l19 166
q198 -6 208 -6h103q115 0 340 12q649 0 649 -616q0 -345 -193 -545.5t-520 -200.5q-238 25 -330 25t-288 -16l16 190q78 12 105.5 48t27.5 122z" />
    <glyph glyph-name="Ntilde" unicode="&#xd1;" horiz-adv-x="1513" 
d="M39 1335q113 -10 249 -10t316 8q120 -215 227 -385q107 -171 166 -266h31l-8 375q-4 53 -18 70t-50 18h-63l-10 22l10 166q252 -8 317 -8q134 0 279 5l28 1l-10 -184q-65 -10 -91 -38t-28 -91l-26 -1018l-385 -25q-102 170 -234 376q-131 206 -186 294h-31l6 -364
q4 -105 62 -105q27 0 88 8l18 -18l-22 -174q-386 12 -483 4t-148 -12l20 184q59 8 88 38q28 30 29 91l25 715q0 70 -26 92t-128 37l-24 28zM676 1501q-50 0 -137 -119h-33l-121 111v33l166 235l35 8q26 0 70 -11l92 -23q48 -11 89 -23q42 -12 68 -12t66 42q41 42 67 77h33
l121 -111v-33l-166 -235l-35 -8q-27 0 -71 11t-90 23q-48 12 -90 24t-64 11z" />
    <glyph glyph-name="Ograve" unicode="&#xd2;" horiz-adv-x="1341" 
d="M654 -25q-624 0 -624 675q0 335 172 517q171 182 498 183q610 0 611 -654q0 -348 -173 -534q-172 -186 -484 -187zM842 546q0 305 -41 414t-135 109t-130 -75q-36 -74 -36 -234q0 -304 41 -416q41 -111 134 -111t130 76q37 77 37 237zM395 1792q274 -119 510 -205
l-43 -145l-39 -27q-96 23 -189 43t-173 38t-158 32l-14 33l73 221z" />
    <glyph glyph-name="Oacute" unicode="&#xd3;" horiz-adv-x="1341" 
d="M654 -25q-624 0 -624 675q0 335 172 517q171 182 498 183q610 0 611 -654q0 -348 -173 -534q-172 -186 -484 -187zM842 546q0 305 -41 414t-135 109t-130 -75q-36 -74 -36 -234q0 -304 41 -416q41 -111 134 -111t130 76q37 77 37 237zM434 1587q266 99 510 205l33 -10
l74 -221l-15 -33q-166 -29 -520 -113l-39 27z" />
    <glyph glyph-name="Ocircumflex" unicode="&#xd4;" horiz-adv-x="1341" 
d="M654 -25q-624 0 -624 675q0 335 172 517q171 182 498 183q610 0 611 -654q0 -348 -173 -534q-172 -186 -484 -187zM842 546q0 305 -41 414t-135 109t-130 -75q-36 -74 -36 -234q0 -304 41 -416q41 -111 134 -111t130 76q37 77 37 237zM696 1860q0 6 94 -71t267 -212
l-72 -127l-47 -14q-164 68 -270 104q-13 -4 -269 -104l-47 14l-73 127q131 94 362 283h55z" />
    <glyph glyph-name="Otilde" unicode="&#xd5;" horiz-adv-x="1341" 
d="M654 -25q-624 0 -624 675q0 335 172 517q171 182 498 183q610 0 611 -654q0 -348 -173 -534q-172 -186 -484 -187zM842 546q0 305 -41 414t-135 109t-130 -75q-36 -74 -36 -234q0 -304 41 -416q41 -111 134 -111t130 76q37 77 37 237zM553 1501q-50 0 -137 -119h-33
l-121 111v33l166 235l35 8q49 -1 171 -35t148 -34t66 42q41 42 67 77h33l121 -111v-33l-166 -235l-35 -8q-43 0 -168 34t-147 35z" />
    <glyph glyph-name="Odieresis" unicode="&#xd6;" horiz-adv-x="1341" 
d="M654 -25q-624 0 -624 675q0 335 172 517q171 182 498 183q610 0 611 -654q0 -348 -173 -534q-172 -186 -484 -187zM842 546q0 305 -41 414t-135 109t-130 -75q-36 -74 -36 -234q0 -304 41 -416q41 -111 134 -111t130 76q37 77 37 237zM461 1403q-162 0 -162 164
q0 82 47 130t127 48t122 -43t42 -123t-47 -128t-129 -48zM856 1403q-164 0 -164 164q0 82 47 130t127 48t122 -43t42 -123t-47 -128t-127 -48z" />
    <glyph glyph-name="multiply" unicode="&#xd7;" horiz-adv-x="1036" 
d="M516 688q49 49 229 244l31 -12l172 -209l-225 -228q43 -43 235 -219l-12 -33l-215 -178l-221 217q-41 -41 -79 -79.5t-69 -69.5l-67 -68l-33 6l-162 213l82 82q82 82 123 121q-43 41 -53 51l-107 107q-39 37 -73 74l6 32l221 170q62 -66 217 -221z" />
    <glyph glyph-name="Oslash" unicode="&#xd8;" horiz-adv-x="1341" 
d="M842 546q0 301 -40 412t-136 111q-95 0 -130.5 -74.5t-35.5 -234.5q0 -304 40.5 -415.5t133.5 -111.5q94 0 131 76.5t37 236.5zM31 646q0 339 171 521.5t498 182.5q154 0 271 -43l155 233l199 -110l4 -27l-158 -234q139 -165 139 -493t-172.5 -514.5t-496.5 -186.5
q-133 0 -242 35l-163 -250l-195 113l-8 21l162 243q-164 170 -164 509z" />
    <glyph glyph-name="Ugrave" unicode="&#xd9;" horiz-adv-x="1284" 
d="M259 1325h107q94 0 166 3t125 5l-20 -190q-53 -4 -75 -29t-23 -72l-13 -591q0 -99 40 -157t118 -58t113 42t34 138v63l-2 187v368q0 63 -11 87t-42 24l-31 -2q-8 -2 -16 -2l-6 8l22 182q147 -6 206 -6h123q65 0 212 6l-16 -184q-87 -26 -95 -60q-3 -12 -4 -30v-578
q0 -504 -546 -504q-264 1 -384 103t-120 330v626q0 68 -11 90t-47 21l-36 -2q-10 -2 -23 -2l-4 8l20 182q177 -6 239 -6zM412 1792q286 -124 510 -205l-43 -145l-39 -27q-96 23 -190 43t-173 38q-80 18 -158 32l-14 33l74 221z" />
    <glyph glyph-name="Uacute" unicode="&#xda;" horiz-adv-x="1284" 
d="M259 1325h107q94 0 166 3t125 5l-20 -190q-53 -4 -75 -29t-23 -72l-13 -591q0 -99 40 -157t118 -58t113 42t34 138v63l-2 187v368q0 63 -11 87t-42 24l-31 -2q-8 -2 -16 -2l-6 8l22 182q147 -6 206 -6h123q65 0 212 6l-16 -184q-87 -26 -95 -60q-3 -12 -4 -30v-578
q0 -504 -546 -504q-264 1 -384 103t-120 330v626q0 68 -11 90t-47 21l-36 -2q-10 -2 -23 -2l-4 8l20 182q177 -6 239 -6zM451 1587q266 99 510 205l32 -10l74 -221l-14 -33q-170 -30 -521 -113l-38 27z" />
    <glyph glyph-name="Ucircumflex" unicode="&#xdb;" horiz-adv-x="1284" 
d="M259 1325h107q94 0 166 3t125 5l-20 -190q-53 -4 -75 -29t-23 -72l-13 -591q0 -99 40 -157t118 -58t113 42t34 138v63l-2 187v368q0 63 -11 87t-42 24l-31 -2q-8 -2 -16 -2l-6 8l22 182q147 -6 206 -6h123q65 0 212 6l-16 -184q-87 -26 -95 -60q-3 -12 -4 -30v-578
q0 -504 -546 -504q-264 1 -384 103t-120 330v626q0 68 -11 90t-47 21l-36 -2q-10 -2 -23 -2l-4 8l20 182q177 -6 239 -6zM713 1860q0 6 93 -71t267 -212l-72 -127l-47 -14q-164 68 -270 104q-31 -11 -268 -104l-47 14l-74 127q159 113 362 283h56z" />
    <glyph glyph-name="Udieresis" unicode="&#xdc;" horiz-adv-x="1284" 
d="M259 1325h107q94 0 166 3t125 5l-20 -190q-53 -4 -75 -29t-23 -72l-13 -591q0 -99 40 -157t118 -58t113 42t34 138v63l-2 187v368q0 63 -11 87t-42 24l-31 -2q-8 -2 -16 -2l-6 8l22 182q147 -6 206 -6h123q65 0 212 6l-16 -184q-87 -26 -95 -60q-3 -12 -4 -30v-578
q0 -504 -546 -504q-264 1 -384 103t-120 330v626q0 68 -11 90t-47 21l-36 -2q-10 -2 -23 -2l-4 8l20 182q177 -6 239 -6zM477 1403q-162 0 -162 164q0 82 47 130q48 48 128 48t122 -43t41 -123q0 -80 -47 -128t-129 -48zM872 1403q-164 0 -163 164q0 82 47 130t127 48
t122 -43t42 -123q1 -80 -47 -128t-128 -48z" />
    <glyph glyph-name="Yacute" unicode="&#xdd;" horiz-adv-x="1357" 
d="M20 1327q140 -4 231 -4h109q59 0 336 14l15 -22l-19 -168q-84 0 -84 -51q0 -39 115 -303h29l84 233q45 99 9 116q-17 7 -61 7l-6 12l17 162h323q84 0 232 8l8 -16l-17 -178q-132 -74 -227 -258l-186 -373q-23 -53 -27 -95t-4 -105q0 -64 22 -92t80 -28h37q33 0 68 7
l10 -13l-18 -192l-424 12q-52 0 -412 -18l16 188q130 8 170 38q41 30 41 124v33q0 82 -57 184l-219 407q-61 113 -203 172l-8 13zM516 1587q266 99 510 205l33 -10l74 -221l-15 -33q-179 -31 -520 -113l-39 27z" />
    <glyph glyph-name="Thorn" unicode="&#xde;" horiz-adv-x="1239" 
d="M817 678q0 82 -44 119t-142 37q-41 -1 -41 -46l-4 -264q82 -20 131 -20q100 27 100 174zM743 1069q256 0 376 -95t120 -283t-141.5 -297t-368.5 -109h-145v-47q0 -37 12 -48.5t44 -11.5h32q33 0 63 6l17 -20l-19 -172q-312 8 -352 8t-350 -10l16 174q78 15 100.5 41
t27.5 55t5 72v708q0 63 -14 84t-57 21l-35 -2h-19l-18 28l16 154h330q165 0 352 10l-14 -184q-81 -18 -94 -26.5t-15.5 -15.5t-9.5 -40h141z" />
    <glyph glyph-name="germandbls" unicode="&#xdf;" horiz-adv-x="1417" 
d="M334 0q-17 0 -70 -2t-105.5 -5t-90.5 -5t-39 -4l18 178q61 6 86 30.5t25 81.5v394q-4 45 -30 61t-108 21l-8 12l17 143l129 19q0 276 148.5 436t414.5 160q219 0 341 -87t122 -245q0 -66 -31 -115t-67.5 -91t-67.5 -81t-31 -82t32 -69.5t80 -52t183 -92t135 -267.5
q0 -160 -128 -261.5t-328 -101.5q-106 0 -197 38t-115 96q6 95 44 175.5t57 104.5l55 -4q8 -72 50 -120t99 -48q84 0 84 78q0 39 -30.5 64.5t-75.5 49t-174 82.5t-129 242q0 68 30.5 117t67.5 92t67.5 84t30.5 98t-42 97.5t-98 40.5q-103 0 -136 -51t-33 -201l-4 -746
q0 -76 55 -76q42 0 54 5l10 -11l-25 -192q-255 10 -272 10z" />
    <glyph glyph-name="agrave" unicode="&#xe0;" horiz-adv-x="1011" 
d="M367 344q-1 -34 21 -66t58 -32t103 12l2 176l-148 -33q-23 -4 -29 -13t-7 -44zM330 -16q-70 0 -124 26q-112 54 -160 185q-24 63 -24 134t36 120t96 61l401 74v2q0 70 -45 108t-129 39q-84 0 -229 -88l-25 12l-51 164q330 172 437 171q105 0 183 -26q212 -70 213 -272
q-1 -50 -23 -196t-22 -172t16 -44q32 -37 113 -3l35 -56q-132 -225 -221 -248q-102 0 -162 39q-59 39 -70 111l-24 10q-151 -151 -221 -151zM369 1561q219 -203 383 -342l-84 -125l-45 -15q-80 47 -157 89q-78 42 -144 79t-132 72l-4 35l148 207h35z" />
    <glyph glyph-name="aacute" unicode="&#xe1;" horiz-adv-x="1011" 
d="M367 344q-1 -34 21 -66t58 -32t103 12l2 176l-148 -33q-23 -4 -29 -13t-7 -44zM330 -16q-70 0 -124 26q-112 54 -160 185q-24 63 -24 134t36 120t96 61l401 74v2q0 70 -45 108t-129 39q-84 0 -229 -88l-25 12l-51 164q330 172 437 171q105 0 183 -26q212 -70 213 -272
q-1 -50 -23 -196t-22 -172t16 -44q32 -37 113 -3l35 -56q-132 -225 -221 -248q-102 0 -162 39q-59 39 -70 111l-24 10q-151 -151 -221 -151zM283 1219q168 142 383 342h34l148 -207l-4 -35q-66 -35 -132 -72t-144 -79t-156 -89l-45 15z" />
    <glyph glyph-name="acircumflex" unicode="&#xe2;" horiz-adv-x="1011" 
d="M367 344q-1 -34 21 -66t58 -32t103 12l2 176l-148 -33q-23 -4 -29 -13t-7 -44zM330 -16q-70 0 -124 26q-112 54 -160 185q-24 63 -24 134t36 120t96 61l401 74v2q0 70 -45 108t-129 39q-84 0 -229 -88l-25 12l-51 164q330 172 437 171q105 0 183 -26q212 -70 213 -272
q-1 -50 -23 -196t-22 -172t16 -44q32 -37 113 -3l35 -56q-132 -225 -221 -248q-102 0 -162 39q-59 39 -70 111l-24 10q-151 -151 -221 -151zM492 1239q-121 -68 -228 -141l-47 14l-94 127q216 194 342 320h55q140 -140 340 -320l-92 -127l-47 -14q-104 72 -229 141z" />
    <glyph glyph-name="atilde" unicode="&#xe3;" horiz-adv-x="1011" 
d="M367 344q-1 -34 21 -66t58 -32t103 12l2 176l-148 -33q-23 -4 -29 -13t-7 -44zM330 -16q-70 0 -124 26q-112 54 -160 185q-24 63 -24 134t36 120t96 61l401 74v2q0 70 -45 108t-129 39q-84 0 -229 -88l-25 12l-51 164q330 172 437 171q105 0 183 -26q212 -70 213 -272
q-1 -50 -23 -196t-22 -172t16 -44q32 -37 113 -3l35 -56q-132 -225 -221 -248q-102 0 -162 39q-59 39 -70 111l-24 10q-151 -151 -221 -151zM367 1198q-48 0 -138 -119h-32l-121 111v33l166 235l34 8q48 0 170 -34q123 -34 149 -35q26 0 67 42t67 77h33l121 -111v-33
l-166 -235l-35 -9q-27 0 -71 12t-91 23t-89 23t-64 12z" />
    <glyph glyph-name="adieresis" unicode="&#xe4;" horiz-adv-x="1011" 
d="M367 344q-1 -34 21 -66t58 -32t103 12l2 176l-148 -33q-23 -4 -29 -13t-7 -44zM330 -16q-70 0 -124 26q-112 54 -160 185q-24 63 -24 134t36 120t96 61l401 74v2q0 70 -45 108t-129 39q-84 0 -229 -88l-25 12l-51 164q330 172 437 171q105 0 183 -26q212 -70 213 -272
q-1 -50 -23 -196t-22 -172t16 -44q32 -37 113 -3l35 -56q-132 -225 -221 -248q-102 0 -162 39q-59 39 -70 111l-24 10q-151 -151 -221 -151zM283 1149q-162 0 -162 164q0 82 47 130t127 48t122 -43t42 -123t-47 -128t-129 -48zM678 1149q-164 0 -164 164q0 82 47 130t127 48
t122 -43t42 -123t-47 -128t-127 -48z" />
    <glyph glyph-name="aring" unicode="&#xe5;" horiz-adv-x="1011" 
d="M367 344q-1 -34 21 -66t58 -32t103 12l2 176l-148 -33q-23 -4 -29 -13t-7 -44zM330 -16q-70 0 -124 26q-112 54 -160 185q-24 63 -24 134t36 120t96 61l401 74v2q0 70 -45 108t-129 39q-84 0 -229 -88l-25 12l-51 164q330 172 437 171q105 0 183 -26q212 -70 213 -272
q-1 -50 -23 -196t-22 -172t16 -44q32 -37 113 -3l35 -56q-132 -225 -221 -248q-102 0 -162 39q-59 39 -70 111l-24 10q-151 -151 -221 -151zM483 1114q-100 0 -153 58q-54 58 -54 152t60 158q60 62 167 62q106 0 156 -56t51 -123q3 -170 -129 -231q-43 -20 -98 -20z
M494 1397q-76 0 -76 -73q0 -36 28 -52t50 -15q22 -1 48 13t25 55q1 72 -75 72z" />
    <glyph glyph-name="ae" unicode="&#xe6;" horiz-adv-x="1411" 
d="M950 758q-98 0 -102 -109v-59l156 24q31 2 30 25q0 55 -21.5 87t-62.5 32zM356 335q0 -38 21 -63.5t69 -25.5t103 22q-25 70 -29 152l-112 -17q-29 -4 -40.5 -17t-11.5 -51zM924.5 287.5q48.5 -43.5 136.5 -43.5q149 0 258 59l18 -10l45 -152q-121 -93 -216 -129.5
t-154 -36.5q-287 0 -410 183q-195 -174 -289 -174q-124 0 -212.5 97.5t-88.5 240.5q0 78 43 133t115 65l350 47v19q0 70 -45 108.5t-127 38.5t-231 -88l-25 12l-51 164q326 170 426 170q139 0 254 -98q113 98 292 98t272 -105.5t93 -295.5l-2 -60q-2 -12 -2 -22l-24 -21
l-490 -45q16 -111 64.5 -154.5z" />
    <glyph glyph-name="ccedilla" unicode="&#xe7;" horiz-adv-x="901" 
d="M555 -78q221 -107 221 -219q0 -81 -87.5 -140t-206.5 -59t-154 41t-35 66q0 43 100 143h19q2 -57 29.5 -85.5t70.5 -28.5q66 0 66 45t-74 83.5t-105 53.5l39 158q-197 18 -303 146t-106 357t144 368.5t384 139.5q176 0 283 -45l10 -22q-38 -191 -47 -357l-189 -10v74
q0 66 -18 92.5t-64 26.5q-117 0 -116 -191q0 -158 40 -230.5t140 -72.5t186 53l21 -10l45 -154q-164 -133 -281 -161z" />
    <glyph glyph-name="egrave" unicode="&#xe8;" horiz-adv-x="980" 
d="M640 244q112 0 220 59l19 -10l45 -152q-118 -91 -257 -140q-71 -26 -137 -26q-242 0 -372 128q-130 129 -129 367q0 238 142 380q143 141 380 141q389 0 389 -409q0 -56 -6 -86l-10 -50l-23 -20h-485v-4q14 -98 63 -138t161 -40zM600 631q0 133 -82 133q-61 0 -87 -42
t-25 -140l169 12q16 2 21 8q4 6 4 29zM410 1556q184 -171 383 -342l-84 -124l-45 -15q-80 47 -157 89t-143 79t-133 72l-4 35l148 206h35z" />
    <glyph glyph-name="eacute" unicode="&#xe9;" horiz-adv-x="980" 
d="M640 244q112 0 220 59l19 -10l45 -152q-118 -91 -257 -140q-71 -26 -137 -26q-242 0 -372 128q-130 129 -129 367q0 238 142 380q143 141 380 141q389 0 389 -409q0 -56 -6 -86l-10 -50l-23 -20h-485v-4q14 -98 63 -138t161 -40zM600 631q0 133 -82 133q-61 0 -87 -42
t-25 -140l169 12q16 2 21 8q4 6 4 29zM324 1214q107 91 383 342h34l148 -206l-4 -35q-66 -35 -132 -72q-67 -37 -145 -79t-155 -89l-45 15z" />
    <glyph glyph-name="ecircumflex" unicode="&#xea;" horiz-adv-x="980" 
d="M640 244q112 0 220 59l19 -10l45 -152q-118 -91 -257 -140q-71 -26 -137 -26q-242 0 -372 128q-130 129 -129 367q0 238 142 380q143 141 380 141q389 0 389 -409q0 -56 -6 -86l-10 -50l-23 -20h-485v-4q14 -98 63 -138t161 -40zM600 631q0 133 -82 133q-61 0 -87 -42
t-25 -140l169 12q16 2 21 8q4 6 4 29zM532 1237q-115 -65 -227 -141l-47 14l-94 127q200 180 342 319h55q130 -130 340 -319l-92 -127l-47 -14q-111 77 -230 141z" />
    <glyph glyph-name="edieresis" unicode="&#xeb;" horiz-adv-x="980" 
d="M640 244q112 0 220 59l19 -10l45 -152q-118 -91 -257 -140q-71 -26 -137 -26q-242 0 -372 128q-130 129 -129 367q0 238 142 380q143 141 380 141q389 0 389 -409q0 -56 -6 -86l-10 -50l-23 -20h-485v-4q14 -98 63 -138t161 -40zM600 631q0 133 -82 133q-61 0 -87 -42
t-25 -140l169 12q16 2 21 8q4 6 4 29zM324 1145q-162 0 -162 164q0 82 47 130t127 48t122 -43t42 -123t-47 -128t-129 -48zM719 1145q-164 0 -164 164q0 82 47 130t127 48t122 -43t42 -123t-47 -128t-127 -48z" />
    <glyph glyph-name="igrave" unicode="&#xec;" horiz-adv-x="624" 
d="M508 233q0 -61 40 -61h25q17 0 33 4l6 -10l-24 -174q-204 8 -281 8t-160 -8t-133 -12l25 182q117 8 117 121v350q0 71 -20 95t-79 24l-45 -7l17 170q206 22 501 76l27 -45q-49 -92 -49 -713zM215 1556q140 -130 383 -342l-84 -124l-45 -15q-80 47 -157 89q-78 42 -144 79
t-131 72l-4 35l147 206h35z" />
    <glyph glyph-name="iacute" unicode="&#xed;" horiz-adv-x="624" 
d="M508 233q0 -61 40 -61h25q17 0 33 4l6 -10l-24 -174q-204 8 -281 8t-160 -8t-133 -12l25 182q117 8 117 121v350q0 71 -20 95t-79 24l-45 -7l17 170q206 22 501 76l27 -45q-49 -92 -49 -713zM129 1214q107 91 383 342h35l147 -206l-4 -35q-66 -35 -132 -72t-144 -79
t-156 -89l-45 15z" />
    <glyph glyph-name="icircumflex" unicode="&#xee;" horiz-adv-x="624" 
d="M508 233q0 -61 40 -61h25q17 0 33 4l6 -10l-24 -174q-204 8 -281 8t-160 -8t-133 -12l25 182q117 8 117 121v350q0 71 -20 95t-79 24l-45 -7l17 170q206 22 501 76l27 -45q-49 -92 -49 -713zM338 1237q-125 -70 -227 -141l-48 14l-94 127q226 203 342 319h56
q130 -130 340 -319l-93 -127l-47 -14q-104 72 -229 141z" />
    <glyph glyph-name="idieresis" unicode="&#xef;" horiz-adv-x="624" 
d="M508 233q0 -61 40 -61h25q17 0 33 4l6 -10l-24 -174q-204 8 -281 8t-160 -8t-133 -12l25 182q117 8 117 121v350q0 71 -20 95t-79 24l-45 -7l17 170q206 22 501 76l27 -45q-49 -92 -49 -713zM129 1145q-162 0 -162 164q0 82 47 130t127 48t122 -43t42 -123t-47 -128
t-129 -48zM524 1145q-164 0 -164 164q0 82 48 130t127 48t121 -43t42 -123t-47 -128t-127 -48z" />
    <glyph glyph-name="eth" unicode="&#xf0;" horiz-adv-x="1040" 
d="M616 432q0 140 -24 262q-29 21 -68 21t-58.5 -8.5t-30.5 -34t-14 -73.5t-3 -170t25.5 -178t81.5 -56q57 0 74 48.5t17 188.5zM1014 528q0 -260 -135.5 -406.5t-370.5 -146.5t-358 120t-123 348t106 377t268 149l82 -45l9 18q-45 68 -117 137l-256 -131l-21 4l-63 193
l162 84q-43 33 -158 108l104 166l33 17q158 -68 293 -152l295 152l18 -9l64 -190l-187 -94q355 -314 355 -699z" />
    <glyph glyph-name="ntilde" unicode="&#xf1;" horiz-adv-x="1185" 
d="M506 244q0 -40 10 -54t39 -14h18q6 0 15 2l6 -10l-25 -176q-187 8 -251 8t-154 -4l-135 -6l24 178q59 4 82 26t23 80v355q0 71 -20 95t-79 24h-32l-11 14l17 153q275 37 483 76l25 -24q-4 -25 -12 -61t-13 -89l14 -8l63 63q115 119 159 119q166 1 253 -67t87 -199
q0 -35 -22 -237t-23 -244q0 -42 12 -58t43 -16h33q8 0 18 2l4 -8l-22 -172q-212 8 -267 8l-250 -6l17 178q37 4 53 26t19 68l4 289q4 141 -74 139q-57 -1 -107 -43q-4 -59 -8 -126t-10 -154t-6 -127zM516 1194q-50 0 -137 -119h-33l-121 111v33l166 235l35 8q35 0 163 -34
q127 -34 152 -35q44 0 138 118h32l121 -110v-33l-166 -235l-35 -9q-27 0 -71 12t-90 23q-47 11 -89 23t-65 12z" />
    <glyph glyph-name="ograve" unicode="&#xf2;" horiz-adv-x="1042" 
d="M535 195q42 0 63 41q20 41 20 149t-5 177q-10 136 -50 167q-20 16 -62 16t-63 -40q-20 -41 -20 -147t5 -177q5 -70 17 -111t32 -58t63 -17zM1014 500q0 -244 -135 -384t-367 -141q-232 0 -357 129q-126 129 -126 369t136 379q137 139 373 139t356 -124q120 -123 120 -367
zM426 1556q140 -130 383 -342l-84 -124l-45 -15q-80 47 -157 89t-143 79t-132 72l-4 35l147 206h35z" />
    <glyph glyph-name="oacute" unicode="&#xf3;" horiz-adv-x="1042" 
d="M535 195q42 0 63 41q20 41 20 149t-5 177q-10 136 -50 167q-20 16 -62 16t-63 -40q-20 -41 -20 -147t5 -177q5 -70 17 -111t32 -58t63 -17zM1014 500q0 -244 -135 -384t-367 -141q-232 0 -357 129q-126 129 -126 369t136 379q137 139 373 139t356 -124q120 -123 120 -367
zM340 1214q107 91 383 342h35l147 -206l-4 -35q-66 -35 -132 -72t-144 -79t-156 -89l-45 15z" />
    <glyph glyph-name="ocircumflex" unicode="&#xf4;" horiz-adv-x="1042" 
d="M535 195q42 0 63 41q20 41 20 149t-5 177q-10 136 -50 167q-20 16 -62 16t-63 -40q-20 -41 -20 -147t5 -177q5 -70 17 -111t32 -58t63 -17zM1014 500q0 -244 -135 -384t-367 -141q-232 0 -357 129q-126 129 -126 369t136 379q137 139 373 139t356 -124q120 -123 120 -367
zM549 1237q-125 -70 -227 -141l-48 14l-94 127q226 203 342 319h56q130 -130 340 -319l-93 -127l-47 -14q-104 72 -229 141z" />
    <glyph glyph-name="otilde" unicode="&#xf5;" horiz-adv-x="1042" 
d="M535 195q42 0 63 41q20 41 20 149t-5 177q-10 136 -50 167q-20 16 -62 16t-63 -40q-20 -41 -20 -147t5 -177q5 -70 17 -111t32 -58t63 -17zM1014 500q0 -244 -135 -384t-367 -141q-232 0 -357 129q-126 129 -126 369t136 379q137 139 373 139t356 -124q120 -123 120 -367
zM424 1194q-50 0 -137 -119h-33l-121 111v33l166 235l35 8q33 0 162 -34t150 -35q50 0 140 118h33l121 -110v-33l-166 -235l-35 -9q-27 0 -71 12t-90 23q-48 11 -90 23t-64 12z" />
    <glyph glyph-name="odieresis" unicode="&#xf6;" horiz-adv-x="1042" 
d="M535 195q42 0 63 41q20 41 20 149t-5 177q-10 136 -50 167q-20 16 -62 16t-63 -40q-20 -41 -20 -147t5 -177q5 -70 17 -111t32 -58t63 -17zM1014 500q0 -244 -135 -384t-367 -141q-232 0 -357 129q-126 129 -126 369t136 379q137 139 373 139t356 -124q120 -123 120 -367
zM340 1145q-162 0 -162 164q0 82 47 130t127 48t122 -43t42 -123t-47 -128t-129 -48zM735 1145q-164 0 -164 164q0 82 47 130q48 48 128 48t122 -43t41 -123q0 -80 -47 -128t-127 -48z" />
    <glyph glyph-name="divide" unicode="&#xf7;" horiz-adv-x="1036" 
d="M514 1055q166 0 166 -170q0 -82 -47 -131t-129 -49t-124 43.5t-42 125.5t47 131.5t129 49.5zM504 -35q-166 0 -166 170q0 82 47 131t129 49t124 -43.5t42 -125.5t-47 -131.5t-129 -49.5zM233 662h304q200 0 452 12l15 -31l-27 -278l-766 -5h-162l-18 27l37 277
q84 -2 165 -2z" />
    <glyph glyph-name="oslash" unicode="&#xf8;" horiz-adv-x="1042" 
d="M535 195q42 0 62.5 40.5t20.5 148.5q0 212 -21.5 286.5t-79.5 74.5t-78.5 -40.5t-20.5 -146.5t5 -176.5t17.5 -111.5t32.5 -58t62 -17zM545 991q92 0 166 -20l176 272l198 -110l5 -27l-175 -266q99 -124 99 -354t-135.5 -370.5t-378.5 -140.5q-88 0 -156 21l-184 -279
l-195 113l-8 20l184 271q-113 125 -113 359t136.5 372.5t380.5 138.5z" />
    <glyph glyph-name="ugrave" unicode="&#xf9;" horiz-adv-x="1132" 
d="M453 401q0 -127 88 -127q35 0 94 33v355q0 56 -11 69t-63 19h-18l26 168q300 38 457 65l29 -45q-44 -78 -63 -398q-5 -99 -5 -206q1 -33 17 -52q31 -36 110 -3l35 -54q-132 -204 -252 -250q-213 0 -240 150l-22 12q-124 -157 -166 -157q-373 0 -373 278l19 408
q-1 49 -13 67t-47 19l-37 -2h-16l16 170q265 32 465 71l27 -45q-57 -119 -57 -545zM442 1556q140 -130 383 -342l-84 -124l-45 -15q-80 47 -156 89t-144 79q-67 37 -132 72l-4 35l148 206h34z" />
    <glyph glyph-name="uacute" unicode="&#xfa;" horiz-adv-x="1132" 
d="M453 401q0 -127 88 -127q35 0 94 33v355q0 56 -11 69t-63 19h-18l26 168q300 38 457 65l29 -45q-44 -78 -63 -398q-5 -99 -5 -206q1 -33 17 -52q31 -36 110 -3l35 -54q-132 -204 -252 -250q-213 0 -240 150l-22 12q-124 -157 -166 -157q-373 0 -373 278l19 408
q-1 49 -13 67t-47 19l-37 -2h-16l16 170q265 32 465 71l27 -45q-57 -119 -57 -545zM356 1214q164 139 383 342h35l148 -206l-4 -35q-66 -35 -132 -72t-145 -79q-78 -42 -156 -89l-45 15z" />
    <glyph glyph-name="ucircumflex" unicode="&#xfb;" horiz-adv-x="1132" 
d="M453 401q0 -127 88 -127q35 0 94 33v355q0 56 -11 69t-63 19h-18l26 168q300 38 457 65l29 -45q-44 -78 -63 -398q-5 -99 -5 -206q1 -33 17 -52q31 -36 110 -3l35 -54q-132 -204 -252 -250q-213 0 -240 150l-22 12q-124 -157 -166 -157q-373 0 -373 278l19 408
q-1 49 -13 67t-47 19l-37 -2h-16l16 170q265 32 465 71l27 -45q-57 -119 -57 -545zM565 1237q-115 -65 -227 -141l-47 14l-94 127q200 180 342 319h55q130 -130 340 -319l-92 -127l-47 -14q-111 77 -230 141z" />
    <glyph glyph-name="udieresis" unicode="&#xfc;" horiz-adv-x="1132" 
d="M453 401q0 -127 88 -127q35 0 94 33v355q0 56 -11 69t-63 19h-18l26 168q300 38 457 65l29 -45q-44 -78 -63 -398q-5 -99 -5 -206q1 -33 17 -52q31 -36 110 -3l35 -54q-132 -204 -252 -250q-213 0 -240 150l-22 12q-124 -157 -166 -157q-373 0 -373 278l19 408
q-1 49 -13 67t-47 19l-37 -2h-16l16 170q265 32 465 71l27 -45q-57 -119 -57 -545zM356 1145q-162 0 -161 164q0 82 47 130t127 48q79 0 121 -43t42 -123t-47 -128t-129 -48zM752 1145q-164 0 -164 164q0 82 47 130t127 48t122 -43t42 -123t-47 -128t-127 -48z" />
    <glyph glyph-name="yacute" unicode="&#xfd;" horiz-adv-x="995" 
d="M612 971q82 -4 156 -4h279l-19 -181q-43 -12 -60 -26t-32 -53l-260 -644q-96 -254 -243 -407q-146 -152 -286 -152q-45 0 -137 87q-37 36 -63 74q-27 38 -27 61l21 38q297 47 428 199q-31 76 -120 310t-179 434q-25 43 -47 58q-23 15 -58 19l-4 11l16 172h148
q157 0 271 6t114 8l4 -10l-22 -180q-48 -5 -62 -15t-14 -33q0 -63 94 -383h37q127 348 127 394q0 20 -7 25t-36 5h-33l-8 15zM348 1214q107 91 383 342h35l147 -206l-4 -35q-66 -35 -132 -72t-144 -79t-156 -89l-45 15z" />
    <glyph glyph-name="thorn" unicode="&#xfe;" horiz-adv-x="1056" 
d="M655 430q0 293 -120 293q-61 0 -80 -21v-466q44 -19 94 -19q106 0 106 213zM463 860q174 121 194 121q184 0 283.5 -122t99.5 -355t-140.5 -375.5t-383.5 -142.5h-45q-10 0 -18 2q0 -37 -3.5 -86t2.5 -123t46 -74h35q35 0 83 6l7 -10l-29 -180q-272 8 -328 8
q-57 0 -151 -4t-144 -6l25 178q53 4 71.5 23.5t22.5 82.5l12 310v1044q0 74 -19.5 97.5t-78.5 23.5h-51l-10 14l16 154q92 10 188.5 24.5t183.5 25.5t177 24l18 -54q-47 -45 -63 -606z" />
    <glyph glyph-name="ydieresis" unicode="&#xff;" horiz-adv-x="995" 
d="M612 971q82 -4 156 -4h279l-19 -181q-43 -12 -60 -26t-32 -53l-260 -644q-96 -254 -243 -407q-146 -152 -286 -152q-45 0 -137 87q-37 36 -63 74q-27 38 -27 61l21 38q297 47 428 199q-31 76 -120 310t-179 434q-25 43 -47 58q-23 15 -58 19l-4 11l16 172h148
q157 0 271 6t114 8l4 -10l-22 -180q-48 -5 -62 -15t-14 -33q0 -63 94 -383h37q127 348 127 394q0 20 -7 25t-36 5h-33l-8 15zM348 1145q-162 0 -162 164q0 82 47 130t127 48t122 -43t42 -123t-47 -128t-129 -48zM743 1145q-164 0 -163 164q0 82 47 130t127 48t122 -43
t42 -123t-48 -128t-127 -48z" />
    <glyph glyph-name="Amacron" unicode="&#x100;" horiz-adv-x="1384" 
d="M657 616q60 0 107 5l-70 358h-45l-96 -363h104zM694 178q99 13 115 21q16 9 16 35q0 25 -4 51l-12 80q-82 4 -157 4t-165 -11l-20 -90q-6 -36 -6 -54t11 -25t52 -7h54l16 -20l-16 -170l-316 6l-184 -2h-88l14 178q74 18 105 113l325 1028l539 33l31 -25
q108 -438 140 -559t61 -242t51 -200q22 -78 50 -110t74 -36l15 -20l-17 -162q-51 0 -102 2l-186 2q-107 0 -392 -10l-16 18zM545 1673h203q141 0 253 13l23 -37l-37 -224l-287 -2l-182 -2h-92l-33 31l39 223q57 -2 113 -2z" />
    <glyph glyph-name="amacron" unicode="&#x101;" horiz-adv-x="1011" 
d="M367 344q-1 -34 21 -66t58 -32t103 12l2 176l-148 -33q-23 -4 -29 -13t-7 -44zM330 -16q-70 0 -124 26q-112 54 -160 185q-24 63 -24 134t36 120t96 61l401 74v2q0 70 -45 108t-129 39q-84 0 -229 -88l-25 12l-51 164q330 172 437 171q105 0 183 -26q212 -70 213 -272
q-1 -50 -23 -196t-22 -172t16 -44q32 -37 113 -3l35 -56q-132 -225 -221 -248q-102 0 -162 39q-59 39 -70 111l-24 10q-151 -151 -221 -151zM328 1411h202q125 0 254 12l23 -37l-37 -223l-287 -2l-182 -2h-92l-33 31l39 223q57 -2 113 -2z" />
    <glyph glyph-name="Abreve" unicode="&#x102;" horiz-adv-x="1384" 
d="M657 616q60 0 107 5l-70 358h-45l-96 -363h104zM694 178q99 13 115 21q16 9 16 35q0 25 -4 51l-12 80q-82 4 -157 4t-165 -11l-20 -90q-6 -36 -6 -54t11 -25t52 -7h54l16 -20l-16 -170l-316 6l-184 -2h-88l14 178q74 18 105 113l325 1028l539 33l31 -25
q108 -438 140 -559t61 -242t51 -200q22 -78 50 -110t74 -36l15 -20l-17 -162q-51 0 -102 2l-186 2q-107 0 -392 -10l-16 18zM698 1659q166 0 228 143l55 -14l82 -127q-34 -112 -125 -195q-91 -84 -240 -84q-212 0 -318 177q-30 49 -46 102l82 127l55 14q62 -143 227 -143z
" />
    <glyph glyph-name="abreve" unicode="&#x103;" horiz-adv-x="1011" 
d="M367 344q-1 -34 21 -66t58 -32t103 12l2 176l-148 -33q-23 -4 -29 -13t-7 -44zM330 -16q-70 0 -124 26q-112 54 -160 185q-24 63 -24 134t36 120t96 61l401 74v2q0 70 -45 108t-129 39q-84 0 -229 -88l-25 12l-51 164q330 172 437 171q105 0 183 -26q212 -70 213 -272
q-1 -50 -23 -196t-22 -172t16 -44q32 -37 113 -3l35 -56q-132 -225 -221 -248q-102 0 -162 39q-59 39 -70 111l-24 10q-151 -151 -221 -151zM256 1520q62 -144 228 -144t227 144l55 -15l82 -127q-34 -113 -126 -196t-239 -82q-210 0 -318 176q-30 49 -46 102l82 127z" />
    <glyph glyph-name="Aogonek" unicode="&#x104;" horiz-adv-x="1384" 
d="M657 616q59 0 107 5l-70 358h-45l-96 -363h104zM1196 -322q76 0 143 52l52 -80q-98 -98 -213 -146q-123 0 -194 48.5t-71 134.5q0 121 179 311h-2q-107 0 -392 -10l-16 18l12 172q95 12 113 21t18 35t-4 51l-12 80q-82 4 -146 4t-176 -11l-20 -90q-6 -36 -6 -54t11 -25
t52 -7h54l16 -20l-16 -170l-79 2l-421 2h-88l14 178q74 18 105 113l325 1028l539 33l31 -25q108 -438 140 -559t64.5 -255.5t50.5 -200.5q19 -65 46.5 -96.5t74.5 -35.5l15 -20l-17 -162q-16 2 -36 2h-35q-35 0 -62 2q-125 -166 -125 -236q0 -39 22.5 -61.5t53.5 -22.5z" />
    <glyph glyph-name="aogonek" unicode="&#x105;" horiz-adv-x="1011" 
d="M367 342q0 -37 22.5 -66.5t68.5 -29.5q45 0 91 12l2 176l-148 -33q-23 -4 -29.5 -13t-6.5 -46zM748 -238q0 -81 99 -81q54 0 120 51l51 -80q-100 -100 -213 -146q-123 0 -193.5 48.5t-70.5 124.5t36.5 143t129.5 166q-119 31 -132 137l-24 10q-151 -151 -221 -151
q-132 0 -219.5 100.5t-87.5 247.5q0 66 36.5 116t94.5 62l401 74v2q0 70 -45 108.5t-129 38.5t-229 -88l-25 12l-51 164q219 119 368 160q37 10 58 10q311 0 387 -188q20 -49 20 -91t-7 -93.5t-15 -108.5t-15.5 -107.5t-7.5 -76.5t16.5 -45t44.5 -19t68 17l39 -64
q-147 -193 -215.5 -299t-68.5 -154z" />
    <glyph glyph-name="Cacute" unicode="&#x106;" horiz-adv-x="1234" 
d="M650 -23q-158 -1 -270 45q-228 93 -308 336q-41 123 -41 279q0 346 184 529t535 184q164 0 430 -54l16 -41q-48 -228 -57 -438l-316 -18q0 16 2 35l2 81q0 84 -31 118q-32 34 -98 34t-102 -17q-71 -33 -89 -170q-9 -69 -9 -169q0 -229 47 -337t151 -108q78 0 115 53
t47 185l313 20q-24 -288 -24 -436l-27 -33q-224 -78 -470 -78zM457 1587q266 99 510 205l32 -10l74 -221l-14 -33q-179 -31 -520 -113l-39 27z" />
    <glyph glyph-name="cacute" unicode="&#x107;" horiz-adv-x="901" 
d="M456 328q40 -72 140 -72t186 53l21 -10l45 -154q-105 -94 -226 -144q-60 -26 -116 -26q-227 0 -352 130t-125 367t144 378t384 141q176 0 283 -45l10 -22q-37 -190 -47 -357l-189 -10v74q0 67 -18 93t-64 26q-117 0 -116 -191q0 -159 40 -231zM334 1214q107 91 383 342
h35l147 -206l-4 -35q-66 -35 -132 -72q-67 -37 -145 -79t-155 -89l-45 15z" />
    <glyph glyph-name="Ccircumflex" unicode="&#x108;" horiz-adv-x="1234" 
d="M650 -23q-158 -1 -270 45q-228 93 -308 336q-41 123 -41 279q0 346 184 529t535 184q164 0 430 -54l16 -41q-48 -228 -57 -438l-316 -18q0 16 2 35l2 81q0 84 -31 118q-32 34 -98 34t-102 -17q-71 -33 -89 -170q-9 -69 -9 -169q0 -229 47 -337t151 -108q78 0 115 53
t47 185l313 20q-24 -288 -24 -436l-27 -33q-224 -78 -470 -78zM696 1593q-115 -65 -227 -141l-47 14l-94 127q216 194 342 320h55q140 -140 340 -320l-92 -127l-47 -14q-111 77 -230 141z" />
    <glyph glyph-name="ccircumflex" unicode="&#x109;" horiz-adv-x="901" 
d="M456 328q40 -72 140 -72t186 53l21 -10l45 -154q-105 -94 -226 -144q-60 -26 -116 -26q-227 0 -352 130t-125 367t144 378t384 141q176 0 283 -45l10 -22q-37 -190 -47 -357l-189 -10v74q0 67 -18 93t-64 26q-117 0 -116 -191q0 -159 40 -231zM543 1237
q-121 -68 -228 -141l-47 14l-94 127q226 203 342 319h55q92 -92 340 -319l-92 -127l-47 -14q-104 72 -229 141z" />
    <glyph glyph-name="Cdotaccent" unicode="&#x10a;" horiz-adv-x="1234" 
d="M650 -23q-158 -1 -270 45q-228 93 -308 336q-41 123 -41 279q0 346 184 529t535 184q164 0 430 -54l16 -41q-48 -228 -57 -438l-316 -18q0 16 2 35l2 81q0 84 -31 118q-32 34 -98 34t-102 -17q-71 -33 -89 -170q-9 -69 -9 -169q0 -229 47 -337t151 -108q78 0 115 53
t47 185l313 20q-24 -288 -24 -436l-27 -33q-224 -78 -470 -78zM685 1399q-193 0 -193 196q0 95 55 153t150 58t145 -51t49 -146q0 -95 -55 -153q-56 -57 -151 -57z" />
    <glyph glyph-name="cdotaccent" unicode="&#x10b;" horiz-adv-x="901" 
d="M456 328q40 -72 140 -72t186 53l21 -10l45 -154q-105 -94 -226 -144q-60 -26 -116 -26q-227 0 -352 130t-125 367t144 378t384 141q176 0 283 -45l10 -22q-37 -190 -47 -357l-189 -10v74q0 67 -18 93t-64 26q-117 0 -116 -191q0 -159 40 -231zM529 1112q-193 0 -193 196
q0 96 55 154t151 58t144 -52q49 -52 49 -146q0 -95 -55 -153q-56 -57 -151 -57z" />
    <glyph glyph-name="Ccaron" unicode="&#x10c;" horiz-adv-x="1234" 
d="M650 -23q-158 -1 -270 45q-228 93 -308 336q-41 123 -41 279q0 346 184 529t535 184q164 0 430 -54l16 -41q-48 -228 -57 -438l-316 -18q0 16 2 35l2 81q0 84 -31 118q-32 34 -98 34t-102 -17q-71 -33 -89 -170q-9 -69 -9 -169q0 -229 47 -337t151 -108q78 0 115 53
t47 185l313 20q-24 -288 -24 -436l-27 -33q-224 -78 -470 -78zM686 1729q31 11 268 104l47 -14l74 -127q-124 -89 -362 -283h-56q-191 156 -360 283l72 127l47 14q164 -68 270 -104z" />
    <glyph glyph-name="ccaron" unicode="&#x10d;" horiz-adv-x="901" 
d="M456 328q40 -72 140 -72t186 53l21 -10l45 -154q-105 -94 -226 -144q-60 -26 -116 -26q-227 0 -352 130t-125 367t144 378t384 141q176 0 283 -45l10 -22q-37 -190 -47 -357l-189 -10v74q0 67 -18 93t-64 26q-117 0 -116 -191q0 -159 40 -231zM508 1055
q-160 160 -340 319l92 127l47 15q97 -67 230 -142q107 60 227 142l47 -15l94 -127q-148 -129 -342 -319h-55z" />
    <glyph glyph-name="Dcaron" unicode="&#x10e;" horiz-adv-x="1396" 
d="M668 1077q-48 0 -60 -16t-20 -268t-8 -461q0 -60 15 -80t69 -20q118 -1 176 92q57 94 57 333t-54 329q-55 91 -175 91zM323 0q-92 0 -288 -16l16 190q78 12 106 48t27 122v686q0 66 -11 88t-40 23l-45 -2q-10 -2 -20 -2l-21 28l19 166q198 -6 238 -6h73q133 0 340 12
q649 0 649 -616q0 -343 -192 -545q-193 -201 -521 -201q-238 25 -330 25zM711 1729q31 11 268 104l47 -14l74 -127q-95 -68 -363 -283h-55q-191 156 -360 283l71 127l47 14q159 -66 271 -104z" />
    <glyph glyph-name="dcaron" unicode="&#x10f;" horiz-adv-x="1368" 
d="M1104 903q4 163 -19 488l275 28l18 -24q-37 -253 -86 -453l-149 -51zM537 244q44 0 77 20v465q-14 5 -36 13q-22 9 -58 8q-106 0 -106 -213q0 -152 29.5 -222.5t93.5 -70.5zM128.5 107.5q-99.5 121.5 -99.5 355.5t141 376t383 142h25q26 0 36 -2v170q0 74 -19.5 97.5
t-78.5 23.5l-29 -2q-8 -2 -18 -2l18 178q274 29 527 76l24 -45q-50 -72 -60.5 -491t-10.5 -650q0 -72 45 -72q34 0 61 17l35 -56q-57 -104 -121.5 -166.5t-114.5 -81.5q-209 0 -231 150l-12 4q-184 -143 -217 -143q-184 0 -283.5 121.5z" />
    <glyph glyph-name="Dcroat" unicode="&#x110;" horiz-adv-x="1441" 
d="M627 547v-215q0 -59 15.5 -80t69.5 -21q119 0 175.5 93.5t56.5 332.5t-54 329.5t-174 90.5q-48 0 -57.5 -12t-11.5 -43l-14 -277l153 7l17 -21l-15 -184h-161zM231 344v201h-196l-21 16l27 182h190v287q0 66 -11 88.5t-40 22.5l-45 -2q-10 -2 -20 -2l-21 28l19 166
q198 -6 208 -6h103q115 0 340 12q649 0 649 -616q0 -345 -193 -545.5t-520 -200.5q-238 25 -330 25t-288 -16l16 190q78 12 105.5 48t27.5 122z" />
    <glyph glyph-name="dcroat" unicode="&#x111;" horiz-adv-x="1097" 
d="M537 244q44 0 77 20v465q-14 5 -36 13q-22 9 -58 8q-106 0 -106 -213q0 -152 29.5 -222.5t93.5 -70.5zM128.5 107.5q-99.5 121.5 -99.5 355.5t141 376t383 142h25q26 0 36 -2v61h-194l-23 21l17 119l198 -2q-4 55 -23.5 73.5t-72.5 18.5l-29 -2q-8 -2 -18 -2l18 178
q274 29 527 76l24 -45q-26 -37 -47 -291l119 4l31 -31l-11 -113l-149 -2q-14 -250 -14 -708q0 -72 45 -72q34 0 61 17l35 -56q-57 -104 -121.5 -166.5t-114.5 -81.5q-209 0 -231 150l-12 4q-184 -143 -217 -143q-184 0 -283.5 121.5z" />
    <glyph glyph-name="Emacron" unicode="&#x112;" horiz-adv-x="1234" 
d="M582 436v-78q0 -80 16 -101t82 -21q131 0 175 39q26 24 39 66t24 112l262 18l24 -31q-38 -226 -57 -422l-31 -32q-98 2 -252 8t-350 6q-197 0 -310 -8q-112 -8 -177 -12l18 188q78 12 106 50t27 130l2 686q0 66 -10 88t-45 23l-35 -2q-8 -2 -18 -2l-25 28l19 162
q252 -6 329 -6h148q479 0 633 25l26 -33q-34 -180 -47 -408l-283 -18q0 14 2 29l3 47q0 68 -39 90t-122 22t-96 -10t-14 -45l-12 -231l168 -2q84 0 225 12l25 -29l-29 -235l-246 6q-80 0 -153 -13q-2 -53 -2 -96zM514 1673h203q142 0 254 13l22 -37l-37 -224l-286 -2
l-183 -2h-92l-33 31l39 223q57 -2 113 -2z" />
    <glyph glyph-name="emacron" unicode="&#x113;" horiz-adv-x="980" 
d="M640 244q112 0 220 59l19 -10l45 -152q-118 -91 -257 -140q-71 -26 -137 -26q-242 0 -372 128q-130 129 -129 367q0 238 142 380q143 141 380 141q389 0 389 -409q0 -56 -6 -86l-10 -50l-23 -20h-485v-4q14 -98 63 -138t161 -40zM600 631q0 133 -82 133q-61 0 -87 -42
t-25 -140l169 12q16 2 21 8q4 6 4 29zM369 1407h202q125 0 254 12l23 -37l-37 -223l-287 -2l-182 -2h-92l-33 31l39 223q57 -2 113 -2z" />
    <glyph glyph-name="Ebreve" unicode="&#x114;" horiz-adv-x="1234" 
d="M582 436v-78q0 -80 16 -101t82 -21q131 0 175 39q26 24 39 66t24 112l262 18l24 -31q-38 -226 -57 -422l-31 -32q-98 2 -252 8t-350 6q-197 0 -310 -8q-112 -8 -177 -12l18 188q78 12 106 50t27 130l2 686q0 66 -10 88t-45 23l-35 -2q-8 -2 -18 -2l-25 28l19 162
q252 -6 329 -6h148q479 0 633 25l26 -33q-34 -180 -47 -408l-283 -18q0 14 2 29l3 47q0 68 -39 90t-122 22t-96 -10t-14 -45l-12 -231l168 -2q84 0 225 12l25 -29l-29 -235l-246 6q-80 0 -153 -13q-2 -53 -2 -96zM670 1710q76 0 136 36t91 107l55 -14l82 -127
q-34 -113 -126 -196t-238 -82q-211 0 -319 176q-30 49 -46 102l82 127l55 14q32 -71 92 -107t136 -36z" />
    <glyph glyph-name="ebreve" unicode="&#x115;" horiz-adv-x="980" 
d="M640 244q112 0 220 59l19 -10l45 -152q-118 -91 -257 -140q-71 -26 -137 -26q-242 0 -372 128q-130 129 -129 367q0 238 142 380q143 141 380 141q389 0 389 -409q0 -56 -6 -86l-10 -50l-23 -20h-485v-4q14 -98 63 -138t161 -40zM600 631q0 133 -82 133q-61 0 -87 -42
t-25 -140l169 12q16 2 21 8q4 6 4 29zM297 1516q63 -144 227 -144t228 144l55 -15l82 -127q-34 -113 -126 -196t-239 -82q-210 0 -318 176q-30 49 -46 102l82 127z" />
    <glyph glyph-name="Edotaccent" unicode="&#x116;" horiz-adv-x="1234" 
d="M582 436v-78q0 -80 16 -101t82 -21q131 0 175 39q26 24 39 66t24 112l262 18l24 -31q-38 -226 -57 -422l-31 -32q-98 2 -252 8t-350 6q-197 0 -310 -8q-112 -8 -177 -12l18 188q78 12 106 50t27 130l2 686q0 66 -10 88t-45 23l-35 -2q-8 -2 -18 -2l-25 28l19 162
q252 -6 329 -6h148q479 0 633 25l26 -33q-34 -180 -47 -408l-283 -18q0 14 2 29l3 47q0 68 -39 90t-122 22t-96 -10t-14 -45l-12 -231l168 -2q84 0 225 12l25 -29l-29 -235l-246 6q-80 0 -153 -13q-2 -53 -2 -96zM667 1399q-194 0 -194 196q0 95 55 153q54 58 150 58
t145 -51t49 -146t-55 -153t-150 -57z" />
    <glyph glyph-name="edotaccent" unicode="&#x117;" horiz-adv-x="980" 
d="M640 244q112 0 220 59l19 -10l45 -152q-118 -91 -257 -140q-71 -26 -137 -26q-242 0 -372 128q-130 129 -129 367q0 238 142 380q143 141 380 141q389 0 389 -409q0 -56 -6 -86l-10 -50l-23 -20h-485v-4q14 -98 63 -138t161 -40zM600 631q0 133 -82 133q-61 0 -87 -42
t-25 -140l169 12q16 2 21 8q4 6 4 29zM519 1112q-193 0 -193 196q0 96 55 154t151 58t144 -52q49 -52 49 -146q0 -95 -55 -153q-56 -57 -151 -57z" />
    <glyph glyph-name="Eogonek" unicode="&#x118;" horiz-adv-x="1234" 
d="M727 -324q0 74 38 143.5t136 174.5q-410 17 -737 -4q-72 -6 -137 -10l18 188q78 12 105.5 50t27.5 130l2 686q0 66 -10 88.5t-45 22.5l-35 -2q-8 -2 -18 -2l-25 28l19 162q252 -6 271 -6h206q479 0 633 25l26 -33q-34 -180 -47 -408l-283 -18q0 14 2 29l3 47
q0 67 -38.5 89.5t-122.5 22.5q-83 0 -96.5 -10t-13.5 -45l-12 -231l168 -2q84 0 225 12l25 -29l-29 -235l-246 6q-80 0 -153 -13q-2 -53 -2 -64v-110q0 -80 16 -101t82 -21t107.5 8t67.5 31.5t39 65.5t24 112l262 18l24 -31q-38 -226 -57 -422l-31 -32q-8 2 -10 2h-20
q-19 0 -33 2q-100 -134 -109.5 -171.5t-9.5 -66.5t22.5 -51.5t53.5 -22.5q76 0 143 52l51 -80q-100 -100 -213 -146q-123 0 -193.5 49t-70.5 123z" />
    <glyph glyph-name="eogonek" unicode="&#x119;" horiz-adv-x="980" 
d="M600 631q0 133 -82 133q-61 0 -86.5 -42t-25.5 -140l169 12q16 2 20.5 8t4.5 29zM483 -321q0 76 38 146.5t128 170.5q-65 -21 -119 -21q-242 0 -371.5 128t-129.5 368t142.5 380t379.5 140q389 0 389 -409q0 -56 -16 -136l-23 -20h-485v-4q14 -98 63 -138t161 -40t220 59
l19 -10l45 -152q-192 -243 -213 -296.5t-21 -86.5t22.5 -55t76.5 -22t120 51l52 -80q-98 -98 -213 -146q-123 0 -194 48.5t-71 124.5z" />
    <glyph glyph-name="Ecaron" unicode="&#x11a;" horiz-adv-x="1234" 
d="M582 436v-78q0 -80 16 -101t82 -21q131 0 175 39q26 24 39 66t24 112l262 18l24 -31q-38 -226 -57 -422l-31 -32q-98 2 -252 8t-350 6q-197 0 -310 -8q-112 -8 -177 -12l18 188q78 12 106 50t27 130l2 686q0 66 -10 88t-45 23l-35 -2q-8 -2 -18 -2l-25 28l19 162
q252 -6 329 -6h148q479 0 633 25l26 -33q-34 -180 -47 -408l-283 -18q0 14 2 29l3 47q0 68 -39 90t-122 22t-96 -10t-14 -45l-12 -231l168 -2q84 0 225 12l25 -29l-29 -235l-246 6q-80 0 -153 -13q-2 -53 -2 -96zM668 1729q31 11 268 104l47 -14l74 -127q-95 -68 -363 -283
h-55q-191 156 -360 283l71 127l47 14q159 -66 271 -104z" />
    <glyph glyph-name="ecaron" unicode="&#x11b;" horiz-adv-x="980" 
d="M640 244q112 0 220 59l19 -10l45 -152q-118 -91 -257 -140q-71 -26 -137 -26q-242 0 -372 128q-130 129 -129 367q0 238 142 380q143 141 380 141q389 0 389 -409q0 -56 -6 -86l-10 -50l-23 -20h-485v-4q14 -98 63 -138t161 -40zM600 631q0 133 -82 133q-61 0 -87 -42
t-25 -140l169 12q16 2 21 8q4 6 4 29zM498 1055q-160 160 -340 319l92 127l47 15q86 -60 229 -142q113 63 228 142l47 -15l94 -127q-148 -129 -342 -319h-55z" />
    <glyph glyph-name="Gcircumflex" unicode="&#x11c;" horiz-adv-x="1308" 
d="M1004 725q134 0 222 8l21 2l21 -119q-35 -20 -57 -42q-39 -39 -45 -129q-5 -90 -5 -201t15 -166l-25 -33q-167 -65 -496 -68q-292 0 -458 173t-166 505t188 513t551 182q182 0 416 -54l22 -41q-46 -168 -57 -413l-315 -19q0 12 2 31l2 82q0 76 -25 104t-92 27
q-67 0 -109 -17q-82 -33 -105 -170q-11 -69 -11 -169q0 -233 50 -339t163 -106q56 0 106 25v129q0 49 -13 66t-52 18l-47 -2h-21l-18 28l24 195h314zM711 1593q-121 -68 -228 -141l-47 14l-94 127q216 194 342 320h55q140 -140 340 -320l-92 -127l-47 -14q-104 72 -229 141z
" />
    <glyph glyph-name="gcircumflex" unicode="&#x11d;" horiz-adv-x="1064" 
d="M412 -182q0 -47 39 -74t103 -27t112 26q47 26 47 64q0 17 -6 27t-33 20t-84 18q-57 9 -158 26q-20 -33 -20 -80zM629 616q0 90 -26 130t-85 40q-84 0 -84 -170t101 -172q49 0 71 41t23 131zM969 829h-47l-9 -12q80 -82 80 -180t-35 -166q-71 -138 -250 -190
q-88 -27 -180 -27t-153 12q-20 -23 -21 -47q0 -53 153 -54q309 -2 431 -61q66 -32 94 -80t27 -123q0 -75 -49 -147q-99 -146 -316 -216q-104 -34 -208 -34q-193 0 -315 84t-122 224q53 41 207 110v15q-98 16 -152 73q-53 57 -53 144q53 58 172 147v21q-157 92 -157 279
t128 291t347 103q71 0 119 -9t102 -9q94 5 295 78l16 -13l-29 -206q-16 -2 -34 -4t-41 -3zM551 1237q-125 -70 -227 -141l-48 14l-94 127q226 203 342 319h56q130 -130 340 -319l-93 -127l-47 -14q-104 72 -229 141z" />
    <glyph glyph-name="Gbreve" unicode="&#x11e;" horiz-adv-x="1308" 
d="M1004 725q134 0 222 8l21 2l21 -119q-35 -20 -57 -42q-39 -39 -45 -129q-5 -90 -5 -201t15 -166l-25 -33q-167 -65 -496 -68q-292 0 -458 173t-166 505t188 513t551 182q182 0 416 -54l22 -41q-46 -168 -57 -413l-315 -19q0 12 2 31l2 82q0 76 -25 104t-92 27
q-67 0 -109 -17q-82 -33 -105 -170q-11 -69 -11 -169q0 -233 50 -339t163 -106q56 0 106 25v129q0 49 -13 66t-52 18l-47 -2h-21l-18 28l24 195h314zM473 1864q61 -144 227 -144t228 144l55 -15l82 -127q-34 -113 -126 -196t-239 -82q-210 0 -318 176q-30 49 -46 102l82 127
z" />
    <glyph glyph-name="gbreve" unicode="&#x11f;" horiz-adv-x="1064" 
d="M412 -182q0 -47 39 -74t103 -27t112 26q47 26 47 64q0 17 -6 27t-33 20t-84 18q-57 9 -158 26q-20 -33 -20 -80zM629 616q0 90 -26 130t-85 40q-84 0 -84 -170t101 -172q49 0 71 41t23 131zM969 829h-47l-9 -12q80 -82 80 -180t-35 -166q-71 -138 -250 -190
q-88 -27 -180 -27t-153 12q-20 -23 -21 -47q0 -53 153 -54q309 -2 431 -61q66 -32 94 -80t27 -123q0 -75 -49 -147q-99 -146 -316 -216q-104 -34 -208 -34q-193 0 -315 84t-122 224q53 41 207 110v15q-98 16 -152 73q-53 57 -53 144q53 58 172 147v21q-157 92 -157 279
t128 291t347 103q71 0 119 -9t102 -9q94 5 295 78l16 -13l-29 -206q-16 -2 -34 -4t-41 -3zM543 1372q165 0 227 144l55 -15l82 -127q-34 -113 -126 -196t-238 -82q-211 0 -319 176q-30 49 -46 102l82 127l55 15q31 -72 91 -108t137 -36z" />
    <glyph glyph-name="Gdotaccent" unicode="&#x120;" horiz-adv-x="1308" 
d="M1004 725q134 0 222 8l21 2l21 -119q-35 -20 -57 -42q-39 -39 -45 -129q-5 -90 -5 -201t15 -166l-25 -33q-167 -65 -496 -68q-292 0 -458 173t-166 505t188 513t551 182q182 0 416 -54l22 -41q-46 -168 -57 -413l-315 -19q0 12 2 31l2 82q0 76 -25 104t-92 27
q-67 0 -109 -17q-82 -33 -105 -170q-11 -69 -11 -169q0 -233 50 -339t163 -106q56 0 106 25v129q0 49 -13 66t-52 18l-47 -2h-21l-18 28l24 195h314zM699 1399q-193 0 -193 196q0 95 55 153t151 58t144 -51q49 -51 49 -146t-55 -153q-56 -57 -151 -57z" />
    <glyph glyph-name="gdotaccent" unicode="&#x121;" horiz-adv-x="1064" 
d="M412 -182q0 -47 39 -74t103 -27t112 26q47 26 47 64q0 17 -6 27t-33 20t-84 18q-57 9 -158 26q-20 -33 -20 -80zM629 616q0 90 -26 130t-85 40q-84 0 -84 -170t101 -172q49 0 71 41t23 131zM969 829h-47l-9 -12q80 -82 80 -180t-35 -166q-71 -138 -250 -190
q-88 -27 -180 -27t-153 12q-20 -23 -21 -47q0 -53 153 -54q309 -2 431 -61q66 -32 94 -80t27 -123q0 -75 -49 -147q-99 -146 -316 -216q-104 -34 -208 -34q-193 0 -315 84t-122 224q53 41 207 110v15q-98 16 -152 73q-53 57 -53 144q53 58 172 147v21q-157 92 -157 279
t128 291t347 103q71 0 119 -9t102 -9q94 5 295 78l16 -13l-29 -206q-16 -2 -34 -4t-41 -3zM538 1112q-194 0 -194 196q0 96 55 154t151 58t144 -52q49 -52 49 -146t-55 -152t-150 -58z" />
    <glyph glyph-name="Gcommaaccent" unicode="&#x122;" horiz-adv-x="1308" 
d="M1004 725q134 0 222 8l21 2l21 -119q-35 -20 -57 -42q-39 -39 -45 -129q-5 -90 -5 -201t15 -166l-25 -33q-167 -65 -496 -68q-292 0 -458 173t-166 505t188 513t551 182q182 0 416 -54l22 -41q-46 -168 -57 -413l-315 -19q0 12 2 31l2 82q0 76 -25 104t-92 27
q-67 0 -109 -17q-82 -33 -105 -170q-11 -69 -11 -169q0 -233 50 -339t163 -106q56 0 106 25v129q0 49 -13 66t-52 18l-47 -2h-21l-18 28l24 195h314zM868 -284q0 -102 -91 -216q-91 -115 -251 -207l-118 95v51q59 43 95 102t36 107q0 99 -60 164l6 28q118 92 202 91
q85 -1 133 -57t48 -158z" />
    <glyph glyph-name="gcommaaccent" unicode="&#x123;" horiz-adv-x="1064" 
d="M412 -182q0 -47 39 -74t103 -27t112 26q47 26 47 64q0 17 -6 27t-33 20t-84 18q-57 9 -158 26q-20 -33 -20 -80zM629 616q0 90 -26 130t-85 40q-84 0 -84 -170t101 -172q49 0 71 41t23 131zM969 829h-47l-9 -12q80 -82 80 -180t-35 -166q-71 -138 -250 -190
q-88 -27 -180 -27t-153 12q-20 -23 -21 -47q0 -53 153 -54q309 -2 431 -61q66 -32 94 -80t27 -123q0 -75 -49 -147q-99 -146 -316 -216q-104 -34 -208 -34q-193 0 -315 84t-122 224q53 41 207 110v15q-98 16 -152 73q-53 57 -53 144q53 58 172 147v21q-157 92 -157 279
t128 291t347 103q71 0 119 -9t102 -9q94 5 295 78l16 -13l-29 -206q-16 -2 -34 -4t-41 -3zM678 1350q0 -93 59 -156l-6 -29q-115 -90 -201 -90q-86 1 -134 57t-48 158t91 216t251 206l119 -94v-51q-59 -43 -95 -103t-36 -114z" />
    <glyph glyph-name="Hcircumflex" unicode="&#x124;" horiz-adv-x="1513" 
d="M1137 1325q167 0 360 10l-14 -180q-78 -13 -98 -33q-21 -20 -25 -79q-21 -312 -21 -724q-1 -77 17 -107t63 -30h22q9 0 36 6l16 -22l-18 -170q-53 0 -111 2l-240 2l-204 -2h-136l17 178q75 2 105 37t30 119v209h-41l-80 2l-231 -19v-205q0 -85 12 -113t50 -28t59 6
l16 -20l-19 -172q-288 8 -324 8t-347 -10l16 174q82 16 107 47q26 32 26 121v708q0 64 -14 84t-57 21l-35 -2h-19l-18 28l16 154h264q203 0 408 10l-14 -184q-66 -11 -86 -31t-23 -76l-12 -247l174 -6q129 0 172 6v243q0 61 -14 83t-58 22l-37 -2h-18l-18 28l16 154h330z
M756 1647q-113 -63 -228 -142l-47 15l-94 127q200 180 342 319h55q133 -133 340 -319l-92 -127l-47 -15q-86 60 -229 142z" />
    <glyph glyph-name="hcircumflex" unicode="&#x125;" horiz-adv-x="1134" 
d="M115 1157q1 73 -19 97t-80 24h-51l-10 14l16 154q93 10 189 24t183 26t177 24l19 -54q-50 -46 -68 -669q182 194 234 194q167 1 253 -67t86 -199q0 -40 -22 -244q-22 -203 -22 -240q0 -39 12 -55t43 -16h32q8 0 19 2l4 -8l-23 -172q-212 8 -266 8l-250 -6l17 178
q37 4 53 26t18 68l5 289q2 78 -18 109q-20 30 -58 30q-40 0 -68 -18t-51 -35q-2 -92 -2 -192v-211q0 -38 10 -52t37 -14h18q6 0 11 2l6 -14l-23 -168q-270 11 -374 5q-105 -6 -146 -7l23 176q51 6 68 29t18 77v885zM274 1722q-115 -65 -227 -141l-47 14l-94 127
q216 194 342 320h55q140 -140 340 -320l-92 -127l-47 -14q-111 77 -230 141z" />
    <glyph glyph-name="Hbar" unicode="&#x126;" horiz-adv-x="1513" 
d="M936 895h-342l-4 -98l174 -6q129 0 172 6v98zM1339 319q0 -78 17.5 -107.5t62.5 -29.5h15q16 0 43 6l16 -22l-18 -170q-53 0 -111 2l-240 2l-204 -2h-136l17 178q74 2 104.5 37t30.5 119v209h-41l-80 2l-231 -19v-205q0 -86 12 -113.5t50 -27.5t59 6l16 -20l-19 -172
q-288 8 -324 8t-347 -10l16 174q78 15 100.5 41t27.5 55t5 72v561h-168l-22 20l16 119q23 -2 49 -2h125v10q0 63 -14 84t-57 21l-35 -2h-19l-18 28l16 154h264q203 0 408 10l-14 -184q-66 -12 -86.5 -31.5t-22.5 -75.5l-2 -14h336v10q0 61 -14.5 83t-57.5 22l-37 -2h-18
l-18 28l16 154h330q167 0 360 10l-14 -180q-76 -12 -93.5 -28.5t-18.5 -20.5l-13 -70l104 2q23 0 39 2l31 -30l-10 -113l-170 -2q-13 -271 -13 -576z" />
    <glyph glyph-name="hbar" unicode="&#x127;" horiz-adv-x="1142" 
d="M123 272v770q-35 -2 -43 -2h-129l-23 21l17 119q25 -2 53 -2h125q-4 59 -23.5 79.5t-74.5 20.5h-52l-10 14l17 154q92 10 188 24.5t183 25.5t177 24l19 -54q-31 -31 -51 -286l145 6l31 -31l-10 -113h-175q-4 -55 -5 -116.5t-3 -128.5q182 194 234 194q166 0 253 -67.5
t87 -198.5q0 -35 -7.5 -102.5t-22.5 -205.5t-15 -176t12 -54.5t43 -16.5h33q8 0 18 2l4 -8l-22 -172q-212 8 -267 8l-249 -6l16 178q37 4 53.5 25.5t18.5 68.5l4 289q2 78 -17.5 108.5t-58.5 30.5t-67.5 -18.5t-51.5 -34.5q-2 -92 -2 -117v-286q0 -37 10.5 -51.5t36.5 -14.5
h19q6 0 10 2l6 -14l-22 -168q-270 11 -375 6q-105 -6 -146 -8l23 176q51 6 68.5 28.5t17.5 77.5z" />
    <glyph glyph-name="Itilde" unicode="&#x128;" horiz-adv-x="757" 
d="M383 1325q165 0 352 10l-14 -184q-75 -13 -94 -31t-23 -76q-20 -290 -20 -725q0 -85 12 -113t40 -28h42q10 0 37 6l16 -20l-18 -172q-296 8 -339 8t-343 -10l16 174q83 16 108 49t25 119v708q0 64 -14 84t-57 21l-35 -2h-19l-18 28l16 154h330zM270 1552q-49 0 -137 -118
h-33l-120 110v33l165 235l35 9q27 1 71 -11t91 -24t89 -24t68 -11q26 0 67 42t67 77h33l120 -111v-33l-165 -235l-35 -8q-35 1 -163 35q-127 34 -153 34z" />
    <glyph glyph-name="itilde" unicode="&#x129;" horiz-adv-x="624" 
d="M508 233q0 -61 40 -61h25q17 0 33 4l6 -10l-24 -174q-204 8 -281 8t-160 -8t-133 -12l25 182q117 8 117 121v350q0 71 -20 95t-79 24l-45 -7l17 170q206 22 501 76l27 -45q-49 -92 -49 -713zM213 1194q-50 0 -137 -119h-33l-121 111v33l166 235l35 8q35 0 163 -34
q127 -34 149 -35q50 0 140 118h33l121 -110v-33l-166 -235l-35 -9q-26 0 -70 12t-91 23t-89 23t-65 12z" />
    <glyph glyph-name="Imacron" unicode="&#x12a;" horiz-adv-x="757" 
d="M383 1325q165 0 352 10l-14 -184q-75 -13 -94 -31t-23 -76q-20 -290 -20 -725q0 -85 12 -113t40 -28h42q10 0 37 6l16 -20l-18 -172q-296 8 -339 8t-343 -10l16 174q83 16 108 49t25 119v708q0 64 -14 84t-57 21l-35 -2h-19l-18 28l16 154h330zM231 1673h203
q142 0 254 13l23 -37l-37 -224l-287 -2l-182 -2h-92l-33 31l39 223q57 -2 112 -2z" />
    <glyph glyph-name="imacron" unicode="&#x12b;" horiz-adv-x="624" 
d="M508 233q0 -61 40 -61h25q17 0 33 4l6 -10l-24 -174q-204 8 -281 8t-160 -8t-133 -12l25 182q117 8 117 121v350q0 71 -20 95t-79 24l-45 -7l17 170q206 22 501 76l27 -45q-49 -92 -49 -713zM174 1407h203q125 0 254 12l22 -37l-37 -223l-286 -2l-183 -2h-92l-32 31
l38 223q57 -2 113 -2z" />
    <glyph glyph-name="Ibreve" unicode="&#x12c;" horiz-adv-x="757" 
d="M383 1325q165 0 352 10l-14 -184q-75 -13 -94 -31t-23 -76q-20 -290 -20 -725q0 -85 12 -113t40 -28h42q10 0 37 6l16 -20l-18 -172q-296 8 -339 8t-343 -10l16 174q83 16 108 49t25 119v708q0 64 -14 84t-57 21l-35 -2h-19l-18 28l16 154h330zM387 1710q76 0 136 36
t91 107l56 -14l82 -127q-34 -113 -126 -196t-239 -82q-214 0 -318 176q-30 49 -46 102l81 127l56 14q62 -143 227 -143z" />
    <glyph glyph-name="ibreve" unicode="&#x12d;" horiz-adv-x="624" 
d="M508 233q0 -61 40 -61h25q17 0 33 4l6 -10l-24 -174q-204 8 -281 8t-160 -8t-133 -12l25 182q117 8 117 121v350q0 71 -20 95t-79 24l-45 -7l17 170q206 22 501 76l27 -45q-49 -92 -49 -713zM330 1372q165 0 227 144l55 -15l82 -127q-34 -113 -126 -196t-238 -82
q-211 0 -319 176q-30 49 -46 102l82 127l55 15q32 -72 92 -108t136 -36z" />
    <glyph glyph-name="Iogonek" unicode="&#x12e;" horiz-adv-x="757" 
d="M549 -322q76 0 143 52l51 -80q-100 -100 -213 -146q-123 0 -193.5 48.5t-70.5 124.5t41.5 147.5t138.5 175.5h-75q-40 0 -340 -10l16 174q80 16 106.5 48.5t26.5 119.5v708q0 63 -14 84t-57 21l-35 -2h-19l-18 28l16 154h330q165 0 352 10l-14 -184q-74 -13 -93.5 -30.5
t-23.5 -76.5q-20 -290 -20 -725q0 -86 12 -113.5t40 -27.5h28q27 0 51 6l16 -20l-18 -172q-15 2 -33 2h-30q-29 0 -52 2q-74 -98 -99.5 -147.5t-25.5 -87.5t22.5 -60.5t53.5 -22.5z" />
    <glyph glyph-name="iogonek" unicode="&#x12f;" horiz-adv-x="624" 
d="M339 1112q-95 0 -144.5 50t-49.5 146t55.5 154t150.5 58t144.5 -51.5t49.5 -146.5t-55.5 -152.5t-150.5 -57.5zM508 233q0 -61 40 -61h21q21 0 37 4l6 -10l-24 -174q-14 2 -30 2h-26q-26 0 -47 2q-110 -143 -110 -215q0 -84 99 -84q54 0 120 51l51 -80
q-55 -55 -115.5 -93t-97.5 -52q-123 0 -193.5 48.5t-70.5 122.5t36 140t128 166h-21q-82 0 -164 -8q-83 -8 -133 -12l25 182q117 8 117 121v350q0 72 -19.5 95.5t-79.5 23.5l-45 -7l17 170q206 22 501 76l27 -45q-49 -92 -49 -713z" />
    <glyph glyph-name="Idotaccent" unicode="&#x130;" horiz-adv-x="757" 
d="M383 1325q165 0 352 10l-14 -184q-75 -13 -94 -31t-23 -76q-20 -290 -20 -725q0 -85 12 -113t40 -28h42q10 0 37 6l16 -20l-18 -172q-296 8 -339 8t-343 -10l16 174q83 16 108 49t25 119v708q0 64 -14 84t-57 21l-35 -2h-19l-18 28l16 154h330zM384 1399q-192 0 -194 194
q0 97 56 155t150 58t144 -51t50 -146t-55 -153q-56 -57 -151 -57z" />
    <glyph glyph-name="dotlessi" unicode="&#x131;" horiz-adv-x="624" 
d="M508 233q0 -61 40 -61h21q21 0 37 4l6 -10l-24 -174q-204 8 -281 8t-160 -8t-133 -12l25 182q117 8 117 121v350q0 72 -19.5 95.5t-79.5 23.5l-45 -7l17 170q206 22 501 76l27 -45q-49 -92 -49 -713z" />
    <glyph glyph-name="IJ" unicode="&#x132;" horiz-adv-x="1452" 
d="M383 1325q165 0 352 10l-14 -184q-75 -13 -94 -31t-23 -76q-20 -290 -20 -725q0 -85 12 -113t40 -28h42q10 0 37 6l16 -20l-18 -172q-296 8 -339 8t-343 -10l16 174q83 16 108 49t25 119v708q0 64 -14 84t-57 21l-35 -2h-19l-18 28l16 154h330zM1321 170
q0 -194 -117 -316t-375 -190l-81 98l4 31q108 99 138 189q30 89 32 288v770q0 64 -12 84t-54 21l-49 -2q-12 -2 -25 -2l-18 28l16 156l289 2q162 0 247 6q84 6 142 8l-16 -190q-57 -11 -74 -30q-18 -19 -22 -84q-25 -412 -25 -867z" />
    <glyph glyph-name="ij" unicode="&#x133;" horiz-adv-x="1241" 
d="M508 233q0 -61 40 -61h25q17 0 33 4l6 -10l-24 -174q-204 8 -281 8t-160 -8t-133 -12l25 182q117 8 117 121v350q0 71 -20 95t-79 24l-45 -7l17 170q206 22 501 76l27 -45q-49 -92 -49 -713zM545 1322q1 -94 -55 -152t-151 -58t-144 50t-49 146t54 154q56 58 151 58
t145 -52t49 -146zM957 1112q-193 0 -193 196q0 96 55 154t151 58t144 -52q49 -52 49 -146q0 -95 -55 -153q-56 -57 -151 -57zM774 68v565q0 67 -14 93t-53 26l-66 -7l16 166q118 15 266 41q148 25 230 39l27 -45q-55 -127 -56 -975q0 -217 -239 -387q-76 -53 -168 -92
l-96 88l4 31q91 91 112 161q37 119 37 296z" />
    <glyph glyph-name="Jcircumflex" unicode="&#x134;" horiz-adv-x="694" 
d="M563 174q0 -198 -117 -320t-374 -190l-82 98l4 31q108 99 139 192q31 92 31 285v770q0 64 -12 84t-54 21l-49 -2q-12 -2 -24 -2l-19 28l17 156l288 2q163 0 247 6q85 6 142 8l-16 -190q-57 -11 -74 -30q-18 -19 -22 -84q-25 -412 -25 -863zM356 1593q-115 -65 -227 -141
l-47 14l-94 127q216 194 342 320h55q140 -140 340 -320l-92 -127l-47 -14q-111 77 -230 141z" />
    <glyph glyph-name="jcircumflex" unicode="&#x135;" horiz-adv-x="616" 
d="M150 633q0 119 -54 119q-39 0 -54 -3t-26 -4l17 166q125 16 269 41t226 39l27 -45q-55 -127 -55 -975q0 -141 -111 -270t-297 -209l-96 88l4 31q92 92 114 162q34 112 36 295v565zM311 1237q-115 -65 -227 -141l-47 14l-94 127q200 180 342 319h55q130 -130 340 -319
l-92 -127l-47 -14q-111 77 -230 141z" />
    <glyph glyph-name="Kcommaaccent" unicode="&#x136;" horiz-adv-x="1419" 
d="M1021 1325h126q82 0 248 10l18 -30l-18 -154q-146 -82 -301 -301l-86 -121l192 -373q47 -90 91 -132t110 -52l20 -31l-22 -151q-74 -6 -164 -15t-160 -8q-70 0 -119 36t-96 130l-258 516l10 62l230 272q43 43 43 86q-1 43 -19 56t-65 18l-13 20l19 168q170 -6 214 -6z
M374 0q-43 0 -343 -10l16 174q82 16 107 47q26 32 26 121v708q0 64 -14 84t-57 21l-35 -2h-19l-18 28l18 156q82 -2 150 -2h178q165 0 352 10l-14 -184q-81 -22 -102 -42t-21 -73l-14 -717q-2 -85 11 -113t41 -28h42q10 0 37 6l16 -20l-18 -172q-296 8 -339 8zM946 -284
q0 -102 -91 -216q-91 -115 -251 -207l-119 95v51q59 43 96 102q36 59 35 115q0 93 -59 156l6 28q118 92 202 91q85 -1 133 -57t48 -158z" />
    <glyph glyph-name="kcommaaccent" unicode="&#x137;" horiz-adv-x="1110" 
d="M571 971q90 -4 188 -4h165q67 0 190 6l6 -10l-20 -175q-82 -40 -150 -106t-131 -129l127 -254q53 -115 164 -135l12 -23l-18 -151q-22 -2 -46 -4t-96 -10t-116 -9q-76 6 -120 41t-85 125l-164 344l6 66l142 162q20 23 27 35t7 33q0 38 -100 38l-6 10zM115 1157
q0 95 -30 108t-120 13l-10 14l16 154q93 10 189 24t183 26t177 24l19 -54q-72 -72 -72 -1233q0 -37 10 -51t37 -14h18q6 0 15 2l6 -14l-27 -168l-262 12q-63 0 -140 -4t-118 -6l23 176q51 6 68 29t18 77v885zM432 -344q0 93 -59 156l6 28q118 92 202 91q85 -1 133 -57
t48 -158t-91 -216q-91 -115 -251 -207l-119 95v51q59 43 95 102t36 115z" />
    <glyph glyph-name="kgreenlandic" unicode="&#x138;" horiz-adv-x="1155" 
d="M616 971q90 -4 114 -4h166q140 0 263 6l6 -10l-20 -175q-82 -41 -149.5 -106.5t-131.5 -128.5l127 -254q53 -115 164 -135l12 -23l-18 -151q-23 -2 -47 -4t-85.5 -10.5t-125.5 -8.5q-76 6 -120 41t-85 125l-164 344l6 66l142 162q35 40 35 64t-23 33t-78 9l-6 10z
M160 272v377q0 73 -26 97t-109 24l-11 14l17 154q188 13 329 33q82 8 160 20l23 -24q-25 -83 -28 -293.5t-3 -440.5q0 -37 10 -51t37 -14h19q6 0 14 2l6 -14l-27 -168l-262 12q-61 0 -147 -4t-131 -6l22 176q51 6 79 28.5t28 77.5z" />
    <glyph glyph-name="Lacute" unicode="&#x139;" horiz-adv-x="1140" 
d="M381 1325q189 0 424 10l-23 -200q-104 -12 -133 -27q-29 -16 -37 -34q-30 -66 -30 -750q0 -48 17 -68t65 -20q104 0 141 61t49 272l262 27l25 -31q-33 -254 -49 -547l-31 -32q-89 2 -183 6q-413 18 -714 -2q-72 -6 -137 -10l18 188q78 12 106 50t27 130v692q0 64 -14 84
t-58 21l-34 -2h-19l-18 28l16 154h330zM160 1587q266 99 510 205l32 -10l74 -221l-14 -33q-179 -31 -520 -113l-39 27z" />
    <glyph glyph-name="lacute" unicode="&#x13a;" horiz-adv-x="587" 
d="M115 1157q0 95 -30 108t-120 13l-10 14l16 154q93 10 189 24t183 26t177 24l19 -54q-72 -72 -72 -1233q0 -37 10 -51t37 -14h37q12 0 29 2l6 -14l-27 -164q-311 11 -411 5q-101 -5 -142 -7l23 176q51 6 68 29t18 77v885zM102 1722q164 139 383 342h35l148 -206l-4 -35
q-66 -35 -132 -72t-145 -79q-78 -42 -156 -89l-45 14z" />
    <glyph glyph-name="Lcommaaccent" unicode="&#x13b;" horiz-adv-x="1140" 
d="M381 1325q189 0 424 10l-23 -200q-104 -12 -133 -27q-29 -16 -37 -34q-30 -66 -30 -750q0 -48 17 -68t65 -20q104 0 141 61t49 272l262 27l25 -31q-33 -254 -49 -547l-31 -32q-89 2 -183 6q-413 18 -714 -2q-72 -6 -137 -10l18 188q78 12 106 50t27 130v692q0 64 -14 84
t-58 21l-34 -2h-19l-18 28l16 154h330zM772 -284q0 -102 -91 -216q-91 -115 -251 -207l-119 95v51q59 43 96 102q36 59 35 115q0 93 -59 156l6 28q118 92 202 91q85 -1 133 -57t48 -158z" />
    <glyph glyph-name="lcommaaccent" unicode="&#x13c;" horiz-adv-x="587" 
d="M115 1157q0 95 -30 108t-120 13l-10 14l16 154q93 10 189 24t183 26t177 24l19 -54q-72 -72 -72 -1233q0 -37 10 -51t37 -14h37q12 0 29 2l6 -14l-27 -164q-311 11 -411 5q-101 -5 -142 -7l23 176q51 6 68 29t18 77v885zM473 -284q0 -102 -91 -216q-91 -115 -251 -207
l-119 95v51q59 43 96 102q36 59 35 115q0 93 -59 156l6 28q118 92 202 91q85 -1 133 -57t48 -158z" />
    <glyph glyph-name="Lcaron" unicode="&#x13d;" horiz-adv-x="1167" 
d="M1176 1300q-33 -224 -86 -452l-150 -51l-39 12q3 142 -5 279q-9 137 -13 208l274 29zM381 1325q189 0 424 10l-23 -200q-102 -12 -131.5 -27.5t-38 -34.5t-11.5 -67q-19 -307 -19 -682q0 -47 17 -67.5t65 -20.5q102 0 140 62t50 271l262 27l25 -31q-33 -254 -49 -547
l-31 -32q-89 2 -183 6q-413 18 -714 -2q-72 -6 -137 -10l18 188q78 12 105.5 50t27.5 130v692q0 63 -14 84t-58 21l-34 -2h-19l-18 28l16 154h330z" />
    <glyph glyph-name="lcaron" unicode="&#x13e;" horiz-adv-x="876" 
d="M877 1378q-33 -224 -86 -452l-150 -52l-39 13q3 142 -5 279q-9 137 -13 208l274 29zM115 272v885q0 93 -35 109q-24 12 -115 12l-10 14l16 154q92 10 188.5 24.5t183.5 25.5t177 24l19 -54q-72 -72 -72 -1233q0 -37 10 -51t37 -14h37q12 0 29 2l6 -14l-27 -164
q-311 11 -411 5q-101 -5 -142 -7l23 176q51 6 68.5 28.5t17.5 77.5z" />
    <glyph glyph-name="Ldot" unicode="&#x13f;" horiz-adv-x="1181" 
d="M381 1325q189 0 424 10l-23 -200q-104 -12 -133 -27q-29 -16 -37 -34q-30 -66 -30 -750q0 -48 17 -68t65 -20q104 0 141 61t49 272l262 27l25 -31q-33 -254 -49 -547l-31 -32q-89 2 -183 6q-413 18 -714 -2q-72 -6 -137 -10l18 188q78 12 106 50t27 130v692q0 64 -14 84
t-58 21l-34 -2h-19l-18 28l16 154h330zM966 774q-194 0 -194 196q0 96 55 154t151 58t144 -52q49 -52 49 -146t-55 -152t-150 -58z" />
    <glyph glyph-name="ldot" unicode="&#x140;" horiz-adv-x="946" 
d="M115 1157q0 95 -30 108t-120 13l-10 14l16 154q93 10 189 24t183 26t177 24l19 -54q-72 -72 -72 -1233q0 -37 10 -51t37 -14h37q12 0 29 2l6 -14l-27 -164q-311 11 -411 5q-101 -5 -142 -7l23 176q51 6 68 29t18 77v885zM740 420q-193 0 -193 196q0 96 55 154
q54 58 150 57q96 0 145 -51t49 -146t-55 -153q-56 -57 -151 -57z" />
    <glyph glyph-name="Lslash" unicode="&#x141;" horiz-adv-x="1191" 
d="M432 1325q189 0 424 10l-22 -200q-104 -12 -133 -27.5t-37.5 -34t-11.5 -49.5t-4 -65.5t-3 -69.5l168 84l18 -8l64 -191l-260 -129q-2 -72 -2 -91v-230q0 -47 17.5 -67.5t65.5 -20.5q102 0 139.5 61t49.5 272l262 27l25 -31q-33 -254 -49 -547l-31 -32q-90 2 -230 8
t-327 6q-188 0 -300 -8t-177 -12l18 188q78 12 105.5 50t27.5 130v139l-114 -57l-21 4l-63 193l198 98v315q0 63 -14 84t-57 21l-35 -2h-19l-18 28l16 154h330z" />
    <glyph glyph-name="lslash" unicode="&#x142;" horiz-adv-x="716" 
d="M176 272v275l-104 -51l-21 4l-63 192l188 94v371q0 94 -30 107q-30 14 -119 14l-11 14l17 154q92 10 188 24.5t183 25.5t178 24l18 -54q-43 -43 -63 -544l104 53l18 -8l64 -191l-193 -96q-2 -100 -2 -128v-319q0 -37 10.5 -51t36.5 -14h37q12 0 29 2l6 -14l-26 -164
q-314 11 -413 5q-99 -5 -140 -7l22 176q51 6 68.5 28.5t17.5 77.5z" />
    <glyph glyph-name="Nacute" unicode="&#x143;" horiz-adv-x="1513" 
d="M39 1335q113 -10 249 -10t316 8q120 -215 227 -385q107 -171 166 -266h31l-8 375q-4 53 -18 70t-50 18h-63l-10 22l10 166q252 -8 317 -8q134 0 279 5l28 1l-10 -184q-65 -10 -91 -38t-28 -91l-26 -1018l-385 -25q-102 170 -234 376q-131 206 -186 294h-31l6 -364
q4 -105 62 -105q27 0 88 8l18 -18l-22 -174q-386 12 -483 4t-148 -12l20 184q59 8 88 38q28 30 29 91l25 715q0 70 -26 92t-128 37l-24 28zM557 1587q266 99 510 205l33 -10l74 -221l-15 -33q-179 -31 -520 -113l-39 27z" />
    <glyph glyph-name="nacute" unicode="&#x144;" horiz-adv-x="1185" 
d="M506 244q0 -40 10 -54t39 -14h18q6 0 15 2l6 -10l-25 -176q-187 8 -251 8t-154 -4l-135 -6l24 178q59 4 82 26t23 80v355q0 71 -20 95t-79 24h-32l-11 14l17 153q275 37 483 76l25 -24q-4 -25 -12 -61t-13 -89l14 -8l63 63q115 119 159 119q166 1 253 -67t87 -199
q0 -35 -22 -237t-23 -244q0 -42 12 -58t43 -16h33q8 0 18 2l4 -8l-22 -172q-212 8 -267 8l-250 -6l17 178q37 4 53 26t19 68l4 289q4 141 -74 139q-57 -1 -107 -43q-4 -59 -8 -126t-10 -154t-6 -127zM432 1214q107 91 383 342h35l147 -206l-4 -35q-66 -35 -132 -72t-144 -79
t-156 -89l-45 15z" />
    <glyph glyph-name="Ncommaaccent" unicode="&#x145;" horiz-adv-x="1513" 
d="M39 1335q113 -10 249 -10t316 8q120 -215 227 -385q107 -171 166 -266h31l-8 375q-4 53 -18 70t-50 18h-63l-10 22l10 166q252 -8 317 -8q134 0 279 5l28 1l-10 -184q-65 -10 -91 -38t-28 -91l-26 -1018l-385 -25q-102 170 -234 376q-131 206 -186 294h-31l6 -364
q4 -105 62 -105q27 0 88 8l18 -18l-22 -174q-386 12 -483 4t-148 -12l20 184q59 8 88 38q28 30 29 91l25 715q0 70 -26 92t-128 37l-24 28zM639 -344q0 93 -59 156l6 28q118 92 202 91q85 -1 133 -57t48 -158t-91 -216q-91 -115 -251 -207l-119 95v51q59 43 95 102t36 115z
" />
    <glyph glyph-name="ncommaaccent" unicode="&#x146;" horiz-adv-x="1185" 
d="M506 244q0 -40 10 -54t39 -14h18q6 0 15 2l6 -10l-25 -176q-187 8 -251 8t-154 -4l-135 -6l24 178q59 4 82 26t23 80v355q0 71 -20 95t-79 24h-32l-11 14l17 153q275 37 483 76l25 -24q-4 -25 -12 -61t-13 -89l14 -8l63 63q115 119 159 119q166 1 253 -67t87 -199
q0 -35 -22 -237t-23 -244q0 -42 12 -58t43 -16h33q8 0 18 2l4 -8l-22 -172q-212 8 -267 8l-250 -6l17 178q37 4 53 26t19 68l4 289q4 141 -74 139q-57 -1 -107 -43q-4 -59 -8 -126t-10 -154t-6 -127zM780 -284q0 -102 -91 -216q-91 -115 -251 -207l-119 95v51q59 43 96 102
q36 59 36 107q0 99 -60 164l6 28q118 92 202 91q85 -1 133 -57t48 -158z" />
    <glyph glyph-name="Ncaron" unicode="&#x147;" horiz-adv-x="1513" 
d="M39 1335q113 -10 249 -10t316 8q120 -215 227 -385q107 -171 166 -266h31l-8 375q-4 53 -18 70t-50 18h-63l-10 22l10 166q252 -8 317 -8q134 0 279 5l28 1l-10 -184q-65 -10 -91 -38t-28 -91l-26 -1018l-385 -25q-102 170 -234 376q-131 206 -186 294h-31l6 -364
q4 -105 62 -105q27 0 88 8l18 -18l-22 -174q-386 12 -483 4t-148 -12l20 184q59 8 88 38q28 30 29 91l25 715q0 70 -26 92t-128 37l-24 28zM786 1729q13 4 269 104l47 -14l74 -127q-95 -68 -363 -283h-55q-180 147 -361 283l72 127l47 14q152 -63 270 -104z" />
    <glyph glyph-name="ncaron" unicode="&#x148;" horiz-adv-x="1185" 
d="M506 244q0 -40 10 -54t39 -14h18q6 0 15 2l6 -10l-25 -176q-187 8 -251 8t-154 -4l-135 -6l24 178q59 4 82 26t23 80v355q0 71 -20 95t-79 24h-32l-11 14l17 153q275 37 483 76l25 -24q-4 -25 -12 -61t-13 -89l14 -8l63 63q115 119 159 119q166 1 253 -67t87 -199
q0 -35 -22 -237t-23 -244q0 -42 12 -58t43 -16h33q8 0 18 2l4 -8l-22 -172q-212 8 -267 8l-250 -6l17 178q37 4 53 26t19 68l4 289q4 141 -74 139q-57 -1 -107 -43q-4 -59 -8 -126t-10 -154t-6 -127zM606 1055q-160 160 -340 319l92 127l48 15q101 -70 229 -142
q107 60 227 142l47 -15l95 -127q-175 -152 -342 -319h-56z" />
    <glyph glyph-name="Eng" unicode="&#x14a;" horiz-adv-x="1507" 
d="M304 1325q124 0 288 8q72 -129 210 -353.5t208 -328.5h28l-8 414q0 51 -15.5 69.5t-51.5 18.5l-37 -2h-27l-10 20l10 162q312 -8 358 -8t250 8l-10 -178q-68 -10 -93.5 -37.5t-27.5 -91.5l-22 -852q-8 -208 -119.5 -332t-360.5 -194l-77 94l4 31q76 59 113.5 110
t56.5 117q-232 383 -428 678h-29l4 -406q2 -59 18.5 -80.5t61.5 -21.5h14q13 0 58 6l16 -16l-20 -168q-236 8 -340 8t-166 -6t-109 -10l21 176q59 8 86.5 37.5t29.5 95.5l25 729q0 68 -29.5 91.5t-126.5 35.5l-22 29l12 157q133 -10 257 -10z" />
    <glyph glyph-name="eng" unicode="&#x14b;" horiz-adv-x="1157" 
d="M630 694q-44 0 -100 -43q-6 -109 -11 -183.5t-9 -137t-4 -95.5q0 -32 10 -45.5t39 -13.5h18q6 0 15 2l6 -10l-25 -176q-187 8 -251 8t-154 -4l-135 -6l24 178q59 4 82 25.5t23 80.5v355q0 72 -19.5 95.5t-79.5 23.5h-32l-11 14l17 153q275 37 483 76l25 -24
q-4 -25 -13 -62t-12 -88l14 -8q165 182 222 182q166 0 253 -67.5t87 -198.5l-43 -543q-20 -220 -127.5 -335.5t-362.5 -182.5l-82 98l4 31q70 49 114 92t78 116t38 265v289q2 78 -17.5 108.5t-63.5 30.5z" />
    <glyph glyph-name="Omacron" unicode="&#x14c;" horiz-adv-x="1341" 
d="M654 -25q-624 0 -624 675q0 335 172 517q171 182 498 183q610 0 611 -654q0 -348 -173 -534q-172 -186 -484 -187zM842 546q0 305 -41 414t-135 109t-130 -75q-36 -74 -36 -234q0 -304 41 -416q41 -111 134 -111t130 76q37 77 37 237zM510 1673h203q142 0 254 13l22 -37
l-37 -224l-286 -2l-183 -2h-92l-33 31l39 223q57 -2 113 -2z" />
    <glyph glyph-name="omacron" unicode="&#x14d;" horiz-adv-x="1042" 
d="M535 195q42 0 63 41q20 41 20 149t-5 177q-10 136 -50 167q-20 16 -62 16t-63 -40q-20 -41 -20 -147t5 -177q5 -70 17 -111t32 -58t63 -17zM1014 500q0 -244 -135 -384t-367 -141q-232 0 -357 129q-126 129 -126 369t136 379q137 139 373 139t356 -124q120 -123 120 -367
zM385 1407h203q125 0 254 12l22 -37l-37 -223l-286 -2l-183 -2h-92l-33 31l39 223q57 -2 113 -2z" />
    <glyph glyph-name="Obreve" unicode="&#x14e;" horiz-adv-x="1341" 
d="M654 -25q-624 0 -624 675q0 335 172 517q171 182 498 183q610 0 611 -654q0 -348 -173 -534q-172 -186 -484 -187zM842 546q0 305 -41 414t-135 109t-130 -75q-36 -74 -36 -234q0 -304 41 -416q41 -111 134 -111t130 76q37 77 37 237zM666 1710q76 0 136 36t91 107
l55 -14l82 -127q-34 -113 -126 -196t-238 -82q-211 0 -319 176q-30 49 -46 102l82 127l55 14q32 -71 92 -107t136 -36z" />
    <glyph glyph-name="obreve" unicode="&#x14f;" horiz-adv-x="1042" 
d="M535 195q42 0 63 41q20 41 20 149t-5 177q-10 136 -50 167q-20 16 -62 16t-63 -40q-20 -41 -20 -147t5 -177q5 -70 17 -111t32 -58t63 -17zM1014 500q0 -244 -135 -384t-367 -141q-232 0 -357 129q-126 129 -126 369t136 379q137 139 373 139t356 -124q120 -123 120 -367
zM540 1372q166 0 228 144l55 -15l82 -127q-34 -113 -126 -196t-238 -82q-211 0 -319 176q-30 49 -46 102l82 127l55 15q61 -144 227 -144z" />
    <glyph glyph-name="Ohungarumlaut" unicode="&#x150;" horiz-adv-x="1341" 
d="M654 -25q-624 0 -624 675q0 335 172 517q171 182 498 183q610 0 611 -654q0 -348 -173 -534q-172 -186 -484 -187zM842 546q0 305 -41 414t-135 109t-130 -75q-36 -74 -36 -234q0 -304 41 -416q41 -111 134 -111t130 76q37 77 37 237zM1169 1606q-161 -100 -354 -226
l-39 11l-78 98q97 94 180 180q82 86 126 131l30 2l135 -166v-30zM764 1606q-161 -100 -354 -226l-39 11l-78 98q102 98 305 311l31 2l135 -166v-30z" />
    <glyph glyph-name="ohungarumlaut" unicode="&#x151;" horiz-adv-x="1042" 
d="M535 195q42 0 63 41q20 41 20 149t-5 177q-10 136 -50 167q-20 16 -62 16t-63 -40q-20 -41 -20 -147t5 -177q5 -70 17 -111t32 -58t63 -17zM1014 500q0 -244 -135 -384t-367 -141q-232 0 -357 129q-126 129 -126 369t136 379q137 139 373 139t356 -124q120 -123 120 -367
zM1001 1386q-159 -159 -288 -305h-39l-101 78q41 70 109 180t113 195l28 10l172 -129zM668 1386q-168 -168 -289 -305h-39l-100 78q41 70 105 173t116 202l28 10l173 -129z" />
    <glyph glyph-name="OE" unicode="&#x152;" horiz-adv-x="1873" 
d="M659 1081q-90 0 -126.5 -76.5t-36.5 -241.5q0 -313 40 -427.5t144 -114.5q147 0 147 180l2 498q0 182 -170 182zM1115 6q-140 0 -259 -13t-205 -13q-299 0 -459.5 167.5t-160.5 491.5q0 692 659 692q100 0 214 -12t232 -12q169 0 380.5 14.5t298.5 28.5l26 -33
q-34 -180 -47 -408l-283 -18q0 14 2 29l3 47q0 67 -38.5 89.5t-122.5 22.5q-83 0 -96.5 -10t-13.5 -45l-12 -231l168 -2q84 0 225 12l25 -29l-29 -235l-246 6l-153 -13l-2 -174q0 -80 16 -101t83 -21q132 0 176 39.5t60 177.5l263 18l24 -31q-38 -226 -57 -422l-31 -32
q-500 20 -640 20z" />
    <glyph glyph-name="oe" unicode="&#x153;" horiz-adv-x="1576" 
d="M1114 764q-63 0 -88 -43t-25 -143l170 16q16 2 20.5 8t4.5 29q0 133 -82 133zM535 195q42 0 62.5 40.5t20.5 148.5q0 212 -21.5 286.5t-79.5 74.5t-78.5 -40.5t-20.5 -146.5t5 -176.5t17.5 -111.5t32.5 -58t62 -17zM813 111q-157 -136 -313 -136q-219 0 -345 129
t-126 369t136 379t380 139q144 0 295 -129q151 129 307 129q389 0 389 -409q0 -56 -16 -136l-23 -20h-485v-6q16 -98 64 -137t160 -39t220 59l19 -10l45 -152q-117 -90 -222.5 -128t-174.5 -38q-121 0 -224 68q-49 29 -86 68z" />
    <glyph glyph-name="Racute" unicode="&#x154;" horiz-adv-x="1388" 
d="M639 1081q-23 0 -32 -14t-17 -342l155 -20q70 29 98 73t27 133q0 88 -55 129t-176 41zM348 1325q133 0 379 12q565 0 565 -385q0 -242 -245 -387l127 -213q106 -180 198 -180l23 -33l-19 -149l-317 -23q-86 0 -139 42t-95 145l-127 313h-114v-139q0 -97 19 -116
q19 -18 48 -24t78 -8l10 -16l-20 -172q-280 8 -350 8t-340 -18l18 188q76 12 105 50t28 124v711q0 51 -11 70t-42 20l-47 -2q-12 -2 -25 -2l-20 24l22 162q61 -2 115 -2h176zM471 1587q266 99 510 205l33 -10l73 -221l-14 -33q-179 -31 -520 -113l-39 27z" />
    <glyph glyph-name="racute" unicode="&#x155;" horiz-adv-x="911" 
d="M158 274v355q0 75 -18 97t-81 22h-32l-11 14l17 153q275 37 483 76l25 -24q-4 -27 -12 -68t-13 -102l16 -9q132 183 287 183l80 -6l10 -25q-40 -247 -51 -467l-192 -10q0 113 -12 151t-50 37q-37 0 -76 -33q-6 -96 -14 -211t-8 -157q0 -66 59 -66q71 0 117 11l12 -17
l-28 -190l-332 12q-66 0 -160 -4t-145 -6l24 178q59 4 82 26t23 80zM135 1214q107 91 383 342h35l147 -206l-4 -35q-66 -35 -132 -72t-144 -79t-156 -89l-45 15z" />
    <glyph glyph-name="Rcommaaccent" unicode="&#x156;" horiz-adv-x="1388" 
d="M639 1081q-23 0 -32 -14t-17 -342l155 -20q70 29 98 73t27 133q0 88 -55 129t-176 41zM348 1325q133 0 379 12q565 0 565 -385q0 -242 -245 -387l127 -213q106 -180 198 -180l23 -33l-19 -149l-317 -23q-86 0 -139 42t-95 145l-127 313h-114v-139q0 -97 19 -116
q19 -18 48 -24t78 -8l10 -16l-20 -172q-280 8 -350 8t-340 -18l18 188q76 12 105 50t28 124v711q0 51 -11 70t-42 20l-47 -2q-12 -2 -25 -2l-20 24l22 162q61 -2 115 -2h176zM567 -344q0 93 -59 156l6 28q118 92 202 91q85 -1 133 -57t48 -158t-91 -216q-91 -115 -251 -207
l-119 95v51q59 43 95 102t36 115z" />
    <glyph glyph-name="rcommaaccent" unicode="&#x157;" horiz-adv-x="911" 
d="M158 274v355q0 75 -18 97t-81 22h-32l-11 14l17 153q275 37 483 76l25 -24q-4 -27 -12 -68t-13 -102l16 -9q132 183 287 183l80 -6l10 -25q-40 -247 -51 -467l-192 -10q0 113 -12 151t-50 37q-37 0 -76 -33q-6 -96 -14 -211t-8 -157q0 -66 59 -66q71 0 117 11l12 -17
l-28 -190l-332 12q-66 0 -160 -4t-145 -6l24 178q59 4 82 26t23 80zM182 -344q0 93 -59 156l6 28q118 92 202 91q85 -1 133 -57t48 -158t-91 -216q-91 -115 -251 -207l-119 95v51q59 43 95 102t36 115z" />
    <glyph glyph-name="Rcaron" unicode="&#x158;" horiz-adv-x="1388" 
d="M639 1081q-23 0 -32 -14t-17 -342l155 -20q70 29 98 73t27 133q0 88 -55 129t-176 41zM348 1325q133 0 379 12q565 0 565 -385q0 -242 -245 -387l127 -213q106 -180 198 -180l23 -33l-19 -149l-317 -23q-86 0 -139 42t-95 145l-127 313h-114v-139q0 -97 19 -116
q19 -18 48 -24t78 -8l10 -16l-20 -172q-280 8 -350 8t-340 -18l18 188q76 12 105 50t28 124v711q0 51 -11 70t-42 20l-47 -2q-12 -2 -25 -2l-20 24l22 162q61 -2 115 -2h176zM700 1729q13 4 269 104l47 -14l74 -127q-95 -68 -363 -283h-55q-180 147 -361 283l72 127l47 14
q152 -63 270 -104z" />
    <glyph glyph-name="rcaron" unicode="&#x159;" horiz-adv-x="911" 
d="M158 274v355q0 75 -18 97t-81 22h-32l-11 14l17 153q275 37 483 76l25 -24q-4 -27 -12 -68t-13 -102l16 -9q132 183 287 183l80 -6l10 -25q-40 -247 -51 -467l-192 -10q0 113 -12 151t-50 37q-37 0 -76 -33q-6 -96 -14 -211t-8 -157q0 -66 59 -66q71 0 117 11l12 -17
l-28 -190l-332 12q-66 0 -160 -4t-145 -6l24 178q59 4 82 26t23 80zM309 1055q-160 160 -340 319l92 127l48 15q101 -70 229 -142q107 60 227 142l47 -15l95 -127q-175 -152 -342 -319h-56z" />
    <glyph glyph-name="Sacute" unicode="&#x15a;" horiz-adv-x="1128" 
d="M643 248q63 0 99 22t36 59q0 63 -91 111q-42 22 -94 44t-148 65t-158 103q-62 61 -88 120q-27 59 -27 148q0 88 45 170t128 139q176 121 458 121q126 0 234 -20q107 -20 157 -38l25 -45q-35 -149 -56 -356l-237 -17l-25 17v33q0 143 -149 143q-58 0 -94 -26
q-36 -25 -36 -61q1 -84 154 -146q152 -61 222 -96q233 -119 233 -327q0 -207 -172 -322q-172 -114 -469 -114q-228 0 -404 88l-24 37q31 181 43 338l258 19q0 -209 180 -209zM358 1587q287 107 510 205l33 -10l74 -221l-14 -33q-170 -30 -521 -113l-39 27z" />
    <glyph glyph-name="sacute" unicode="&#x15b;" horiz-adv-x="851" 
d="M532 -1q-86 -24 -197 -24t-214 35q-47 14 -86 35l-21 29q18 120 31 264l164 12q2 -68 48 -114q45 -46 97 -48q96 -1 97 54q0 31 -33 54t-147 69q-232 93 -232 274q0 91 34 153q70 129 250 177t382 2q39 -8 69 -21l19 -35q-7 -43 -17 -109t-20 -173l-164 -8v8
q-2 137 -113 137q-80 0 -80 -61q1 -49 97 -91q193 -83 242 -132q49 -50 63 -92t14 -106t-35 -121q-35 -58 -98 -101q-64 -43 -150 -67zM252 1214q107 91 383 342h35l147 -206l-4 -35q-66 -35 -132 -72t-144 -79t-156 -89l-45 15z" />
    <glyph glyph-name="Scircumflex" unicode="&#x15c;" horiz-adv-x="1128" 
d="M508 248q63 0 99 22t36 59q0 62 -91 111q-42 22 -94 44t-148 65t-158 103q-62 61 -89 120t-27 148q0 88 46 170q45 82 128 139q176 121 458 121q126 0 234 -20q107 -20 157 -38l24 -45q-38 -162 -55 -356l-237 -17l-25 17v33q0 143 -150 143q-57 0 -93 -26
q-36 -25 -36 -61q0 -84 150 -144t222 -97q237 -121 237 -329q0 -207 -172 -321t-469 -114q-228 0 -404 88l-24 37q23 138 43 338l258 19q0 -209 180 -209zM598 1593q-115 -65 -227 -141l-47 14l-95 127q236 212 342 320h56q140 -140 340 -320l-93 -127l-47 -14
q-104 72 -229 141z" />
    <glyph glyph-name="scircumflex" unicode="&#x15d;" horiz-adv-x="851" 
d="M532 -1q-86 -24 -197 -24t-214 35q-47 14 -86 35l-21 29q18 120 31 264l164 12q2 -68 48 -114q45 -46 97 -48q96 -1 97 54q0 31 -33 54t-147 69q-232 93 -232 274q0 91 34 153q70 129 250 177t382 2q39 -8 69 -21l19 -35q-7 -43 -17 -109t-20 -173l-164 -8v8
q-2 137 -113 137q-80 0 -80 -61q1 -49 97 -91q193 -83 242 -132q49 -50 63 -92t14 -106t-35 -121q-35 -58 -98 -101q-64 -43 -150 -67zM446 1237q-115 -65 -227 -141l-47 14l-94 127q200 180 342 319h55q130 -130 340 -319l-92 -127l-47 -14q-111 77 -230 141z" />
    <glyph glyph-name="Scedilla" unicode="&#x15e;" horiz-adv-x="1128" 
d="M303 -396q0 50 100 150h19q2 -57 29.5 -85.5t70.5 -28.5q66 0 66 45t-74 83.5t-104 53.5l41 164q-146 19 -265 77l-24 37q31 181 43 338l258 19q0 -209 180 -209q63 0 99 22.5t36 58.5t-24.5 62.5t-66.5 49t-93.5 44t-109.5 47.5q-138 61 -225 147.5t-87 231.5
q0 198 174 318.5t457 120.5q126 0 234 -20q107 -20 157 -38l25 -45q-40 -170 -56 -356l-237 -17l-25 17v33q0 143 -149 143q-57 0 -93 -25.5t-36 -61.5q0 -59 65 -98.5t193 -88.5q167 -74 258.5 -156.5t91.5 -233.5q0 -200 -172.5 -314t-468.5 -114h-15l-10 -53
q221 -107 221 -219q0 -81 -87.5 -140t-206.5 -59t-154 41t-35 59z" />
    <glyph glyph-name="scedilla" unicode="&#x15f;" horiz-adv-x="851" 
d="M424 -78q221 -107 221 -219q0 -81 -87.5 -140t-206.5 -59t-154 41t-35 66q0 43 100 143h19q2 -57 29.5 -85.5t70.5 -28.5q66 0 65 47q0 49 -178 135l39 155q-160 11 -272 68l-21 29q19 123 31 264l164 12q2 -68 47.5 -115t97.5 -47q96 0 97 54q0 33 -35.5 56t-147.5 68
q-229 92 -229 285q0 155 128.5 247.5t350.5 92.5q161 0 256 -41l19 -35q-7 -43 -17 -109t-20 -173l-164 -8v8q-2 137 -113 137q-37 0 -58.5 -16.5t-21.5 -44.5q0 -49 145.5 -110.5t208 -127t62.5 -181.5t-103.5 -202t-275.5 -106z" />
    <glyph glyph-name="Scaron" unicode="&#x160;" horiz-adv-x="1128" 
d="M643 248q63 0 99 22t36 59q0 63 -91 111q-42 22 -94 44t-148 65t-158 103q-62 61 -88 120q-27 59 -27 148q0 88 45 170t128 139q176 121 458 121q126 0 234 -20q107 -20 157 -38l25 -45q-35 -149 -56 -356l-237 -17l-25 17v33q0 143 -149 143q-58 0 -94 -26
q-36 -25 -36 -61q1 -84 154 -146q152 -61 222 -96q233 -119 233 -327q0 -207 -172 -322q-172 -114 -469 -114q-228 0 -404 88l-24 37q31 181 43 338l258 19q0 -209 180 -209zM588 1729q31 11 268 104l47 -14l74 -127q-95 -68 -363 -283h-55q-191 156 -360 283l71 127l47 14
q159 -66 271 -104z" />
    <glyph glyph-name="scaron" unicode="&#x161;" horiz-adv-x="851" 
d="M532 -1q-86 -24 -197 -24t-214 35q-47 14 -86 35l-21 29q18 120 31 264l164 12q2 -68 48 -114q45 -46 97 -48q96 -1 97 54q0 31 -33 54t-147 69q-232 93 -232 274q0 91 34 153q70 129 250 177t382 2q39 -8 69 -21l19 -35q-7 -43 -17 -109t-20 -173l-164 -8v8
q-2 137 -113 137q-80 0 -80 -61q1 -49 97 -91q193 -83 242 -132q49 -50 63 -92t14 -106t-35 -121q-35 -58 -98 -101q-64 -43 -150 -67zM426 1055q-160 160 -340 319l92 127l47 15q97 -67 230 -142q107 60 227 142l47 -15l94 -127q-148 -129 -342 -319h-55z" />
    <glyph glyph-name="Tcedilla" unicode="&#x162;" horiz-adv-x="1214" 
d="M645 -78q221 -107 221 -219q0 -81 -87.5 -140t-206.5 -59t-154 41t-35 66q0 43 100 143h19q2 -57 29.5 -85.5t70.5 -28.5q66 0 66 45t-74 83.5t-105 53.5l46 178q-53 -2 -114 -4t-118 -6t-119 -8l17 188q126 12 156 37.5t38 57.5t8 79v733q-43 0 -68.5 -11t-47 -56
t-33.5 -211l-254 -17q4 88 8 174t5 180.5t3 182.5l27 29l244 -23h643l248 23l26 -29q0 -110 10 -520l-253 -17q-17 197 -34.5 236t-42 49t-65.5 10q-10 -385 -10 -749q0 -78 23.5 -110t82.5 -32h35q35 0 70 7l10 -13l-18 -192q-268 9 -350 12z" />
    <glyph glyph-name="tcedilla" unicode="&#x163;" horiz-adv-x="684" 
d="M446 -78q222 -108 222 -219q0 -81 -87.5 -140t-207.5 -59q-119 0 -154 41t-35 59q0 26 31 70t70 80h18q2 -57 29.5 -85.5t70.5 -28.5q66 0 66 48t-178 134l41 162q-223 35 -223 249v400q0 74 -20.5 96.5t-84.5 22.5l-33 18l17 145q234 106 450 259l78 -46q-4 -25 -15 -90
t-16 -114l172 6l11 -15l-23 -174l-176 7q-10 -195 -10 -365q0 -135 98 -135q52 0 100 18l33 -82q-155 -162 -229 -196z" />
    <glyph glyph-name="Tcaron" unicode="&#x164;" horiz-adv-x="1214" 
d="M403 344v733q-43 0 -69 -11q-46 -20 -65 -127q-9 -54 -15 -140l-254 -17q4 88 8 174t5 180q1 95 3 183l27 29l244 -23h643l248 23l26 -29q0 -110 10 -520l-253 -17q-17 197 -34 236t-42 49t-66 10q-10 -385 -10 -749q0 -78 24 -110t82 -32h37q33 0 68 7l10 -13l-18 -192
l-416 12q-52 0 -412 -18l17 188q127 12 157 38q30 25 37 57q8 32 8 79zM614 1729q13 4 269 104l47 -14l74 -127q-95 -68 -363 -283h-55q-180 147 -361 283l72 127l47 14q164 -68 270 -104z" />
    <glyph glyph-name="tcaron" unicode="&#x165;" horiz-adv-x="1015" 
d="M1016 1120q-33 -224 -86 -452l-150 -52l-39 13q3 142 -5 279q-9 137 -13 208l274 29zM109 233v400q0 74 -20.5 96.5t-84.5 22.5l-33 18l17 145q234 106 450 259l78 -46q-4 -25 -15 -90t-16 -114l172 6l11 -15l-23 -174l-176 7q-10 -195 -10 -365q0 -135 98 -135
q52 0 100 18l33 -82q-53 -59 -100 -102q-117 -107 -170 -107q-311 0 -311 258z" />
    <glyph glyph-name="Tbar" unicode="&#x166;" horiz-adv-x="1214" 
d="M403 344v172q-33 -2 -40 -2h-117l-23 21l17 118q23 -2 49 -2h114v426q-43 0 -68.5 -11t-47 -56t-33.5 -211l-254 -17q4 88 8 174t5 180.5t3 182.5l27 29l244 -23h643l248 23l26 -29q0 -110 10 -520l-253 -17q-17 197 -34.5 236t-42 49t-65.5 10q-5 -104 -10 -424l147 6
l31 -30l-10 -113h-168v-188q0 -78 23.5 -110t82.5 -32h35q35 0 70 7l10 -13l-18 -192l-416 12q-52 0 -412 -18l17 188q126 12 156 37.5t38 57.5t8 79z" />
    <glyph glyph-name="tbar" unicode="&#x167;" horiz-adv-x="731" 
d="M586 248q52 0 100 18l33 -82q-53 -59 -105 -104q-110 -105 -165 -105q-154 0 -233 65.5t-79 192.5v201q-29 -2 -35 -2h-102l-23 21l17 118q20 -2 43 -2h100v64q0 74 -20.5 96.5t-83.5 22.5l-33 18l16 145q237 107 451 259l78 -46q-4 -25 -15 -90t-16 -114l172 6l10 -15
l-22 -174l-176 7l-9 -179q100 0 181 9l30 -31l-10 -113h-203v-51q0 -135 99 -135z" />
    <glyph glyph-name="Utilde" unicode="&#x168;" horiz-adv-x="1284" 
d="M259 1325h107q94 0 166 3t125 5l-20 -190q-53 -4 -75 -29t-23 -72l-13 -591q0 -99 40 -157t118 -58t113 42t34 138v63l-2 187v368q0 63 -11 87t-42 24l-31 -2q-8 -2 -16 -2l-6 8l22 182q147 -6 206 -6h123q65 0 212 6l-16 -184q-87 -26 -95 -60q-3 -12 -4 -30v-578
q0 -504 -546 -504q-264 1 -384 103t-120 330v626q0 68 -11 90t-47 21l-36 -2q-10 -2 -23 -2l-4 8l20 182q177 -6 239 -6zM565 1552q-49 0 -137 -118h-33l-121 110v33l166 235l35 9q27 1 71 -11t91 -24t89 -24t67 -11q25 0 67 42t68 77h33l120 -111v-33l-166 -235l-34 -8
q-35 1 -163 35q-127 34 -153 34z" />
    <glyph glyph-name="utilde" unicode="&#x169;" horiz-adv-x="1132" 
d="M453 401q0 -127 88 -127q35 0 94 33v355q0 56 -11 69t-63 19h-18l26 168q300 38 457 65l29 -45q-44 -78 -63 -398q-5 -99 -5 -206q1 -33 17 -52q31 -36 110 -3l35 -54q-132 -204 -252 -250q-213 0 -240 150l-22 12q-124 -157 -166 -157q-373 0 -373 278l19 408
q-1 49 -13 67t-47 19l-37 -2h-16l16 170q265 32 465 71l27 -45q-57 -119 -57 -545zM440 1194q-50 0 -137 -119h-33l-120 111v33l165 235l35 8q35 0 163 -34q127 -34 149 -35q51 0 141 118h33l120 -110v-33l-165 -235l-35 -9q-27 0 -71 12t-91 23t-89 23t-65 12z" />
    <glyph glyph-name="Umacron" unicode="&#x16a;" horiz-adv-x="1284" 
d="M259 1325h107q94 0 166 3t125 5l-20 -190q-53 -4 -75 -29t-23 -72l-13 -591q0 -99 40 -157t118 -58t113 42t34 138v63l-2 187v368q0 63 -11 87t-42 24l-31 -2q-8 -2 -16 -2l-6 8l22 182q147 -6 206 -6h123q65 0 212 6l-16 -184q-87 -26 -95 -60q-3 -12 -4 -30v-578
q0 -504 -546 -504q-264 1 -384 103t-120 330v626q0 68 -11 90t-47 21l-36 -2q-10 -2 -23 -2l-4 8l20 182q177 -6 239 -6zM526 1673h203q142 0 254 13l23 -37l-37 -224l-287 -2l-182 -2h-92l-33 31l39 223q57 -2 112 -2z" />
    <glyph glyph-name="umacron" unicode="&#x16b;" horiz-adv-x="1132" 
d="M453 401q0 -127 88 -127q35 0 94 33v355q0 56 -11 69t-63 19h-18l26 168q300 38 457 65l29 -45q-44 -78 -63 -398q-5 -99 -5 -206q1 -33 17 -52q31 -36 110 -3l35 -54q-132 -204 -252 -250q-213 0 -240 150l-22 12q-124 -157 -166 -157q-373 0 -373 278l19 408
q-1 49 -13 67t-47 19l-37 -2h-16l16 170q265 32 465 71l27 -45q-57 -119 -57 -545zM401 1407h203q125 0 254 12l23 -37l-37 -223l-287 -2l-182 -2h-92l-33 31l39 223q57 -2 112 -2z" />
    <glyph glyph-name="Ubreve" unicode="&#x16c;" horiz-adv-x="1284" 
d="M259 1325h107q94 0 166 3t125 5l-20 -190q-53 -4 -75 -29t-23 -72l-13 -591q0 -99 40 -157t118 -58t113 42t34 138v63l-2 187v368q0 63 -11 87t-42 24l-31 -2q-8 -2 -16 -2l-6 8l22 182q147 -6 206 -6h123q65 0 212 6l-16 -184q-87 -26 -95 -60q-3 -12 -4 -30v-578
q0 -504 -546 -504q-264 1 -384 103t-120 330v626q0 68 -11 90t-47 21l-36 -2q-10 -2 -23 -2l-4 8l20 182q177 -6 239 -6zM682 1731q165 0 227 143l56 -14l82 -127q-34 -112 -125 -195q-91 -84 -238 -84t-247 87q-83 76 -120 192l82 127l56 14q62 -143 227 -143z" />
    <glyph glyph-name="ubreve" unicode="&#x16d;" horiz-adv-x="1132" 
d="M453 401q0 -127 88 -127q35 0 94 33v355q0 56 -11 69t-63 19h-18l26 168q300 38 457 65l29 -45q-44 -78 -63 -398q-5 -99 -5 -206q1 -33 17 -52q31 -36 110 -3l35 -54q-132 -204 -252 -250q-213 0 -240 150l-22 12q-124 -157 -166 -157q-373 0 -373 278l19 408
q-1 49 -13 67t-47 19l-37 -2h-16l16 170q265 32 465 71l27 -45q-57 -119 -57 -545zM557 1372q165 0 227 144l56 -15l82 -127q-34 -113 -126 -196t-239 -82q-214 0 -318 176q-30 49 -46 102l81 127l56 15q62 -144 227 -144z" />
    <glyph glyph-name="Uring" unicode="&#x16e;" horiz-adv-x="1284" 
d="M259 1325h107q94 0 166 3t125 5l-20 -190q-53 -4 -75 -29t-23 -72l-13 -591q0 -99 40 -157t118 -58t113 42t34 138v63l-2 187v368q0 63 -11 87t-42 24l-31 -2q-8 -2 -16 -2l-6 8l22 182q147 -6 206 -6h123q65 0 212 6l-16 -184q-87 -26 -95 -60q-3 -12 -4 -30v-578
q0 -504 -546 -504q-264 1 -384 103t-120 330v626q0 68 -11 90t-47 21l-36 -2q-10 -2 -23 -2l-4 8l20 182q177 -6 239 -6zM465 1608q0 94 60 156t165 62t157 -57q52 -58 52 -147q0 -90 -61 -157q-61 -68 -164 -68q-102 0 -156 58q-53 59 -53 153zM758 1608q0 72 -75 72
t-77 -66q0 -42 28 -58t50 -16t48 13t26 55z" />
    <glyph glyph-name="uring" unicode="&#x16f;" horiz-adv-x="1132" 
d="M453 401q0 -127 88 -127q35 0 94 33v355q0 56 -11 69t-63 19h-18l26 168q300 38 457 65l29 -45q-44 -78 -63 -398q-5 -99 -5 -206q1 -33 17 -52q31 -36 110 -3l35 -54q-132 -204 -252 -250q-213 0 -240 150l-22 12q-124 -157 -166 -157q-373 0 -373 278l19 408
q-1 49 -13 67t-47 19l-37 -2h-16l16 170q265 32 465 71l27 -45q-57 -119 -57 -545zM350 1320q0 94 60 158q60 62 167 62q106 0 157 -57q50 -57 50 -148t-62 -158t-163 -67q-102 0 -156 58q-53 58 -53 152zM643 1321q1 72 -75 72t-76 -73q0 -36 27 -52t49 -15q22 -1 49 13
q26 14 26 55z" />
    <glyph glyph-name="Uhungarumlaut" unicode="&#x170;" horiz-adv-x="1284" 
d="M259 1325h107q94 0 166 3t125 5l-20 -190q-53 -4 -75 -29t-23 -72l-13 -591q0 -99 40 -157t118 -58t113 42t34 138v63l-2 187v368q0 63 -11 87t-42 24l-31 -2q-8 -2 -16 -2l-6 8l22 182q147 -6 206 -6h123q65 0 212 6l-16 -184q-87 -26 -95 -60q-3 -12 -4 -30v-578
q0 -504 -546 -504q-264 1 -384 103t-120 330v626q0 68 -11 90t-47 21l-36 -2q-10 -2 -23 -2l-4 8l20 182q177 -6 239 -6zM1186 1606q-183 -114 -355 -226l-38 11l-78 98q102 98 305 311l31 2l135 -166v-30zM780 1606q-161 -100 -354 -226l-39 11l-78 98q102 98 305 311l31 2
l135 -166v-30z" />
    <glyph glyph-name="uhungarumlaut" unicode="&#x171;" horiz-adv-x="1132" 
d="M453 401q0 -127 88 -127q35 0 94 33v355q0 56 -11 69t-63 19h-18l26 168q300 38 457 65l29 -45q-44 -78 -63 -398q-5 -99 -5 -206q1 -33 17 -52q31 -36 110 -3l35 -54q-132 -204 -252 -250q-213 0 -240 150l-22 12q-124 -157 -166 -157q-373 0 -373 278l19 408
q-1 49 -13 67t-47 19l-37 -2h-16l16 170q265 32 465 71l27 -45q-57 -119 -57 -545zM1018 1386q-145 -145 -289 -305h-39l-100 78q41 70 105 173t116 202l29 10l172 -129zM684 1386q-145 -145 -289 -305h-39l-100 78q41 70 110 182t111 193l29 10l172 -129z" />
    <glyph glyph-name="Uogonek" unicode="&#x172;" horiz-adv-x="1284" 
d="M906 1325h124q109 0 256 6l-16 -184q-86 -26 -92.5 -49t-6.5 -41v-578q0 -212 -136 -387t-170 -231t-34 -97t23.5 -63.5t53.5 -22.5q76 0 143 52l51 -80q-100 -100 -213 -146q-123 0 -193.5 48.5t-70.5 125.5t36.5 144t126.5 168q-70 -14 -163 -15q-264 0 -384 102.5
t-120 330.5v626q0 68 -11.5 89.5t-46.5 21.5l-36 -2q-10 -2 -23 -2l-4 8l20 182q177 -6 192 -6h171q78 0 149 3q72 3 125 5l-20 -190q-53 -4 -74.5 -27.5t-23.5 -73.5l-13 -591q0 -102 42 -158.5t118 -56.5t110.5 41.5t34.5 138.5v16l-1 78l-1 524q0 63 -11 87t-42 24
l-31 -2q-8 -2 -16 -2l-6 8l22 182q147 -6 161 -6z" />
    <glyph glyph-name="uogonek" unicode="&#x173;" horiz-adv-x="1132" 
d="M754.5 -445.5q-70.5 48.5 -70.5 125.5t24.5 132.5t110.5 169.5q-141 25 -162 143l-22 12q-122 -157 -166 -157q-184 0 -278.5 70.5t-94.5 207.5l19 408q0 49 -12.5 67.5t-47.5 18.5l-37 -2h-16l16 170q265 32 465 71l27 -45q-57 -119 -57 -545q0 -127 88 -127q35 0 94 33
v355q0 54 -9.5 65.5t-13.5 12.5l-51 10h-18l26 168q300 38 457 65l29 -45q-47 -84 -57.5 -291t-10.5 -313q0 -33 16.5 -52.5t43.5 -19.5t67 17l41 -62q-152 -201 -208 -291.5t-56 -142.5q0 -102 84 -102q69 0 135 51l51 -80q-100 -100 -213 -146q-123 0 -193.5 48.5z" />
    <glyph glyph-name="Wcircumflex" unicode="&#x174;" horiz-adv-x="2043" 
d="M729 1329q122 -4 228 -4h104q235 0 375 10l16 -18l-14 -172q-93 -12 -107 -19q-14 -8 -16 -19t-2 -32q0 -100 104 -731h43q79 357 120 533q42 176 42 213t-11 44t-50 7h-52l-14 20l16 170q159 -6 208 -6h259q41 0 78 2l-14 -178q-33 -10 -48 -32t-34 -81l-283 -1028
l-542 -35l-91 584h-28l-129 -549l-543 -35q-50 231 -82 376t-53 235l-38 171q-66 313 -96 349q-30 37 -71 43l-14 20l18 162q94 -4 181 -4h87q240 0 377 10l15 -18l-13 -172q-95 -12 -111 -22t-16 -70t107 -709h43q162 662 162 721t-22 71t-93 11l-14 20zM1094 1860
q0 6 93 -71t267 -212l-72 -127l-47 -14q-164 68 -270 104q-31 -11 -268 -104l-47 14l-74 127q159 113 362 283h56z" />
    <glyph glyph-name="wcircumflex" unicode="&#x175;" horiz-adv-x="1591" 
d="M590 971q78 -4 146 -4h124q88 0 252 14l4 -10l-22 -180q-56 -11 -66 -19t-10 -26t3 -43l7 -56q9 -76 62 -350h34q23 78 42 155t44 178t25 123q0 21 -7 26t-36 5h-33l-8 15l23 172q86 -4 159 -4h211q37 0 70 2l-19 -181q-51 -8 -64 -20q-14 -12 -28 -61l-213 -707
l-422 -27l-63 404h-35l-74 -377l-432 -27q-72 321 -94 406t-43 172t-35 133q-31 102 -115 104l-4 11l17 172q78 -4 150 -4h71q138 0 317 14l4 -10l-22 -180q-56 -11 -66 -19t-10 -26t3 -43l7 -56q4 -33 12 -72t18 -104q11 -65 32 -174h35q110 429 110 456t-13 29t-63 2
l-8 15zM817 1237q-115 -65 -227 -141l-47 14l-94 127q200 180 342 319h55q130 -130 340 -319l-92 -127l-47 -14q-111 77 -230 141z" />
    <glyph glyph-name="Ycircumflex" unicode="&#x176;" horiz-adv-x="1357" 
d="M20 1327q140 -4 231 -4h109q59 0 336 14l15 -22l-19 -168q-84 0 -84 -51q0 -39 115 -303h29l84 233q45 99 9 116q-17 7 -61 7l-6 12l17 162h323q84 0 232 8l8 -16l-17 -178q-132 -74 -227 -258l-186 -373q-23 -53 -27 -95t-4 -105q0 -64 22 -92t80 -28h37q33 0 68 7
l10 -13l-18 -192l-424 12q-52 0 -412 -18l16 188q130 8 170 38q41 30 41 124v33q0 82 -57 184l-219 407q-61 113 -203 172l-8 13zM778 1860q0 6 94 -71t267 -212l-72 -127l-47 -14q-152 63 -270 104q-13 -4 -269 -104l-47 14l-74 127q139 99 363 283h55z" />
    <glyph glyph-name="ycircumflex" unicode="&#x177;" horiz-adv-x="995" 
d="M612 971q82 -4 156 -4h279l-19 -181q-43 -12 -60 -26t-32 -53l-260 -644q-96 -254 -243 -407q-146 -152 -286 -152q-45 0 -137 87q-37 36 -63 74q-27 38 -27 61l21 38q297 47 428 199q-31 76 -120 310t-179 434q-25 43 -47 58q-23 15 -58 19l-4 11l16 172h148
q157 0 271 6t114 8l4 -10l-22 -180q-48 -5 -62 -15t-14 -33q0 -63 94 -383h37q127 348 127 394q0 20 -7 25t-36 5h-33l-8 15zM557 1237q-115 -65 -227 -141l-47 14l-95 127q226 203 342 319h56q130 -130 340 -319l-92 -127l-48 -14q-114 80 -229 141z" />
    <glyph glyph-name="Ydieresis" unicode="&#x178;" horiz-adv-x="1357" 
d="M20 1327q140 -4 231 -4h109q59 0 336 14l15 -22l-19 -168q-84 0 -84 -51q0 -39 115 -303h29l84 233q45 99 9 116q-17 7 -61 7l-6 12l17 162h323q84 0 232 8l8 -16l-17 -178q-132 -74 -227 -258l-186 -373q-23 -53 -27 -95t-4 -105q0 -64 22 -92t80 -28h37q33 0 68 7
l10 -13l-18 -192l-424 12q-52 0 -412 -18l16 188q130 8 170 38q41 30 41 124v33q0 82 -57 184l-219 407q-61 113 -203 172l-8 13zM543 1403q-162 0 -162 164q0 82 47 130t127 48t122 -43t42 -123t-47 -128t-129 -48zM938 1403q-164 0 -164 164q0 82 47 130t127 48t122 -43
t42 -123t-47 -128t-127 -48z" />
    <glyph glyph-name="Zacute" unicode="&#x179;" horiz-adv-x="1216" 
d="M1126 -6l-878 12l-168 -20l-74 118l668 1006l-158 -20q-119 -24 -145 -57q-25 -31 -33 -71t-10 -106l-258 -18q15 216 30 491l23 23l371 -23h677l52 -110q-139 -186 -338 -477t-344 -519l215 31q142 23 182 168q14 51 20 123l259 18q-38 -252 -48 -524zM449 1587
q280 104 509 205l33 -10l74 -221l-14 -33q-170 -30 -521 -113l-38 27z" />
    <glyph glyph-name="zacute" unicode="&#x17a;" horiz-adv-x="933" 
d="M899 453q-35 -273 -35 -428l-30 -33l-654 8l-123 -14l-53 86l471 704l-106 -14q-116 -12 -144 -38q-27 -25 -37 -56t-12 -80l-133 -10q4 72 9 136t8 132t6 121l16 16l270 -16h527l36 -82q-180 -248 -309 -443q-129 -196 -164 -249l121 18q96 14 140 65t61 166zM303 1214
q107 91 383 342h35l147 -206l-4 -35q-66 -35 -132 -72t-144 -79t-156 -89l-45 15z" />
    <glyph glyph-name="Zdotaccent" unicode="&#x17b;" horiz-adv-x="1216" 
d="M1126 -6l-878 12l-168 -20l-74 118l668 1006l-158 -20q-119 -24 -145 -57q-25 -31 -33 -71t-10 -106l-258 -18q15 216 30 491l23 23l371 -23h677l52 -110q-139 -186 -338 -477t-344 -519l215 31q142 23 182 168q14 51 20 123l259 18q-38 -252 -48 -524zM677 1399
q-194 0 -194 196q-1 95 55 153t151 58t145 -51t49 -146q1 -95 -55 -153t-151 -57z" />
    <glyph glyph-name="zdotaccent" unicode="&#x17c;" horiz-adv-x="933" 
d="M899 453q-35 -273 -35 -428l-30 -33l-654 8l-123 -14l-53 86l471 704l-106 -14q-116 -12 -144 -38q-27 -25 -37 -56t-12 -80l-133 -10q4 72 9 136t8 132t6 121l16 16l270 -16h527l36 -82q-180 -248 -309 -443q-129 -196 -164 -249l121 18q96 14 140 65t61 166zM499 1112
q-194 0 -194 196q0 96 55 154q54 58 150 58t145 -52t49 -146t-54 -152q-56 -58 -151 -58z" />
    <glyph glyph-name="Zcaron" unicode="&#x17d;" horiz-adv-x="1216" 
d="M1126 -6l-878 12l-168 -20l-74 118l668 1006l-158 -20q-119 -24 -145 -57q-25 -31 -33 -71t-10 -106l-258 -18q15 216 30 491l23 23l371 -23h677l52 -110q-139 -186 -338 -477t-344 -519l215 31q142 23 182 168q14 51 20 123l259 18q-38 -252 -48 -524zM678 1729
q31 11 268 104l47 -14l74 -127q-124 -89 -362 -283h-56q-191 156 -360 283l71 127l48 14q164 -68 270 -104z" />
    <glyph glyph-name="zcaron" unicode="&#x17e;" horiz-adv-x="933" 
d="M899 453q-35 -273 -35 -428l-30 -33l-654 8l-123 -14l-53 86l471 704l-106 -14q-116 -12 -144 -38q-27 -25 -37 -56t-12 -80l-133 -10q4 72 9 136t8 132t6 121l16 16l270 -16h527l36 -82q-180 -248 -309 -443q-129 -196 -164 -249l121 18q96 14 140 65t61 166zM477 1055
q-160 160 -340 319l92 127l47 15q97 -67 230 -142q107 60 227 142l47 -15l94 -127q-148 -129 -342 -319h-55z" />
    <glyph glyph-name="florin" unicode="&#x192;" horiz-adv-x="927" 
d="M299 786q0 141 130 257t239.5 149t184.5 33t132 -14.5t57 -31.5q0 -29 -30.5 -124t-50.5 -127l-37 -6q-53 47 -87 64.5t-81 17.5q-96 0 -107 -160l-8 -88h233l11 -17l-21 -141h-233l-19 -395q-10 -168 -78 -287t-168 -185.5t-216 -66.5q-69 0 -115.5 24.5t-65 42
t-18.5 37.5q0 44 29 122.5t61 119.5h37q8 -57 40 -93t82 -36t72.5 48t22.5 165l-2 420q-4 49 -39 66.5t-135 17.5l-6 12l16 121l170 27v28z" />
    <glyph glyph-name="Aringacute" unicode="&#x1fa;" horiz-adv-x="1384" 
d="M420 1896q251 96 459 185l30 -8l66 -199l-12 -31q-224 -37 -469 -100l-35 24zM692 1389q-92 0 -139 52t-47 137t54 141.5t152 56.5t140.5 -55t42.5 -111q0 -99 -55.5 -160t-147.5 -61zM768 1577q0 65 -68 65t-67 -59q0 -39 24.5 -52t47.5 -13q63 0 63 59zM657 616
q59 0 107 5l-70 358h-45l-96 -363h104zM822 216q3 11 3 27t-4 42l-12 80q-82 4 -146 4t-176 -11l-20 -90q-6 -36 -6 -54t11 -25t52 -7h54l16 -20l-16 -170l-79 2l-421 2h-88l14 178q74 18 105 113l325 1028l539 33l31 -25q108 -438 140 -559t61 -241.5t51 -200.5
q22 -79 49.5 -110.5t74.5 -35.5l15 -20l-17 -162q-51 0 -102 2l-186 2q-107 0 -392 -10l-16 18l12 172q95 12 110 19.5t18 18.5z" />
    <glyph glyph-name="aringacute" unicode="&#x1fb;" horiz-adv-x="1011" 
d="M240 1544q270 103 458 185l31 -9l66 -198l-13 -31q-72 -11 -144 -27t-155.5 -33.5t-169.5 -39.5l-34 24zM326 1222q0 85 54 141t151 56t140.5 -54.5t43.5 -110.5q0 -100 -56.5 -161t-147.5 -61t-138 52.5t-47 137.5zM588 1221q0 65 -68 65t-67 -59q0 -39 24.5 -52.5
t44.5 -13.5q66 0 66 60zM367 344q0 -35 21.5 -66.5t56.5 -31.5t104 12l2 176l-148 -33q-23 -4 -29.5 -13t-6.5 -44zM330 -16q-132 0 -219.5 100.5t-87.5 247.5q0 68 35.5 117t95.5 61l401 74v2q0 70 -45 108.5t-129 38.5t-229 -88l-25 12l-51 164q326 170 434 170
q204 0 301.5 -83t97.5 -214q0 -39 -22.5 -190.5t-22.5 -177.5t16.5 -45t44.5 -19t68 17l35 -56q-132 -225 -221 -248q-102 0 -161.5 39t-70.5 111l-24 10q-151 -151 -221 -151z" />
    <glyph glyph-name="AEacute" unicode="&#x1fc;" horiz-adv-x="1921" 
d="M698 672l103 18l-29 289h-45l-117 -315zM834 252v44q0 13 -3 36l-10 117l-153 -27l-158 -47l-33 -109q-12 -42 -12 -60t20 -21t93 -3l14 -20l-14 -170l-404 6l-115 -2h-49l-6 178q74 18 117 113l340 800q-5 33 -17 45t-36 13l-35 -2q-8 -2 -19 -2l-24 28l18 162
q294 -6 421 -6h259q318 0 498 10t209 15l26 -33q-34 -180 -47 -408l-282 -18q0 14 2 29l2 47q0 68 -39 90t-121 22t-96 -10t-15 -39l39 -268l150 26l207 54l34 -35l-24 -238l-197 -24l-133 -25l23 -149q20 -137 112 -138q120 0 157 39q38 39 58 181l262 18l25 -31
q-38 -226 -57 -422l-31 -32q-98 2 -252 8t-405 6h-86q-320 -10 -351 -12l-14 18l12 172q86 10 113 26q27 18 27 48zM823 1573q168 142 383 342h35l148 -207l-5 -35q-66 -35 -132 -72t-144 -79t-156 -88l-45 14z" />
    <glyph glyph-name="aeacute" unicode="&#x1fd;" horiz-adv-x="1411" 
d="M950 758q-98 0 -102 -109v-59l156 24q31 2 30 25q0 119 -84 119zM408 403q-29 -4 -40 -17q-12 -13 -12 -51t22 -64t71 -25t100 22q-25 70 -29 152zM924 288q48 -44 137 -44q149 0 258 59l18 -10l45 -152q-121 -94 -216 -130t-154 -36q-287 0 -410 183
q-195 -174 -289 -174q-122 0 -211 97q-90 97 -90 241q0 78 43 133t115 65l350 47v19q0 70 -45 108t-127 39q-82 0 -231 -88l-25 12l-51 164q330 172 426 170q139 0 254 -98q113 98 292 98t272 -105t93 -296l-2 -60q-2 -12 -2 -22l-24 -21l-490 -45q16 -110 64 -154z
M518 1214q107 91 383 342h35l147 -206l-4 -35q-66 -35 -132 -72t-144 -79t-156 -89l-45 15z" />
    <glyph glyph-name="Oslashacute" unicode="&#x1fe;" horiz-adv-x="1341" 
d="M842 546q0 305 -41 414t-135 109t-130 -75q-36 -74 -36 -234q0 -304 41 -416q41 -111 134 -111t130 76q37 77 37 237zM31 646q0 339 171 521t498 183q154 0 271 -43l155 233l199 -110l4 -27l-158 -234q139 -165 139 -493t-172 -514q-173 -186 -497 -187q-133 0 -242 35
l-163 -250l-195 113l-8 21l162 243q-164 170 -164 509zM399 1614q287 107 510 205l33 -11l74 -221l-15 -33q-182 -32 -520 -112l-39 26z" />
    <glyph glyph-name="oslashacute" unicode="&#x1ff;" horiz-adv-x="1042" 
d="M535 195q42 0 63 41q20 41 20 149t-5 177q-10 136 -50 167q-20 16 -62 16t-63 -40q-20 -41 -20 -147t5 -177q5 -70 17 -111t32 -58t63 -17zM545 991q92 0 166 -20l176 272l198 -110l5 -27l-175 -266q99 -124 99 -354t-135 -370t-379 -141q-88 0 -156 21l-184 -279
l-195 113l-8 20l184 271q-113 125 -113 359t137 372q136 139 380 139zM340 1214q107 91 383 342h35l147 -206l-4 -35q-66 -35 -132 -72t-144 -79t-156 -89l-45 15z" />
    <glyph glyph-name="Scommaaccent" unicode="&#x218;" horiz-adv-x="1128" 
d="M643 248q63 0 99 22t36 59q0 63 -91 111q-42 22 -94 44t-148 65t-158 103q-62 61 -88 120q-27 59 -27 148q0 88 45 170t128 139q176 121 458 121q126 0 234 -20q107 -20 157 -38l25 -45q-35 -149 -56 -356l-237 -17l-25 17v33q0 143 -149 143q-58 0 -94 -26
q-36 -25 -36 -61q1 -84 154 -146q152 -61 222 -96q233 -119 233 -327q0 -207 -172 -322q-172 -114 -469 -114q-228 0 -404 88l-24 37q31 181 43 338l258 19q0 -209 180 -209zM702 -284q0 -102 -91 -216q-91 -115 -251 -207l-118 95v51q59 43 95 102t36 107q0 99 -60 164
l6 28q118 92 202 91q85 -1 133 -57t48 -158z" />
    <glyph glyph-name="scommaaccent" unicode="&#x219;" horiz-adv-x="851" 
d="M532 -1q-86 -24 -197 -24t-214 35q-47 14 -86 35l-21 29q18 120 31 264l164 12q2 -68 48 -114q45 -46 97 -48q96 -1 97 54q0 31 -33 54t-147 69q-232 93 -232 274q0 91 34 153q70 129 250 177t382 2q39 -8 69 -21l19 -35q-7 -43 -17 -109t-20 -173l-164 -8v8
q-2 137 -113 137q-80 0 -80 -61q1 -49 97 -91q193 -83 242 -132q49 -50 63 -92t14 -106t-35 -121q-35 -58 -98 -101q-64 -43 -150 -67zM608 -284q0 -102 -91 -216q-91 -115 -251 -207l-119 95v51q59 43 96 102q36 59 36 107q0 99 -60 164l6 28q118 92 202 91q85 -1 133 -57
t48 -158z" />
    <glyph glyph-name="uni021A" unicode="&#x21a;" horiz-adv-x="1214" 
d="M403 344v733q-43 0 -69 -11q-46 -20 -65 -127q-9 -54 -15 -140l-254 -17q4 88 8 174t5 180q1 95 3 183l27 29l244 -23h643l248 23l26 -29q0 -110 10 -520l-253 -17q-17 197 -34 236t-42 49t-66 10q-10 -385 -10 -749q0 -78 24 -110t82 -32h37q33 0 68 7l10 -13l-18 -192
l-416 12q-52 0 -412 -18l17 188q127 12 157 38q30 25 37 57q8 32 8 79zM782 -284q0 -102 -91 -216q-91 -115 -251 -207l-118 95v51q59 43 95 102t36 107q0 99 -60 164l6 28q118 92 202 91q85 -1 133 -57t48 -158z" />
    <glyph glyph-name="uni021B" unicode="&#x21b;" horiz-adv-x="684" 
d="M557 248q52 0 100 18l33 -82q-53 -59 -100 -102q-117 -107 -170 -107q-154 0 -233 66t-78 192v400q-1 75 -21 97t-84 22l-33 18l17 145q234 106 450 259l78 -46q-4 -25 -14 -83t-17 -121l172 6l11 -15l-23 -174l-176 7q-10 -195 -10 -365q0 -135 98 -135zM256 -344
q0 93 -59 156l6 28q118 92 202 91q85 -1 133 -57t48 -158t-91 -216q-91 -115 -251 -207l-119 95v51q59 43 95 102t36 115z" />
    <glyph glyph-name="dotlessj" unicode="&#x237;" horiz-adv-x="616" 
d="M150 633q0 119 -54 119q-40 0 -54.5 -3.5t-25.5 -3.5l17 166q125 16 269 41t226 39l27 -45q-55 -127 -55 -975q0 -141 -110.5 -270.5t-297.5 -208.5l-96 88l4 31q90 90 120 184t30 273v565z" />
    <glyph glyph-name="circumflex" unicode="&#x2c6;" 
d="M406 1237q-121 -68 -228 -141l-47 14l-94 127q200 180 342 319h55q133 -133 340 -319l-92 -127l-47 -14q-78 54 -229 141z" />
    <glyph glyph-name="caron" unicode="&#x2c7;" 
d="M377 1055q-133 133 -340 319l92 127l47 15q97 -67 230 -142q107 60 227 142l47 -15l94 -127q-148 -129 -342 -319h-55z" />
    <glyph glyph-name="breve" unicode="&#x2d8;" 
d="M407.5 1372q75.5 0 136 36t91.5 108l55 -15l82 -127q-34 -113 -125 -195.5t-270.5 -82.5t-248.5 112.5t-85 165.5l82 127l55 15q31 -72 91.5 -108t136 -36z" />
    <glyph glyph-name="dotaccent" unicode="&#x2d9;" 
d="M400 1112q-193 0 -193 196q0 96 54.5 154t150.5 58t145 -51.5t49 -146.5t-55.5 -152.5t-150.5 -57.5z" />
    <glyph glyph-name="ring" unicode="&#x2da;" 
d="M190 1321q0 94 60.5 156.5t165.5 62.5t157 -58t52 -147t-61.5 -157t-164.5 -68q-102 0 -155.5 58.5t-53.5 152.5zM483 1321q1 72 -75 72t-76 -66q0 -43 28 -58.5t50 -15.5t47.5 13.5t25.5 54.5z" />
    <glyph glyph-name="ogonek" unicode="&#x2db;" 
d="M365 -246q0 -31 22.5 -53.5t53.5 -22.5q76 0 143 52l51 -80q-100 -100 -213 -146q-123 0 -193.5 48t-70.5 130t58 169t206 235h137q-165 -213 -179.5 -257t-14.5 -75z" />
    <glyph glyph-name="tilde" unicode="&#x2dc;" 
d="M359.5 1182.5q-41.5 11.5 -67.5 11.5t-68 -43t-66 -76h-33l-121 111v33l166 235l35 8q30 0 161.5 -34.5t155.5 -34.5q25 0 67 42t68 76h33l121 -110v-33l-166 -235l-35 -9q-27 0 -70.5 11.5t-91 23.5t-89 23.5z" />
    <glyph glyph-name="hungarumlaut" unicode="&#x2dd;" 
d="M805 1386q-168 -168 -289 -305h-39l-100 78q41 70 105 173.5t116 201.5l29 10l172 -129zM471 1386q-145 -145 -289 -305h-39l-100 78q41 70 110 182t111 193l29 10l172 -129z" />
    <glyph glyph-name="dotbelowcomb" unicode="&#x323;" horiz-adv-x="487" 
d="M237 -475q-95 0 -144.5 50t-49.5 146t55.5 153.5t150.5 57.5t144 -51t49 -146t-55 -152.5t-150 -57.5z" />
    <glyph glyph-name="Delta" unicode="&#x394;" horiz-adv-x="1382" 
d="M647 1018l-182 -739h366l-137 739h-47zM997 1350q175 -768 361 -1336l-19 -14h-1290l-24 27l409 1288l543 35h20z" />
    <glyph glyph-name="Delta" unicode="&#x2206;" horiz-adv-x="1382" 
d="M647 1018l-182 -739h366l-137 739h-47zM997 1350q175 -768 361 -1336l-19 -14h-1290l-24 27l409 1288l543 35h20z" />
    <glyph glyph-name="Omega" unicode="&#x3a9;" horiz-adv-x="1771" 
d="M1755 254v-215l-43 -45l-594 12l-147 -20l-56 166q95 87 121.5 183t26.5 322t-34 319t-127 93t-137 -69.5t-44 -221.5q0 -287 31 -419t112 -207l-53 -166l-147 20l-605 -12l-43 45l-6 465l215 18q10 -147 46 -214.5t114 -78.5l109 -18q-242 230 -242 541q0 264 182 431
t466 167q285 0 458.5 -148.5t173.5 -390.5q0 -184 -63.5 -328.5t-200.5 -273.5l118 20q70 10 106 73t52 202l217 18q-6 -264 -6 -268z" />
    <glyph glyph-name="Omega" unicode="&#x2126;" horiz-adv-x="1771" 
d="M1755 254v-215l-43 -45l-594 12l-147 -20l-56 166q95 87 121.5 183t26.5 322t-34 319t-127 93t-137 -69.5t-44 -221.5q0 -287 31 -419t112 -207l-53 -166l-147 20l-605 -12l-43 45l-6 465l215 18q10 -147 46 -214.5t114 -78.5l109 -18q-242 230 -242 541q0 264 182 431
t466 167q285 0 458.5 -148.5t173.5 -390.5q0 -184 -63.5 -328.5t-200.5 -273.5l118 20q70 10 106 73t52 202l217 18q-6 -264 -6 -268z" />
    <glyph glyph-name="pi" unicode="&#x3c0;" horiz-adv-x="1316" 
d="M575 -24q0 -15 5 -80l-23 -31l-340 -58l-20 35q24 96 24 840q0 55 -9 74.5t-37 19.5q-46 0 -142 -67l-21 -2l-73 141l4 18l184 154l31 14q146 0 319.5 -7t256.5 -10t195 -3t355 20l12 -14l-32 -197l-15 -14q-102 0 -126.5 -16.5t-33 -37.5t-12.5 -47q-16 -102 -16 -218
q0 -115 6 -144t28.5 -49.5t116.5 -20.5l31 -49q0 -33 -106.5 -142.5t-143.5 -109.5q-147 0 -213.5 64.5t-66.5 204.5l2 469q0 53 -13.5 71.5t-54.5 18.5t-53 -12.5t-14 -63.5l-1 -125z" />
    <glyph glyph-name="Wgrave" unicode="&#x1e80;" horiz-adv-x="2043" 
d="M729 1329q122 -4 228 -4h104q235 0 375 10l16 -18l-14 -172q-93 -12 -107 -19q-14 -8 -16 -19t-2 -32q0 -100 104 -731h43q79 357 120 533q42 176 42 213t-11 44t-50 7h-52l-14 20l16 170q159 -6 208 -6h259q41 0 78 2l-14 -178q-33 -10 -48 -32t-34 -81l-283 -1028
l-542 -35l-91 584h-28l-129 -549l-543 -35q-50 231 -82 376t-53 235l-38 171q-66 313 -96 349q-30 37 -71 43l-14 20l18 162q94 -4 181 -4h87q240 0 377 10l15 -18l-13 -172q-95 -12 -111 -22t-16 -70t107 -709h43q162 662 162 721t-22 71t-93 11l-14 20zM793 1792
q286 -124 510 -205l-43 -145l-39 -27q-95 23 -189 43t-174 38t-158 32l-14 33l74 221z" />
    <glyph glyph-name="wgrave" unicode="&#x1e81;" horiz-adv-x="1591" 
d="M590 971q78 -4 146 -4h124q88 0 252 14l4 -10l-22 -180q-56 -11 -66 -19t-10 -26t3 -43l7 -56q9 -76 62 -350h34q23 78 42 155t44 178t25 123q0 21 -7 26t-36 5h-33l-8 15l23 172q86 -4 159 -4h211q37 0 70 2l-19 -181q-51 -8 -64 -20q-14 -12 -28 -61l-213 -707
l-422 -27l-63 404h-35l-74 -377l-432 -27q-72 321 -94 406t-43 172t-35 133q-31 102 -115 104l-4 11l17 172q78 -4 150 -4h71q138 0 317 14l4 -10l-22 -180q-56 -11 -66 -19t-10 -26t3 -43l7 -56q4 -33 12 -72t18 -104q11 -65 32 -174h35q110 429 110 456t-13 29t-63 2
l-8 15zM694 1556q140 -130 383 -342l-84 -124l-45 -15q-80 47 -156 89t-144 79q-67 37 -132 72l-4 35l147 206h35z" />
    <glyph glyph-name="Wacute" unicode="&#x1e82;" horiz-adv-x="2043" 
d="M729 1329q122 -4 228 -4h104q235 0 375 10l16 -18l-14 -172q-93 -12 -107 -19q-14 -8 -16 -19t-2 -32q0 -100 104 -731h43q79 357 120 533q42 176 42 213t-11 44t-50 7h-52l-14 20l16 170q159 -6 208 -6h259q41 0 78 2l-14 -178q-33 -10 -48 -32t-34 -81l-283 -1028
l-542 -35l-91 584h-28l-129 -549l-543 -35q-50 231 -82 376t-53 235l-38 171q-66 313 -96 349q-30 37 -71 43l-14 20l18 162q94 -4 181 -4h87q240 0 377 10l15 -18l-13 -172q-95 -12 -111 -22t-16 -70t107 -709h43q162 662 162 721t-22 71t-93 11l-14 20zM831 1587
q287 107 510 205l33 -10l74 -221l-14 -33q-170 -30 -521 -113l-39 27z" />
    <glyph glyph-name="wacute" unicode="&#x1e83;" horiz-adv-x="1591" 
d="M590 971q78 -4 146 -4h124q88 0 252 14l4 -10l-22 -180q-56 -11 -66 -19t-10 -26t3 -43l7 -56q9 -76 62 -350h34q23 78 42 155t44 178t25 123q0 21 -7 26t-36 5h-33l-8 15l23 172q86 -4 159 -4h211q37 0 70 2l-19 -181q-51 -8 -64 -20q-14 -12 -28 -61l-213 -707
l-422 -27l-63 404h-35l-74 -377l-432 -27q-72 321 -94 406t-43 172t-35 133q-31 102 -115 104l-4 11l17 172q78 -4 150 -4h71q138 0 317 14l4 -10l-22 -180q-56 -11 -66 -19t-10 -26t3 -43l7 -56q4 -33 12 -72t18 -104q11 -65 32 -174h35q110 429 110 456t-13 29t-63 2
l-8 15zM608 1214q107 91 383 342h35l148 -206l-5 -35q-66 -35 -132 -72t-144 -79t-156 -89l-45 15z" />
    <glyph glyph-name="Wdieresis" unicode="&#x1e84;" horiz-adv-x="2043" 
d="M729 1329q122 -4 228 -4h104q235 0 375 10l16 -18l-14 -172q-93 -12 -107 -19q-14 -8 -16 -19t-2 -32q0 -100 104 -731h43q79 357 120 533q42 176 42 213t-11 44t-50 7h-52l-14 20l16 170q159 -6 208 -6h259q41 0 78 2l-14 -178q-33 -10 -48 -32t-34 -81l-283 -1028
l-542 -35l-91 584h-28l-129 -549l-543 -35q-50 231 -82 376t-53 235l-38 171q-66 313 -96 349q-30 37 -71 43l-14 20l18 162q94 -4 181 -4h87q240 0 377 10l15 -18l-13 -172q-95 -12 -111 -22t-16 -70t107 -709h43q162 662 162 721t-22 71t-93 11l-14 20zM858 1403
q-162 0 -162 164q0 82 47 130t127 48t122 -43t42 -123t-47 -128t-129 -48zM1253 1403q-164 0 -163 164q0 82 47 130t127 48t122 -43t41 -123q0 -80 -47 -128t-127 -48z" />
    <glyph glyph-name="wdieresis" unicode="&#x1e85;" horiz-adv-x="1591" 
d="M590 971q78 -4 146 -4h124q88 0 252 14l4 -10l-22 -180q-56 -11 -66 -19t-10 -26t3 -43l7 -56q9 -76 62 -350h34q23 78 42 155t44 178t25 123q0 21 -7 26t-36 5h-33l-8 15l23 172q86 -4 159 -4h211q37 0 70 2l-19 -181q-51 -8 -64 -20q-14 -12 -28 -61l-213 -707
l-422 -27l-63 404h-35l-74 -377l-432 -27q-72 321 -94 406t-43 172t-35 133q-31 102 -115 104l-4 11l17 172q78 -4 150 -4h71q138 0 317 14l4 -10l-22 -180q-56 -11 -66 -19t-10 -26t3 -43l7 -56q4 -33 12 -72t18 -104q11 -65 32 -174h35q110 429 110 456t-13 29t-63 2
l-8 15zM608 1145q-162 0 -162 164q0 82 48 130t127 48t121 -43t42 -123t-47 -128t-129 -48zM1004 1145q-164 0 -164 164q0 82 47 130t127 48t122 -43t42 -123t-47 -128t-127 -48z" />
    <glyph glyph-name="Ygrave" unicode="&#x1ef2;" horiz-adv-x="1357" 
d="M20 1327q140 -4 231 -4h109q59 0 336 14l15 -22l-19 -168q-84 0 -84 -51q0 -39 115 -303h29l84 233q45 99 9 116q-17 7 -61 7l-6 12l17 162h323q84 0 232 8l8 -16l-17 -178q-132 -74 -227 -258l-186 -373q-23 -53 -27 -95t-4 -105q0 -64 22 -92t80 -28h37q33 0 68 7
l10 -13l-18 -192l-424 12q-52 0 -412 -18l16 188q130 8 170 38q41 30 41 124v33q0 82 -57 184l-219 407q-61 113 -203 172l-8 13zM477 1792q274 -119 510 -205l-43 -145l-39 -27q-96 23 -189 43t-173 38t-158 32l-14 33l73 221z" />
    <glyph glyph-name="ygrave" unicode="&#x1ef3;" horiz-adv-x="995" 
d="M612 971q82 -4 156 -4h279l-19 -181q-43 -12 -60 -26t-32 -53l-260 -644q-96 -254 -243 -407q-146 -152 -286 -152q-45 0 -137 87q-37 36 -63 74q-27 38 -27 61l21 38q297 47 428 199q-31 76 -120 310t-179 434q-25 43 -47 58q-23 15 -58 19l-4 11l16 172h148
q157 0 271 6t114 8l4 -10l-22 -180q-48 -5 -62 -15t-14 -33q0 -63 94 -383h37q127 348 127 394q0 20 -7 25t-36 5h-33l-8 15zM434 1556q140 -130 383 -342l-84 -124l-45 -15q-80 47 -157 89t-143 79t-132 72l-4 35l147 206h35z" />
    <glyph glyph-name="endash" unicode="&#x2013;" horiz-adv-x="917" 
d="M-2 659h443q443 0 483 5l20 -39l-29 -217l-917 -2l-23 38z" />
    <glyph glyph-name="emdash" unicode="&#x2014;" horiz-adv-x="1699" 
d="M1552 659q114 0 154 5l20 -39l-28 -217l-1700 -2l-23 38l23 215h1554z" />
    <glyph glyph-name="quoteleft" unicode="&#x2018;" horiz-adv-x="538" 
d="M387 969q0 -73 59 -138l-6 -28q-115 -90 -201 -90t-134 56t-48 158t91.5 216t250.5 207l119 -95v-51q-131 -96 -131 -235z" />
    <glyph glyph-name="quoteright" unicode="&#x2019;" horiz-adv-x="538" 
d="M152 1092q0 74 -60 139l6 29q116 90 202 90q85 0 133 -57t48 -159t-92 -216.5t-250 -204.5l-119 94v51q132 91 132 234z" />
    <glyph glyph-name="quotesinglbase" unicode="&#x201a;" horiz-adv-x="487" 
d="M115 113q0 93 -60 155l6 29q115 90 201 90t134 -56.5t48 -158.5t-91 -216t-251 -206l-118 94v52q59 43 95 102t36 115z" />
    <glyph glyph-name="quotedblleft" unicode="&#x201c;" horiz-adv-x="978" 
d="M387 969q0 -73 59 -138l-6 -28q-115 -90 -201 -90t-134 56t-48 158t91.5 216t250.5 207l119 -95v-51q-131 -96 -131 -235zM827 987q0 -92 60 -156l-6 -28q-115 -90 -201 -90t-134 56t-48 158t91 216t251 207l118 -95v-51q-59 -43 -95 -102.5t-36 -114.5z" />
    <glyph glyph-name="quotedblright" unicode="&#x201d;" horiz-adv-x="978" 
d="M152 1092q0 74 -60 139l6 29q116 90 202 90q85 0 133 -57t48 -159t-92 -216.5t-250 -204.5l-119 94v51q132 91 132 234zM592 1092q0 74 -60 139l7 29q116 90 202 90q85 0 133 -57t48 -159t-92.5 -216.5t-249.5 -204.5l-119 94v51q131 91 131 234z" />
    <glyph glyph-name="quotedblbase" unicode="&#x201e;" horiz-adv-x="915" 
d="M543 113q0 93 -60 155l6 29q115 90 201 90t134 -56.5t48 -158.5t-91 -216t-251 -206l-118 94v52q59 43 95 102t36 115zM115 113q0 93 -60 155l6 29q115 90 201 90t134 -56.5t48 -158.5t-91 -216t-251 -206l-118 94v52q59 43 95 102t36 115z" />
    <glyph glyph-name="dagger" unicode="&#x2020;" horiz-adv-x="1095" 
d="M688 1194l-6 -320l315 11l21 -29l-23 -231h-317l2 -799l-250 -14l-20 18l2 793h-316l-18 20l22 234l312 -3v326l247 14z" />
    <glyph glyph-name="daggerdbl" unicode="&#x2021;" horiz-adv-x="1095" 
d="M678 637v-248l319 10l21 -28l-23 -232h-317l2 -313l-250 -14l-20 18v307h-314l-18 21l22 233l310 -2l2 246h-316l-18 20l22 234l312 -2v313l247 14l29 -20l-6 -307l315 10l21 -29l-23 -231h-317z" />
    <glyph glyph-name="bullet" unicode="&#x2022;" horiz-adv-x="696" 
d="M340 223q-127 0 -192.5 66.5t-65.5 195.5t73.5 205t199.5 76t191.5 -67.5t65.5 -195.5t-72.5 -204t-199.5 -76z" />
    <glyph glyph-name="onedotenleader" unicode="&#x2024;" horiz-adv-x="487" 
d="M237 -18q-95 0 -144.5 50t-49.5 146t55.5 153.5t150.5 57.5t144 -51t49 -146t-55 -152.5t-150 -57.5z" />
    <glyph glyph-name="twodotenleader" unicode="&#x2025;" horiz-adv-x="958" 
d="M708 -18q-95 0 -144.5 50t-49.5 146t55.5 153.5t150.5 57.5t144 -51t49 -146t-55 -152.5t-150 -57.5zM237 -18q-95 0 -144.5 50t-49.5 146t55.5 153.5t150.5 57.5t144 -51t49 -146t-55 -152.5t-150 -57.5z" />
    <glyph glyph-name="ellipsis" unicode="&#x2026;" horiz-adv-x="1429" 
d="M237 -18q-95 0 -144.5 50t-49.5 146t55.5 153.5t150.5 57.5t144 -51t49 -146t-55 -152.5t-150 -57.5zM1179 -18q-95 0 -144.5 50t-49.5 146t55.5 153.5t150.5 57.5t144 -51t49 -146t-55 -152.5t-150 -57.5zM708 -18q-95 0 -144.5 50t-49.5 146t55.5 153.5t150.5 57.5
t144 -51t49 -146t-55 -152.5t-150 -57.5z" />
    <glyph glyph-name="perthousand" unicode="&#x2030;" horiz-adv-x="2244" 
d="M1307 1276q-106 -162 -178 -275q-145 -228 -216 -334t-188 -289q-116 -183 -208 -328q-91 -144 -150 -236l-191 71l-12 35q134 185 397 598l547 873l178 -66zM1936 731q308 -1 309 -367q0 -192 -91.5 -290.5t-237.5 -98.5t-230 88.5t-84 278.5t94 289.5t240 99.5z
M1929 258q80 0 115 20.5t35 65.5q0 96 -166 96q-78 0 -113 -19.5t-35 -66.5q0 -96 164 -96zM1244 731q308 -1 308 -367q0 -192 -91 -290.5t-237 -98.5t-230.5 88.5t-84.5 278.5t94.5 289.5t240.5 99.5zM1237 258q80 0 114.5 20.5t34.5 65.5q0 96 -165 96q-78 0 -113 -19.5
t-35 -66.5q0 -96 164 -96zM334 1350q308 0 309 -367q0 -193 -91.5 -291t-237.5 -98t-230 88t-84 278t94 290t240 100zM328 877q80 0 114.5 20.5t34.5 65.5q0 96 -166 96q-78 0 -112.5 -19.5t-34.5 -66.5q0 -96 164 -96z" />
    <glyph glyph-name="guilsinglleft" unicode="&#x2039;" horiz-adv-x="552" 
d="M340 475q71 -145 141 -268l-14 -47l-127 -74q-53 66 -109.5 129.5t-106.5 120.5t-104 113v55q54 54 104 112t106.5 120.5t109.5 127.5l127 -71l14 -48q-73 -124 -141 -270z" />
    <glyph glyph-name="guilsinglright" unicode="&#x203a;" horiz-adv-x="552" 
d="M213 475q-76 156 -141 268l14 48l127 73q53 -66 109.5 -129t106.5 -121t103 -112v-56q-53 -55 -103 -112t-106.5 -120.5t-109.5 -127.5l-127 72l-14 47q54 92 141 270z" />
    <glyph glyph-name="fraction" unicode="&#x2044;" horiz-adv-x="382" 
d="M735 1276q-106 -162 -178 -275t-118 -184.5t-142.5 -217t-269.5 -419.5t-232 -366l-190 71l-13 35q117 162 224.5 329t173.5 269l547 873l178 -66z" />
    <glyph glyph-name="zero.sups" unicode="&#x2070;" horiz-adv-x="727" 
d="M231 1070q0 -76 34 -108t105 -32q70 0 98 30t28 105q0 76 -34 109q-34 32 -104 32t-98 -30t-29 -106zM350 653q-297 0 -297 400q0 211 85 325t243 113q293 0 293 -404q0 -211 -83 -323t-241 -111z" />
    <glyph glyph-name="four.sups" unicode="&#x2074;" horiz-adv-x="747" 
d="M336 1016v166h-17l-104 -166h121zM332 775q0 30 2 65l-318 4l2 147l347 496l14 4l217 -18v-457h92l17 -21l-17 -166l-90 2q0 -65 8 -145l-18 -16l-248 -17l-14 17q6 75 6 105z" />
    <glyph glyph-name="five.sups" unicode="&#x2075;" horiz-adv-x="659" 
d="M537 1100q73 -58 73 -164t-134 -194q-134 -89 -308 -89q-74 0 -106 43t-42 152l35 35q61 -27 126 -27q66 0 101 18q34 18 33 48q0 31 -50 48t-173 31l-12 17q22 282 26 422l11 10l299 8q41 0 59 12t29 43l119 7l-41 -256l-29 -29q-195 10 -262 10l-4 -53q176 -35 250 -92
z" />
    <glyph glyph-name="six.sups" unicode="&#x2076;" horiz-adv-x="712" 
d="M358 827q36 1 52 21t16 71q0 101 -61 101q-45 0 -74 -19l-2 -55q0 -119 69 -119zM350 653q-150 0 -231 83q-82 83 -82 227q0 261 258 419q113 70 260 109l20 -8l46 -121q-80 -28 -146 -78q-67 -49 -106 -94l8 -16q42 9 72 22q104 0 167 -63q64 -63 64 -193t-90 -208
q-90 -79 -240 -79z" />
    <glyph glyph-name="seven.sups" unicode="&#x2077;" horiz-adv-x="655" 
d="M174 1475h383l86 -103q-39 -84 -81 -174q-67 -144 -142 -336l-55 -207h-43l-187 56l-16 39l266 516l-117 -13q-62 -8 -81 -24t-31 -86l-127 -8q14 125 19 204q5 78 9 136l11 6q75 -6 106 -6z" />
    <glyph glyph-name="eight.sups" unicode="&#x2078;" horiz-adv-x="708" 
d="M426 1253q0 66 -66 66q-59 0 -59 -49q0 -29 31 -48t76 -38q18 36 18 69zM264 900q0 -42 22 -64t56 -23q63 0 64 53q0 28 -38 50t-92 49q-12 -23 -12 -65zM41 852q0 130 125 178q-115 91 -115 205t92 185t219 71q128 0 208 -61q81 -61 79 -142q0 -105 -110 -168
q120 -74 119 -194t-93 -195q-92 -76 -225 -77q-132 -1 -216 59q-83 59 -83 139z" />
    <glyph glyph-name="nine.sups" unicode="&#x2079;" horiz-adv-x="712" 
d="M287 1227q0 -105 56 -105q42 0 77 19q4 28 4 55q0 121 -70 121q-37 -1 -52 -21t-15 -69zM33 1202q0 129 90 209q89 80 239 80t232 -83t82 -226q0 -263 -260 -422q-113 -70 -258 -109l-21 11l-45 120q78 26 145 75q66 50 107 97l-8 17q-18 -6 -36 -10t-36 -15
q-104 0 -168 64t-63 192z" />
    <glyph glyph-name="n.sups" unicode="&#x207f;" horiz-adv-x="862" 
d="M494.5 1105.5q-11.5 18.5 -38.5 18.5t-55 -22q-7 -75 -10.5 -140t-5.5 -92.5t-2 -41.5q0 -30 33 -31h18l4 -6l-16 -127l-178 6q-78 0 -127 -3q-50 -3 -82 -3l18 127q41 2 56.5 16t15.5 53v225q0 49 -13.5 63.5t-54.5 14.5h-24l-6 11l12 110q66 10 168.5 24t181.5 29
l19 -16l-19 -102l12 -7q114 125 146 125q239 0 239 -178l-32 -321q0 -47 37 -47h22q6 0 10 2l4 -7l-16 -122l-47 2l-250 2h-70l13 127q23 4 33 16t12 43l2 184q2 49 -9.5 67.5z" />
    <glyph glyph-name="zero.sinf" unicode="&#x2080;" horiz-adv-x="727" 
d="M370 16q70 0 98 30t28 106t-34 108t-104 33q-70 0 -98 -31q-28 -32 -29 -106q0 -74 34 -107t105 -33zM350 -260q-297 0 -297 399q0 211 85 325t243 114q293 0 293 -404q0 -210 -83 -322t-241 -112z" />
    <glyph glyph-name="one.sinf" unicode="&#x2081;" horiz-adv-x="579" 
d="M483 -115h41q8 0 19 2l6 -8l-21 -131q-172 8 -246 8q-73 0 -139 -6q-65 -6 -112 -8l12 119q65 5 95 27t30 63v377q0 47 -12 62t-54 16l-43 -3h-22l-12 15l10 108q53 4 100 10t124 14q77 7 127 14t73 10l22 4l25 -66q-39 -28 -57 -95t-19 -444q0 -88 53 -88z" />
    <glyph glyph-name="two.sinf" unicode="&#x2082;" horiz-adv-x="772" 
d="M55 422q131 156 331 156q104 0 180 -58t77 -149q0 -92 -42 -164t-91 -127t-119 -123l6 -12h64q53 -1 77 27t27 98l178 12q-32 -220 -36 -315l-27 -27q-384 16 -485 16l-142 -8l-14 150l192 198q66 72 93 112t24 73q0 55 -72 55t-157 -90h-27z" />
    <glyph glyph-name="three.sinf" unicode="&#x2083;" horiz-adv-x="673" 
d="M426 213q203 -69 203 -197q0 -114 -138 -196t-317 -80q-76 0 -106 43t-41 151l34 35q59 -27 132 -26q133 0 133 71q0 56 -150 58l-18 22l-17 135l92 17q76 29 76 94q0 45 -57 45t-143 -55h-23l-49 151q141 97 325 97q88 0 154 -46q68 -46 68 -115q0 -71 -43 -119
t-115 -69v-16z" />
    <glyph glyph-name="four.sinf" unicode="&#x2084;" horiz-adv-x="747" 
d="M336 102v166h-17l-104 -166h121zM332 -138q0 30 2 64l-318 4l2 148l347 495l14 5l217 -19v-457h92l17 -20l-17 -166l-90 2q0 -65 8 -145l-18 -17l-248 -16l-14 16q6 76 6 106z" />
    <glyph glyph-name="five.sinf" unicode="&#x2085;" horiz-adv-x="659" 
d="M610 27q0 -55 -37 -107t-98 -93q-136 -89 -307 -87q-74 0 -106 43t-42 151l35 35q58 -26 125 -26t102 18q34 18 33 47q0 31 -50 48t-173 32l-12 16q22 282 26 422l11 11l299 8q41 0 59 12t29 43l119 6l-41 -256l-29 -28q-195 10 -262 10l-4 -53q175 -35 249 -93t74 -159z
" />
    <glyph glyph-name="six.sinf" unicode="&#x2086;" horiz-adv-x="712" 
d="M358 -86q37 0 53 20q15 20 15 72q0 100 -61 100q-45 0 -74 -18l-2 -55q0 -119 69 -119zM350 -260q-150 0 -231 83q-82 83 -82 226q0 257 258 420q113 70 260 109l20 -9l46 -120q-148 -52 -252 -173l8 -16q44 10 72 23q104 1 167 -63q64 -64 64 -193t-90 -208t-240 -79z
" />
    <glyph glyph-name="seven.sinf" unicode="&#x2087;" horiz-adv-x="655" 
d="M174 561h383l86 -102q-150 -324 -223 -510l-55 -207h-43l-187 55l-16 39l266 516l-117 -12q-63 -8 -81 -25q-19 -17 -31 -86l-127 -8q13 123 19 202q5 80 9 138l11 6q75 -6 106 -6z" />
    <glyph glyph-name="eight.sinf" unicode="&#x2088;" horiz-adv-x="708" 
d="M426 340q0 66 -66 66q-59 -1 -59 -50q0 -29 31 -48t76 -38q18 36 18 70zM264 -14q0 -42 22 -64t56 -22q63 0 64 53q0 29 -38 51t-92 47q-12 -24 -12 -65zM539 207q120 -74 119 -194t-95 -196q-94 -77 -225 -77q-132 0 -214 59q-83 59 -83 140q0 79 39 119t86 59
q-115 91 -115 205t90 184t219 71q128 1 210 -61q81 -62 79 -141q0 -108 -110 -168z" />
    <glyph glyph-name="nine.sinf" unicode="&#x2089;" horiz-adv-x="712" 
d="M287 313q0 -104 56 -104q38 0 77 18q4 28 4 56q0 121 -70 120q-37 0 -52 -20t-15 -70zM33 288q0 130 90 210q89 80 239 80t232 -83t82 -227q0 -258 -260 -422q-113 -70 -258 -108l-21 10l-45 121q78 26 145 75q66 50 107 97l-8 16q-18 -6 -36 -10t-36 -14q-104 0 -168 63
q-63 63 -63 192z" />
    <glyph glyph-name="franc" unicode="&#x20a3;" horiz-adv-x="1017" 
d="M689 387q19 0 81 4l10 -12l-6 -123h-225q2 -45 16.5 -59.5t59.5 -14.5t84 15l30 -33l-22 -168q-63 0 -121 2l-180 2h-70.5t-73.5 -2t-93.5 -5t-115.5 -7l17 157q57 6 77.5 30t26.5 83h-121l-12 10l17 121h118l2 406q0 53 -8 69.5t-35 16.5l-28 -2h-15l-22 24l16 135
q43 -2 94 -2l205 -2h117q307 0 483 19l25 -27q-25 -193 -29 -305l-256 -14q0 10 2 20l2 35q0 35 -25.5 48t-73.5 13t-58.5 -8t-12.5 -31l-6 -137l135 -2q31 0 179 8l22 -24l-18 -185q-35 0 -72 2l-127 2q-33 0 -63.5 -3t-63.5 -5l-2 -51h136z" />
    <glyph glyph-name="Euro" unicode="&#x20ac;" horiz-adv-x="1138" 
d="M683 834q-67 0 -105.5 -29t-55.5 -96l238 8l16 -17l-12 -139l-256 -2v-33q0 -32 2 -49h6l244 8l16 -16l-12 -139l-229 -2q43 -127 157 -127q68 0 101.5 42t44.5 146l245 17q-4 -55 -13 -151t-9 -187l-21 -25q-174 -59 -383 -59q-412 0 -497 344h-148l-16 12l18 137h127
v33q0 33 2 49h-131l-16 12l18 138h158q53 166 196.5 253t366.5 87q150 0 352 -41l15 -33q-38 -136 -49 -336l-246 -14v26l2 64q0 66 -29.5 92.5t-96.5 26.5z" />
    <glyph glyph-name="trademark" unicode="&#x2122;" horiz-adv-x="1175" 
d="M156 963v258q-23 0 -31 -22.5t-12 -82.5l-115 -8l6 215l10 10l105 -8h258l104 8l13 -10v-139q0 -37 2 -68l-115 -8q-4 72 -10 92.5t-31 20.5l-2 -258q0 -53 43 -54h15q14 0 26 4l4 -6l-8 -78q-37 0 -70 2l-104 3q-23 0 -176 -9l6 78q49 4 65.5 16.5t16.5 43.5zM526 1329
q58 -4 67 -4h77q67 0 125 4q13 -110 45 -213h12q8 23 53 209q150 0 172 2l51 2h23l6 -2l-6 -76q-35 0 -44 -7.5t-9 -27.5t2 -51.5t5.5 -89.5t8.5 -97q6 -40 13.5 -54.5t25.5 -14.5h25l6 -6l-6 -72h-31l-62 3h-27q-28 0 -58.5 -1.5t-56 -2.5t-30.5 -3l11 76q23 4 32 11.5
t9 25.5v86q0 27 2 57h-13q-8 -20 -19 -56t-26.5 -86t-29.5 -107l-119 -9l-76 258h-10v-149q0 -27 26 -27h13q4 0 8 2l8 -6l-10 -72h-53l-72 3l-100 -7l6 76q43 2 45 47l4 35q4 39 14 120.5t10 108.5q0 26 -5 28.5t-42 6.5l-8 6z" />
    <glyph glyph-name="estimated" unicode="&#x212e;" horiz-adv-x="1632" 
d="M1317 1057q0 25 -21 45q-190 190 -460 190t-457 -196q-20 -20 -21 -47v-365q0 -10 11 -10h938q10 0 10 10v373zM369 637q-10 0 -11 -8v-371q0 -20 19 -43q86 -92 205.5 -145.5t261.5 -53.5t267.5 59.5t213.5 164.5h111q-104 -121 -260 -193t-325 -72t-306 53.5
t-240.5 145.5t-163 215t-59.5 264.5t59.5 265t163 216t240.5 145.5t292.5 53t293 -53t240 -145.5t161.5 -216t59 -265.5v-16h-1222z" />
    <glyph glyph-name="partialdiff" unicode="&#x2202;" horiz-adv-x="1046" 
d="M618 428q0 140 -24 262q-29 21 -68 21t-58 -8.5t-30.5 -34t-14.5 -73.5t-3 -170t25.5 -178.5t82.5 -56.5q56 0 73 49t17 189zM1016 524q0 -260 -135.5 -406.5t-370.5 -146.5t-358 120t-123 347t105.5 377t268.5 150q40 -24 82 -45l9 18q-66 98 -175.5 191.5t-277.5 203.5
l104 166l33 17q388 -157 613 -423t225 -569z" />
    <glyph glyph-name="product" unicode="&#x220f;" horiz-adv-x="1470" 
d="M1423 -8q-296 8 -337 8t-326 -10l16 174q70 16 92.5 48.5t22.5 119.5v682q0 84 -31 97t-40 13h-115q-57 0 -78 -22.5t-25 -83.5q-20 -376 -20 -580t11 -232t53 -28t48 6l17 -20l-19 -172q-329 9 -409 6.5t-132.5 -3.5t-87.5 -3l-34 -2l16 174q78 15 100.5 41t27.5 55
t5 72v708q0 63 -14 84t-58 21l-34 -2h-19l-18 28l20 164q175 -10 326 -10h713q164 0 352 10l-14 -184q-70 -12 -91.5 -31t-25.5 -76q-21 -323 -21 -725q0 -86 13 -113.5t41 -27.5h26q27 0 51 6l17 -20z" />
    <glyph glyph-name="summation" unicode="&#x2211;" horiz-adv-x="1234" 
d="M1176 528q-39 -286 -39 -489l-43 -45l-873 12l-168 -20l-73 139l415 506l-379 608l37 90h94l570 -2l370 23l23 -23q2 -66 4 -143.5t6 -153.5t8 -156l-245 -34q-4 119 -45 175t-144 72l-196 29l254 -407v-88l-342 -412l313 45q92 10 135 69.5t60 186.5z" />
    <glyph glyph-name="minus" unicode="&#x2212;" horiz-adv-x="1036" 
d="M233 662h304q200 0 452 12l15 -31l-27 -278l-766 -5h-162l-18 27l37 277q84 -2 165 -2z" />
    <glyph glyph-name="radical" unicode="&#x221a;" horiz-adv-x="1032" 
d="M295 -25q-155 638 -168 689q-12 50 -44 72t-106 20l-4 8l21 176q39 2 76 6t76.5 8t78.5 9l189 24l12 -14q9 -82 19 -140.5t32.5 -192.5t59.5 -343h34l312 1182l57 41h238l-441 -1520z" />
    <glyph glyph-name="infinity" unicode="&#x221e;" horiz-adv-x="1073" 
d="M841.5 594q-30.5 29 -82.5 29t-97 -35q35 -66 63.5 -112t69.5 -46q78 0 77 88q0 47 -30.5 76zM307 414q44 0 94 30q-27 55 -52 94.5t-66 39.5q-68 0 -68 -78q0 -86 92 -86zM805 879q111 0 183.5 -98.5t72.5 -255.5t-95 -269.5t-239 -112.5q-96 0 -153.5 44t-96.5 106
q-29 -53 -78 -95t-119 -42q-122 0 -195 94.5t-73 245.5t88 260.5t215 109.5q96 0 159 -43t108 -102q70 158 223 158z" />
    <glyph glyph-name="integral" unicode="&#x222b;" horiz-adv-x="927" 
d="M838 1225q88 0 145 -14.5t57 -31.5q0 -29 -31 -125.5t-51 -125.5l-36 -6q-53 47 -87 64.5t-81 17.5q-96 0 -107 -160l-35 -641q-12 -225 -146.5 -382t-315.5 -157q-69 0 -115.5 24.5t-65 42t-18.5 37.5q0 44 29 122.5t61 119.5h37q8 -57 40 -93t82 -36t72.5 48t22.5 165
l2 692q0 78 49 157t128 141.5t177.5 101.5t186.5 39z" />
    <glyph glyph-name="approxequal" unicode="&#x2248;" horiz-adv-x="1036" 
d="M614.5 396.5q55.5 -11.5 89.5 -11.5t89 42t88 77h32l101 -115v-33l-219 -235l-45 -8q-44 0 -213.5 34.5t-204.5 34.5t-91 -43q-55 -43 -87 -76h-33l-101 115v33l220 235l45 9q35 0 93 -11.5t119.5 -23.5t117 -23.5zM334 592q-61 0 -180 -119h-33l-101 115v33l220 235
l45 8q43 0 212.5 -34.5t206.5 -34.5t90 42q54 42 87 76h32l101 -114v-33l-219 -236l-45 -8q-35 0 -93.5 11.5t-120 23.5t-116.5 23.5t-86 11.5z" />
    <glyph glyph-name="notequal" unicode="&#x2260;" horiz-adv-x="1036" 
d="M262 156h-219l-18 26l36 277q45 -2 99 -2h215l16 110l-237 -2h-111l-18 27l36 276q57 -2 121 -2h252l39 254l236 21l14 -17l-39 -256q141 0 299 11l14 -31l-26 -279l-332 -2l-16 -110q115 0 203.5 5t122.5 6l34 1l14 -31l-26 -278l-330 -2h-66l-32 -221l-238 -23l-8 18
l33 226q-55 -2 -68 -2z" />
    <glyph glyph-name="lessequal" unicode="&#x2264;" horiz-adv-x="962" 
d="M541 0q322 0 329 4l21 -39l-29 -217l-774 -2l-22 39l22 215h453zM90 408v313l365 158q199 84 309 143l37 -23l69 -215q-57 -23 -160 -64t-180 -75l-184 -80v-16l209 -100q53 -25 107.5 -48.5t99.5 -44.5t90 -39l18 -43l-114 -188q-41 16 -86 39q-67 26 -197 90l-367 162z
" />
    <glyph glyph-name="greaterequal" unicode="&#x2265;" horiz-adv-x="962" 
d="M535 0q322 0 329 4l21 -39l-29 -217l-774 -2l-23 39l23 215h453zM870 700v-313l-364 -158q-59 -27 -145 -64t-164 -79l-37 23l-70 215q57 23 145 58t195 81l184 80v16l-208 100l-203 91q-49 23 -94 41l-19 43l115 188q91 -42 159 -72t123 -57l367 -162z" />
    <glyph glyph-name="lozenge" unicode="&#x25ca;" horiz-adv-x="1110" 
d="M338 557l102 -225l121 -252h17l213 493l-103 236l-123 254h-16l-105 -238zM82 616l154 334l159 369l312 14l26 -14l158 -365l158 -327l-2 -105l-144 -313l-170 -385l-309 -14l-31 14l-151 348l-160 344v100z" />
    <glyph glyph-name="acute.cap" 
d="M139 1587q266 99 510 205l33 -10l74 -221l-15 -33q-179 -31 -520 -113l-39 27z" />
    <glyph glyph-name="breve.cap" 
d="M407.5 1659q75.5 0 136 36t91.5 107l55 -14l82 -127q-35 -115 -126 -197t-270.5 -82t-248 113t-84.5 166l82 127l55 14q31 -72 91.5 -107.5t136 -35.5z" />
    <glyph glyph-name="circumflex.cap" 
d="M436 1860q0 6 128 -98.5t233 -184.5l-72 -127l-47 -14q-164 68 -270 104q-13 -4 -269 -104l-47 14l-74 127q139 99 363 283h55z" />
    <glyph glyph-name="dieresis.cap" 
d="M203 1403q-162 0 -162 164q0 82 47 130t127 48t122 -43t42 -123t-47 -128t-129 -48zM598 1403q-164 0 -164 164q0 82 47 130t127 48t122 -43t42 -123t-47 -128t-127 -48z" />
    <glyph glyph-name="grave.cap" 
d="M164 1792q274 -119 510 -205l-43 -145l-39 -27q-275 66 -520 113l-15 33l74 221z" />
    <glyph glyph-name="macron.cap" 
d="M254 1673h203q142 0 254 13l22 -37l-37 -224l-286 -2l-183 -2h-92l-33 31l39 223q57 -2 113 -2z" />
    <glyph glyph-name="ring.cap" 
d="M190 1607.5q0 94.5 60.5 157t165.5 62.5t157 -58t52 -147t-61.5 -157t-164.5 -68q-102 0 -155.5 58t-53.5 152.5zM483 1608q1 72 -75 72t-76 -74q0 -36 28 -51t50 -15t47.5 13.5t25.5 54.5z" />
    <glyph glyph-name="tilde.cap" 
d="M612 1432q-30 0 -161.5 34.5t-156.5 34.5q-26 0 -68 -43t-66 -76h-33l-121 111v33l166 235l35 8q32 0 162 -34.5t155 -34.5t67 42t68 77h33l121 -111v-33l-166 -235z" />
    <glyph glyph-name="caron.cap" 
d="M408 1729q63 22 268 104l47 -14l74 -127q-95 -68 -363 -283h-55q-213 175 -361 283l72 127l47 14q169 -70 271 -104z" />
    <glyph glyph-name="dotaccent.cap" 
d="M400 1399q-193 0 -193 196q0 96 54.5 153.5t150.5 57.5t145 -51t49 -146t-55.5 -152.5t-150.5 -57.5z" />
    <glyph glyph-name="commaaccent" 
d="M258 -326q0 73 -59 138l6 28q115 90 201 90t134 -56t48 -158t-91 -216t-251 -207l-119 95v51q131 96 131 235z" />
    <glyph glyph-name="hungarumlaut.cap" 
d="M915 1606q-161 -100 -354 -226l-39 11l-78 98q97 94 180 180q82 86 126 131l30 2l135 -166v-30zM510 1606q-210 -131 -354 -226l-39 11l-78 98q102 98 305 311l31 2l135 -166v-30z" />
    <glyph glyph-name="f.f" horiz-adv-x="727" 
d="M652 188q13 0 50 5l11 -11l-25 -192l-342 10h-28q-27 0 -59 -2t-75 -4t-81 -5t-74 -5l18 178q61 6 86 30.5t25 81.5v394q-4 47 -31 62t-107 20l-8 12l17 143l129 19q0 392 221 473.5t352 81.5q131 -1 221 -33t131 -55l15 -48l-31 -71q-14 -33 -32.5 -75t-37.5 -89l-28 -8
q-121 121 -293 121q-78 0 -119 -44t-41 -167v-86h445l10 -15l-23 -161h-434l-2 -484q0 -76 63 -76h77z" />
    <glyph glyph-name="f.l" horiz-adv-x="727" 
d="M652 188q13 0 50 5l11 -11l-25 -192l-342 10q-102 0 -180 -6t-137 -10l18 178q61 6 86 30.5t25 81.5v394q-4 47 -31 62t-107 20l-8 12l17 143l129 19q0 278 149 437t414 159q95 0 171 -24q75 -24 109 -44l15 -47l-24 -70t-26 -76.5t-30 -89.5l-29 -8q-54 50 -118 75.5
t-113 25.5q-96 0 -128 -50t-32 -202v-86h76q77 0 164 6l10 -15l-23 -174l-88 2q-88 2 -141 5l-2 -484q0 -76 63 -76h77z" />
    <glyph glyph-name="f.t" horiz-adv-x="727" 
d="M652 188q13 0 50 5l11 -11l-25 -192l-342 10q-102 0 -180 -6t-137 -10l18 178q61 6 86 30.5t25 81.5v394q-4 47 -31 62t-107 20l-8 12l17 143l129 19q0 278 149 437t414 159q126 0 240 -47l14 -48q-11 -35 -23 -69t-26.5 -76.5t-30.5 -89.5l-29 -8q-92 80 -192 80
q-55 0 -87 -14.5t-51.5 -62.5t-19.5 -261h445l10 -15l-23 -161h-434l-2 -484q0 -76 63 -76h77z" />
    <glyph glyph-name="zero.lf" horiz-adv-x="1005" 
d="M512 356q106 0 152.5 53.5t46.5 178.5t-53.5 184t-163.5 59t-155.5 -55t-45.5 -178q0 -242 219 -242zM489 -25q-438 0 -438 598q0 311 125 481.5t344 170.5q434 0 434 -600q0 -311 -123 -480.5t-342 -169.5z" />
    <glyph glyph-name="one.lf" horiz-adv-x="774" 
d="M714 180q7 0 31 4l9 -12l-29 -184l-317 12q-100 0 -208 -8t-175 -12l18 165q96 10 138 42t42 98v581q0 72 -18.5 94.5t-77.5 22.5l-96 -6l-19 20l17 154q166 15 253 26t160 20t181 24l28 4l33 -88q-60 -49 -77 -130q-32 -152 -32 -694q0 -133 80 -133h59z" />
    <glyph glyph-name="two.lf" horiz-adv-x="1050" 
d="M376 893q-114 0 -237 -145h-37l-51 241q86 109 205.5 172.5t223.5 63.5t175.5 -22.5t123.5 -62.5t81 -96.5t29 -158.5t-83.5 -243t-295.5 -361l10 -19h117q78 0 113.5 41t46.5 146l237 18q-43 -243 -55 -455l-35 -37q-588 25 -698 25l-195 -14l-22 200l270 291
q104 117 148.5 190.5t41.5 131.5q1 94 -113 94z" />
    <glyph glyph-name="three.lf" horiz-adv-x="913" 
d="M575 682q293 -101 293 -290q0 -171 -199 -294t-448 -123q-104 0 -146.5 59t-56.5 216l45 47q81 -37 183 -37t158.5 33t56.5 88q0 104 -234 104l-26 31l-21 184l133 27q119 48 119 152q0 35 -24.5 56t-65.5 21q-90 0 -213 -82l-31 -2l-65 211q125 90 252 116t174 26
q156 0 250 -67.5t94 -169.5t-61.5 -176.5t-166.5 -106.5v-23z" />
    <glyph glyph-name="four.lf" horiz-adv-x="1011" 
d="M463 514v270h-23l-172 -270h195zM813 514h141l23 -31l-23 -231q-16 2 -36 2h-36q-36 0 -67 2q5 -128 12 -233l-22 -23l-336 -25l-20 25q8 164 12 266q-184 6 -465 6l2 205l510 744l18 4l287 -25v-686z" />
    <glyph glyph-name="five.lf" horiz-adv-x="892" 
d="M842 402q0 -80 -53.5 -157t-194 -173.5t-383.5 -96.5q-102 0 -147.5 61.5t-55.5 213.5l45 47q75 -37 179 -37t158 32t54 86t-76.5 84t-258.5 50l-19 23q20 229 29 421l10 195l16 16l426 13q59 2 86 18t43 64l162 10l-59 -367l-39 -39q-225 17 -387 17l-8 -107
q375 -67 424 -180.5t49 -193.5z" />
    <glyph glyph-name="six.lf" horiz-adv-x="968" 
d="M494 530q-66 0 -117 -34q-4 -40 -4 -82q0 -199 116 -199q59 0 85 35t26 112q0 168 -106 168zM944 416q0 -205 -130.5 -323t-340.5 -118q-211 0 -326.5 125.5t-115.5 331.5q0 390 370 631q164 106 373 164l27 -15l61 -165q-131 -51 -231.5 -132t-153.5 -159l12 -23l119 43
q154 0 245 -97t91 -263z" />
    <glyph glyph-name="seven.lf" horiz-adv-x="886" 
d="M324 1202h456l117 -143q-237 -525 -338 -789l-78 -293h-55l-254 78l-25 58l400 796l-189 -18q-89 -8 -114 -32.5t-35 -55.5t-19 -80l-170 -12q33 335 41 489l13 10q148 -8 250 -8z" />
    <glyph glyph-name="eight.lf" horiz-adv-x="968" 
d="M494 989q-99 0 -99 -92q0 -45 48.5 -77t117.5 -62q37 53 37 111t-28.5 89t-75.5 31zM342 337q0 -62 36 -101t93 -39q109 0 109 96q0 49 -59.5 85t-139.5 77q-39 -56 -39 -118zM739 670q179 -112 179 -282q0 -185 -132 -299t-323 -114t-307.5 86t-116.5 220q0 180 190 264
q-72 53 -123 129t-51 171q0 172 131.5 277t309.5 105t292.5 -88t114.5 -213q0 -171 -164 -256z" />
    <glyph glyph-name="nine.lf" horiz-adv-x="968" 
d="M475 670q54 0 115 32q6 39 6 84q0 199 -117 199q-59 0 -84.5 -35t-25.5 -112q0 -168 106 -168zM25 784q0 207 130.5 324t341.5 117t326 -125.5t115 -335.5q0 -209 -104 -365t-268 -262q-165 -106 -371 -164l-27 15l-62 166q243 94 383 290l-10 23l-119 -43
q-154 0 -244.5 97t-90.5 263z" />
    <glyph glyph-name="zero.tf" horiz-adv-x="942" 
d="M479 356q100 0 141.5 53.5t41.5 178.5t-48.5 184t-150.5 59t-143 -55t-41 -178q-1 -242 200 -242zM496 1225q409 0 409 -600q0 -311 -117.5 -480.5t-329.5 -169.5q-421 0 -421 598q0 311 119.5 481.5t339.5 170.5z" />
    <glyph glyph-name="one.tf" horiz-adv-x="942" 
d="M820 180q10 0 40 4l8 -12l-30 -184l-349 12q-107 0 -221 -8t-184 -12l18 165q115 10 161 42t46 98v581q0 72 -23.5 94.5t-88.5 22.5l-113 -6l-18 20l18 154l293 29q166 16 266 31.5t102 13.5l33 -88q-69 -48 -87 -130q-32 -152 -32 -694q0 -70 21.5 -101.5t73.5 -31.5h66
z" />
    <glyph glyph-name="two.tf" horiz-adv-x="942" 
d="M323 893q-95 0 -210 -145h-37l-51 241q86 109 197.5 172.5t207.5 63.5t165 -22.5t118 -62.5t76.5 -96.5t27.5 -158t-73.5 -241t-264.5 -363.5l10 -19h82q70 0 100.5 41t39.5 146l239 18q-33 -191 -49 -455l-35 -37q-538 25 -651 25l-190 -14l-21 200l258 291
q90 117 124 190.5t32 131.5q0 94 -95 94z" />
    <glyph glyph-name="three.tf" horiz-adv-x="942" 
d="M590 682q299 -100 299 -290q0 -170 -202 -293.5t-456 -123.5q-106 0 -149 60t-55 215l45 47q80 -37 185 -37t164.5 33t59.5 87t-57 79.5t-186 25.5l-27 31l-21 184l136 27q125 49 125 152q0 35 -26 56t-69 21q-99 0 -219 -82l-31 -2l-65 211q126 91 254.5 116.5
t177.5 25.5q158 0 253 -67.5t95 -169.5t-62.5 -176.5t-168.5 -106.5v-23z" />
    <glyph glyph-name="four.tf" horiz-adv-x="942" 
d="M422 514v270h-23l-147 -270h170zM772 514h129l23 -31l-23 -231q-15 2 -33 2h-32q-33 0 -62 2q5 -128 12 -233l-22 -23l-336 -25l-20 25q8 164 12 266q-175 6 -438 6l2 205l479 744l18 4l291 -25v-686z" />
    <glyph glyph-name="five.tf" horiz-adv-x="942" 
d="M877 402q0 -80 -55.5 -157t-145.5 -137.5t-208 -96.5t-232 -36t-159.5 61.5t-56.5 213.5l46 47q80 -37 187 -37t166.5 32t59.5 86t-82 84t-272 50l-21 23q24 276 31 421l10 195l17 16l440 13q59 2 88 18t45 64l162 10l-61 -367l-37 -39q-234 17 -408 17l-8 -107
q386 -67 440 -180.5t54 -193.5z" />
    <glyph glyph-name="six.tf" horiz-adv-x="942" 
d="M481 530q-61 0 -112 -34q-4 -40 -4 -82q0 -199 110 -199q55 0 80 35t25 112q-1 168 -99 168zM924 416q0 -205 -128 -323t-335 -118t-321.5 124.5t-114.5 334.5q0 385 363 628q161 107 368 165l24 -15l64 -165q-132 -54 -226 -133.5t-147 -157.5l12 -23l113 43
q150 0 239 -97t89 -263z" />
    <glyph glyph-name="seven.tf" horiz-adv-x="942" 
d="M350 1202h475l115 -143q-63 -131 -150.5 -311t-207.5 -478l-80 -293h-56l-253 78l-25 58l422 796l-207 -18q-96 -8 -128 -40t-48 -128l-170 -12q33 335 41 489l14 10q148 -8 258 -8z" />
    <glyph glyph-name="eight.tf" horiz-adv-x="942" 
d="M481 989q-94 0 -94 -92q0 -45 47 -77t113 -62q33 54 33 112q0 57 -27 88t-72 31zM457 197q102 0 102 96q0 49 -56.5 85t-133.5 77q-35 -47 -35 -113t35 -105.5t88 -39.5zM725 670q172 -108 172 -282q0 -182 -128.5 -297.5t-318.5 -115.5t-303.5 87t-113.5 219
q0 180 184 264q-170 125 -170 319q0 152 130 257.5t306 105.5t289 -89t113 -212q0 -168 -160 -256z" />
    <glyph glyph-name="nine.tf" horiz-adv-x="942" 
d="M461 670q52 0 110 32q6 39 7 84q0 199 -111 199q-55 0 -80 -35t-25 -112q1 -168 99 -168zM18 784q0 207 128.5 324t335.5 117t321.5 -125.5t114.5 -334.5q0 -383 -365 -626q-162 -108 -367 -166l-24 15l-64 166q132 57 225 135t146 155l-10 23l-113 -43q-150 0 -239 97
t-89 263z" />
    <glyph glyph-name="zero.tosf" horiz-adv-x="921" 
d="M469 367q111 0 161 32.5t50 104.5q0 152 -231 151q-109 0 -159 -33.5t-50 -105.5q0 -149 229 -149zM479 1055q424 0 424 -523q0 -259 -122 -408t-334 -149t-320.5 133.5t-108.5 389.5t125 406.5t336 150.5z" />
    <glyph glyph-name="one.tosf" horiz-adv-x="921" 
d="M809 180q9 0 39 4l8 -12l-31 -184l-346 12q-130 0 -362 -17l-41 -3l20 165q111 10 157 42t46 98v411q0 72 -23.5 94.5t-87.5 22.5l-110 -6l-19 20l17 154l293 29q168 16 267 31.5t101 13.5l33 -88q-68 -46 -94 -169q-27 -123 -27 -485q1 -133 79 -133h81z" />
    <glyph glyph-name="two.tosf" horiz-adv-x="921" 
d="M362 659q0 92 -86 93q-89 0 -188 -129h-35l-51 213q209 219 440 219q155 0 252 -80t97 -192t-60.5 -212.5t-234.5 -289.5l10 -19h41q72 0 104.5 42t38.5 145l240 18q-43 -288 -53 -455l-33 -37q-604 25 -703 25l-149 -12l-8 102l133 158q145 180 195 265.5t50 145.5z" />
    <glyph glyph-name="three.tosf" horiz-adv-x="921" 
d="M467 1055q156 0 250 -67.5t94 -169.5t-61.5 -174.5t-165.5 -104.5v-23q141 -41 218 -114.5t77 -163.5q0 -167 -208 -300t-464 -133q-104 0 -147.5 61t-55.5 214l45 47q75 -37 185 -37t173.5 31t63.5 87q0 111 -235 111l-27 31l-21 185l134 26q118 48 118 148
q0 35 -24.5 56t-65.5 21q-90 0 -215 -98l-31 -2l-65 211q135 104 258 131t170 27z" />
    <glyph glyph-name="four.tosf" horiz-adv-x="921" 
d="M430 354v260h-22l-152 -260h174zM780 354h129l23 -30l-23 -232q-15 2 -33 2h-32q-33 0 -62 2q3 -72 13 -243l-23 -23l-336 -25l-20 25q6 123 12 276q-205 7 -446 7l2 204l487 734l18 4l291 -25v-676z" />
    <glyph glyph-name="five.tosf" horiz-adv-x="921" 
d="M864 272q0 -90 -57 -174t-209.5 -188.5t-411.5 -104.5q-104 0 -149 61.5t-55 213.5l43 47q80 -37 191 -37q112 0 181.5 32t69.5 87t-81 87t-280 50l-18 23q34 318 47 612l19 16l419 13q59 2 88 18t46 64l161 10l-61 -367l-39 -39q-217 17 -385 17l-16 -103
q266 -46 381.5 -121.5t115.5 -216.5z" />
    <glyph glyph-name="six.tosf" horiz-adv-x="921" 
d="M471 530q-55 0 -109 -34q-4 -40 -4 -82q0 -199 107 -199q53 0 76.5 35t23.5 112q0 168 -94 168zM909 416q0 -206 -127.5 -323.5t-333.5 -117.5q-205 0 -317.5 126t-112.5 331q0 392 361 631q158 106 360 164l27 -15l61 -165q-125 -54 -217 -133.5t-145 -157.5l12 -23
l109 43q147 0 235 -97t88 -263z" />
    <glyph glyph-name="seven.tosf" horiz-adv-x="921" 
d="M338 1030h467l117 -143q-61 -131 -143 -303t-208 -486l-77 -293h-56l-254 78l-26 58l413 796l-198 -18q-94 -8 -119 -32.5t-35 -55.5t-18 -80l-172 -12q31 251 43 489l12 10q148 -8 254 -8z" />
    <glyph glyph-name="eight.tosf" horiz-adv-x="921" 
d="M472 989q-91 0 -91 -92q0 -45 45 -77t111 -62q30 58 30 113q0 56 -25.5 87t-69.5 31zM446 197q98 0 99 96q0 49 -55.5 85t-131.5 77q-30 -47 -30 -113t32.5 -105.5t85.5 -39.5zM715 670q168 -111 168 -282q0 -184 -128 -298.5t-314 -114.5t-300 85.5t-114 220.5
q0 182 180 264q-166 126 -166 319q0 151 127.5 257t303.5 106q175 0 286.5 -88t111.5 -213q0 -167 -155 -256z" />
    <glyph glyph-name="nine.tosf" horiz-adv-x="921" 
d="M451 500q48 0 106 32q6 39 6 84q0 199 -106 199q-53 0 -77 -35t-24 -112q1 -168 95 -168zM12 614q0 207 128.5 324t332.5 117t317 -125t113 -332q0 -389 -360 -631q-158 -106 -361 -164l-26 15l-62 166q124 53 215.5 133t145.5 157l-11 23l-108 -43q-147 0 -235.5 97.5
t-88.5 262.5z" />
    <glyph glyph-name="caron.alt" 
d="M553 1530q-33 -226 -86 -453l-150 -51l-38 12q3 131 -6 274q-9 142 -13 214l275 28z" />
    <glyph glyph-name="zero.numr" horiz-adv-x="727" 
d="M370 780q70 0 98 30t28 106t-34 108q-34 33 -104 33t-98 -31q-28 -32 -29 -106q0 -74 34 -107t105 -33zM350 504q-297 0 -297 399q0 211 85 325t243 113q293 0 293 -403q0 -210 -83 -322t-241 -112z" />
    <glyph glyph-name="one.numr" horiz-adv-x="579" 
d="M483 649h41q8 0 19 2l6 -8l-21 -131q-172 8 -246 8q-73 0 -139 -6q-65 -6 -112 -8l12 119q65 5 95 27t30 63v377q0 47 -12 62t-54 15l-43 -2h-22l-12 15l10 108q53 4 100 10t130 14t127 15q44 6 67 9l22 3l25 -65q-39 -28 -57 -95t-19 -444q0 -88 53 -88z" />
    <glyph glyph-name="two.numr" horiz-adv-x="772" 
d="M55 1186q131 155 331 155q104 0 180 -57t77 -151q0 -140 -133 -289q-49 -55 -119 -123l6 -12h64q53 -1 77 27t27 98l178 12q-32 -220 -36 -316l-27 -26q-384 16 -485 16l-142 -8l-14 150l192 198q66 72 93 112t24 72q0 56 -72 56t-157 -90h-27z" />
    <glyph glyph-name="three.numr" horiz-adv-x="673" 
d="M426 977q203 -69 203 -197q0 -114 -138 -196t-317 -80q-76 0 -106 43t-41 151l34 35q59 -27 132 -26q133 0 133 71q0 56 -150 58l-18 22l-17 135l92 17q76 29 76 94q0 45 -57 45t-143 -55h-23l-49 151q69 47 153 72q205 61 326 -21q68 -45 68 -115q0 -71 -43 -119
t-115 -69v-16z" />
    <glyph glyph-name="four.numr" horiz-adv-x="747" 
d="M336 866v166h-17l-104 -166h121zM332 626q0 30 2 64l-318 4l2 148l347 495l14 4l217 -18v-457h92l17 -20l-17 -166l-90 2q0 -65 8 -145l-18 -17l-248 -16l-14 16q6 76 6 106z" />
    <glyph glyph-name="five.numr" horiz-adv-x="659" 
d="M610 791q0 -55 -37 -107t-98 -93q-136 -89 -307 -87q-74 0 -106 43t-42 151l35 35q59 -26 125 -26q67 0 102 18q34 18 33 47q0 31 -50 48t-173 32l-12 16q22 282 26 422l11 10l299 9q41 0 59 12t29 43l119 6l-41 -256l-29 -29q-214 11 -262 11l-4 -54q175 -35 249 -92
t74 -159z" />
    <glyph glyph-name="six.numr" horiz-adv-x="712" 
d="M358 678q37 0 53 20q15 20 15 72q0 100 -61 100q-45 0 -74 -18l-2 -55q0 -119 69 -119zM350 504q-150 0 -231 83q-82 83 -82 226q0 257 258 420q113 70 260 108l20 -8l46 -121q-80 -28 -146 -78q-67 -49 -106 -94l8 -16q44 10 72 23q104 1 167 -63q64 -64 64 -193
t-90 -208t-240 -79z" />
    <glyph glyph-name="seven.numr" horiz-adv-x="655" 
d="M174 1325h383l86 -102q-150 -324 -223 -510l-55 -207h-43l-187 55l-16 39l266 516l-117 -12q-63 -8 -81 -25q-19 -17 -31 -86l-127 -8q13 123 19 202q5 80 9 138l11 6q75 -6 106 -6z" />
    <glyph glyph-name="eight.numr" horiz-adv-x="708" 
d="M426 1104q0 66 -66 65q-59 0 -59 -49q0 -29 31 -48t76 -38q18 36 18 70zM264 750q0 -42 22 -64t56 -22q63 0 64 53q0 29 -38 51t-92 47q-12 -24 -12 -65zM539 971q120 -74 119 -194t-95 -196q-94 -77 -225 -77q-132 0 -214 59q-83 59 -83 140q0 79 39 119t86 59
q-115 91 -115 205t91 184q91 71 219 71t209 -61t79 -141q0 -108 -110 -168z" />
    <glyph glyph-name="nine.numr" horiz-adv-x="712" 
d="M287 1077q0 -104 56 -104q38 0 77 18q4 28 4 56q0 121 -70 120q-37 0 -52 -20t-15 -70zM33 1052q0 130 90 210q89 80 239 80t232 -84q82 -83 82 -226q0 -258 -260 -422q-113 -70 -258 -108l-21 10l-45 121q78 26 145 75q66 50 107 97l-8 16q-18 -6 -36 -10t-36 -14
q-104 0 -168 63q-63 63 -63 192z" />
    <glyph glyph-name="zero.dnom" horiz-adv-x="727" 
d="M370 260q71 0 98.5 29.5t27.5 105.5t-34 109t-104 33t-98.5 -31t-28.5 -106t34 -107.5t105 -32.5zM350 -16q-297 0 -297 399q0 211 85 324.5t243 113.5q293 0 293 -403q0 -211 -83 -322.5t-241 -111.5z" />
    <glyph glyph-name="one.dnom" horiz-adv-x="579" 
d="M483 129h41q8 0 19 2l6 -8l-21 -131q-172 8 -246 8t-138 -6q-66 -6 -113 -8l12 118q125 11 125 91v376q0 47 -12.5 62.5t-53.5 15.5l-43 -2h-22l-12 15l10 108q53 4 100 10t93 10t92.5 9.5t81 10.5t57.5 8l22 3l25 -65q-39 -29 -57 -96t-19 -443q0 -88 53 -88z" />
    <glyph glyph-name="two.dnom" horiz-adv-x="772" 
d="M55 666q131 155 331 155q104 0 180.5 -57t76.5 -152q0 -138 -91 -241t-161 -170l6 -13h64q53 0 76.5 28t27.5 97l178 13q-32 -219 -36 -316l-27 -26q-384 16 -485 16l-142 -8l-14 149l192 199q66 72 92.5 112t24.5 72q0 56 -72 56t-157 -91h-27z" />
    <glyph glyph-name="three.dnom" horiz-adv-x="673" 
d="M426 457q203 -69 203 -197q0 -115 -137.5 -195.5t-317.5 -80.5q-76 0 -106.5 43t-40.5 151l34 35q59 -27 132 -27q133 0 133 72q0 57 -150 57l-18 23l-17 135l92 16q76 29 76 95q0 45 -57 45t-143 -56h-23l-49 152q139 96 325 96q88 0 155 -45.5t67 -115.5t-43 -118
t-115 -69v-16z" />
    <glyph glyph-name="four.dnom" horiz-adv-x="747" 
d="M336 346v166h-17l-104 -166h121zM332 105q0 30 2 65l-318 4l2 148l347 495l14 4l217 -18v-457h92l17 -20l-17 -166l-90 2q0 -66 8 -146l-18 -16l-248 -16l-14 16q6 75 6 105z" />
    <glyph glyph-name="five.dnom" horiz-adv-x="659" 
d="M536.5 429.5q73.5 -57.5 73.5 -164.5t-134 -194t-308 -87q-74 0 -105.5 43t-42.5 151l35 35q61 -27 126 -27q66 0 100 18.5t34 48.5t-50 47t-173 32l-12 16q22 282 26 422l11 10l299 8q41 0 59.5 12.5t28.5 43.5l119 6l-41 -256l-29 -29q-195 10 -262 10l-4 -53
q176 -35 249.5 -92.5z" />
    <glyph glyph-name="six.dnom" horiz-adv-x="712" 
d="M426 250q0 100 -61 100q-45 0 -74 -18l-2 -56q0 -119 69 -118q37 0 52.5 20.5t15.5 71.5zM680 270q0 -128 -90 -207t-240 -79t-231.5 83t-81.5 226q0 257 258 420q113 70 260 108l20 -8l46 -121q-80 -28 -146.5 -77.5t-105.5 -94.5l8 -16q42 9 72 22q104 0 167.5 -64
t63.5 -192z" />
    <glyph glyph-name="seven.dnom" horiz-adv-x="655" 
d="M150 805h407l86 -103q-39 -84 -82 -176.5t-141 -332.5l-55 -207h-43l-187 55l-16 39l266 516l-117 -12q-61 -8 -80 -25t-32 -86l-127 -8q13 123 18.5 203t9.5 137l11 6q75 -6 82 -6z" />
    <glyph glyph-name="eight.dnom" horiz-adv-x="708" 
d="M426 584q0 66 -66 65q-59 0 -59 -49q0 -29 30.5 -48.5t76.5 -37.5q18 36 18 70zM264 230q0 -42 21.5 -64.5t56.5 -22.5q63 0 64 54q0 29 -38 50t-92 48q-12 -23 -12 -65zM539 451q118 -73 118 -194t-94 -197t-225 -76t-214 59.5t-83 138.5q0 130 125 178
q-115 91 -115 206q0 116 92 185.5t218 69.5t207 -60t81 -143q0 -108 -110 -167z" />
    <glyph glyph-name="nine.dnom" horiz-adv-x="712" 
d="M287 557q0 -104 56 -104q41 0 77 18q4 28 4 55q0 121 -70 121q-37 0 -52 -20.5t-15 -69.5zM33 532q0 129 89.5 209t239.5 80t232 -83t82 -226q0 -258 -260 -422q-113 -70 -258 -108l-21 10l-45 121q78 26 144.5 75.5t107.5 96.5l-8 16q-18 -6 -35.5 -10t-36.5 -15
q-104 0 -167.5 63.5t-63.5 192.5z" />
    </font>
</defs>
</svg>
