<?xml version="1.0" standalone="no"?>
<!DOCTYPE svg PUBLIC "-//W3C//DTD SVG 1.1//EN" "http://www.w3.org/Graphics/SVG/1.1/DTD/svg11.dtd" >
<svg xmlns="http://www.w3.org/2000/svg">
<metadata>
Created by FontPrep 20130207 at Tue May 10 19:20:01 2016
 By Guillaume Coquoz
Copyright (c) 2013 by Juan Pablo del Peral (huertatipografica.com.ar)
</metadata>
<defs>
<font id="f4f518932b1299cf67027477bfddbe72" horiz-adv-x='1024' >
  <font-face 
    font-family="AlegreyaSansSC-Bold"
    font-weight="700"
    font-stretch="normal"
    units-per-em="2048"
    panose-1="0 0 8 0 0 0 0 0 0 0"
    ascent="1638"
    descent="-410"
    x-height="1034"
    cap-height="1319"
    bbox="-471 -567 2451 2157"
    underline-thickness="0"
    underline-position="0"
    unicode-range="U+0020-F6D8"
  />
<missing-glyph horiz-adv-x="309" 
 />
    <glyph glyph-name="Idieresis" unicode="&#xa8;I" horiz-adv-x="604" 
d="M440 0h-280l16 393l-16 926h282l-14 -901zM590 1635q0 -63 -36 -99.5t-97 -36.5t-94 34t-33 96t35.5 99t97 37t94.5 -33.5t33 -96.5zM150 1765q126 0 126 -130q0 -63 -35.5 -99.5t-97 -36.5t-94.5 34t-33 96t36 99t98 37z" />
    <glyph glyph-name="Odieresis" unicode="&#xa8;O" horiz-adv-x="1316" 
d="M346 663.5q0 -245.5 73 -357t237.5 -111.5t239.5 102t75 349t-74 356.5t-239.5 109.5t-238.5 -101.5t-73 -347zM1260 673.5q0 -325.5 -162 -509.5t-451 -184t-439.5 173t-150.5 498.5t163 505.5t450.5 180t438.5 -169t151 -494.5zM971 1635q0 -63 -36 -99.5t-97 -36.5
t-94 34t-33 96t35.5 99t97 37t94.5 -33.5t33 -96.5zM488 1765q126 0 126 -130q0 -63 -35.5 -99.5t-97 -36.5t-94.5 34t-33 96t36 99t98 37z" />
    <glyph glyph-name="Yacute" unicode="&#xb4;Y" horiz-adv-x="1142" 
d="M694 0h-278l16 367l-4 77l-420 875h295l29 -92l223 -502h20l248 494l39 100h287l-463 -870l-4 -82zM870 1653l-8 -25q-188 -74 -440 -160l-27 9l-45 112q248 125 426 232l25 -6z" />
    <glyph glyph-name="idieresis" unicode="&#xa8;i" horiz-adv-x="571" 
d="M408 0h-258l12 307l-12 727h262l-15 -702zM578 1350.5q0 -62.5 -36 -99.5t-97.5 -37t-94.5 34t-33 96t36 99.5t97.5 37.5t94.5 -34t33 -96.5zM264 1350.5q0 -62.5 -35.5 -99.5t-97 -37t-94.5 34t-33 96t36 99.5t97.5 37.5t94 -34t32.5 -96.5z" />
    <glyph glyph-name="odieresis" unicode="&#xa8;o" horiz-adv-x="1146" 
d="M336 553.5q0 -151.5 23.5 -228.5t75.5 -110t140 -33q129 0 183.5 67.5t54.5 220t-24.5 229.5t-75.5 110t-160 33t-163 -68.5t-54 -220zM1081 528.5q0 -255.5 -137 -401t-379.5 -145.5t-369.5 136t-127 391t137 398.5t379.5 143.5t369.5 -133.5t127 -389zM889 1350.5
q0 -62.5 -36 -99.5t-97 -37t-94 34t-33 96t35.5 99.5t97 37.5t94.5 -34t33 -96.5zM532 1350.5q0 -62.5 -35.5 -99.5t-97 -37t-94.5 34t-33 96t36 99.5t97.5 37.5t94 -34t32.5 -96.5z" />
    <glyph glyph-name="yacute" unicode="&#xb4;y" horiz-adv-x="1017" 
d="M623 0h-258l12 281l-2 47l-350 706h272l25 -76l172 -362h16l192 352l33 86h266l-387 -696l-2 -57zM817 1415l-4 -26q-186 -120 -399 -242l-27 2l-65 102q238 190 370 314l27 -2z" />
    <glyph glyph-name="Itilde" unicode="&#x7e;I" horiz-adv-x="604" 
d="M438 0h-278l14 393l-14 926h282l-16 -901zM322 1541q-102 32 -130 32q-27 -1 -61 -47t-43 -56h-22l-80 80v25l127 178l24 10q39 -6 141 -38t131 -31q28 1 61 46q33 46 42 56h25l79 -80v-22l-129 -183l-24 -8q-39 6 -141 38z" />
    <glyph glyph-name="itilde" unicode="&#x7e;i" horiz-adv-x="571" 
d="M408 0h-258l10 307l-10 727h262l-15 -702zM268 1441q102 -32 130 -32t76 66q19 27 28 36h24l80 -79v-23l-129 -182l-24 -8q-39 6 -141 38t-131 31q-28 -1 -62 -46q-33 -46 -41 -56h-23l-80 80v24l127 178l25 11q39 -6 141 -38z" />
    <glyph glyph-name="Utilde" unicode="&#x7e;U" horiz-adv-x="1306" 
d="M642 -18q-255 0 -386 124t-125 359l2 190l-6 664h279l-15 -817q-2 -293 263 -293t264 278l-15 832h283l-10 -670l-2 -174q2 -237 -138 -365t-394 -128zM528 1579q-38 0 -127 -104h-24l-82 79v23l145 182l25 10q49 -7 169 -39t146 -32t64 33q39 33 65 71h25l80 -80v-22
l-144 -182l-26 -11q-55 6 -174 39t-142 33z" />
    <glyph glyph-name="utilde" unicode="&#x7e;u" horiz-adv-x="1140" 
d="M562 -16q-216 0 -329 95t-106 271l2 162l-6 522h258l-12 -647q-3 -195 201 -195t202 195l-10 647h260l-8 -526l-2 -158q2 -176 -116 -271t-334 -95zM696 1413q26 0 64 34q39 34 65 71h25l80 -80v-23l-144 -182l-26 -10q-55 6 -174 39q-119 32 -142 32q-38 -1 -127 -104
h-24l-82 80v22l145 183l25 10q49 -6 169 -39t146 -33z" />
    <glyph glyph-name="Etilde" unicode="&#x7e;E" horiz-adv-x="1042" 
d="M1006 207l-19 -207h-827l14 393l-14 926h835l17 -23l-21 -206l-315 10l-238 -2l-6 -318l227 -4l215 6l17 -20l-19 -207l-233 6l-211 -2l-2 -141l6 -199l232 -2l325 12zM451 1579q-45 0 -127 -104h-25l-82 79v23l145 182l25 10q49 -7 169 -39t152 -32t91 67q25 27 32 37
h25l80 -80v-22l-143 -182l-27 -11q-55 6 -174 39t-141 33z" />
    <glyph glyph-name="etilde" unicode="&#x7e;e" horiz-adv-x="933" 
d="M877 193l-19 -193h-708l10 307l-10 727h718l15 -20l-17 -191l-266 11h-192l-5 -209l185 -2l178 6l14 -19l-16 -194l-195 6h-170l-2 -90l4 -131h181l278 8zM631 1413q45 0 129 105h24l80 -80v-23l-143 -182l-27 -10q-55 6 -174 39q-120 32 -142 32q-38 -1 -126 -104h-25
l-82 80v22l146 183l24 10q49 -6 169 -39t147 -33z" />
    <glyph glyph-name="Ytilde" unicode="&#x7e;Y" horiz-adv-x="1142" 
d="M694 0h-278l16 367l-4 77l-420 875h295l29 -92l223 -502h20l248 494l39 100h287l-463 -870l-4 -82zM690 1698q46 0 129 104h25l80 -80v-22l-144 -182l-26 -11q-55 6 -174 39t-142 33q-38 0 -127 -104h-24l-82 79v23l145 182l25 10q49 -7 169 -39t146 -32z" />
    <glyph glyph-name="ytilde" unicode="&#x7e;y" horiz-adv-x="1017" 
d="M623 0h-258l12 281l-2 47l-350 706h272l25 -76l172 -362h16l192 352l33 86h266l-387 -696l-2 -57zM643 1413q45 0 129 105h25l80 -80v-23l-144 -182l-26 -10q-55 6 -174 39q-119 32 -142 32q-38 -1 -127 -104h-24l-82 80v22l145 183l25 10q49 -6 169 -39t146 -33z" />
    <glyph glyph-name="Gtilde" unicode="&#x7e;G" horiz-adv-x="1224" 
d="M698 1110q-182 0 -266 -109t-84 -356q0 -164 36 -260t112 -140t177 -44t197 28l4 113l-4 203l256 20l-6 -180l6 -322q-246 -82 -452 -81q-307 0 -462 168t-155 496q-1 328 179 508q180 181 509 181q216 0 388 -80l-60 -249l-26 -5q-99 57 -179 83t-170 26zM793 1698
q46 0 129 104h24l80 -80v-22l-143 -182l-27 -11q-55 6 -174 39q-120 33 -142 33q-37 0 -126 -104h-25l-82 79v23l146 182l24 10q49 -7 169 -39t147 -32z" />
    <glyph glyph-name="gtilde" unicode="&#x7e;g" horiz-adv-x="1064" 
d="M336 506q0 -236 111 -292q58 -30 139 -30t149 25v65l-2 164l236 17l-4 -138v-266q-201 -68 -377 -67q-258 0 -389 132t-131 390t151 400q152 142 430 143q172 -1 324 -58l-68 -233h-22q-143 80 -282 81q-141 1 -203 -74t-62 -259zM688 1413q45 0 129 105h25l80 -80v-23
l-144 -182l-26 -10q-55 6 -174 39q-119 32 -142 32q-38 -1 -127 -104h-24l-82 80v22l145 183l25 10q49 -6 169 -39t146 -33z" />
    <glyph glyph-name=".notdef" horiz-adv-x="309" 
 />
    <glyph glyph-name=".null" horiz-adv-x="0" 
 />
    <glyph glyph-name="nonmarkingreturn" horiz-adv-x="681" 
 />
    <glyph glyph-name="space" unicode=" " horiz-adv-x="309" 
 />
    <glyph glyph-name="exclam" unicode="!" horiz-adv-x="540" 
d="M389 135q0 -68 -39 -108.5t-106.5 -40.5t-103.5 36.5t-36 104.5t40 108.5t106 40.5t102.5 -36.5t36.5 -104.5zM354 485l-155 -20l-27 27l-16 827l24 31l215 14l33 -33z" />
    <glyph glyph-name="quotedbl" unicode="&#x22;" horiz-adv-x="724" 
d="M573 846l-129 -19l-20 19l-4 454l209 15l16 -19zM266 846l-127 -19l-22 19l-4 454l211 15l14 -19z" />
    <glyph glyph-name="numbersign" unicode="#" horiz-adv-x="1124" 
d="M475 729l-41 -213h205l43 213h-207zM815 516h184l17 -18l-15 -140h-217l-57 -292h-158l-14 18l53 274h-205l-57 -292h-158l-12 18l53 274h-172l-16 19l12 139h207l41 213h-176l-16 19l12 139h211l55 287h152l18 -21l-51 -266h207l55 287h152l18 -21l-51 -266h178l18 -19
l-14 -139h-213z" />
    <glyph glyph-name="dollar" unicode="$" horiz-adv-x="921" 
d="M438 170q61 0 96 28.5t35 72.5t-41 72t-130 64t-148.5 70.5t-101.5 93.5t-42 163t80 191t222 113l16 283h154l26 -25l-16 -252q113 -10 213 -47l-39 -229l-39 -10q-133 98 -240 98q-57 0 -90 -27.5t-33 -68.5t41 -68.5t131 -65.5t190.5 -94.5t100.5 -214.5
q0 -116 -77.5 -208.5t-227.5 -118.5l-18 -269h-156l-22 23l14 242q-133 10 -258 59l35 242l26 18q68 -61 153 -98t146 -37z" />
    <glyph glyph-name="percent" unicode="%" horiz-adv-x="1748" 
d="M1217 360q0 -207 147 -206q150 0 149 196q0 104 -36.5 153.5t-113.5 49.5t-111.5 -46t-34.5 -147zM1374 733q310 0 309 -366q0 -180 -84.5 -279.5t-240.5 -99.5q-314 0 -314 365q0 181 88 280.5t242 99.5zM236 958q0 -207 147 -206q150 0 149 196q0 104 -36.5 153.5
t-113.5 49.5t-111.5 -46t-34.5 -147zM392 1331q310 0 310 -366q0 -180 -85 -279.5t-241 -99.5q-314 0 -313 365q0 181 87.5 280.5t241.5 99.5zM1380 1298l-954 -1486l-117 69l-12 29l956 1495l111 -68z" />
    <glyph glyph-name="ampersand" unicode="&#x26;" horiz-adv-x="1458" 
d="M604 795q0 82 -98 82t-155.5 -87.5t-59.5 -236.5q133 55 237 119q76 49 76 123zM63 522q0 158 56.5 278t159 185.5t231.5 65.5t195.5 -53.5t66.5 -141.5l-2 -22q369 279 524 622h23q80 -74 106 -172q-59 -141 -231 -319.5t-405.5 -340t-467.5 -262.5q72 -193 302 -192
q162 0 251 103.5t93 287.5l18 21h418l16 -23l-22 -168h-265q-98 -416 -548 -416q-232 0 -375.5 145.5t-143.5 401.5z" />
    <glyph glyph-name="quotesingle" unicode="'" horiz-adv-x="419" 
d="M266 846l-127 -19l-22 19l-4 454l211 15l14 -19z" />
    <glyph glyph-name="parenleft" unicode="(" horiz-adv-x="604" 
d="M362 528q0 -266 55.5 -431t178.5 -277v-23l-98 -82h-23q-174 127 -252 316.5t-78 494.5t78 502t252 326h23l98 -84v-23q-123 -111 -178.5 -282t-55.5 -437z" />
    <glyph glyph-name="parenright" unicode=")" horiz-adv-x="604" 
d="M457 541q0 -305 -78 -502t-252 -326h-23l-98 84v23q123 110 178 282q56 172 56 438t-56 430q-55 165 -178 277v23l98 82h23q174 -126 252 -316t78 -495z" />
    <glyph glyph-name="asterisk" unicode="*" horiz-adv-x="784" 
d="M367 1034l-123 -196q-49 14 -148 71l2 19l189 168l78 -39zM627 907q-35 -51 -113 -114l-18 4l-93 243l62 58l22 -2zM756 1167l-13 -12l-245 -20l-39 77l8 19l215 82q43 -68 74 -146zM295 1143l-21 -8l-217 65q-2 72 21 160l20 6l209 -137zM436 1251l-86 -10l-14 14
l-8 238q76 27 159 27l9 -17z" />
    <glyph glyph-name="plus" unicode="+" horiz-adv-x="983" 
d="M586 625h332l18 -19l-14 -166h-336v-338l-166 -12l-21 16v334h-333l-19 19l14 166h338v340l166 14l21 -21v-333z" />
    <glyph glyph-name="comma" unicode="," horiz-adv-x="468" 
d="M385 94q0 -178 -248 -354l-88 78l-2 20q113 94 113 201q0 70 -66 123l2 22q94 57 197 86q92 -74 92 -176z" />
    <glyph glyph-name="hyphen" unicode="-" horiz-adv-x="622" 
d="M565 463l-487 -76l-23 23v170l488 73l22 -22v-168z" />
    <glyph glyph-name="period" unicode="." horiz-adv-x="468" 
d="M375 135q0 -68 -39 -108.5t-106.5 -40.5t-103.5 36.5t-36 104.5t40 108.5t106 40.5t102.5 -36.5t36.5 -104.5z" />
    <glyph glyph-name="slash" unicode="/" horiz-adv-x="581" 
d="M203 -236h-189l-16 23l422 1606h184l23 -25z" />
    <glyph glyph-name="zero" unicode="0" horiz-adv-x="1067" 
d="M291 513q0 -149 59.5 -220.5t184.5 -71.5q243 0 243 289t-246 289q-122 0 -181.5 -68.5t-59.5 -217.5zM989 525q0 -255 -123 -399t-340 -144t-331.5 135t-114.5 389t124 399.5t341 145.5t330.5 -135.5t113.5 -390.5z" />
    <glyph glyph-name="one" unicode="1" horiz-adv-x="737" 
d="M518 426l14 -426h-276l12 397v340l-231 -61l-21 14v219l480 138l39 -29z" />
    <glyph glyph-name="two" unicode="2" horiz-adv-x="964" 
d="M817 797q0 -164 -229 -410l-154 -170l4 -8h277l184 16l16 -18l-32 -219l-248 12h-465l-76 -4l-14 10v166l276 272q98 100 145.5 166t47.5 111t-31 69.5t-86 24.5q-135 0 -270 -121h-31l-45 211q211 141 410 142q141 0 231 -67t90 -183z" />
    <glyph glyph-name="three" unicode="3" horiz-adv-x="882" 
d="M774 770q0 -84 -47 -163t-147 -134v-10q223 -63 223 -273q0 -113 -64.5 -200.5t-181.5 -136t-247 -48.5t-242 21l-15 211l19 18q122 -43 232 -43t174.5 45t64.5 127q0 139 -187 146h-143l-14 18l8 187l90 4q78 2 139.5 50.5t61.5 112.5q0 126 -140 125q-106 0 -241 -96
h-29l-41 199q175 121 353 121t276 -78t98 -203z" />
    <glyph glyph-name="four" unicode="4" horiz-adv-x="1030" 
d="M571 324v403h-18l-277 -403h295zM793 113l10 -277l-15 -18l-213 -15l-14 17l6 295h-327l-179 -6l-18 24v172l502 731h250l-7 -712h170l17 -25l-12 -190z" />
    <glyph glyph-name="five" unicode="5" horiz-adv-x="884" 
d="M803 239q0 -130 -65.5 -229.5t-185.5 -154t-250 -54.5t-249 25l-14 213l18 18q135 -47 246 -47t176.5 52.5t65.5 130.5t-47 117.5t-154 58.5l-197 34l-18 23l10 584l33 30l119 -4h299l213 11l16 -17l-28 -211l-21 -20l-186 20h-238l-6 -229l127 -27q178 -37 257 -115.5
t79 -208.5z" />
    <glyph glyph-name="six" unicode="6" horiz-adv-x="989" 
d="M502 549q-90 0 -187 -62v-43q0 -145 42.5 -215.5t134.5 -70.5q184 0 184 196t-174 195zM922 383q0 -111 -50.5 -203t-148.5 -146t-236 -54q-203 0 -311 121t-108 355t155.5 437t440.5 328h14l186 -121v-27q-215 -82 -334.5 -168t-171.5 -205l17 -18q92 57 207 57
q157 0 248.5 -101t91.5 -255z" />
    <glyph glyph-name="seven" unicode="7" horiz-adv-x="884" 
d="M731 1036l100 4v-200l-337 -738l-115 -307l-219 62l-17 43l428 909h-338l-186 -18l-16 22l18 229l230 -6h452z" />
    <glyph glyph-name="eight" unicode="8" horiz-adv-x="1009" 
d="M311 325.5q0 -73.5 50.5 -117.5t139.5 -44t139 44t50 112t-51 108.5t-158 83.5q-82 -31 -126 -72t-44 -114.5zM346 888q0 -66 47 -106.5t135 -74.5q66 37 103 77.5t37 105.5t-42 102.5t-118 37.5t-119 -38t-43 -104zM881 920q0 -164 -181 -281v-12q100 -49 157.5 -113.5
t57.5 -173.5q0 -166 -119.5 -262t-311.5 -96t-296 86t-104 223q0 190 225 293v12q-186 102 -186 285q0 156 110.5 247t285.5 91t268.5 -80t93.5 -219z" />
    <glyph glyph-name="nine" unicode="9" horiz-adv-x="989" 
d="M487 487q90 0 187 62v43q0 145 -42 216q-42 70 -134 70q-184 -1 -185 -196q0 -195 174 -195zM68 653q0 111 50 203t148 146t236 55q204 0 312 -122q108 -121 108 -355t-156 -437t-440 -327h-15l-186 121v26q215 82 335 168t171 205l-17 18q-92 -57 -206 -57
q-158 0 -249 101t-91 255z" />
    <glyph glyph-name="colon" unicode=":" horiz-adv-x="468" 
d="M367 135q0 -69 -39 -109t-107 -40q-67 0 -103 37t-36 105t40 108q40 41 106 41t103 -37q36 -37 36 -105zM367 672q0 -68 -39 -109t-107 -41q-67 0 -103 37t-36 105t40 108t106 41q66 0 103 -37q36 -36 36 -104z" />
    <glyph glyph-name="semicolon" unicode=";" horiz-adv-x="468" 
d="M377 94q0 -178 -248 -354l-88 78l-2 20q113 94 113 201q0 70 -66 123l2 22q94 57 197 86q92 -74 92 -176zM367 672q0 -68 -39 -109t-107 -41q-67 0 -103 37t-36 105t40 108t106 41q66 0 103 -37q36 -36 36 -104z" />
    <glyph glyph-name="less" unicode="&#x3c;" horiz-adv-x="983" 
d="M70 643l18 25l764 297l59 -156l-12 -21l-637 -241v-15l639 -233l-39 -152l-24 -18l-768 293v221z" />
    <glyph glyph-name="equal" unicode="=" horiz-adv-x="983" 
d="M922 631h-856l-19 18l14 166h857l18 -18zM922 248h-856l-19 18l14 166h857l18 -18z" />
    <glyph glyph-name="greater" unicode="&#x3e;" horiz-adv-x="983" 
d="M913 643v-221l-768 -293l-24 18l-39 152l639 233v15l-637 241l-12 21l59 156l764 -297z" />
    <glyph glyph-name="question" unicode="?" horiz-adv-x="696" 
d="M459 135q0 -68 -39 -108.5t-106.5 -40.5t-103.5 36.5t-36 104.5t40 108.5t106 40.5t102.5 -36.5t36.5 -104.5zM733 1038q0 -176 -186 -282l-148 -88l-4 -11l13 -174l-191 -24l-18 18l-21 246l10 20l185 95q115 61 115 150t-88.5 133t-284.5 57l-19 26l49 152l27 14
q270 -16 415.5 -100t145.5 -232z" />
    <glyph glyph-name="at" unicode="@" horiz-adv-x="1728" 
d="M668 392q0 -167 53 -167q22 0 94 86t195 369l4 31v8l-131 41q-100 0 -157.5 -100.5t-57.5 -267.5zM446 318q0 130 53.5 261.5t161 230.5t263.5 136h12l158 -41l147 45l21 -12l-97 -709l-2 -43q162 25 253 142.5t91 285.5t-69.5 283t-199.5 175t-320 56t-347 -97
t-244 -255t-87 -370t96 -363.5t272 -237t410 -81.5l10 -27l-74 -127q-270 2 -471.5 97t-313.5 277.5t-112 439.5t114 467t320.5 329.5t477.5 119.5q215 0 376.5 -80.5t251 -230t89.5 -350.5q0 -303 -201 -469t-572 -172l45 321h-24q-123 -209 -244 -333h-37
q-111 41 -159 121.5t-48 210.5z" />
    <glyph glyph-name="A" unicode="A" horiz-adv-x="1228" 
d="M631 1059h-19l-180 -549l176 -4l178 4zM913 0l-32 172l-35 123l-258 6l-228 -6l-34 -109l-35 -186h-275l447 1319h330l403 -1319h-283z" />
    <glyph glyph-name="B" unicode="B" horiz-adv-x="1185" 
d="M838 387q0 145 -189 180l-227 -4l-2 -145l6 -221q72 -8 141 -9q129 0 200 51.5t71 147.5zM532 1120h-100l-6 -358l192 -6q154 41 154 198q0 90 -53 128t-187 38zM1120 373q0 -383 -600 -383q-176 0 -360 10l14 393l-14 926l469 2q203 0 315.5 -85t112.5 -245
q0 -106 -52.5 -186t-148.5 -121q264 -61 264 -311z" />
    <glyph glyph-name="C" unicode="C" horiz-adv-x="1058" 
d="M676 1106q-326 0 -326 -428q0 -463 334 -463q164 0 303 88l25 -14l-23 -236q-156 -72 -327 -71q-295 0 -450 172t-155 496.5t165 504.5t466 180q192 0 346 -80l-49 -231l-22 -10q-129 92 -287 92z" />
    <glyph glyph-name="D" unicode="D" horiz-adv-x="1341" 
d="M995 645q0 242 -78.5 351.5t-246.5 109.5q-109 0 -232 -10l-12 -678l6 -203q143 -14 238 -14q325 0 325 444zM1284 709q0 -350 -172 -536.5t-491 -186.5q-225 0 -461 14l14 393l-14 926l530 8q287 0 440.5 -159.5t153.5 -458.5z" />
    <glyph glyph-name="E" unicode="E" horiz-adv-x="1042" 
d="M1006 207l-19 -207h-827l14 393l-14 926h835l17 -23l-21 -206l-315 10l-238 -2l-6 -318l227 -4l215 6l17 -20l-19 -207l-233 6l-211 -2l-2 -141l6 -199l232 -2l325 12z" />
    <glyph glyph-name="F" unicode="F" horiz-adv-x="933" 
d="M432 741l184 -2l224 6l18 -20l-20 -207l-244 6l-166 -2l-2 -104l12 -418h-278l14 393l-14 926h784l17 -23l-21 -209l-313 13l-189 -2z" />
    <glyph glyph-name="G" unicode="G" horiz-adv-x="1224" 
d="M698 1110q-182 0 -266 -108.5t-84 -356.5q0 -314 148 -400q76 -44 177 -44t197 28l4 113l-4 203l256 20l-6 -180l6 -322q-246 -82 -452 -81q-307 0 -462 167.5t-155 495.5t179.5 509t508.5 181q216 0 388 -80l-60 -249l-26 -5q-100 57 -179.5 83t-169.5 26z" />
    <glyph glyph-name="H" unicode="H" horiz-adv-x="1425" 
d="M1262 0h-281l16 393l-2 154l-299 4l-268 -6l-2 -127l12 -418h-278l14 393l-14 926h282l-10 -543l283 -6l276 6l-10 543h285l-17 -901z" />
    <glyph glyph-name="I" unicode="I" horiz-adv-x="604" 
d="M438 0h-278l14 393l-14 926h282l-16 -901z" />
    <glyph glyph-name="J" unicode="J" horiz-adv-x="686" 
d="M262 252v156l-12 706l-217 -6l-21 20l15 191h501l-14 -885l4 -186q0 -117 -39 -199t-126 -145.5t-238 -120.5l-84 147v25q127 66 179 130.5t52 166.5z" />
    <glyph glyph-name="K" unicode="K" horiz-adv-x="1196" 
d="M1214 57l-4 -30q-127 -31 -272 -47l-33 16q-295 399 -475 682l-4 -260l10 -418h-278l16 393l-16 926h282l-10 -612l369 485l75 127h302l-467 -623q235 -328 505 -639z" />
    <glyph glyph-name="L" unicode="L" horiz-adv-x="886" 
d="M864 0h-712l14 393l-14 926h282l-16 -901l6 -189h442l17 -22z" />
    <glyph glyph-name="M" unicode="M" horiz-adv-x="1632" 
d="M1288 0l-20 399l-47 508h-21l-295 -768h-215l-268 768h-19l-51 -481l-28 -426h-234l133 1319h320l53 -195l209 -624h18l219 624l60 195h313l119 -1319h-246z" />
    <glyph glyph-name="N" unicode="N" horiz-adv-x="1423" 
d="M1260 0h-299l-537 893h-18l-3 -438l11 -455h-254l14 389l-12 930h299l536 -893h19l-8 881l258 16l-17 -915z" />
    <glyph glyph-name="O" unicode="O" horiz-adv-x="1316" 
d="M346 663.5q0 -245.5 73 -357t238.5 -111.5t239.5 102t74 349t-73 356.5t-238.5 109.5t-239.5 -101.5t-74 -347zM1262 673.5q0 -325.5 -163 -509.5t-452 -184t-439.5 173t-150.5 498.5t163 505.5t452 180t439.5 -169t150.5 -494.5z" />
    <glyph glyph-name="P" unicode="P" horiz-adv-x="1132" 
d="M807 893q0 111 -56.5 165t-172.5 58l-140 -8l-8 -475l188 -8q189 53 189 268zM1096 918q0 -150 -65.5 -261.5t-187.5 -173t-286 -61.5h-131v-4l12 -418h-278l14 393l-14 926l506 2q206 0 318 -104.5t112 -298.5z" />
    <glyph glyph-name="Q" unicode="Q" horiz-adv-x="1329" 
d="M658 195q164 0 238.5 104t74.5 349t-74 354.5t-240 109.5t-238.5 -102t-72.5 -348t74 -356.5t238 -110.5zM639 -20q-279 0 -430.5 173t-151.5 499t163 505.5t452 179.5t439.5 -169t150.5 -484q0 -238 -86 -403.5t-246 -241.5q268 -164 567 -236l10 -28
q-55 -108 -129 -178l-22 -9q-381 141 -674 392h-43z" />
    <glyph glyph-name="R" unicode="R" horiz-adv-x="1208" 
d="M807 903q0 205 -229 213l-140 -8l-8 -449l203 -8q174 59 174 252zM426 444v-26l12 -418h-278l14 393l-14 926l506 2q207 0 319.5 -101.5t112.5 -289.5q0 -127 -64.5 -232.5t-181.5 -173.5q159 -253 317 -458l-4 -31q-133 -47 -272 -55l-29 22q-147 254 -239 442h-199z
" />
    <glyph glyph-name="S" unicode="S" horiz-adv-x="1019" 
d="M371 972q0 -58 54 -99.5t169 -94.5q116 -53 186 -97q170 -106 170 -292q0 -113 -61.5 -206t-174 -147t-283.5 -54t-368 84l39 258l31 16q82 -72 179.5 -109.5t180 -37.5t133 44t50.5 107.5t-54.5 104t-175.5 98.5q-111 49 -180 92t-118.5 114.5t-49.5 180.5t61.5 202
t172 146t265.5 53.5t321 -67.5l-46 -240l-41 -16q-151 106 -280 106q-82 0 -131 -44t-49 -102z" />
    <glyph glyph-name="T" unicode="T" horiz-adv-x="1030" 
d="M985 1090l-248 12h-82l-10 -684l12 -418h-278l14 393l-10 709h-82l-252 -12l-18 22l18 207h936l16 -23z" />
    <glyph glyph-name="U" unicode="U" horiz-adv-x="1306" 
d="M642 -18q-255 0 -386 124.5t-125 358.5l2 190l-6 664h279l-15 -817q-2 -293 263 -293t264 278l-15 832h283l-10 -670l-2 -174q2 -236 -137.5 -364.5t-394.5 -128.5z" />
    <glyph glyph-name="V" unicode="V" horiz-adv-x="1202" 
d="M424 0l-404 1319h283l33 -174l250 -887h18l287 872l35 189h274l-444 -1319h-332z" />
    <glyph glyph-name="W" unicode="W" horiz-adv-x="1849" 
d="M1114 0l-196 631h-19l-199 -631h-292l-369 1319h272l21 -162l233 -870h19l223 710l-94 322h282l31 -191l238 -841h18l266 852l33 180h258l-434 -1319h-291z" />
    <glyph glyph-name="X" unicode="X" horiz-adv-x="1249" 
d="M1225 0h-334l-62 131l-219 342l-237 -356l-60 -117h-286l422 651l-418 668h334l61 -133l207 -322l213 332l57 123h293l-397 -629z" />
    <glyph glyph-name="Y" unicode="Y" horiz-adv-x="1142" 
d="M694 0h-278l16 367l-4 77l-420 875h295l29 -92l223 -502h20l248 494l39 100h287l-463 -870l-4 -82z" />
    <glyph glyph-name="Z" unicode="Z" horiz-adv-x="1120" 
d="M389 211h442l224 18l10 -16l-23 -219l-297 6h-526l-158 -8v198l662 916h-418l-223 -19l-12 15l20 219l828 -2l126 2v-203z" />
    <glyph glyph-name="bracketleft" unicode="[" horiz-adv-x="604" 
d="M604 1190l-219 -29v-1255l219 -27v-125l-12 -12l-428 20l14 773l-14 772l428 20l12 -14v-123z" />
    <glyph glyph-name="backslash" unicode="\" horiz-adv-x="581" 
d="M401 -236l-424 1604l23 25h184l422 -1606l-16 -23h-189z" />
    <glyph glyph-name="bracketright" unicode="]" horiz-adv-x="604" 
d="M-2 -123l219 29v1255l-219 27v125l12 12l428 -20l-14 -773l14 -772l-428 -20l-12 14v123z" />
    <glyph glyph-name="asciicircum" unicode="^" horiz-adv-x="903" 
d="M852 276l-154 -36l-231 585h-14l-242 -585l-23 -11l-153 58l295 714l26 15h219l295 -717z" />
    <glyph glyph-name="underscore" unicode="_" horiz-adv-x="909" 
d="M926 -354h-938l-19 20l15 152h940l16 -19z" />
    <glyph glyph-name="grave" unicode="`" 
d="M150 1333l98 148l26 2q133 -123 371 -314l-65 -102l-27 -2q-225 127 -399 242z" />
    <glyph glyph-name="a" unicode="a" horiz-adv-x="1083" 
d="M553 799h-16l-138 -396l133 -2l138 2zM772 0l-29 150l-18 59l-209 2l-184 -4l-15 -43l-30 -164h-252l362 1034h305l330 -1034h-260z" />
    <glyph glyph-name="b" unicode="b" horiz-adv-x="1058" 
d="M715 307q0 49 -35 78t-107 45l-178 -4l-2 -94l4 -154q63 -6 115 -6q203 0 203 135zM465 852h-64l-4 -244l150 -4q59 14 88 45t29 93t-44.5 86t-154.5 24zM979 295q0 -303 -512 -303q-113 0 -317 8l10 307l-10 727l415 2q172 0 269.5 -67.5t97.5 -194.5q0 -168 -166 -239
q213 -52 213 -240z" />
    <glyph glyph-name="c" unicode="c" horiz-adv-x="929" 
d="M591 838q-130 0 -191.5 -73t-61.5 -228q0 -338 260 -338q129 0 246 61l22 -12l-20 -215q-121 -49 -264 -49q-252 0 -383 135t-131 391t139 397.5t395 141.5q154 -1 287 -54l-45 -217l-21 -10q-102 70 -232 70z" />
    <glyph glyph-name="d" unicode="d" horiz-adv-x="1167" 
d="M834 496q0 182 -59.5 261t-190.5 79q-96 0 -176 -9l-11 -495l4 -133q109 -14 187 -15q246 1 246 312zM1100 537q0 -254 -144.5 -401.5t-414.5 -147.5q-158 0 -391 12l10 307l-10 727l454 8q240 0 368 -125.5t128 -379.5z" />
    <glyph glyph-name="e" unicode="e" horiz-adv-x="933" 
d="M877 193l-19 -193h-708l10 307l-10 727h718l15 -20l-17 -191l-266 11h-192l-5 -209l185 -2l178 6l14 -19l-16 -194l-195 6h-170l-2 -90l4 -131h181l278 8z" />
    <glyph glyph-name="f" unicode="f" horiz-adv-x="829" 
d="M393 590l144 -2l190 6l16 -19l-18 -192l-209 6l-127 -2l-2 -55l10 -332h-258l13 307l-13 727h676l14 -20l-18 -191l-264 11h-150z" />
    <glyph glyph-name="g" unicode="g" horiz-adv-x="1064" 
d="M602 840q-141 0 -203.5 -75t-62.5 -259q0 -123 26.5 -192.5t85 -99.5t139 -30t148.5 25v65l-2 164l236 17l-4 -138v-266q-201 -68 -377 -67q-258 0 -389 132t-131 390t151.5 400.5t429.5 142.5q172 -1 324 -58l-68 -233h-22q-80 45 -142.5 63.5t-138.5 18.5z" />
    <glyph glyph-name="h" unicode="h" horiz-adv-x="1236" 
d="M1087 0h-258l11 307l-2 101l-232 2l-207 -4l-2 -74l11 -332h-258l10 307l-10 727h262l-9 -409l220 -4l213 2l-7 411h263l-15 -702z" />
    <glyph glyph-name="i" unicode="i" horiz-adv-x="571" 
d="M408 0h-258l10 307l-10 727h262l-15 -702z" />
    <glyph glyph-name="j" unicode="j" horiz-adv-x="645" 
d="M238 195v118l-9 531l-176 -4l-16 16l16 178h432l-10 -694l2 -143q0 -139 -70.5 -223.5t-252.5 -153.5l-82 129v22q90 45 128 95.5t38 128.5z" />
    <glyph glyph-name="k" unicode="k" horiz-adv-x="1064" 
d="M1061 55l-6 -30q-139 -35 -254 -43l-33 14q-203 268 -367 518l-4 -182l11 -332h-258l10 307l-10 727h262l-11 -467l283 363l64 104l282 2l-375 -489q187 -250 406 -492z" />
    <glyph glyph-name="l" unicode="l" horiz-adv-x="794" 
d="M750 0h-609l13 307l-13 727h262l-14 -702l4 -121h359l14 -18z" />
    <glyph glyph-name="m" unicode="m" horiz-adv-x="1404" 
d="M1079 0l-14 313l-35 338h-16l-228 -549h-198l-203 549h-16l-37 -313l-23 -338h-219l111 1034h303l41 -151l149 -439h17l161 437l46 153h296l97 -1034h-232z" />
    <glyph glyph-name="n" unicode="n" horiz-adv-x="1236" 
d="M1085 0h-280l-414 641h-14l-2 -279l8 -362h-233l10 303l-10 731h278l414 -641h18l-8 631l238 16l-15 -712z" />
    <glyph glyph-name="o" unicode="o" horiz-adv-x="1146" 
d="M336 553.5q0 -151.5 23.5 -228.5t75.5 -110t140 -33q129 0 183.5 67.5t54.5 220t-24.5 229.5t-75.5 110t-160 33t-163 -68.5t-54 -220zM1081 529.5q0 -254.5 -138 -401t-379.5 -146.5t-368.5 136t-127 391t137 398.5t379.5 143.5t369.5 -133.5t127 -388z" />
    <glyph glyph-name="p" unicode="p" horiz-adv-x="1011" 
d="M690 690q0 78 -44 117t-136 43l-102 -4l-7 -338l148 -6q141 43 141 188zM961 702q0 -168 -125 -276.5t-334 -108.5h-105l11 -317h-258l10 307l-10 727l446 2q176 0 270.5 -83t94.5 -251z" />
    <glyph glyph-name="q" unicode="q" horiz-adv-x="1159" 
d="M575 182q129 0 183.5 68t54.5 220t-24.5 229t-75.5 110t-160 33t-163 -68.5t-54 -220.5t23.5 -228.5t75.5 -109.5t140 -33zM553 -18q-231 0 -358 136t-127 391t137 398.5t379 143.5t369.5 -133.5t127.5 -376.5q0 -184 -66.5 -312.5t-193.5 -189.5q203 -115 439 -174
l10 -25q-64 -108 -117 -157l-20 -5q-287 113 -525 306q-18 -2 -55 -2z" />
    <glyph glyph-name="r" unicode="r" horiz-adv-x="1073" 
d="M690 698q0 74 -43 110t-135 40l-104 -4l-7 -314l154 -8q135 45 135 176zM397 334v-2l11 -332h-258l10 307l-10 727l446 2q174 0 269.5 -81t95.5 -230q0 -96 -51.5 -179t-143.5 -138q137 -199 256 -349l-2 -28q-129 -39 -250 -47l-37 24q-115 201 -178 326h-158z" />
    <glyph glyph-name="s" unicode="s" horiz-adv-x="911" 
d="M483 856q-57 0 -90 -27.5t-33 -68.5t41 -68.5t131 -65.5t148.5 -71t100.5 -91t42 -146.5t-46 -165t-139 -123.5t-245.5 -47t-314.5 63l35 242l26 18q68 -61 152 -98t145 -37t97 28.5t36 72.5t-42 72t-132 65t-148.5 70.5t-100.5 93t-42 149.5t50.5 166t143.5 119
t229.5 42.5t271.5 -51.5l-39 -229l-37 -10q-133 98 -240 98z" />
    <glyph glyph-name="t" unicode="t" horiz-adv-x="913" 
d="M852 817l-209 14h-59l-6 -499l8 -332h-256l10 307l-4 524h-60l-213 -14l-16 21l14 196h791l14 -20z" />
    <glyph glyph-name="u" unicode="u" horiz-adv-x="1140" 
d="M562 -16q-216 0 -328.5 95t-106.5 271l2 162l-6 522h258l-12 -647q-2 -195 201.5 -194.5t201.5 194.5l-10 647h260l-8 -526l-2 -158q2 -176 -116 -271t-334 -95z" />
    <glyph glyph-name="v" unicode="v" horiz-adv-x="1062" 
d="M367 0l-328 1034h260l31 -149l188 -649h17l219 634l28 164h254l-360 -1034h-309z" />
    <glyph glyph-name="w" unicode="w" horiz-adv-x="1585" 
d="M934 0l-146 442h-16l-147 -442h-277l-293 1034h258l17 -143l168 -623h16l168 520l-68 246h267l22 -168l174 -598h17l194 609l29 157h244l-349 -1034h-278z" />
    <glyph glyph-name="x" unicode="x" horiz-adv-x="1097" 
d="M1061 0h-307l-54 113l-161 229l-183 -244l-51 -98h-262l344 506l-346 528h311l54 -114l153 -218l162 230l49 102h270l-327 -489z" />
    <glyph glyph-name="y" unicode="y" horiz-adv-x="1017" 
d="M623 0h-258l12 281l-2 47l-350 706h272l25 -76l172 -362h16l192 352l33 86h266l-387 -696l-2 -57z" />
    <glyph glyph-name="z" unicode="z" horiz-adv-x="989" 
d="M379 195h340l194 16l11 -12l-21 -205l-266 6h-424l-139 -6v182l530 662h-330l-188 -19l-10 15l20 204l228 -4h469l112 2v-188z" />
    <glyph glyph-name="braceleft" unicode="{" horiz-adv-x="604" 
d="M434 338q0 -47 -24 -145q-23 -113 -23 -144q0 -127 111 -127q29 0 73 10l23 -137l-12 -20q-61 -18 -131 -19q-135 0 -207 62.5t-72 179.5q0 72 22 177t21 149q0 125 -141 161v129q141 37 141 162q1 44 -21 150t-22 178q0 117 71.5 179.5t207.5 62.5q57 -1 131 -19l12 -20
l-23 -140q-45 10 -73 11q-111 0 -111 -125q0 -43 24 -149t23 -138q0 -145 -139 -211v-10q139 -63 139 -207z" />
    <glyph glyph-name="bar" unicode="|" horiz-adv-x="628" 
d="M416 596v-1112l-185 -14l-22 24l4 2136l188 15l21 -19z" />
    <glyph glyph-name="braceright" unicode="}" horiz-adv-x="604" 
d="M104 -78q111 0 111 125q0 43 -24 149t-23 138q0 145 139 211v10q-139 63 -139 207q0 47 25 145q23 113 22 144q0 127 -111 127q-29 0 -73 -11l-23 138l12 20q61 18 132 18q134 0 206 -62t72 -179q0 -72 -21 -178t-22 -148q0 -125 141 -162v-129q-141 -37 -141 -161
q0 -45 22 -151t21 -177q0 -117 -72 -179t-206 -63q-58 1 -132 19l-12 20l23 139q45 -10 73 -10z" />
    <glyph glyph-name="asciitilde" unicode="~" horiz-adv-x="983" 
d="M307 483q-31 0 -58.5 -24.5t-88.5 -89.5h-27l-72 90v24l168 191l25 10q45 -6 220 -57t202 -51t52.5 19t70.5 64l28 31h25l72 -88v-24l-168 -191l-25 -10q-59 8 -226 57t-198 49z" />
    <glyph glyph-name="nonbreakingspace" unicode="&#xa0;" horiz-adv-x="309" 
 />
    <glyph glyph-name="exclamdown" unicode="&#xa1;" horiz-adv-x="540" 
d="M164 824q0 68 39 108q39 41 107 41t103 -37q36 -37 36 -105q0 -69 -40 -109q-41 -40 -107 -40t-102 37t-36 105zM199 473l155 21l27 -27l16 -827l-24 -31l-215 -15l-33 33z" />
    <glyph glyph-name="cent" unicode="&#xa2;" horiz-adv-x="784" 
d="M59 554q0 200 95.5 330t267.5 158l18 304h170l29 -25l-18 -279q84 -12 147 -43l-45 -217l-23 -10q-104 57 -192 57t-139.5 -67.5t-51.5 -201.5t79.5 -242.5t338.5 8.5l21 -17l-27 -211q-82 -25 -170 -35l-20 -317h-177l-20 23l18 305q-143 35 -222 157.5t-79 322.5z" />
    <glyph glyph-name="sterling" unicode="&#xa3;" horiz-adv-x="913" 
d="M348 184h295l207 15l10 -15l-18 -190l-258 6h-537l-10 14l12 148q150 37 150 205l-2 190h-150l-10 14l14 131h146l-2 144q-2 180 106.5 276.5t306.5 96.5q113 0 236 -33l-17 -195l-16 -12q-125 66 -223 65q-158 0 -158 -157l-2 -185h262l8 -12l-10 -133h-260l-2 -174
q0 -129 -78 -190v-9z" />
    <glyph glyph-name="currency" unicode="&#xa4;" horiz-adv-x="890" 
d="M279 715q0 -78 49 -126t126.5 -48t127 49t49.5 126t-49.5 126t-127 49t-126.5 -49t-49 -127zM776 722q0 -78 -41 -155l144 -121l2 -24l-117 -125l-25 2l-125 141q-76 -49 -158 -49t-151 43l-121 -141l-24 -2l-125 117l2 26l139 123q-45 72 -45 154t43 155l-141 121l-4 25
l116 123h25l129 -142q68 43 151 43t150 -39l123 142l27 4l122 -117v-25l-141 -127q45 -74 45 -152z" />
    <glyph glyph-name="yen" unicode="&#xa5;" horiz-adv-x="1077" 
d="M655 352h369l12 -12l-10 -113h-383l8 -227h-233l10 227h-360l-11 15l9 110h350l-80 154h-268l-11 16l9 109h204l-209 401h246l25 -74l203 -380h16l221 372l35 82h240l-232 -401h209l12 -10l-10 -115h-283z" />
    <glyph glyph-name="brokenbar" unicode="&#xa6;" horiz-adv-x="628" 
d="M416 -516l-185 -14l-22 24l2 813l182 21l23 -25v-819zM416 772l-187 -22l-18 16v864l190 15l21 -19z" />
    <glyph glyph-name="section" unicode="&#xa7;" horiz-adv-x="882" 
d="M602 537q0 59 -48 98t-157 96q-106 -55 -106 -137q0 -55 50 -96t155 -95q106 51 106 134zM516 66q0 38 -40 68t-129 75t-187.5 111t-98.5 210q0 88 51.5 167t139.5 126q-104 84 -105 199q0 84 50.5 155.5t138.5 114.5t210 43t242 -47l-32 -207l-33 -10q-133 88 -227 88
q-53 0 -86 -28.5t-33 -66.5t38 -65.5t128 -73.5t148.5 -84t100.5 -98.5t42 -144.5t-51.5 -162t-141.5 -125q107 -85 107 -200q0 -84 -50.5 -156t-138 -114t-177.5 -42q-179 0 -331 60l35 215l25 16q144 -121 278 -121q59 0 93 29.5t34 67.5z" />
    <glyph glyph-name="dieresis" unicode="&#xa8;" 
d="M352 1174q0 -62 -36 -100t-98 -37q-62 0 -94 34q-33 34 -33 96t36 100q37 37 98 37t94 -34t33 -96zM542 1037q-62 0 -95 34t-33 96t37 100q37 37 98 37t94 -34t33 -96t-36 -100t-98 -37z" />
    <glyph glyph-name="copyright" unicode="&#xa9;" horiz-adv-x="1406" 
d="M739 803q-78 0 -116.5 -44t-38.5 -141q0 -209 166 -208q76 0 147 30l16 -8l-14 -143q-74 -29 -164 -29q-170 0 -256 87t-86 254t92.5 259t262.5 92q88 1 182 -34l-33 -144l-12 -8q-68 37 -146 37zM184 600q0 -158 64.5 -277.5t182.5 -186t271.5 -66.5t271.5 66.5
t182.5 186t64.5 277.5t-64.5 277.5t-182.5 186t-271.5 66.5t-271.5 -66.5t-182.5 -186t-64.5 -277.5zM1317 600q0 -186 -77 -327.5t-216 -219.5t-321.5 -78t-321.5 78t-216 219.5t-77 327.5t77 327.5t216 219.5t321.5 78t321.5 -78t216 -219.5t77 -327.5z" />
    <glyph glyph-name="ordfeminine" unicode="&#xaa;" horiz-adv-x="696" 
d="M242 883q0 -74 67 -74q47 0 92 49l2 107l-110 -21q-51 -10 -51 -61zM588 860q0 -43 24 -43t35 8l15 -12l-21 -113q-47 -34 -100 -34t-80 22t-41 76h-8q-61 -74 -148 -100q-98 2 -155 55t-58 145q0 141 150 166l202 33l3 43q0 82 -82 82q-76 0 -197 -70l-14 6l-23 138
q130 74 258 74q252 -1 252 -189l-6 -158q-6 -86 -6 -129z" />
    <glyph glyph-name="guillemotleft" unicode="&#xab;" horiz-adv-x="878" 
d="M416 485l278 365l129 -68l4 -26l-213 -289l213 -287l-4 -26l-129 -70l-278 356v45zM37 485l278 365l129 -68l5 -26l-213 -289l213 -287l-5 -26l-129 -70l-278 356v45z" />
    <glyph glyph-name="logicalnot" unicode="&#xac;" horiz-adv-x="983" 
d="M698 440h-635l-18 19l14 166h813l13 -17v-506l-166 -12l-21 16v334z" />
    <glyph glyph-name="softhyphen" unicode="&#xad;" horiz-adv-x="622" 
d="M565 463l-487 -76l-23 23v170l488 73l22 -22v-168z" />
    <glyph glyph-name="registered" unicode="&#xae;" horiz-adv-x="913" 
d="M520 1139q0 57 -71 59l-41 -2l-2 -119l63 -4q51 20 51 66zM625 1140q0 -66 -76 -112q37 -57 100 -135l-2 -10q-35 -14 -96 -19l-12 8q-41 66 -72 127h-64l5 -129h-99l2 117l-2 283l174 2q142 0 142 -132zM770 1056q0 142 -86 228t-226 86t-226.5 -86t-86.5 -227
t86.5 -227.5t226.5 -86.5t226 85.5t86 227.5zM838 1057q0 -172 -104.5 -276.5t-276.5 -104.5t-276.5 104.5t-104.5 276.5t104.5 276.5t276.5 104.5t276.5 -104.5t104.5 -276.5z" />
    <glyph glyph-name="macron" unicode="&#xaf;" 
d="M688 1182h-573l-19 18l15 152h573l16 -19z" />
    <glyph glyph-name="degree" unicode="&#xb0;" horiz-adv-x="600" 
d="M152 1072q0 -62 42 -104t105 -42t105 42t42 104t-42 104.5t-105 42.5t-105 -42.5t-42 -104.5zM565 1072q0 -112 -76.5 -188.5t-188.5 -76.5t-189.5 76.5t-77.5 188.5t77.5 188.5t189.5 76.5t188.5 -76.5t76.5 -188.5z" />
    <glyph glyph-name="plusminus" unicode="&#xb1;" horiz-adv-x="983" 
d="M586 625h332l18 -19l-14 -166h-336v-338l-166 -12l-21 16v334h-333l-19 19l14 166h338v340l166 14l21 -21v-333zM922 -238h-856l-19 19l14 166h857l18 -19z" />
    <glyph glyph-name="twosuperior" unicode="&#xb2;" horiz-adv-x="739" 
d="M623 1251q0 -59 -39 -129t-127 -176l-105 -131l4 -4h187l137 8l10 -14l-22 -168l-193 8h-342l-53 -2l-12 6v127l192 209q80 92 112 136q61 83 10 129q-22 19 -60 20q-92 0 -193 -94h-25l-36 161q158 106 309 107q106 0 176 -51t70 -142z" />
    <glyph glyph-name="threesuperior" unicode="&#xb3;" horiz-adv-x="657" 
d="M379 883q0 78 -103 78h-106l-10 14l2 141l63 2q49 2 85 29t36 67q0 63 -86 64q-63 0 -160 -51h-22l-33 143q123 76 252 76t200 -52t70 -139q0 -121 -125 -186v-8q147 -43 148 -184q0 -109 -100 -177t-265 -67q-80 0 -155 16l-15 152l17 14q80 -23 157 -22q150 0 150 90z
" />
    <glyph glyph-name="acute" unicode="&#xb4;" 
d="M647 1333l-4 -26q-186 -120 -399 -242l-27 2l-65 102q238 190 370 314l27 -2z" />
    <glyph glyph-name="glyph119" unicode="&#xb5;" horiz-adv-x="1069" 
d="M863 -14q-73 0 -113 32t-66 109h-16q-106 -109 -219 -139q-45 0 -76 8v-375h-256l8 772l-8 541l256 22v-604q0 -145 127 -145q82 0 174 80v647l258 22l-17 -700q-2 -76 48 -76q18 0 51 15l20 -15l-28 -145q-70 -49 -143 -49z" />
    <glyph glyph-name="paragraph" unicode="&#xb6;" horiz-adv-x="1069" 
d="M342 879q0 -206 193 -304l-95 -143q-186 43 -287.5 159.5t-101.5 308.5t130 305.5t370 113.5h463l18 -23l-18 -188h-137l-11 -705l2 -124q0 -158 -88 -262.5t-305 -190.5l-74 123v26q113 61 162 129t49 162v105l-10 739h-92q-168 -25 -168 -231z" />
    <glyph glyph-name="periodcentered" unicode="&#xb7;" horiz-adv-x="468" 
d="M375 520q0 -68 -39 -108t-107 -41q-67 0 -103 37q-36 36 -36 104t40 109t106 41t103 -37q36 -37 36 -105z" />
    <glyph glyph-name="cedilla" unicode="&#xb8;" 
d="M584 -254q0 -72 -53.5 -115t-142.5 -43t-165 58l19 114l12 7q62 -61 116 -61t54 42q0 23 -35 41l-100 57l47 207h131l-37 -151l70 -39q84 -45 84 -117z" />
    <glyph glyph-name="onesuperior" unicode="&#xb9;" horiz-adv-x="565" 
d="M401 928l9 -283h-222l9 258v305l-162 -37l-15 11v170l361 94l31 -23z" />
    <glyph glyph-name="ordmasculine" unicode="&#xba;" horiz-adv-x="710" 
d="M358 803q59 0 84 41q25 42 25 148t-26 152t-85 46t-84 -41q-24 -41 -24 -147t26 -153q26 -46 84 -46zM362 1335q302 -1 302 -331q0 -164 -82 -253t-232 -89q-302 0 -303 325q0 170 82 259q83 89 233 89z" />
    <glyph glyph-name="guillemotright" unicode="&#xbb;" horiz-adv-x="872" 
d="M829 453l-278 -365l-129 68l-4 26l213 289l-213 287l4 26l129 70l278 -356v-45zM453 453l-279 -365l-129 68l-4 26l213 289l-213 287l4 26l129 70l279 -356v-45z" />
    <glyph glyph-name="onequarter" unicode="&#xbc;" horiz-adv-x="1529" 
d="M1180 338l-2 221h-13l-157 -221h172zM1356 176l10 -162l-12 -14l-170 -8l-13 10l5 176h-207l-135 -6l-15 18v134l338 467h201l-6 -453h110l13 -19l-11 -147zM35 1057l-15 10v170l361 94l31 -22l-11 -496l9 -283h-222l9 258v306zM262 -188l-117 69l-12 29l959 1495
l110 -68l15 -39z" />
    <glyph glyph-name="onehalf" unicode="&#xbd;" horiz-adv-x="1583" 
d="M1165 625q-93 0 -192 -95h-25l-37 162q158 106 310 107q106 0 175.5 -51.5t69.5 -141.5q0 -59 -38.5 -128.5t-127.5 -176.5l-104 -131l4 -4h186l138 8l10 -14l-23 -168l-192 8h-342l-53 -2l-13 6v127l193 209q80 92 111.5 136t31.5 77t-21.5 52.5t-60.5 19.5zM401 813
l9 -283h-222l9 258v306l-162 -37l-15 10v170l361 94l31 -22zM1217 1298l-955 -1486l-117 69l-12 29l959 1495l110 -68z" />
    <glyph glyph-name="threequarters" unicode="&#xbe;" horiz-adv-x="1607" 
d="M1257 338l-2 221h-12l-158 -221h172zM1434 176l10 -162l-12 -14l-170 -8l-13 10l4 176h-206l-136 -6l-14 18v134l338 467h201l-6 -453h110l12 -19l-10 -147zM225 518q-80 0 -155 17l-15 151l17 14q80 -23 157 -22q150 0 150 90q0 78 -103 78h-106l-10 14l2 141l63 3
q49 2 85 28.5t36 67.5q0 63 -86 63q-63 0 -160 -51h-22l-33 143q123 76 252 76t199.5 -52t70.5 -138q0 -121 -125 -187v-8q147 -43 148 -184q0 -109 -100.5 -176.5t-264.5 -67.5zM340 -188l-117 69l-12 29l958 1495l111 -68l14 -39z" />
    <glyph glyph-name="questiondown" unicode="&#xbf;" horiz-adv-x="696" 
d="M246 824q0 68 39 108q39 41 107 41t103 -37t35 -105q0 -69 -40 -109t-106 -40t-102 37t-36 105zM217 -30q0 -90 88 -133q88 -44 285 -56l18 -27l-49 -151l-27 -15q-270 17 -415 101t-146 231q0 176 187 283l147 88l4 10l-12 174l190 25l19 -19l20 -245l-10 -21l-184 -94
q-115 -61 -115 -151z" />
    <glyph glyph-name="Agrave" unicode="&#xc0;" horiz-adv-x="1228" 
d="M631 1059h-19l-180 -549l174 -4l180 4zM913 0l-32 172l-35 123l-258 6l-228 -6l-34 -109l-35 -186h-275l445 1319h332l403 -1319h-283zM371 1630l-9 25l70 162l25 6q178 -106 426 -232l-45 -112l-27 -9q-252 86 -440 160z" />
    <glyph glyph-name="Aacute" unicode="&#xc1;" horiz-adv-x="1228" 
d="M631 1059h-19l-180 -549l176 -4l178 4zM913 0l-32 172l-35 123l-258 6l-228 -6l-34 -109l-35 -186h-275l447 1319h330l403 -1319h-283zM922 1653l-9 -25q-188 -74 -440 -160l-27 9l-45 112q248 125 426 232l25 -6z" />
    <glyph glyph-name="Acircumflex" unicode="&#xc2;" horiz-adv-x="1228" 
d="M631 1059h-19l-180 -549l174 -4l180 4zM913 0l-32 172l-35 123l-258 6l-228 -6l-34 -109l-35 -186h-275l445 1319h332l403 -1319h-283zM315 1599q141 94 275 213h55q127 -113 275 -213l-50 -108h-26l-64 37q-76 39 -162 92q-86 -53 -161 -92l-64 -37h-26z" />
    <glyph glyph-name="Atilde" unicode="&#xc3;" horiz-adv-x="1228" 
d="M631 1059h-19l-180 -549l176 -4l178 4zM913 0l-32 172l-35 123l-258 6l-228 -6l-34 -109l-35 -186h-275l447 1319h330l403 -1319h-283zM489 1579q-38 0 -127 -104h-24l-82 79v23l145 182l25 10q49 -7 169 -39t152 -32t91 67q25 27 32 37h25l80 -80v-22l-144 -182l-26 -11
q-55 6 -174 39t-142 33z" />
    <glyph glyph-name="Adieresis" unicode="&#xc4;" horiz-adv-x="1228" 
d="M631 1059h-19l-180 -549l174 -4l180 4zM913 0l-32 172l-35 123l-258 6l-228 -6l-34 -109l-35 -186h-275l445 1319h332l403 -1319h-283zM668 1629q0 62 35.5 99t97 37t94.5 -33.5t33 -96.5t-36 -99.5t-97.5 -36.5t-94 34t-32.5 96zM311 1629q0 62 36 99t97 37t94 -33.5
t33 -96.5t-35.5 -99.5t-97 -36.5t-94.5 34t-33 96z" />
    <glyph glyph-name="Aring" unicode="&#xc5;" horiz-adv-x="1228" 
d="M631 1059h-19l-180 -549l176 -4l178 4zM913 0l-32 172l-35 123l-258 6l-228 -6l-34 -109l-35 -186h-275l447 1319h330l403 -1319h-283zM532 1657q0 -82 84 -82t84 79t-84 79t-84 -76zM813 1659q0 -93 -54 -145q-55 -52 -147 -52t-142 49t-50 143t52 144q52 51 148 51
t144 -49q49 -49 49 -141z" />
    <glyph glyph-name="AE" unicode="&#xc6;" horiz-adv-x="1683" 
d="M733 1059h-18l-223 -473l290 76zM1649 0h-797l-10 172l-35 281l-434 -115l-72 -152l-61 -186h-277l635 1319h901l19 -23l-23 -206l-317 10h-181l45 -371l398 102l20 -16l23 -194l-416 -99l37 -305h209l338 12l16 -22z" />
    <glyph glyph-name="Ccedilla" unicode="&#xc7;" horiz-adv-x="1058" 
d="M573 -14q-516 54 -516 676q0 312 165 492.5t464 180.5q195 0 348 -80l-51 -231l-20 -10q-129 92 -287 92q-328 0 -328 -428q0 -463 336 -463q164 0 301 88l27 -14l-23 -236q-137 -61 -287 -71l-20 -80l70 -39q84 -45 84 -117t-53.5 -115t-142.5 -43t-165 58l19 114l12 7
q61 -61 115.5 -61.5t54.5 42.5q0 23 -35 41l-100 57z" />
    <glyph glyph-name="Egrave" unicode="&#xc8;" horiz-adv-x="1042" 
d="M1004 207l-17 -207h-827l16 393l-16 926h835l15 -23l-19 -206l-317 10l-236 -2l-4 -320l223 -2l217 6l17 -20l-19 -207l-233 6l-209 -2l-2 -141l6 -199l230 -2l325 12zM332 1630l-8 25l69 162l25 6q178 -106 426 -232l-45 -112l-27 -9q-252 86 -440 160z" />
    <glyph glyph-name="Eacute" unicode="&#xc9;" horiz-adv-x="1042" 
d="M1006 207l-19 -207h-827l14 393l-14 926h835l17 -23l-21 -206l-315 10l-238 -2l-6 -318l227 -4l215 6l17 -20l-19 -207l-233 6l-211 -2l-2 -141l6 -199l232 -2l325 12zM883 1653l-9 -25q-188 -74 -440 -160l-26 9l-46 112q248 125 426 232l25 -6z" />
    <glyph glyph-name="Ecircumflex" unicode="&#xca;" horiz-adv-x="1042" 
d="M1004 207l-17 -207h-827l16 393l-16 926h835l15 -23l-19 -206l-317 10l-236 -2l-4 -320l223 -2l217 6l17 -20l-19 -207l-233 6l-209 -2l-2 -141l6 -199l230 -2l325 12zM276 1599q141 94 275 213h55q127 -113 275 -213l-50 -108h-26l-64 37q-76 39 -161 92
q-86 -53 -162 -92l-64 -37h-26z" />
    <glyph glyph-name="Edieresis" unicode="&#xcb;" horiz-adv-x="1042" 
d="M1004 207l-17 -207h-827l16 393l-16 926h835l15 -23l-19 -206l-317 10l-236 -2l-4 -320l223 -2l217 6l17 -20l-19 -207l-233 6l-209 -2l-2 -141l6 -199l230 -2l325 12zM629 1629q0 62 35.5 99t97 37t94.5 -33.5t33 -96.5t-36 -99.5t-97.5 -36.5t-94 34t-32.5 96z
M406 1765q126 0 126 -130q0 -63 -35.5 -99.5t-97 -36.5t-94.5 34t-33 96t36 99t98 37z" />
    <glyph glyph-name="Igrave" unicode="&#xcc;" horiz-adv-x="604" 
d="M440 0h-280l16 393l-16 926h282l-14 -901zM565 1591l-45 -112l-26 -9q-252 86 -441 160l-8 25l70 162l24 6q178 -107 426 -232z" />
    <glyph glyph-name="Iacute" unicode="&#xcd;" horiz-adv-x="604" 
d="M438 0h-278l14 393l-14 926h282l-16 -901zM606 1653l-8 -25q-188 -74 -440 -160l-27 9l-45 112q248 125 426 232l25 -6z" />
    <glyph glyph-name="Icircumflex" unicode="&#xce;" horiz-adv-x="604" 
d="M440 0h-280l16 393l-16 926h282l-14 -901zM272 1812h56q127 -113 274 -213l-49 -108h-27l-63 37q-76 39 -162 92q-86 -53 -162 -92l-63 -37h-27l-51 108q141 94 274 213z" />
    <glyph glyph-name="Eth" unicode="&#xd0;" horiz-adv-x="1392" 
d="M1047 645q0 242 -79 351.5t-247 109.5q-104 0 -232 -10l-4 -348h240l12 -19l-8 -166h-248l-2 -145l6 -203q143 -14 238 -14q324 0 324 444zM1335 709q0 -350 -172 -536.5t-491 -186.5q-225 0 -459 14h-2l16 393l-2 170h-182l-12 19l10 166h180l-10 571h2l530 8
q287 0 439.5 -159.5t152.5 -458.5z" />
    <glyph glyph-name="Ntilde" unicode="&#xd1;" horiz-adv-x="1423" 
d="M1260 0h-299l-537 893h-18l-3 -438l11 -455h-254l14 389l-12 930h299l536 -893h19l-8 881l258 16l-17 -915zM834 1698q46 0 129 104h24l80 -80v-22l-143 -182l-27 -11q-55 6 -174 39t-141 33q-37 0 -127 -104h-25l-82 79v23l146 182l24 10q49 -7 169 -39t147 -32z" />
    <glyph glyph-name="Ograve" unicode="&#xd2;" horiz-adv-x="1316" 
d="M346 663.5q0 -245.5 73 -357t237.5 -111.5t239.5 102t75 349t-74 356.5t-239.5 109.5t-238.5 -101.5t-73 -347zM1260 673.5q0 -325.5 -162 -509.5t-451 -184t-439.5 173t-150.5 498.5t163 505.5t450.5 180t438.5 -169t151 -494.5zM926 1591l-45 -112l-27 -9
q-252 86 -440 160l-8 25l69 162l25 6q178 -107 426 -232z" />
    <glyph glyph-name="Oacute" unicode="&#xd3;" horiz-adv-x="1316" 
d="M346 664q0 -246 73 -358t239 -112t239 103q74 102 74 349q0 246 -73 356q-72 110 -238 110t-240 -101t-74 -347zM1262 674q0 -326 -163 -510t-452 -184t-439 173t-151 499q0 326 163 505q164 180 452 180t439 -169q151 -168 151 -494zM965 1653l-9 -25
q-188 -74 -440 -160l-27 9l-45 112q248 125 426 232l25 -6z" />
    <glyph glyph-name="Ocircumflex" unicode="&#xd4;" horiz-adv-x="1316" 
d="M346 663.5q0 -245.5 73 -357t237.5 -111.5t239.5 102t75 349t-74 356.5t-239.5 109.5t-238.5 -101.5t-73 -347zM1260 673.5q0 -325.5 -162 -509.5t-451 -184t-439.5 173t-150.5 498.5t163 505.5t450.5 180t438.5 -169t151 -494.5zM633 1812h55q127 -113 275 -213
l-50 -108h-26l-64 37q-76 39 -161 92q-86 -53 -162 -92l-64 -37h-26l-52 108q142 94 275 213z" />
    <glyph glyph-name="Otilde" unicode="&#xd5;" horiz-adv-x="1316" 
d="M346 664q0 -246 73 -358t239 -112t239 103q74 102 74 349q0 246 -73 356q-72 110 -238 110t-240 -101t-74 -347zM1262 674q0 -326 -163 -510t-452 -184t-439 173t-151 499q0 326 163 505q164 180 452 180t439 -169q151 -168 151 -494zM532 1579q-44 0 -126 -104h-25
l-82 79v23l145 182l25 10q49 -7 169 -39t152 -32t91 67q25 27 32 37h25l80 -80v-22l-144 -182l-26 -11q-55 6 -174 39t-142 33z" />
    <glyph glyph-name="multiply" unicode="&#xd7;" horiz-adv-x="983" 
d="M858 768l-235 -233l235 -238v-25l-127 -108l-239 237l-240 -239l-125 110v23l235 240l-235 233v29l125 106l240 -239l239 239l127 -106v-29z" />
    <glyph glyph-name="Oslash" unicode="&#xd8;" horiz-adv-x="1316" 
d="M971 646q0 247 -74 356.5t-240 109.5t-238.5 -101.5t-72.5 -347t73 -357t237.5 -111.5t239.5 102t75 349zM1260 704.5q0 -356.5 -162 -540.5t-461 -184q-98 0 -174 20l-117 -244l-174 64l-12 24l116 244q-219 170 -219 555q0 334 163 514t462 180q94 0 180 -22l105 217
l170 -62l16 -28l-104 -217q211 -164 211 -520.5z" />
    <glyph glyph-name="Ugrave" unicode="&#xd9;" horiz-adv-x="1306" 
d="M642 -18q-255 0 -386 124.5t-127 358.5l4 190l-6 664h279l-15 -817q-2 -293 262.5 -293t261.5 278l-12 832h281l-10 -844q2 -236 -137.5 -364.5t-394.5 -128.5zM924 1591l-45 -112l-27 -9q-252 86 -440 160l-9 25l70 162l25 6q178 -107 426 -232z" />
    <glyph glyph-name="Uacute" unicode="&#xda;" horiz-adv-x="1306" 
d="M642 -18q-255 0 -386 124t-125 359l2 190l-6 664h279l-15 -817q-2 -293 263 -293t264 278l-15 832h283l-10 -670l-2 -174q2 -237 -138 -365t-394 -128zM963 1653l-9 -25q-188 -74 -440 -160l-27 9l-45 112q248 125 426 232l25 -6z" />
    <glyph glyph-name="Ucircumflex" unicode="&#xdb;" horiz-adv-x="1306" 
d="M642 -18q-255 0 -386 124.5t-127 358.5l4 190l-6 664h279l-15 -817q-2 -293 262.5 -293t261.5 278l-12 832h281l-10 -844q2 -236 -137.5 -364.5t-394.5 -128.5zM631 1812h55q127 -113 275 -213l-50 -108h-26l-64 37q-76 39 -162 92q-86 -53 -161 -92l-64 -37h-26l-52 108
q142 94 275 213z" />
    <glyph glyph-name="Udieresis" unicode="&#xdc;" horiz-adv-x="1306" 
d="M642 -18q-255 0 -386 124.5t-127 358.5l4 190l-6 664h279l-15 -817q-2 -293 262.5 -293t261.5 278l-12 832h281l-10 -844q2 -236 -137.5 -364.5t-394.5 -128.5zM971 1635q0 -63 -36 -99.5t-97 -36.5t-94 34t-33 96t35.5 99t97 37t94.5 -33.5t33 -96.5zM488 1765
q126 0 126 -130q0 -63 -35.5 -99.5t-97 -36.5t-94.5 34t-33 96t36 99t98 37z" />
    <glyph glyph-name="Thorn" unicode="&#xde;" horiz-adv-x="1148" 
d="M813 686q0 113 -55.5 165t-171.5 56l-148 -6l-8 -467l193 -8q190 51 190 260zM674 1112q432 0 432 -420q0 -216 -140.5 -343.5t-400.5 -127.5l-131 -2l6 -219h-280l14 393l-10 717l-4 209h284l-4 -207h234z" />
    <glyph glyph-name="germandbls" unicode="&#xdf;" horiz-adv-x="1204" 
d="M874 287q0 41 -33.5 71.5t-100 61.5t-199.5 84l-6 33l217 270q-84 39 -164 39q-213 0 -213 -189l-6 -325l10 -332h-258l12 303l-6 354q0 180 127 286t344 106t465 -111l12 -33l-235 -293q121 -59 218 -126t97 -208t-108.5 -217.5t-276.5 -76.5t-305 65l35 236l20 12
q126 -109 236 -109q53 0 85.5 29t32.5 70z" />
    <glyph glyph-name="agrave" unicode="&#xe0;" horiz-adv-x="1083" 
d="M553 799h-16l-138 -396l133 -2l138 2zM772 0l-27 150l-18 59l-211 2l-184 -4l-15 -43l-30 -164h-252l362 1034h305l330 -1034h-260zM711 1147q-201 113 -400 242l-4 26l99 148l26 2q133 -123 371 -314l-66 -102z" />
    <glyph glyph-name="aacute" unicode="&#xe1;" horiz-adv-x="1083" 
d="M553 799h-16l-138 -396l133 -2l138 2zM772 0l-29 150l-18 59l-209 2l-184 -4l-15 -43l-30 -164h-252l362 1034h305l330 -1034h-260zM852 1415l-4 -26q-186 -120 -399 -242l-27 2l-66 102q238 190 371 314l27 -2z" />
    <glyph glyph-name="acircumflex" unicode="&#xe2;" horiz-adv-x="1083" 
d="M553 799h-16l-138 -396l133 -2l138 2zM772 0l-27 150l-18 59l-211 2l-184 -4l-15 -43l-30 -164h-252l362 1034h305l330 -1034h-260zM238 1264q117 106 288 288h60q160 -176 286 -288l-67 -105h-27q-135 106 -223 189q-80 -76 -221 -189h-27z" />
    <glyph glyph-name="atilde" unicode="&#xe3;" horiz-adv-x="1083" 
d="M553 799h-16l-138 -396l133 -2l138 2zM772 0l-29 150l-18 59l-209 2l-184 -4l-15 -43l-30 -164h-252l362 1034h305l330 -1034h-260zM678 1413q45 0 129 105h24l80 -80v-23l-143 -182l-27 -10q-55 6 -174 39q-119 32 -141 32q-38 -1 -127 -104h-25l-81 80v22l145 183
l24 10q50 -6 170 -39t146 -33z" />
    <glyph glyph-name="adieresis" unicode="&#xe4;" horiz-adv-x="1083" 
d="M553 799h-16l-138 -396l133 -2l138 2zM772 0l-27 150l-18 59l-211 2l-184 -4l-15 -43l-30 -164h-252l362 1034h305l330 -1034h-260zM606 1344q0 62 36 99.5t97 37.5t94 -34t33 -96.5t-35.5 -99.5t-97 -37t-94.5 34t-33 96zM250 1344q0 62 36 99.5t97 37.5t94 -34
t33 -96.5t-36 -99.5t-97.5 -37t-94 34t-32.5 96z" />
    <glyph glyph-name="aring" unicode="&#xe5;" horiz-adv-x="1083" 
d="M553 799h-16l-138 -396l133 -2l138 2zM772 0l-29 150l-18 59l-209 2l-184 -4l-15 -43l-30 -164h-252l362 1034h305l330 -1034h-260zM469 1372q0 -82 84 -82t84 79t-84 79t-84 -76zM549 1178q-92 0 -142 49q-51 49 -51 142t52 144t148 51q95 0 144 -48q50 -50 50 -142
t-54 -144t-147 -52z" />
    <glyph glyph-name="ae" unicode="&#xe6;" horiz-adv-x="1456" 
d="M639 811h-16l-187 -356l242 61zM1409 0h-672l-8 141l-27 193l-383 -101l-40 -77l-50 -156h-237l530 1034h766l15 -20l-21 -180l-266 12h-148l35 -273l334 86l16 -14l19 -176l-346 -78l26 -201h176l283 11l14 -19z" />
    <glyph glyph-name="ccedilla" unicode="&#xe7;" horiz-adv-x="929" 
d="M483 -10q-415 50 -415 532q0 244 139 385.5t395 141.5q156 0 289 -54l-45 -217l-23 -10q-102 70 -232 70t-190.5 -73t-60.5 -228q0 -338 258 -338q129 0 246 61l24 -12l-22 -215q-104 -43 -234 -49l-20 -82l70 -39q84 -45 83.5 -117t-53.5 -115t-142 -43t-165 58l18 114
l13 7q61 -61 115.5 -61.5t54.5 42.5q0 23 -35 41l-100 57z" />
    <glyph glyph-name="egrave" unicode="&#xe8;" horiz-adv-x="933" 
d="M877 193l-19 -193h-708l12 307l-12 727h718l15 -20l-17 -191l-266 11h-192l-5 -209l185 -2l178 6l16 -19l-18 -194l-195 6h-170l-2 -90l4 -131h181l278 8zM664 1147q-201 113 -400 242l-4 26l98 148l27 2q133 -123 371 -314l-66 -102z" />
    <glyph glyph-name="eacute" unicode="&#xe9;" horiz-adv-x="933" 
d="M877 193l-19 -193h-708l10 307l-10 727h718l15 -20l-17 -191l-266 11h-192l-5 -209l185 -2l178 6l14 -19l-16 -194l-195 6h-170l-2 -90l4 -131h181l278 8zM805 1415l-4 -26q-199 -129 -400 -242l-26 2l-66 102q238 190 371 314l27 -2z" />
    <glyph glyph-name="ecircumflex" unicode="&#xea;" horiz-adv-x="933" 
d="M877 193l-19 -193h-708l12 307l-12 727h718l15 -20l-17 -191l-266 11h-192l-5 -209l185 -2l178 6l16 -19l-18 -194l-195 6h-170l-2 -90l4 -131h181l278 8zM190 1264q117 106 289 288h60q160 -176 286 -288l-67 -105h-27q-135 106 -223 189q-80 -76 -221 -189h-27z" />
    <glyph glyph-name="edieresis" unicode="&#xeb;" horiz-adv-x="933" 
d="M877 193l-19 -193h-708l12 307l-12 727h718l15 -20l-17 -191l-266 11h-192l-5 -209l185 -2l178 6l16 -19l-18 -194l-195 6h-170l-2 -90l4 -131h181l278 8zM559 1344q0 62 36 99.5t97 37.5t94 -34t33 -96.5t-35.5 -99.5t-97 -37t-94.5 34t-33 96zM203 1344q0 62 35.5 99.5
t97 37.5t94.5 -34t33 -96.5t-36 -99.5t-97.5 -37t-94 34t-32.5 96z" />
    <glyph glyph-name="igrave" unicode="&#xec;" horiz-adv-x="571" 
d="M408 0h-258l12 307l-12 727h262l-15 -702zM537 1251l-66 -102l-27 -2q-192 109 -399 242l-4 26l98 148l27 2q133 -124 371 -314z" />
    <glyph glyph-name="iacute" unicode="&#xed;" horiz-adv-x="571" 
d="M408 0h-258l10 307l-10 727h262l-15 -702zM586 1415l-4 -26q-199 -129 -400 -242l-26 2l-66 102q238 190 371 314l26 -2z" />
    <glyph glyph-name="icircumflex" unicode="&#xee;" horiz-adv-x="571" 
d="M408 0h-258l12 307l-12 727h262l-15 -702zM262 1552h60q160 -176 286 -288l-67 -105h-27q-135 106 -223 189q-80 -76 -221 -189h-27l-70 105q117 106 289 288z" />
    <glyph glyph-name="eth" unicode="&#xf0;" horiz-adv-x="1222" 
d="M881 496q0 182 -59.5 261t-190.5 79q-96 0 -176 -9l-4 -235h217l12 -19l-10 -147h-224l-2 -94l5 -133q139 -14 186 -15q246 1 246 312zM1149 537q0 -254 -145.5 -401.5t-413.5 -147.5q-156 0 -393 12l12 307l-2 119h-156l-14 20l10 146h158l-8 442l456 8
q240 0 368 -125.5t128 -379.5z" />
    <glyph glyph-name="ntilde" unicode="&#xf1;" horiz-adv-x="1236" 
d="M1085 0h-280l-414 641h-14l-2 -279l8 -362h-233l10 303l-10 731h278l414 -641h18l-8 631l238 16l-15 -712zM738 1413q26 0 65 34t65 71h25l80 -80v-23l-144 -182l-26 -10q-55 6 -174 39q-119 32 -142 32q-38 -1 -127 -104h-24l-82 80v22l145 183l25 10q49 -6 169 -39
q119 -33 145 -33z" />
    <glyph glyph-name="ograve" unicode="&#xf2;" horiz-adv-x="1146" 
d="M336 553.5q0 -151.5 23.5 -228.5t75.5 -110t140 -33q129 0 183.5 67.5t54.5 220t-24.5 229.5t-75.5 110t-160 33t-163 -68.5t-54 -220zM1081 528.5q0 -255.5 -137 -401t-379.5 -145.5t-369.5 136t-127 391t137 398.5t379.5 143.5t369.5 -133.5t127 -389zM825 1251
l-65 -102l-27 -2q-225 127 -399 242l-4 26l98 148l27 2q132 -124 370 -314z" />
    <glyph glyph-name="oacute" unicode="&#xf3;" horiz-adv-x="1146" 
d="M336 553q0 -151 24 -228t75 -110q52 -33 140 -33q129 0 184 68q54 68 54 220t-25 229t-75 110q-51 33 -160 33t-163 -69t-54 -220zM1081 530q0 -256 -138 -402q-137 -146 -379 -146t-369 136t-127 391t137 398t379 143t370 -132q127 -133 127 -388zM874 1415l-4 -26
q-207 -133 -399 -242l-27 2l-65 102q238 190 371 314l26 -2z" />
    <glyph glyph-name="ocircumflex" unicode="&#xf4;" horiz-adv-x="1146" 
d="M336 553.5q0 -151.5 23.5 -228.5t75.5 -110t140 -33q129 0 183.5 67.5t54.5 220t-24.5 229.5t-75.5 110t-160 33t-163 -68.5t-54 -220zM1081 528.5q0 -255.5 -137 -401t-379.5 -145.5t-369.5 136t-127 391t137 398.5t379.5 143.5t369.5 -133.5t127 -389zM549 1552h59
q160 -176 287 -288l-68 -105h-26q-135 106 -223 189q-80 -76 -222 -189h-26l-70 105q117 106 289 288z" />
    <glyph glyph-name="otilde" unicode="&#xf5;" horiz-adv-x="1146" 
d="M336 553q0 -151 24 -228t75 -110q52 -33 140 -33q129 0 184 68q54 68 54 220t-25 229t-75 110q-51 33 -160 33t-163 -69t-54 -220zM1081 530q0 -256 -138 -402q-137 -146 -379 -146t-369 136t-127 391t137 398t379 143t370 -132q127 -133 127 -388zM554 1446
q120 -33 151 -33t92 68q25 27 32 37h25l80 -80v-23l-143 -182l-27 -10q-55 6 -174 39t-141 32q-45 0 -127 -104h-25l-82 80v22l145 183l25 10q49 -6 169 -39z" />
    <glyph glyph-name="divide" unicode="&#xf7;" horiz-adv-x="983" 
d="M932 440h-856l-19 19l15 166h856l18 -19zM481 53q-123 0 -123 125q0 60 35 96t94 36t91 -33t32 -93t-34 -95q-34 -36 -95 -36zM610 795q0 -60 -34 -96t-95 -36q-59 0 -91 33q-32 32 -32 92t35 96t94 36t91 -32q32 -33 32 -93z" />
    <glyph glyph-name="oslash" unicode="&#xf8;" horiz-adv-x="1146" 
d="M813 469.5q0 152.5 -24.5 229.5t-75.5 110t-160 33t-163 -68.5t-54 -220t23.5 -228.5t75.5 -110t140 -33q130 0 184 67.5t54 220zM1081 540.5q0 -268.5 -137 -413.5t-391 -145q-74 0 -143 16l-131 -231l-156 73l-6 25l119 215q-168 137 -168 410.5t137 417t391 143.5
q94 0 164 -21l110 195l148 -76l14 -25l-102 -182q151 -133 151 -401.5z" />
    <glyph glyph-name="ugrave" unicode="&#xf9;" horiz-adv-x="1140" 
d="M560 -16q-216 0 -327.5 95t-107.5 271l4 162l-6 522h258l-14 -647q-2 -195 201.5 -194.5t201.5 194.5l-10 647h262l-10 -526v-158q2 -176 -117 -271t-335 -95zM823 1251l-65 -102l-27 -2q-225 127 -399 242l-4 26l98 148l27 2q132 -124 370 -314z" />
    <glyph glyph-name="uacute" unicode="&#xfa;" horiz-adv-x="1140" 
d="M562 -16q-216 0 -329 95t-106 271l2 162l-6 522h258l-12 -647q-3 -195 201 -195t202 195l-10 647h260l-8 -526l-2 -158q2 -176 -116 -271t-334 -95zM870 1415l-4 -26q-207 -133 -399 -242l-27 2l-65 102q238 190 370 314l27 -2z" />
    <glyph glyph-name="ucircumflex" unicode="&#xfb;" horiz-adv-x="1140" 
d="M560 -16q-216 0 -327.5 95t-107.5 271l4 162l-6 522h258l-14 -647q-2 -195 201.5 -194.5t201.5 194.5l-10 647h262l-10 -526v-158q2 -176 -117 -271t-335 -95zM547 1552h59q160 -176 287 -288l-68 -105h-26q-135 106 -224 189q-80 -76 -221 -189h-26l-70 105
q117 106 289 288z" />
    <glyph glyph-name="udieresis" unicode="&#xfc;" horiz-adv-x="1140" 
d="M560 -16q-216 0 -327.5 95t-107.5 271l4 162l-6 522h258l-14 -647q-2 -195 201.5 -194.5t201.5 194.5l-10 647h262l-10 -526v-158q2 -176 -117 -271t-335 -95zM887 1350.5q0 -62.5 -36 -99.5t-97 -37t-94 34t-33 96t35.5 99.5t97 37.5t94.5 -34t33 -96.5zM530 1350.5
q0 -62.5 -35.5 -99.5t-97 -37t-94.5 34t-33 96t36 99.5t97.5 37.5t94 -34t32.5 -96.5z" />
    <glyph glyph-name="thorn" unicode="&#xfe;" horiz-adv-x="1024" 
d="M696 539q0 78 -43 114.5t-137 40.5l-108 -6l-9 -328l156 -6q72 23 106.5 65t34.5 120zM604 883q367 0 367 -338q0 -172 -121 -274.5t-344 -102.5l-103 -2l7 -166h-260l10 307l-8 572l-2 2h2l-2 153h264l-4 -151h194z" />
    <glyph glyph-name="ydieresis" unicode="&#xff;" horiz-adv-x="1017" 
d="M623 0h-258l12 281l-2 49l-350 704h272l25 -76l172 -362h16l190 352l35 86h266l-389 -698l-2 -55zM571 1344q0 62 36 99.5t97.5 37.5t94 -34t32.5 -96.5t-35.5 -99.5t-97 -37t-94.5 34t-33 96zM215 1344q0 62 36 99.5t97 37.5t94 -34t33 -96.5t-36 -99.5t-97 -37t-94 34
t-33 96z" />
    <glyph glyph-name="Amacron" unicode="&#x100;" horiz-adv-x="1228" 
d="M631 1059h-19l-180 -549l176 -4l178 4zM913 0l-32 172l-35 123l-258 6l-228 -6l-34 -109l-35 -186h-275l447 1319h330l403 -1319h-283zM907 1548h-573l-19 19l15 151h573l17 -18z" />
    <glyph glyph-name="amacron" unicode="&#x101;" horiz-adv-x="1083" 
d="M553 799h-16l-138 -396l133 -2l138 2zM772 0l-29 150l-18 59l-209 2l-184 -4l-15 -43l-30 -164h-252l362 1034h305l330 -1034h-260zM844 1264h-574l-18 18l14 152h574l16 -19z" />
    <glyph glyph-name="Abreve" unicode="&#x102;" horiz-adv-x="1228" 
d="M631 1059h-19l-180 -549l176 -4l178 4zM913 0l-32 172l-35 123l-258 6l-228 -6l-34 -109l-35 -186h-275l447 1319h330l403 -1319h-283zM623 1665q145 0 200 115h39l64 -88q-80 -215 -314 -215q-112 0 -190 55t-113 160l64 88h39q27 -53 82 -84t129 -31z" />
    <glyph glyph-name="abreve" unicode="&#x103;" horiz-adv-x="1083" 
d="M553 799h-16l-138 -396l133 -2l138 2zM772 0l-29 150l-18 59l-209 2l-184 -4l-15 -43l-30 -164h-252l362 1034h305l330 -1034h-260zM551 1167q-125 0 -200 72t-103 184l63 93h39q49 -156 208 -156t204 156h39l63 -93q-30 -116 -109 -186t-204 -70z" />
    <glyph glyph-name="Aogonek" unicode="&#x104;" horiz-adv-x="1228" 
d="M631 1059h-19l-180 -549l174 -4l180 4zM1064 -403q-93 0 -142.5 49t-49.5 115.5t23 116.5t80 122h-62l-32 172l-35 123l-258 6l-228 -6l-34 -109l-35 -186h-275l445 1319h332l403 -1319h-88q-86 -121 -86 -182q0 -68 70 -68t141 60h14l25 -111q-115 -102 -208 -102z" />
    <glyph glyph-name="aogonek" unicode="&#x105;" horiz-adv-x="1083" 
d="M553 799h-16l-138 -396l133 -2l138 2zM912 -401q-89 0 -139 48t-50 130t102 223h-53l-27 150l-18 59l-211 2l-184 -4l-15 -43l-30 -164h-252l362 1034h305l330 -1034h-69q-88 -117 -88.5 -182.5t64 -65.5t124.5 66h16l23 -117q-101 -102 -190 -102z" />
    <glyph glyph-name="Cacute" unicode="&#x106;" horiz-adv-x="1058" 
d="M676 1106q-326 0 -326 -428q0 -463 334 -463q164 0 303 88l25 -14l-23 -236q-156 -72 -327 -71q-295 0 -450 172t-155 496t165 505q165 180 466 180q192 0 346 -80l-49 -231l-22 -10q-129 92 -287 92zM950 1653l-8 -25q-188 -74 -440 -160l-27 9l-45 112q248 125 426 232
l25 -6z" />
    <glyph glyph-name="cacute" unicode="&#x107;" horiz-adv-x="929" 
d="M591 838q-129 0 -191 -73t-62 -228q0 -338 260 -338q129 0 246 61l22 -12l-20 -215q-121 -49 -264 -49q-252 0 -383 135t-131 391t139 397t395 142q154 -1 287 -54l-45 -217l-21 -10q-102 70 -232 70zM852 1415l-4 -26q-186 -120 -399 -242l-27 2l-66 102
q238 190 371 314l27 -2z" />
    <glyph glyph-name="Ccircumflex" unicode="&#x108;" horiz-adv-x="1058" 
d="M676 1106q-328 0 -328 -428q0 -463 336 -463q164 0 301 88l27 -14l-23 -236q-156 -72 -327 -71q-295 0 -450 172t-155 496.5t165 504.5t464 180q194 0 348 -80l-51 -231l-20 -10q-129 92 -287 92zM618 1812h56q127 -113 274 -213l-49 -108h-27l-63 37q-76 39 -162 92
q-86 -53 -162 -92l-63 -37h-27l-51 108q141 94 274 213z" />
    <glyph glyph-name="ccircumflex" unicode="&#x109;" horiz-adv-x="929" 
d="M591 838q-130 0 -190.5 -73t-60.5 -228q0 -338 258 -338q129 0 246 61l24 -12l-22 -215q-121 -49 -264 -49q-252 0 -383 135t-131 391t139 397.5t395 141.5q156 -1 289 -54l-45 -217l-23 -10q-102 70 -232 70zM528 1552h60q160 -176 286 -288l-67 -105h-27
q-135 106 -223 189q-80 -76 -221 -189h-27l-69 105q116 106 288 288z" />
    <glyph glyph-name="Cdotaccent" unicode="&#x10a;" horiz-adv-x="1058" 
d="M676 1106q-328 0 -328 -428q0 -463 336 -463q164 0 301 88l27 -14l-23 -236q-156 -72 -327 -71q-295 0 -450 172t-155 496.5t165 504.5t464 180q194 0 348 -80l-51 -231l-20 -10q-129 92 -287 92zM788 1644.5q0 -67.5 -38.5 -108.5t-106.5 -41t-103.5 37t-35.5 104.5
t40 108.5t106.5 41t102 -37t35.5 -104.5z" />
    <glyph glyph-name="cdotaccent" unicode="&#x10b;" horiz-adv-x="929" 
d="M591 838q-130 0 -190.5 -73t-60.5 -228q0 -338 258 -338q129 0 246 61l24 -12l-22 -215q-121 -49 -264 -49q-252 0 -383 135t-131 391t139 397.5t395 141.5q156 -1 289 -54l-45 -217l-23 -10q-102 70 -232 70zM696 1359.5q0 -67.5 -39 -108.5t-106.5 -41t-103 37
t-35.5 104.5t40 108.5t106.5 41t102 -37t35.5 -104.5z" />
    <glyph glyph-name="Ccaron" unicode="&#x10c;" horiz-adv-x="1058" 
d="M676 1106q-326 0 -326 -428q0 -463 334 -463q164 0 303 88l25 -14l-23 -236q-156 -72 -327 -71q-295 0 -450 172t-155 496t165 505q165 180 466 180q192 0 346 -80l-49 -231l-22 -10q-129 92 -287 92zM676 1470h-55q-127 113 -275 213l49 109h27l63 -37q76 -39 162 -92
q86 53 162 92l63 37h27l51 -109q-141 -94 -274 -213z" />
    <glyph glyph-name="ccaron" unicode="&#x10d;" horiz-adv-x="929" 
d="M591 838q-129 0 -191 -73t-62 -228q0 -338 260 -338q129 0 246 61l22 -12l-20 -215q-121 -49 -264 -49q-252 0 -383 135t-131 391t139 397t395 142q154 -1 287 -54l-45 -217l-21 -10q-102 70 -232 70zM586 1155h-60q-160 176 -286 289l67 104h27q135 -106 223 -188
q80 76 221 188h27l69 -104q-116 -107 -288 -289z" />
    <glyph glyph-name="Dcaron" unicode="&#x10e;" horiz-adv-x="1341" 
d="M995 645q0 241 -79 351t-246 110q-109 0 -232 -10l-12 -678l6 -203q143 -14 238 -14q325 0 325 444zM1284 709q0 -351 -172 -537t-491 -186q-225 0 -461 14l14 393l-14 926l530 8q286 0 440 -160t154 -458zM686 1470h-55q-127 113 -275 213l50 109h26l64 -37
q76 -39 161 -92q86 53 162 92l64 37h26l52 -109q-142 -94 -275 -213z" />
    <glyph glyph-name="dcaron" unicode="&#x10f;" horiz-adv-x="1167" 
d="M834 496q0 182 -60 261t-190 79q-96 0 -176 -9l-11 -495l4 -133q109 -14 187 -15q246 1 246 312zM1100 536q0 -254 -144 -400q-144 -148 -415 -148q-158 0 -391 12l10 307l-10 727l454 8q240 0 368 -126t128 -380zM582 1155h-60q-160 176 -286 289l67 104h27
q135 -106 223 -188q80 76 221 188h27l69 -104q-116 -107 -288 -289z" />
    <glyph glyph-name="Dcroat" unicode="&#x110;" horiz-adv-x="1341" 
d="M995 645q0 241 -79 351t-246 110q-109 0 -232 -10l-12 -678l6 -203q143 -14 238 -14q325 0 325 444zM1284 709q0 -351 -172 -537t-491 -186q-225 0 -461 14l14 393l-14 926l530 8q286 0 440 -160t154 -458zM946 1548h-573l-19 19l15 151h573l16 -18z" />
    <glyph glyph-name="dcroat" unicode="&#x111;" horiz-adv-x="1167" 
d="M834 496q0 182 -60 261t-190 79q-96 0 -176 -9l-11 -495l4 -133q109 -14 187 -15q246 1 246 312zM1100 536q0 -254 -144 -400q-144 -148 -415 -148q-158 0 -391 12l10 307l-10 727l454 8q240 0 368 -126t128 -380zM842 1264h-574l-18 18l14 152h574l16 -19z" />
    <glyph glyph-name="Emacron" unicode="&#x112;" horiz-adv-x="1042" 
d="M1006 207l-19 -207h-827l14 393l-14 926h835l17 -23l-21 -206l-315 10l-238 -2l-6 -318l227 -4l215 6l17 -20l-19 -207l-233 6l-211 -2l-2 -141l6 -199l232 -2l325 12zM868 1548h-573l-19 19l15 151h573l17 -18z" />
    <glyph glyph-name="emacron" unicode="&#x113;" horiz-adv-x="933" 
d="M877 193l-19 -193h-708l10 307l-10 727h718l15 -20l-17 -191l-266 11h-192l-5 -209l185 -2l178 6l14 -19l-16 -194l-195 6h-170l-2 -90l4 -131h181l278 8zM797 1264h-574l-18 18l14 152h574l16 -19z" />
    <glyph glyph-name="Ebreve" unicode="&#x114;" horiz-adv-x="1042" 
d="M1006 207l-19 -207h-827l14 393l-14 926h835l17 -23l-21 -206l-315 10l-238 -2l-6 -318l227 -4l215 6l17 -20l-19 -207l-233 6l-211 -2l-2 -141l6 -199l232 -2l325 12zM584 1665q145 0 200 115h39l64 -88q-80 -215 -314 -215q-111 0 -189 55t-114 160l64 88h39
q27 -53 82 -84t129 -31z" />
    <glyph glyph-name="ebreve" unicode="&#x115;" horiz-adv-x="933" 
d="M877 193l-19 -193h-708l10 307l-10 727h718l15 -20l-17 -191l-266 11h-192l-5 -209l185 -2l178 6l14 -19l-16 -194l-195 6h-170l-2 -90l4 -131h181l278 8zM504 1167q-125 0 -200 72t-103 184l63 93h39q49 -156 208 -156t204 156h39l63 -93q-30 -116 -109 -186t-204 -70z
" />
    <glyph glyph-name="Edotaccent" unicode="&#x116;" horiz-adv-x="1042" 
d="M1004 207l-17 -207h-827l16 393l-16 926h835l15 -23l-19 -206l-317 10l-236 -2l-4 -320l223 -2l217 6l17 -20l-19 -207l-233 6l-209 -2l-2 -141l6 -199l230 -2l325 12zM436 1636.5q0 67.5 40 108.5t106.5 41t102.5 -37t36 -104.5t-39 -108.5t-106.5 -41t-103.5 37
t-36 104.5z" />
    <glyph glyph-name="edotaccent" unicode="&#x117;" horiz-adv-x="933" 
d="M877 193l-19 -193h-708l12 307l-12 727h718l15 -20l-17 -191l-266 11h-192l-5 -209l185 -2l178 6l16 -19l-18 -194l-195 6h-170l-2 -90l4 -131h181l278 8zM365 1351.5q0 67.5 39.5 108.5t106 41t102.5 -37t36 -104.5t-39 -108.5t-106.5 -41t-103 37t-35.5 104.5z" />
    <glyph glyph-name="Eogonek" unicode="&#x118;" horiz-adv-x="1042" 
d="M816 -403q-91 0 -142 51t-51 134t59 163l39 55h-561l16 393l-16 926h835l15 -23l-19 -206l-317 10l-236 -2l-4 -320l223 -2l217 6l17 -20l-19 -207l-233 6l-209 -2l-2 -141l6 -199l230 -2l325 12l15 -22l-17 -207h-131l-51 -78q-33 -55 -33 -96q0 -76 78 -76q61 0 133 60
h14l23 -113q-113 -100 -204 -100z" />
    <glyph glyph-name="eogonek" unicode="&#x119;" horiz-adv-x="933" 
d="M625 -178q0 -76 77 -76q61 0 134 59h14l22 -112q-114 -101 -204 -101t-141.5 51.5t-51.5 134.5t60 163l43 59h-428l12 307l-12 727h718l15 -20l-17 -191l-266 11h-192l-5 -209l185 -2l178 6l16 -19l-18 -194l-195 6h-170l-2 -90l4 -131h181l278 8l17 -16l-19 -193h-145
l-56 -82q-32 -55 -32 -96z" />
    <glyph glyph-name="Ecaron" unicode="&#x11a;" horiz-adv-x="1042" 
d="M1006 207l-19 -207h-827l14 393l-14 926h835l17 -23l-21 -206l-315 10l-238 -2l-6 -318l227 -4l215 6l17 -20l-19 -207l-233 6l-211 -2l-2 -141l6 -199l232 -2l325 12zM608 1470h-55q-127 113 -274 213l49 109h26l64 -37q76 -39 162 -92q86 53 161 92l64 37h26l52 -109
q-142 -94 -275 -213z" />
    <glyph glyph-name="ecaron" unicode="&#x11b;" horiz-adv-x="933" 
d="M877 193l-19 -193h-708l10 307l-10 727h718l15 -20l-17 -191l-266 11h-192l-5 -209l185 -2l178 6l14 -19l-16 -194l-195 6h-170l-2 -90l4 -131h181l278 8zM537 1155h-60q-160 176 -287 289l68 104h27q135 -106 223 -188q80 76 221 188h27l69 -104q-116 -107 -288 -289z
" />
    <glyph glyph-name="Gcircumflex" unicode="&#x11c;" horiz-adv-x="1224" 
d="M696 1110q-182 0 -265 -107.5t-83 -357.5q0 -164 35 -260t110.5 -140t178 -44t198.5 28l4 113l-6 203l258 20l-6 -180l4 -322q-244 -82 -450 -81q-307 0 -462 167.5t-155 495.5t179.5 509t508.5 181q217 0 385 -80l-59 -249l-24 -5q-100 57 -180.5 83t-170.5 26z
M641 1812h55q127 -113 275 -213l-49 -108h-27l-64 37q-76 39 -161 92q-86 -53 -162 -92l-64 -37h-26l-51 108q141 94 274 213z" />
    <glyph glyph-name="gcircumflex" unicode="&#x11d;" horiz-adv-x="1064" 
d="M599 840q-138 0 -199.5 -74t-61.5 -260q0 -123 26.5 -192.5t85 -99.5t137 -30t150.5 25v65l-4 164l236 17l-2 -138v-266q-203 -68 -379 -67q-258 0 -389 132t-131 390t151.5 400.5t429.5 142.5q177 -1 324 -58l-66 -233h-24q-146 82 -284 82zM537 1552h59
q160 -176 287 -288l-68 -105h-27q-135 106 -223 189q-80 -76 -221 -189h-27l-69 105q117 106 289 288z" />
    <glyph glyph-name="Gbreve" unicode="&#x11e;" horiz-adv-x="1224" 
d="M698 1110q-182 0 -266 -109t-84 -356q0 -164 36 -260t112 -140t177 -44t197 28l4 113l-4 203l256 20l-6 -180l6 -322q-246 -82 -452 -81q-307 0 -462 168t-155 496q-1 328 179 508q180 181 509 181q216 0 388 -80l-60 -249l-26 -5q-99 57 -179 83t-170 26zM674 1665
q145 0 200 115h39l64 -88q-80 -215 -313 -215q-111 0 -190 55t-114 160l64 88h39q27 -53 82 -84t129 -31z" />
    <glyph glyph-name="gbreve" unicode="&#x11f;" horiz-adv-x="1064" 
d="M336 506q0 -236 111 -292q58 -30 139 -30t149 25v65l-2 164l236 17l-4 -138v-266q-201 -68 -377 -67q-258 0 -389 132t-131 390t151 400q152 142 430 143q172 -1 324 -58l-68 -233h-22q-143 80 -282 81q-141 1 -203 -74t-62 -259zM561 1167q-125 0 -200 72t-103 184
l64 93h38q49 -156 208 -156t204 156h39l63 -93q-30 -116 -109 -186t-204 -70z" />
    <glyph glyph-name="Gdotaccent" unicode="&#x120;" horiz-adv-x="1224" 
d="M698 1110q-182 0 -266 -109t-84 -356q0 -164 36 -260t112 -140t177 -44t197 28l4 113l-4 203l256 20l-6 -180l6 -322q-246 -82 -452 -81q-307 0 -462 168t-155 496q-1 328 179 508q180 181 509 181q216 0 388 -80l-60 -249l-26 -5q-99 57 -179 83t-170 26zM811 1644
q0 -68 -39 -108q-38 -41 -106 -41t-104 37q-36 36 -36 104t40 109t106 41t103 -37q36 -37 36 -105z" />
    <glyph glyph-name="gdotaccent" unicode="&#x121;" horiz-adv-x="1064" 
d="M599 840q-138 0 -199.5 -74t-61.5 -260q0 -123 26.5 -192.5t85 -99.5t137 -30t150.5 25v65l-4 164l236 17l-2 -138v-266q-203 -68 -379 -67q-258 0 -389 132t-131 390t151.5 400.5t429.5 142.5q177 -1 324 -58l-66 -233h-24q-146 82 -284 82zM705 1359.5
q0 -67.5 -39 -108.5t-106.5 -41t-103.5 37t-36 104.5t40 108.5t106.5 41t102.5 -37t36 -104.5z" />
    <glyph glyph-name="Gcommaaccent" unicode="&#x122;" horiz-adv-x="1224" 
d="M772 -238q0 -162 -221 -319l-80 70l-2 18q102 84 102 180q0 61 -57 111v20q90 53 176 76q82 -64 82 -156zM696 1110q-182 0 -265 -107.5t-83 -357.5q0 -164 35 -260t110.5 -140t178 -44t198.5 28l4 113l-6 203l258 20l-6 -180l4 -322q-244 -82 -450 -81
q-307 0 -462 167.5t-155 495.5t179.5 509t508.5 181q217 0 385 -80l-59 -249l-24 -5q-100 57 -180.5 83t-170.5 26z" />
    <glyph glyph-name="gcommaaccent" unicode="&#x123;" horiz-adv-x="1064" 
d="M696 -238q0 -162 -221 -319l-80 70l-2 18q102 84 103 180q0 61 -58 111v20q90 53 176 76q82 -64 82 -156zM599 840q-138 0 -199.5 -74t-61.5 -260q0 -123 26.5 -192.5t85 -99.5t137 -30t150.5 25v65l-4 164l236 17l-2 -138v-266q-203 -68 -379 -67q-258 0 -389 132
t-131 390t151.5 400.5t429.5 142.5q177 -1 324 -58l-66 -233h-24q-146 82 -284 82z" />
    <glyph glyph-name="Hcircumflex" unicode="&#x124;" horiz-adv-x="1425" 
d="M1262 0h-281l16 393l-2 154l-301 4l-264 -6l-2 -127l12 -418h-280l16 393l-16 926h282l-8 -543l279 -6l278 6l-10 543h283l-15 -901zM406 1599q141 94 274 213h55q127 -113 275 -213l-49 -108h-27l-64 37q-76 39 -161 92q-86 -53 -162 -92l-64 -37h-26z" />
    <glyph glyph-name="hcircumflex" unicode="&#x125;" horiz-adv-x="1236" 
d="M1087 0h-258l13 307l-2 101l-232 2l-209 -4l-2 -74l11 -332h-258l12 307l-12 727h262l-9 -409l220 -4l213 2l-7 411h263l-15 -702zM307 1264q117 106 289 288h59q160 -176 287 -288l-68 -105h-26q-135 106 -223 189q-80 -76 -222 -189h-26z" />
    <glyph glyph-name="Hbar" unicode="&#x126;" horiz-adv-x="1490" 
d="M463 973l-2 -197l280 -6l279 6l-4 197h-553zM1278 418l10 -418h-278l16 393l-2 154l-301 4l-266 -6l-2 -127l12 -418h-281l17 393l-10 580h-127l-13 14l10 146h127l-4 186h283l-2 -186h547l-4 186h282l-2 -186h135l13 -17l-11 -143h-141z" />
    <glyph glyph-name="hbar" unicode="&#x127;" horiz-adv-x="1292" 
d="M420 748l-2 -123l221 -4l211 2l-2 125h-428zM1094 332l8 -332h-258l12 307l-2 101l-231 2l-209 -4l-2 -74l12 -332h-260l12 307l-8 441h-98l-11 14l11 127h96l-2 145h262l-2 -145h422l-2 145h262l-2 -145h119l10 -12l-10 -129h-121z" />
    <glyph glyph-name="Imacron" unicode="&#x12a;" horiz-adv-x="604" 
d="M438 0h-278l14 393l-14 926h282l-16 -901zM535 1548h-463l-19 19l15 151h460l19 -18z" />
    <glyph glyph-name="imacron" unicode="&#x12b;" horiz-adv-x="571" 
d="M408 0h-258l10 307l-10 727h262l-15 -702zM522 1264h-463l-18 18l14 152h461l19 -19z" />
    <glyph glyph-name="Ibreve" unicode="&#x12c;" horiz-adv-x="604" 
d="M438 0h-278l14 393l-14 926h282l-16 -901zM305 1665q145 0 201 115h39l63 -88q-80 -215 -313 -215q-111 0 -190 55t-113 160l63 88h39q27 -53 82 -84t129 -31z" />
    <glyph glyph-name="ibreve" unicode="&#x12d;" horiz-adv-x="571" 
d="M408 0h-258l10 307l-10 727h262l-15 -702zM286 1167q-124 0 -199 72t-103 184l63 93h39q49 -156 208 -156t204 156h39l63 -93q-31 -116 -110 -186q-80 -70 -204 -70z" />
    <glyph glyph-name="Iogonek" unicode="&#x12e;" horiz-adv-x="604" 
d="M219 -184.5q0 -65.5 70 -65.5q57 0 110 47h17l20 -123q-90 -78 -179 -77.5t-138 50.5t-49 114.5t19.5 113.5t70.5 125l16 393l-16 926h282l-14 -901l12 -418h-139q-82 -119 -82 -184.5z" />
    <glyph glyph-name="iogonek" unicode="&#x12f;" horiz-adv-x="571" 
d="M247 -403q-89 0 -138.5 50t-49.5 114.5t19.5 113.5t71.5 125l12 307l-12 727h262l-15 -702l11 -332h-117q-82 -119 -82 -184.5t70 -65.5q57 0 110 47h17l20 -123q-90 -77 -179 -77z" />
    <glyph glyph-name="Idotaccent" unicode="&#x130;" horiz-adv-x="604" 
d="M440 0h-280l16 393l-16 926h282l-14 -901zM442 1644.5q0 -67.5 -38.5 -108.5t-106.5 -41t-103.5 37t-35.5 104.5t40 108.5t106.5 41t102 -37t35.5 -104.5z" />
    <glyph glyph-name="dotlessi" unicode="&#x131;" horiz-adv-x="571" 
d="M408 0h-258l10 307l-10 727h262l-15 -702z" />
    <glyph glyph-name="IJ" unicode="&#x132;" horiz-adv-x="1290" 
d="M438 0h-278l14 393l-14 926h282l-16 -901zM866 252v156l-12 706l-217 -6l-21 20l15 191h502l-15 -885l4 -186q0 -117 -39 -199t-126 -145t-238 -121l-84 147v25q127 67 179 131t52 166z" />
    <glyph glyph-name="ij" unicode="&#x133;" horiz-adv-x="1218" 
d="M408 0h-258l10 307l-10 727h262l-15 -702zM809 195v118l-8 531l-176 -4l-17 16l17 178h432l-10 -694l2 -143q0 -139 -71 -223t-253 -154l-82 129v22q90 45 128 95t38 129z" />
    <glyph glyph-name="Jcircumflex" unicode="&#x134;" horiz-adv-x="686" 
d="M260 252v156l-10 706l-219 -6l-19 20l13 191h503l-16 -885l4 -186q0 -117 -38 -199t-125 -145.5t-238 -120.5l-84 147v25q127 66 178 130.5t51 166.5zM604 1599l-49 -108h-27l-63 37q-76 39 -162 92q-86 -53 -162 -92l-63 -37h-27l-51 108q141 94 274 213h56
q127 -113 274 -213z" />
    <glyph glyph-name="jcircumflex" unicode="&#x135;" horiz-adv-x="645" 
d="M240 195v118l-9 531l-178 -4l-16 16l16 178h434l-12 -694l2 -143q0 -139 -70.5 -223.5t-252.5 -153.5l-82 129v22q92 45 130 95.5t38 128.5zM584 1264l-68 -105h-27q-135 106 -223 189q-80 -76 -221 -189h-27l-69 105q117 106 289 288h59q160 -175 287 -288z" />
    <glyph glyph-name="Kcommaaccent" unicode="&#x136;" horiz-adv-x="1196" 
d="M764 -238q0 -162 -221 -319l-80 70l-2 18q102 84 102 180q0 61 -57 111v20q90 53 176 76q82 -64 82 -156zM1214 57l-4 -30q-125 -31 -274 -47l-31 16q-295 399 -475 682l-4 -260l12 -418h-280l16 393l-16 926h282l-10 -612l369 485l75 127h302l-467 -623
q235 -328 505 -639z" />
    <glyph glyph-name="kcommaaccent" unicode="&#x137;" horiz-adv-x="1064" 
d="M664 -238q0 -162 -222 -319l-80 70l-2 18q102 84 103 180q0 61 -57 111v20q90 53 176 76q82 -64 82 -156zM1059 55l-4 -30q-143 -35 -254 -43l-33 14q-203 268 -367 518l-4 -182l11 -332h-258l12 307l-12 727h262l-11 -467l283 363l64 104l282 2l-377 -489
q170 -230 406 -492z" />
    <glyph glyph-name="kgreenlandic" unicode="&#x138;" horiz-adv-x="1064" 
d="M1061 55l-6 -30q-139 -35 -254 -43l-33 14q-203 268 -367 518l-4 -182l11 -332h-258l10 307l-10 727h262l-11 -467l283 363l64 104l282 2l-375 -489q187 -250 406 -492z" />
    <glyph glyph-name="Lacute" unicode="&#x139;" horiz-adv-x="886" 
d="M864 0h-712l14 393l-14 926h282l-16 -901l6 -189h442l17 -22zM739 1653l-8 -25q-188 -74 -440 -160l-27 9l-45 112q248 125 426 232l25 -6z" />
    <glyph glyph-name="lacute" unicode="&#x13a;" horiz-adv-x="794" 
d="M750 0h-609l13 307l-13 727h262l-14 -702l4 -121h359l14 -18zM655 1415l-4 -26q-207 -133 -399 -242l-27 2l-65 102q238 190 370 314l27 -2z" />
    <glyph glyph-name="Lcommaaccent" unicode="&#x13b;" horiz-adv-x="886" 
d="M631 -238q0 -162 -221 -319l-80 70l-2 18q102 84 102 180q0 61 -57 111v20q90 53 176 76q82 -64 82 -156zM864 0h-712l16 393l-16 926h282l-14 -901l6 -189h440l17 -22z" />
    <glyph glyph-name="lcommaaccent" unicode="&#x13c;" horiz-adv-x="794" 
d="M543 -238q0 -162 -221 -319l-80 70l-2 18q102 84 102 180q0 61 -57 111v20q90 53 176 76q82 -64 82 -156zM748 0h-607l13 307l-13 727h262l-14 -702l4 -121h357l14 -18z" />
    <glyph glyph-name="Lcaron" unicode="&#x13d;" horiz-adv-x="956" 
d="M676 1198l194 12l17 -18l-68 -410l-119 -18l-20 16zM883 207l-19 -207h-712l16 393l-16 926h282l-14 -901l6 -189h440z" />
    <glyph glyph-name="lcaron" unicode="&#x13e;" horiz-adv-x="862" 
d="M606 987l193 12l16 -18l-65 -410l-121 -18l-19 16zM764 193l-16 -193h-607l13 307l-13 727h262l-14 -702l4 -121h357z" />
    <glyph glyph-name="Ldot" unicode="&#x13f;" horiz-adv-x="931" 
d="M864 0h-712l14 393l-14 926h282l-16 -901l6 -189h442l17 -22zM889 800q0 -68 -39 -108q-39 -41 -107 -41q-67 0 -103 37t-36 105q0 69 40 109t106 40t103 -37q36 -37 36 -105z" />
    <glyph glyph-name="ldot" unicode="&#x140;" horiz-adv-x="860" 
d="M518 632.5q0 67.5 40 108.5t106.5 41t102.5 -36.5t36 -104.5t-39 -108.5t-106.5 -40.5t-103.5 36.5t-36 104zM764 193l-16 -193h-607l13 307l-13 727h262l-14 -702l4 -121h357z" />
    <glyph glyph-name="Lslash" unicode="&#x141;" horiz-adv-x="919" 
d="M899 0h-715l17 393l-2 115l-123 -64l-27 13l-49 161l195 101l-11 600h285l-8 -463l209 107l26 -13l49 -159l-288 -150l-4 -223l6 -189h442l17 -22z" />
    <glyph glyph-name="lslash" unicode="&#x142;" horiz-adv-x="835" 
d="M778 0h-606l12 307l-2 86l-104 -47l-23 14l-41 144l166 74l-8 456h262l-6 -348l166 74l20 -12l43 -144l-233 -104l-4 -168l4 -121h356l17 -18z" />
    <glyph glyph-name="Nacute" unicode="&#x143;" horiz-adv-x="1423" 
d="M1260 0h-299l-537 893h-18l-3 -438l11 -455h-254l14 389l-12 930h299l536 -893h19l-8 881l258 16l-17 -915zM1014 1653l-8 -25q-188 -74 -441 -160l-26 9l-45 112q248 125 426 232l24 -6z" />
    <glyph glyph-name="nacute" unicode="&#x144;" horiz-adv-x="1236" 
d="M1085 0h-280l-414 641h-14l-2 -279l8 -362h-233l10 303l-10 731h278l414 -641h18l-8 631l238 16l-15 -712zM913 1415l-4 -26q-207 -133 -399 -242l-27 2l-65 102q238 190 370 314l27 -2z" />
    <glyph glyph-name="Ncommaaccent" unicode="&#x145;" horiz-adv-x="1423" 
d="M860 -238q0 -162 -221 -319l-80 70l-2 18q102 84 102 180q0 61 -57 111v20q90 53 176 76q82 -64 82 -156zM1260 0h-299l-537 893h-18l-3 -438l13 -455h-256l16 389l-14 930h299l536 -893h19l-8 881l260 16l-19 -915z" />
    <glyph glyph-name="ncommaaccent" unicode="&#x146;" horiz-adv-x="1236" 
d="M766 -238q0 -162 -221 -319l-80 70l-2 18q102 84 102 180q0 61 -57 111v20q90 53 176 76q82 -64 82 -156zM1085 0h-280l-414 641h-14l-2 -279l8 -362h-233l12 303l-10 731h276l416 -641h16l-6 631l236 16l-13 -712z" />
    <glyph glyph-name="Ncaron" unicode="&#x147;" horiz-adv-x="1423" 
d="M1260 0h-299l-537 893h-18l-3 -438l11 -455h-254l14 389l-12 930h299l536 -893h19l-8 881l258 16l-17 -915zM739 1470h-55q-127 113 -274 213l49 109h26l64 -37q76 -39 162 -92q86 53 161 92l64 37h27l51 -109q-142 -94 -275 -213z" />
    <glyph glyph-name="ncaron" unicode="&#x148;" horiz-adv-x="1236" 
d="M1085 0h-280l-414 641h-14l-2 -279l8 -362h-233l10 303l-10 731h278l414 -641h18l-8 631l238 16l-15 -712zM645 1155h-59q-160 176 -287 289l68 104h26q135 -106 223 -188q80 76 222 188h26l70 -104q-117 -107 -289 -289z" />
    <glyph glyph-name="Eng" unicode="&#x14a;" horiz-adv-x="1423" 
d="M1255 115q0 -115 -37.5 -197t-124.5 -146.5t-239 -121.5l-84 147v27q162 82 207 178l-553 891h-18l-3 -438l11 -455h-254l14 389l-12 930h299l536 -875h19l-8 863l258 16l-17 -915z" />
    <glyph glyph-name="eng" unicode="&#x14b;" horiz-adv-x="1236" 
d="M375 641v-279l8 -362h-233l12 303l-12 731h278l414 -612h18l-8 602l238 16l-15 -712l6 -244q0 -131 -62.5 -212t-223.5 -148l-84 108v23q100 61 120 137l-440 649h-16z" />
    <glyph glyph-name="Omacron" unicode="&#x14c;" horiz-adv-x="1316" 
d="M346 664q0 -246 73 -358t239 -112t239 103q74 102 74 349q0 246 -73 356q-72 110 -238 110t-240 -101t-74 -347zM1262 674q0 -326 -163 -510t-452 -184t-439 173t-151 499q0 326 163 505q164 180 452 180t439 -169q151 -168 151 -494zM950 1548h-573l-19 19l15 151h573
l17 -18z" />
    <glyph glyph-name="omacron" unicode="&#x14d;" horiz-adv-x="1146" 
d="M336 553q0 -151 24 -228t75 -110q52 -33 140 -33q129 0 184 68q54 68 54 220t-25 229t-75 110q-51 33 -160 33t-163 -69t-54 -220zM1081 530q0 -256 -138 -402q-137 -146 -379 -146t-369 136t-127 391t137 398t379 143t370 -132q127 -133 127 -388zM866 1264h-573l-19 18
l15 152h573l17 -19z" />
    <glyph glyph-name="Obreve" unicode="&#x14e;" horiz-adv-x="1316" 
d="M346 664q0 -246 73 -358t239 -112t239 103q74 102 74 349q0 246 -73 356q-72 110 -238 110t-240 -101t-74 -347zM1262 674q0 -326 -163 -510t-452 -184t-439 173t-151 499q0 326 163 505q164 180 452 180t439 -169q151 -168 151 -494zM655 1477q-111 0 -189 55t-114 160
l64 88h39q27 -53 82 -84t129 -31q145 0 200 115h39l64 -88q-80 -215 -314 -215z" />
    <glyph glyph-name="obreve" unicode="&#x14f;" horiz-adv-x="1146" 
d="M336 553q0 -151 24 -228t75 -110q52 -33 140 -33q129 0 184 68q54 68 54 220t-25 229t-75 110q-51 33 -160 33t-163 -69t-54 -220zM1081 530q0 -256 -138 -402q-137 -146 -379 -146t-369 136t-127 391t137 398t379 143t370 -132q127 -133 127 -388zM573 1167
q-125 0 -199 72t-104 184l64 93h39q49 -156 208 -156t203 156h39l64 -93q-31 -116 -110 -186t-204 -70z" />
    <glyph glyph-name="Ohungarumlaut" unicode="&#x150;" horiz-adv-x="1316" 
d="M346 664q0 -246 73 -358t239 -112t239 103q74 102 74 349q0 246 -73 356q-72 110 -238 110t-240 -101t-74 -347zM1262 674q0 -326 -163 -510t-452 -184t-439 173t-151 499q0 326 163 505q164 180 452 180t439 -169q151 -168 151 -494zM717 1575q98 121 182 233l21 4
l127 -81l2 -23q-123 -121 -256 -238l-23 -6l-86 70zM418 1597q131 166 164 211l22 4l125 -81l2 -23q-113 -113 -254 -238l-24 -6l-86 70z" />
    <glyph glyph-name="ohungarumlaut" unicode="&#x151;" horiz-adv-x="1146" 
d="M336 553q0 -151 24 -228t75 -110q52 -33 140 -33q129 0 184 68q54 68 54 220t-25 229t-75 110q-51 33 -160 33t-163 -69t-54 -220zM1081 530q0 -256 -138 -402q-137 -146 -379 -146t-369 136t-127 391t137 398t379 143t370 -132q127 -133 127 -388zM854 1569l23 4
l124 -90l3 -21q-113 -127 -295 -309l-25 -6l-84 70q150 198 254 352zM543 1569l20 4l125 -90l2 -21q-113 -127 -295 -309l-24 -6l-84 70q141 182 256 352z" />
    <glyph glyph-name="OE" unicode="&#x152;" horiz-adv-x="1779" 
d="M346 660.5q0 -242.5 85 -357.5t271 -115q125 0 168 27q41 20 39 88l-8 698q-2 70 -27 89q-43 29 -176 28q-184 0 -268 -107.5t-84 -350zM1098 1319h633l16 -23l-21 -206l-307 10h-248l-2 -320l220 -4l223 6l16 -20l-20 -207l-238 6l-207 -2v-145l2 -193l230 -4l329 12
l17 -22l-19 -207h-624q-76 2 -210 -11t-208 -14q-297 0 -460 176.5t-163 501t175.5 507.5t488.5 183q78 0 201 -12t176 -12z" />
    <glyph glyph-name="oe" unicode="&#x153;" horiz-adv-x="1531" 
d="M336 518q0 -178 62.5 -258t207.5 -80q100 0 133 23q29 16 29 76l-8 464q0 61 -19 72q-39 27 -160.5 27t-183 -73t-61.5 -251zM1006 422v-92l2 -129h186l274 8l15 -16l-19 -193h-522l-356 -18q-248 0 -383 136t-135 391t146 399.5t409 144.5l319 -19h535l14 -20l-18 -191
l-261 11h-198l-2 -209l178 -2l184 6l15 -19l-17 -194l-198 6h-168z" />
    <glyph glyph-name="Racute" unicode="&#x154;" horiz-adv-x="1208" 
d="M807 903q0 205 -229 213l-140 -8l-8 -449l203 -8q174 59 174 252zM426 444v-26l12 -418h-278l14 393l-14 926l506 2q208 0 320 -101t112 -290q0 -126 -65 -232t-181 -174q159 -253 317 -458l-4 -31q-133 -47 -272 -55l-29 22q-147 254 -239 442h-199zM903 1700l-4 -27
q-208 -134 -399 -241l-27 2l-65 102q238 190 370 313l27 -2z" />
    <glyph glyph-name="racute" unicode="&#x155;" horiz-adv-x="1073" 
d="M690 698q0 74 -43 110t-135 40l-104 -4l-7 -314l154 -8q135 45 135 176zM397 334v-2l11 -332h-258l10 307l-10 727l446 2q174 0 269 -81t96 -230q1 -96 -51 -179t-144 -138q137 -199 256 -349l-2 -28q-129 -39 -250 -47l-37 24q-115 201 -178 326h-158zM803 1415l-4 -26
q-199 -129 -400 -242l-26 2l-66 102q238 190 371 314l27 -2z" />
    <glyph glyph-name="Rcommaaccent" unicode="&#x156;" horiz-adv-x="1208" 
d="M758 -238q0 -162 -221 -319l-80 70l-2 18q102 84 102 180q0 61 -57 111v20q90 53 176 76q82 -64 82 -156zM807 903q0 205 -229 213l-140 -8l-6 -449l201 -8q174 59 174 252zM428 444v-26l12 -418h-280l16 393l-16 926l506 2q207 0 319.5 -101.5t112.5 -289.5
q0 -127 -65.5 -232.5t-182.5 -173.5q182 -282 317 -458l-4 -31q-133 -47 -270 -55l-31 22q-154 272 -239 442h-195z" />
    <glyph glyph-name="rcommaaccent" unicode="&#x157;" horiz-adv-x="1073" 
d="M657 -238q0 -162 -221 -319l-80 70l-2 18q102 84 103 180q0 61 -58 111v20q90 53 176 76q82 -64 82 -156zM690 698q0 74 -43 110t-135 40l-104 -4l-7 -314l156 -8q133 45 133 176zM397 334v-2l11 -332h-258l12 307l-12 727l446 2q176 0 271.5 -81t95.5 -230
q0 -96 -51.5 -179t-145.5 -138q127 -189 258 -349l-4 -28q-127 -39 -248 -47l-39 24q-133 238 -178 326h-158z" />
    <glyph glyph-name="Rcaron" unicode="&#x158;" horiz-adv-x="1208" 
d="M807 903q0 205 -229 213l-140 -8l-8 -449l203 -8q174 59 174 252zM426 444v-26l12 -418h-278l14 393l-14 926l506 2q208 0 320 -101t112 -290q0 -126 -65 -232t-181 -174q159 -253 317 -458l-4 -31q-133 -47 -272 -55l-29 22q-147 254 -239 442h-199zM635 1440h-60
q-160 176 -286 289l67 104h27q135 -106 223 -188q80 76 221 188h27l70 -104q-117 -107 -289 -289z" />
    <glyph glyph-name="rcaron" unicode="&#x159;" horiz-adv-x="1073" 
d="M690 698q0 74 -43 110t-135 40l-104 -4l-7 -314l154 -8q135 45 135 176zM397 334v-2l11 -332h-258l10 307l-10 727l446 2q174 0 269 -81t96 -230q1 -96 -51 -179t-144 -138q137 -199 256 -349l-2 -28q-129 -39 -250 -47l-37 24q-115 201 -178 326h-158zM537 1155h-60
q-160 176 -287 289l68 104h27q135 -106 223 -188q80 76 221 188h27l69 -104q-116 -107 -288 -289z" />
    <glyph glyph-name="Sacute" unicode="&#x15a;" horiz-adv-x="1019" 
d="M371 972q0 -58 54 -100t169 -94q116 -53 186 -97t120 -116q50 -73 50 -181t-61 -201t-174 -147t-284 -54t-368 84l39 258l31 16q82 -72 179 -110q210 -82 314 7q50 43 50 107t-54 105t-170 94t-186 96t-119 115t-49 180t62 202q62 93 172 146q112 54 266 54t320 -68
l-46 -240l-41 -16q-154 108 -280 106q-82 0 -131 -44t-49 -102zM829 1700l-4 -27q-223 -144 -399 -241l-27 2l-65 102q238 190 371 313l26 -2z" />
    <glyph glyph-name="sacute" unicode="&#x15b;" horiz-adv-x="911" 
d="M483 856q-57 0 -90 -28t-33 -68t41 -69q41 -27 131 -65t148 -71q142 -80 143 -238q0 -89 -46 -165t-139 -123q-94 -47 -246 -47t-314 63l35 242l26 18q68 -61 152 -98t145 -37t98 29q36 29 36 73t-43 71q-42 28 -132 65q-90 36 -148 70q-143 83 -143 241q0 92 50 168
t144 119q94 42 230 42t271 -51l-39 -229l-37 -10q-133 98 -240 98zM768 1415l-4 -26q-186 -120 -399 -242l-27 2l-66 102q238 190 371 314l27 -2z" />
    <glyph glyph-name="Scircumflex" unicode="&#x15c;" horiz-adv-x="1019" 
d="M371 972q0 -58 54 -99.5t169 -94.5q116 -53 186 -97q170 -106 170 -292q0 -113 -61.5 -206t-174 -147t-283.5 -54t-368 84l39 258l31 16q82 -72 179.5 -109.5t180 -37.5t133 44t50.5 107.5t-54.5 104t-175.5 98.5q-111 49 -180 92t-118.5 114.5t-49.5 180.5t61.5 202
t172 146t265.5 53.5t321 -67.5l-46 -240l-41 -16q-151 106 -280 106q-82 0 -131 -44t-49 -102zM506 1837h59q160 -176 287 -289l-68 -104h-26q-135 106 -223 188q-80 -76 -222 -188h-26l-70 104q117 107 289 289z" />
    <glyph glyph-name="scircumflex" unicode="&#x15d;" horiz-adv-x="911" 
d="M483 856q-57 0 -90 -27.5t-33 -68.5t41 -68.5t131 -65.5t148.5 -71t100.5 -91t42 -146.5t-45 -165t-138 -123.5t-245.5 -47t-316.5 63l35 242l26 18q68 -61 153 -98t146 -37t96 28.5t35 72.5t-41 72t-130 64t-148.5 70.5t-101.5 94t-42 149.5t49.5 166t142.5 119
t230.5 42.5t272.5 -51.5l-39 -229l-39 -10q-133 98 -240 98zM444 1552h60q160 -176 287 -288l-68 -105h-27q-135 106 -223 189q-80 -76 -221 -189h-27l-69 105q116 106 288 288z" />
    <glyph glyph-name="Scedilla" unicode="&#x15e;" horiz-adv-x="1019" 
d="M371 972q0 -58 54 -99.5t169 -94.5q116 -53 186 -97q170 -106 170 -292q0 -151 -107.5 -262t-287.5 -137l-20 -88l69 -39q84 -45 84 -117t-53 -115t-142 -43t-165 58l18 114l12 7q61 -61 115.5 -61.5t54.5 42.5q0 23 -34 41l-101 57l31 136q-180 6 -361 84l39 258l31 16
q82 -72 179.5 -109.5t180 -37.5t133 44t50.5 107.5t-54.5 104t-175.5 98.5q-111 49 -180 92t-118.5 114.5t-49.5 180.5t61.5 202t172 146t265.5 53t321 -67l-46 -240l-41 -16q-151 106 -280 106q-82 0 -131 -44t-49 -102z" />
    <glyph glyph-name="scedilla" unicode="&#x15f;" horiz-adv-x="911" 
d="M612 -254q0 -72 -53 -115t-142 -43t-165 58l18 114l13 7q61 -61 115 -61.5t55 42.5q0 25 -35 41l-101 57l31 138q-143 10 -270 61l35 242l26 18q68 -61 153 -98t146 -37t96 28.5t35 72.5t-41 72t-130 64t-148.5 70.5t-101.5 94t-42 149.5t49.5 166t142.5 119t230.5 43
t272.5 -52l-39 -229l-39 -10q-133 98 -240 98q-57 0 -90 -27.5t-33 -68.5t41 -68.5t131 -65.5t148 -71q142 -80 143 -238q0 -124 -88 -219.5t-256 -111.5l-20 -84l69 -39q84 -45 84 -117z" />
    <glyph glyph-name="Scaron" unicode="&#x160;" horiz-adv-x="1019" 
d="M371 972q0 -58 54 -100t169 -94q116 -53 186 -97t120 -116q50 -73 50 -181t-61 -201t-174 -147t-284 -54t-368 84l39 258l31 16q82 -72 179 -110q210 -82 314 7q50 43 50 107t-54 105t-170 94t-186 96t-119 115t-49 180t62 202q62 93 172 146q112 54 266 54t320 -68
l-46 -240l-41 -16q-154 108 -280 106q-82 0 -131 -44t-49 -102zM563 1440h-59q-160 176 -287 289l68 104h26q135 -106 224 -188q80 76 221 188h26l70 -104q-117 -107 -289 -289z" />
    <glyph glyph-name="scaron" unicode="&#x161;" horiz-adv-x="911" 
d="M483 856q-57 0 -90 -28t-33 -68t41 -69q41 -27 131 -65t148 -71q142 -80 143 -238q0 -89 -46 -165t-139 -123q-94 -47 -246 -47t-314 63l35 242l26 18q68 -61 152 -98t145 -37t98 29q36 29 36 73t-43 71q-42 28 -132 65q-90 36 -148 70q-143 83 -143 241q0 92 50 168
t144 119q94 42 230 42t271 -51l-39 -229l-37 -10q-133 98 -240 98zM502 1155h-60q-160 176 -286 289l67 104h27q135 -106 223 -188q80 76 221 188h27l70 -104q-117 -107 -289 -289z" />
    <glyph glyph-name="Tcedilla" unicode="&#x162;" horiz-adv-x="1030" 
d="M707 -254q0 -72 -53.5 -115t-142.5 -43t-165 58l19 114l12 7q61 -61 115.5 -61.5t54.5 42.5q0 23 -35 41l-100 57l34 154h-67l16 393l-12 709h-84l-250 -12l-18 22l18 207h936l16 -23l-16 -206l-250 12h-78l-12 -684l12 -418h-79l-25 -98l70 -39q84 -45 84 -117z" />
    <glyph glyph-name="tcedilla" unicode="&#x163;" horiz-adv-x="913" 
d="M645 -255q0 -69 -52 -112t-139 -43t-163 58l18 112l15 4q61 -61 113 -61t52 43q0 25 -32 45l-101 57l35 152h-67l10 307l-6 524h-60l-211 -14l-18 21l16 196h791l14 -20l-14 -197l-211 14h-57l-9 -499l11 -332h-64l-22 -98l69 -39q82 -49 82 -118z" />
    <glyph glyph-name="Tcaron" unicode="&#x164;" horiz-adv-x="1030" 
d="M985 1090l-248 12h-82l-10 -684l12 -418h-278l14 393l-10 709h-82l-252 -12l-18 22l18 207h936l16 -23zM551 1440h-59q-160 176 -287 289l67 104h27q135 -106 223 -188q80 76 221 188h27l70 -104q-117 -107 -289 -289z" />
    <glyph glyph-name="tcaron" unicode="&#x165;" horiz-adv-x="913" 
d="M852 817l-209 14h-59l-6 -499l8 -332h-256l10 307l-4 524h-60l-213 -14l-16 21l14 196h791l14 -20zM469 1155h-59q-160 176 -287 289l67 104h27q135 -106 223 -188q80 76 222 188h26l70 -104q-117 -107 -289 -289z" />
    <glyph glyph-name="Tbar" unicode="&#x166;" horiz-adv-x="1030" 
d="M649 698h201l18 -18l-12 -133h-209l-2 -129l12 -418h-278l16 393l-2 154h-184l-19 18l11 133h190l-8 404h-84l-250 -12l-18 22l18 207h936l16 -23l-16 -206l-250 12h-78z" />
    <glyph glyph-name="tbar" unicode="&#x167;" horiz-adv-x="913" 
d="M578 371v-39l10 -332h-258l12 307v64h-170l-18 18l10 133h176l-4 309h-60l-213 -14l-16 21l16 196h791l12 -20l-14 -197l-209 14h-57l-6 -309h174l18 -18l-10 -133h-184z" />
    <glyph glyph-name="Umacron" unicode="&#x16a;" horiz-adv-x="1306" 
d="M642 -18q-255 0 -386 124t-125 359l2 190l-6 664h279l-15 -817q-2 -293 263 -293t264 278l-15 832h283l-10 -670l-2 -174q2 -237 -138 -365t-394 -128zM946 1548h-573l-19 19l15 151h573l16 -18z" />
    <glyph glyph-name="umacron" unicode="&#x16b;" horiz-adv-x="1140" 
d="M562 -16q-216 0 -329 95t-106 271l2 162l-6 522h258l-12 -647q-3 -195 201 -195t202 195l-10 647h260l-8 -526l-2 -158q2 -176 -116 -271t-334 -95zM862 1264h-573l-19 18l15 152h573l16 -19z" />
    <glyph glyph-name="Ubreve" unicode="&#x16c;" horiz-adv-x="1306" 
d="M642 -18q-255 0 -386 124t-125 359l2 190l-6 664h279l-15 -817q-2 -293 263 -293t264 278l-15 832h283l-10 -670l-2 -174q2 -237 -138 -365t-394 -128zM653 1452q-125 0 -199 72t-104 184l64 92h39q49 -156 207 -156t204 156h39l64 -92q-31 -116 -110 -186t-204 -70z" />
    <glyph glyph-name="ubreve" unicode="&#x16d;" horiz-adv-x="1140" 
d="M562 -16q-216 0 -329 95t-106 271l2 162l-6 522h258l-12 -647q-3 -195 201 -195t202 195l-10 647h260l-8 -526l-2 -158q2 -176 -116 -271t-334 -95zM569 1167q-125 0 -199 72t-104 184l64 93h39q49 -156 207 -156t204 156h39l64 -93q-31 -116 -110 -186t-204 -70z" />
    <glyph glyph-name="Uring" unicode="&#x16e;" horiz-adv-x="1306" 
d="M642 -18q-255 0 -386 124t-125 359l2 190l-6 664h279l-15 -817q-2 -293 263 -293t264 278l-15 832h283l-10 -670l-2 -174q2 -237 -138 -365t-394 -128zM571 1657q0 -82 84 -82t84 79t-84 79t-84 -76zM852 1659q0 -93 -54 -145t-146 -52t-143 49q-50 49 -50 143t52 144
q51 51 147 51t145 -49t49 -141z" />
    <glyph glyph-name="uring" unicode="&#x16f;" horiz-adv-x="1140" 
d="M562 -16q-216 0 -329 95t-106 271l2 162l-6 522h258l-12 -647q-3 -195 201 -195t202 195l-10 647h260l-8 -526l-2 -158q2 -176 -116 -271t-334 -95zM487 1372q0 -82 84 -82t84 79t-84 79t-84 -76zM768 1374q0 -92 -54 -144t-146 -52t-143 49q-50 49 -50 142t52 144
q51 51 147 51t145 -48q49 -50 49 -142z" />
    <glyph glyph-name="Uhungarumlaut" unicode="&#x170;" horiz-adv-x="1306" 
d="M642 -18q-255 0 -386 124t-125 359l2 190l-6 664h279l-15 -817q-2 -293 263 -293t264 278l-15 832h283l-10 -670l-2 -174q2 -237 -138 -365t-394 -128zM713 1575q98 121 182 233l20 4l127 -81l2 -23q-123 -121 -256 -238l-22 -6l-86 70zM414 1597q131 166 164 211l22 4
l125 -81l2 -23q-113 -113 -254 -238l-24 -6l-87 70z" />
    <glyph glyph-name="uhungarumlaut" unicode="&#x171;" horiz-adv-x="1140" 
d="M562 -16q-216 0 -329 95t-106 271l2 162l-6 522h258l-12 -647q-3 -195 201 -195t202 195l-10 647h260l-8 -526l-2 -158q2 -176 -116 -271t-334 -95zM850 1569l22 4l125 -90l2 -21q-113 -127 -294 -309l-25 -6l-84 70q150 198 254 352zM539 1569l20 4l125 -90l2 -21
q-113 -127 -295 -309l-24 -6l-84 70q141 182 256 352z" />
    <glyph glyph-name="Uogonek" unicode="&#x172;" horiz-adv-x="1306" 
d="M868 -184q0 -68 72 -68t139 62h17l24 -111q-115 -102 -207 -102t-142 50t-50 130t55 157l45 68q-80 -20 -184 -20q-250 0 -381 124.5t-127 358.5l4 190l-6 664h279l-15 -817q-2 -293 262.5 -293t261.5 278l-12 832h281l-10 -844q4 -256 -160 -385l-111 -176
q-35 -51 -35 -98z" />
    <glyph glyph-name="uogonek" unicode="&#x173;" horiz-adv-x="1140" 
d="M713 -186q-1 -68 71 -68t140 61h16l25 -110q-115 -103 -207 -103t-142.5 50.5t-50.5 129.5t56 160l36 56q-47 -6 -100 -6q-213 0 -324.5 95t-107.5 271l4 162l-6 522h258l-14 -647q-3 -195 201 -195t202 195l-10 647h262l-10 -526v-158q2 -223 -187 -315l-77 -123
q-35 -51 -35 -98z" />
    <glyph glyph-name="Wcircumflex" unicode="&#x174;" horiz-adv-x="1849" 
d="M1114 0l-196 631h-19l-199 -631h-292l-369 1319h270l23 -162l231 -870h19l223 710l-92 322h282l31 -191l238 -841h18l266 852l33 180h258l-434 -1319h-291zM883 1812h55q127 -113 274 -213l-49 -108h-26l-64 37q-76 39 -162 92q-86 -53 -161 -92l-64 -37h-27l-51 108
q142 94 275 213z" />
    <glyph glyph-name="wcircumflex" unicode="&#x175;" horiz-adv-x="1585" 
d="M932 0l-144 442h-16l-147 -442h-279l-291 1034h256l19 -143l168 -623h16l168 520l-70 246h267l24 -168l172 -598h19l194 609l29 157h244l-351 -1034h-278zM727 1552h59q160 -176 287 -288l-67 -105h-27q-135 106 -223 189q-80 -76 -221 -189h-27l-70 105q117 106 289 288
z" />
    <glyph glyph-name="Ycircumflex" unicode="&#x176;" horiz-adv-x="1142" 
d="M694 0h-278l16 367l-2 73l-422 879h293l31 -92l223 -502h18l250 494l37 100h287l-461 -870l-4 -82zM264 1599q141 94 275 213h55q127 -113 274 -213l-49 -108h-26l-64 37q-76 39 -162 92q-86 -53 -161 -92l-64 -37h-27z" />
    <glyph glyph-name="ycircumflex" unicode="&#x177;" horiz-adv-x="1017" 
d="M623 0h-258l12 281l-2 49l-350 704h272l25 -76l172 -362h16l190 352l35 86h266l-389 -698l-2 -55zM203 1264q117 106 289 288h59q160 -176 287 -288l-68 -105h-27q-135 106 -223 189q-80 -76 -221 -189h-27z" />
    <glyph glyph-name="Ydieresis" unicode="&#x178;" horiz-adv-x="1142" 
d="M694 0h-278l16 367l-2 73l-422 879h293l31 -92l223 -502h18l250 494l37 100h287l-461 -870l-4 -82zM616 1629q0 62 36 99t97.5 37t94.5 -33.5t33 -96.5t-36 -99.5t-97.5 -36.5t-94.5 34t-33 96zM260 1629q0 62 36 99t97 37t94 -33.5t33 -96.5t-35.5 -99.5t-97 -36.5
t-94.5 34t-33 96z" />
    <glyph glyph-name="Zacute" unicode="&#x179;" horiz-adv-x="1120" 
d="M389 211h442l224 18l10 -16l-23 -219l-297 6h-526l-158 -8v198l662 916h-418l-223 -19l-12 15l20 219l828 -2l126 2v-203zM870 1653l-8 -25q-188 -74 -440 -160l-27 9l-45 112q248 125 426 232l25 -6z" />
    <glyph glyph-name="zacute" unicode="&#x17a;" horiz-adv-x="989" 
d="M379 195h340l194 16l11 -12l-21 -205l-266 6h-424l-139 -6v182l530 662h-330l-188 -19l-10 15l20 204l228 -4h469l112 2v-188zM764 1415l-4 -26q-199 -129 -400 -242l-26 2l-66 102q238 190 371 314l27 -2z" />
    <glyph glyph-name="Zdotaccent" unicode="&#x17b;" horiz-adv-x="1120" 
d="M389 211h445l223 18l8 -16l-21 -219l-299 6h-526l-158 -8v198l662 916h-418l-223 -19l-12 15l22 219l828 -2l127 2v-203zM709 1644.5q0 -67.5 -39 -108.5t-106.5 -41t-103.5 37t-36 104.5t40 108.5t106.5 41t102.5 -37t36 -104.5z" />
    <glyph glyph-name="zdotaccent" unicode="&#x17c;" horiz-adv-x="989" 
d="M379 195h340l196 16l9 -12l-21 -205l-266 6h-422l-141 -6v182l530 662h-330l-188 -19l-10 15l20 204l228 -4h471l110 2v-188zM610 1359.5q0 -67.5 -39 -108.5t-106.5 -41t-103 37t-35.5 104.5t40 108.5t106.5 41t102 -37t35.5 -104.5z" />
    <glyph glyph-name="Zcaron" unicode="&#x17d;" horiz-adv-x="1120" 
d="M389 211h442l224 18l10 -16l-23 -219l-297 6h-526l-158 -8v198l662 916h-418l-223 -19l-12 15l20 219l828 -2l126 2v-203zM596 1470h-55q-127 113 -275 213l49 109h27l64 -37q76 -39 161 -92q86 53 162 92l64 37h26l51 -109q-141 -94 -274 -213z" />
    <glyph glyph-name="zcaron" unicode="&#x17e;" horiz-adv-x="989" 
d="M379 195h340l194 16l11 -12l-21 -205l-266 6h-424l-139 -6v182l530 662h-330l-188 -19l-10 15l20 204l228 -4h469l112 2v-188zM498 1155h-60q-160 176 -286 289l67 104h27q135 -106 223 -188q80 76 221 188h27l69 -104q-116 -107 -288 -289z" />
    <glyph glyph-name="florin" unicode="&#x192;" horiz-adv-x="647" 
d="M627 1096q-131 0 -154 -140l-22 -168h208l7 -16l-15 -135h-221l-37 -258l-31 -266q-16 -147 -79.5 -239.5t-206.5 -180.5l-111 108l2 21q80 59 117 121.5t51 162.5l64 531h-136l-8 14l15 137h145l16 127q20 172 135 263.5t304 91.5q76 -1 164 -19l-39 -180l-19 -10
q-84 35 -149 35z" />
    <glyph glyph-name="Ohorn" unicode="&#x1a0;" horiz-adv-x="1331" 
d="M346 661.5q0 -245.5 74 -356t240 -110.5t238.5 104t72.5 350t-74 354.5t-239.5 108.5t-238.5 -102.5t-73 -348zM1354 1388q0 -91 -67.5 -158t-172.5 -81q147 -168 147.5 -482.5t-163.5 -500.5t-451 -186t-438.5 173t-151.5 488q0 219 74 376t209 238.5t319 81.5
q106 0 212 -33t154 -32.5t82 30t34 92t-64 122.5l6 20q68 53 128.5 53t101.5 -55t41 -146z" />
    <glyph glyph-name="ohorn" unicode="&#x1a1;" horiz-adv-x="1159" 
d="M813 504.5q0 185.5 -56.5 262.5t-186.5 77t-182 -72t-52 -256t56.5 -262t185.5 -78t182 71.5t53 257zM1038 1251q53 0 90 -45t37 -119.5t-53 -131t-139 -74.5q109 -129 108 -346q0 -258 -138 -405.5t-380 -147.5t-368.5 136t-126.5 390t136 398.5t374 144.5
q84 0 180 -22.5t119 -22.5q92 0 92 75q0 57 -54 105l7 18q63 47 116 47z" />
    <glyph glyph-name="Uhorn" unicode="&#x1af;" horiz-adv-x="1327" 
d="M642 -18q-255 0 -386 124.5t-127 358.5l4 190l-6 664h279l-15 -817q-2 -293 262.5 -293t261.5 278l-12 832h131q127 0 127 100q0 66 -65 123l6 21q72 53 129 53t99 -50t42 -125t-51 -137.5t-139 -95.5l-6 -559l-2 -174q2 -236 -137.5 -364.5t-394.5 -128.5z" />
    <glyph glyph-name="uhorn" unicode="&#x1b0;" horiz-adv-x="1159" 
d="M555 -16q-215 0 -327.5 95t-106.5 271l2 162l-6 522h258l-13 -647q-2 -100 47.5 -147t153.5 -47q203 0 201 194l-10 647h129q100 0 100 78q0 57 -51 96l6 19q68 49 120 49t88 -41t36 -103.5t-45 -115.5t-123 -82l-8 -426v-158q2 -176 -117 -271t-334 -95z" />
    <glyph glyph-name="Acaron" unicode="&#x1cd;" horiz-adv-x="1228" 
d="M631 1059h-19l-180 -549l176 -4l178 4zM913 0l-32 172l-35 123l-258 6l-228 -6l-34 -109l-35 -186h-275l447 1319h330l403 -1319h-283zM647 1470h-55q-127 113 -275 213l50 109h26l64 -37q76 -39 161 -92q86 53 162 92l64 37h26l52 -109q-142 -94 -275 -213z" />
    <glyph glyph-name="acaron" unicode="&#x1ce;" horiz-adv-x="1083" 
d="M553 799h-16l-138 -396l133 -2l138 2zM772 0l-29 150l-18 59l-209 2l-184 -4l-15 -43l-30 -164h-252l362 1034h305l330 -1034h-260zM584 1155h-60q-160 176 -286 289l67 104h27q135 -106 223 -188q80 76 221 188h27l69 -104q-116 -107 -288 -289z" />
    <glyph glyph-name="Icaron" unicode="&#x1cf;" horiz-adv-x="604" 
d="M438 0h-278l14 393l-14 926h282l-16 -901zM330 1470h-56q-127 113 -274 213l49 109h27l63 -37q76 -39 162 -92q86 53 162 92l63 37h27l51 -109q-141 -94 -274 -213z" />
    <glyph glyph-name="icaron" unicode="&#x1d0;" horiz-adv-x="571" 
d="M408 0h-258l10 307l-10 727h262l-15 -702zM319 1155h-59q-160 176 -287 289l68 104h27q135 -106 223 -188q80 76 221 188h27l69 -104q-117 -107 -289 -289z" />
    <glyph glyph-name="Ocaron" unicode="&#x1d1;" horiz-adv-x="1316" 
d="M346 664q0 -246 73 -358t239 -112t239 103q74 102 74 349q0 246 -73 356q-72 110 -238 110t-240 -101t-74 -347zM1262 674q0 -326 -163 -510t-452 -184t-439 173t-151 499q0 326 163 505q164 180 452 180t439 -169q151 -168 151 -494zM690 1470h-55q-127 113 -275 213
l50 109h26l64 -37q76 -39 162 -92q86 53 161 92l64 37h26l52 -109q-142 -94 -275 -213z" />
    <glyph glyph-name="ocaron" unicode="&#x1d2;" horiz-adv-x="1146" 
d="M336 553q0 -151 24 -228t75 -110q52 -33 140 -33q129 0 184 68q54 68 54 220t-25 229t-75 110q-51 33 -160 33t-163 -69t-54 -220zM1081 530q0 -256 -138 -402q-137 -146 -379 -146t-369 136t-127 391t137 398t379 143t370 -132q127 -133 127 -388zM606 1155h-59
q-160 176 -287 289l68 104h26q135 -106 224 -188q80 76 221 188h26l70 -104q-117 -107 -289 -289z" />
    <glyph glyph-name="Ucaron" unicode="&#x1d3;" horiz-adv-x="1306" 
d="M642 -18q-255 0 -386 124t-125 359l2 190l-6 664h279l-15 -817q-2 -293 263 -293t264 278l-15 832h283l-10 -670l-2 -174q2 -237 -138 -365t-394 -128zM686 1440h-59q-160 176 -287 289l68 104h26q135 -106 223 -188q80 76 222 188h26l70 -104q-117 -107 -289 -289z" />
    <glyph glyph-name="ucaron" unicode="&#x1d4;" horiz-adv-x="1140" 
d="M562 -16q-216 0 -329 95t-106 271l2 162l-6 522h258l-12 -647q-3 -195 201 -195t202 195l-10 647h260l-8 -526l-2 -158q2 -176 -116 -271t-334 -95zM602 1155h-59q-160 176 -287 289l68 104h26q135 -106 223 -188q80 76 222 188h26l70 -104q-117 -107 -289 -289z" />
    <glyph glyph-name="Udieresismacron" unicode="&#x1d5;" horiz-adv-x="1306" 
d="M642 -18q-255 0 -386 124t-125 359l2 190l-6 664h279l-15 -817q-2 -293 263 -293t264 278l-15 832h283l-10 -670l-2 -174q2 -237 -138 -365t-394 -128zM829 1462q-121 0 -120 125q0 59 34 95q35 36 95 36t90 -31t30 -91t-34 -97t-95 -37zM602 1596q0 -60 -35 -97t-94 -37
q-121 0 -121 125q0 59 35 95t94 36t90 -31t31 -91zM946 1835h-571l-21 20l15 154h573l19 -20z" />
    <glyph glyph-name="udieresismacron" unicode="&#x1d6;" horiz-adv-x="1140" 
d="M562 -16q-216 0 -329 95t-106 271l2 162l-6 522h258l-12 -647q-3 -195 201 -195t202 195l-10 647h260l-8 -526l-2 -158q2 -176 -116 -271t-334 -95zM754 1434q60 0 90 -32t30 -91t-34 -97q-35 -37 -95 -36q-121 0 -120 125q0 59 34 95q35 36 95 36zM518 1311
q0 -59 -35 -97t-94 -36q-121 0 -121 125q0 59 35 95t94 36t90 -32t31 -91zM862 1550h-571l-21 21l15 153h573l19 -20z" />
    <glyph glyph-name="Udieresisacute" unicode="&#x1d7;" horiz-adv-x="1306" 
d="M642 -18q-255 0 -386 124t-125 359l2 190l-6 664h279l-15 -817q-2 -293 263 -293t264 278l-15 832h283l-10 -670l-2 -174q2 -237 -138 -365t-394 -128zM829 1462q-121 0 -120 125q0 59 34 95q35 36 95 36t90 -31t30 -91t-34 -97t-95 -37zM602 1596q0 -60 -35 -97t-94 -37
q-121 0 -121 125q0 59 35 95t94 36t90 -31t31 -91zM911 1917l-14 -25q-297 -55 -461 -77l-24 10l-23 121q262 78 457 153l24 -12z" />
    <glyph glyph-name="udieresisacute" unicode="&#x1d8;" horiz-adv-x="1140" 
d="M562 -16q-216 0 -329 95t-106 271l2 162l-6 522h258l-12 -647q-3 -195 201 -195t202 195l-10 647h260l-8 -526l-2 -158q2 -176 -116 -271t-334 -95zM754 1434q60 0 90 -32t30 -91t-34 -97q-35 -37 -95 -36q-121 0 -120 125q0 59 34 95q35 36 95 36zM518 1311
q0 -59 -35 -97t-94 -36q-121 0 -121 125q0 59 35 95t94 36t90 -32t31 -91zM827 1632l-14 -24q-297 -55 -461 -78l-24 10l-23 121q262 78 457 154l24 -13z" />
    <glyph glyph-name="Udieresiscaron" unicode="&#x1d9;" horiz-adv-x="1306" 
d="M642 -18q-255 0 -386 124t-125 359l2 190l-6 664h279l-15 -817q-2 -293 263 -293t264 278l-15 832h283l-10 -670l-2 -174q2 -237 -138 -365t-394 -128zM829 1462q-121 0 -120 125q0 59 34 95q35 36 95 36t90 -31t30 -91t-34 -97t-95 -37zM602 1596q0 -60 -35 -97t-94 -37
q-121 0 -121 125q0 59 35 95t94 36t90 -31t31 -91zM684 1747h-55q-129 109 -275 213l49 108h27l225 -129l226 129h26l51 -108q-139 -94 -274 -213z" />
    <glyph glyph-name="udieresiscaron" unicode="&#x1da;" horiz-adv-x="1140" 
d="M562 -16q-216 0 -329 95t-106 271l2 162l-6 522h258l-12 -647q-3 -195 201 -195t202 195l-10 647h260l-8 -526l-2 -158q2 -176 -116 -271t-334 -95zM754 1434q60 0 90 -32t30 -91t-34 -97q-35 -37 -95 -36q-121 0 -120 125q0 59 34 95q35 36 95 36zM518 1311
q0 -59 -35 -97t-94 -36q-121 0 -121 125q0 59 35 95t94 36t90 -32t31 -91zM600 1462h-55q-129 109 -275 213l49 109h27l225 -129l226 129h26l51 -109q-139 -94 -274 -213z" />
    <glyph glyph-name="Udieresisgrave" unicode="&#x1db;" horiz-adv-x="1306" 
d="M642 -18q-255 0 -386 124t-125 359l2 190l-6 664h279l-15 -817q-2 -293 263 -293t264 278l-15 832h283l-10 -670l-2 -174q2 -237 -138 -365t-394 -128zM829 1462q-121 0 -120 125q0 59 34 95q35 36 95 36t90 -31t30 -91t-34 -97t-95 -37zM602 1596q0 -60 -35 -97t-94 -37
q-121 0 -121 125q0 59 35 95t94 36t90 -31t31 -91zM911 1946l-24 -121l-25 -10q-170 23 -461 77l-12 25l39 170l25 12q198 -77 458 -153z" />
    <glyph glyph-name="udieresisgrave" unicode="&#x1dc;" horiz-adv-x="1140" 
d="M562 -16q-216 0 -329 95t-106 271l2 162l-6 522h258l-12 -647q-3 -195 201 -195t202 195l-10 647h260l-8 -526l-2 -158q2 -176 -116 -271t-334 -95zM754 1434q60 0 90 -32t30 -91t-34 -97q-35 -37 -95 -36q-121 0 -120 125q0 59 34 95q35 36 95 36zM518 1311
q0 -59 -35 -97t-94 -36q-121 0 -121 125q0 59 35 95t94 36t90 -32t31 -91zM827 1661l-24 -121l-25 -10q-170 23 -461 78l-12 24l39 170l25 13q198 -78 458 -154z" />
    <glyph glyph-name="Oogonek" unicode="&#x1ea;" horiz-adv-x="1316" 
d="M656.5 195q164.5 0 239.5 102t75 349t-74 356.5t-240 109.5t-238.5 -101.5t-72.5 -347t73 -357t237.5 -111.5zM799 -174q0 -76 78 -76q61 0 133 60h14l23 -113q-113 -100 -204 -100t-142.5 51t-51.5 134t60 163l28 41q-49 -6 -100 -6q-279 0 -429.5 173t-150.5 498.5
t163 505.5t450.5 180t438.5 -169t151 -480q0 -254 -92.5 -423t-266.5 -238l-70 -105q-32 -55 -32 -96z" />
    <glyph glyph-name="oogonek" unicode="&#x1eb;" horiz-adv-x="1146" 
d="M575 182q129 0 183.5 67.5t54.5 220t-24.5 229.5t-75.5 110t-160 33t-163 -68.5t-54 -220.5t23.5 -228.5t75.5 -109.5t140 -33zM662 -184q0 -68 71.5 -68t138.5 62h17l24 -111q-115 -102 -207 -102t-142 50t-50 130t55 157l33 50l-49 -2q-231 0 -358 136t-127 391
t137 398.5t379.5 143.5t369.5 -133.5t127 -358.5q0 -442 -323 -547l-62 -98q-34 -51 -34 -98z" />
    <glyph glyph-name="Aringacute" unicode="&#x1fa;" horiz-adv-x="1228" 
d="M631 1034h-19l-180 -534l174 -4l178 4zM545 1399q0 -82 84 -82t84 79t-84 79t-84 -76zM432 1404q0 85 52.5 136t147.5 51t144 -49t49 -134t-41 -136l412 -1272h-283l-32 168l-35 121l-258 6l-228 -6l-34 -107l-35 -182h-275l451 1272q-35 47 -35 132zM416 1751
q240 78 454 164l25 -10l43 -170l-12 -23q-223 -51 -459 -92l-25 12z" />
    <glyph glyph-name="aringacute" unicode="&#x1fb;" horiz-adv-x="1083" 
d="M553 799h-16l-138 -396l133 -2l138 2zM772 0l-27 150l-18 59l-211 2l-184 -4l-15 -43l-30 -164h-252l362 1034h305l330 -1034h-260zM553 1290q84 0 84 79t-84 79t-84 -76q0 -82 84 -82zM556 1565q95 0 144.5 -49.5t49.5 -141.5t-54.5 -144t-146.5 -52t-142.5 49
t-50.5 142t52.5 144.5t147.5 51.5zM340 1722q240 78 455 164l24 -10l43 -170l-12 -23q-223 -51 -459 -92l-24 13z" />
    <glyph glyph-name="AEacute" unicode="&#x1fc;" horiz-adv-x="1683" 
d="M733 1059h-18l-223 -473l290 76zM1649 0h-797l-10 172l-35 281l-434 -115l-72 -152l-61 -186h-277l635 1319h901l19 -23l-23 -206l-317 10h-181l45 -371l398 102l20 -16l23 -194l-416 -99l37 -305h209l338 12l16 -22zM1333 1653l-8 -25q-188 -74 -440 -160l-27 9l-45 112
q248 125 426 232l25 -6z" />
    <glyph glyph-name="aeacute" unicode="&#x1fd;" horiz-adv-x="1456" 
d="M639 811h-16l-187 -356l242 61zM1409 0h-672l-8 141l-27 193l-383 -101l-40 -77l-50 -156h-237l530 1034h766l15 -20l-21 -180l-266 12h-148l35 -273l334 86l16 -14l19 -176l-346 -78l26 -201h176l283 11l14 -19zM1153 1415l-4 -26q-186 -120 -399 -242l-27 2l-66 102
q238 190 371 314l27 -2z" />
    <glyph glyph-name="Oslashacute" unicode="&#x1fe;" horiz-adv-x="1316" 
d="M971 646q0 246 -74 356t-240 110q-167 0 -239 -101t-72 -347t73 -358t237 -112t240 103q75 102 75 349zM1260 704q0 -356 -162 -540t-461 -184q-98 0 -174 20l-117 -244l-174 64l-12 24l116 244q-219 170 -219 555q0 334 163 514t462 180q94 0 180 -22l105 217l170 -62
l16 -28l-104 -217q211 -165 211 -521zM963 1655l-9 -25q-188 -74 -440 -160l-27 9l-45 112q248 125 426 232l25 -6z" />
    <glyph glyph-name="oslashacute" unicode="&#x1ff;" horiz-adv-x="1146" 
d="M813 470q0 152 -25 229t-75 110q-51 33 -160 33t-163 -69t-54 -220t24 -228t75 -110q52 -33 140 -33q130 0 184 68t54 220zM1081 541q0 -267 -137 -413t-391 -146q-74 0 -143 16l-131 -231l-156 73l-6 25l119 215q-168 136 -168 410t137 417t391 144q94 0 164 -21
l110 195l148 -76l14 -25l-102 -182q151 -133 151 -401zM846 1419l-4 -26q-199 -129 -400 -242l-26 2l-66 102q238 190 371 314l27 -2z" />
    <glyph glyph-name="Scommaaccent" unicode="&#x218;" horiz-adv-x="1019" 
d="M645 -238q0 -162 -221 -319l-80 70l-2 18q102 84 102 180q0 61 -57 111v20q90 53 176 76q82 -64 82 -156zM371 972q0 -58 54 -99.5t169 -94.5q116 -53 186 -97q170 -106 170 -292q0 -113 -61.5 -206t-174 -147t-283.5 -54t-368 84l39 258l31 16q82 -72 179.5 -109.5
t180 -37.5t133 44t50.5 107.5t-54.5 104t-175.5 98.5q-111 49 -180 92t-118.5 114.5t-49.5 180.5t61.5 202t172 146t265.5 53.5t321 -67.5l-46 -240l-41 -16q-151 106 -280 106q-82 0 -131 -44t-49 -102z" />
    <glyph glyph-name="scommaaccent" unicode="&#x219;" horiz-adv-x="911" 
d="M569 -238q0 -162 -221 -319l-80 70l-2 18q102 84 103 180q0 61 -58 111v20q90 53 176 76q82 -64 82 -156zM483 856q-57 0 -90 -27.5t-33 -68.5t41 -68.5t131 -65.5t148.5 -71t100.5 -91t42 -146.5t-45 -165t-138 -123.5t-245.5 -47t-316.5 63l35 242l26 18
q68 -61 153 -98t146 -37t96 28.5t35 72.5t-41 72t-130 64t-148.5 70.5t-101.5 94t-42 149.5t49.5 166t142.5 119t230.5 42.5t272.5 -51.5l-39 -229l-39 -10q-133 98 -240 98z" />
    <glyph glyph-name="uni021A" unicode="&#x21a;" horiz-adv-x="1030" 
d="M664 -238q0 -162 -222 -319l-80 70l-2 18q102 84 103 180q0 61 -57 111v20q90 53 176 76q82 -64 82 -156zM985 1090l-250 12h-78l-12 -684l12 -418h-278l16 393l-12 709h-84l-250 -12l-18 22l18 207h936l16 -23z" />
    <glyph glyph-name="uni021B" unicode="&#x21b;" horiz-adv-x="913" 
d="M606 -238q0 -162 -221 -319l-80 70l-2 18q102 84 103 180q0 61 -58 111v20q90 53 176 76q82 -64 82 -156zM852 817l-209 14h-57l-8 -499l10 -332h-258l12 307l-6 524h-60l-213 -14l-16 21l16 196h791l12 -20z" />
    <glyph glyph-name="dotlessj" unicode="&#x237;" horiz-adv-x="645" 
d="M238 195v118l-9 531l-176 -4l-16 16l16 178h432l-10 -694l2 -143q0 -139 -70 -224q-71 -84 -253 -153l-82 129v22q90 45 128 95t38 129z" />
    <glyph glyph-name="circumflex" unicode="&#x2c6;" 
d="M367 1468h59q160 -176 287 -288l-68 -105h-27q-135 106 -223 189q-80 -76 -221 -189h-27l-69 105q117 106 289 288z" />
    <glyph glyph-name="caron" unicode="&#x2c7;" 
d="M426 1073h-59q-160 176 -287 289l67 104h27q135 -106 223 -188q80 76 221 188h27l70 -104q-117 -107 -289 -289z" />
    <glyph glyph-name="firsttonechinese" unicode="&#x2c9;" 
d="M688 1182h-573l-19 18l15 152h573l16 -19z" />
    <glyph glyph-name="breve" unicode="&#x2d8;" 
d="M393 1085q-125 0 -199.5 72t-103.5 184l64 93h39q49 -156 207 -156t204 156h39l64 -93q-31 -116 -110 -186t-204 -70z" />
    <glyph glyph-name="dotaccent" unicode="&#x2d9;" horiz-adv-x="522" 
d="M256 1126q-68 0 -104 37t-35 105q0 68 40 108q41 40 107 41q66 0 102 -37q36 -36 36 -104t-40 -109q-38 -41 -106 -41z" />
    <glyph glyph-name="ring" unicode="&#x2da;" 
d="M313 1290q0 -82 84 -82t84 79t-84 79t-84 -76zM594 1292q0 -92 -54.5 -144t-146.5 -52t-142 49t-50 142t51.5 144.5t147.5 51.5t145 -49.5t49 -141.5z" />
    <glyph glyph-name="ogonek" unicode="&#x2db;" 
d="M346 -174q0 -76 78 -76q61 0 133 60h14l23 -113q-113 -100 -204 -100t-142 51t-51 134t59 163l131 184h129l-137 -207q-33 -55 -33 -96z" />
    <glyph glyph-name="tilde" unicode="&#x2dc;" 
d="M522 1331q26 0 63.5 33t65.5 72h25l80 -80v-23l-144 -182l-26 -10q-55 6 -174 39t-141.5 32.5t-44 -18.5t-46 -45t-37.5 -41h-24l-82 80v22l145 183l25 10q49 -6 169 -39t146 -33z" />
    <glyph glyph-name="hungarumlaut" unicode="&#x2dd;" 
d="M606 1487l23 4l125 -90l2 -21q-113 -127 -295 -309l-25 -6l-84 70q150 198 254 352zM295 1487l20 4l125 -90l2 -21q-113 -127 -295 -309l-24 -6l-84 70q141 182 256 352z" />
    <glyph glyph-name="tildecomb" unicode="&#x303;" horiz-adv-x="0" 
d="M517.5 1331q29.5 0 67.5 33t66 72h25l80 -80v-23l-146 -184l-24 -8q-45 6 -166 39t-147 32.5t-47 -18.5t-45.5 -45t-37.5 -41h-24l-82 80v22l145 183l27 10q18 -2 170 -39q109 -33 138.5 -33z" />
    <glyph glyph-name="dotbelowcomb" unicode="&#x323;" horiz-adv-x="0" 
d="M387 -319.5q0 -67.5 -39 -108.5t-106.5 -41t-103.5 37t-36 104.5t40 108.5t106.5 41t102.5 -37t36 -104.5z" />
    <glyph glyph-name="commaaccentcomb" unicode="&#x326;" horiz-adv-x="0" 
d="M374 -249q0 -160 -222 -318l-79 70l-2 18q101 84 101 180q0 62 -59 110l2 20q84 51 176 77q83 -65 83 -157z" />
    <glyph glyph-name="Delta" unicode="&#x394;" horiz-adv-x="1228" 
d="M334 213h536l-239 846h-19zM16 0l445 1319h332l403 -1319h-1180z" />
    <glyph glyph-name="Omega" unicode="&#x3a9;" horiz-adv-x="1544" 
d="M1376 774q0 -312 -235 -557l4 -8h160l172 16l14 -16l-31 -221l-235 12h-289l-78 -4l-12 10v176q240 213 239 545q0 182 -78.5 284.5t-238.5 102.5t-235.5 -99.5t-75.5 -277.5q0 -336 237 -555v-176l-12 -10l-78 4h-336l-202 -8l-15 18l31 213l188 -16l125 2l4 8
q-233 233 -233 535q0 166 71.5 299t211 209.5t333.5 76.5t327.5 -73.5t200 -200.5t66.5 -289z" />
    <glyph glyph-name="mu" unicode="&#x3bc;" horiz-adv-x="1069" 
d="M863 -14q-73 0 -113.5 32.5t-65.5 108.5h-16q-106 -109 -219 -139q-45 0 -76 8v-375h-256l8 772l-8 541l256 22v-604q0 -145 127 -145q82 0 174 80v647l258 22l-17 -700q-2 -76 48 -76q18 0 51 15l20 -15l-28 -145q-70 -49 -143 -49z" />
    <glyph glyph-name="pi" unicode="&#x3c0;" horiz-adv-x="1376" 
d="M1139 180q29 0 65 17l21 -15l-29 -147q-92 -49 -164 -49t-128 54t-56 179v598h-268v-397l8 -604h-264l8 577l-6 424h-35q-29 0 -57.5 -24.5t-79.5 -79.5l-50 -54h-28l-82 103v29l186 227l37 16h817l242 4l16 -22l-18 -203l-174 2l-8 -559q0 -76 47 -76z" />
    <glyph glyph-name="Wgrave" unicode="&#x1e80;" horiz-adv-x="1849" 
d="M1114 0l-196 631h-19l-199 -631h-292l-369 1319h270l23 -162l231 -870h19l223 710l-92 322h282l31 -191l238 -841h18l266 852l33 180h258l-434 -1319h-291zM1176 1591l-46 -112l-26 -9q-252 86 -440 160l-9 25l70 162l25 6q178 -107 426 -232z" />
    <glyph glyph-name="wgrave" unicode="&#x1e81;" horiz-adv-x="1585" 
d="M932 0l-144 442h-16l-147 -442h-279l-291 1034h256l19 -143l168 -623h16l168 520l-70 246h267l24 -168l172 -598h19l194 609l29 157h244l-351 -1034h-278zM1004 1251l-66 -102l-27 -2q-192 109 -399 242l-4 26l98 148l27 2q133 -124 371 -314z" />
    <glyph glyph-name="Wacute" unicode="&#x1e82;" horiz-adv-x="1849" 
d="M1114 0l-196 631h-19l-199 -631h-292l-369 1319h272l21 -162l233 -870h19l223 710l-94 322h282l31 -191l238 -841h18l266 852l33 180h258l-434 -1319h-291zM1217 1653l-9 -25q-188 -74 -440 -160l-27 9l-45 112q248 125 426 232l25 -6z" />
    <glyph glyph-name="wacute" unicode="&#x1e83;" horiz-adv-x="1585" 
d="M934 0l-146 442h-16l-147 -442h-277l-293 1034h258l17 -143l168 -623h16l168 520l-68 246h267l22 -168l174 -598h17l194 609l29 157h244l-349 -1034h-278zM1053 1415l-4 -26q-199 -129 -400 -242l-26 2l-66 102q238 190 371 314l26 -2z" />
    <glyph glyph-name="Wdieresis" unicode="&#x1e84;" horiz-adv-x="1849" 
d="M1114 0l-196 631h-19l-199 -631h-292l-369 1319h270l23 -162l231 -870h19l223 710l-92 322h282l31 -191l238 -841h18l266 852l33 180h258l-434 -1319h-291zM1223 1635q0 -63 -36 -99.5t-97.5 -36.5t-94 34t-32.5 96t35.5 99t97 37t94.5 -33.5t33 -96.5zM740 1765
q126 0 126 -130q0 -63 -35.5 -99.5t-97 -36.5t-94.5 34t-33 96t36 99t98 37z" />
    <glyph glyph-name="wdieresis" unicode="&#x1e85;" horiz-adv-x="1585" 
d="M932 0l-144 442h-16l-147 -442h-279l-291 1034h256l19 -143l168 -623h16l168 520l-70 246h267l24 -168l172 -598h19l194 609l29 157h244l-351 -1034h-278zM1067 1350.5q0 -62.5 -36 -99.5t-97 -37t-94 34t-33 96t36 99.5t97 37.5t94 -34t33 -96.5zM711 1350.5
q0 -62.5 -36 -99.5t-97.5 -37t-94 34t-32.5 96t35.5 99.5t97 37.5t94.5 -34t33 -96.5z" />
    <glyph glyph-name="uni1E9E" unicode="&#x1e9e;" horiz-adv-x="1368" 
d="M1329 352q0 -110 -91.5 -240t-356.5 -130q-193 0 -361 84l39 258l31 16q76 -68 158.5 -106.5t151.5 -38.5t112 38.5t43 108.5t-96.5 137.5t-337.5 163.5l-11 43l285 379q-115 47 -219 47q-279 0 -279 -262l-6 -430l12 -420h-280l16 389l-8 461q-2 221 146.5 353
t416.5 132q135 0 260 -33.5t273 -103.5l12 -41l-295 -385q143 -70 222 -122t121 -120t42 -178z" />
    <glyph glyph-name="Adotbelow" unicode="&#x1ea0;" horiz-adv-x="1228" 
d="M748 -248q0 -68 -39 -108.5t-106.5 -40.5t-103.5 36.5t-36 104.5t40 109t106.5 41t102.5 -37t36 -105zM631 1059h-19l-180 -549l174 -4l180 4zM913 0l-32 172l-35 123l-258 6l-228 -6l-34 -109l-35 -186h-275l445 1319h332l403 -1319h-283z" />
    <glyph glyph-name="adotbelow" unicode="&#x1ea1;" horiz-adv-x="1083" 
d="M676 -248q0 -68 -39 -108.5t-106.5 -40.5t-103.5 36.5t-36 104.5t40 109t106.5 41t102.5 -37t36 -105zM553 799h-16l-138 -396l133 -2l138 2zM772 0l-27 150l-18 59l-211 2l-184 -4l-15 -43l-30 -164h-252l362 1034h305l330 -1034h-260z" />
    <glyph glyph-name="Ahookabove" unicode="&#x1ea2;" horiz-adv-x="1228" 
d="M631 1059h-19l-180 -549l176 -4l178 4zM913 0l-32 172l-35 123l-258 6l-228 -6l-34 -109l-35 -186h-275l447 1319h330l403 -1319h-283zM554 1755q-62 0 -126 -51l-45 74q100 104 215 104q70 0 117 -41t47 -93t-25 -89t-88 -92l47 -80l-100 -57l-86 135q108 82 106 145
q0 45 -62 45z" />
    <glyph glyph-name="ahookabove" unicode="&#x1ea3;" horiz-adv-x="1083" 
d="M553 799h-16l-138 -396l133 -2l138 2zM772 0l-29 150l-18 59l-209 2l-184 -4l-15 -43l-30 -164h-252l362 1034h305l330 -1034h-260zM700 1466q0 -52 -24 -90q-24 -37 -88 -92l47 -80l-100 -57l-86 135q106 80 106 145q-1 45 -63 45t-125 -51l-45 74q100 104 215 104
q69 1 116 -40t47 -93z" />
    <glyph glyph-name="Acircumflexacute" unicode="&#x1ea4;" horiz-adv-x="1228" 
d="M631 1059h-19l-180 -549l176 -4l178 4zM913 0l-32 172l-35 123l-258 6l-228 -6l-34 -109l-35 -186h-275l447 1319h330l403 -1319h-283zM588 1772h55q127 -113 275 -213l-50 -109h-26l-64 37q-76 39 -162 92q-86 -53 -161 -92l-64 -37h-26l-52 109q142 94 275 213z
M1036 1958l-194 -252h-19l-92 70l143 254l21 8l135 -60z" />
    <glyph glyph-name="acircumflexacute" unicode="&#x1ea5;" horiz-adv-x="1083" 
d="M553 799h-16l-138 -396l133 -2l138 2zM772 0l-29 150l-18 59l-209 2l-184 -4l-15 -43l-30 -164h-252l362 1034h305l330 -1034h-260zM524 1487h56q127 -113 274 -213l-49 -109h-27l-63 37q-76 39 -162 92q-86 -53 -162 -92l-63 -37h-27l-51 109q141 94 274 213zM973 1673
l-195 -252h-18l-92 70l143 254l20 8l136 -59z" />
    <glyph glyph-name="Acircumflexgrave" unicode="&#x1ea6;" horiz-adv-x="1228" 
d="M631 1059h-19l-180 -549l176 -4l178 4zM913 0l-32 172l-35 123l-258 6l-228 -6l-34 -109l-35 -186h-275l447 1319h330l403 -1319h-283zM588 1772h55q127 -113 275 -213l-50 -109h-26l-64 37q-76 39 -162 92q-86 -53 -161 -92l-64 -37h-26l-52 109q142 94 275 213z
M948 1776l-92 -70h-18l-195 252l6 20l137 60l19 -8z" />
    <glyph glyph-name="acircumflexgrave" unicode="&#x1ea7;" horiz-adv-x="1083" 
d="M553 799h-16l-138 -396l133 -2l138 2zM772 0l-29 150l-18 59l-209 2l-184 -4l-15 -43l-30 -164h-252l362 1034h305l330 -1034h-260zM524 1487h56q127 -113 274 -213l-49 -109h-27l-63 37q-76 39 -162 92q-86 -53 -162 -92l-63 -37h-27l-51 109q141 94 274 213zM885 1491
l-92 -70h-19l-194 252l6 21l137 59l18 -8z" />
    <glyph glyph-name="Acircumflexhookabove" unicode="&#x1ea8;" horiz-adv-x="1228" 
d="M631 1059h-19l-180 -549l174 -4l180 4zM913 0l-32 172l-35 123l-258 6l-228 -6l-34 -109l-35 -186h-275l445 1319h332l403 -1319h-283zM313 1559q141 94 275 213h55q127 -113 275 -213l-50 -109h-26l-64 37q-76 39 -162 92q-86 -53 -161 -92l-64 -37h-26zM825 2126
q68 0 113 -39t45 -88t-24.5 -85t-86.5 -87l46 -76l-95 -55l-82 129q102 74 103 137q0 45 -59.5 45t-118.5 -49l-45 70q92 98 204 98z" />
    <glyph glyph-name="acircumflexhookabove" unicode="&#x1ea9;" horiz-adv-x="1083" 
d="M553 799h-16l-138 -396l133 -2l138 2zM772 0l-27 150l-18 59l-211 2l-184 -4l-15 -43l-30 -164h-252l362 1034h305l330 -1034h-260zM250 1274q141 94 274 213h56q127 -113 274 -213l-49 -109h-27l-63 37q-76 39 -162 92q-86 -53 -162 -92l-63 -37h-27zM762 1841
q68 0 113 -39t45 -88t-25 -85t-86 -87l45 -76l-94 -55l-82 129q102 74 102 137q0 45 -59.5 45t-118.5 -49l-45 70q92 98 205 98z" />
    <glyph glyph-name="Acircumflextilde" unicode="&#x1eaa;" horiz-adv-x="1228" 
d="M631 1059h-19l-180 -549l174 -4l180 4zM913 0l-32 172l-35 123l-258 6l-228 -6l-34 -109l-35 -186h-275l445 1319h332l403 -1319h-283zM918 1559l-50 -109h-26l-64 37q-76 39 -162 92q-86 -53 -161 -92l-64 -37h-26l-52 109q141 94 275 213h55q128 -113 275 -213z
M511 1882q-23 0 -44 -17.5t-42.5 -43t-33.5 -39.5h-22l-76 76v22l133 172l25 8q35 -4 150.5 -36t139.5 -31q44 0 119 100h23l73 -76v-22l-133 -172l-22 -11q-51 8 -159 39t-131 31z" />
    <glyph glyph-name="acircumflextilde" unicode="&#x1eab;" horiz-adv-x="1083" 
d="M553 799h-16l-138 -396l133 -2l138 2zM772 0l-27 150l-18 59l-211 2l-184 -4l-15 -43l-30 -164h-252l362 1034h305l330 -1034h-260zM854 1274l-49 -109h-27l-63 37q-76 39 -162 92q-86 -53 -162 -92l-63 -37h-27l-51 109q141 94 274 213h56q127 -113 274 -213zM678 1708
q44 0 119 100h22l74 -75v-23l-133 -172l-23 -10q-51 8 -157.5 38.5t-131 30.5t-45 -17t-42 -43t-33.5 -40h-23l-76 76v22l133 172l25 9q35 -4 151 -36t140 -32z" />
    <glyph glyph-name="Acircumflexdotbelow" unicode="&#x1eac;" horiz-adv-x="1228" 
d="M748 -248q0 -68 -39 -108.5t-106.5 -40.5t-103.5 36.5t-36 104.5t40 109t106.5 41t102.5 -37t36 -105zM631 1059h-19l-180 -549l174 -4l180 4zM913 0l-32 172l-35 123l-258 6l-228 -6l-34 -109l-35 -186h-275l445 1319h332l403 -1319h-283zM313 1599q141 94 275 213h55
q127 -113 275 -213l-50 -108h-26l-64 37q-76 39 -162 92q-86 -53 -161 -92l-64 -37h-26z" />
    <glyph glyph-name="acircumflexdotbelow" unicode="&#x1ead;" horiz-adv-x="1083" 
d="M676 -248q0 -68 -39 -108.5t-106.5 -40.5t-103.5 36.5t-36 104.5t40 109t106.5 41t102.5 -37t36 -105zM553 799h-16l-138 -396l133 -2l138 2zM772 0l-27 150l-18 59l-211 2l-184 -4l-15 -43l-30 -164h-252l362 1034h305l330 -1034h-260zM238 1264q117 106 288 288h60
q160 -176 286 -288l-67 -105h-27q-135 106 -223 189q-80 -76 -221 -189h-27z" />
    <glyph glyph-name="Abreveacute" unicode="&#x1eae;" horiz-adv-x="1228" 
d="M631 1059h-19l-180 -549l176 -4l178 4zM913 0l-32 172l-35 123l-258 6l-228 -6l-34 -109l-35 -186h-275l447 1319h330l403 -1319h-283zM623 1624q145 0 200 115h39l64 -88q-80 -215 -314 -215q-112 0 -190 55t-113 160l64 88h39q27 -53 82 -84t129 -31zM854 1942
q-125 -125 -229 -222l-23 -6l-86 68l43 59q98 131 146 199l20 4l125 -82z" />
    <glyph glyph-name="abreveacute" unicode="&#x1eaf;" horiz-adv-x="1083" 
d="M553 799h-16l-138 -396l133 -2l138 2zM772 0l-29 150l-18 59l-209 2l-184 -4l-15 -43l-30 -164h-252l362 1034h305l330 -1034h-260zM549 1151q-111 0 -190 55t-113 160l63 88h39q27 -53 82 -84t129 -31q145 0 201 115h39l63 -88q-80 -215 -313 -215zM791 1657
q-125 -125 -230 -221l-22 -6l-86 67l43 59q98 131 145 199l21 4l124 -82z" />
    <glyph glyph-name="Abrevegrave" unicode="&#x1eb0;" horiz-adv-x="1228" 
d="M631 1059h-19l-180 -549l176 -4l178 4zM913 0l-32 172l-35 123l-258 6l-228 -6l-34 -109l-35 -186h-275l447 1319h330l403 -1319h-283zM623 1624q145 0 200 115h39l64 -88q-80 -215 -314 -215q-112 0 -190 55t-113 160l64 88h39q27 -53 82 -84t129 -31zM721 1782l-86 -68
l-25 6q-152 143 -227 222l2 20l127 82l20 -4q89 -127 189 -258z" />
    <glyph glyph-name="abrevegrave" unicode="&#x1eb1;" horiz-adv-x="1083" 
d="M553 799h-16l-138 -396l133 -2l138 2zM772 0l-29 150l-18 59l-209 2l-184 -4l-15 -43l-30 -164h-252l362 1034h305l330 -1034h-260zM549 1151q-111 0 -190 55t-113 160l63 88h39q27 -53 82 -84t129 -31q145 0 201 115h39l63 -88q-80 -215 -313 -215zM657 1497l-86 -67
l-24 6q-152 143 -228 221l3 20l127 82l20 -4q88 -127 188 -258z" />
    <glyph glyph-name="Abrevehookabove" unicode="&#x1eb2;" horiz-adv-x="1228" 
d="M631 1059h-19l-180 -549l174 -4l180 4zM913 0l-32 172l-35 123l-258 6l-228 -6l-34 -109l-35 -186h-275l445 1319h332l403 -1319h-283zM623 1624q145 0 200 115h39l64 -88q-81 -215 -314 -215q-110 0 -189 55t-114 160l64 88h39q27 -53 82 -84t129 -31zM627 1985
q0 45 -63 44.5t-126 -51.5l-45 74q100 104 215 105q70 0 117 -41t47 -93.5t-24.5 -89.5t-88.5 -92l48 -80l-101 -57l-86 135q107 81 107 146z" />
    <glyph glyph-name="abrevehookabove" unicode="&#x1eb3;" horiz-adv-x="1083" 
d="M553 799h-16l-138 -396l133 -2l138 2zM772 0l-27 150l-18 59l-211 2l-184 -4l-15 -43l-30 -164h-252l362 1034h305l330 -1034h-260zM549 1151q-111 0 -189.5 55.5t-113.5 159.5l63 88h39q27 -53 82 -84t129 -31q145 0 201 115h39l63 -88q-81 -215 -313 -215zM563 1700
q0 45 -62.5 45t-125.5 -51l-45 73q100 104 215 105q70 0 117 -41t47 -93.5t-25 -89t-88 -92.5l47 -79l-100 -58l-86 135q106 80 106 146z" />
    <glyph glyph-name="Abrevetilde" unicode="&#x1eb4;" horiz-adv-x="1228" 
d="M631 1059h-19l-180 -549l174 -4l180 4zM913 0l-32 172l-35 123l-258 6l-228 -6l-34 -109l-35 -186h-275l445 1319h332l403 -1319h-283zM620.5 1434q-106.5 0 -181 54t-109.5 154l59 82h39q51 -109 195.5 -109t197.5 109h37l60 -82q-35 -100 -113 -154t-184.5 -54z
M511 1882q-23 0 -44 -17.5t-42.5 -43t-33.5 -39.5h-22l-76 76v22l133 172l25 8q35 -4 150.5 -36t139.5 -31q44 0 119 100h23l73 -76v-22l-133 -172l-22 -11q-51 8 -159 39t-131 31z" />
    <glyph glyph-name="abrevetilde" unicode="&#x1eb5;" horiz-adv-x="1083" 
d="M553 799h-16l-138 -396l133 -2l138 2zM772 0l-27 150l-18 59l-211 2l-184 -4l-15 -43l-30 -164h-252l362 1034h305l330 -1034h-260zM557.5 1149q-106.5 0 -181.5 54t-110 155l60 82h39q51 -109 195.5 -109t197.5 109h37l59 -82q-35 -100 -112.5 -154.5t-184 -54.5z
M678 1708q44 0 119 100h22l74 -75v-23l-133 -172l-23 -10q-51 8 -157.5 38.5t-131 30.5t-45 -17t-42 -43t-33.5 -40h-23l-76 76v22l133 172l25 9q35 -4 151 -36t140 -32z" />
    <glyph glyph-name="Abrevedotbelow" unicode="&#x1eb6;" horiz-adv-x="1228" 
d="M748 -248q0 -68 -39 -108.5t-106.5 -40.5t-103.5 36.5t-36 104.5t40 109t106.5 41t102.5 -37t36 -105zM631 1059h-19l-180 -549l174 -4l180 4zM913 0l-32 172l-35 123l-258 6l-228 -6l-34 -109l-35 -186h-275l445 1319h332l403 -1319h-283zM617.5 1665q150.5 0 205.5 113
h39l64 -86q-39 -104 -120 -160.5t-193.5 -56.5t-190.5 56t-113 161l64 86h39q55 -113 205.5 -113z" />
    <glyph glyph-name="abrevedotbelow" unicode="&#x1eb7;" horiz-adv-x="1083" 
d="M676 -248q0 -68 -39 -108.5t-106.5 -40.5t-103.5 36.5t-36 104.5t40 109t106.5 41t102.5 -37t36 -105zM553 799h-16l-138 -396l133 -2l138 2zM772 0l-27 150l-18 59l-211 2l-184 -4l-15 -43l-30 -164h-252l362 1034h305l330 -1034h-260zM558 1360q159 0 204 156h39
l63 -93q-31 -117 -109.5 -186.5t-203.5 -69.5t-200 72t-103 184l63 93h39q49 -156 208 -156z" />
    <glyph glyph-name="Edotbelow" unicode="&#x1eb8;" horiz-adv-x="1042" 
d="M743 -248q0 -68 -38.5 -108.5t-106.5 -40.5t-103.5 36.5t-35.5 104.5t40 109t106.5 41t102 -37t35.5 -105zM1004 207l-17 -207h-827l16 393l-16 926h835l15 -23l-19 -206l-317 10l-236 -2l-4 -320l223 -2l217 6l17 -20l-19 -207l-233 6l-209 -2l-2 -141l6 -199l230 -2
l325 12z" />
    <glyph glyph-name="edotbelow" unicode="&#x1eb9;" horiz-adv-x="933" 
d="M657 -248q0 -68 -38.5 -108.5t-106.5 -40.5t-103.5 36.5t-35.5 104.5t40 109t106.5 41t102 -37t35.5 -105zM877 193l-19 -193h-708l12 307l-12 727h718l15 -20l-17 -191l-266 11h-192l-5 -209l185 -2l178 6l16 -19l-18 -194l-195 6h-170l-2 -90l4 -131h181l278 8z" />
    <glyph glyph-name="Ehookabove" unicode="&#x1eba;" horiz-adv-x="1042" 
d="M1006 207l-19 -207h-827l14 393l-14 926h835l17 -23l-21 -206l-315 10l-238 -2l-6 -318l227 -4l215 6l17 -20l-19 -207l-233 6l-211 -2l-2 -141l6 -199l232 -2l325 12zM578 1710q0 45 -63 45t-126 -51l-45 74q100 104 215 104q70 0 117 -41t47 -93t-25 -89t-88 -92
l47 -80l-100 -57l-86 135q107 81 107 145z" />
    <glyph glyph-name="ehookabove" unicode="&#x1ebb;" horiz-adv-x="933" 
d="M877 193l-19 -193h-708l10 307l-10 727h718l15 -20l-17 -191l-266 11h-192l-5 -209l185 -2l178 6l14 -19l-16 -194l-195 6h-170l-2 -90l4 -131h181l278 8zM508 1427q0 45 -62 45t-127 -51l-45 74q100 104 215 104q70 1 117 -40t47 -93q-1 -52 -25 -90q-24 -37 -87 -92
l47 -80l-101 -57l-86 135q107 81 107 145z" />
    <glyph glyph-name="Ecircumflexacute" unicode="&#x1ebe;" horiz-adv-x="1042" 
d="M1006 207l-19 -207h-827l14 393l-14 926h835l17 -23l-21 -206l-315 10l-238 -2l-6 -318l227 -4l215 6l17 -20l-19 -207l-233 6l-211 -2l-2 -141l6 -199l232 -2l325 12zM549 1772h55q127 -113 275 -213l-50 -109h-26l-64 37q-76 39 -161 92q-86 -53 -162 -92l-64 -37h-26
l-52 109q142 94 275 213zM997 1958l-194 -252h-19l-92 70l144 254l20 8l135 -60z" />
    <glyph glyph-name="ecircumflexacute" unicode="&#x1ebf;" horiz-adv-x="933" 
d="M877 193l-19 -193h-708l10 307l-10 727h718l15 -20l-17 -191l-266 11h-192l-5 -209l185 -2l178 6l14 -19l-16 -194l-195 6h-170l-2 -90l4 -131h181l278 8zM477 1487h55q127 -113 275 -213l-49 -109h-27l-63 37q-76 39 -162 92q-86 -53 -162 -92l-63 -37h-27l-51 109
q141 94 274 213zM926 1673l-195 -252h-18l-92 70l143 254l20 8l136 -59z" />
    <glyph glyph-name="Ecircumflexgrave" unicode="&#x1ec0;" horiz-adv-x="1042" 
d="M1006 207l-19 -207h-827l14 393l-14 926h835l17 -23l-21 -206l-315 10l-238 -2l-6 -318l227 -4l215 6l17 -20l-19 -207l-233 6l-211 -2l-2 -141l6 -199l232 -2l325 12zM549 1772h55q127 -113 275 -213l-50 -109h-26l-64 37q-76 39 -161 92q-86 -53 -162 -92l-64 -37h-26
l-52 109q142 94 275 213zM909 1776l-92 -70h-18l-195 252l6 20l138 60l18 -8z" />
    <glyph glyph-name="ecircumflexgrave" unicode="&#x1ec1;" horiz-adv-x="933" 
d="M877 193l-19 -193h-708l10 307l-10 727h718l15 -20l-17 -191l-266 11h-192l-5 -209l185 -2l178 6l14 -19l-16 -194l-195 6h-170l-2 -90l4 -131h181l278 8zM477 1487h55q127 -113 275 -213l-49 -109h-27l-63 37q-76 39 -162 92q-86 -53 -162 -92l-63 -37h-27l-51 109
q141 94 274 213zM838 1491l-93 -70h-18l-195 252l7 21l137 59l18 -8z" />
    <glyph glyph-name="Ecircumflexhookabove" unicode="&#x1ec2;" horiz-adv-x="1042" 
d="M1004 207l-17 -207h-827l16 393l-16 926h835l15 -23l-19 -206l-317 10l-236 -2l-4 -320l223 -2l217 6l17 -20l-19 -207l-233 6l-209 -2l-2 -141l6 -199l230 -2l325 12zM274 1559q141 94 275 213h55q127 -113 275 -213l-50 -109h-26l-64 37q-76 39 -161 92
q-86 -53 -162 -92l-64 -37h-26zM786 2126q68 0 113 -39t45 -88t-24.5 -85t-85.5 -87l45 -76l-95 -55l-82 129q102 74 103 137q0 45 -59.5 45t-118.5 -49l-45 70q92 98 204 98z" />
    <glyph glyph-name="ecircumflexhookabove" unicode="&#x1ec3;" horiz-adv-x="933" 
d="M877 193l-19 -193h-708l12 307l-12 727h718l15 -20l-17 -191l-266 11h-192l-5 -209l185 -2l178 6l16 -19l-18 -194l-195 6h-170l-2 -90l4 -131h181l278 8zM203 1274q141 94 274 213h55q127 -113 275 -213l-49 -109h-27l-63 37q-76 39 -162 92q-86 -53 -162 -92l-63 -37
h-27zM715 1841q68 0 112.5 -39t44.5 -88t-24.5 -85t-85.5 -87l45 -76l-94 -55l-82 129q102 74 102 137q0 45 -59.5 45t-118.5 -49l-45 70q92 98 205 98z" />
    <glyph glyph-name="Ecircumflextilde" unicode="&#x1ec4;" horiz-adv-x="1042" 
d="M1006 207l-19 -207h-827l14 393l-14 926h835l17 -23l-21 -206l-315 10l-238 -2l-6 -318l227 -4l215 6l17 -20l-19 -207l-233 6l-211 -2l-2 -141l6 -199l232 -2l325 12zM549 1772h55q127 -113 275 -213l-50 -109h-26l-64 37q-76 39 -161 92q-86 -53 -162 -92l-64 -37h-26
l-52 109q142 94 275 213zM909 1776l-92 -70h-18l-195 252l6 20l138 60l18 -8z" />
    <glyph glyph-name="ecircumflextilde" unicode="&#x1ec5;" horiz-adv-x="933" 
d="M877 193l-19 -193h-708l12 307l-12 727h718l15 -20l-17 -191l-266 11h-192l-5 -209l185 -2l178 6l16 -19l-18 -194l-195 6h-170l-2 -90l4 -131h181l278 8zM807 1274l-49 -109h-27l-63 37q-76 39 -162 92q-86 -53 -162 -92l-63 -37h-27l-51 109q141 94 274 213h55
q128 -113 275 -213zM630.5 1708q23.5 0 45.5 19.5t44.5 46t29.5 34.5h22l74 -75v-23l-133 -172l-23 -10q-51 8 -159 39t-131 30.5t-43.5 -17.5t-42 -43t-33.5 -40h-23l-76 76v22l133 172l25 9q35 -4 151 -36t139.5 -32z" />
    <glyph glyph-name="Ecircumflexdotbelow" unicode="&#x1ec6;" horiz-adv-x="1042" 
d="M743 -248q0 -68 -38.5 -108.5t-106.5 -40.5t-103.5 36.5t-35.5 104.5t40 109t106.5 41t102 -37t35.5 -105zM1004 207l-17 -207h-827l16 393l-16 926h835l15 -23l-19 -206l-317 10l-236 -2l-4 -320l223 -2l217 6l17 -20l-19 -207l-233 6l-209 -2l-2 -141l6 -199l230 -2
l325 12zM276 1599q141 94 275 213h55q127 -113 275 -213l-50 -108h-26l-64 37q-76 39 -161 92q-86 -53 -162 -92l-64 -37h-26z" />
    <glyph glyph-name="ecircumflexdotbelow" unicode="&#x1ec7;" horiz-adv-x="933" 
d="M657 -248q0 -68 -38.5 -108.5t-106.5 -40.5t-103.5 36.5t-35.5 104.5t40 109t106.5 41t102 -37t35.5 -105zM877 193l-19 -193h-708l12 307l-12 727h718l15 -20l-17 -191l-266 11h-192l-5 -209l185 -2l178 6l16 -19l-18 -194l-195 6h-170l-2 -90l4 -131h181l278 8z
M190 1264q117 106 289 288h60q160 -176 286 -288l-67 -105h-27q-135 106 -223 189q-80 -76 -221 -189h-27z" />
    <glyph glyph-name="Ihookabove" unicode="&#x1ec8;" horiz-adv-x="604" 
d="M438 0h-278l14 393l-14 926h282l-16 -901zM301 1710q-1 45 -63 45t-125 -51l-45 74q100 104 215 104q69 0 116 -41t47 -93t-24 -89t-88 -92l47 -80l-100 -57l-86 135q106 80 106 145z" />
    <glyph glyph-name="ihookabove" unicode="&#x1ec9;" horiz-adv-x="571" 
d="M408 0h-258l10 307l-10 727h262l-15 -702zM289 1427q0 45 -63 45t-126 -51l-45 74q100 104 215 104q70 1 117 -40t47 -93t-24 -90q-24 -37 -88 -92l47 -80l-101 -57l-86 135q107 81 107 145z" />
    <glyph glyph-name="Idotbelow" unicode="&#x1eca;" horiz-adv-x="604" 
d="M430 -248q0 -68 -39 -108.5t-106.5 -40.5t-103.5 36.5t-36 104.5t40 109t106.5 41t102.5 -37t36 -105zM440 0h-280l16 393l-16 926h282l-14 -901z" />
    <glyph glyph-name="idotbelow" unicode="&#x1ecb;" horiz-adv-x="571" 
d="M418 -248q0 -68 -39 -108.5t-106.5 -40.5t-103.5 36.5t-36 104.5t40 109t106.5 41t102.5 -37t36 -105zM408 0h-258l12 307l-12 727h262l-15 -702z" />
    <glyph glyph-name="Odotbelow" unicode="&#x1ecc;" horiz-adv-x="1316" 
d="M805 -248q0 -68 -39 -108.5t-106.5 -40.5t-103.5 36.5t-36 104.5t40 109t106.5 41t102.5 -37t36 -105zM346 663.5q0 -245.5 73 -357t237.5 -111.5t239.5 102t75 349t-74 356.5t-239.5 109.5t-238.5 -101.5t-73 -347zM1260 673.5q0 -325.5 -162 -509.5t-451 -184
t-439.5 173t-150.5 498.5t163 505.5t450.5 180t438.5 -169t151 -494.5z" />
    <glyph glyph-name="odotbelow" unicode="&#x1ecd;" horiz-adv-x="1146" 
d="M719 -248q0 -68 -39 -108.5t-106.5 -40.5t-103.5 36.5t-36 104.5t40 109t106.5 41t102.5 -37t36 -105zM336 553.5q0 -151.5 23.5 -228.5t75.5 -110t140 -33q129 0 183.5 67.5t54.5 220t-24.5 229.5t-75.5 110t-160 33t-163 -68.5t-54 -220zM1081 528.5
q0 -255.5 -137 -401t-379.5 -145.5t-369.5 136t-127 391t137 398.5t379.5 143.5t369.5 -133.5t127 -389z" />
    <glyph glyph-name="Ohookabove" unicode="&#x1ece;" horiz-adv-x="1316" 
d="M346 664q0 -246 73 -358t239 -112t239 103q74 102 74 349q0 246 -73 356q-72 110 -238 110t-240 -101t-74 -347zM1262 674q0 -326 -163 -510t-452 -184t-439 173t-151 499q0 326 163 505q164 180 452 180t439 -169q151 -168 151 -494zM596 1755q-62 0 -125 -51l-45 74
q100 104 215 104q70 0 117 -41t47 -93t-25 -89t-88 -92l47 -80l-100 -57l-86 135q108 82 106 145q-1 45 -63 45z" />
    <glyph glyph-name="ohookabove" unicode="&#x1ecf;" horiz-adv-x="1146" 
d="M336 553q0 -151 24 -228t75 -110q52 -33 140 -33q129 0 184 68q54 68 54 220t-25 229t-75 110q-51 33 -160 33t-163 -69t-54 -220zM1081 530q0 -256 -138 -402q-137 -146 -379 -146t-369 136t-127 391t137 398t379 143t370 -132q127 -133 127 -388zM578 1427q0 45 -63 45
t-126 -51l-45 74q100 104 215 104q70 1 117 -40t47 -93t-25 -90q-25 -37 -88 -92l47 -80l-100 -57l-86 135q107 81 107 145z" />
    <glyph glyph-name="Ocircumflexacute" unicode="&#x1ed0;" horiz-adv-x="1316" 
d="M346 664q0 -246 73 -358t239 -112t239 103q74 102 74 349q0 246 -73 356q-72 110 -238 110t-240 -101t-74 -347zM1262 674q0 -326 -163 -510t-452 -184t-439 173t-151 499q0 326 163 505q164 180 452 180t439 -169q151 -168 151 -494zM631 1772h55q127 -113 275 -213
l-50 -109h-26l-64 37q-76 39 -162 92q-86 -53 -161 -92l-64 -37h-26l-52 109q142 94 275 213zM1079 1958l-194 -252h-19l-92 70l144 254l20 8l135 -60z" />
    <glyph glyph-name="ocircumflexacute" unicode="&#x1ed1;" horiz-adv-x="1146" 
d="M336 553q0 -151 24 -228t75 -110q52 -33 140 -33q129 0 184 68q54 68 54 220t-25 229t-75 110q-51 33 -160 33t-163 -69t-54 -220zM1081 530q0 -256 -138 -402q-137 -146 -379 -146t-369 136t-127 391t137 398t379 143t370 -132q127 -133 127 -388zM547 1487h55
q127 -113 275 -213l-50 -109h-26l-64 37q-76 39 -162 92q-86 -53 -161 -92l-64 -37h-26l-52 109q142 94 275 213zM995 1673l-194 -252h-19l-92 70l144 254l20 8l135 -59z" />
    <glyph glyph-name="Ocircumflexgrave" unicode="&#x1ed2;" horiz-adv-x="1316" 
d="M346 664q0 -246 73 -358t239 -112t239 103q74 102 74 349q0 246 -73 356q-72 110 -238 110t-240 -101t-74 -347zM1262 674q0 -326 -163 -510t-452 -184t-439 173t-151 499q0 326 163 505q164 180 452 180t439 -169q151 -168 151 -494zM631 1772h55q127 -113 275 -213
l-50 -109h-26l-64 37q-76 39 -162 92q-86 -53 -161 -92l-64 -37h-26l-52 109q142 94 275 213zM991 1776l-92 -70h-18l-195 252l6 20l137 60l19 -8z" />
    <glyph glyph-name="ocircumflexgrave" unicode="&#x1ed3;" horiz-adv-x="1146" 
d="M336 553q0 -151 24 -228t75 -110q52 -33 140 -33q129 0 184 68q54 68 54 220t-25 229t-75 110q-51 33 -160 33t-163 -69t-54 -220zM1081 530q0 -256 -138 -402q-137 -146 -379 -146t-369 136t-127 391t137 398t379 143t370 -132q127 -133 127 -388zM547 1487h55
q127 -113 275 -213l-50 -109h-26l-64 37q-76 39 -162 92q-86 -53 -161 -92l-64 -37h-26l-52 109q142 94 275 213zM907 1491l-92 -70h-18l-195 252l6 21l137 59l19 -8z" />
    <glyph glyph-name="Ocircumflexhookabove" unicode="&#x1ed4;" horiz-adv-x="1316" 
d="M346 663.5q0 -245.5 73 -357t237.5 -111.5t239.5 102t75 349t-74 356.5t-239.5 109.5t-238.5 -101.5t-73 -347zM1260 673.5q0 -325.5 -162 -509.5t-451 -184t-439.5 173t-150.5 498.5t163 505.5t450.5 180t438.5 -169t151 -494.5zM631 1772h55q127 -113 275 -213
l-50 -109h-26l-64 37q-76 39 -162 92q-86 -53 -161 -92l-64 -37h-26l-52 109q142 94 275 213zM1026 1999q0 -49 -24.5 -85t-86.5 -87l46 -76l-95 -55l-82 129q102 74 103 137q0 45 -59.5 45t-118.5 -49l-45 70q92 98 204 98q68 0 113 -39t45 -88z" />
    <glyph glyph-name="ocircumflexhookabove" unicode="&#x1ed5;" horiz-adv-x="1146" 
d="M336 553.5q0 -151.5 23.5 -228.5t75.5 -110t140 -33q129 0 183.5 67.5t54.5 220t-24.5 229.5t-75.5 110t-160 33t-163 -68.5t-54 -220zM1081 528.5q0 -255.5 -137 -401t-379.5 -145.5t-369.5 136t-127 391t137 398.5t379.5 143.5t369.5 -133.5t127 -389zM547 1487h55
q127 -113 275 -213l-50 -109h-26l-64 37q-76 39 -162 92q-86 -53 -161 -92l-64 -37h-26l-52 109q142 94 275 213zM942 1714q0 -49 -24.5 -85t-86.5 -87l46 -76l-95 -55l-82 129q102 74 103 137q0 45 -59 45t-119 -49l-45 70q92 98 204 98q68 0 113 -39t45 -88z" />
    <glyph glyph-name="Ocircumflextilde" unicode="&#x1ed6;" horiz-adv-x="1316" 
d="M346 663.5q0 -245.5 73 -357t237.5 -111.5t239.5 102t75 349t-74 356.5t-239.5 109.5t-238.5 -101.5t-73 -347zM1260 673.5q0 -325.5 -162 -509.5t-451 -184t-439.5 173t-150.5 498.5t163 505.5t450.5 180t438.5 -169t151 -494.5zM631 1772h55q127 -113 275 -213
l-50 -109h-26l-64 37q-76 39 -162 92q-86 -53 -161 -92l-64 -37h-26l-52 109q142 94 275 213zM554 1882q-23 0 -44 -17.5t-42.5 -43t-33.5 -39.5h-22l-76 76v22l133 172l25 8q35 -4 150.5 -36t139.5 -31q44 0 119 100h23l73 -76v-22l-133 -172l-22 -11q-51 8 -159 39
t-131 31z" />
    <glyph glyph-name="ocircumflextilde" unicode="&#x1ed7;" horiz-adv-x="1146" 
d="M336 553.5q0 -151.5 23.5 -228.5t75.5 -110t140 -33q129 0 183.5 67.5t54.5 220t-24.5 229.5t-75.5 110t-160 33t-163 -68.5t-54 -220zM1081 528.5q0 -255.5 -137 -401t-379.5 -145.5t-369.5 136t-127 391t137 398.5t379.5 143.5t369.5 -133.5t127 -389zM547 1487h55
q127 -113 275 -213l-50 -109h-26l-64 37q-76 39 -162 92q-86 -53 -161 -92l-64 -37h-26l-52 109q142 94 275 213zM700 1708q44 0 119 100h23l73 -75v-23l-133 -172l-22 -10q-51 8 -157.5 38.5t-131 30.5t-45 -17t-42.5 -43t-34 -40h-22l-76 76v22l133 172l25 9
q35 -4 149 -36t141 -32z" />
    <glyph glyph-name="Ocircumflexdotbelow" unicode="&#x1ed8;" horiz-adv-x="1316" 
d="M805 -248q0 -68 -39 -108.5t-106.5 -40.5t-103.5 36.5t-36 104.5t40 109t106.5 41t102.5 -37t36 -105zM346 663.5q0 -245.5 73 -357t237.5 -111.5t239.5 102t75 349t-74 356.5t-239.5 109.5t-238.5 -101.5t-73 -347zM1260 673.5q0 -325.5 -162 -509.5t-451 -184
t-439.5 173t-150.5 498.5t163 505.5t450.5 180t438.5 -169t151 -494.5zM643 1804h55q127 -113 275 -213l-49 -108h-27l-63 37q-76 39 -162 92q-86 -53 -162 -92l-64 -37h-26l-51 108q141 94 274 213z" />
    <glyph glyph-name="ocircumflexdotbelow" unicode="&#x1ed9;" horiz-adv-x="1146" 
d="M719 -248q0 -68 -39 -108.5t-106.5 -40.5t-103.5 36.5t-36 104.5t40 109t106.5 41t102.5 -37t36 -105zM336 553.5q0 -151.5 23.5 -228.5t75.5 -110t140 -33q129 0 183.5 67.5t54.5 220t-24.5 229.5t-75.5 110t-160 33t-163 -68.5t-54 -220zM1081 528.5
q0 -255.5 -137 -401t-379.5 -145.5t-369.5 136t-127 391t137 398.5t379.5 143.5t369.5 -133.5t127 -389zM549 1552h59q160 -176 287 -288l-68 -105h-26q-135 106 -223 189q-80 -76 -222 -189h-26l-70 105q117 106 289 288z" />
    <glyph glyph-name="Ohornacute" unicode="&#x1eda;" horiz-adv-x="1331" 
d="M346 662q0 -246 74 -357t240 -111t238 105q72 104 73 350q0 246 -74 355q-73 108 -239 108t-239 -102t-73 -348zM1354 1388q0 -91 -68 -158t-172 -81q148 -169 148 -483t-164 -500t-451 -186t-439 173t-151 488q0 219 74 376t209 239t319 81q106 0 212 -33
q106 -32 154 -32t82 30t34 92t-64 122l6 20q69 53 129 53t101 -55t41 -146zM965 1653l-9 -25q-188 -74 -440 -160l-27 9l-45 112q248 125 426 232l25 -6z" />
    <glyph glyph-name="ohornacute" unicode="&#x1edb;" horiz-adv-x="1159" 
d="M813 505q0 185 -56 262q-57 77 -187 77t-182 -72t-52 -256t56 -262t186 -78t182 72q53 72 53 257zM1038 1251q53 0 90 -45q37 -46 37 -120t-53 -130t-139 -75q109 -129 108 -346q0 -257 -138 -405t-380 -148q-243 0 -369 136t-126 390t136 398t374 145q84 -1 180 -23
t119 -22q92 0 92 75q0 57 -54 105l7 18q63 47 116 47zM864 1368l-8 -25q-188 -74 -440 -159l-27 8l-45 113q248 125 426 231l25 -6z" />
    <glyph glyph-name="Ohorngrave" unicode="&#x1edc;" horiz-adv-x="1331" 
d="M346 661.5q0 -245.5 74 -356t240 -110.5t238.5 104t72.5 350t-74 354.5t-241 108.5t-238.5 -102.5t-71.5 -348zM1354 1388q0 -91 -67.5 -158t-172.5 -81q145 -170 145.5 -484.5t-162.5 -499.5t-451 -185t-438.5 173t-150.5 488q0 221 74 378t209 237.5t319 80.5
q106 0 212 -33t154 -32.5t82 30t34 92t-64 122.5l4 20q72 53 130.5 53t100.5 -55t42 -146zM926 1591l-45 -112l-27 -9q-252 86 -440 160l-8 25l69 162l25 6q178 -107 426 -232z" />
    <glyph glyph-name="ohorngrave" unicode="&#x1edd;" horiz-adv-x="1159" 
d="M813 504.5q0 185.5 -56.5 262.5t-186.5 77t-182 -72t-52 -256t56.5 -262t185.5 -78t182 71.5t53 257zM1040.5 1251q51.5 0 89 -45t37.5 -119.5t-53 -131t-139 -74.5q106 -131 106 -346q0 -260 -137 -406.5t-380 -146.5t-369.5 136t-126.5 390t137 398.5t373 144.5
q84 0 180 -22.5t121 -22.5q90 0 90 75q0 61 -54 105l7 18q67 47 118.5 47zM823 1307l-45 -113l-26 -8q-252 86 -441 160l-8 24l70 162l24 6q178 -106 426 -231z" />
    <glyph glyph-name="Ohornhookabove" unicode="&#x1ede;" horiz-adv-x="1331" 
d="M346 662q0 -246 74 -357t240 -111t238 105q72 104 73 350q0 246 -74 355q-73 108 -239 108t-239 -102t-73 -348zM1354 1388q0 -91 -68 -158t-172 -81q148 -169 148 -483t-164 -500t-451 -186t-439 173t-151 488q0 219 74 376t209 239t319 81q106 0 212 -33
q106 -32 154 -32t82 30t34 92t-64 122l6 20q69 53 129 53t101 -55t41 -146zM596 1755q-62 0 -125 -51l-45 74q100 104 215 104q70 0 117 -41t47 -93t-25 -89t-88 -92l47 -80l-100 -57l-86 135q108 82 106 145q-1 45 -63 45z" />
    <glyph glyph-name="ohornhookabove" unicode="&#x1edf;" horiz-adv-x="1159" 
d="M813 505q0 185 -56 262q-57 77 -187 77t-182 -72t-52 -256t56 -262t186 -78t182 72q53 72 53 257zM1038 1251q53 0 90 -45q37 -46 37 -120t-53 -130t-139 -75q109 -129 108 -346q0 -257 -138 -405t-380 -148q-243 0 -369 136t-126 390t136 398t374 145q84 -1 180 -23
t119 -22q92 0 92 75q0 57 -54 105l7 18q63 47 116 47zM559 1427q-1 45 -63 45t-125 -51l-45 74q100 104 215 104q69 1 116 -40t47 -93t-24 -90q-25 -37 -88 -92l47 -80l-100 -57l-86 135q106 80 106 145z" />
    <glyph glyph-name="Ohorntilde" unicode="&#x1ee0;" horiz-adv-x="1331" 
d="M346 662q0 -246 74 -357t240 -111t238 105q72 104 73 350q0 246 -74 355q-73 108 -239 108t-239 -102t-73 -348zM1354 1388q0 -91 -68 -158t-172 -81q148 -169 148 -483t-164 -500t-451 -186t-439 173t-151 488q0 219 74 376t209 239t319 81q106 0 212 -33
q106 -32 154 -32t82 30t34 92t-64 122l6 20q69 53 129 53t101 -55t41 -146zM532 1579q-44 0 -126 -104h-25l-82 79v23l145 182l25 10q49 -7 169 -39t152 -32t91 67q25 27 32 37h25l80 -80v-22l-144 -182l-26 -11q-55 6 -174 39t-142 33z" />
    <glyph glyph-name="ohorntilde" unicode="&#x1ee1;" horiz-adv-x="1159" 
d="M813 505q0 185 -56 262q-57 77 -187 77t-182 -72t-52 -256t56 -262t186 -78t182 72q53 72 53 257zM1038 1251q53 0 90 -45q37 -46 37 -120t-53 -130t-139 -75q109 -129 108 -346q0 -257 -138 -405t-380 -148q-243 0 -369 136t-126 390t136 398t374 145q84 -1 180 -23
t119 -22q92 0 92 75q0 57 -54 105l7 18q63 47 116 47zM684 1413q45 0 129 105h25l80 -80v-23l-144 -182l-26 -10q-55 6 -174 39q-119 32 -142 32q-38 -1 -127 -104h-24l-82 80v22l145 183l25 10q49 -6 169 -39t146 -33z" />
    <glyph glyph-name="Ohorndotbelow" unicode="&#x1ee2;" horiz-adv-x="1331" 
d="M805 -248q0 -68 -39 -108.5t-106.5 -40.5t-103.5 36.5t-36 104.5t40 109t106.5 41t102.5 -37t36 -105zM346 661.5q0 -245.5 74 -356t240 -110.5t238.5 104t72.5 350t-74 354.5t-241 108.5t-238.5 -102.5t-71.5 -348zM1354 1388q0 -91 -67.5 -158t-172.5 -81
q145 -170 145.5 -484.5t-162.5 -499.5t-451 -185t-438.5 173t-150.5 488q0 221 74 378t209 237.5t319 80.5q106 0 212 -33t154 -32.5t82 30t34 92t-64 122.5l4 20q72 53 130.5 53t100.5 -55t42 -146z" />
    <glyph glyph-name="ohorndotbelow" unicode="&#x1ee3;" horiz-adv-x="1159" 
d="M719 -248q0 -68 -39 -108.5t-106.5 -40.5t-103.5 36.5t-36 104.5t40 109t106.5 41t102.5 -37t36 -105zM813 504.5q0 185.5 -56.5 262.5t-186.5 77t-182 -72t-52 -256t56.5 -262t185.5 -78t182 71.5t53 257zM1040.5 1251q51.5 0 89 -45t37.5 -119.5t-53 -131t-139 -74.5
q106 -131 106 -346q0 -260 -137 -406.5t-380 -146.5t-369.5 136t-126.5 390t137 398.5t373 144.5q84 0 180 -22.5t121 -22.5q90 0 90 75q0 61 -54 105l7 18q67 47 118.5 47z" />
    <glyph glyph-name="Udotbelow" unicode="&#x1ee4;" horiz-adv-x="1306" 
d="M791 -248q0 -68 -39 -108.5t-106.5 -40.5t-103.5 36.5t-36 104.5t40 109t106.5 41t102.5 -37t36 -105zM642 -18q-255 0 -386 124.5t-127 358.5l4 190l-6 664h279l-15 -817q-2 -293 262.5 -293t261.5 278l-12 832h281l-10 -844q2 -236 -137.5 -364.5t-394.5 -128.5z" />
    <glyph glyph-name="udotbelow" unicode="&#x1ee5;" horiz-adv-x="1140" 
d="M713 -248q0 -68 -39 -108.5t-106.5 -40.5t-103.5 36.5t-36 104.5t40 109t106.5 41t102.5 -37t36 -105zM560 -16q-216 0 -327.5 95t-107.5 271l4 162l-6 522h258l-14 -647q-2 -195 201.5 -194.5t201.5 194.5l-10 647h262l-10 -526v-158q2 -176 -117 -271t-335 -95z" />
    <glyph glyph-name="Uhookabove" unicode="&#x1ee6;" horiz-adv-x="1306" 
d="M642 -18q-255 0 -386 124t-125 359l2 190l-6 664h279l-15 -817q-2 -293 263 -293t264 278l-15 832h283l-10 -670l-2 -174q2 -237 -138 -365t-394 -128zM594 1755q-62 0 -125 -51l-45 74q100 104 215 104q70 0 117 -41t47 -93t-25 -89t-88 -92l47 -80l-100 -57l-86 135
q108 82 106 145q-1 45 -63 45z" />
    <glyph glyph-name="uhookabove" unicode="&#x1ee7;" horiz-adv-x="1140" 
d="M562 -16q-216 0 -329 95t-106 271l2 162l-6 522h258l-12 -647q-3 -195 201 -195t202 195l-10 647h260l-8 -526l-2 -158q2 -176 -116 -271t-334 -95zM717 1466q0 -52 -25 -90q-25 -37 -88 -92l47 -80l-100 -57l-86 135q108 82 106 145q-1 45 -63 45t-125 -51l-45 74
q100 104 215 104q70 1 117 -40t47 -93z" />
    <glyph glyph-name="Uhornacute" unicode="&#x1ee8;" horiz-adv-x="1327" 
d="M642 -18q-255 0 -386 124t-127 359l4 190l-6 664h279l-15 -817q-2 -293 262 -293t262 278l-12 832h131q127 0 127 100q0 66 -65 123l6 21q72 53 129 53t99 -50t42 -125t-51 -137t-139 -96l-6 -559l-2 -174q2 -237 -138 -365t-394 -128zM963 1653l-9 -25
q-188 -74 -440 -160l-27 9l-45 112q248 125 426 232l25 -6z" />
    <glyph glyph-name="uhornacute" unicode="&#x1ee9;" horiz-adv-x="1159" 
d="M555 -16q-215 0 -328 95t-106 271l2 162l-6 522h258l-13 -647q-2 -100 48 -147t153 -47q203 0 201 194l-10 647h129q100 0 100 78q0 57 -51 96l6 19q68 49 120 49t88 -41t36 -103t-45 -116q-45 -53 -123 -82l-8 -426v-158q2 -176 -117 -271t-334 -95zM856 1368l-8 -25
q-188 -74 -440 -159l-27 8l-45 113q248 125 426 231l24 -6z" />
    <glyph glyph-name="Uhorngrave" unicode="&#x1eea;" horiz-adv-x="1327" 
d="M642 -18q-255 0 -386 124.5t-127 358.5l4 190l-6 664h279l-15 -817q-2 -293 262.5 -293t261.5 278l-12 832h131q127 0 127 100q0 66 -65 123l6 21q72 53 129 53t99 -50t42 -125t-51 -137.5t-139 -95.5l-6 -559l-2 -174q2 -236 -137.5 -364.5t-394.5 -128.5zM412 1630
l-9 25l70 162l25 6q178 -106 426 -232l-45 -112l-27 -9q-252 86 -440 160z" />
    <glyph glyph-name="uhorngrave" unicode="&#x1eeb;" horiz-adv-x="1159" 
d="M555 -16q-215 0 -327.5 95t-106.5 271l2 162l-6 522h258l-13 -647q-2 -100 47.5 -147t153.5 -47q203 0 201 194l-10 647h129q100 0 100 78q0 57 -51 96l6 19q68 49 120 49t88 -41t36 -103.5t-45 -115.5t-123 -82l-8 -426v-158q2 -176 -117 -271t-334 -95zM305 1346l-8 24
l70 162l24 6q178 -106 426 -231l-45 -113l-27 -8q-252 86 -440 160z" />
    <glyph glyph-name="Uhornhookabove" unicode="&#x1eec;" horiz-adv-x="1327" 
d="M642 -18q-255 0 -386 124t-127 359l4 190l-6 664h279l-15 -817q-2 -293 262 -293t262 278l-12 832h131q127 0 127 100q0 66 -65 123l6 21q72 53 129 53t99 -50t42 -125t-51 -137t-139 -96l-6 -559l-2 -174q2 -237 -138 -365t-394 -128zM594 1757q-62 0 -125 -51l-45 74
q100 104 215 104q70 0 117 -41t47 -93t-25 -89t-88 -92l47 -80l-100 -57l-86 135q108 82 106 145q-1 45 -63 45z" />
    <glyph glyph-name="uhornhookabove" unicode="&#x1eed;" horiz-adv-x="1159" 
d="M555 -16q-215 0 -328 95t-106 271l2 162l-6 522h258l-13 -647q-2 -100 48 -147t153 -47q203 0 201 194l-10 647h129q100 0 100 78q0 57 -51 96l6 19q68 49 120 49t88 -41t36 -103t-45 -116q-45 -53 -123 -82l-8 -426v-158q2 -176 -117 -271t-334 -95zM551 1427
q-1 45 -63 45t-126 -51l-45 74q100 104 215 104q70 1 117 -40t47 -93t-24 -90q-24 -37 -88 -92l47 -80l-101 -57l-86 135q107 81 107 145z" />
    <glyph glyph-name="Uhorntilde" unicode="&#x1eee;" horiz-adv-x="1327" 
d="M642 -18q-255 0 -386 124t-127 359l4 190l-6 664h279l-15 -817q-2 -293 262 -293t262 278l-12 832h131q127 0 127 100q0 66 -65 123l6 21q72 53 129 53t99 -50t42 -125t-51 -137t-139 -96l-6 -559l-2 -174q2 -237 -138 -365t-394 -128zM528 1579q-38 0 -127 -104h-24
l-82 79v23l145 182l25 10q49 -7 169 -39t146 -32t64 33q39 33 65 71h25l80 -80v-22l-144 -182l-26 -11q-55 6 -174 39t-142 33z" />
    <glyph glyph-name="uhorntilde" unicode="&#x1eef;" horiz-adv-x="1159" 
d="M555 -16q-215 0 -328 95t-106 271l2 162l-6 522h258l-13 -647q-2 -100 48 -147t153 -47q203 0 201 194l-10 647h129q100 0 100 78q0 57 -51 96l6 19q68 49 120 49t88 -41t36 -103t-45 -116q-45 -53 -123 -82l-8 -426v-158q2 -176 -117 -271t-334 -95zM674 1413
q45 0 129 105h24l80 -80v-23l-143 -182l-27 -10q-55 6 -174 39q-119 32 -141 32q-38 -1 -127 -104h-25l-82 80v22l146 183l24 10q49 -6 169 -39t147 -33z" />
    <glyph glyph-name="Uhorndotbelow" unicode="&#x1ef0;" horiz-adv-x="1327" 
d="M795 -248q0 -68 -39 -108.5t-106.5 -40.5t-103.5 36.5t-36 104.5t40 109t106.5 41t102.5 -37t36 -105zM642 -18q-255 0 -386 124.5t-127 358.5l4 190l-6 664h279l-15 -817q-2 -293 262.5 -293t261.5 278l-12 832h131q127 0 127 100q0 66 -65 123l6 21q72 53 129 53
t99 -50t42 -125t-51 -137.5t-139 -95.5l-6 -559l-2 -174q2 -236 -137.5 -364.5t-394.5 -128.5z" />
    <glyph glyph-name="uhorndotbelow" unicode="&#x1ef1;" horiz-adv-x="1159" 
d="M715 -248q0 -68 -39 -108.5t-106.5 -40.5t-103.5 36.5t-36 104.5t40 109t106.5 41t102.5 -37t36 -105zM555 -16q-215 0 -327.5 95t-106.5 271l2 162l-6 522h258l-13 -647q-2 -100 47.5 -147t153.5 -47q203 0 201 194l-10 647h129q100 0 100 78q0 57 -51 96l6 19
q68 49 120 49t88 -41t36 -103.5t-45 -115.5t-123 -82l-8 -426v-158q2 -176 -117 -271t-334 -95z" />
    <glyph glyph-name="Ygrave" unicode="&#x1ef2;" horiz-adv-x="1142" 
d="M694 0h-278l16 367l-2 73l-422 879h293l31 -92l223 -502h18l250 494l37 100h287l-461 -870l-4 -82zM317 1630l-8 25l70 162l24 6q178 -106 426 -232l-45 -112l-26 -9q-253 86 -441 160z" />
    <glyph glyph-name="ygrave" unicode="&#x1ef3;" horiz-adv-x="1017" 
d="M623 0h-258l12 281l-2 49l-350 704h272l25 -76l172 -362h16l190 352l35 86h266l-389 -698l-2 -55zM676 1147q-201 113 -400 242l-4 26l99 148l26 2q133 -123 371 -314l-66 -102z" />
    <glyph glyph-name="Ydotbelow" unicode="&#x1ef4;" horiz-adv-x="1142" 
d="M696 -248q0 -68 -39 -108.5t-106.5 -40.5t-103 36.5t-35.5 104.5t40 109t106.5 41t102 -37t35.5 -105zM8 1319h293l31 -92l223 -502h18l250 494l37 100h287l-461 -870l-4 -82l12 -367h-278l16 367l-2 73z" />
    <glyph glyph-name="ydotbelow" unicode="&#x1ef5;" horiz-adv-x="1017" 
d="M635 -248q0 -68 -39 -108.5t-106.5 -40.5t-103.5 36.5t-36 104.5t40 109t106.5 41t102.5 -37t36 -105zM25 1034h272l25 -76l172 -362h16l190 352l35 86h266l-389 -698l-2 -55l13 -281h-258l12 281l-2 49z" />
    <glyph glyph-name="Yhookabove" unicode="&#x1ef6;" horiz-adv-x="1142" 
d="M694 0h-278l16 367l-4 77l-420 875h295l29 -92l223 -502h20l248 494l39 100h287l-463 -870l-4 -82zM502 1755q-62 0 -125 -51l-45 74q100 104 215 104q70 0 117 -41t47 -93t-25 -89t-88 -92l47 -80l-100 -57l-86 135q108 82 106 145q-1 45 -63 45z" />
    <glyph glyph-name="yhookabove" unicode="&#x1ef7;" horiz-adv-x="1017" 
d="M623 0h-258l12 281l-2 47l-350 706h272l25 -76l172 -362h16l192 352l33 86h266l-387 -696l-2 -57zM414 1282q108 82 106 145q0 45 -62 45t-126 -51l-45 74q100 104 215 104q69 1 116 -40q48 -41 48 -93t-25 -90q-25 -37 -88 -92l47 -80l-100 -57z" />
    <glyph glyph-name="endash" unicode="&#x2013;" horiz-adv-x="954" 
d="M973 436h-985l-19 19l15 166h983l18 -21z" />
    <glyph glyph-name="emdash" unicode="&#x2014;" horiz-adv-x="1820" 
d="M1843 436h-1861l-17 19l12 166h1860l18 -21z" />
    <glyph glyph-name="quoteleft" unicode="&#x2018;" horiz-adv-x="423" 
d="M68 993q0 156 188 336l94 -61l4 -21q-82 -90 -82 -180t82 -139v-23q-86 -66 -170 -104q-116 63 -116 192z" />
    <glyph glyph-name="quoteright" unicode="&#x2019;" horiz-adv-x="423" 
d="M358 1139q0 -156 -188 -336l-94 61l-4 21q82 90 82 180t-82 139v23q86 66 170 104q116 -63 116 -192z" />
    <glyph glyph-name="quotesinglbase" unicode="&#x201a;" horiz-adv-x="468" 
d="M377 94q0 -178 -248 -354l-88 78l-2 20q113 94 113 201q0 70 -66 123l2 22q94 57 197 86q92 -74 92 -176z" />
    <glyph glyph-name="quotedblleft" unicode="&#x201c;" horiz-adv-x="751" 
d="M401 995q0 156 189 336l94 -61l4 -21q-82 -90 -82 -180t82 -139v-23q-86 -66 -170 -104q-117 63 -117 192zM61 995q0 156 189 336l94 -61l4 -21q-82 -90 -82 -180t82 -139v-23q-86 -66 -170 -104q-117 63 -117 192z" />
    <glyph glyph-name="quotedblright" unicode="&#x201d;" horiz-adv-x="747" 
d="M680 1139q0 -156 -188 -336l-95 61l-4 21q82 90 82 180t-82 139v23q86 66 170 104q117 -63 117 -192zM356 1139q0 -156 -188 -336l-94 61l-4 21q82 90 82 180t-82 139v23q86 66 170 104q116 -63 116 -192z" />
    <glyph glyph-name="quotedblbase" unicode="&#x201e;" horiz-adv-x="806" 
d="M713 94q0 -178 -248 -354l-88 78l-2 20q113 94 112 201q0 70 -65 123l2 22q94 57 197 86q92 -74 92 -176zM377 94q0 -178 -248 -354l-88 78l-2 20q113 94 113 201q0 70 -66 123l2 22q94 57 197 86q92 -74 92 -176z" />
    <glyph glyph-name="dagger" unicode="&#x2020;" horiz-adv-x="1028" 
d="M602 662v-842l-168 -13l-18 21v834h-318l-16 18l14 164h320l2 354l172 12l16 -14l-2 -352h324l20 -19l-14 -163h-332z" />
    <glyph glyph-name="daggerdbl" unicode="&#x2021;" horiz-adv-x="1028" 
d="M602 141v-321l-168 -13l-18 21v313h-318l-16 19l14 164h320v360h-318l-16 18l14 164h320l2 332l172 12l16 -14l-2 -330h324l20 -18l-14 -164h-332v-360h326l20 -21l-14 -162h-332z" />
    <glyph glyph-name="bullet" unicode="&#x2022;" horiz-adv-x="567" 
d="M277 402q-84 0 -129 46t-44 130q0 84 50 134t132 51q82 0 127 -46q45 -45 45 -129t-49 -135q-48 -51 -132 -51z" />
    <glyph glyph-name="onedotenleader" unicode="&#x2024;" horiz-adv-x="468" 
d="M375 135q0 -69 -39 -109t-107 -40q-67 0 -103 37t-36 105t40 108q40 41 106 41t103 -37q36 -37 36 -105z" />
    <glyph glyph-name="twodotenleader" unicode="&#x2025;" horiz-adv-x="880" 
d="M776 135q0 -69 -39 -109t-107 -40t-103 37t-35 105t39 108q41 41 107 41t102 -37t36 -105zM367 135q0 -69 -39 -109t-107 -40q-67 0 -103 37t-36 105t40 108q40 41 106 41t103 -37q36 -37 36 -105z" />
    <glyph glyph-name="ellipsis" unicode="&#x2026;" horiz-adv-x="1292" 
d="M776 135q0 -69 -39 -109t-107 -40t-103 37t-35 105t39 108q41 41 107 41t102 -37t36 -105zM1188 135q0 -69 -39 -109t-107 -40t-104 37t-35 105q0 68 40 108q41 41 107 41t102 -37t36 -105zM367 135q0 -69 -39 -109t-107 -40q-67 0 -103 37t-36 105t40 108q40 41 106 41
t103 -37q36 -37 36 -105z" />
    <glyph glyph-name="perthousand" unicode="&#x2030;" horiz-adv-x="2516" 
d="M1985 360q0 -207 147 -206q150 0 149 196q0 104 -36.5 153.5t-113.5 49.5t-111.5 -46t-34.5 -147zM1217 360q0 -207 147 -206q150 0 149 196q0 104 -36.5 153.5t-113.5 49.5t-111.5 -46t-34.5 -147zM2126 -12q-314 0 -314 365q0 181 87 280.5t241 99.5t232.5 -93
t78.5 -273t-84.5 -279.5t-240.5 -99.5zM1374 733q310 0 309 -366q0 -180 -84.5 -279.5t-240.5 -99.5q-314 0 -314 365q0 181 88 280.5t242 99.5zM236 958q0 -207 147 -206q150 0 149 196q0 104 -36.5 153.5t-113.5 49.5t-111.5 -46t-34.5 -147zM392 1331q310 0 310 -366
q0 -180 -85 -279.5t-241 -99.5q-314 0 -313 365q0 181 87.5 280.5t241.5 99.5zM1380 1298l-954 -1486l-117 69l-12 29l956 1495l111 -68z" />
    <glyph glyph-name="minute" unicode="&#x2032;" horiz-adv-x="419" 
d="M266 846l-127 -19l-22 19l-4 454l211 15l14 -19z" />
    <glyph glyph-name="second" unicode="&#x2033;" horiz-adv-x="733" 
d="M580 846l-127 -19l-23 19l-4 454l211 15l14 -19zM266 846l-127 -19l-22 19l-4 454l211 15l14 -19z" />
    <glyph glyph-name="guilsinglleft" unicode="&#x2039;" horiz-adv-x="499" 
d="M45 483l279 365l129 -68l4 -26l-213 -289l213 -287l-4 -26l-129 -70l-279 356v45z" />
    <glyph glyph-name="guilsinglright" unicode="&#x203a;" horiz-adv-x="503" 
d="M463 453l-279 -365l-129 68l-4 26l213 289l-213 287l4 26l129 70l279 -356v-45z" />
    <glyph glyph-name="fraction" unicode="&#x2044;" horiz-adv-x="212" 
d="M612 1298l-954 -1486l-117 69l-12 29l958 1495l111 -68z" />
    <glyph glyph-name="zerosuperior" unicode="&#x2070;" horiz-adv-x="768" 
d="M383 815q150 0 149 215q0 115 -36 168q-37 53 -114 53t-112 -50q-34 -50 -34 -163t36 -168t111 -55zM392 1448q310 0 310 -399q0 -197 -85 -306t-241 -109t-234 102q-79 101 -79 298q-1 198 87 306t242 108z" />
    <glyph glyph-name="foursuperior" unicode="&#x2074;" horiz-adv-x="751" 
d="M401 983l-2 221h-12l-158 -221h172zM578 821l10 -162l-13 -14l-169 -8l-13 10l4 176h-207l-135 -6l-14 19v133l338 467h201l-7 -453h111l12 -18l-10 -148z" />
    <glyph glyph-name="fivesuperior" unicode="&#x2075;" horiz-adv-x="655" 
d="M221 633q-84 0 -166 16l-12 148l14 16q80 -23 159 -23q159 1 159 101q0 37 -27 59t-88 33l-143 25l-13 16l2 389l23 25l84 -2h217l148 6l12 -12l-21 -158l-14 -15l-133 15h-148l-2 -121l86 -21q117 -26 172 -78t56 -141q0 -127 -100 -203t-265 -75z" />
    <glyph glyph-name="sixsuperior" unicode="&#x2076;" horiz-adv-x="716" 
d="M360 766q105 0 105 114t-105 113q-49 0 -106 -26v-27q0 -88 24 -131t82 -43zM360 633q-144 0 -225 81q-80 80 -80 232q-1 152 105 284t299 218h12l137 -92v-21q-135 -51 -209 -100t-108 -115l10 -12q61 31 123 31q113 0 175 -69q63 -70 63 -176t-79 -184t-223 -77z" />
    <glyph glyph-name="sevensuperior" unicode="&#x2077;" horiz-adv-x="636" 
d="M516 1436l72 2v-154l-207 -436l-86 -217l-176 45l-13 33l269 553h-193l-137 -13l-12 19l16 172l170 -4h297z" />
    <glyph glyph-name="eightsuperior" unicode="&#x2078;" horiz-adv-x="737" 
d="M252 864q0 -42 30 -68t85 -26t86 25t31 63t-33 63q-33 24 -101 48q-98 -31 -98 -105zM276 1225q0 -39 29 -63t86 -48q76 51 76 111q0 37 -26 59t-68 21q-97 0 -97 -80zM639 1240q0 -100 -123 -171v-10q68 -33 106 -75t37 -112q0 -113 -84 -176t-221 -63t-210 55t-72 148
q0 127 155 186v8q-133 68 -133 180t81 174t205 62t192 -53q67 -53 67 -153z" />
    <glyph glyph-name="ninesuperior" unicode="&#x2079;" horiz-adv-x="718" 
d="M467 1139q0 90 -24 133t-83 43q-106 0 -106 -114t106 -114q56 0 107 29v23zM666 1134q0 -152 -106 -285q-106 -132 -300 -216h-12l-135 90v20q133 49 208 99t109 116l-10 13q-57 -29 -125 -29q-109 0 -173 69t-65 175q0 106 80 184q81 80 225 80t224 -82t80 -234z" />
    <glyph glyph-name="franc" unicode="&#x20a3;" horiz-adv-x="831" 
d="M166 285v22l-10 723h673l15 -18l-17 -164l-270 8h-172l-6 -258h164l196 4l13 -18l-15 -164l-213 4h-147l-2 -96l2 -43h227l10 -15l-8 -94h-227l6 -176h-229l6 176h-123l-8 12l6 97h129z" />
    <glyph glyph-name="Euro" unicode="&#x20ac;" horiz-adv-x="956" 
d="M641 -14q-408 0 -479 344h-142l-8 14l8 123h705l12 -14l-10 -123h-287q55 -137 215 -137q120 0 226 53l22 -13l-20 -200q-109 -47 -242 -47zM659 1049q135 0 267 -56l-43 -202l-21 -11q-96 59 -213 60q-170 0 -215 -150h291l12 -12l-10 -125h-707l-8 16l8 121h146
q45 172 172 265.5t321 93.5z" />
    <glyph glyph-name="uni2113" unicode="&#x2113;" horiz-adv-x="794" 
d="M750 0h-609l13 307l-13 727h262l-14 -702l4 -121h359l14 -18z" />
    <glyph glyph-name="trademark" unicode="&#x2122;" horiz-adv-x="1208" 
d="M987 829l-6 146l-14 139h-9l-100 -240h-106l-88 240h-9l-14 -125l-10 -160h-117l53 486h160l18 -70l64 -190h8l70 186l20 74h158l43 -486h-121zM449 1305l-7 -99l-102 4h-25l-4 -225l6 -156h-135l6 144l-2 237h-24l-105 -4l-8 11l8 98h385z" />
    <glyph glyph-name="Ohm" unicode="&#x2126;" horiz-adv-x="1544" 
d="M768 1114q-160 0 -236 -99t-75 -278q0 -336 237 -555v-176l-12 -10l-78 4h-336l-202 -8l-15 18l31 213l188 -16l125 2l4 8q-233 233 -233 535q0 166 72 299t211 210t333 77t328 -74q133 -74 200 -201t66 -289q0 -314 -235 -557l4 -8h160l172 16l14 -16l-31 -221l-235 12
h-289l-78 -4l-12 10v176q240 213 239 545q0 182 -78 285q-79 102 -239 102z" />
    <glyph glyph-name="estimated" unicode="&#x212e;" horiz-adv-x="1613" 
d="M346 1049v-359q0 -12 14 -12h938q12 0 13 12v367q0 25 -23 47q-190 186 -461 186q-270 0 -458 -192q-23 -18 -23 -49zM1579 653v-14h-1219q-14 0 -14 -10v-371q0 -20 21 -45q88 -90 208.5 -142.5t260.5 -52.5t270.5 58.5t222.5 161.5h92q-104 -121 -259.5 -191
t-346.5 -70t-363.5 91.5t-274 246t-101.5 339t101.5 340t274 246.5t376.5 91t376 -91t273.5 -246.5t101.5 -340.5z" />
    <glyph glyph-name="oneeighth" unicode="&#x215b;" horiz-adv-x="1556" 
d="M1069 219q0 -43 29.5 -68.5t85 -25.5t86 24.5t30.5 63.5t-32.5 62.5t-100.5 48.5q-98 -31 -98 -105zM1094 580q0 -39 28.5 -62.5t85.5 -48.5q76 51 76 111q0 37 -25.5 58t-68.5 21q-96 1 -96 -79zM1456 594q0 -100 -123 -170v-10q68 -33 106 -75t38 -112
q0 -113 -83.5 -176t-221.5 -63t-210.5 55t-72.5 147q0 127 155 187v8q-133 68 -133 180t81 174t206 62t191.5 -53.5t66.5 -153.5zM401 813l9 -283h-222l9 258v306l-162 -37l-15 10v170l361 94l31 -22zM1217 1298l-955 -1486l-117 69l-12 29l959 1495l110 -68z" />
    <glyph glyph-name="threeeighths" unicode="&#x215c;" horiz-adv-x="1634" 
d="M1147 219q0 -43 29.5 -68.5t85 -25.5t86 24.5t30.5 63.5t-32.5 62.5t-100.5 48.5q-98 -31 -98 -105zM1171 580q0 -39 29 -62.5t86 -48.5q76 51 76 111q0 37 -25.5 58t-68.5 21q-97 1 -97 -79zM1534 594q0 -100 -123 -170v-10q68 -33 105.5 -75t37.5 -112q0 -113 -84 -176
t-221 -63t-209.5 55t-72.5 147q0 127 155 187v8q-133 68 -133 180t81 174t206 62t191.5 -53.5t66.5 -153.5zM567 1141q0 -121 -125 -187v-8q147 -43 148 -184q0 -109 -100.5 -176.5t-264.5 -67.5q-80 0 -155 17l-15 151l17 14q80 -23 157 -22q150 0 150 90q0 78 -103 78
h-106l-10 14l2 141l63 3q49 2 85 28.5t36 67.5q0 63 -86 63q-63 0 -160 -51h-22l-33 143q123 76 252 76t199.5 -52t70.5 -138zM1294 1298l-954 -1486l-117 69l-12 29l958 1495l111 -68z" />
    <glyph glyph-name="fiveeighths" unicode="&#x215d;" horiz-adv-x="1597" 
d="M1110 219q0 -43 29.5 -68.5t85 -25.5t86 24.5t30.5 63.5t-32.5 62.5t-100.5 48.5q-98 -31 -98 -105zM1135 580q0 -39 28.5 -62.5t85.5 -48.5q76 51 76 111q0 37 -25.5 58t-68.5 21q-96 1 -96 -79zM1497 594q0 -100 -123 -170v-10q68 -33 106 -75t38 -112q0 -113 -84 -176
t-222 -63t-210 55t-72 147q0 127 155 187v8q-133 68 -133 180t81 174t206 62t191.5 -53.5t66.5 -153.5zM586 797q0 -127 -100.5 -203t-264.5 -76q-84 0 -166 17l-12 147l14 16q80 -22 159 -22q159 1 159 100q0 37 -26.5 58.5t-88.5 33.5l-143 25l-13 16l2 389l23 25l84 -2
h217l148 6l12 -12l-21 -158l-14 -14l-133 14h-148l-2 -121l86 -20q117 -25 172.5 -78t55.5 -141zM1257 1298l-954 -1486l-117 69l-12 29l959 1495l110 -68z" />
    <glyph glyph-name="seveneighths" unicode="&#x215e;" horiz-adv-x="1550" 
d="M1063 219q0 -43 29.5 -68.5t85 -25.5t86 24.5t30.5 63.5t-32.5 62.5t-100.5 48.5q-98 -31 -98 -105zM1087 580q0 -39 29 -62.5t86 -48.5q76 51 76 111q0 37 -25.5 58t-68.5 21q-97 1 -97 -79zM1450 594q0 -100 -123 -170v-10q68 -33 105.5 -75t37.5 -112q0 -113 -83 -176
t-221 -63t-210.5 55t-72.5 147q0 127 155 187v8q-133 68 -133 180t81 174t206 62t191.5 -53.5t66.5 -153.5zM516 1321l72 2v-154l-207 -436l-86 -217l-176 45l-13 33l269 553h-193l-137 -12l-12 18l16 172l170 -4h297zM1210 1298l-954 -1486l-117 69l-12 29l958 1495
l111 -68z" />
    <glyph glyph-name="arrowleft" unicode="&#x2190;" horiz-adv-x="1089" 
d="M49 463v41l404 416l147 -35v-35l-268 -283l684 13l16 -21l-10 -170l-692 12l270 -284v-35l-147 -35z" />
    <glyph glyph-name="arrowup" unicode="&#x2191;" horiz-adv-x="1089" 
d="M524 983h41l416 -403l-35 -148h-35l-282 268l12 -684l-20 -16l-170 10l12 692l-285 -270h-35l-34 148z" />
    <glyph glyph-name="arrowright" unicode="&#x2192;" horiz-adv-x="1089" 
d="M1036 508v-41l-403 -416l-148 35v35l269 282l-684 -12l-17 21l10 170l693 -13l-271 285v35l148 35z" />
    <glyph glyph-name="arrowdown" unicode="&#x2193;" horiz-adv-x="1089" 
d="M565 -14h-41l-415 403l34 148h35l283 -269l-12 684l20 17l170 -11l-12 -692l284 271h35l35 -148z" />
    <glyph glyph-name="arrowupleft" unicode="&#x2196;" horiz-adv-x="1089" 
d="M194 823l29 29l580 9l79 -129l-24 -25l-390 -10l492 -475l-3 -26l-127 -113l-481 498l-10 -392l-24 -25l-129 80z" />
    <glyph glyph-name="arrowupright" unicode="&#x2197;" horiz-adv-x="1089" 
d="M862 860l29 -29l8 -579l-128 -79l-25 24l-10 390l-475 -493l-26 3l-113 128l498 480l-392 11l-25 24l80 129z" />
    <glyph glyph-name="arrowdownright" unicode="&#x2198;" horiz-adv-x="1089" 
d="M889 138l-29 -29l-579 -9l-80 129l25 24l389 11l-492 474l3 27l127 112l481 -498l10 393l25 24l129 -79z" />
    <glyph glyph-name="arrowdownleft" unicode="&#x2199;" horiz-adv-x="1089" 
d="M228 115l-29 28l-9 580l129 79l25 -24l10 -390l475 492l26 -2l113 -128l-499 -481l393 -10l24 -24l-79 -129z" />
    <glyph glyph-name="partialdiff" unicode="&#x2202;" horiz-adv-x="1062" 
d="M750 526q0 53 -2 78q-113 82 -218 82q-219 0 -219 -252q0 -127 54.5 -194.5t158.5 -67.5q226 0 226 354zM1010 543q0 -262 -130 -412.5t-358 -150.5t-347.5 128t-119.5 328q0 125 48.5 228.5t141.5 164t207 59.5t222 -65l20 19q-127 311 -588 467v24l193 137h18
q336 -149 514.5 -382.5t178.5 -544.5z" />
    <glyph glyph-name="increment" unicode="&#x2206;" horiz-adv-x="1228" 
d="M334 213h536l-239 846h-19zM16 0l445 1319h332l403 -1319h-1180z" />
    <glyph glyph-name="product" unicode="&#x220f;" horiz-adv-x="1423" 
d="M1200 418l10 -418h-278l16 393l-12 709h-459l-10 -684l10 -418h-278l14 393l-10 705l-105 -4l-18 22l18 203h1229l19 -23l-19 -202l-117 4z" />
    <glyph glyph-name="summation" unicode="&#x2211;" horiz-adv-x="1054" 
d="M987 1096l-213 12h-377l375 -424v-43l-377 -432h361l239 16l19 -22l-19 -205l-745 2l-189 -4v194l410 474l-405 448v207l921 2l17 -23z" />
    <glyph glyph-name="minus" unicode="&#x2212;" horiz-adv-x="983" 
d="M922 440h-856l-19 19l14 166h857l18 -19z" />
    <glyph glyph-name="divisionslash" unicode="&#x2215;" horiz-adv-x="581" 
d="M203 -236h-189l-16 23l422 1606h184l23 -25z" />
    <glyph glyph-name="bulletoperator" unicode="&#x2219;" horiz-adv-x="567" 
d="M459 508q0 -84 -49.5 -134t-132.5 -50t-128 45t-45 130t49.5 135t132.5 50t128 -46t45 -130z" />
    <glyph glyph-name="radical" unicode="&#x221a;" horiz-adv-x="1030" 
d="M344 0l-207 764h-188l-10 12l8 176h368l11 -12l180 -702h18l389 1198l23 18h182l-481 -1454h-293z" />
    <glyph glyph-name="infinity" unicode="&#x221e;" horiz-adv-x="983" 
d="M726 393q54 0 87 36t33 101t-31 102.5t-89 37.5t-93 -41t-66 -115q33 -59 69 -90t90 -31zM131 540q0 -64 32 -100.5t87 -36.5t92 41t70 117q-63 115 -156 115q-59 0 -92 -36t-33 -100zM737 227q-141 0 -235 156q-88 -156 -254 -156q-127 0 -197.5 83.5t-70.5 227.5
t70.5 226t191.5 82q78 0 133 -39t104 -113q88 152 252 152q125 0 196.5 -86t71.5 -230t-72.5 -223.5t-189.5 -79.5z" />
    <glyph glyph-name="integral" unicode="&#x222b;" horiz-adv-x="604" 
d="M539 1272q-121 0 -123 -131l4 -1030q2 -147 -56.5 -241.5t-205.5 -182.5l-117 114v23q76 61 107.5 122.5t29.5 155.5l-10 996q0 172 104.5 266t294.5 94q82 0 164 -18l-16 -193l-21 -12q-90 37 -155 37z" />
    <glyph glyph-name="approxequal" unicode="&#x2248;" horiz-adv-x="983" 
d="M698 770q27 0 53 20t70 64l29 31h24l72 -88v-25l-168 -190l-24 -11q-58 7 -226 57t-198 50t-59 -25q-28 -25 -89 -90h-26l-72 90v25l168 190l24 11q45 -5 220 -57t202 -52zM698 387q27 -1 53 19t70 65l29 31h24l72 -88v-25l-168 -190l-24 -11q-58 8 -226 58t-198 49
q-30 0 -59 -25q-28 -25 -89 -90h-26l-72 90v25l168 190l24 11q45 -6 220 -58t202 -51z" />
    <glyph glyph-name="notequal" unicode="&#x2260;" horiz-adv-x="983" 
d="M936 412l-14 -166h-416l-70 -291h-170l-14 20l63 271h-249l-19 18l14 166h297l48 203h-340l-19 18l14 166h388l67 287h168l18 -21l-63 -266h279l18 -18l-14 -166h-326l-47 -203h369z" />
    <glyph glyph-name="lessequal" unicode="&#x2264;" horiz-adv-x="983" 
d="M922 -238h-856l-19 19l14 166h857l18 -19zM899 788l-637 -241v-15l639 -233l-39 -152l-24 -18l-768 293v221l18 25l764 297l59 -156z" />
    <glyph glyph-name="greaterequal" unicode="&#x2265;" horiz-adv-x="983" 
d="M913 643v-221l-768 -293l-24 18l-39 152l639 233v15l-637 241l-12 21l59 156l764 -297zM922 -238h-856l-19 19l14 166h857l18 -19z" />
    <glyph glyph-name="lozenge" unicode="&#x25ca;" horiz-adv-x="1050" 
d="M270 563l254 -543h13l245 555l-256 553h-12zM963 614l-2 -77l-320 -707l-207 -8l-22 12l-320 698v74l320 709l211 10l18 -10z" />
    <glyph glyph-name="dieresisacute" unicode="&#xf6d7;" 
d="M580 1352q120 0 120 -91.5t-34.5 -128t-94.5 -36.5q-121 0 -120 125q0 59 34.5 95t94.5 36zM225 1352q119 0 119 -91.5t-35 -128t-94 -36.5q-121 0 -121 125q0 59 35 95t96 36zM653 1550l-14 -24q-297 -55 -461 -78l-24 10l-23 121q262 78 457 154l24 -13z" />
    <glyph glyph-name="dieresisgrave" unicode="&#xf6d8;" 
d="M580 1352q120 0 120 -91.5t-34.5 -128t-94.5 -36.5q-121 0 -120 125q0 59 34.5 95t94.5 36zM225 1352q119 0 119 -91.5t-35 -128t-94 -36.5q-121 0 -121 125q0 59 35 95t96 36zM653 1579l-24 -121l-25 -10q-170 23 -461 78l-12 24l39 170l25 13q198 -78 458 -154z" />
    <glyph glyph-name="Iacute_J.loclNLD" horiz-adv-x="1290" 
d="M438 0h-278l14 393l-14 926h282l-16 -901zM606 1653l-8 -25q-188 -74 -440 -160l-27 9l-45 112q248 125 426 232l25 -6zM866 252v156l-12 706l-217 -6l-21 20l15 191h502l-15 -885l4 -186q0 -117 -39 -199t-126 -145t-238 -121l-84 147v25q127 67 179 131t52 166z
M1212 1653l-8 -25q-188 -74 -440 -160l-27 9l-45 112q248 125 426 232l25 -6z" />
    <glyph glyph-name="C.ss01" horiz-adv-x="929" 
d="M342 535q0 -324 250 -324q127 0 235 59l23 -12l-16 -158h301v-100h-1340v100h449q-164 127 -164 415t184 419h-469v100h1340v-100h-273l-35 -166l-20 -10q-94 68 -221 67.5t-185.5 -70t-58.5 -220.5z" />
    <glyph glyph-name="D.ss01" horiz-adv-x="1167" 
d="M588 193q238 0 237 303q0 176 -57 251.5t-167.5 75.5t-186.5 -8l-11 -479l5 -129q104 -14 180 -14zM1372 100v-100h-1577v100h373l8 211l-10 623h-371v100h1577v-100h-448q162 -123 161 -381q0 -311 -192 -453h479z" />
    <glyph glyph-name="I.ss01" horiz-adv-x="571" 
d="M776 100v-100h-981v100h359l8 207l-10 627h-357v100h981v-100h-366l-13 -602l9 -232h370z" />
    <glyph glyph-name="L.ss01" horiz-adv-x="819" 
d="M1024 100v-100h-1229v100h357l8 211l-10 623h-355v100h1229v-100h-621l-12 -598l2 -117h352l15 -20l-8 -99h272z" />
    <glyph glyph-name="M.ss01" horiz-adv-x="1404" 
d="M1040 350l-28 318h-17l-217 -488h-188l-197 488h-14l-33 -299l-14 -269h719zM528 934l19 -60l143 -378h17l151 374l23 64h-353zM1610 100v-100h-1815v100h334l88 834h-422v100h1815v-100h-422l76 -834h346z" />
    <glyph glyph-name="V.ss01" horiz-adv-x="1062" 
d="M326 934l12 -64l184 -624h15l213 610l12 78h-436zM1268 100v-100h-1473v100h553l-264 834h-289v100h1473v-100h-275l-291 -834h566z" />
    <glyph glyph-name="X.ss01" horiz-adv-x="1097" 
d="M545 360l-166 -219l-21 -41h361l-25 54zM565 688l148 211l16 35h-328l21 -47zM1303 100v-100h-1508v100h330l283 410l-281 424h-332v100h1508v-100h-334l-262 -389l286 -445h310z" />
    <glyph glyph-name="i.loclTRK" horiz-adv-x="571" 
d="M408 0h-258l12 307l-12 727h262l-15 -702zM430 1359.5q0 -67.5 -39 -108.5t-106.5 -41t-103.5 37t-36 104.5t40 108.5t106.5 41t102.5 -37t36 -104.5z" />
    <glyph glyph-name="germandbls.calt" horiz-adv-x="1368" 
d="M1329 351q0 -109 -60 -195q-59 -86 -161 -130t-227 -44q-193 0 -361 84l39 258l31 16q76 -68 159 -107q172 -81 263 0q43 39 43 109q-1 70 -97 138t-337 163l-11 43l285 379q-115 47 -219 47q-279 0 -279 -262l-6 -430l12 -420h-280l16 389l-8 461q-1 221 147 353
t416 132q135 1 260 -33t273 -104l12 -41l-295 -385q143 -70 222 -122t121 -121t42 -178z" />
    <glyph glyph-name="iacute_j.loclNLD" horiz-adv-x="1216" 
d="M809 195v118l-8 531l-178 -4l-17 16l19 178h432l-13 -694l3 -143q0 -139 -71 -223.5t-253 -153.5l-82 129v22q92 45 130 95.5t38 128.5zM397 332l11 -332h-258l12 307l-12 727h262zM1085 1386q-240 -150 -399 -241l-24 2l-66 102q221 176 371 314l24 -2l99 -148z
M586 1415l-4 -26q-199 -129 -400 -242l-26 2l-66 102q238 190 371 314l26 -2z" />
    <glyph glyph-name="a.sups" horiz-adv-x="696" 
d="M242 883q0 -74 67 -74q47 0 92 49l2 107l-110 -21q-51 -10 -51 -61zM588 860q0 -43 24.5 -43t34.5 8l15 -12l-21 -113q-47 -35 -100 -34.5t-80 23t-41 75.5h-8q-61 -74 -148 -100q-98 2 -155.5 55t-57.5 145q0 141 150 166l202 33l3 43q0 82 -82 82q-76 0 -197 -70l-14 6
l-23 138q131 74 258 73.5t189.5 -49.5t62.5 -139l-6 -158q-6 -86 -6 -129z" />
    <glyph glyph-name="b.sups" horiz-adv-x="743" 
d="M356 797q142 0 142 182t-119 182q-47 0 -92 -37l-2 -157l2 -158q41 -12 69 -12zM694 1002q0 -158 -86 -249t-237 -91q-88 0 -174 30l-95 -28l-18 20l8 256l-8 690l213 12l-8 -415h6q70 82 149 100q119 0 184.5 -83.5t65.5 -241.5z" />
    <glyph glyph-name="c.sups" horiz-adv-x="542" 
d="M365 1163q-117 0 -117 -153q0 -180 129 -181q55 0 131 29l16 -12l-22 -156q-82 -29 -176 -28q-131 0 -205 87t-74 245.5t84 249.5t234 91q88 0 170 -39l-37 -161l-17 -9q-68 37 -116 37z" />
    <glyph glyph-name="d.sups" horiz-adv-x="751" 
d="M360 1188q-116 0 -116 -182t112 -183q51 0 103 51l-6 304q-41 10 -93 10zM680 817q18 0 31 8l16 -12l-22 -113q-49 -34 -107 -34t-85.5 20.5t-43.5 73.5h-8q-68 -78 -142 -92q-125 0 -198.5 86t-73.5 244t88 246.5t244 88.5q27 0 74 -10l-4 307l210 12l-8 -782
q0 -43 29 -43z" />
    <glyph glyph-name="e.sups" horiz-adv-x="671" 
d="M356 1194q-94 0 -110 -131l203 2l2 29q0 47 -26 73.5t-69 26.5zM633 1067q0 -45 -6 -82l-15 -22h-366q8 -74 44 -110t120.5 -36t187.5 41l14 -12l-20 -148q-104 -37 -213 -36q-158 0 -245 89t-87 246.5t84 246.5t222.5 89t209 -69.5t70.5 -196.5z" />
    <glyph glyph-name="f.sups" horiz-adv-x="434" 
d="M424 1497q-78 0 -78 -84v-98h150l6 -10l-8 -115h-150l-2 -229l8 -285h-211l11 262l-5 252h-94l-6 12l8 113h90v61q0 131 79 201t224 70q58 -1 121 -13l-12 -153l-16 -13q-63 29 -115 29z" />
    <glyph glyph-name="g.sups" horiz-adv-x="708" 
d="M248 602q0 -78 123 -78q57 0 91 20.5t34 55.5t-37 47t-117 21l-47 6q-47 -35 -47 -72zM469 1110q0 92 -99 92t-100 -92q0 -98 99.5 -98t99.5 98zM365 889q-45 0 -82 6q-16 -16 -17 -31q0 -23 31 -31t108.5 -16t133 -21.5t97.5 -50t42 -106.5q0 -102 -89 -166.5
t-228.5 -64.5t-211 49t-71.5 129q23 51 112 104v6q-98 39 -98 133q33 39 101 86v9q-109 57 -109 172.5t77 176t212 60.5q84 0 147 -28q86 16 197 61l16 -12v-133q-53 -13 -98 -15l-2 -2q23 -41 22 -88q0 -106 -77.5 -166.5t-212.5 -60.5z" />
    <glyph glyph-name="h.sups" horiz-adv-x="749" 
d="M389 1159q-47 0 -98 -37l-2 -161l8 -285h-213l10 264l-8 690l211 12l-4 -417h4q88 88 172 100q98 0 151.5 -46t51.5 -134l-6 -184l8 -285h-211l12 383q0 100 -86 100z" />
    <glyph glyph-name="i.sups" horiz-adv-x="374" 
d="M297 676h-213l12 264l-8 367l209 16l-8 -362zM299 1540q0 -53 -29.5 -84t-81.5 -31q-102 0 -102 109q0 51 30.5 83t82.5 32q100 0 100 -109z" />
    <glyph glyph-name="j.sups" horiz-adv-x="423" 
d="M299 961l8 -244q0 -109 -51 -182.5t-164 -126.5l-72 94v18q88 61 89 191v229l-3 217l-86 -4l-10 14l10 148h89l196 10l4 -4zM297 1540q0 -51 -29.5 -83t-79.5 -32q-106 0 -106 109q0 51 31 83t81 32t76.5 -29t26.5 -80z" />
    <glyph glyph-name="k.sups" horiz-adv-x="700" 
d="M694 713l-2 -23q-49 -10 -196 -28l-23 10q-117 186 -186 338v-49l10 -285h-213l10 264l-8 690l211 12l-10 -614l145 221l31 72h217l-191 -289q53 -96 205 -319z" />
    <glyph glyph-name="l.sups" horiz-adv-x="374" 
d="M295 676h-211l10 264l-8 690l209 12l-8 -681z" />
    <glyph glyph-name="m.sups" horiz-adv-x="1136" 
d="M776 1163q-45 0 -100 -39l-6 -163l8 -285h-209l10 385q0 102 -88 102q-51 0 -106 -43v-159l8 -285h-209l10 264l-8 367l199 16v-98h10q86 86 176 100q152 0 193 -102h6q84 88 186 102q98 0 151.5 -46t51.5 -134l-2 -184l4 -285h-209l10 385q0 102 -86 102z" />
    <glyph glyph-name="n.sups" horiz-adv-x="749" 
d="M387 1159q-47 0 -98 -37v-161l8 -285h-213l10 264l-8 367l203 16v-98h8q84 86 174 100q98 0 150.5 -46t50.5 -134l-4 -184l6 -285h-213l12 383q0 100 -86 100z" />
    <glyph glyph-name="o.sups" horiz-adv-x="710" 
d="M248 1001.5q0 -106.5 25.5 -152.5t85 -46t84 41t24.5 147.5t-25.5 152.5t-85 46t-84 -41t-24.5 -147.5zM362 1335q302 -1 302 -331q0 -164 -82 -253t-232 -89q-302 0 -303 325q0 170 82.5 259t232.5 89z" />
    <glyph glyph-name="p.sups" horiz-adv-x="757" 
d="M354 797q140 0 140 181t-117 181q-51 0 -92 -35v-163l2 -152q37 -12 67 -12zM692 1004q0 -160 -86 -251t-237 -91q-41 0 -80 6l2 -246h-207l6 518l-6 367l201 16v-96h8q70 84 149 100q119 0 184.5 -81.5t65.5 -241.5z" />
    <glyph glyph-name="q.sups" horiz-adv-x="729" 
d="M362 1188q-118 0 -118 -182t108 -183q51 0 101 49v302q-33 14 -91 14zM455 748h-11q-66 -70 -127 -80q-127 0 -198.5 86t-71.5 242t87 246.5t235 90.5q66 0 170 -30l100 32l14 -12l-6 -369l4 -532h-207l11 297v29z" />
    <glyph glyph-name="r.sups" horiz-adv-x="497" 
d="M287 1194h10q59 127 160 127q18 0 32 -2v-184l-22 -9q-25 6 -45 7q-74 0 -135 -76v-96l10 -285h-213l10 264l-8 367l201 16v-129z" />
    <glyph glyph-name="s.sups" horiz-adv-x="561" 
d="M268 795q31 0 48.5 14t17.5 37t-23.5 39t-94.5 45t-118 68.5t-47 126.5t72 147.5t176.5 60.5t198.5 -33l-27 -149l-25 -8q-94 55 -155.5 55t-61.5 -51q0 -23 25 -39t92.5 -43t115.5 -67t48 -125.5t-66.5 -149.5t-180 -64t-230.5 41l24 158l19 14q98 -77 192 -77z" />
    <glyph glyph-name="t.sups" horiz-adv-x="475" 
d="M106 1190h-81l-9 12l11 113h79v135l197 43l12 -12l-4 -166h148l6 -10l-10 -115h-148l-6 -264q0 -94 74 -95q32 1 71 17l15 -17l-19 -116q-76 -39 -133 -45q-98 0 -152.5 47t-52.5 129l2 143v201z" />
    <glyph glyph-name="u.sups" horiz-adv-x="741" 
d="M672 817q20 0 33 8l14 -12l-21 -113q-47 -34 -102 -34t-86 24.5t-49 83.5h-8q-84 -92 -170 -102q-96 0 -148.5 46t-52.5 134l2 137l-6 318l201 16v-389q0 -96 75 -96q55 0 101 45v424l200 16l-10 -461q0 -45 27 -45z" />
    <glyph glyph-name="v.sups" horiz-adv-x="620" 
d="M313 877h13l96 321l24 123h183l-205 -645h-229l-177 641l199 8l16 -115z" />
    <glyph glyph-name="w.sups" horiz-adv-x="980" 
d="M295 891h10l80 313l23 117h208l15 -104l67 -322h13l77 309l23 117h180l-196 -645h-203l-84 379h-16l-99 -379h-211l-164 641l195 8l14 -108z" />
    <glyph glyph-name="x.sups" horiz-adv-x="653" 
d="M342 1120l76 129l35 70h184l-182 -318l184 -317l-223 -16l-33 88l-72 127l-82 -138l-30 -69h-187l181 323l-179 316l228 10l28 -82z" />
    <glyph glyph-name="y.sups" horiz-adv-x="606" 
d="M301 887h12l97 311l24 123h180l-202 -592q-45 -135 -118 -201.5t-224 -115.5h-17q-57 59 -90 127l6 20q150 25 244 117l-238 641l203 8l21 -108z" />
    <glyph glyph-name="z.sups" horiz-adv-x="614" 
d="M483 1321l78 2v-127l-293 -389h178l117 8l10 -14l-12 -127l-170 2h-250l-98 -4v125l295 395h-168l-115 -8l-10 16l12 123l142 -2h284z" />
    <glyph glyph-name="zero.lf" horiz-adv-x="1067" 
d="M293 590q0 -370 239.5 -369.5t239.5 370.5t-242 370q-237 -1 -237 -371zM983 607q0 -298 -120 -461.5t-338 -163.5t-330.5 154.5t-112.5 452.5t122 463t339 165t328.5 -156t111.5 -454z" />
    <glyph glyph-name="one.lf" horiz-adv-x="765" 
d="M541 426l12 -426h-274l12 397l-2 508l-258 -59l-19 14v217l504 140l41 -29z" />
    <glyph glyph-name="two.lf" horiz-adv-x="1019" 
d="M854 932q0 -92 -56.5 -203t-185.5 -272l-178 -234l4 -8h318l196 16l15 -20l-31 -223l-260 12h-498l-80 -4l-14 10v168l287 338q117 143 166 218t49 131t-35 90t-101 34t-143.5 -40t-144.5 -111h-29l-47 213q215 170 432 170q148 0 242 -77t94 -208z" />
    <glyph glyph-name="three.lf" horiz-adv-x="901" 
d="M778 940q0 -82 -46 -160t-146 -133v-8q225 -63 225 -272q0 -113 -63.5 -200t-179.5 -135t-248 -48t-240 20l-17 213l19 16q116 -43 228 -43t176.5 45.5t64.5 124.5q0 139 -186 146h-144l-14 16l6 189l90 2q78 2 138.5 48.5t60.5 112.5q0 124 -140 125q-104 0 -241 -96
h-29l-41 199q171 119 351 119t278 -77t98 -204z" />
    <glyph glyph-name="four.lf" horiz-adv-x="1032" 
d="M569 500l-2 393h-16l-272 -393h290zM788 289l11 -269l-15 -20l-211 -14l-14 18l6 287h-325l-179 -4l-16 22v174l496 717h252l-7 -700h166l17 -23l-13 -190z" />
    <glyph glyph-name="five.lf" horiz-adv-x="897" 
d="M807 408q0 -129 -65.5 -225.5t-183.5 -148.5t-246 -52t-253 24l-16 211l20 21q123 -48 240 -48t181.5 48.5t64.5 124.5t-47 115.5t-154 60.5l-196 34l-19 21l4 580l33 32l119 -6h299l213 12l16 -18l-26 -211l-19 -18l-188 20h-236l-6 -225l127 -27q180 -37 259 -116.5
t79 -208.5z" />
    <glyph glyph-name="six.lf" horiz-adv-x="985" 
d="M676 350q0 199 -176 199q-90 0 -187 -62v-43q0 -145 42.5 -215.5t134.5 -70.5t139 50t47 142zM920 383q0 -111 -50.5 -203t-148.5 -146t-236 -54q-203 0 -311 121t-108 355t155.5 437t440.5 328h14l188 -121v-27q-217 -82 -336.5 -168t-169.5 -205l15 -18q92 57 207 57
q159 0 249.5 -101t90.5 -255z" />
    <glyph glyph-name="seven.lf" horiz-adv-x="872" 
d="M717 1200l100 2v-196l-323 -723l-117 -306l-219 62l-17 41l412 895h-320l-186 -17l-14 23l18 225l228 -6h438z" />
    <glyph glyph-name="eight.lf" horiz-adv-x="1009" 
d="M311 325.5q0 -73.5 50.5 -117.5t139.5 -44t139 44t50 112t-51 108.5t-158 83.5q-82 -31 -126 -72t-44 -114.5zM346 888q0 -66 47 -106.5t135 -74.5q66 37 103 77.5t37 105.5t-42 102.5t-118 37.5t-119 -38t-43 -104zM881 920q0 -172 -193 -277v-14q106 -49 166.5 -114.5
t60.5 -174.5q0 -166 -119.5 -262t-311.5 -96t-296 86t-104 223q0 197 238 291v12q-92 47 -145.5 114.5t-53.5 172.5q0 156 110.5 247t285.5 91t268.5 -80t93.5 -219z" />
    <glyph glyph-name="nine.lf" horiz-adv-x="983" 
d="M678 758q0 145 -42 214.5t-134 69.5q-185 0 -185 -194t175 -195q90 1 186 62v43zM926 746q0 -234 -156 -438t-440 -326h-15l-186 120v27q215 80 335 167t169 206l-15 16q-98 -57 -206 -57q-158 0 -249 101.5t-91 254.5q0 111 50 203t148.5 146.5t235.5 54.5
q203 0 311.5 -120.5t108.5 -354.5z" />
    <glyph glyph-name="zero.sinf" horiz-adv-x="768" 
d="M236 146q0 -224 148 -224t148 215q0 115 -36.5 168t-113.5 53t-111.5 -50t-34.5 -162zM392 555q310 1 310 -399q0 -196 -85 -305t-241 -109q-314 0 -313 400q0 196 87.5 304.5t241.5 108.5z" />
    <glyph glyph-name="one.sinf" horiz-adv-x="565" 
d="M401 37l9 -283h-222l9 258v305l-162 -36l-15 10v170l361 94l31 -23z" />
    <glyph glyph-name="two.sinf" horiz-adv-x="739" 
d="M322 379q-95 0 -193 -94h-25l-36 161q158 106 309 107q106 0 176 -51t70 -142q0 -59 -39 -128.5t-127 -176.5l-105 -131l4 -4h187l137 8l10 -14l-22 -168l-193 8h-342l-53 -2l-12 6v127l192 209q80 92 111.5 136t31.5 77t-21.5 52.5t-59.5 19.5z" />
    <glyph glyph-name="three.sinf" horiz-adv-x="657" 
d="M567 365q0 -121 -125 -187v-8q147 -43 148 -184q0 -109 -100.5 -176.5t-264.5 -67.5q-80 0 -155 16l-15 152l17 14q80 -23 157 -22q150 0 150 90q0 78 -103 78h-106l-10 14l2 141l63 2q49 2 85 29t36 68q0 63 -86 63q-63 0 -160 -51h-22l-33 143q123 76 252 76t199.5 -52
t70.5 -138z" />
    <glyph glyph-name="four.sinf" horiz-adv-x="751" 
d="M401 92l-2 221h-12l-158 -221h172zM578 -70l10 -161l-13 -15l-169 -8l-13 10l4 176h-207l-135 -6l-14 19v133l338 467h201l-7 -453h111l12 -18l-10 -148z" />
    <glyph glyph-name="five.sinf" horiz-adv-x="655" 
d="M586 20q0 -127 -100.5 -202.5t-264.5 -75.5q-84 0 -166 16l-12 148l14 16q80 -22 159 -22q159 1 159 100q0 37 -26.5 58.5t-88.5 33.5l-143 25l-13 16l2 389l23 25l84 -2h217l148 6l12 -12l-21 -158l-14 -14l-133 14h-148l-2 -121l86 -20q117 -25 172.5 -78t55.5 -142z
" />
    <glyph glyph-name="six.sinf" horiz-adv-x="716" 
d="M360 -125q105 0 105 114t-105 113q-49 0 -106 -26v-27q0 -88 23.5 -131t82.5 -43zM662 4q0 -107 -79 -184.5t-223 -77.5t-224.5 81t-80.5 233t105.5 283.5t298.5 217.5h12l137 -92v-21q-135 -51 -208.5 -100t-108.5 -115l10 -12q61 31 123 31q113 0 175.5 -68.5
t62.5 -175.5z" />
    <glyph glyph-name="seven.sinf" horiz-adv-x="636" 
d="M516 545l72 2v-154l-207 -436l-86 -217l-176 45l-13 33l269 553h-193l-137 -13l-12 19l16 172l170 -4h297z" />
    <glyph glyph-name="eight.sinf" horiz-adv-x="737" 
d="M252 -27q0 -43 29.5 -68.5t85 -25.5t86 24.5t30.5 63.5t-32.5 62.5t-100.5 48.5q-98 -31 -98 -105zM276 334q0 -39 29 -62.5t86 -48.5q76 51 76 111q0 37 -25.5 58.5t-68.5 21.5q-97 0 -97 -80zM639 349q0 -100 -123 -171v-10q68 -33 105.5 -75t37.5 -111
q0 -113 -83.5 -176.5t-221.5 -63.5t-210 55.5t-72 147.5q0 127 155 186v8q-133 69 -133 181t81 173.5t206 61.5t191.5 -53t66.5 -153z" />
    <glyph glyph-name="nine.sinf" horiz-adv-x="718" 
d="M467 248q0 90 -23.5 133t-83.5 43q-106 0 -106 -114t106 -113q56 -1 107 28v23zM666 242q0 -152 -106.5 -284t-299.5 -216h-12l-135 90v21q133 49 207.5 99t109.5 116l-10 12q-57 -29 -125 -29q-109 0 -173.5 68.5t-64.5 174.5t80.5 185.5t224.5 79.5t224 -82.5
t80 -234.5z" />
    <glyph glyph-name="zero.tf" horiz-adv-x="972" 
d="M268 590q0 -370 217 -369.5t217 370.5t-219 370q-215 -1 -215 -371zM913 608q0 -297 -114.5 -461.5t-320.5 -164.5t-312.5 154.5t-106.5 452.5t115.5 463t321.5 165t311.5 -156t105.5 -453z" />
    <glyph glyph-name="one.tf" horiz-adv-x="972" 
d="M649 426l13 -426h-277l14 397l-2 508l-315 -59l-19 14v217l562 140l39 -29z" />
    <glyph glyph-name="two.tf" horiz-adv-x="972" 
d="M825 932q0 -92 -55 -201.5t-180 -273.5l-168 -234l6 -8h297l190 14l15 -22l-31 -219l-254 12h-481l-78 -4l-14 10v168l276 338q115 147 161 220t46 129t-32.5 90t-96.5 34t-137.5 -41t-136.5 -110h-31l-45 213q209 170 420 170q143 0 236 -77t93 -208z" />
    <glyph glyph-name="three.tf" horiz-adv-x="972" 
d="M821 940q0 -82 -48 -160t-150 -133v-8q236 -66 235 -272q0 -113 -66.5 -200t-185.5 -135t-254 -48t-248 20l-16 213l18 16q123 -43 239 -43t183.5 45.5t67.5 124.5q0 139 -199 146h-147l-14 16l6 189l92 2q84 2 147.5 48.5t63.5 112.5q0 124 -148 125q-109 0 -252 -96
h-26l-43 199q176 119 359 119t284.5 -78t101.5 -203z" />
    <glyph glyph-name="four.tf" horiz-adv-x="972" 
d="M532 500l-2 393h-16l-250 -393h268zM752 289l12 -269l-14 -20l-213 -14l-15 18l6 287h-305l-174 -4l-18 22v174l475 717h248l-6 -700h159l17 -23l-15 -190z" />
    <glyph glyph-name="five.tf" horiz-adv-x="972" 
d="M864 406q0 -130 -67.5 -225t-192 -147t-260.5 -52t-258 24l-18 195l20 18q124 -31 244 -31t197 50t77 126t-53 116t-168 61l-205 37l-18 20l4 576l31 32l125 -6h327l207 12l16 -18l-24 -207l-21 -18l-178 20h-272l-8 -227l135 -27q184 -41 272 -120t88 -209z" />
    <glyph glyph-name="six.tf" horiz-adv-x="972" 
d="M664 350q0 199 -172 199q-90 0 -183 -64v-41q0 -145 41 -215.5t131 -70.5t136.5 50t46.5 142zM907 383q0 -111 -49 -203t-146.5 -146t-234.5 -54q-199 0 -306.5 121t-107.5 355t154 437t434 328h15l186 -121v-27q-215 -82 -333 -168t-167 -205l17 -18q92 57 202 57
q158 0 247 -101t89 -255z" />
    <glyph glyph-name="seven.tf" horiz-adv-x="972" 
d="M786 1200l107 2v-196l-361 -723l-120 -306l-219 62l-17 41l453 895h-363l-192 -17l-17 23l19 225l235 -6h475z" />
    <glyph glyph-name="eight.tf" horiz-adv-x="972" 
d="M299 325.5q0 -73.5 49 -117.5t135 -44t134.5 44t48.5 112t-50.5 108.5t-152.5 83.5q-80 -31 -122 -72t-42 -114.5zM334 888q0 -66 45 -106.5t129 -74.5q63 35 98 76.5t35 106.5t-39.5 102.5t-111.5 37.5t-114 -38t-42 -104zM856 920q0 -174 -186 -277v-14
q104 -49 161.5 -114.5t57.5 -174.5q0 -166 -117 -262t-306 -96t-290.5 86t-101.5 223q0 197 229 291v12q-90 47 -140 113.5t-50 173.5q0 156 108.5 247t279.5 91t263 -80t92 -219z" />
    <glyph glyph-name="nine.tf" horiz-adv-x="972" 
d="M668 758q0 145 -41 214.5t-133 69.5q-182 0 -181 -194q0 -194 172 -195q91 1 183 64v41zM913 744q0 -234 -153.5 -437t-433.5 -325h-15l-188 120v27q213 80 331.5 166t168.5 205l-17 18q-98 -57 -200 -57q-158 0 -248 101.5t-90 254.5q0 111 49 203t146 146.5t235 54.5
q200 0 307.5 -121.5t107.5 -355.5z" />
    <glyph glyph-name="zero.tosf" horiz-adv-x="972" 
d="M268 513q0 -149 53.5 -220.5t165.5 -71.5q219 0 219 289t-221 289q-110 0 -163.5 -68.5t-53.5 -217.5zM915 525q0 -255 -116.5 -399t-320.5 -144t-312.5 135t-108.5 389t117.5 399.5t321.5 145.5t311.5 -135.5t107.5 -390.5z" />
    <glyph glyph-name="one.tosf" horiz-adv-x="972" 
d="M643 426l10 -426h-272l10 397v340l-295 -61l-22 14v219l542 138l39 -29z" />
    <glyph glyph-name="two.tosf" horiz-adv-x="972" 
d="M819 797q0 -164 -229 -410l-154 -170l6 -8h275l184 16l17 -18l-33 -219l-248 12h-465l-74 -4l-14 10v166l274 272q190 190 191 281q0 41 -30 65.5t-89 24.5t-132 -32.5t-134 -88.5h-31l-45 211q207 141 410 142q141 0 231 -67t90 -183z" />
    <glyph glyph-name="three.tosf" horiz-adv-x="972" 
d="M557 711q0 116 -158 116q-115 0 -260 -88h-28l-39 191q182 121 368 121t291 -78t105 -205q0 -82 -52.5 -162t-158.5 -133v-10q244 -70 243 -287q0 -109 -68.5 -193.5t-191.5 -131t-261 -46.5t-257 21l-14 201l18 16q127 -31 248 -31t193.5 45t72.5 127q0 139 -213 146
h-151l-15 18l9 187l98 4q84 2 152.5 50t68.5 122z" />
    <glyph glyph-name="four.tosf" horiz-adv-x="972" 
d="M537 324l-2 403h-17l-254 -403h273zM758 113l10 -277l-16 -18l-211 -15l-15 17l6 295h-309l-176 -6l-16 24v172l479 731h250l-6 -712h161l15 -25l-12 -190z" />
    <glyph glyph-name="five.tosf" horiz-adv-x="972" 
d="M866 234q0 -130 -69.5 -228t-196.5 -151.5t-262 -53.5t-262 25l-15 194l19 21q124 -31 246 -31t202 52.5t80 129.5t-54 115.5t-171 61.5l-207 37l-20 20l12 584l33 30l125 -4h329l211 11l17 -17l-29 -207l-20 -20l-181 20h-276l-8 -233l137 -27q184 -39 272 -119t88 -210
z" />
    <glyph glyph-name="six.tosf" horiz-adv-x="972" 
d="M482 158q184 0 184 195t-174 196q-88 0 -179 -55l-2 -50q0 -143 40 -214.5t131 -71.5zM909 404q0 -132 -48 -224t-144 -146t-236 -54q-197 0 -307.5 123t-110.5 355t154 435t436 328h15l168 -121v-27q-207 -82 -321 -168t-161 -205l17 -18q90 57 200 57q158 0 248 -101.5
t90 -233.5z" />
    <glyph glyph-name="seven.tosf" horiz-adv-x="972" 
d="M793 1036l106 4v-200l-369 -738l-122 -307l-220 62l-16 43l463 909h-373l-194 -16l-17 24l19 225l237 -6h486z" />
    <glyph glyph-name="eight.tosf" horiz-adv-x="972" 
d="M299 325.5q0 -73.5 49 -117.5t135 -44t134.5 44t48.5 112t-50.5 108.5t-152.5 83.5q-80 -31 -122 -72t-42 -114.5zM334 888q0 -66 45 -106.5t129 -74.5q63 35 98 76.5t35 106.5t-39.5 102.5t-111.5 37.5t-114 -38t-42 -104zM856 920q0 -174 -186 -277v-14
q104 -49 161.5 -114.5t57.5 -174.5q0 -166 -117 -262t-306 -96t-290.5 86t-101.5 223q0 197 229 291v12q-90 47 -140 113.5t-50 173.5q0 156 108.5 247t279.5 91t263 -80t92 -219z" />
    <glyph glyph-name="nine.tosf" horiz-adv-x="972" 
d="M490 874q-184 0 -183 -194q0 -194 174 -195q88 1 178 58l3 47q0 143 -40 213.5t-132 70.5zM909 576q0 -232 -153.5 -434.5t-436.5 -327.5h-12l-170 120v29q205 78 318.5 164t162.5 205l-16 18q-100 -57 -201 -57q-160 0 -249 101.5t-89 256.5q0 111 48.5 202t144.5 145.5
t236 54.5q196 0 306.5 -122.5t110.5 -354.5z" />
    <glyph glyph-name="zero.dnom" horiz-adv-x="768" 
d="M236 391q0 -113 35.5 -168t111.5 -55q150 0 149 215q0 115 -36.5 168t-113.5 53t-111.5 -50t-34.5 -163zM392 801q310 1 310 -399q0 -196 -85 -305t-241 -109q-314 0 -313 399q0 197 87.5 305.5t241.5 108.5z" />
    <glyph glyph-name="one.dnom" horiz-adv-x="565" 
d="M401 283l9 -283h-222l9 258v305l-162 -37l-15 11v170l361 94l31 -23z" />
    <glyph glyph-name="two.dnom" horiz-adv-x="739" 
d="M322 625q-94 0 -193 -95h-25l-36 162q158 106 309 107q106 0 176 -51.5t70 -141.5q0 -59 -39 -128.5t-127 -176.5l-105 -131l4 -4h187l137 8l10 -14l-22 -168l-193 8h-342l-53 -2l-12 6v127l192 209q80 92 111.5 136t31.5 77t-21.5 52.5t-59.5 19.5z" />
    <glyph glyph-name="three.dnom" horiz-adv-x="657" 
d="M567 610q0 -121 -125 -186v-8q147 -43 148 -185q0 -109 -100.5 -176t-264.5 -67q-80 0 -155 16l-15 152l17 14q80 -23 157 -23q150 0 150 91q0 78 -103 77h-106l-10 15l2 141l63 2q49 2 85 28.5t36 67.5q0 63 -86 64q-63 0 -160 -51h-22l-33 143q123 76 252 76
t199.5 -52.5t70.5 -138.5z" />
    <glyph glyph-name="four.dnom" horiz-adv-x="751" 
d="M401 338l-2 221h-12l-158 -221h172zM578 176l10 -162l-13 -14l-169 -8l-13 10l4 176h-207l-135 -6l-14 18v134l338 467h201l-7 -453h111l12 -19l-10 -147z" />
    <glyph glyph-name="five.dnom" horiz-adv-x="655" 
d="M586 266q0 -127 -100.5 -202.5t-264.5 -75.5q-84 0 -166 16l-12 148l14 16q80 -23 159 -23t119 27t40 69t-26.5 63.5t-88.5 33.5l-143 24l-13 17l2 389l23 25l84 -2h217l148 6l12 -13l-21 -157l-14 -15l-133 15h-148l-2 -121l86 -21q117 -25 172.5 -78t55.5 -141z" />
    <glyph glyph-name="six.dnom" horiz-adv-x="716" 
d="M360 121q105 0 105 114t-105 113q-49 0 -106 -26v-27q0 -88 23.5 -131t82.5 -43zM662 250q0 -106 -79 -184t-223 -78t-224.5 81t-80.5 233t105.5 283.5t298.5 217.5h12l137 -92v-21q-135 -51 -208.5 -100t-108.5 -115l10 -12q61 31 123 31q113 0 175.5 -69t62.5 -175z
" />
    <glyph glyph-name="seven.dnom" horiz-adv-x="636" 
d="M516 791l72 2v-154l-207 -436l-86 -217l-176 45l-13 32l269 553h-193l-137 -12l-12 19l16 172l170 -4h297z" />
    <glyph glyph-name="eight.dnom" horiz-adv-x="737" 
d="M252 219q0 -43 29.5 -68.5t85 -25.5t86 24.5t30.5 63.5t-32.5 62.5t-100.5 48.5q-98 -31 -98 -105zM276 580q0 -39 29 -62.5t86 -48.5q76 51 76 111q0 37 -25.5 58t-68.5 21q-97 1 -97 -79zM639 594q0 -100 -123 -170v-10q68 -33 105.5 -75t37.5 -112q0 -113 -83.5 -176
t-221.5 -63t-210 55t-72 147q0 127 155 187v8q-133 68 -133 180t81 174t206 62t191.5 -53.5t66.5 -153.5z" />
    <glyph glyph-name="nine.dnom" horiz-adv-x="718" 
d="M467 494q0 90 -23.5 133t-83.5 43q-106 0 -106 -114t106 -114q56 0 107 29v23zM666 488q0 -152 -106.5 -284t-299.5 -216h-12l-135 90v20q133 49 207.5 99.5t109.5 115.5l-10 13q-57 -29 -125 -29q-109 0 -173.5 68.5t-64.5 174.5t80.5 185.5t224.5 79.5t224 -82.5
t80 -234.5z" />
    <glyph glyph-name="zero.numr" horiz-adv-x="768" 
d="M382 1134q-77 0 -112 -50q-34 -50 -34 -162t36 -168q36 -55 111 -56q150 0 149 215q0 115 -36 168q-37 53 -114 53zM376 518q-314 0 -313 400q-1 196 87 305t242 109t233 -102q77 -101 77 -298q0 -198 -85 -306t-241 -108z" />
    <glyph glyph-name="one.numr" horiz-adv-x="565" 
d="M401 813l9 -283h-222l9 258v306l-162 -37l-15 10v170l361 94l31 -22z" />
    <glyph glyph-name="two.numr" horiz-adv-x="739" 
d="M322 1155q-92 0 -193 -94h-25l-36 162q158 106 309 106q106 0 176 -51t70 -141q0 -59 -39 -129t-127 -177l-105 -131l4 -4h187l137 9l10 -15l-22 -168l-193 8h-342l-53 -2l-12 7v127l192 208q80 92 112 136q59 83 10 130q-22 19 -60 19z" />
    <glyph glyph-name="three.numr" horiz-adv-x="657" 
d="M225 518q-80 0 -155 17l-15 151l17 14q80 -23 157 -22q150 0 150 90q0 78 -103 78h-106l-10 14l2 141l63 3q49 2 85 28t36 68q0 63 -86 63q-63 0 -160 -51h-22l-33 143q123 76 252 76t200 -52t70 -138q0 -121 -125 -187v-8q147 -43 148 -184q0 -108 -100 -176t-265 -68z
" />
    <glyph glyph-name="four.numr" horiz-adv-x="751" 
d="M401 868l-2 222h-12l-158 -222h172zM578 707l10 -162l-13 -15l-169 -8l-13 10l4 177h-207l-135 -7l-14 19v133l338 467h201l-7 -453h111l12 -18l-10 -148z" />
    <glyph glyph-name="five.numr" horiz-adv-x="655" 
d="M221 518q-84 0 -166 17l-12 147l14 16q80 -22 159 -22q159 1 159 100q0 71 -115 92l-143 25l-13 16l2 389l23 25l84 -2h217l148 6l12 -12l-21 -158l-14 -14l-133 14h-148l-2 -121l86 -20q117 -25 172 -78t56 -141q0 -127 -100 -203t-265 -76z" />
    <glyph glyph-name="six.numr" horiz-adv-x="716" 
d="M360 651q105 0 105 114t-105 114q-49 0 -106 -27v-27q0 -88 24 -131t82 -43zM360 518q-144 0 -225 81q-80 81 -80 233q-1 152 105 283q106 132 299 218h12l137 -92v-20q-135 -51 -209 -101t-108 -114l10 -13q61 31 123 31q113 0 175 -69q63 -69 63 -175t-79 -184
t-223 -78z" />
    <glyph glyph-name="seven.numr" horiz-adv-x="636" 
d="M516 1321l72 2v-154l-207 -436l-86 -217l-176 45l-13 33l269 553h-193l-137 -12l-12 18l16 172l170 -4h297z" />
    <glyph glyph-name="eight.numr" horiz-adv-x="737" 
d="M252 750q0 -43 30 -69t85 -26t86 25q31 26 31 64t-33 62t-101 48q-98 -30 -98 -104zM276 1110q0 -38 29 -62t86 -49q76 51 76 111q0 36 -26 58t-68 22q-97 0 -97 -80zM639 1126q0 -100 -123 -172v-10q68 -33 106 -75t37 -111q0 -113 -84 -176q-84 -64 -221 -64t-210 55
t-72 148q0 127 155 186v8q-133 69 -133 181t81 174t205 61q124 0 192 -53q67 -52 67 -152z" />
    <glyph glyph-name="nine.numr" horiz-adv-x="718" 
d="M467 1024q0 90 -24 133t-83 43q-106 0 -106 -114t106 -113q56 -1 107 28v23zM666 1018q0 -152 -106 -284t-300 -216h-12l-135 90v21q133 49 208 99t109 116l-10 12q-57 -29 -125 -29q-109 0 -173 69q-64 68 -65 174q0 106 80 186q81 80 225 79q144 0 224 -82
q80 -83 80 -235z" />
    <glyph glyph-name="acute.cap" 
d="M655 1286l-8 -24q-188 -74 -440 -160l-27 8l-45 113q248 125 426 231l25 -6z" />
    <glyph glyph-name="breve.cap" 
d="M393 1110q-111 0 -189.5 55.5t-113.5 159.5l64 88h39q27 -53 82 -84t128 -31q145 0 201 115h39l64 -88q-81 -215 -314 -215z" />
    <glyph glyph-name="caron.cap" 
d="M426 1104h-55q-127 113 -275 213l49 108h27l64 -36q76 -39 161 -93q86 53 162 93l64 36h26l51 -108q-141 -94 -274 -213z" />
    <glyph glyph-name="circumflex.cap" 
d="M367 1446h55q127 -113 274 -213l-49 -109h-26l-64 37q-76 39 -162 92q-86 -53 -162 -92l-63 -37h-27l-51 109q142 94 275 213z" />
    <glyph glyph-name="grave.cap" 
d="M141 1286l70 162l25 6q178 -106 426 -231l-46 -113l-26 -8q-252 86 -440 160z" />
    <glyph glyph-name="hungarumlaut.cap" 
d="M406 1208q98 121 182 234l20 4l127 -82l2 -23q-123 -121 -256 -237l-22 -6l-86 69zM106 1231q131 166 164 211l23 4l125 -82l2 -23q-113 -113 -254 -237l-25 -6l-86 69z" />
    <glyph glyph-name="caron.alt" 
d="M440 1049l-118 -19l-19 14l-6 418l195 13l16 -19z" />
    <glyph glyph-name="dieresis.i" 
d="M370 1174q0 -62 -36 -100t-97 -37q-62 0 -95 34t-33 96t37 100q38 37 98 37t93 -34t33 -96zM657 1174q0 -62 -36 -100q-35 -38 -97 -37q-62 0 -95 34t-33 96t37 100q37 37 97 37t94 -34q33 -34 33 -96z" />
    <glyph glyph-name="macron.i" 
d="M633 1182h-463l-18 18l14 152h461l18 -19z" />
    <glyph glyph-name="tilde.i" 
d="M499 1327q22 0 43 20.5t66 82.5h25l80 -80v-23l-129 -182l-25 -8q-39 6 -141 38q-102 31 -124 31t-42.5 -19.5t-39.5 -46t-28 -36.5h-22l-80 80v24l127 178l24 11q39 -6 141 -38t125 -32z" />
    <glyph glyph-name="Gdieresis" horiz-adv-x="1224" 
d="M696 1110q-182 0 -265 -107.5t-83 -357.5q0 -164 35 -260t111 -140t178 -44t198 28l4 113l-6 203l258 20l-6 -180l4 -322q-244 -82 -450 -81q-307 0 -462 167.5t-155 495.5t179.5 509t508.5 181q217 0 385 -80l-59 -249l-24 -5q-100 57 -180.5 83t-170.5 26zM979 1635
q0 -63 -36 -99.5t-97 -36.5t-94 34t-33 96t36 99t97 37t94 -33.5t33 -96.5zM625 1635q0 -63 -35.5 -99.5t-97.5 -36.5t-94.5 34t-32.5 96t35.5 99t97.5 37t94.5 -33.5t32.5 -96.5z" />
    <glyph glyph-name="breveacute" 
d="M393 1069q-111 0 -189.5 55.5t-113.5 159.5l64 88h39q27 -53 82 -84t128 -31q145 0 201 115h39l64 -88q-81 -215 -314 -215zM635 1575q-125 -125 -229 -221l-23 -6l-86 67l43 60q98 131 145 198l21 4l125 -82z" />
    <glyph glyph-name="brevegrave" 
d="M393 1069q-111 0 -189.5 55.5t-113.5 159.5l64 88h39q27 -53 82 -84t128 -31q145 0 201 115h39l64 -88q-81 -215 -314 -215zM502 1415l-86 -67l-25 6q-152 143 -227 221l2 20l127 82l20 -4q89 -127 189 -258z" />
    <glyph glyph-name="brevehookabove" 
d="M393 1069q-111 0 -189 55t-114 160l64 88h39q59 -115 207 -115t204 115h39l64 -88q-80 -215 -314 -215zM408 1618q0 45 -63 45t-126 -51l-45 74q100 104 215 104q70 0 117 -41t47 -93t-25 -89t-88 -92l47 -80l-100 -58l-86 136q107 81 107 145z" />
    <glyph glyph-name="brevetilde" 
d="M398 1069q-106 0 -181 53t-108 152l60 84h37q24 -51 78 -80t124 -29q139 0 192 109h37l61 -84q-79 -205 -300 -205zM517 1604q44 0 120 98h23l74 -75v-21l-133 -172l-25 -9q-51 7 -161 37q-111 30 -131 30q-35 0 -117 -98h-22l-76 75v21l134 172l23 9q45 -7 156 -37
t135 -30z" />
    <glyph glyph-name="circle1" horiz-adv-x="944" 
d="M961 463q0 -131 -66 -244t-178.5 -178.5t-243.5 -65.5t-243.5 65.5t-178 178.5t-65.5 244t65.5 243.5t178 178t243.5 65.5t243.5 -65.5t178.5 -178t66 -243.5z" />
    <glyph glyph-name="circle2" horiz-adv-x="1312" 
d="M1335 649.5q0 -184.5 -91 -340t-247.5 -247t-341 -91.5t-340 91.5t-247 247t-91.5 340t91.5 341t247 247.5t340 91t341 -91t247.5 -247.5t91 -341z" />
    <glyph glyph-name="circumflexacute" 
d="M369 1405h55q127 -113 274 -213l-49 -109h-26l-64 37q-76 39 -162 92q-86 -53 -161 -92l-64 -37h-27l-51 109q142 94 275 213zM817 1591l-194 -252h-19l-92 70l143 254l21 8l135 -59z" />
    <glyph glyph-name="circumflexgrave" 
d="M369 1405h55q127 -113 274 -213l-49 -109h-26l-64 37q-76 39 -162 92q-86 -53 -161 -92l-64 -37h-27l-51 109q142 94 275 213zM729 1409l-92 -70h-19l-194 252l6 21l137 59l19 -8z" />
    <glyph glyph-name="circumflexhookabove" 
d="M369 1405h55q127 -113 274 -213l-49 -109h-26l-64 37q-76 39 -162 92q-86 -53 -161 -92l-64 -37h-27l-51 109q142 94 275 213zM552 1625q-60 0 -120 -49l-43 70q96 99 205 100q66 0 111 -39t45 -89t-23 -85t-84 -88l45 -76l-96 -54l-82 129q100 74 102 138q0 43 -60 43z
" />
    <glyph glyph-name="circumflextilde" 
d="M369 1405h55q127 -113 274 -213l-49 -109h-26l-64 37q-76 39 -162 92q-86 -53 -161 -92l-64 -37h-27l-51 109q142 94 275 213zM517 1604q44 0 120 98h23l74 -75v-21l-133 -172l-25 -9q-51 7 -161 37q-111 30 -131 30q-35 0 -117 -98h-22l-76 75v21l134 172l23 9
q45 -7 156 -37t135 -30z" />
    <glyph glyph-name="dieresiscaron" 
d="M580 1352q120 0 120 -91.5t-34.5 -128t-94.5 -36.5q-121 0 -120 125q0 59 34.5 95t94.5 36zM225 1352q119 0 119 -91.5t-35 -128t-94 -36.5q-121 0 -121 125q0 59 35 95t96 36zM426 1380h-55q-129 109 -275 213l49 109h27l225 -129l226 129h26l51 -109
q-139 -94 -274 -213z" />
    <glyph glyph-name="dieresismacron" 
d="M580 1352q120 0 120 -91.5t-34.5 -128t-94.5 -36.5q-121 0 -120 125q0 59 34.5 95t94.5 36zM225 1352q119 0 119 -91.5t-35 -128t-94 -36.5q-121 0 -121 125q0 59 35 95t96 36zM688 1468h-571l-21 21l15 153h573l18 -20z" />
    <glyph glyph-name="down" horiz-adv-x="862" 
d="M127 756h608l-305 -609z" />
    <glyph glyph-name="firstofchinese" 
d="M688 1182h-573l-19 18l15 152h573l16 -19z" />
    <glyph glyph-name="foundryicon" horiz-adv-x="1603" 
d="M891 618h53q20 0 21 -20v-270q0 -66 45 -108t114 -42l129 76v51q-25 -8 -61 -8q-76 0 -76 117v184q0 20 21 20h118v74h-118q-20 0 -21 21v57h-43l-182 -115v-37zM391 190h152v369q0 25 49 25q88 0 88 -115v-279h151v365q0 66 -45 108t-114 42l-99 -58q-12 -8 -21 -8
t-9 18v238h-152v-705zM1399 909v-866q0 -164 -164 -164h-866q-164 0 -164 164v866q0 164 164 164h866q164 0 164 -164z" />
    <glyph glyph-name="gdieresis" horiz-adv-x="1064" 
d="M599 840q-138 0 -199.5 -74t-61.5 -260q0 -123 26.5 -192.5t85 -99.5t136.5 -30t151 25v65l-4 164l236 17l-2 -138v-266q-203 -68 -379 -67q-258 0 -389 132t-131 390t151.5 400.5t429.5 142.5q177 -1 324 -58l-66 -233h-24q-146 82 -284 82zM872 1350q0 -62 -35 -99
t-97 -37t-95 34t-33 96t36 99.5t98 37.5t94 -34.5t32 -96.5zM518 1350q0 -62 -36 -99t-97 -37t-94 34t-33 96t36 99.5t98 37.5t94 -34.5t32 -96.5z" />
    </font>
</defs>
</svg>
