<?xml version="1.0" standalone="no"?>
<!DOCTYPE svg PUBLIC "-//W3C//DTD SVG 1.1//EN" "http://www.w3.org/Graphics/SVG/1.1/DTD/svg11.dtd" >
<svg xmlns="http://www.w3.org/2000/svg">
<metadata>
Created by FontPrep 20130207 at Tue May 10 19:20:34 2016
 By Guillaume Coquoz
Copyright (c) 2011, Juan Pablo del Peral (juan@huertatipografica.com.ar), with Reserved Font Names "Alegreya" "Alegreya SC"
</metadata>
<defs>
<font id="a02774527073d519560b9ca83332d0f9" horiz-adv-x='1024' >
  <font-face 
    font-family="AlegreyaSC-Regular"
    font-weight="400"
    font-stretch="normal"
    units-per-em="2048"
    panose-1="2 0 5 3 5 0 0 2 0 4"
    ascent="1638"
    descent="-410"
    x-height="1032"
    cap-height="1323"
    bbox="-432 -600 2032 1929"
    underline-thickness="114"
    underline-position="-121"
    unicode-range="U+0020-FB02"
  />
<missing-glyph horiz-adv-x="413" 
 />
    <glyph glyph-name=".notdef" horiz-adv-x="413" 
 />
    <glyph glyph-name=".null" horiz-adv-x="0" 
 />
    <glyph glyph-name="nonmarkingreturn" horiz-adv-x="681" 
 />
    <glyph glyph-name="space" unicode=" " horiz-adv-x="413" 
 />
    <glyph glyph-name="exclam" unicode="!" horiz-adv-x="583" 
d="M217 430l-16 934l14 20l170 37l18 -22l-106 -971l-57 -14zM241 -25q-56 0 -86 34t-30 85t35 88t91 37t87 -34t31 -85t-36 -88t-92 -37z" />
    <glyph glyph-name="quotedbl" unicode="&#x22;" horiz-adv-x="610" 
d="M385 1018q0 96 -14 282l143 29l14 -16q-29 -225 -71 -434l-51 -29l-23 4q2 68 2 164zM135 1018q0 96 -14 282l143 29l15 -16q-29 -225 -72 -434l-51 -29l-23 4q2 68 2 164z" />
    <glyph glyph-name="numbersign" unicode="#" horiz-adv-x="1019" 
d="M422 743l-53 -225h106l113 -2l51 227l-139 2zM104 741l-6 21l31 76l219 -2l76 327l82 11l16 -13l-80 -327h109l108 -3l76 332l82 11l17 -13l-80 -330h221l8 -18l-39 -74l-213 2l-51 -225h219l8 -18l-39 -74l-209 2l-73 -338l-80 -16l-14 12l75 344l-143 2l-74 -2
l-76 -340l-79 -16l-15 12l76 344l-227 -2l-6 20l30 76l223 -2l52 223z" />
    <glyph glyph-name="dollar" unicode="$" horiz-adv-x="940" 
d="M285 795q0 -55 41 -95t118 -79l29 311q-82 -4 -135 -43t-53 -94zM651 238q0 90 -162 170l-30 -328q88 6 140 48t52 110zM674 801q0 115 -135 129l-33 -340q2 -2 35 -16q78 -34 139 -73q141 -88 140 -211q-1 -122 -103 -207t-268 -99l-27 -293l-53 -6l-11 14l27 283
q-142 0 -266 55l-10 18q23 129 22 277l92 8q0 -150 34 -202t136 -58l35 358q-113 45 -215 125q-86 69 -86 181t100 196t256 96l29 303l53 9l13 -19l-29 -291q137 -4 244 -39l8 -14q-29 -125 -39 -270l-80 -8l-12 8q4 31 4 86z" />
    <glyph glyph-name="percent" unicode="%" horiz-adv-x="1374" 
d="M1202 1350l10 -29q-356 -530 -536 -819l-440 -697l-78 39l-11 25q272 414 975 1520zM766 298q0 144 87 242t221 97q134 0 205 -90q71 -91 71 -227t-83 -240t-218 -104t-209 88q-74 90 -74 234zM1253 282q0 96 -57 158t-147 62q-91 0 -139 -49t-48 -143t63 -149
q62 -55 140 -55t133 40t55 136zM355 668q-134 0 -209 89t-74 233q0 144 87 242t221 97q134 0 205 -90q71 -91 71 -227t-84 -240q-83 -104 -217 -104zM370 799q78 0 134 40q55 40 55 136q0 95 -57 157q-58 62 -148 62t-138 -49t-48 -143t62 -149q62 -54 140 -54z" />
    <glyph glyph-name="ampersand" unicode="&#x26;" horiz-adv-x="1275" 
d="M186 553q0 -55 11 -117q158 102 215 164t57 118q0 58 -26 84t-66 25q-83 -1 -137 -79t-54 -195zM72 508q0 178 105 310t249 132q86 0 135 -44t49 -122q0 -41 -18 -73l8 -4q375 276 381 571l10 10h39q68 -133 68 -175t-80 -142q-92 -135 -261 -263t-542 -352
q47 -124 149 -192t259 -68q156 0 259 102t119 285l-114 17q-32 0 -131 -119h-13l-53 41v10l152 189l30 10q39 0 198 -26t202 -25q29 0 127 118h14l49 -41l2 -10l-149 -188l-31 -15l-166 23q-36 -213 -192 -352t-370 -139t-349 144q-135 146 -135 388z" />
    <glyph glyph-name="quotesingle" unicode="'" horiz-adv-x="360" 
d="M135 1018q0 96 -14 282l143 29l15 -16q-29 -225 -72 -434l-51 -29l-23 4q2 68 2 164z" />
    <glyph glyph-name="parenleft" unicode="(" horiz-adv-x="632" 
d="M172 334v354q0 141 40 259t95 186q117 139 209 178l41 18h8l27 -59l-2 -8q-31 -10 -88 -62t-94 -106q-37 -56 -68 -156t-31 -219v-354q0 -127 30 -237t73 -173q88 -131 161 -172l29 -19v-10l-43 -53h-8q-19 4 -67 34q-48 29 -84 59q-87 71 -157 207q-71 136 -71 333z" />
    <glyph glyph-name="parenright" unicode=")" horiz-adv-x="632" 
d="M461 696v-354q0 -141 -40 -259t-97 -185q-115 -139 -209 -181l-39 -16h-8l-27 59l2 9q31 10 88 61q57 50 94 106t68 156t31 219v355q0 126 -30 236t-73 173q-88 131 -160 174l-30 17v10l43 53h8q18 -4 66 -34q48 -29 84 -59q92 -75 160 -209q69 -134 69 -331z" />
    <glyph glyph-name="asterisk" unicode="*" horiz-adv-x="933" 
d="M549 1495q-23 -125 -60 -233l-69 -11l-12 9l-11 225q74 25 138 24zM788 1182q-111 -15 -241 -15l-29 60l2 16q84 27 211 80q45 -63 66 -123zM565 856q-57 115 -90 225l49 47l17 2q57 -82 139 -176q-45 -61 -96 -100zM186 969q90 90 187 155l59 -32l6 -15
q-57 -78 -123 -188q-74 25 -127 61zM176 1364q113 -59 205 -129l-12 -68l-13 -10l-217 60q0 78 19 139z" />
    <glyph glyph-name="plus" unicode="+" 
d="M561 1024l21 -12q-12 -252 -13 -416l418 12l12 -20l-16 -105l-414 -2l2 -397l-100 -23l-18 13q2 227 2 407l-406 -2l-12 19l22 100q217 -2 396 -2l2 412z" />
    <glyph glyph-name="comma" unicode="," horiz-adv-x="487" 
d="M248 203q47 0 77 -42q29 -42 29 -133q0 -90 -86 -186t-200 -164l-37 31v21q73 48 117 116t45 141q0 73 -66 134l4 29q70 53 117 53z" />
    <glyph glyph-name="hyphen" unicode="-" horiz-adv-x="663" 
d="M575 612l15 -18l-10 -111l-492 -53l-14 16l12 107l356 41z" />
    <glyph glyph-name="period" unicode="." horiz-adv-x="487" 
d="M239 -25q-56 0 -86 34t-30 85t35 88t91 37t87 -34t31 -85t-36 -88t-92 -37z" />
    <glyph glyph-name="slash" unicode="/" horiz-adv-x="673" 
d="M588 1382l16 -20q-203 -735 -422 -1587h-98l-14 16q109 360 188 672l236 919h94z" />
    <glyph glyph-name="zero" unicode="0" horiz-adv-x="1091" 
d="M899 488q0 163 -102 272q-102 108 -260 108t-251 -97t-93 -263t100 -271t258 -105t253 96q95 97 95 260zM526 -25q-208 -1 -328 139t-120 373t141 391t346 156q205 0 327 -138t122 -370t-141 -391q-140 -160 -347 -160z" />
    <glyph glyph-name="one" unicode="1" horiz-adv-x="724" 
d="M436 229q0 -83 20 -111t81 -28l108 6l4 -8l-18 -94q-171 6 -269 6t-262 -25l13 95q115 10 149 54t35 179v467q0 72 -26 94t-85 23l-108 -13l-6 7l8 86q299 35 428 67h4l12 -35q-41 -35 -56 -69t-19 -103q-13 -326 -13 -598z" />
    <glyph glyph-name="two" unicode="2" horiz-adv-x="972" 
d="M551 741q0 74 -41 115t-112 41q-70 0 -138 -49t-115 -133h-18l-23 92q52 98 150 163q98 64 211 64t189 -68t77 -168q0 -102 -92 -238t-344 -421l8 -14h313q113 0 156 35t74 151l82 11q-43 -172 -60 -322l-24 -14q-481 14 -658 14l-110 -25l-21 37l162 181
q334 378 334 548z" />
    <glyph glyph-name="three" unicode="3" horiz-adv-x="849" 
d="M215 -72q154 0 258 78t105 195q0 205 -367 207l-10 10l-11 71l134 33q82 39 134 106q52 66 52 132t-46 106t-108 39t-128 -29q-65 -28 -111 -75h-21l-20 86q68 55 169 101t169 46q122 0 194 -62t72 -156t-62 -171q-62 -78 -163 -131v-10q276 -66 276 -254
q0 -164 -181 -315t-378 -150q-70 0 -100 35t-31 114l10 13q86 -19 164 -19z" />
    <glyph glyph-name="four" unicode="4" horiz-adv-x="915" 
d="M514 293v459h-18l-330 -459h348zM655 293h191l12 -17l-16 -112q-76 2 -187 6l15 -346l-11 -14l-145 -25l-12 18q10 211 12 371q-315 8 -506 8l8 76l566 774l8 2l65 -20v-721z" />
    <glyph glyph-name="five" unicode="5" horiz-adv-x="880" 
d="M745 270q0 -126 -95 -240t-230 -180t-258 -65q-63 0 -94 32t-35 117l10 13q86 -18 166 -19q165 0 273 76t108 186t-94 169q-94 58 -334 100l-19 22l35 500l17 16l387 17q61 4 87 19t42 61l67 8l-49 -242l-12 -12q-211 16 -449 16l-14 -258q235 -55 363 -132t128 -204z
" />
    <glyph glyph-name="six" unicode="6" horiz-adv-x="931" 
d="M460 584q-105 0 -208 -76q-6 -45 -6 -92q0 -156 66 -249t171 -93q106 0 165 65q58 67 58 177t-70 189q-71 79 -176 79zM504 705q166 1 260 -103t94 -233q0 -164 -115 -279t-287 -115t-274 122q-100 122 -100 306q0 449 456 719q116 68 187 90l37 13l14 -11l23 -61
q-66 -25 -150 -76q-83 -51 -149 -108t-134 -155t-98 -212l8 -4q167 107 228 107z" />
    <glyph glyph-name="seven" unicode="7" horiz-adv-x="860" 
d="M379 1010h432l45 -58q-211 -424 -459 -991l-51 -176h-14l-123 37l-21 45l512 1003l-354 -14q-100 -4 -134 -41t-54 -149l-80 -13q29 199 39 355l12 10q123 -8 250 -8z" />
    <glyph glyph-name="eight" unicode="8" horiz-adv-x="993" 
d="M295 952q0 -104 117 -178q46 -29 68 -40t83 -44q123 74 123 217q0 107 -56 165t-142 58t-140 -53q-53 -53 -53 -125zM507 63q99 1 167 63t67 139q0 77 -46 131t-84 76t-160 83q-186 -80 -187 -252q0 -96 72 -168t171 -72zM115 254q0 215 264 338q-106 57 -167 126
q-60 70 -60 188t105 218t249 100t238 -71q95 -72 96 -203q0 -188 -203 -297q117 -61 181 -133t65 -180q0 -152 -121 -258t-282 -106t-263 74q-102 75 -102 204z" />
    <glyph glyph-name="nine" unicode="9" horiz-adv-x="931" 
d="M467 426q102 0 213 76q6 43 6 92q0 156 -66 249t-172 93t-164 -66t-58 -177t69 -189q70 -78 172 -78zM428 305q-166 -1 -260 103t-94 233q0 164 114 279q115 114 288 114q174 0 274 -122t100 -306q0 -336 -267 -581q-73 -68 -145 -111q-160 -94 -229 -117l-39 -12l-14 10
l-23 62q66 25 150 75q83 50 149 106q66 58 134 156t96 212l-7 6q-166 -107 -227 -107z" />
    <glyph glyph-name="colon" unicode=":" horiz-adv-x="487" 
d="M230 549q-56 0 -86 34t-29 85q0 51 35 88t91 37t87 -34t31 -85t-36 -88q-37 -37 -93 -37zM230 -25q-56 0 -86 34t-29 85q0 51 35 88t91 37t87 -34t31 -85t-36 -88q-37 -37 -93 -37z" />
    <glyph glyph-name="semicolon" unicode=";" horiz-adv-x="487" 
d="M230 549q-56 0 -86 34t-29 85q0 51 35 88t91 37t87 -34t31 -85t-36 -88q-37 -37 -93 -37zM248 203q47 0 77 -42q29 -42 29 -133q0 -90 -86 -186t-200 -164l-37 31v21q73 48 117 116t45 141q0 73 -66 134l4 29q70 53 117 53z" />
    <glyph glyph-name="less" unicode="&#x3c;" 
d="M80 489l-17 23l5 96l415 176l412 166l18 -10l15 -102q-229 -80 -398 -150l-315 -123v-12l344 -143l371 -162l2 -23l-62 -82q-225 106 -790 346z" />
    <glyph glyph-name="equal" unicode="=" 
d="M987 772l12 -20l-16 -105l-934 -4l-12 19l22 100q307 -2 490 -2zM987 451l12 -21l-16 -104l-934 -4l-12 18l22 100q307 -2 490 -2z" />
    <glyph glyph-name="greater" unicode="&#x3e;" 
d="M956 604l17 -22l-4 -97l-416 -176l-412 -166l-18 11l-14 102q229 80 397 150l315 122v13l-344 143l-371 162l-2 22l62 82q225 -106 790 -346z" />
    <glyph glyph-name="question" unicode="?" horiz-adv-x="737" 
d="M294 -25q-56 0 -86 34t-30 85t35 88t91 37t87 -34t31 -85t-36 -88t-92 -37zM539 1022q0 236 -416 260l-4 23l67 108l29 8q191 -6 325 -103q134 -98 134 -232t-80 -218q-41 -44 -72 -68q-30 -24 -96 -67t-92 -61l-6 -19l43 -194l-6 -17l-125 -34l-19 8l-49 246l6 28
l244 156q117 80 117 176z" />
    <glyph glyph-name="at" unicode="@" horiz-adv-x="1703" 
d="M635 141q55 0 175 178t234 445q-112 68 -208 68t-178 -146q-82 -145 -83 -332q-1 -86 17 -150t43 -63zM432 274q0 148 72 310t180 260q109 98 217 98l205 -33l18 52l11 2l63 -31l16 -25q-119 -408 -172 -788l9 -8q217 0 331 125t113 337q0 266 -164 417
q-163 151 -453 151t-478 -210t-187 -518q0 -309 181 -521t542 -232v-14l-53 -74q-385 18 -600 248t-215 565q0 168 62 325q62 156 173 278t278 195t361 72q305 0 500 -181q194 -181 194 -449t-175 -459t-484 -191q-74 0 -74 60q0 41 88 426l-12 4q-184 -350 -383 -490
q-164 0 -164 299z" />
    <glyph glyph-name="A" unicode="A" horiz-adv-x="1183" 
d="M553 559q74 0 190 10l-161 537h-15l-194 -547h180zM858 154q0 40 -18 96l-68 223q-49 2 -180 2t-256 -16l-76 -213q-18 -55 -18 -80q0 -84 123 -84h116l4 -8l-12 -88q-150 14 -285 14l-225 -6l17 96q57 6 92 40t67 118l400 1046l129 35h16q172 -637 326 -1098
q26 -77 66 -107t130 -38l4 -8l-14 -84q-146 6 -252 6t-270 -20l-6 14l8 80q104 8 143 24t39 56z" />
    <glyph glyph-name="B" unicode="B" horiz-adv-x="1222" 
d="M864 967q0 131 -88 194t-272 64q-20 0 -29 -8q-16 -23 -26 -498q193 -15 211 -15q28 1 90 35q61 34 88 100q26 67 26 128zM668 84q126 0 196 69t70 185q0 227 -277 276l-213 -4l-8 -383q0 -77 53 -110t179 -33zM1030 1001q0 -102 -62 -184t-175 -131q149 -33 233 -115
t84 -196q0 -160 -143 -278t-338 -117l-273 20q-94 0 -237 -25l12 95q94 18 127 54t33 122l2 860q0 66 -15 88t-61 23l-70 -5l-4 9l15 90q150 -6 227 -6l242 8q195 0 299 -81t104 -231z" />
    <glyph glyph-name="C" unicode="C" horiz-adv-x="1288" 
d="M676 -25q-262 0 -428 171t-166 472t203 506t512 205q152 0 356 -49l8 -12q-39 -154 -51 -342l-98 -8q6 55 6 100q0 190 -301 190q-207 0 -329 -144t-122 -401t128 -421t341 -164q139 0 224 79t124 244l99 9q-41 -186 -56 -334l-12 -19q-176 -82 -438 -82z" />
    <glyph glyph-name="D" unicode="D" horiz-adv-x="1439" 
d="M543 1212q-43 0 -57 -9t-17 -36q-31 -788 -31 -900q0 -111 51 -149t207 -38q221 0 348 152t127 421q0 268 -162 414q-163 145 -466 145zM360 0q-98 0 -241 -25l12 95q94 18 127 54t33 122l2 860q0 66 -15 88t-61 23l-70 -5l-4 9l15 90q137 -6 215 -6l311 8
q299 0 486 -170q188 -170 188 -459t-205 -499t-504 -210q-191 25 -289 25z" />
    <glyph glyph-name="E" unicode="E" horiz-adv-x="1210" 
d="M436 221q0 -90 26 -109q26 -20 167 -20t213 18t104 65q32 48 47 167l90 10l7 -10q-37 -170 -56 -344l-10 -12q-426 14 -592 14t-313 -20l12 94q92 12 126 48t34 124l2 860q0 66 -15 88t-61 23l-70 -5l-4 9l15 90q162 -6 440 -6t459 24l6 -12q-35 -152 -47 -340l-98 -8
q4 59 4 88q0 100 -48 123q-48 22 -208 22q-158 0 -178 -11t-23 -69l-16 -397l210 -2l250 22l9 -10l-29 -121q-176 6 -269 6t-176 -14q-8 -295 -8 -385z" />
    <glyph glyph-name="F" unicode="F" horiz-adv-x="1048" 
d="M362 0q-100 0 -243 -25l12 95q94 18 127 54t33 122l2 860q0 66 -15 88t-61 23l-70 -5l-4 9l15 90q162 -6 425 -6t435 24l6 -12q-35 -158 -47 -346l-98 -8q4 66 4 94q0 100 -43 123q-44 22 -188 22t-164 -11t-23 -69l-16 -432l210 -2l215 23l9 -11l-29 -122q-156 6 -242 6
t-168 -15l-8 -340q0 -83 18 -111t72 -28l146 6l4 -8l-19 -96q-195 8 -295 8z" />
    <glyph glyph-name="G" unicode="G" horiz-adv-x="1366" 
d="M727 78q148 0 281 78v250q0 70 -22 90t-91 20h-141l-4 8l18 103q139 -8 260 -9l176 11l8 -45q-37 -31 -50 -98q-13 -68 -13 -202t14 -196l-12 -18q-88 -37 -222 -66t-249 -29q-274 0 -436 171q-162 172 -162 478t199 506t520 199q152 0 397 -49l8 -12q-41 -154 -53 -342
l-96 -8q6 55 6 110q0 94 -73 137t-236 43q-234 0 -364 -140t-130 -402t128 -425t339 -163z" />
    <glyph glyph-name="H" unicode="H" horiz-adv-x="1544" 
d="M1241 229q1 -83 19 -111t71 -28l92 6l4 -8l-18 -94q-162 6 -252 6l-235 -4l18 92q96 2 126 43t30 176v309q-217 2 -312 2l-340 -22l-8 -367q0 -83 18 -111t72 -28l92 6l5 -8l-19 -94q0 6 -132 6t-242 -8t-111 -17l12 95q94 18 127 54t33 122l2 860q0 66 -15 88t-61 23
l-70 -5l-4 9l15 90q150 -6 220 -6t226 18l-8 -92q-88 -14 -110 -44t-25 -140l-12 -332l344 -2q131 0 303 20l2 373q0 66 -16 88t-60 23l-70 -5l-4 9l15 90q1 -6 133 -6t313 18l-8 -92q-76 -10 -102 -34t-29 -83q-29 -598 -29 -885z" />
    <glyph glyph-name="I" unicode="I" horiz-adv-x="739" 
d="M436 229q0 -83 18 -111t72 -28l109 6l4 -8l-18 -94q-171 6 -267 6t-239 -25l12 95q96 18 130 54t34 122l2 860q0 66 -15 88t-61 23l-86 -5l-4 9l14 90q160 -6 235 -6t245 18l-9 -92q-86 -10 -114 -34t-33 -83q-29 -594 -29 -885z" />
    <glyph glyph-name="J" unicode="J" horiz-adv-x="669" 
d="M268 236l2 870q0 66 -14 88t-61 20l-97 -8l-4 8l15 91h221l237 18l-8 -92q-72 -11 -92 -31t-25 -86q-23 -487 -26 -876q-2 -209 -81 -335t-253 -198l-35 68l6 16q125 75 170 169t45 278z" />
    <glyph glyph-name="K" unicode="K" horiz-adv-x="1286" 
d="M928 1161q0 53 -129 62l-4 8l14 88q150 -14 225 -14l189 8l8 -15l-14 -84q-53 -10 -99 -43t-137 -129l-330 -346l344 -448q74 -96 132 -135t130 -39l9 -8l-13 -70q-147 -25 -170 -25q-102 0 -229 176l-358 498l2 29l366 381q64 63 64 106zM378 1305q70 0 226 18l-8 -92
q-76 -12 -104 -38t-31 -85q-25 -887 -25 -925q0 -37 18 -65t72 -28l92 6l5 -8l-19 -94q-162 6 -252 6l-235 -2l20 92q96 10 125 39t29 117l2 860q0 66 -15 88t-61 23l-70 -5l-4 9l15 90q150 -6 220 -6z" />
    <glyph glyph-name="L" unicode="L" horiz-adv-x="1038" 
d="M444 0q-166 0 -305 -20l13 94q80 12 110 48t29 124l2 860q0 66 -15 88t-61 23l-70 -5l-4 9l15 90q152 -6 222 -6t226 18l-8 -92q-57 -10 -70 -16q-14 -7 -23 -10q-25 -8 -30 -43q-12 -73 -12 -122q-25 -342 -25 -790q0 -104 30 -131t176 -27t203 51q56 51 91 240l90 10
l6 -10q-37 -186 -59 -389l-10 -12q-355 18 -521 18z" />
    <glyph glyph-name="M" unicode="M" horiz-adv-x="1734" 
d="M336 148q0 -58 63 -58l84 2l4 -8l-18 -92q-131 8 -201 8t-174 -16l10 94q66 8 95 42t37 116q90 821 90 879t-42 85t-137 33l-6 10l17 72q158 -10 223 -10l139 8q174 -559 346 -1016h11q160 426 354 1012q98 -4 135 -4l221 12l4 -8l-10 -76q-88 -10 -125 -36t-37 -77
q0 -158 54 -835q14 -121 32 -158t68 -37l57 4l4 -8l-18 -92q-121 6 -195 6l-213 -16l9 94q121 14 120 102l-69 885h-11l-395 -1090l-49 -14l-397 1104h-10q-70 -859 -70 -917z" />
    <glyph glyph-name="N" unicode="N" horiz-adv-x="1472" 
d="M1139 297v829q0 88 -68 88l-78 -2l-4 9l19 92q126 -8 198 -8t199 16l-10 -94q-72 -10 -105 -40t-35 -89l-28 -1151l-60 -29q-371 575 -761 1129h-11l-10 -875q0 -45 14 -63t50 -19l104 2l4 -8l-18 -92q-129 8 -209 8t-199 -16l10 94q125 14 127 129l27 895q0 63 -38 90
t-140 37l-6 10l16 76q119 -10 176 -10l137 8q303 -471 688 -1016h11z" />
    <glyph glyph-name="O" unicode="O" horiz-adv-x="1417" 
d="M649 -25q-251 1 -409 177t-158 468t194 500t465 209q271 0 433 -176t162 -468t-198 -501t-489 -209zM710 80q198 0 320 148t123 398q0 250 -130 414q-130 166 -329 166q-200 0 -318 -147t-118 -397t127 -416t325 -166z" />
    <glyph glyph-name="P" unicode="P" horiz-adv-x="1128" 
d="M909 909q0 158 -93 231t-292 72q-37 0 -45 -4t-10 -24q-18 -260 -25 -563l218 -31q247 40 247 319zM612 500h-172l-4 -201q0 -139 16 -174t74 -35l111 6l4 -8l-18 -94q1 6 -135 6t-246 -6t-113 -10l14 94q90 16 119 48t29 120l2 860q0 66 -15 88t-61 23l-70 -5l-4 9
l15 90q150 -6 227 -6l258 8q213 0 326 -94q113 -93 113 -269t-144 -313q-143 -137 -326 -137z" />
    <glyph glyph-name="Q" unicode="Q" horiz-adv-x="1427" 
d="M710 80q198 0 320 148t123 398q0 250 -130 414q-130 166 -329 166q-200 0 -318 -147t-118 -397t127 -416t325 -166zM1452 -442q-146 0 -292 76t-511 341q-251 1 -409 177t-158 468t194 500t465 209q271 0 433 -176t162 -441t-141 -458q-140 -193 -361 -254v-10
q397 -270 610 -271q104 0 182 21l8 -6l13 -37q-154 -139 -195 -139z" />
    <glyph glyph-name="R" unicode="R" horiz-adv-x="1251" 
d="M879 954q0 270 -375 271q-20 1 -28 -9t-9 -38q-18 -313 -21 -504l211 -21q76 18 146 90q29 31 52 87q24 56 24 124zM1049 1004q0 -268 -301 -406l225 -356q59 -98 115 -136t139 -38l8 -9l-12 -69l-174 -23q-51 0 -110 52q-58 52 -108 143l-219 397h-170l-6 -305
q0 -112 25 -140t123 -28l4 -8l-19 -86q0 2 -217 6l-235 -6l18 92q96 10 126 42t30 120l2 860q0 66 -15 88t-61 23l-70 -5l-4 9l15 90q150 -6 227 -6l252 8q190 0 301 -86t111 -223z" />
    <glyph glyph-name="S" unicode="S" horiz-adv-x="1085" 
d="M449 -25q-170 0 -322 70l-10 21q25 158 24 356l92 10q1 -221 51 -289q50 -67 197 -67t226 60q77 60 77 158t-92 167q-68 51 -136 86t-70 36q-3 1 -6 3t-80 42t-152 105q-109 90 -109 215q0 162 136 272t335 109q156 0 314 -51l6 -12q-33 -158 -45 -346l-80 -9l-12 11
q6 43 6 106q1 109 -53 150t-179 41q-125 -1 -197 -57t-73 -139q0 -83 71 -143q70 -60 240 -148t236 -146q111 -94 110 -211q0 -176 -141 -288t-364 -112z" />
    <glyph glyph-name="T" unicode="T" horiz-adv-x="1118" 
d="M477 332v893q-96 -4 -138 -6q-42 -3 -90 -15q-47 -12 -61 -22t-33 -46t-25 -67t-15 -102l-97 -9q25 180 31 355l19 16l170 -22h634l175 22l18 -16q4 -133 31 -346l-97 -9q-12 72 -18 105t-25 70q-18 37 -32 47t-58 23t-86 15q-41 2 -127 7q-33 -328 -32 -996
q1 -75 27 -107t89 -32l113 6l6 -8l-18 -94q-205 6 -301 6l-281 -8l16 88q143 12 174 50t31 202z" />
    <glyph glyph-name="U" unicode="U" horiz-adv-x="1394" 
d="M720 92q167 0 255 89t88 257l-12 668q-3 72 -17 91t-59 20l-88 -5l-4 9l14 90q153 -6 225 -6t205 18l-8 -92q-90 -13 -116 -33t-25 -84v-688q0 -215 -134 -333t-361 -118q-228 0 -345 118t-117 335v678q0 66 -15 88t-61 23l-69 -5l-4 9l14 90q154 -6 224 -6t222 18
l-8 -92q-76 -10 -102 -34t-29 -83l-16 -602q0 -202 88 -311t255 -109z" />
    <glyph glyph-name="V" unicode="V" horiz-adv-x="1249" 
d="M256 1305q92 0 285 22l6 -14l-8 -80q-111 -9 -147 -25t-36 -53q0 -68 258 -956h19q340 877 340 942q0 82 -142 82h-106l-4 8l12 88q158 -14 293 -14l225 6l-16 -97q-63 -2 -88 -20t-47 -78l-441 -1106l-131 -45q-182 600 -354 1133q-37 115 -188 116l-4 9l14 88
q168 -6 260 -6z" />
    <glyph glyph-name="W" unicode="W" horiz-adv-x="1908" 
d="M267 1305q105 0 259 22l6 -14l-8 -80q-104 -9 -140 -25t-36 -55q0 -80 252 -954h12l289 786l-37 113q-20 59 -63 86t-121 30l-4 9l14 88q164 -6 260 -6t269 22l6 -14l-8 -80q-107 -9 -143 -25t-36 -53q0 -68 254 -956h13q332 895 331 952q0 72 -139 72h-102l-4 8l14 88
q154 -14 285 -14l217 6l-15 -97q-61 -4 -86 -21t-45 -77l-430 -1106l-127 -45q-117 420 -256 869h-12l-291 -824l-131 -45q-170 602 -342 1133q-37 114 -184 116l-2 9l12 88q164 -6 269 -6z" />
    <glyph glyph-name="X" unicode="X" horiz-adv-x="1343" 
d="M376 1305q120 0 251 16l6 -14l-6 -72q-160 -12 -160 -74q0 -37 231 -389q20 29 82 108t117 160q70 96 70 129q0 49 -119 62l-4 8l12 80q150 -14 225 -14l199 8l8 -15l-12 -75q-88 -19 -137 -59t-142 -154l-247 -314l299 -436q55 -82 119 -122t161 -48l4 -8l-14 -88
q-160 6 -254 6l-317 -16l-7 14l9 80q160 8 159 72q0 31 -41 90l-223 335q-252 -335 -272 -369t-21 -63q0 -53 119 -61l4 -8l-14 -88q-150 14 -225 14l-203 -8l-8 14l14 84q84 26 156 90t176 193l225 278l-268 402q-98 145 -281 170l-4 8l12 80q201 -6 321 -6z" />
    <glyph glyph-name="Y" unicode="Y" horiz-adv-x="1101" 
d="M334 1165q0 -59 171 -413q56 -119 58 -119h10l234 434q33 59 33 102q0 53 -129 62l-4 8l12 80q152 -14 227 -14l189 8l8 -15l-13 -75q-94 -18 -140 -64t-113 -178l-220 -385q-35 -62 -40 -162t-5 -193t18 -122t72 -29l101 6l4 -8l-19 -94q-170 6 -260 6t-233 -25l12 95
q106 20 133 61t27 160v90q0 113 -59 231l-185 375q-70 143 -98 174q-47 51 -160 62l-4 8l12 80q131 -6 226 -6l290 16l7 -14l-7 -72q-91 -9 -123 -24t-32 -46z" />
    <glyph glyph-name="Z" unicode="Z" horiz-adv-x="1163" 
d="M1014 27l-31 -33l-741 12l-144 -12l-28 65l764 1155l-355 -12q-141 -6 -200 -66t-76 -216l-97 -9q33 211 37 400l21 18l358 -22l529 -15l22 -59q-391 -520 -790 -1151l415 14q106 2 172 84t99 256l96 10q-41 -222 -51 -419z" />
    <glyph glyph-name="bracketleft" unicode="[" horiz-adv-x="632" 
d="M569 -281l-372 23q23 565 22 770l-22 776l376 23l9 -13l-13 -63l-233 -49v-1342l237 -49l9 -14z" />
    <glyph glyph-name="backslash" unicode="\" horiz-adv-x="673" 
d="M76 1362l16 20h94q281 -1094 323 -1244t101 -347l-14 -16h-98q-86 328 -172 665z" />
    <glyph glyph-name="bracketright" unicode="]" horiz-adv-x="632" 
d="M63 1311l373 -23q-23 -565 -22 -770l22 -776l-377 -23l-8 13l12 63l234 49v1342l-238 49l-8 14z" />
    <glyph glyph-name="asciicircum" unicode="^" 
d="M553 985l22 -16q106 -256 173 -406l174 -385l-82 -61l-23 2q-180 416 -305 715h-12l-273 -713l-102 14l-10 19q78 203 342 827z" />
    <glyph glyph-name="underscore" unicode="_" horiz-adv-x="937" 
d="M481 -178q165 0 311 5t146 7l12 -20l-16 -105l-934 -4l-12 19l22 100q307 -2 471 -2z" />
    <glyph glyph-name="grave" unicode="`" horiz-adv-x="815" 
d="M147 1352l-2 22l78 84l21 4q160 -193 307 -352l-41 -39l-18 -4q-138 127 -345 285z" />
    <glyph glyph-name="a" unicode="a" 
d="M485 442q72 0 150 9l-125 397h-14l-150 -406h139zM818 0q-78 0 -240 -14l-7 10l7 74q86 6 116 18t29 43q0 31 -14 68l-50 157q-41 2 -135 2t-211 -12q-72 -190 -71 -209q0 -61 96 -61h88l6 -8l-12 -78q-125 10 -236 10l-188 -4l12 84q45 6 72 32t53 87l322 813l145 26
l14 -2q143 -516 260 -846q20 -58 52 -82t102 -30l4 -8l-10 -74q-126 4 -204 4z" />
    <glyph glyph-name="b" unicode="b" horiz-adv-x="1060" 
d="M729 752q0 186 -280 186q-17 0 -27 -14t-16 -355q170 -14 186 -9q49 15 84 54q53 52 53 138zM575 84q98 0 153 49q54 49 54 135q0 164 -211 201l-170 -2l-6 -279q0 -56 41 -80t139 -24zM891 782q0 -82 -52 -148t-139 -97q113 -23 184 -85t70 -155q0 -131 -118 -222
t-287 -91l-234 16q-90 0 -204 -18l10 84q77 14 103 42t26 93l2 655q0 48 -12 66t-47 18l-58 -2l-6 8l12 78q137 -4 199 -4l213 8q162 0 250 -63t88 -183z" />
    <glyph glyph-name="c" unicode="c" horiz-adv-x="1097" 
d="M572 -18q-218 0 -353 133t-135 371t165 396q165 157 423 156q131 0 299 -39l8 -12q-33 -123 -43 -278l-102 -7q4 41 4 80q0 143 -230 144q-160 0 -252 -106t-92 -300q0 -196 97 -316t262 -120q211 0 266 242l102 8q-33 -152 -43 -273l-12 -16q-146 -63 -364 -63z" />
    <glyph glyph-name="d" unicode="d" horiz-adv-x="1220" 
d="M477 930q-33 0 -44 -7t-13 -30q-25 -575 -25 -667t39 -118q39 -28 156 -28q172 0 269 113t97 317t-123 312t-356 108zM311 0q-88 0 -198 -18l10 86q75 12 101 41t26 94l2 651q0 50 -12 68t-47 18l-58 -4l-4 10l12 78q121 -4 185 -4l258 6q250 0 400 -130t151 -359
q0 -229 -167 -392t-415 -163q-156 18 -244 18z" />
    <glyph glyph-name="e" unicode="e" horiz-adv-x="1040" 
d="M546 475q-73 0 -145 -10q-6 -156 -6 -251q-1 -94 19 -110t130 -16t166 13t81 51t38 129l91 8l8 -10q-31 -135 -45 -279l-13 -10q-340 10 -484 10t-275 -16l10 86q77 8 103 36t26 99l2 649q0 50 -12 68t-50 18l-55 -2l-4 8l12 78q145 -4 369 -4t389 18l6 -10
q-29 -127 -39 -274l-98 -9q4 45 4 68q0 76 -39 93q-39 18 -161 18t-138 -10t-18 -50l-12 -291l167 -2l203 17l8 -10l-24 -107q-141 4 -214 4z" />
    <glyph glyph-name="f" unicode="f" horiz-adv-x="913" 
d="M318 0q-93 0 -207 -18l10 84q77 14 103 42t26 97l2 649q0 50 -12 68t-50 18l-55 -2l-4 8l12 78q145 -4 357 -4t366 18l8 -10q-29 -131 -38 -278l-99 -7q4 49 4 70q0 74 -34 92q-35 19 -145 19t-126 -10t-18 -50l-15 -317l170 -2l177 16l8 -10l-23 -109q-127 4 -195 4
t-139 -10l-6 -241q1 -63 15 -85t59 -22l115 6l6 -10l-15 -90q-164 6 -257 6z" />
    <glyph glyph-name="g" unicode="g" horiz-adv-x="1159" 
d="M616 84q117 0 213 53v180q0 51 -17 67t-71 17h-108l-4 9l16 90l217 -4l152 8l8 -45q-33 -25 -44 -76t-11 -160t10 -155l-10 -17q-167 -69 -391 -69t-358 134t-134 374t162 395q162 154 430 153q137 0 328 -39l8 -12q-35 -123 -43 -274l-101 -8q4 43 4 86q0 71 -55 103
t-180 32q-181 0 -279 -102t-98 -301t96 -319t260 -120z" />
    <glyph glyph-name="h" unicode="h" horiz-adv-x="1308" 
d="M1051 190q0 -66 14 -88t57 -20l72 4l6 -8l-16 -82q-133 4 -215 4l-205 -2l16 82q76 0 101 32t24 130v229q-164 2 -235 2l-269 -16l-6 -267q1 -66 15 -88t57 -22l72 6l4 -8l-15 -82q-98 4 -167 4t-159 -6t-91 -12l10 84q77 14 103 42t26 95l2 651q0 50 -12 68t-50 18
l-55 -2l-6 8l12 78q125 -4 191 -4l198 14l-8 -84q-70 -10 -87 -32t-21 -103l-11 -248l267 -2q109 0 235 15l2 274q0 50 -12 68t-49 18l-58 -2l-4 8l13 78q0 -4 176 -4l213 14l-6 -84q-64 -8 -84 -25t-23 -65q-22 -398 -22 -670z" />
    <glyph glyph-name="i" unicode="i" horiz-adv-x="653" 
d="M395 190q1 -66 15 -88t57 -22l84 6l4 -8l-14 -82q-150 4 -234 4t-198 -18l10 84q79 14 105 42t26 95l2 651q0 50 -12 68t-50 18l-67 -2l-4 8l10 78l209 -4l205 14l-8 -84q-68 -8 -91 -25t-26 -65q-23 -401 -23 -670z" />
    <glyph glyph-name="j" unicode="j" horiz-adv-x="598" 
d="M231 188l2 666q0 52 -12 68t-49 16l-76 -4l-6 8l12 78h189l211 14l-8 -84q-58 -8 -74 -24t-21 -66q-20 -477 -21 -660q-1 -184 -70 -282t-220 -154l-33 58l4 14q100 61 137 134q35 73 35 218z" />
    <glyph glyph-name="k" unicode="k" horiz-adv-x="1112" 
d="M778 895q0 43 -100 49l-4 8l12 78q127 -10 191 -10l165 6l9 -12l-13 -74q-45 -12 -85 -42t-115 -107l-246 -244l266 -340q60 -74 106 -105t103 -32l8 -11l-10 -63q-133 -18 -154 -19q-90 0 -188 136l-283 391l2 26l287 285q49 45 49 80zM395 153q0 -75 72 -73l72 6l4 -8
l-15 -82q-141 4 -215 4l-202 -2l16 82q79 8 101 31t22 92l2 651q0 50 -12 68t-50 18l-55 -2l-6 8l12 78q137 -4 197 -4l192 14l-6 -84q-63 -10 -86 -29q-22 -20 -24 -65q-18 -674 -19 -703z" />
    <glyph glyph-name="l" unicode="l" horiz-adv-x="905" 
d="M393 0q-141 0 -268 -16l12 86q65 10 89 38t24 97l2 649q0 50 -12 68t-50 18l-55 -2l-6 8l12 78l199 -4l199 14l-9 -86q-86 -10 -100 -45q-8 -16 -21 -191t-14 -509q0 -74 24 -94q25 -21 137 -21t157 41t71 193l90 10l7 -13q-29 -154 -47 -321l-11 -12q-289 14 -430 14z
" />
    <glyph glyph-name="m" unicode="m" horiz-adv-x="1464" 
d="M1214 0q-42 0 -215 -12l9 84q54 6 76 24t22 56l-51 641h-11q-121 -309 -307 -809l-59 -13q-207 561 -309 822h-11q-51 -621 -51 -666t53 -45h66l4 -6l-14 -82q-117 6 -174 6l-150 -12l8 84q53 6 76 32t31 89q72 573 72 673q0 40 -32 60t-110 24l-6 11l14 67
q135 -8 191 -8l133 6q135 -422 264 -747h10q125 319 273 743h31l104 -2l178 10l4 -6l-10 -72q-73 -8 -101 -27t-28 -61q0 -141 43 -633q11 -93 27 -121t55 -28l47 2l4 -6l-14 -82q-100 4 -142 4z" />
    <glyph glyph-name="n" unicode="n" horiz-adv-x="1257" 
d="M889 938h-62l-4 8l15 80q113 -6 174 -6l174 12l-8 -84q-111 -14 -113 -102l-25 -881l-79 -22q-315 459 -592 825h-11l-6 -621q0 -39 12 -53t42 -14l81 2l7 -6l-17 -82q-115 6 -186 6l-170 -12l10 84q100 12 102 100l23 676q0 50 -30 70t-113 30l-9 10l15 70
q100 -8 155 -8l125 6q248 -365 537 -747h10l-2 591q0 68 -55 68z" />
    <glyph glyph-name="o" unicode="o" horiz-adv-x="1198" 
d="M84 486q0 232 158 392t384 160t357 -135t131 -367t-160 -394q-160 -160 -385 -160t-355 136t-130 368zM601 80q153 0 245 108t92 298t-98 314t-251 124t-242 -106t-89 -298t95 -316t248 -124z" />
    <glyph glyph-name="p" unicode="p" horiz-adv-x="980" 
d="M762 707q0 115 -72 169t-227 54q-29 0 -35 -3t-8 -22q-16 -260 -19 -413l170 -23q191 31 191 238zM928 733q0 -137 -119 -245t-270 -107h-142l-2 -143q1 -102 13 -129t61 -27l88 4l4 -8l-16 -82q-111 4 -173 4t-156 -4t-97 -8l12 84q71 12 95 38t24 93l2 651q0 50 -12 68
t-47 18l-58 -2l-6 8l12 78l193 -4l223 6q183 0 277 -78t94 -215z" />
    <glyph glyph-name="q" unicode="q" horiz-adv-x="1208" 
d="M601 80q153 0 245 108t92 298t-98 314t-251 124t-242 -106t-89 -298t95 -316t248 -124zM1221 -203q68 0 137 17l8 -9l12 -41q-139 -117 -176 -116q-120 0 -236 60t-411 274q-211 0 -341 136t-130 368t158 392t384 160t357 -135t131 -343t-108 -354t-285 -198v-10
q316 -201 500 -201z" />
    <glyph glyph-name="r" unicode="r" horiz-adv-x="1083" 
d="M741 739q0 199 -292 199q-29 0 -29 -37q-16 -250 -17 -369l166 -16q172 70 172 223zM907 782q0 -211 -241 -319l174 -262q49 -74 94 -105t108 -30l9 -11l-11 -63l-157 -17q-96 0 -178 150l-173 301h-133l-4 -219q-1 -84 19 -106t102 -23l4 -6l-16 -78q0 4 -189 4l-204 -6
l14 84q77 10 101 35t24 92l2 653q0 48 -12 66t-47 18l-58 -2l-6 8l12 78q129 -4 193 -4l219 6q166 0 260 -69t94 -175z" />
    <glyph glyph-name="s" unicode="s" horiz-adv-x="940" 
d="M674 807q0 125 -180 125q-96 0 -152 -40t-57 -101q0 -61 56 -105t144 -85q88 -42 116 -55t79 -45q141 -88 140 -217q-1 -128 -120 -215t-290 -87t-291 55l-10 18q23 129 22 277l92 8q0 -160 41 -210t154 -50t173 43t60 113t-73 120q-43 29 -165 88t-200 119
q-86 70 -86 172q0 131 115 217t272 86t279 -39l8 -14q-29 -125 -39 -270l-80 -8l-12 8q4 31 4 92z" />
    <glyph glyph-name="t" unicode="t" horiz-adv-x="970" 
d="M408 260v678q-164 -6 -209 -29t-68 -176l-96 -6q20 156 24 297l17 14l145 -16h522l150 16l16 -14q4 -150 23 -291l-94 -6q-16 112 -36 141q-18 29 -28 39q-23 24 -199 31q-27 -248 -26 -748q1 -59 23 -84t73 -24l90 4l6 -6l-14 -86q-178 6 -258 6l-244 -8l15 82
q116 8 142 38t26 148z" />
    <glyph glyph-name="u" unicode="u" horiz-adv-x="1177" 
d="M608 88q262 0 262 252l-8 514q-4 54 -14 70t-45 16l-70 -2l-2 6l12 80q127 -4 191 -4l172 12l-6 -82q-72 -10 -92 -26t-21 -62v-524q1 -170 -109 -263t-301 -93t-287 90q-95 90 -95 260v522q-1 50 -13 68t-49 18l-55 -2l-4 6l12 80q131 -4 203 -4l182 12l-8 -82
q-59 -8 -79 -26t-26 -64l-12 -469q0 -145 68 -224t194 -79z" />
    <glyph glyph-name="v" unicode="v" horiz-adv-x="1075" 
d="M811 885q0 59 -109 59h-81l-5 8l11 78q131 -10 241 -10l189 4l-15 -84q-49 -2 -68 -17t-38 -63l-346 -852l-152 -35q-150 494 -278 873q-29 88 -148 94l-4 6l12 78q137 -4 199 -4l260 16l6 -12l-6 -74q-90 -6 -118 -18t-27 -41q0 -51 196 -719h19q72 172 167 426t95 287z
" />
    <glyph glyph-name="w" unicode="w" horiz-adv-x="1624" 
d="M240 1020q84 0 227 16l6 -12l-8 -74q-86 -6 -113 -18t-26 -43q0 -57 192 -717h12q41 100 122 322t104 280q-4 12 -12 33t-19 57q-20 68 -141 76l-4 6l12 78q138 -4 216 -4t234 16l7 -12l-7 -74q-86 -6 -114 -18t-27 -52q0 -40 193 -708h14q66 160 160 423t94 294t-24 43
t-83 12h-77l-4 8l12 78q129 -10 233 -10l183 4l-13 -84q-47 -4 -66 -18t-36 -62l-338 -852l-145 -35q-16 98 -195 643h-10l-224 -608l-147 -35q-141 494 -270 873q-29 88 -144 94q0 2 -4 6l13 78q133 -4 217 -4z" />
    <glyph glyph-name="x" unicode="x" horiz-adv-x="1159" 
d="M756 125q0 20 -33 65l-174 244l-143 -180q-78 -96 -78 -131q0 -41 92 -47l6 -8l-12 -78q-131 10 -193 10l-174 -6l-6 12l10 76q66 18 125 70t141 147l181 215l-211 295q-78 113 -226 133l-4 8l11 74q158 -4 247 -4l236 12l4 -12l-6 -68q-123 -6 -123 -53q0 -31 180 -285
q12 18 110 136t97 156q0 36 -94 44l-4 6l10 74l195 -10l170 6l6 -12l-11 -70q-75 -18 -115 -50t-112 -118l-196 -241l233 -320q90 -123 227 -133l4 -6l-12 -80q-135 4 -211 4l-270 -12l-6 12l6 72q123 6 123 53z" />
    <glyph glyph-name="y" unicode="y" horiz-adv-x="972" 
d="M553 213q0 -86 15 -109t61 -22l82 4l4 -6l-17 -86q-152 6 -236 6t-202 -18l12 84q90 14 113 45t23 120v64q0 86 -50 176q-190 365 -208 393q-45 68 -152 78l-4 8l12 74q117 -4 193 -4l245 12l7 -12l-7 -68q-70 -4 -96 -15t-24 -42q0 -31 176 -383h10l176 315q27 47 27 78
q0 39 -101 45l-4 6l10 74l197 -10l160 6l6 -12l-10 -70q-78 -16 -112 -52t-105 -155l-166 -282q-23 -39 -29 -97t-6 -145z" />
    <glyph glyph-name="z" unicode="z" horiz-adv-x="1003" 
d="M868 23l-26 -27l-621 8l-121 -10l-26 57l616 883l-270 -10q-115 -6 -161 -52t-58 -161l-95 -9q27 174 29 322l19 16l295 -18l446 -10l23 -51q-371 -467 -637 -881l319 14q86 4 138 66t77 192l96 10q-35 -185 -43 -339z" />
    <glyph glyph-name="braceleft" unicode="{" horiz-adv-x="632" 
d="M293 710q0 52 -42 185t-42 197q0 100 69 169t189 68l117 -12l6 -10l-17 -62q-59 10 -108 10t-80 -40t-31 -93t28 -187t28 -187q0 -156 -150 -205v-13q150 -55 150 -215q0 -55 -28 -192t-28 -191t31 -92q31 -39 96 -39l103 13l6 -13l-17 -57q-49 -16 -110 -16
q-117 0 -185 68t-69 169q0 66 42 195t42 166q0 135 -199 180l8 43q83 22 137 65q54 44 54 96z" />
    <glyph glyph-name="bar" unicode="|" horiz-adv-x="761" 
d="M438 1653l23 -13q-12 -705 -12 -1044l2 -1124l-121 -23l-19 12q0 39 4 2169z" />
    <glyph glyph-name="braceright" unicode="}" horiz-adv-x="632" 
d="M340 347q0 -52 42 -185t42 -197q0 -100 -69 -169t-189 -68l-117 12l-6 10l16 62q59 -10 109 -10t80 39q31 40 31 93q0 54 -28 188t-28 187q0 156 150 205v12q-150 55 -150 215q0 55 28 193t28 190t-31 92t-96 39l-103 -12l-6 12l16 58q49 16 111 16q118 -1 186 -69
t68 -168q0 -66 -42 -195t-42 -166q0 -135 199 -180l-9 -43q-82 -23 -136 -66t-54 -95z" />
    <glyph glyph-name="asciitilde" unicode="~" 
d="M766 569q43 0 111 86l20 27h12l45 -43v-10l-155 -183l-33 -8q-57 0 -252 44t-227 44q-57 0 -119 -84l-23 -28h-12l-45 43v10l156 182l32 8q57 0 252 -44t238 -44z" />
    <glyph glyph-name="nbspace" unicode="&#xa0;" horiz-adv-x="413" 
 />
    <glyph glyph-name="exclamdown" unicode="&#xa1;" horiz-adv-x="583" 
d="M367 496l16 -934l-14 -21l-170 -37l-19 23l107 971l57 14zM343 950q56 0 86 -34t30 -85t-35 -88t-91 -37t-87 34t-31 85t36 88t92 37z" />
    <glyph glyph-name="cent" unicode="&#xa2;" horiz-adv-x="868" 
d="M302 746q-64 -90 -64 -240t48 -245t132 -130l67 709q-118 -5 -183 -94zM530 113q84 0 218 67l12 -4l22 -63q-180 -138 -280 -138q-23 0 -33 2l-27 -286l-53 -6l-10 14l27 287q-154 28 -243 146t-89 309t120 337t302 168l36 393l54 9l12 -19l-37 -379q119 -4 225 -39
l7 -14q-37 -123 -43 -283l-84 -6v64q0 61 -31 103t-84 56l-70 -716q12 -2 49 -2z" />
    <glyph glyph-name="sterling" unicode="&#xa3;" horiz-adv-x="1075" 
d="M965 156q0 -70 -45 -125t-114 -55t-249 46t-266 46t-168 -62l-14 8l-31 70q213 141 213 334v98q-2 48 -27 64t-102 20l-8 12l14 70l123 23v34q0 219 109 353q110 133 290 133q143 0 211 -31l10 -23l-47 -129l-39 -6q-125 68 -211 68q-178 0 -186 -254l-6 -160l330 6l6 -6
l-21 -108q-162 6 -319 6l-4 -162q-10 -166 -131 -266l112 22q61 0 183 -22t170 -23q139 0 153 154l37 -4q27 -61 27 -131z" />
    <glyph glyph-name="currency" unicode="&#xa4;" horiz-adv-x="909" 
d="M248 735q0 -84 58 -142t142 -58t144 58q59 58 59 142q0 83 -59 143t-143 60t-143 -59q-58 -60 -58 -144zM150 736q0 95 55 173l-144 142l5 24l79 53q66 -70 138 -141q76 49 166 49t165 -49l140 154l26 -6l56 -82l-144 -142q58 -76 58 -169t-48 -167l146 -135l-6 -22
l-82 -62l-135 136q-78 -56 -175 -56t-176 56l-137 -138l-22 6l-47 80q65 61 133 127q-51 74 -51 169z" />
    <glyph glyph-name="yen" unicode="&#xa5;" horiz-adv-x="1124" 
d="M268 1028q72 0 254 14l10 -20l-6 -70q-82 -8 -106 -18t-23 -32q0 -22 25 -73h-2l164 -321l190 326q27 46 27 76t-109 40l-2 15l10 75q127 -12 201 -12l164 6l10 -14l-12 -76q-96 -14 -134 -63t-151 -234l236 4l12 -18l-6 -62h-289l-72 -116q-16 -35 -20 -80l375 8l12 -18
l-6 -62h-383l-2 -119q0 -58 13 -78t52 -20l95 4l4 -16l-19 -78q-147 4 -223 4t-207 -20l10 88q96 16 116 51t20 104v80l-369 -2l-10 14l10 60h362q-18 66 -43 108l-49 88l-270 -2l-10 15l10 59h229q-82 160 -97 185q-50 83 -106 101q-34 11 -85 13l-5 19l15 73
q118 -6 190 -6z" />
    <glyph glyph-name="brokenbar" unicode="&#xa6;" horiz-adv-x="761" 
d="M313 758l2 872l123 23l23 -13q-10 -510 -12 -870l-127 -18zM311 340l131 25l7 -7l2 -886l-121 -23l-19 12v879z" />
    <glyph glyph-name="section" unicode="&#xa7;" horiz-adv-x="1048" 
d="M186 784q0 -78 76 -160t170 -144q94 -64 184 -154t113 -179q129 82 129 199t-174 248q-74 57 -152 115q-188 143 -217 270q-129 -78 -129 -195zM72 715q0 92 63 181t174 155q8 115 95 197t206 81q80 0 142 -31q62 -30 61 -68q0 -38 -13 -92t-26 -69h-29q-29 70 -88 115
t-114 45t-88 -36t-33 -98t57 -128t139 -121q82 -54 163 -114t139 -139t57 -174q0 -95 -68 -195t-172 -152q-4 -100 -105 -194t-219 -93q-118 0 -187 47t-68 117q0 45 10 101t20 73h31q20 -109 86 -175t144 -67q77 0 123 43t46 109q0 67 -56 131t-137 120t-161 116t-136 141
q-56 82 -56 174z" />
    <glyph glyph-name="dieresis" unicode="&#xa8;" horiz-adv-x="815" 
d="M229 1159q-41 0 -63 27q-22 28 -23 66q0 38 30 68t71 30q42 0 64 -26t22 -66t-30 -69q-30 -30 -71 -30zM569 1159q-41 0 -63 27q-22 28 -23 66q0 38 30 68t71 30q42 0 64 -26t22 -66t-30 -69q-30 -30 -71 -30z" />
    <glyph glyph-name="copyright" unicode="&#xa9;" horiz-adv-x="1419" 
d="M172 600q0 -225 157 -384t380 -159t381 159t157 384q0 225 -157 384q-158 159 -381 159t-380 -159t-157 -384zM86 600q0 258 182 441t442 183t441 -182q182 -184 182 -442t-182 -441t-441 -183q-260 0 -442 182q-182 184 -182 442zM684 268q-139 0 -218 90t-79 238
t97 250t257 102q82 0 197 -24l4 -9q-20 -80 -27 -184l-67 -4q2 27 2 49q0 90 -131 90q-93 0 -145 -62t-52 -188t50 -200t151 -74q69 0 107 37t55 117l65 4q-23 -100 -26 -178l-9 -15q-92 -39 -231 -39z" />
    <glyph glyph-name="ordfeminine" unicode="&#xaa;" horiz-adv-x="657" 
d="M281 817q41 0 98 47l4 127l-156 -45q-35 -10 -35 -46t24 -60t65 -23zM387 1094q0 125 -123 125q-63 0 -125 -48l-20 -14l-10 4l-19 68q168 96 227 96q99 0 151 -47t52 -125l-24 -279q0 -55 49 -55q37 0 71 27l19 -25q-57 -98 -121 -119q-115 0 -125 103l-8 2
q-102 -98 -145 -98q-74 0 -124 50t-51 131q0 81 74 101l250 62z" />
    <glyph glyph-name="guillemotleft" unicode="&#xab;" horiz-adv-x="874" 
d="M393 819l45 -31l2 -20l-219 -305l219 -318l-2 -20l-45 -31q-139 143 -352 340v31q196 186 352 354zM733 819l45 -31l2 -20l-219 -305l219 -318l-2 -20l-45 -31q-139 143 -352 340v31q196 186 352 354z" />
    <glyph glyph-name="logicalnot" unicode="&#xac;" 
d="M926 608l12 -20q-14 -129 -16 -226l2 -278l-101 -23l-18 13q2 229 2 409l-758 -4l-12 19l22 100q307 -2 490 -2z" />
    <glyph glyph-name="registered" unicode="&#xae;" horiz-adv-x="958" 
d="M440 1223q-12 0 -12 -17q-4 -94 -4 -141l59 -6q63 25 64 86q0 78 -107 78zM342 963v227q0 37 -25 37h-22l-4 8l6 35q61 -2 88 -2h23l63 4q78 0 122 -30t44 -83q0 -84 -98 -129l59 -88q43 -66 84 -65l6 -9q0 -26 -16 -30t-60 -4t-80 65l-59 113h-51q-2 -29 -2 -68t7 -48
t42 -9l4 -8l-4 -35q-37 2 -66 2h-24l-92 -4l4 43q35 3 43 17t8 61zM133 1038q0 -143 101 -244q100 -102 244 -102t246 102t101 244q0 142 -101 244q-100 102 -244 102t-246 -101q-101 -102 -101 -245zM61 1038q0 174 122 296t296 122t296 -122t122 -296t-122 -296t-296 -122
t-296 122t-122 296z" />
    <glyph glyph-name="macron" unicode="&#xaf;" horiz-adv-x="815" 
d="M702 1337l13 -20l-15 -96l-585 -4l-13 18l21 92q195 -2 315 -2z" />
    <glyph glyph-name="degree" unicode="&#xb0;" horiz-adv-x="618" 
d="M137 1071q0 -72 50 -122t122 -50t122 50t50 122t-50 122t-122 50t-122 -50t-50 -122zM51 1071q0 109 75 183q76 74 184 75q108 0 183 -75q75 -76 75 -184t-76 -182q-74 -74 -183 -75q-109 1 -183 75t-75 183z" />
    <glyph glyph-name="plusminus" unicode="&#xb1;" 
d="M530 -37q164 0 310 5t147 7l12 -20l-16 -105l-934 -4l-12 19l22 100q307 -2 471 -2zM983 510l-414 -2l2 -377l-100 -22l-18 12q2 211 2 387l-406 -2l-12 18l22 101q217 -2 396 -2l2 391l104 16l21 -12q-12 -231 -13 -395l418 12l12 -21z" />
    <glyph glyph-name="two.sups" unicode="&#xb2;" horiz-adv-x="673" 
d="M385 1276q0 94 -109 94t-184 -127h-14l-21 84q41 70 115 117t160 47t146 -48q125 -100 -5 -311q-66 -108 -229 -298l6 -11h168q66 0 92 23t43 94l78 8q-29 -127 -39 -227l-19 -12q-307 10 -426 10l-86 -14l-12 51l141 157q195 240 195 363z" />
    <glyph glyph-name="three.sups" unicode="&#xb3;" horiz-adv-x="600" 
d="M381 952q0 119 -213 119l-10 10l-8 66l86 18q109 53 108 135q0 39 -25 62t-65 22q-76 0 -148 -57h-14l-20 76q30 23 100 55t140 33q70 0 122 -43q51 -43 51 -105q0 -119 -143 -186v-10q178 -49 178 -180q0 -93 -116 -179t-244 -86q-51 0 -73 27t-24 90l13 15
q153 -44 249 21q56 38 56 97z" />
    <glyph glyph-name="acute" unicode="&#xb4;" horiz-adv-x="815" 
d="M670 1376l-2 -22q-172 -131 -344 -287l-19 4l-41 39q150 162 307 354l21 -4z" />
    <glyph glyph-name="mu" unicode="&#xb5;" horiz-adv-x="1064" 
d="M909 121q55 0 123 51l29 -33q-45 -71 -96 -117t-82 -47q-172 0 -183 158l-12 4q-168 -141 -264 -162q-86 0 -154 54l-10 -6q-8 -197 -8 -253t16 -221l-10 -14l-135 -31l-14 25q23 291 30 621l13 522q0 111 -15 225l10 14l179 39l12 -24q-18 -52 -36 -234t-17 -379
q0 -197 172 -196q97 0 229 114v478l-14 190l10 14l176 37l12 -24q-18 -47 -31 -255t-14 -456q0 -94 84 -94z" />
    <glyph glyph-name="mu" unicode="&#x3bc;" horiz-adv-x="1064" 
d="M909 121q55 0 123 51l29 -33q-45 -71 -96 -117t-82 -47q-172 0 -183 158l-12 4q-168 -141 -264 -162q-86 0 -154 54l-10 -6q-8 -197 -8 -253t16 -221l-10 -14l-135 -31l-14 25q23 291 30 621l13 522q0 111 -15 225l10 14l179 39l12 -24q-18 -52 -36 -234t-17 -379
q0 -197 172 -196q97 0 229 114v478l-14 190l10 14l176 37l12 -24q-18 -47 -31 -255t-14 -456q0 -94 84 -94z" />
    <glyph glyph-name="paragraph" unicode="&#xb6;" horiz-adv-x="1148" 
d="M965 1217q-41 1 -72 -17t-35 -76q-23 -147 -22 -809q0 -211 -32 -305t-73 -135q-90 -90 -270 -90q-115 0 -195 49t-80 142t78 184h31q0 -135 53 -207t144 -72q126 0 166 85t40 308v910q-2 20 -9 24t-46 4q-100 0 -150 -82q-51 -82 -51 -223t33 -240t109 -202v-31
q-215 18 -357 138q-141 120 -141 339q0 170 118 286t314 116l264 -8l256 6l-12 -86l-4 -8h-57z" />
    <glyph glyph-name="periodcentered" unicode="&#xb7;" horiz-adv-x="487" 
d="M239 344q-56 0 -86 34t-30 85t35 88t91 37t87 -34t31 -85t-36 -88t-92 -37z" />
    <glyph glyph-name="cedilla" unicode="&#xb8;" horiz-adv-x="815" 
d="M588 -285q0 -78 -79 -135t-149 -57t-114 20q-44 19 -43 53q0 34 51 115h18q2 -55 33 -86t76 -31t74 22t28 56q0 53 -174 154l68 221h88l-51 -149q8 -6 36 -24q86 -57 107 -89q31 -37 31 -70z" />
    <glyph glyph-name="one.sups" unicode="&#xb9;" horiz-adv-x="509" 
d="M322 879q0 -49 13 -69t48 -19l66 4l4 -7l-15 -73q-115 4 -180 4l-186 -14l8 71q63 4 90 27t27 78v428q1 45 -15 58t-53 13l-68 -6l-6 6l6 66q109 14 149 19t74 11t45 8q11 1 18 3t11 2l13 2h2l10 -31q-41 -37 -49 -104q-12 -229 -12 -477z" />
    <glyph glyph-name="ordmasculine" unicode="&#xba;" horiz-adv-x="692" 
d="M352 786q137 0 137 193q0 119 -42 185t-109 67q-137 0 -137 -193q0 -118 42 -185t109 -67zM57 1001q0 137 88 231t216 93q128 0 201 -80t73 -218t-87 -231q-87 -94 -215 -94t-202 81t-74 218z" />
    <glyph glyph-name="guillemotright" unicode="&#xbb;" horiz-adv-x="874" 
d="M141 94l-45 31l-2 20l219 306l-219 317l2 20l45 31q139 -143 353 -340v-30q-197 -187 -353 -355zM481 94l-45 31l-2 20l219 306l-219 317l2 20l45 31q139 -143 353 -340v-30q-197 -187 -353 -355z" />
    <glyph glyph-name="onequarter" unicode="&#xbc;" horiz-adv-x="1402" 
d="M1102 311v256h-12l-185 -256h197zM1229 311h112l11 -14l-13 -90l-110 4l8 -199l-8 -12l-125 -14l-10 12q8 119 8 215l-316 6l5 70l352 481l6 2l80 -12v-449zM1194 1350l10 -29q-356 -530 -536 -819l-441 -697l-77 39l-11 25q272 414 975 1520zM322 707q0 -49 13 -69
t48 -20l66 5l4 -7l-15 -73q-115 4 -180 4l-186 -15l8 72q63 4 90 27t27 78v428q1 45 -15 58t-53 13l-68 -6l-6 6l6 66q109 14 149 19t74 11t45 8q11 1 18 3t11 2l13 2h2l10 -31q-41 -37 -49 -104q-12 -229 -12 -477z" />
    <glyph glyph-name="onehalf" unicode="&#xbd;" horiz-adv-x="1460" 
d="M1171 557q-1 94 -109 94t-183 -127h-15l-20 84q41 70 114 117q74 47 160 47t146 -48t61 -126t-65 -186t-230 -297l6 -11h168q66 0 92 23t43 94l78 8q-29 -127 -39 -227l-18 -12q-307 10 -426 10l-86 -14l-12 51l141 158q194 239 194 362zM1194 1350l10 -29
q-356 -530 -536 -819l-441 -697l-77 39l-11 25q272 414 975 1520zM322 707q0 -49 13 -69t48 -20l66 5l4 -7l-15 -73q-115 4 -180 4l-186 -15l8 72q63 4 90 27t27 78v428q1 45 -15 58t-53 13l-68 -6l-6 6l6 66q109 14 149 19t74 11t45 8q11 1 18 3t11 2l13 2h2l10 -31
q-41 -37 -49 -104q-12 -229 -12 -477z" />
    <glyph glyph-name="threequarters" unicode="&#xbe;" horiz-adv-x="1411" 
d="M1110 311v256h-12l-185 -256h197zM1237 311h113l10 -14l-12 -90l-111 4l8 -199l-8 -12l-125 -14l-10 12q8 119 8 215l-315 6l4 70l352 481l6 2l80 -12v-449zM1202 1350l10 -29q-356 -530 -536 -819l-440 -697l-78 39l-11 25q272 414 975 1520zM381 780q0 119 -213 119
l-10 10l-8 66l86 18q109 53 108 135q0 39 -25 62t-65 22q-76 0 -148 -57h-14l-20 76q30 23 100 55t140 33q70 0 122 -43q51 -43 51 -105q0 -119 -143 -186v-10q178 -49 178 -180q0 -93 -116 -179t-244 -86q-51 0 -73 27t-24 90l13 15q153 -44 249 21q56 38 56 97z" />
    <glyph glyph-name="questiondown" unicode="&#xbf;" horiz-adv-x="737" 
d="M443 950q56 0 86 -34t30 -85t-35 -88t-91 -37t-87 34t-31 85t36 88t92 37zM199 -96q0 -236 415 -260l4 -23l-67 -108l-29 -9q-190 6 -324 104t-134 231q0 134 71 210q72 76 157 131q85 56 111 74l7 18l-43 195l6 16l125 35l18 -8l49 -246l-6 -28l-244 -156
q-116 -80 -116 -176z" />
    <glyph glyph-name="Agrave" unicode="&#xc0;" horiz-adv-x="1183" 
d="M299 1591l-8 21l33 98l18 12q215 -123 408 -223l-13 -49l-16 -10zM553 559q74 0 190 10l-161 537h-15l-194 -547h180zM858 154q0 40 -18 96l-68 223q-49 2 -180 2t-256 -16l-76 -213q-18 -55 -18 -80q0 -84 123 -84h116l4 -8l-12 -88q-150 14 -285 14l-225 -6l17 96
q57 6 92 40t67 118l400 1046l129 35h16q172 -637 326 -1098q26 -77 66 -107t130 -38l4 -8l-14 -84q-146 6 -252 6t-270 -20l-6 14l8 80q104 8 143 24t39 56z" />
    <glyph glyph-name="Aacute" unicode="&#xc1;" horiz-adv-x="1183" 
d="M932 1612l-8 -21q-207 -70 -422 -151l-17 10l-12 49l408 223l18 -12zM553 559q74 0 190 10l-161 537h-15l-194 -547h180zM858 154q0 40 -18 96l-68 223q-49 2 -180 2t-256 -16l-76 -213q-18 -55 -18 -80q0 -84 123 -84h116l4 -8l-12 -88q-150 14 -285 14l-225 -6l17 96
q57 6 92 40t67 118l400 1046l129 35h16q172 -637 326 -1098q26 -77 66 -107t130 -38l4 -8l-14 -84q-146 6 -252 6t-270 -20l-6 14l8 80q104 8 143 24t39 56z" />
    <glyph glyph-name="Acircumflex" unicode="&#xc2;" horiz-adv-x="1183" 
d="M336 1460l-29 45l283 228h28q150 -127 283 -228l-29 -45l-18 -2q-137 80 -250 133q-106 -49 -250 -133zM553 559q74 0 190 10l-161 537h-15l-194 -547h180zM858 154q0 40 -18 96l-68 223q-49 2 -180 2t-256 -16l-76 -213q-18 -55 -18 -80q0 -84 123 -84h116l4 -8l-12 -88
q-150 14 -285 14l-225 -6l17 96q57 6 92 40t67 118l400 1046l129 35h16q172 -637 326 -1098q26 -77 66 -107t130 -38l4 -8l-14 -84q-146 6 -252 6t-270 -20l-6 14l8 80q104 8 143 24t39 56z" />
    <glyph glyph-name="Atilde" unicode="&#xc3;" horiz-adv-x="1183" 
d="M754 1587q45 0 110 70l23 22h12l45 -43v-10l-156 -162l-32 -8q-35 0 -154 34t-143 34q-47 0 -111 -70l-20 -22h-13l-45 43v10l156 162l33 8q34 0 153 -34t142 -34zM553 559q74 0 190 10l-161 537h-15l-194 -547h180zM858 154q0 40 -18 96l-68 223q-49 2 -180 2t-256 -16
l-76 -213q-18 -55 -18 -80q0 -84 123 -84h116l4 -8l-12 -88q-150 14 -285 14l-225 -6l17 96q57 6 92 40t67 118l400 1046l129 35h16q172 -637 326 -1098q26 -77 66 -107t130 -38l4 -8l-14 -84q-146 6 -252 6t-270 -20l-6 14l8 80q104 8 143 24t39 56z" />
    <glyph glyph-name="Adieresis" unicode="&#xc4;" horiz-adv-x="1183" 
d="M527 1584q0 -40 -30 -70t-71 -30t-64 28q-23 26 -22 65q0 39 30 69t70 30t64 -26q23 -26 23 -66zM867 1584q0 -40 -30 -70t-71 -30t-64 28q-23 26 -22 65q0 39 30 69t70 30t64 -26q23 -26 23 -66zM553 559q74 0 190 10l-161 537h-15l-194 -547h180zM858 154q0 40 -18 96
l-68 223q-49 2 -180 2t-256 -16l-76 -213q-18 -55 -18 -80q0 -84 123 -84h116l4 -8l-12 -88q-150 14 -285 14l-225 -6l17 96q57 6 92 40t67 118l400 1046l129 35h16q172 -637 326 -1098q26 -77 66 -107t130 -38l4 -8l-14 -84q-146 6 -252 6t-270 -20l-6 14l8 80
q104 8 143 24t39 56z" />
    <glyph glyph-name="Aring" unicode="&#xc5;" horiz-adv-x="1183" 
d="M438 1545q0 75 47 123t125 48t118 -45t40 -115t-47 -122q-47 -54 -124 -54t-118 45t-41 120zM608 1458q90 0 90 80q0 45 -27 72q-28 27 -77 26q-90 0 -90 -80q0 -50 32 -74t72 -24zM553 559q74 0 190 10l-161 537h-15l-194 -547h180zM858 154q0 40 -18 96l-68 223
q-49 2 -180 2t-256 -16l-76 -213q-18 -55 -18 -80q0 -84 123 -84h116l4 -8l-12 -88q-150 14 -285 14l-225 -6l17 96q57 6 92 40t67 118l400 1046l129 35h16q172 -637 326 -1098q26 -77 66 -107t130 -38l4 -8l-14 -84q-146 6 -252 6t-270 -20l-6 14l8 80q104 8 143 24t39 56z
" />
    <glyph glyph-name="AE" unicode="&#xc6;" horiz-adv-x="1658" 
d="M430 635l322 22l-62 447h-18zM815 168q0 46 -51 397l-203 -16l-186 -21l-146 -282q-33 -63 -32 -94q0 -70 112 -70h117l-10 -96q-152 14 -283 14l-139 -8l-14 71q68 72 129 185l505 936q-8 33 -51 33l-69 -5l-5 9l15 90q227 -6 325 -6q446 0 611 24l6 -12
q-35 -152 -47 -340l-99 -8q4 59 5 88q1 100 -51 123q-52 22 -210 22t-180 -10t-24 -53l63 -467l242 22l188 27l8 -10l-26 -109l-176 -6l-224 -18l58 -347q12 -79 50 -109t122 -30q223 0 282 41t82 209l90 10l7 -10q-37 -170 -56 -344l-10 -12q-426 14 -551 14h-69
q-139 0 -304 -20l-4 14l4 80q121 10 160 29t39 65z" />
    <glyph glyph-name="Ccedilla" unicode="&#xc7;" horiz-adv-x="1288" 
d="M82 624q0 296 203 500t512 205q152 0 356 -49l8 -12q-39 -154 -51 -342l-98 -8q6 55 6 100q0 190 -301 190q-207 0 -329 -144t-122 -401t128 -421t341 -164q139 0 224 79t124 244l99 9q-41 -186 -56 -334l-12 -19q-156 -72 -373 -80l-26 -79q8 -6 63 -42
q111 -74 111 -146q0 -73 -79 -130q-78 -57 -148 -57t-114 20q-44 19 -44 53t51 115h18q2 -55 32 -86t76 -31t75 22t28 56q0 53 -174 154l45 151q-263 13 -418 182t-155 465z" />
    <glyph glyph-name="Egrave" unicode="&#xc8;" horiz-adv-x="1210" 
d="M330 1591l-8 21l32 98l19 12q215 -123 407 -223l-12 -49l-16 -10zM436 221q0 -90 26 -109q26 -20 167 -20t213 18t104 65q32 48 47 167l90 10l7 -10q-37 -170 -56 -344l-10 -12q-426 14 -592 14t-313 -20l12 94q92 12 126 48t34 124l2 860q0 66 -15 88t-61 23l-70 -5
l-4 9l15 90q162 -6 440 -6t459 24l6 -12q-35 -152 -47 -340l-98 -8q4 59 4 88q0 100 -48 123q-48 22 -208 22q-158 0 -178 -11t-23 -69l-16 -397l210 -2l250 22l9 -10l-29 -121q-176 6 -269 6t-176 -14q-8 -295 -8 -385z" />
    <glyph glyph-name="Eacute" unicode="&#xc9;" horiz-adv-x="1210" 
d="M963 1612l-9 -21q-207 -70 -422 -151l-16 10l-12 49l407 223l19 -12zM436 221q0 -90 26 -109q26 -20 167 -20t213 18t104 65q32 48 47 167l90 10l7 -10q-37 -170 -56 -344l-10 -12q-426 14 -592 14t-313 -20l12 94q92 12 126 48t34 124l2 860q0 66 -15 88t-61 23l-70 -5
l-4 9l15 90q162 -6 440 -6t459 24l6 -12q-35 -152 -47 -340l-98 -8q4 59 4 88q0 100 -48 123q-48 22 -208 22q-158 0 -178 -11t-23 -69l-16 -397l210 -2l250 22l9 -10l-29 -121q-176 6 -269 6t-176 -14q-8 -295 -8 -385z" />
    <glyph glyph-name="Ecircumflex" unicode="&#xca;" horiz-adv-x="1210" 
d="M367 1460l-29 45l283 228h28q150 -127 283 -228l-29 -45l-18 -2q-137 80 -250 133q-106 -49 -250 -133zM436 221q0 -90 26 -109q26 -20 167 -20t213 18t104 65q32 48 47 167l90 10l7 -10q-37 -170 -56 -344l-10 -12q-426 14 -592 14t-313 -20l12 94q92 12 126 48t34 124
l2 860q0 66 -15 88t-61 23l-70 -5l-4 9l15 90q162 -6 440 -6t459 24l6 -12q-35 -152 -47 -340l-98 -8q4 59 4 88q0 100 -48 123q-48 22 -208 22q-158 0 -178 -11t-23 -69l-16 -397l210 -2l250 22l9 -10l-29 -121q-176 6 -269 6t-176 -14q-8 -295 -8 -385z" />
    <glyph glyph-name="Edieresis" unicode="&#xcb;" horiz-adv-x="1210" 
d="M527 1514q-31 -30 -71 -30t-63 28q-23 26 -22 65q0 39 29 69q30 30 71 30t64 -26t23 -66t-31 -70zM897 1584q0 -40 -30 -70q-31 -30 -71 -30t-63 28q-23 26 -22 65q0 39 29 69q30 30 71 30t63 -26t23 -66zM436 221q0 -90 26 -109q26 -20 167 -20t213 18t104 65
q32 48 47 167l90 10l7 -10q-37 -170 -56 -344l-10 -12q-426 14 -592 14t-313 -20l12 94q92 12 126 48t34 124l2 860q0 66 -15 88t-61 23l-70 -5l-4 9l15 90q162 -6 440 -6t459 24l6 -12q-35 -152 -47 -340l-98 -8q4 59 4 88q0 100 -48 123q-48 22 -208 22q-158 0 -178 -11
t-23 -69l-16 -397l210 -2l250 22l9 -10l-29 -121q-176 6 -269 6t-176 -14q-8 -295 -8 -385z" />
    <glyph glyph-name="Igrave" unicode="&#xcc;" horiz-adv-x="739" 
d="M72 1591l-9 21l33 98l19 12q215 -123 407 -223l-12 -49l-16 -10zM436 229q0 -83 18 -111t72 -28l109 6l4 -8l-18 -94q-171 6 -267 6t-239 -25l12 95q96 18 130 54t34 122l2 860q0 66 -15 88t-61 23l-86 -5l-4 9l14 90q160 -6 235 -6t245 18l-9 -92q-86 -10 -114 -34
t-33 -83q-29 -594 -29 -885z" />
    <glyph glyph-name="Iacute" unicode="&#xcd;" horiz-adv-x="739" 
d="M705 1612l-9 -21q-207 -70 -422 -151l-16 10l-12 49l407 223l19 -12zM436 229q0 -83 18 -111t72 -28l109 6l4 -8l-18 -94q-171 6 -267 6t-239 -25l12 95q96 18 130 54t34 122l2 860q0 66 -15 88t-61 23l-86 -5l-4 9l14 90q160 -6 235 -6t245 18l-9 -92q-86 -10 -114 -34
t-33 -83q-29 -594 -29 -885z" />
    <glyph glyph-name="Icircumflex" unicode="&#xce;" horiz-adv-x="739" 
d="M109 1460l-29 45l282 228h29q150 -127 283 -228l-29 -45l-18 -2q-137 80 -250 133q-106 -49 -250 -133zM436 229q0 -83 18 -111t72 -28l109 6l4 -8l-18 -94q-171 6 -267 6t-239 -25l12 95q96 18 130 54t34 122l2 860q0 66 -15 88t-61 23l-86 -5l-4 9l14 90q160 -6 235 -6
t245 18l-9 -92q-86 -10 -114 -34t-33 -83q-29 -594 -29 -885z" />
    <glyph glyph-name="Idieresis" unicode="&#xcf;" horiz-adv-x="739" 
d="M299 1584q0 -40 -30 -70q-31 -30 -71 -30t-63 28q-23 26 -22 65q0 39 29 69q30 30 71 30t63 -26t23 -66zM639 1584q0 -40 -30 -70q-31 -30 -71 -30t-63 28q-23 26 -22 65q0 39 29 69q30 30 71 30t63 -26t23 -66zM436 229q0 -83 18 -111t72 -28l109 6l4 -8l-18 -94
q-171 6 -267 6t-239 -25l12 95q96 18 130 54t34 122l2 860q0 66 -15 88t-61 23l-86 -5l-4 9l14 90q160 -6 235 -6t245 18l-9 -92q-86 -10 -114 -34t-33 -83q-29 -594 -29 -885z" />
    <glyph glyph-name="Eth" unicode="&#xd0;" horiz-adv-x="1460" 
d="M711 80q221 0 348 152t127 421q0 267 -163 413t-466 146q-43 0 -57 -9t-17 -36l-18 -465h348l10 -14l-12 -65h-348l-10 -355q0 -112 52 -150t206 -38zM375 0q-99 0 -242 -25l12 95q106 20 134 62q27 42 26 190v301h-272l-15 14l15 65h272l2 404q0 66 -15 88t-61 23
l-69 -5l-4 9l14 90q137 -6 215 -6l311 8q294 0 484 -172t190 -441q0 -305 -204 -515t-504 -210q-190 25 -289 25z" />
    <glyph glyph-name="Ntilde" unicode="&#xd1;" horiz-adv-x="1472" 
d="M909 1587q45 0 111 70l22 22h13l45 -43v-10l-156 -162l-33 -8q-35 0 -153 34t-144 34q-47 0 -110 -70l-21 -22h-12l-45 43v10l156 162l32 8q35 0 154 -34t141 -34zM1139 297v829q0 88 -68 88l-78 -2l-4 9l19 92q126 -8 198 -8t199 16l-10 -94q-72 -10 -105 -40t-35 -89
l-28 -1151l-60 -29q-371 575 -761 1129h-11l-10 -875q0 -45 14 -63t50 -19l104 2l4 -8l-18 -92q-129 8 -209 8t-199 -16l10 94q125 14 127 129l27 895q0 63 -38 90t-140 37l-6 10l16 76q119 -10 176 -10l137 8q303 -471 688 -1016h11z" />
    <glyph glyph-name="Ograve" unicode="&#xd2;" horiz-adv-x="1417" 
d="M395 1591l-8 21l33 98l18 12q215 -123 408 -223l-12 -49l-17 -10zM649 -25q-251 1 -409 177t-158 468t194 500t465 209q271 0 433 -176t162 -468t-198 -501t-489 -209zM710 80q198 0 320 148t123 398q0 250 -130 414q-130 166 -329 166q-200 0 -318 -147t-118 -397
t127 -416t325 -166z" />
    <glyph glyph-name="Oacute" unicode="&#xd3;" horiz-adv-x="1417" 
d="M1028 1612l-8 -21q-207 -70 -422 -151l-16 10l-13 49l408 223l18 -12zM649 -25q-251 1 -409 177t-158 468t194 500t465 209q271 0 433 -176t162 -468t-198 -501t-489 -209zM710 80q198 0 320 148t123 398q0 250 -130 414q-130 166 -329 166q-200 0 -318 -147t-118 -397
t127 -416t325 -166z" />
    <glyph glyph-name="Ocircumflex" unicode="&#xd4;" horiz-adv-x="1417" 
d="M432 1460l-29 45l283 228h29q150 -127 282 -228l-28 -45l-19 -2q-137 80 -250 133q-106 -49 -249 -133zM649 -25q-251 1 -409 177t-158 468t194 500t465 209q271 0 433 -176t162 -468t-198 -501t-489 -209zM710 80q198 0 320 148t123 398q0 250 -130 414
q-130 166 -329 166q-200 0 -318 -147t-118 -397t127 -416t325 -166z" />
    <glyph glyph-name="Otilde" unicode="&#xd5;" horiz-adv-x="1417" 
d="M852 1587q43 0 111 70l20 22h12l45 -43v-10l-155 -162l-33 -8q-35 0 -154 34t-143 34q-47 0 -109 -70l-22 -22h-12l-45 43v10l155 162l33 8q35 0 154 -34t143 -34zM649 -25q-251 1 -409 177t-158 468t194 500t465 209q271 0 433 -176t162 -468t-198 -501t-489 -209z
M710 80q198 0 320 148t123 398q0 250 -130 414q-130 166 -329 166q-200 0 -318 -147t-118 -397t127 -416t325 -166z" />
    <glyph glyph-name="Odieresis" unicode="&#xd6;" horiz-adv-x="1417" 
d="M436 1577q0 39 30 69t71 30t63 -26t23 -66q0 -40 -30 -70t-71 -30q-42 0 -64 28q-22 26 -22 65zM776 1577q0 39 30 69t71 30t63 -26t23 -66q0 -40 -30 -70t-71 -30q-42 0 -64 28q-22 26 -22 65zM649 -25q-251 1 -409 177t-158 468t194 500t465 209q271 0 433 -176
t162 -468t-198 -501t-489 -209zM710 80q198 0 320 148t123 398q0 250 -130 414q-130 166 -329 166q-200 0 -318 -147t-118 -397t127 -416t325 -166z" />
    <glyph glyph-name="multiply" unicode="&#xd7;" 
d="M803 920l22 -7l64 -86l-291 -292l297 -277l-6 -25l-86 -61l-285 283l-287 -291l-22 6l-55 86q156 152 282 279l-297 294l4 23l88 53q160 -162 287 -289z" />
    <glyph glyph-name="Oslash" unicode="&#xd8;" horiz-adv-x="1417" 
d="M258 674q0 -301 158 -465l489 936q-100 61 -219 61q-190 0 -309 -147t-119 -385zM713 80q195 0 317 148t123 384q0 322 -188 490l-496 -942q109 -80 244 -80zM82 608q0 303 194 512q195 209 480 209q121 0 223 -43l86 164l59 -14l6 -25l-83 -156q135 -78 211 -223
t77 -334q1 -305 -197 -514t-489 -209q-129 0 -248 54l-122 -230l-56 13l-4 20l121 231q-122 81 -190 223t-68 322z" />
    <glyph glyph-name="Ugrave" unicode="&#xd9;" horiz-adv-x="1394" 
d="M406 1591l-9 21l33 98l19 12q215 -123 407 -223l-12 -49l-17 -10zM720 92q167 0 255 89t88 257l-12 668q-3 72 -17 91t-59 20l-88 -5l-4 9l14 90q153 -6 225 -6t205 18l-8 -92q-90 -13 -116 -33t-25 -84v-688q0 -215 -134 -333t-361 -118q-228 0 -345 118t-117 335v678
q0 66 -15 88t-61 23l-69 -5l-4 9l14 90q154 -6 224 -6t222 18l-8 -92q-76 -10 -102 -34t-29 -83l-16 -602q0 -202 88 -311t255 -109z" />
    <glyph glyph-name="Uacute" unicode="&#xda;" horiz-adv-x="1394" 
d="M1038 1612l-8 -21q-207 -70 -422 -151l-16 10l-12 49l407 223l19 -12zM720 92q167 0 255 89t88 257l-12 668q-3 72 -17 91t-59 20l-88 -5l-4 9l14 90q153 -6 225 -6t205 18l-8 -92q-90 -13 -116 -33t-25 -84v-688q0 -215 -134 -333t-361 -118q-228 0 -345 118t-117 335
v678q0 66 -15 88t-61 23l-69 -5l-4 9l14 90q154 -6 224 -6t222 18l-8 -92q-76 -10 -102 -34t-29 -83l-16 -602q0 -202 88 -311t255 -109z" />
    <glyph glyph-name="Ucircumflex" unicode="&#xdb;" horiz-adv-x="1394" 
d="M442 1460l-28 45l282 228h29q150 -127 283 -228l-29 -45l-18 -2q-137 80 -250 133q-106 -49 -250 -133zM720 92q167 0 255 89t88 257l-12 668q-3 72 -17 91t-59 20l-88 -5l-4 9l14 90q153 -6 225 -6t205 18l-8 -92q-90 -13 -116 -33t-25 -84v-688q0 -215 -134 -333
t-361 -118q-228 0 -345 118t-117 335v678q0 66 -15 88t-61 23l-69 -5l-4 9l14 90q154 -6 224 -6t222 18l-8 -92q-76 -10 -102 -34t-29 -83l-16 -602q0 -202 88 -311t255 -109z" />
    <glyph glyph-name="Udieresis" unicode="&#xdc;" horiz-adv-x="1394" 
d="M446 1577q0 39 30 69t71 30t63 -26t23 -66q0 -40 -30 -70t-71 -30q-42 0 -64 28q-22 26 -22 65zM786 1577q0 39 30 69t71 30t63 -26t23 -66q0 -40 -30 -70t-71 -30q-42 0 -64 28q-22 26 -22 65zM720 92q167 0 255 89t88 257l-12 668q-3 72 -17 91t-59 20l-88 -5l-4 9
l14 90q153 -6 225 -6t205 18l-8 -92q-90 -13 -116 -33t-25 -84v-688q0 -215 -134 -333t-361 -118q-228 0 -345 118t-117 335v678q0 66 -15 88t-61 23l-69 -5l-4 9l14 90q154 -6 224 -6t222 18l-8 -92q-76 -10 -102 -34t-29 -83l-16 -602q0 -202 88 -311t255 -109z" />
    <glyph glyph-name="Yacute" unicode="&#xdd;" horiz-adv-x="1101" 
d="M911 1612l-8 -21q-207 -70 -422 -151l-16 10l-12 49l407 223l19 -12zM334 1165q0 -59 171 -413q56 -119 58 -119h10l234 434q33 59 33 102q0 53 -129 62l-4 8l12 80q152 -14 227 -14l189 8l8 -15l-13 -75q-94 -18 -140 -64t-113 -178l-220 -385q-35 -62 -40 -162t-5 -193
t18 -122t72 -29l101 6l4 -8l-19 -94q-170 6 -260 6t-233 -25l12 95q106 20 133 61t27 160v90q0 113 -59 231l-185 375q-70 143 -98 174q-47 51 -160 62l-4 8l12 80q131 -6 226 -6l290 16l7 -14l-7 -72q-91 -9 -123 -24t-32 -46z" />
    <glyph glyph-name="Thorn" unicode="&#xde;" horiz-adv-x="1112" 
d="M895 657q0 141 -92 207t-293 66q-51 0 -55 -17q-12 -287 -17 -485q92 -31 209 -35q248 31 248 264zM461 1030h168q211 0 325 -86t113 -246q0 -160 -145 -278t-340 -117h-146v-74q0 -83 18 -111t72 -28l109 6l4 -8l-18 -94q-171 6 -267 6t-239 -25l12 95q96 18 130 54
t34 122l2 860q0 66 -15 88t-61 23l-86 -5l-4 9l14 90q160 -6 235 -6t245 18l-9 -92q-86 -10 -114 -34t-33 -83l-4 -63v-21z" />
    <glyph glyph-name="germandbls" unicode="&#xdf;" horiz-adv-x="1880" 
d="M1614 807q0 125 -180 125q-96 0 -152 -40t-57 -101q0 -61 56 -105t144 -85q88 -42 116 -55t79 -45q139 -87 139 -216t-119 -216t-290 -87t-291 55l-10 18q23 129 22 277l92 8q0 -160 41 -210t154 -50t173 43t60 113t-73 120q-47 31 -144 80q-98 48 -137 70t-82 57
q-88 70 -88 172q0 131 115 217t272 86t279 -39l8 -14q-29 -125 -39 -270l-80 -8l-12 8q4 31 4 92zM674 807q0 125 -180 125q-96 0 -152 -40t-57 -101q0 -61 56 -105t144 -85q88 -42 116 -55t79 -45q141 -88 140 -217q-1 -128 -120 -215t-290 -87t-291 55l-10 18
q23 129 22 277l92 8q0 -160 41 -210t154 -50t173 43t60 113t-73 120q-43 29 -165 88t-200 119q-86 70 -86 172q0 131 115 217t272 86t279 -39l8 -14q-29 -125 -39 -270l-80 -8l-12 8q4 31 4 92z" />
    <glyph glyph-name="agrave" unicode="&#xe0;" 
d="M242 1305l-9 20l33 98l19 13q215 -123 407 -224l-12 -49l-16 -10zM485 442q72 0 150 9l-125 397h-14l-150 -406h139zM818 0q-78 0 -240 -14l-7 10l7 74q86 6 116 18t29 43q0 31 -14 68l-50 157q-41 2 -135 2t-211 -12q-72 -190 -71 -209q0 -61 96 -61h88l6 -8l-12 -78
q-125 10 -236 10l-188 -4l12 84q45 6 72 32t53 87l322 813l145 26l14 -2q143 -516 260 -846q20 -58 52 -82t102 -30l4 -8l-10 -74q-126 4 -204 4z" />
    <glyph glyph-name="aacute" unicode="&#xe1;" 
d="M829 1325l-8 -20q-207 -70 -422 -152l-16 10l-12 49l407 224l19 -13zM485 442q72 0 150 9l-125 397h-14l-150 -406h139zM818 0q-78 0 -240 -14l-7 10l7 74q86 6 116 18t29 43q0 31 -14 68l-50 157q-41 2 -135 2t-211 -12q-72 -190 -71 -209q0 -61 96 -61h88l6 -8l-12 -78
q-125 10 -236 10l-188 -4l12 84q45 6 72 32t53 87l322 813l145 26l14 -2q143 -516 260 -846q20 -58 52 -82t102 -30l4 -8l-10 -74q-126 4 -204 4z" />
    <glyph glyph-name="acircumflex" unicode="&#xe2;" 
d="M258 1174l-29 45l283 227h29q150 -127 282 -227l-28 -45l-19 -3q-137 80 -250 134q-106 -49 -250 -134zM485 442q72 0 150 9l-125 397h-14l-150 -406h139zM818 0q-78 0 -240 -14l-7 10l7 74q86 6 116 18t29 43q0 31 -14 68l-50 157q-41 2 -135 2t-211 -12
q-72 -190 -71 -209q0 -61 96 -61h88l6 -8l-12 -78q-125 10 -236 10l-188 -4l12 84q45 6 72 32t53 87l322 813l145 26l14 -2q143 -516 260 -846q20 -58 52 -82t102 -30l4 -8l-10 -74q-126 4 -204 4z" />
    <glyph glyph-name="atilde" unicode="&#xe3;" 
d="M676 1300q45 0 110 70l23 23h12l45 -43v-11l-155 -161l-33 -9q-35 0 -154 34t-143 34q-47 0 -111 -70l-20 -22h-12l-45 43v10l155 162l33 8q35 0 154 -34t141 -34zM485 442q72 0 150 9l-125 397h-14l-150 -406h139zM818 0q-78 0 -240 -14l-7 10l7 74q86 6 116 18t29 43
q0 31 -14 68l-50 157q-41 2 -135 2t-211 -12q-72 -190 -71 -209q0 -61 96 -61h88l6 -8l-12 -78q-125 10 -236 10l-188 -4l12 84q45 6 72 32t53 87l322 813l145 26l14 -2q143 -516 260 -846q20 -58 52 -82t102 -30l4 -8l-10 -74q-126 4 -204 4z" />
    <glyph glyph-name="adieresis" unicode="&#xe4;" 
d="M348 1198q-42 0 -64 27t-22 65t30 69q30 30 70 30t64 -26q23 -25 23 -65t-30 -70t-71 -30zM688 1198q-42 0 -64 27t-22 65t30 69q30 30 70 30t64 -26q23 -25 23 -65t-30 -70t-71 -30zM485 442q72 0 150 9l-125 397h-14l-150 -406h139zM818 0q-78 0 -240 -14l-7 10l7 74
q86 6 116 18t29 43q0 31 -14 68l-50 157q-41 2 -135 2t-211 -12q-72 -190 -71 -209q0 -61 96 -61h88l6 -8l-12 -78q-125 10 -236 10l-188 -4l12 84q45 6 72 32t53 87l322 813l145 26l14 -2q143 -516 260 -846q20 -58 52 -82t102 -30l4 -8l-10 -74q-126 4 -204 4z" />
    <glyph glyph-name="aring" unicode="&#xe5;" 
d="M519 1094q-77 0 -118 45t-41 119t48 123t124 49q78 0 118 -46t40 -114q0 -70 -47 -123t-124 -53zM530 1171q90 0 91 80q0 45 -28 72t-77 27q-90 0 -90 -80q0 -49 32 -74t72 -25zM485 442q72 0 150 9l-125 397h-14l-150 -406h139zM818 0q-78 0 -240 -14l-7 10l7 74
q86 6 116 18t29 43q0 31 -14 68l-50 157q-41 2 -135 2t-211 -12q-72 -190 -71 -209q0 -61 96 -61h88l6 -8l-12 -78q-125 10 -236 10l-188 -4l12 84q45 6 72 32t53 87l322 813l145 26l14 -2q143 -516 260 -846q20 -58 52 -82t102 -30l4 -8l-10 -74q-126 4 -204 4z" />
    <glyph glyph-name="ae" unicode="&#xe6;" horiz-adv-x="1431" 
d="M393 498l250 18l-47 330h-16zM211 125q0 -49 92 -49l86 -2l-10 -84q-139 10 -244 10l-117 -6l-10 69q10 -1 47 49t58 87l399 712q-8 29 -43 29l-55 -2l-6 8l12 78q143 -4 406 -4t407 18l6 -10q-29 -127 -39 -274l-98 -9q4 45 4 68q0 76 -41 93q-41 18 -163 18t-139 -8
t-20 -42l50 -339l188 18l158 25l8 -13l-21 -100l-147 -6l-174 -15l43 -247q10 -59 41 -84t94 -25q174 0 220 32t65 161l92 8l6 -10q-31 -135 -45 -279l-10 -10q-373 10 -463 10h-60q-94 0 -251 -14l-5 10l5 74q96 8 126 23t29 49q0 34 -37 284l-161 -12l-150 -21l-108 -198
q-25 -47 -25 -70z" />
    <glyph glyph-name="ccedilla" unicode="&#xe7;" horiz-adv-x="1097" 
d="M84 490q0 234 165 392t423 156q131 0 299 -39l8 -12q-33 -123 -43 -278l-102 -7q4 41 4 80q0 143 -230 144q-160 0 -252 -106t-92 -300q0 -196 97 -316t262 -120q211 0 266 242l102 8q-33 -152 -43 -273l-12 -16q-123 -51 -297 -61l-29 -86q8 -6 36 -24q88 -58 108 -89
q31 -37 30 -70q0 -78 -78 -135t-149 -57q-70 0 -114 20q-44 19 -44 53t52 115h18q2 -55 33 -86t76 -31q46 0 74 22t28 56q0 53 -174 154l47 156q-217 10 -343 142t-126 366z" />
    <glyph glyph-name="egrave" unicode="&#xe8;" horiz-adv-x="1040" 
d="M260 1305l-8 20l33 98l18 13q215 -123 408 -224l-13 -49l-16 -10zM546 475q-73 0 -145 -10q-6 -156 -6 -251q-1 -94 19 -110t130 -16t166 13t81 51t38 129l91 8l8 -10q-31 -135 -45 -279l-13 -10q-340 10 -484 10t-275 -16l10 86q77 8 103 36t26 99l2 649q0 50 -12 68
t-50 18l-55 -2l-4 8l12 78q145 -4 369 -4t389 18l6 -10q-29 -127 -39 -274l-98 -9q4 45 4 68q0 76 -39 93q-39 18 -161 18t-138 -10t-18 -50l-12 -291l167 -2l203 17l8 -10l-24 -107q-141 4 -214 4z" />
    <glyph glyph-name="eacute" unicode="&#xe9;" horiz-adv-x="1040" 
d="M850 1325l-8 -20q-207 -70 -422 -152l-17 10l-12 49l408 224l18 -13zM546 475q-73 0 -145 -10q-6 -156 -6 -251q-1 -94 19 -110t130 -16t166 13t81 51t38 129l91 8l8 -10q-31 -135 -45 -279l-13 -10q-340 10 -484 10t-275 -16l10 86q77 8 103 36t26 99l2 649q0 50 -12 68
t-50 18l-55 -2l-4 8l12 78q145 -4 369 -4t389 18l6 -10q-29 -127 -39 -274l-98 -9q4 45 4 68q0 76 -39 93q-39 18 -161 18t-138 -10t-18 -50l-12 -291l167 -2l203 17l8 -10l-24 -107q-141 4 -214 4z" />
    <glyph glyph-name="ecircumflex" unicode="&#xea;" horiz-adv-x="1040" 
d="M279 1174l-29 45l282 227h29q150 -127 283 -227l-29 -45l-18 -3q-137 80 -250 134q-106 -49 -250 -134zM546 475q-73 0 -145 -10q-6 -156 -6 -251q-1 -94 19 -110t130 -16t166 13t81 51t38 129l91 8l8 -10q-31 -135 -45 -279l-13 -10q-340 10 -484 10t-275 -16l10 86
q77 8 103 36t26 99l2 649q0 50 -12 68t-50 18l-55 -2l-4 8l12 78q145 -4 369 -4t389 18l6 -10q-29 -127 -39 -274l-98 -9q4 45 4 68q0 76 -39 93q-39 18 -161 18t-138 -10t-18 -50l-12 -291l167 -2l203 17l8 -10l-24 -107q-141 4 -214 4z" />
    <glyph glyph-name="edieresis" unicode="&#xeb;" horiz-adv-x="1040" 
d="M368 1198q-40 0 -63 27t-23 65t30 69q30 30 71 30t63 -26q22 -25 23 -65q0 -40 -30 -70q-31 -30 -71 -30zM708 1198q-40 0 -63 27t-23 65t30 69q30 30 71 30t63 -26q22 -25 23 -65q0 -40 -30 -70q-31 -30 -71 -30zM546 475q-73 0 -145 -10q-6 -156 -6 -251
q-1 -94 19 -110t130 -16t166 13t81 51t38 129l91 8l8 -10q-31 -135 -45 -279l-13 -10q-340 10 -484 10t-275 -16l10 86q77 8 103 36t26 99l2 649q0 50 -12 68t-50 18l-55 -2l-4 8l12 78q145 -4 369 -4t389 18l6 -10q-29 -127 -39 -274l-98 -9q4 45 4 68q0 76 -39 93
q-39 18 -161 18t-138 -10t-18 -50l-12 -291l167 -2l203 17l8 -10l-24 -107q-141 4 -214 4z" />
    <glyph glyph-name="igrave" unicode="&#xec;" horiz-adv-x="653" 
d="M47 1305l-8 20l33 98l18 13q215 -123 408 -224l-13 -49l-16 -10zM395 190q1 -66 15 -88t57 -22l84 6l4 -8l-14 -82q-150 4 -234 4t-198 -18l10 84q79 14 105 42t26 95l2 651q0 50 -12 68t-50 18l-67 -2l-4 8l10 78l209 -4l205 14l-8 -84q-68 -8 -91 -25t-26 -65
q-23 -401 -23 -670z" />
    <glyph glyph-name="iacute" unicode="&#xed;" horiz-adv-x="653" 
d="M635 1325l-8 -20q-207 -70 -422 -152l-17 10l-12 49l408 224l18 -13zM395 190q1 -66 15 -88t57 -22l84 6l4 -8l-14 -82q-150 4 -234 4t-198 -18l10 84q79 14 105 42t26 95l2 651q0 50 -12 68t-50 18l-67 -2l-4 8l10 78l209 -4l205 14l-8 -84q-68 -8 -91 -25t-26 -65
q-23 -401 -23 -670z" />
    <glyph glyph-name="icircumflex" unicode="&#xee;" horiz-adv-x="653" 
d="M63 1174l-28 45l282 227h29q150 -127 283 -227l-29 -45l-18 -3q-137 80 -250 134q-106 -49 -250 -134zM395 190q1 -66 15 -88t57 -22l84 6l4 -8l-14 -82q-150 4 -234 4t-198 -18l10 84q79 14 105 42t26 95l2 651q0 50 -12 68t-50 18l-67 -2l-4 8l10 78l209 -4l205 14
l-8 -84q-68 -8 -91 -25t-26 -65q-23 -401 -23 -670z" />
    <glyph glyph-name="idieresis" unicode="&#xef;" horiz-adv-x="653" 
d="M154 1198q-40 0 -64 27q-22 27 -22 65t29 69q30 30 71 30q42 0 64 -26q22 -25 22 -65t-30 -70t-70 -30zM494 1198q-40 0 -64 27q-22 27 -22 65t29 69q30 30 71 30q42 0 64 -26q22 -25 22 -65t-30 -70t-70 -30zM395 190q1 -66 15 -88t57 -22l84 6l4 -8l-14 -82
q-150 4 -234 4t-198 -18l10 84q79 14 105 42t26 95l2 651q0 50 -12 68t-50 18l-67 -2l-4 8l10 78l209 -4l205 14l-8 -84q-68 -8 -91 -25t-26 -65q-23 -401 -23 -670z" />
    <glyph glyph-name="eth" unicode="&#xf0;" horiz-adv-x="1239" 
d="M604 80q172 0 269 113t97 317t-122 312q-123 108 -356 108q-32 0 -44 -7t-14 -30l-14 -340h266l10 -10l-10 -66h-268l-6 -260q0 -81 38 -109t154 -28zM325 0q-88 0 -198 -18l10 86q84 14 107 46t22 140v223h-217l-12 10l14 66h215v301q0 50 -11 68t-48 18l-55 -4l-7 10
l13 78q121 -4 186 -4l258 6q244 0 396 -132t153 -359q0 -227 -167 -390t-415 -163q-156 18 -244 18z" />
    <glyph glyph-name="ntilde" unicode="&#xf1;" horiz-adv-x="1257" 
d="M808 1300q34 0 101 70l21 23h12l45 -43v-11l-156 -161l-32 -9q-35 0 -154 34t-143 34q-47 0 -109 -70l-22 -22h-13l-45 43v10l156 162l33 8q34 0 153 -34t153 -34zM889 938h-62l-4 8l15 80q113 -6 174 -6l174 12l-8 -84q-111 -14 -113 -102l-25 -881l-79 -22
q-315 459 -592 825h-11l-6 -621q0 -39 12 -53t42 -14l81 2l7 -6l-17 -82q-115 6 -186 6l-170 -12l10 84q100 12 102 100l23 676q0 50 -30 70t-113 30l-9 10l15 70q100 -8 155 -8l125 6q248 -365 537 -747h10l-2 591q0 68 -55 68z" />
    <glyph glyph-name="ograve" unicode="&#xf2;" horiz-adv-x="1198" 
d="M348 1305l-8 20l33 98l18 13q215 -123 408 -224l-13 -49l-16 -10zM84 486q0 232 158 392t384 160t357 -135t131 -367t-160 -394q-160 -160 -385 -160t-355 136t-130 368zM601 80q153 0 245 108t92 298t-98 314t-251 124t-242 -106t-89 -298t95 -316t248 -124z" />
    <glyph glyph-name="oacute" unicode="&#xf3;" horiz-adv-x="1198" 
d="M897 1325l-8 -20q-207 -70 -422 -152l-16 10l-13 49l408 224l18 -13zM84 486q0 232 158 392t384 160t357 -135t131 -367t-160 -394q-160 -160 -385 -160t-355 136t-130 368zM601 80q153 0 245 108t92 298t-98 314t-251 124t-242 -106t-89 -298t95 -316t248 -124z" />
    <glyph glyph-name="ocircumflex" unicode="&#xf4;" horiz-adv-x="1198" 
d="M346 1174l-29 45l283 227h29q150 -127 282 -227l-28 -45l-19 -3q-137 80 -250 134q-106 -49 -249 -134zM84 486q0 232 158 392t384 160t357 -135t131 -367t-160 -394q-160 -160 -385 -160t-355 136t-130 368zM601 80q153 0 245 108t92 298t-98 314t-251 124t-242 -106
t-89 -298t95 -316t248 -124z" />
    <glyph glyph-name="otilde" unicode="&#xf5;" horiz-adv-x="1198" 
d="M762 1300q45 0 110 70l23 23h12l45 -43v-11l-155 -161l-33 -9q-35 0 -154 34t-143 34q-47 0 -111 -70l-20 -22h-12l-45 43v10l155 162l33 8q35 0 154 -34t141 -34zM84 486q0 232 158 392t384 160t357 -135t131 -367t-160 -394q-160 -160 -385 -160t-355 136t-130 368z
M601 80q153 0 245 108t92 298t-98 314t-251 124t-242 -106t-89 -298t95 -316t248 -124z" />
    <glyph glyph-name="odieresis" unicode="&#xf6;" horiz-adv-x="1198" 
d="M436 1198q-42 0 -64 27t-22 65t30 69q30 30 71 30t63 -26q22 -25 23 -65q0 -40 -30 -70t-71 -30zM776 1198q-42 0 -64 27t-22 65t30 69q30 30 71 30t63 -26q22 -25 23 -65q0 -40 -30 -70t-71 -30zM84 486q0 232 158 392t384 160t357 -135t131 -367t-160 -394
q-160 -160 -385 -160t-355 136t-130 368zM601 80q153 0 245 108t92 298t-98 314t-251 124t-242 -106t-89 -298t95 -316t248 -124z" />
    <glyph glyph-name="divide" unicode="&#xf7;" 
d="M503 774q-56 0 -86 34t-30 85t35 88t91 37t87 -34t31 -85t-36 -88t-92 -37zM503 59q-56 0 -86 34t-30 85t35 88t91 37t87 -34t31 -85t-36 -88t-92 -37zM987 608l12 -20l-16 -105l-934 -4l-12 19l22 100q307 -2 490 -2z" />
    <glyph glyph-name="oslash" unicode="&#xf8;" horiz-adv-x="1198" 
d="M258 513q0 -198 104 -323l390 689q-78 45 -170 45q-146 -1 -235 -107t-89 -304zM604 80q150 0 242 108t92 285q0 238 -131 363l-395 -693q81 -63 192 -63zM84 477q0 242 158 402t395 159q96 0 188 -32l72 127l55 -17l4 -20l-69 -121q107 -61 167 -173t60 -257
q0 -242 -160 -403t-399 -160q-113 0 -211 43l-104 -183l-52 15l-4 16l103 182q-203 133 -203 422z" />
    <glyph glyph-name="ugrave" unicode="&#xf9;" horiz-adv-x="1177" 
d="M317 1305l-8 20l33 98l18 13q215 -123 408 -224l-12 -49l-17 -10zM608 88q262 0 262 252l-8 514q-4 54 -14 70t-45 16l-70 -2l-2 6l12 80q127 -4 191 -4l172 12l-6 -82q-72 -10 -92 -26t-21 -62v-524q1 -170 -109 -263t-301 -93t-287 90q-95 90 -95 260v522q-1 50 -13 68
t-49 18l-55 -2l-4 6l12 80q131 -4 203 -4l182 12l-8 -82q-59 -8 -79 -26t-26 -64l-12 -469q0 -145 68 -224t194 -79z" />
    <glyph glyph-name="uacute" unicode="&#xfa;" horiz-adv-x="1177" 
d="M885 1325l-8 -20q-207 -70 -422 -152l-17 10l-12 49l408 224l18 -13zM608 88q262 0 262 252l-8 514q-4 54 -14 70t-45 16l-70 -2l-2 6l12 80q127 -4 191 -4l172 12l-6 -82q-72 -10 -92 -26t-21 -62v-524q1 -170 -109 -263t-301 -93t-287 90q-95 90 -95 260v522
q-1 50 -13 68t-49 18l-55 -2l-4 6l12 80q131 -4 203 -4l182 12l-8 -82q-59 -8 -79 -26t-26 -64l-12 -469q0 -145 68 -224t194 -79z" />
    <glyph glyph-name="ucircumflex" unicode="&#xfb;" horiz-adv-x="1177" 
d="M334 1174l-29 45l283 227h28q150 -127 283 -227l-29 -45l-18 -3q-137 80 -250 134q-106 -49 -250 -134zM608 88q262 0 262 252l-8 514q-4 54 -14 70t-45 16l-70 -2l-2 6l12 80q127 -4 191 -4l172 12l-6 -82q-72 -10 -92 -26t-21 -62v-524q1 -170 -109 -263t-301 -93
t-287 90q-95 90 -95 260v522q-1 50 -13 68t-49 18l-55 -2l-4 6l12 80q131 -4 203 -4l182 12l-8 -82q-59 -8 -79 -26t-26 -64l-12 -469q0 -145 68 -224t194 -79z" />
    <glyph glyph-name="udieresis" unicode="&#xfc;" horiz-adv-x="1177" 
d="M424 1198q-41 0 -64 27q-22 27 -22 65t30 69q30 30 70 30t64 -26q23 -25 23 -65t-30 -70t-71 -30zM764 1198q-41 0 -64 27q-22 27 -22 65t30 69q30 30 70 30t64 -26q23 -25 23 -65t-30 -70t-71 -30zM608 88q262 0 262 252l-8 514q-4 54 -14 70t-45 16l-70 -2l-2 6l12 80
q127 -4 191 -4l172 12l-6 -82q-72 -10 -92 -26t-21 -62v-524q1 -170 -109 -263t-301 -93t-287 90q-95 90 -95 260v522q-1 50 -13 68t-49 18l-55 -2l-4 6l12 80q131 -4 203 -4l182 12l-8 -82q-59 -8 -79 -26t-26 -64l-12 -469q0 -145 68 -224t194 -79z" />
    <glyph glyph-name="yacute" unicode="&#xfd;" horiz-adv-x="972" 
d="M821 1325l-8 -20q-207 -70 -422 -152l-16 10l-13 49l408 224l18 -13zM553 213q0 -86 15 -109t61 -22l82 4l4 -6l-17 -86q-152 6 -236 6t-202 -18l12 84q90 14 113 45t23 120v64q0 86 -50 176q-190 365 -208 393q-45 68 -152 78l-4 8l12 74q117 -4 193 -4l245 12l7 -12
l-7 -68q-70 -4 -96 -15t-24 -42q0 -31 176 -383h10l176 315q27 47 27 78q0 39 -101 45l-4 6l10 74l197 -10l160 6l6 -12l-10 -70q-78 -16 -112 -52t-105 -155l-166 -282q-23 -39 -29 -97t-6 -145z" />
    <glyph glyph-name="thorn" unicode="&#xfe;" horiz-adv-x="968" 
d="M750 516q0 102 -72 150t-225 49q-41 0 -43 -17q-12 -246 -13 -352q76 -23 162 -27q191 25 191 197zM549 809q178 0 271 -69q93 -68 93 -196q-1 -128 -119 -219t-280 -92h-119v-53q1 -60 15 -80t57 -20l86 6l4 -8l-14 -82q-152 4 -236 4t-198 -18l10 84q79 14 105 42
t26 95l2 651q0 50 -12 68t-50 18l-67 -2l-4 8l10 78l209 -4l205 14l-8 -84q-70 -8 -92 -25q-21 -18 -25 -61l-4 -55h135z" />
    <glyph glyph-name="ydieresis" unicode="&#xff;" horiz-adv-x="972" 
d="M338 1198q-41 0 -64 27q-22 27 -22 65t30 69q30 30 70 30t64 -26q23 -25 23 -65t-30 -70t-71 -30zM678 1198q-41 0 -64 27q-22 27 -22 65t30 69q30 30 70 30t64 -26q23 -25 23 -65t-30 -70t-71 -30zM553 213q0 -86 15 -109t61 -22l82 4l4 -6l-17 -86q-152 6 -236 6
t-202 -18l12 84q90 14 113 45t23 120v64q0 86 -50 176q-190 365 -208 393q-45 68 -152 78l-4 8l12 74q117 -4 193 -4l245 12l7 -12l-7 -68q-70 -4 -96 -15t-24 -42q0 -31 176 -383h10l176 315q27 47 27 78q0 39 -101 45l-4 6l10 74l197 -10l160 6l6 -12l-10 -70
q-78 -16 -112 -52t-105 -155l-166 -282q-23 -39 -29 -97t-6 -145z" />
    <glyph glyph-name="Amacron" unicode="&#x100;" horiz-adv-x="1183" 
d="M897 1593l12 -20l-14 -96l-586 -4l-12 18l20 92q195 -2 316 -2zM553 559q74 0 190 10l-161 537h-15l-194 -547h180zM858 154q0 40 -18 96l-68 223q-49 2 -180 2t-256 -16l-76 -213q-18 -55 -18 -80q0 -84 123 -84h116l4 -8l-12 -88q-150 14 -285 14l-225 -6l17 96
q57 6 92 40t67 118l400 1046l129 35h16q172 -637 326 -1098q26 -77 66 -107t130 -38l4 -8l-14 -84q-146 6 -252 6t-270 -20l-6 14l8 80q104 8 143 24t39 56z" />
    <glyph glyph-name="amacron" unicode="&#x101;" 
d="M819 1307l12 -21l-14 -96l-586 -4l-12 18l21 92q195 -2 315 -2zM485 442q72 0 150 9l-125 397h-14l-150 -406h139zM818 0q-78 0 -240 -14l-7 10l7 74q86 6 116 18t29 43q0 31 -14 68l-50 157q-41 2 -135 2t-211 -12q-72 -190 -71 -209q0 -61 96 -61h88l6 -8l-12 -78
q-125 10 -236 10l-188 -4l12 84q45 6 72 32t53 87l322 813l145 26l14 -2q143 -516 260 -846q20 -58 52 -82t102 -30l4 -8l-10 -74q-126 4 -204 4z" />
    <glyph glyph-name="Abreve" unicode="&#x102;" horiz-adv-x="1183" 
d="M602 1573q143 0 197 102h16l33 -20q-25 -85 -86 -143q-62 -58 -160 -58t-160 57q-61 57 -86 144l33 20h17q53 -102 196 -102zM553 559q74 0 190 10l-161 537h-15l-194 -547h180zM858 154q0 40 -18 96l-68 223q-49 2 -180 2t-256 -16l-76 -213q-18 -55 -18 -80
q0 -84 123 -84h116l4 -8l-12 -88q-150 14 -285 14l-225 -6l17 96q57 6 92 40t67 118l400 1046l129 35h16q172 -637 326 -1098q26 -77 66 -107t130 -38l4 -8l-14 -84q-146 6 -252 6t-270 -20l-6 14l8 80q104 8 143 24t39 56z" />
    <glyph glyph-name="abreve" unicode="&#x103;" 
d="M524 1286q143 0 197 103h16l33 -21q-25 -86 -86 -143q-62 -57 -160 -57t-159 56q-61 58 -86 144l32 21h17q53 -103 196 -103zM485 442q72 0 150 9l-125 397h-14l-150 -406h139zM818 0q-78 0 -240 -14l-7 10l7 74q86 6 116 18t29 43q0 31 -14 68l-50 157q-41 2 -135 2
t-211 -12q-72 -190 -71 -209q0 -61 96 -61h88l6 -8l-12 -78q-125 10 -236 10l-188 -4l12 84q45 6 72 32t53 87l322 813l145 26l14 -2q143 -516 260 -846q20 -58 52 -82t102 -30l4 -8l-10 -74q-126 4 -204 4z" />
    <glyph glyph-name="Aogonek" unicode="&#x104;" horiz-adv-x="1183" 
d="M553 559q74 0 190 10l-161 537h-15l-194 -547h180zM858 154q0 40 -18 96l-68 223q-49 2 -180 2t-256 -16l-76 -213q-18 -55 -18 -80q0 -84 123 -84h116l4 -8l-12 -88q-150 14 -285 14l-225 -6l17 96q57 6 92 40t67 118l400 1046l129 35h16q172 -637 326 -1098
q26 -77 66 -107t130 -38l4 -8l-14 -84q-70 4 -135 6q-86 -90 -120 -146t-34 -110t33 -86q34 -31 94 -31t150 47l26 -39q-100 -94 -204 -129q-103 1 -165 52t-63 129q0 77 48 147t145 166q-137 0 -297 -20l-6 14l8 80q104 8 143 24t39 56z" />
    <glyph glyph-name="aogonek" unicode="&#x105;" 
d="M485 442q72 0 150 9l-125 397h-14l-150 -406h139zM629 -317q0 79 50 147t152 170q-92 0 -253 -14l-7 10l7 74q86 6 116 18t29 43q0 31 -14 68l-50 157q-41 2 -135 2t-211 -12q-72 -190 -71 -209q0 -61 96 -61h88l6 -8l-12 -78q-125 10 -236 10l-188 -4l12 84q45 6 72 32
t53 87l322 813l145 26l14 -2q143 -516 260 -846q20 -58 52 -82t102 -30l4 -8l-10 -74q-53 2 -104 4q-90 -96 -126 -152t-36 -110q0 -53 32 -84t90 -31q60 0 146 45l25 -37q-96 -92 -199 -125q-99 1 -160 50t-61 127z" />
    <glyph glyph-name="Cacute" unicode="&#x106;" horiz-adv-x="1288" 
d="M1063 1612l-8 -21q-207 -70 -422 -151l-17 10l-12 49l408 223l18 -12zM676 -25q-262 0 -428 171t-166 472t203 506t512 205q152 0 356 -49l8 -12q-39 -154 -51 -342l-98 -8q6 55 6 100q0 190 -301 190q-207 0 -329 -144t-122 -401t128 -421t341 -164q139 0 224 79
t124 244l99 9q-41 -186 -56 -334l-12 -19q-176 -82 -438 -82z" />
    <glyph glyph-name="cacute" unicode="&#x107;" horiz-adv-x="1097" 
d="M924 1325l-9 -20q-207 -70 -421 -152l-17 10l-12 49l407 224l19 -13zM572 -18q-218 0 -353 133t-135 371t165 396q165 157 423 156q131 0 299 -39l8 -12q-33 -123 -43 -278l-102 -7q4 41 4 80q0 143 -230 144q-160 0 -252 -106t-92 -300q0 -196 97 -316t262 -120
q211 0 266 242l102 8q-33 -152 -43 -273l-12 -16q-146 -63 -364 -63z" />
    <glyph glyph-name="Ccircumflex" unicode="&#x108;" horiz-adv-x="1288" 
d="M430 1438l-29 45q100 104 283 313h29q150 -174 282 -313l-28 -45l-19 -2q-45 39 -250 198q-160 -119 -249 -198zM676 -25q-262 0 -428 171t-166 472t203 506t512 205q152 0 356 -49l8 -12q-39 -154 -51 -342l-98 -8q6 55 6 100q0 190 -301 190q-207 0 -329 -144
t-122 -401t128 -421t341 -164q139 0 224 79t124 244l99 9q-41 -186 -56 -334l-12 -19q-176 -82 -438 -82z" />
    <glyph glyph-name="ccircumflex" unicode="&#x109;" horiz-adv-x="1097" 
d="M326 1151l-29 45q100 104 283 313h28q150 -174 283 -313l-29 -45l-18 -2q-45 39 -250 199q-160 -121 -250 -199zM572 -18q-218 0 -353 133t-135 371t165 396q165 157 423 156q131 0 299 -39l8 -12q-33 -123 -43 -278l-102 -7q4 41 4 80q0 143 -230 144q-160 0 -252 -106
t-92 -300q0 -196 97 -316t262 -120q211 0 266 242l102 8q-33 -152 -43 -273l-12 -16q-146 -63 -364 -63z" />
    <glyph glyph-name="Cdotaccent" unicode="&#x10a;" horiz-adv-x="1288" 
d="M743 1698q49 0 76 -31t27 -77t-35 -82t-84 -36t-76 32q-27 30 -26 76q0 46 34 82q35 36 84 36zM676 -25q-262 0 -428 171t-166 472t203 506t512 205q152 0 356 -49l8 -12q-39 -154 -51 -342l-98 -8q6 55 6 100q0 190 -301 190q-207 0 -329 -144t-122 -401t128 -421
t341 -164q139 0 224 79t124 244l99 9q-41 -186 -56 -334l-12 -19q-176 -82 -438 -82z" />
    <glyph glyph-name="cdotaccent" unicode="&#x10b;" horiz-adv-x="1097" 
d="M612 1186q-50 0 -76 31t-26 77t35 81q35 36 84 36t76 -31q27 -30 27 -76t-36 -82q-35 -36 -84 -36zM572 -18q-218 0 -353 133t-135 371t165 396q165 157 423 156q131 0 299 -39l8 -12q-33 -123 -43 -278l-102 -7q4 41 4 80q0 143 -230 144q-160 0 -252 -106t-92 -300
q0 -196 97 -316t262 -120q211 0 266 242l102 8q-33 -152 -43 -273l-12 -16q-146 -63 -364 -63z" />
    <glyph glyph-name="Ccaron" unicode="&#x10c;" horiz-adv-x="1288" 
d="M1004 1714l28 -45l-282 -227h-29q-150 127 -283 227l29 45l18 2q137 -80 250 -133q106 49 250 133zM676 -25q-262 0 -428 171t-166 472t203 506t512 205q152 0 356 -49l8 -12q-39 -154 -51 -342l-98 -8q6 55 6 100q0 190 -301 190q-207 0 -329 -144t-122 -401t128 -421
t341 -164q139 0 224 79t124 244l99 9q-41 -186 -56 -334l-12 -19q-176 -82 -438 -82z" />
    <glyph glyph-name="ccaron" unicode="&#x10d;" horiz-adv-x="1097" 
d="M889 1427l29 -45l-283 -227h-29q-150 127 -282 227l28 45l19 3q137 -80 250 -134q106 49 249 134zM572 -18q-218 0 -353 133t-135 371t165 396q165 157 423 156q131 0 299 -39l8 -12q-33 -123 -43 -278l-102 -7q4 41 4 80q0 143 -230 144q-160 0 -252 -106t-92 -300
q0 -196 97 -316t262 -120q211 0 266 242l102 8q-33 -152 -43 -273l-12 -16q-146 -63 -364 -63z" />
    <glyph glyph-name="Dcaron" unicode="&#x10e;" horiz-adv-x="1439" 
d="M946 1714l29 -45l-283 -227h-28q-150 127 -283 227l29 45l18 2q137 -80 250 -133q106 49 250 133zM543 1212q-43 0 -57 -9t-17 -36q-31 -788 -31 -900q0 -111 51 -149t207 -38q221 0 348 152t127 421q0 268 -162 414q-163 145 -466 145zM360 0q-98 0 -241 -25l12 95
q94 18 127 54t33 122l2 860q0 66 -15 88t-61 23l-70 -5l-4 9l15 90q137 -6 215 -6l311 8q299 0 486 -170q188 -170 188 -459t-205 -499t-504 -210q-191 25 -289 25z" />
    <glyph glyph-name="dcaron" unicode="&#x10f;" horiz-adv-x="1220" 
d="M850 1427l29 -45l-283 -227h-29q-150 127 -282 227l28 45l19 3q137 -80 250 -134q106 49 249 134zM477 930q-33 0 -44 -7t-13 -30q-25 -575 -25 -667t39 -118q39 -28 156 -28q172 0 269 113t97 317t-123 312t-356 108zM311 0q-88 0 -198 -18l10 86q75 12 101 41t26 94
l2 651q0 50 -12 68t-47 18l-58 -4l-4 10l12 78q121 -4 185 -4l258 6q250 0 400 -130t151 -359q0 -229 -167 -392t-415 -163q-156 18 -244 18z" />
    <glyph glyph-name="Dcroat" unicode="&#x110;" horiz-adv-x="1460" 
d="M711 80q221 0 348 152t127 421q0 267 -163 413t-466 146q-43 0 -57 -9t-17 -36l-18 -465h348l10 -14l-12 -65h-348l-10 -355q0 -112 52 -150t206 -38zM375 0q-99 0 -242 -25l12 95q106 20 134 62q27 42 26 190v301h-272l-15 14l15 65h272l2 404q0 66 -15 88t-61 23
l-69 -5l-4 9l14 90q137 -6 215 -6l311 8q294 0 484 -172t190 -441q0 -305 -204 -515t-504 -210q-190 25 -289 25z" />
    <glyph glyph-name="dcroat" unicode="&#x111;" horiz-adv-x="1239" 
d="M604 80q172 0 269 113t97 317t-122 312q-123 108 -356 108q-32 0 -44 -7t-14 -30l-14 -340h266l10 -10l-10 -66h-268l-6 -260q0 -81 38 -109t154 -28zM325 0q-88 0 -198 -18l10 86q84 14 107 46t22 140v223h-217l-12 10l14 66h215v301q0 50 -11 68t-48 18l-55 -4l-7 10
l13 78q121 -4 186 -4l258 6q244 0 396 -132t153 -359q0 -227 -167 -390t-415 -163q-156 18 -244 18z" />
    <glyph glyph-name="Emacron" unicode="&#x112;" horiz-adv-x="1210" 
d="M928 1593l12 -20l-14 -96l-586 -4l-12 18l20 92q195 -2 316 -2zM436 221q0 -90 26 -109q26 -20 167 -20t213 18t104 65q32 48 47 167l90 10l7 -10q-37 -170 -56 -344l-10 -12q-426 14 -592 14t-313 -20l12 94q92 12 126 48t34 124l2 860q0 66 -15 88t-61 23l-70 -5l-4 9
l15 90q162 -6 440 -6t459 24l6 -12q-35 -152 -47 -340l-98 -8q4 59 4 88q0 100 -48 123q-48 22 -208 22q-158 0 -178 -11t-23 -69l-16 -397l210 -2l250 22l9 -10l-29 -121q-176 6 -269 6t-176 -14q-8 -295 -8 -385z" />
    <glyph glyph-name="emacron" unicode="&#x113;" horiz-adv-x="1040" 
d="M840 1307l12 -21l-14 -96l-586 -4l-12 18l20 92q195 -2 315 -2zM546 475q-73 0 -145 -10q-6 -156 -6 -251q-1 -94 19 -110t130 -16t166 13t81 51t38 129l91 8l8 -10q-31 -135 -45 -279l-13 -10q-340 10 -484 10t-275 -16l10 86q77 8 103 36t26 99l2 649q0 50 -12 68
t-50 18l-55 -2l-4 8l12 78q145 -4 369 -4t389 18l6 -10q-29 -127 -39 -274l-98 -9q4 45 4 68q0 76 -39 93q-39 18 -161 18t-138 -10t-18 -50l-12 -291l167 -2l203 17l8 -10l-24 -107q-141 4 -214 4z" />
    <glyph glyph-name="Ebreve" unicode="&#x114;" horiz-adv-x="1210" 
d="M670 1620q145 0 196 135h17l32 -20q-25 -98 -86 -166t-159 -68t-160 68q-61 68 -86 166l33 20h16q52 -135 197 -135zM436 221q0 -90 26 -109q26 -20 167 -20t213 18t104 65q32 48 47 167l90 10l7 -10q-37 -170 -56 -344l-10 -12q-426 14 -592 14t-313 -20l12 94
q92 12 126 48t34 124l2 860q0 66 -15 88t-61 23l-70 -5l-4 9l15 90q162 -6 440 -6t459 24l6 -12q-35 -152 -47 -340l-98 -8q4 59 4 88q0 100 -48 123q-48 22 -208 22q-158 0 -178 -11t-23 -69l-16 -397l210 -2l250 22l9 -10l-29 -121q-176 6 -269 6t-176 -14
q-8 -295 -8 -385z" />
    <glyph glyph-name="ebreve" unicode="&#x115;" horiz-adv-x="1040" 
d="M572 1333q144 0 196 135h16l33 -20q-25 -98 -86 -166t-159 -68t-160 68q-61 68 -86 166l32 20h17q53 -135 197 -135zM546 475q-73 0 -145 -10q-6 -156 -6 -251q-1 -94 19 -110t130 -16t166 13t81 51t38 129l91 8l8 -10q-31 -135 -45 -279l-13 -10q-340 10 -484 10
t-275 -16l10 86q77 8 103 36t26 99l2 649q0 50 -12 68t-50 18l-55 -2l-4 8l12 78q145 -4 369 -4t389 18l6 -10q-29 -127 -39 -274l-98 -9q4 45 4 68q0 76 -39 93q-39 18 -161 18t-138 -10t-18 -50l-12 -291l167 -2l203 17l8 -10l-24 -107q-141 4 -214 4z" />
    <glyph glyph-name="Edotaccent" unicode="&#x116;" horiz-adv-x="1210" 
d="M524 1580q0 46 35 82t84 36t76 -31t27 -77t-35 -82t-84 -36t-76 32q-27 30 -27 76zM436 221q0 -90 26 -109q26 -20 167 -20t213 18t104 65q32 48 47 167l90 10l7 -10q-37 -170 -56 -344l-10 -12q-426 14 -592 14t-313 -20l12 94q92 12 126 48t34 124l2 860q0 66 -15 88
t-61 23l-70 -5l-4 9l15 90q162 -6 440 -6t459 24l6 -12q-35 -152 -47 -340l-98 -8q4 59 4 88q0 100 -48 123q-48 22 -208 22q-158 0 -178 -11t-23 -69l-16 -397l210 -2l250 22l9 -10l-29 -121q-176 6 -269 6t-176 -14q-8 -295 -8 -385z" />
    <glyph glyph-name="edotaccent" unicode="&#x117;" horiz-adv-x="1040" 
d="M539 1186q-49 0 -76 31t-27 77t35 81q35 36 84 36t76 -31q27 -30 27 -76t-35 -82t-84 -36zM546 475q-73 0 -145 -10q-6 -156 -6 -251q-1 -94 19 -110t130 -16t166 13t81 51t38 129l91 8l8 -10q-31 -135 -45 -279l-13 -10q-340 10 -484 10t-275 -16l10 86q77 8 103 36
t26 99l2 649q0 50 -12 68t-50 18l-55 -2l-4 8l12 78q145 -4 369 -4t389 18l6 -10q-29 -127 -39 -274l-98 -9q4 45 4 68q0 76 -39 93q-39 18 -161 18t-138 -10t-18 -50l-12 -291l167 -2l203 17l8 -10l-24 -107q-141 4 -214 4z" />
    <glyph glyph-name="Eogonek" unicode="&#x118;" horiz-adv-x="1210" 
d="M436 221q0 -90 26 -109q26 -20 167 -20t213 18t104 65q32 48 47 167l90 10l7 -10q-37 -170 -56 -344l-10 -12q-41 2 -102 4q-80 -86 -112 -140t-32 -108q0 -53 33 -84t93 -31t151 47l26 -39q-100 -94 -204 -129q-103 0 -165 52t-63 128q0 78 46 146t139 160
q-280 8 -424 8t-291 -20l12 94q92 12 126 48t34 124l2 860q0 66 -15 88t-61 23l-70 -5l-4 9l15 90q162 -6 440 -6t459 24l6 -12q-35 -152 -47 -340l-98 -8q4 59 4 88q0 100 -48 123q-48 22 -208 22q-158 0 -178 -11t-23 -69l-16 -397l210 -2l250 22l9 -10l-29 -121
q-176 6 -269 6t-176 -14q-8 -295 -8 -385z" />
    <glyph glyph-name="eogonek" unicode="&#x119;" horiz-adv-x="1040" 
d="M546 475q-73 0 -145 -10q-6 -156 -6 -251q-1 -94 19 -110t130 -16t166 13t81 51t38 129l91 8l8 -10q-31 -135 -45 -279l-13 -10q-31 2 -75 2q-80 -86 -114 -142t-34 -108q0 -53 33 -84q34 -31 94 -31t150 47l26 -39q-100 -94 -205 -129q-102 0 -164 52t-63 129
q0 77 47 145t142 164q-225 4 -345 4t-251 -16l10 86q77 8 103 36t26 99l2 649q0 50 -12 68t-50 18l-55 -2l-4 8l12 78q145 -4 369 -4t389 18l6 -10q-29 -127 -39 -274l-98 -9q4 45 4 68q0 76 -39 93q-39 18 -161 18t-138 -10t-18 -50l-12 -291l167 -2l203 17l8 -10l-24 -107
q-141 4 -214 4z" />
    <glyph glyph-name="Ecaron" unicode="&#x11a;" horiz-adv-x="1210" 
d="M903 1714l29 -45l-283 -227h-28q-150 127 -283 227l29 45l18 2q137 -80 250 -133q106 49 250 133zM436 221q0 -90 26 -109q26 -20 167 -20t213 18t104 65q32 48 47 167l90 10l7 -10q-37 -170 -56 -344l-10 -12q-426 14 -592 14t-313 -20l12 94q92 12 126 48t34 124l2 860
q0 66 -15 88t-61 23l-70 -5l-4 9l15 90q162 -6 440 -6t459 24l6 -12q-35 -152 -47 -340l-98 -8q4 59 4 88q0 100 -48 123q-48 22 -208 22q-158 0 -178 -11t-23 -69l-16 -397l210 -2l250 22l9 -10l-29 -121q-176 6 -269 6t-176 -14q-8 -295 -8 -385z" />
    <glyph glyph-name="ecaron" unicode="&#x11b;" horiz-adv-x="1040" 
d="M813 1427l29 -45l-283 -227h-29q-150 127 -282 227l28 45l19 3q137 -80 250 -134q106 49 250 134zM546 475q-73 0 -145 -10q-6 -156 -6 -251q-1 -94 19 -110t130 -16t166 13t81 51t38 129l91 8l8 -10q-31 -135 -45 -279l-13 -10q-340 10 -484 10t-275 -16l10 86
q77 8 103 36t26 99l2 649q0 50 -12 68t-50 18l-55 -2l-4 8l12 78q145 -4 369 -4t389 18l6 -10q-29 -127 -39 -274l-98 -9q4 45 4 68q0 76 -39 93q-39 18 -161 18t-138 -10t-18 -50l-12 -291l167 -2l203 17l8 -10l-24 -107q-141 4 -214 4z" />
    <glyph glyph-name="Gcircumflex" unicode="&#x11c;" horiz-adv-x="1366" 
d="M444 1438l-28 45q100 104 282 313h29q150 -174 283 -313l-29 -45l-18 -2q-45 39 -250 198q-160 -119 -250 -198zM727 78q148 0 281 78v250q0 70 -22 90t-91 20h-141l-4 8l18 103q139 -8 260 -9l176 11l8 -45q-37 -31 -50 -98q-13 -68 -13 -202t14 -196l-12 -18
q-88 -37 -222 -66t-249 -29q-274 0 -436 171q-162 172 -162 478t199 506t520 199q152 0 397 -49l8 -12q-41 -154 -53 -342l-96 -8q6 55 6 110q0 94 -73 137t-236 43q-234 0 -364 -140t-130 -402t128 -425t339 -163z" />
    <glyph glyph-name="gcircumflex" unicode="&#x11d;" horiz-adv-x="1159" 
d="M338 1151l-29 45q100 104 283 313h29q150 -174 282 -313l-29 -45l-18 -2q-45 39 -250 199q-160 -121 -250 -199zM616 84q117 0 213 53v180q0 51 -17 67t-71 17h-108l-4 9l16 90l217 -4l152 8l8 -45q-33 -25 -44 -76t-11 -160t10 -155l-10 -17q-167 -69 -391 -69t-358 134
t-134 374t162 395q162 154 430 153q137 0 328 -39l8 -12q-35 -123 -43 -274l-101 -8q4 43 4 86q0 71 -55 103t-180 32q-181 0 -279 -102t-98 -301t96 -319t260 -120z" />
    <glyph glyph-name="Gbreve" unicode="&#x11e;" horiz-adv-x="1366" 
d="M748 1573q143 0 196 102h17l32 -20q-25 -85 -86 -143t-159 -58t-160 57q-61 57 -86 144l33 20h16q54 -102 197 -102zM727 78q148 0 281 78v250q0 70 -22 90t-91 20h-141l-4 8l18 103q139 -8 260 -9l176 11l8 -45q-37 -31 -50 -98q-13 -68 -13 -202t14 -196l-12 -18
q-88 -37 -222 -66t-249 -29q-274 0 -436 171q-162 172 -162 478t199 506t520 199q152 0 397 -49l8 -12q-41 -154 -53 -342l-96 -8q6 55 6 110q0 94 -73 137t-236 43q-234 0 -364 -140t-130 -402t128 -425t339 -163z" />
    <glyph glyph-name="gbreve" unicode="&#x11f;" horiz-adv-x="1159" 
d="M631 1286q143 0 196 103h17l33 -21q-25 -86 -86 -143t-159 -57t-160 56q-62 58 -87 144l33 21h16q54 -103 197 -103zM616 84q117 0 213 53v180q0 51 -17 67t-71 17h-108l-4 9l16 90l217 -4l152 8l8 -45q-33 -25 -44 -76t-11 -160t10 -155l-10 -17q-167 -69 -391 -69
t-358 134t-134 374t162 395q162 154 430 153q137 0 328 -39l8 -12q-35 -123 -43 -274l-101 -8q4 43 4 86q0 71 -55 103t-180 32q-181 0 -279 -102t-98 -301t96 -319t260 -120z" />
    <glyph glyph-name="Gdotaccent" unicode="&#x120;" horiz-adv-x="1366" 
d="M639 1580q0 46 35 82t84 36t76 -31q26 -31 26 -77t-35 -82t-84 -36t-75 32q-26 30 -27 76zM727 78q148 0 281 78v250q0 70 -22 90t-91 20h-141l-4 8l18 103q139 -8 260 -9l176 11l8 -45q-37 -31 -50 -98q-13 -68 -13 -202t14 -196l-12 -18q-88 -37 -222 -66t-249 -29
q-274 0 -436 171q-162 172 -162 478t199 506t520 199q152 0 397 -49l8 -12q-41 -154 -53 -342l-96 -8q6 55 6 110q0 94 -73 137t-236 43q-234 0 -364 -140t-130 -402t128 -425t339 -163z" />
    <glyph glyph-name="gdotaccent" unicode="&#x121;" horiz-adv-x="1159" 
d="M625 1186q-49 0 -76 31t-27 77t35 81q35 36 84 36t76 -31q27 -30 27 -76t-35 -82t-84 -36zM616 84q117 0 213 53v180q0 51 -17 67t-71 17h-108l-4 9l16 90l217 -4l152 8l8 -45q-33 -25 -44 -76t-11 -160t10 -155l-10 -17q-167 -69 -391 -69t-358 134t-134 374t162 395
q162 154 430 153q137 0 328 -39l8 -12q-35 -123 -43 -274l-101 -8q4 43 4 86q0 71 -55 103t-180 32q-181 0 -279 -102t-98 -301t96 -319t260 -120z" />
    <glyph glyph-name="Gcommaaccent" unicode="&#x122;" horiz-adv-x="1366" 
d="M708 -137q48 0 80 -40t31 -106q0 -100 -78 -181t-184 -136l-37 31v20q63 39 106 95q42 56 42 108q0 78 -82 127l4 29q70 53 118 53zM727 78q148 0 281 78v250q0 70 -22 90t-91 20h-141l-4 8l18 103q139 -8 260 -9l176 11l8 -45q-37 -31 -50 -98q-13 -68 -13 -202t14 -196
l-12 -18q-88 -37 -222 -66t-249 -29q-274 0 -436 171q-162 172 -162 478t199 506t520 199q152 0 397 -49l8 -12q-41 -154 -53 -342l-96 -8q6 55 6 110q0 94 -73 137t-236 43q-234 0 -364 -140t-130 -402t128 -425t339 -163z" />
    <glyph glyph-name="gcommaaccent" unicode="&#x123;" horiz-adv-x="1159" 
d="M612 -137q48 0 79 -40q32 -40 32 -106q0 -100 -78 -181t-184 -136l-37 31v20q63 39 105 95t42 108q0 78 -82 127l5 29q70 53 118 53zM616 84q117 0 213 53v180q0 51 -17 67t-71 17h-108l-4 9l16 90l217 -4l152 8l8 -45q-33 -25 -44 -76t-11 -160t10 -155l-10 -17
q-167 -69 -391 -69t-358 134t-134 374t162 395q162 154 430 153q137 0 328 -39l8 -12q-35 -123 -43 -274l-101 -8q4 43 4 86q0 71 -55 103t-180 32q-181 0 -279 -102t-98 -301t96 -319t260 -120z" />
    <glyph glyph-name="Hcircumflex" unicode="&#x124;" horiz-adv-x="1544" 
d="M504 1491l-29 45q100 104 283 313h28q150 -174 283 -313l-29 -45l-18 -2q-45 39 -250 199q-160 -121 -250 -199zM1241 229q1 -83 19 -111t71 -28l92 6l4 -8l-18 -94q-162 6 -252 6l-235 -4l18 92q96 2 126 43t30 176v309q-217 2 -312 2l-340 -22l-8 -367q0 -83 18 -111
t72 -28l92 6l5 -8l-19 -94q0 6 -132 6t-242 -8t-111 -17l12 95q94 18 127 54t33 122l2 860q0 66 -15 88t-61 23l-70 -5l-4 9l15 90q150 -6 220 -6t226 18l-8 -92q-88 -14 -110 -44t-25 -140l-12 -332l344 -2q131 0 303 20l2 373q0 66 -16 88t-60 23l-70 -5l-4 9l15 90
q1 -6 133 -6t313 18l-8 -92q-76 -10 -102 -34t-29 -83q-29 -598 -29 -885z" />
    <glyph glyph-name="hcircumflex" unicode="&#x125;" horiz-adv-x="1308" 
d="M385 1204l-29 45q100 104 283 314h29q150 -174 282 -314l-28 -45l-19 -2q-45 39 -250 199q-160 -119 -250 -199zM1051 190q0 -66 14 -88t57 -20l72 4l6 -8l-16 -82q-133 4 -215 4l-205 -2l16 82q76 0 101 32t24 130v229q-164 2 -235 2l-269 -16l-6 -267q1 -66 15 -88
t57 -22l72 6l4 -8l-15 -82q-98 4 -167 4t-159 -6t-91 -12l10 84q77 14 103 42t26 95l2 651q0 50 -12 68t-50 18l-55 -2l-6 8l12 78q125 -4 191 -4l198 14l-8 -84q-70 -10 -87 -32t-21 -103l-11 -248l267 -2q109 0 235 15l2 274q0 50 -12 68t-49 18l-58 -2l-4 8l13 78
q0 -4 176 -4l213 14l-6 -84q-64 -8 -84 -25t-23 -65q-22 -398 -22 -670z" />
    <glyph glyph-name="Hbar" unicode="&#x126;" horiz-adv-x="1536" 
d="M1092 920h-641l-7 -205l344 -2q131 0 304 20v187zM1237 229q0 -83 18 -111t72 -28l92 6l4 -8l-18 -94q-162 6 -252 6l-235 -4l18 92q96 2 126 43t30 176v309q-217 2 -312 2l-340 -22l-8 -367q0 -83 18 -111t72 -28l92 6l4 -8l-18 -94q0 6 -132 6t-242 -8t-111 -17l12 95
q94 18 127 54t33 122l2 672h-185l-18 18l14 80q82 -2 189 -2v92q1 66 -15 88t-61 23l-70 -5l-4 9l15 90q150 -6 220 -6t226 18l-8 -92q-88 -14 -110 -44t-25 -140l-2 -33h356q186 0 283 2v90q0 66 -16 88t-60 23l-70 -5l-4 9l14 90q0 -6 133 -6t314 18l-8 -92
q-76 -10 -106 -38t-29 -173l159 4l27 -27l-8 -75l-183 -2q-20 -441 -20 -691z" />
    <glyph glyph-name="hbar" unicode="&#x127;" horiz-adv-x="1308" 
d="M901 715h-495l-7 -148l267 -2q109 0 235 15v135zM1047 251q0 -126 14 -148t57 -21l72 4l6 -8l-16 -82q-133 4 -215 4l-205 -2l16 82q76 0 101 32t24 130v229q-164 2 -235 2l-269 -16l-6 -267q1 -66 15 -88t57 -22l72 6l4 -8l-15 -82q-98 4 -167 4t-159 -6t-92 -12l11 84
q77 14 103 42t26 95l2 510h-150l-14 14l12 68q66 -2 152 -2v61q0 50 -12 68t-50 18l-55 -2l-6 8l12 78q125 -4 191 -4l198 14l-8 -84q-70 -10 -85 -30t-25 -127h280q141 0 215 2v59q0 50 -12 68t-49 18l-58 -2l-4 8l13 78q0 -4 176 -4l213 14l-6 -84q-63 -8 -84 -24
q-27 -25 -27 -129l131 4l23 -21l-9 -63h-149q-14 -340 -14 -466z" />
    <glyph glyph-name="Itilde" unicode="&#x128;" horiz-adv-x="739" 
d="M529 1663q45 0 133 113h12l45 -43v-11l-156 -182l-33 -8q-36 0 -154 34t-143 33q-47 0 -131 -112h-12l-45 43v10l156 182l32 9q35 0 154 -34t142 -34zM436 229q0 -83 18 -111t72 -28l109 6l4 -8l-18 -94q-171 6 -267 6t-239 -25l12 95q96 18 130 54t34 122l2 860
q0 66 -15 88t-61 23l-86 -5l-4 9l14 90q160 -6 235 -6t245 18l-9 -92q-86 -10 -114 -34t-33 -83q-29 -594 -29 -885z" />
    <glyph glyph-name="itilde" unicode="&#x129;" horiz-adv-x="653" 
d="M186 1313q-46 0 -131 -113h-12l-45 43v10l156 183l32 8q35 0 154 -34t142 -34q46 0 132 113h13l45 -43v-10l-156 -183l-33 -8q-35 0 -153 34t-144 34zM395 190q1 -66 15 -88t57 -22l84 6l4 -8l-14 -82q-150 4 -234 4t-198 -18l10 84q79 14 105 42t26 95l2 651
q0 50 -12 68t-50 18l-67 -2l-4 8l10 78l209 -4l205 14l-8 -84q-68 -8 -91 -25t-26 -65q-23 -401 -23 -670z" />
    <glyph glyph-name="Imacron" unicode="&#x12a;" horiz-adv-x="739" 
d="M670 1593l12 -20l-14 -96l-586 -4l-12 18l20 92q195 -2 316 -2zM436 229q0 -83 18 -111t72 -28l109 6l4 -8l-18 -94q-171 6 -267 6t-239 -25l12 95q96 18 130 54t34 122l2 860q0 66 -15 88t-61 23l-86 -5l-4 9l14 90q160 -6 235 -6t245 18l-9 -92q-86 -10 -114 -34
t-33 -83q-29 -594 -29 -885z" />
    <glyph glyph-name="imacron" unicode="&#x12b;" horiz-adv-x="653" 
d="M625 1307l12 -21l-14 -96l-586 -4l-12 18l20 92q195 -2 315 -2zM395 190q1 -66 15 -88t57 -22l84 6l4 -8l-14 -82q-150 4 -234 4t-198 -18l10 84q79 14 105 42t26 95l2 651q0 50 -12 68t-50 18l-67 -2l-4 8l10 78l209 -4l205 14l-8 -84q-68 -8 -91 -25t-26 -65
q-23 -401 -23 -670z" />
    <glyph glyph-name="Ibreve" unicode="&#x12c;" horiz-adv-x="739" 
d="M384 1620q144 0 198 135h16l33 -20q-25 -98 -86 -166t-159 -68t-161 68q-61 68 -86 166l33 20h16q52 -135 196 -135zM436 229q0 -83 18 -111t72 -28l109 6l4 -8l-18 -94q-171 6 -267 6t-239 -25l12 95q96 18 130 54t34 122l2 860q0 66 -15 88t-61 23l-86 -5l-4 9l14 90
q160 -6 235 -6t245 18l-9 -92q-86 -10 -114 -34t-33 -83q-29 -594 -29 -885z" />
    <glyph glyph-name="ibreve" unicode="&#x12d;" horiz-adv-x="653" 
d="M338 1333q144 0 197 135h16l33 -20q-25 -98 -86 -166q-62 -68 -160 -68t-160 68q-61 68 -86 166l33 20h16q53 -135 197 -135zM395 190q1 -66 15 -88t57 -22l84 6l4 -8l-14 -82q-150 4 -234 4t-198 -18l10 84q79 14 105 42t26 95l2 651q0 50 -12 68t-50 18l-67 -2l-4 8
l10 78l209 -4l205 14l-8 -84q-68 -8 -91 -25t-26 -65q-23 -401 -23 -670z" />
    <glyph glyph-name="Iogonek" unicode="&#x12e;" horiz-adv-x="739" 
d="M242 -313q0 77 48 147t144 166h-82q-94 0 -237 -25l12 95q96 18 130 54t34 122l2 860q0 66 -15 88t-61 23l-86 -5l-4 9l14 90q160 -6 235 -6t245 18l-9 -92q-86 -10 -114 -34t-33 -83q-29 -594 -29 -885q0 -83 18 -111t72 -28l109 6l4 -8l-18 -94q-45 2 -99 4
q-84 -88 -118 -144t-34 -110t34 -86q32 -31 92 -31t151 47l27 -39q-100 -94 -205 -129q-103 1 -165 52t-62 129z" />
    <glyph glyph-name="iogonek" unicode="&#x12f;" horiz-adv-x="653" 
d="M395 190q1 -61 13 -85t45 -25l6 6h86l-2 -2l8 2l4 -8l-14 -82q-39 2 -82 2q-84 -88 -118 -144t-34 -110t33 -86q34 -31 94 -31t150 47l26 -39q-100 -94 -204 -129q-102 0 -164 52t-64 129q0 77 48 147t145 166h-58q-90 0 -204 -18l10 84q79 14 105 42t26 95l2 651
q0 50 -12 68t-50 18l-67 -2l-4 8l10 78l209 -4l205 14l-8 -84q-68 -8 -91 -25t-26 -65q-23 -401 -23 -670z" />
    <glyph glyph-name="Idotaccent" unicode="&#x130;" horiz-adv-x="739" 
d="M266 1580q0 46 35 82t84 36t76 -31t27 -77t-35 -82t-84 -36t-76 32q-27 30 -27 76zM436 229q0 -83 18 -111t72 -28l109 6l4 -8l-18 -94q-171 6 -267 6t-239 -25l12 95q96 18 130 54t34 122l2 860q0 66 -15 88t-61 23l-86 -5l-4 9l14 90q160 -6 235 -6t245 18l-9 -92
q-86 -10 -114 -34t-33 -83q-29 -594 -29 -885z" />
    <glyph glyph-name="dotlessi" unicode="&#x131;" horiz-adv-x="653" 
d="M395 190q1 -66 15 -88t57 -22l84 6l4 -8l-14 -82q-150 4 -234 4t-198 -18l10 84q79 14 105 42t26 95l2 651q0 50 -12 68t-50 18l-67 -2l-4 8l10 78l209 -4l205 14l-8 -84q-68 -8 -91 -25t-26 -65q-23 -401 -23 -670z" />
    <glyph glyph-name="IJ" unicode="&#x132;" horiz-adv-x="1409" 
d="M1008 236l2 870q0 66 -14 88t-62 20l-96 -8l-4 8l14 91h221l238 18l-9 -92q-72 -11 -94 -31t-22 -86q-23 -487 -27 -876q-2 -209 -81 -335t-253 -198l-35 68l7 16q125 75 170 169t45 278zM436 229q0 -83 18 -111t72 -28l109 6l4 -8l-18 -94q-171 6 -267 6t-239 -25l12 95
q96 18 130 54t34 122l2 860q0 66 -15 88t-61 23l-86 -5l-4 9l14 90q160 -6 235 -6t245 18l-9 -92q-86 -10 -114 -34t-33 -83q-29 -594 -29 -885z" />
    <glyph glyph-name="ij" unicode="&#x133;" horiz-adv-x="1204" 
d="M971 188l2 666q0 52 -12 68t-50 16l-75 -4l-7 8l13 78h188l211 14l-8 -84q-57 -8 -73 -24t-21 -66q-19 -477 -21 -660t-70 -282q-69 -98 -221 -154l-32 58l4 14q100 61 136 134t36 218zM395 190q1 -66 15 -88t57 -22l84 6l4 -8l-14 -82q-150 4 -234 4t-198 -18l10 84
q79 14 105 42t26 95l2 651q0 50 -12 68t-50 18l-67 -2l-4 8l10 78l209 -4l205 14l-8 -84q-68 -8 -91 -25t-26 -65q-23 -401 -23 -670z" />
    <glyph glyph-name="Jcircumflex" unicode="&#x134;" horiz-adv-x="669" 
d="M88 1438l-29 45q100 104 283 313h29q150 -174 282 -313l-28 -45l-19 -2q-45 39 -250 198q-160 -119 -250 -198zM268 236l2 870q0 66 -14 88t-61 20l-97 -8l-4 8l15 91h221l237 18l-8 -92q-72 -11 -92 -31t-25 -86q-23 -487 -26 -876q-2 -209 -81 -335t-253 -198l-35 68
l6 16q125 75 170 169t45 278z" />
    <glyph glyph-name="jcircumflex" unicode="&#x135;" horiz-adv-x="598" 
d="M45 1151l-29 45q100 104 283 313h29q150 -174 282 -313l-28 -45l-19 -2q-45 39 -250 199q-160 -121 -250 -199zM231 188l2 666q0 52 -12 68t-49 16l-76 -4l-6 8l12 78h189l211 14l-8 -84q-58 -8 -74 -24t-21 -66q-20 -477 -21 -660q-1 -184 -70 -282t-220 -154l-33 58
l4 14q100 61 137 134q35 73 35 218z" />
    <glyph glyph-name="Kcommaaccent" unicode="&#x136;" horiz-adv-x="1286" 
d="M685 -137q48 0 80 -40t32 -106q0 -100 -78 -181t-184 -136l-37 31v20q63 39 105 95t42 108q0 78 -82 127l4 29q70 53 118 53zM928 1161q0 53 -129 62l-4 8l14 88q150 -14 225 -14l189 8l8 -15l-14 -84q-53 -10 -99 -43t-137 -129l-330 -346l344 -448q74 -96 132 -135
t130 -39l9 -8l-13 -70q-147 -25 -170 -25q-102 0 -229 176l-358 498l2 29l366 381q64 63 64 106zM378 1305q70 0 226 18l-8 -92q-76 -12 -104 -38t-31 -85q-25 -887 -25 -925q0 -37 18 -65t72 -28l92 6l5 -8l-19 -94q-162 6 -252 6l-235 -2l20 92q96 10 125 39t29 117l2 860
q0 66 -15 88t-61 23l-70 -5l-4 9l15 90q150 -6 220 -6z" />
    <glyph glyph-name="kcommaaccent" unicode="&#x137;" horiz-adv-x="1112" 
d="M601 -137q48 0 80 -40t32 -106q0 -100 -78 -181t-184 -136l-37 31v20q63 39 105 95t42 108q0 78 -82 127l4 29q70 53 118 53zM778 895q0 43 -100 49l-4 8l12 78q127 -10 191 -10l165 6l9 -12l-13 -74q-45 -12 -85 -42t-115 -107l-246 -244l266 -340q60 -74 106 -105
t103 -32l8 -11l-10 -63q-133 -18 -154 -19q-90 0 -188 136l-283 391l2 26l287 285q49 45 49 80zM395 153q0 -75 72 -73l72 6l4 -8l-15 -82q-141 4 -215 4l-202 -2l16 82q79 8 101 31t22 92l2 651q0 50 -12 68t-50 18l-55 -2l-6 8l12 78q137 -4 197 -4l192 14l-6 -84
q-63 -10 -86 -29q-22 -20 -24 -65q-18 -674 -19 -703z" />
    <glyph glyph-name="kgreenlandic" unicode="&#x138;" horiz-adv-x="1112" 
d="M778 895q0 43 -100 49l-4 8l12 78q127 -10 191 -10l165 6l9 -12l-13 -74q-45 -12 -85 -42t-115 -107l-246 -244l266 -340q60 -74 106 -105t103 -32l8 -11l-10 -63q-133 -18 -154 -19q-90 0 -188 136l-283 391l2 26l287 285q49 45 49 80zM395 153q0 -75 72 -73l72 6l4 -8
l-15 -82q-141 4 -215 4l-202 -2l16 82q79 8 101 31t22 92l2 651q0 50 -12 68t-50 18l-55 -2l-6 8l12 78q137 -4 197 -4l192 14l-6 -84q-63 -10 -86 -29q-22 -20 -24 -65q-18 -674 -19 -703z" />
    <glyph glyph-name="Lacute" unicode="&#x139;" horiz-adv-x="1038" 
d="M717 1612l-8 -21q-207 -70 -422 -151l-17 10l-12 49l408 223l18 -12zM444 0q-166 0 -305 -20l13 94q80 12 110 48t29 124l2 860q0 66 -15 88t-61 23l-70 -5l-4 9l15 90q152 -6 222 -6t226 18l-8 -92q-57 -10 -70 -16q-14 -7 -23 -10q-25 -8 -30 -43q-12 -73 -12 -122
q-25 -342 -25 -790q0 -104 30 -131t176 -27t203 51q56 51 91 240l90 10l6 -10q-37 -186 -59 -389l-10 -12q-355 18 -521 18z" />
    <glyph glyph-name="lacute" unicode="&#x13a;" horiz-adv-x="905" 
d="M645 1325l-8 -20q-207 -70 -422 -152l-16 10l-13 49l408 224l18 -13zM393 0q-141 0 -268 -16l12 86q65 10 89 38t24 97l2 649q0 50 -12 68t-50 18l-55 -2l-6 8l12 78l199 -4l199 14l-9 -86q-86 -10 -100 -45q-8 -16 -21 -191t-14 -509q0 -74 24 -94q25 -21 137 -21
t157 41t71 193l90 10l7 -13q-29 -154 -47 -321l-11 -12q-289 14 -430 14z" />
    <glyph glyph-name="Lcommaaccent" unicode="&#x13b;" horiz-adv-x="1038" 
d="M624 -137q48 0 80 -40t31 -106q0 -100 -78 -181t-184 -136l-37 31v20q63 39 106 95q42 56 42 108q0 78 -82 127l4 29q70 53 118 53zM444 0q-166 0 -305 -20l13 94q80 12 110 48t29 124l2 860q0 66 -15 88t-61 23l-70 -5l-4 9l15 90q152 -6 222 -6t226 18l-8 -92
q-57 -10 -70 -16q-14 -7 -23 -10q-25 -8 -30 -43q-12 -73 -12 -122q-25 -342 -25 -790q0 -104 30 -131t176 -27t203 51q56 51 91 240l90 10l6 -10q-37 -186 -59 -389l-10 -12q-355 18 -521 18z" />
    <glyph glyph-name="lcommaaccent" unicode="&#x13c;" horiz-adv-x="905" 
d="M540 -137q48 0 80 -40t31 -106q0 -100 -78 -181t-184 -136l-37 31v20q63 39 106 95q42 56 42 108q0 78 -82 127l4 29q70 53 118 53zM393 0q-141 0 -268 -16l12 86q65 10 89 38t24 97l2 649q0 50 -12 68t-50 18l-55 -2l-6 8l12 78l199 -4l199 14l-9 -86q-86 -10 -100 -45
q-8 -16 -21 -191t-14 -509q0 -74 24 -94q25 -21 137 -21t157 41t71 193l90 10l7 -13q-29 -154 -47 -321l-11 -12q-289 14 -430 14z" />
    <glyph glyph-name="Lcaron" unicode="&#x13d;" horiz-adv-x="1038" 
d="M444 0q-166 0 -305 -20l13 94q80 12 110 48t29 124l2 860q0 66 -15 88t-61 23l-70 -5l-4 9l15 90q152 -6 222 -6t226 18l-8 -92q-57 -10 -70 -16q-14 -7 -23 -10q-25 -8 -30 -43q-12 -73 -12 -122q-25 -342 -25 -790q0 -104 30 -131t176 -27t203 51q56 51 91 240l90 10
l6 -10q-37 -186 -59 -389l-10 -12q-355 18 -521 18zM854 985q0 96 -14 283l143 28l14 -16q-29 -225 -71 -434l-52 -29l-22 4q2 68 2 164z" />
    <glyph glyph-name="lcaron" unicode="&#x13e;" horiz-adv-x="966" 
d="M393 0q-141 0 -268 -16l12 86q65 10 89 38t24 97l2 649q0 50 -12 68t-50 18l-55 -2l-6 8l12 78l199 -4l199 14l-9 -86q-86 -10 -100 -45q-8 -16 -21 -191t-14 -509q0 -74 24 -94q25 -21 137 -21t157 41t71 193l90 10l7 -13q-29 -154 -47 -321l-11 -12q-289 14 -430 14z
M727 762q0 70 -12 229l131 23l12 -13q-25 -176 -61 -342l-52 -24l-20 4q2 53 2 123z" />
    <glyph glyph-name="Ldot" unicode="&#x13f;" horiz-adv-x="1091" 
d="M894 784q-56 0 -86 34t-30 85t35 88t91 37t87 -34t31 -85t-36 -88t-92 -37zM444 0q-166 0 -305 -20l13 94q80 12 110 48t29 124l2 860q0 66 -15 88t-61 23l-70 -5l-4 9l15 90q152 -6 222 -6t226 18l-8 -92q-57 -10 -70 -16q-14 -7 -23 -10q-25 -8 -30 -43
q-12 -73 -12 -122q-25 -342 -25 -790q0 -104 30 -131t176 -27t203 51q56 51 91 240l90 10l6 -10q-37 -186 -59 -389l-10 -12q-355 18 -521 18z" />
    <glyph glyph-name="ldot" unicode="&#x140;" horiz-adv-x="1003" 
d="M645 657q0 51 35 88t91 37t87 -34t31 -84q0 -52 -36 -89t-92 -37t-86 34t-30 85zM393 0q-141 0 -268 -16l12 86q65 10 89 38t24 97l2 649q0 50 -12 68t-50 18l-55 -2l-6 8l12 78l199 -4l199 14l-9 -86q-86 -10 -100 -45q-8 -16 -21 -191t-14 -509q0 -74 24 -94
q25 -21 137 -21t157 41t71 193l90 10l7 -13q-29 -154 -47 -321l-11 -12q-289 14 -430 14z" />
    <glyph glyph-name="Lslash" unicode="&#x141;" horiz-adv-x="1128" 
d="M444 0q-166 0 -305 -20l13 94q80 12 110 48t29 124v350l-137 -68l-19 7l-10 65l166 82l2 424q0 66 -15 88t-61 23l-70 -5l-4 9l15 90q152 -6 222 -6t226 18l-8 -92q-57 -10 -70 -16q-14 -7 -23 -10q-25 -8 -30 -43q-6 -35 -10 -66t-19 -348l369 182l16 -10l11 -64
l-398 -197q-6 -158 -6 -409q0 -104 30 -131t176 -27t203 51q56 51 91 240l90 10l6 -10q-37 -186 -59 -389l-10 -12q-355 18 -521 18z" />
    <glyph glyph-name="lslash" unicode="&#x142;" horiz-adv-x="929" 
d="M420 203q0 -74 24 -94q24 -21 136 -21q114 0 158 41t71 193l90 10l6 -13q-29 -154 -47 -321l-10 -12q-288 14 -430 14t-268 -16l12 86q66 10 90 38t22 97v248l-106 -52l-16 5l-13 65l135 66l2 317q0 50 -12 68t-49 18l-55 -2l-6 8l12 78l199 -4l198 14l-8 -86
q-86 -10 -103 -49t-24 -303l285 135l14 -8l14 -66l-317 -147q-4 -113 -4 -307z" />
    <glyph glyph-name="Nacute" unicode="&#x143;" horiz-adv-x="1472" 
d="M1087 1612l-8 -21q-207 -70 -422 -151l-16 10l-12 49l407 223l19 -12zM1139 297v829q0 88 -68 88l-78 -2l-4 9l19 92q126 -8 198 -8t199 16l-10 -94q-72 -10 -105 -40t-35 -89l-28 -1151l-60 -29q-371 575 -761 1129h-11l-10 -875q0 -45 14 -63t50 -19l104 2l4 -8
l-18 -92q-129 8 -209 8t-199 -16l10 94q125 14 127 129l27 895q0 63 -38 90t-140 37l-6 10l16 76q119 -10 176 -10l137 8q303 -471 688 -1016h11z" />
    <glyph glyph-name="nacute" unicode="&#x144;" horiz-adv-x="1257" 
d="M952 1325l-8 -20q-207 -70 -422 -152l-16 10l-12 49l407 224l19 -13zM889 938h-62l-4 8l15 80q113 -6 174 -6l174 12l-8 -84q-111 -14 -113 -102l-25 -881l-79 -22q-315 459 -592 825h-11l-6 -621q0 -39 12 -53t42 -14l81 2l7 -6l-17 -82q-115 6 -186 6l-170 -12l10 84
q100 12 102 100l23 676q0 50 -30 70t-113 30l-9 10l15 70q100 -8 155 -8l125 6q248 -365 537 -747h10l-2 591q0 68 -55 68z" />
    <glyph glyph-name="Ncommaaccent" unicode="&#x145;" horiz-adv-x="1472" 
d="M759 -137q48 0 80 -40t31 -106q0 -100 -78 -181t-184 -136l-37 31v20q63 39 106 95q42 56 42 108q0 78 -82 127l4 29q70 53 118 53zM1139 297v829q0 88 -68 88l-78 -2l-4 9l19 92q126 -8 198 -8t199 16l-10 -94q-72 -10 -105 -40t-35 -89l-28 -1151l-60 -29
q-371 575 -761 1129h-11l-10 -875q0 -45 14 -63t50 -19l104 2l4 -8l-18 -92q-129 8 -209 8t-199 -16l10 94q125 14 127 129l27 895q0 63 -38 90t-140 37l-6 10l16 76q119 -10 176 -10l137 8q303 -471 688 -1016h11z" />
    <glyph glyph-name="ncommaaccent" unicode="&#x146;" horiz-adv-x="1257" 
d="M656 -137q48 0 80 -40t32 -106q0 -100 -78 -181t-184 -136l-37 31v20q63 39 105 95t42 108q0 78 -81 127l4 29q69 53 117 53zM889 938h-62l-4 8l15 80q113 -6 174 -6l174 12l-8 -84q-111 -14 -113 -102l-25 -881l-79 -22q-315 459 -592 825h-11l-6 -621q0 -39 12 -53
t42 -14l81 2l7 -6l-17 -82q-115 6 -186 6l-170 -12l10 84q100 12 102 100l23 676q0 50 -30 70t-113 30l-9 10l15 70q100 -8 155 -8l125 6q248 -365 537 -747h10l-2 591q0 68 -55 68z" />
    <glyph glyph-name="Ncaron" unicode="&#x147;" horiz-adv-x="1472" 
d="M1028 1714l29 -45l-283 -227h-29q-150 127 -282 227l29 45l18 2q137 -80 250 -133q106 49 250 133zM1139 297v829q0 88 -68 88l-78 -2l-4 9l19 92q126 -8 198 -8t199 16l-10 -94q-72 -10 -105 -40t-35 -89l-28 -1151l-60 -29q-371 575 -761 1129h-11l-10 -875
q0 -45 14 -63t50 -19l104 2l4 -8l-18 -92q-129 8 -209 8t-199 -16l10 94q125 14 127 129l27 895q0 63 -38 90t-140 37l-6 10l16 76q119 -10 176 -10l137 8q303 -471 688 -1016h11z" />
    <glyph glyph-name="ncaron" unicode="&#x148;" horiz-adv-x="1257" 
d="M915 1427l29 -45l-282 -227h-29q-150 127 -283 227l29 45l18 3q137 -80 250 -134q106 49 250 134zM889 938h-62l-4 8l15 80q113 -6 174 -6l174 12l-8 -84q-111 -14 -113 -102l-25 -881l-79 -22q-315 459 -592 825h-11l-6 -621q0 -39 12 -53t42 -14l81 2l7 -6l-17 -82
q-115 6 -186 6l-170 -12l10 84q100 12 102 100l23 676q0 50 -30 70t-113 30l-9 10l15 70q100 -8 155 -8l125 6q248 -365 537 -747h10l-2 591q0 68 -55 68z" />
    <glyph glyph-name="Eng" unicode="&#x14a;" horiz-adv-x="1472" 
d="M1139 297v829q0 88 -68 88l-78 -2l-4 9l19 92q126 -8 198 -8t199 16l-10 -94q-74 -8 -106 -39t-34 -90l-18 -922q-6 -200 -83 -314t-251 -177l-35 67l6 17q188 84 230 247q-289 446 -698 1031h-11l-10 -875q0 -45 14 -63t50 -19l102 4l6 -8l-18 -94q-133 8 -217 8
t-191 -16l10 94q72 6 99 42t30 134l25 848q0 59 -36 86t-142 41l-6 10l16 76q123 -10 166 -10l147 8q258 -406 688 -1016h11z" />
    <glyph glyph-name="eng" unicode="&#x14b;" horiz-adv-x="1255" 
d="M946 274v596q0 70 -55 70l-64 -2l-4 8l15 80q119 -6 174 -6l172 12l-8 -84q-59 -8 -85 -30t-28 -70l-14 -711q-4 -156 -72 -246t-217 -141l-33 55l6 15q147 70 182 190q-225 324 -546 762h-11l-6 -627q0 -37 12 -51t42 -14l79 4l7 -8l-15 -82q-117 6 -203 6l-151 -12
l8 82q57 6 80 34t25 99l20 647q0 48 -29 68t-114 30l-7 10l13 70q106 -8 149 -8l131 6q188 -285 537 -752h10z" />
    <glyph glyph-name="Omacron" unicode="&#x14c;" horiz-adv-x="1417" 
d="M993 1593l13 -20l-15 -96l-585 -4l-13 18l21 92q195 -2 315 -2zM649 -25q-251 1 -409 177t-158 468t194 500t465 209q271 0 433 -176t162 -468t-198 -501t-489 -209zM710 80q198 0 320 148t123 398q0 250 -130 414q-130 166 -329 166q-200 0 -318 -147t-118 -397
t127 -416t325 -166z" />
    <glyph glyph-name="omacron" unicode="&#x14d;" horiz-adv-x="1198" 
d="M907 1307l13 -21l-15 -96l-586 -4l-12 18l21 92q195 -2 315 -2zM84 486q0 232 158 392t384 160t357 -135t131 -367t-160 -394q-160 -160 -385 -160t-355 136t-130 368zM601 80q153 0 245 108t92 298t-98 314t-251 124t-242 -106t-89 -298t95 -316t248 -124z" />
    <glyph glyph-name="Obreve" unicode="&#x14e;" horiz-adv-x="1417" 
d="M666 1620q145 0 196 135h17l32 -20q-25 -98 -86 -166t-159 -68t-160 68q-61 68 -86 166l33 20h16q52 -135 197 -135zM649 -25q-251 1 -409 177t-158 468t194 500t465 209q271 0 433 -176t162 -468t-198 -501t-489 -209zM710 80q198 0 320 148t123 398q0 250 -130 414
q-130 166 -329 166q-200 0 -318 -147t-118 -397t127 -416t325 -166z" />
    <glyph glyph-name="obreve" unicode="&#x14f;" horiz-adv-x="1198" 
d="M588 1333q144 0 196 135h17l33 -20q-25 -98 -86 -166q-62 -68 -160 -68t-160 68q-61 68 -86 166l33 20h16q53 -135 197 -135zM84 486q0 232 158 392t384 160t357 -135t131 -367t-160 -394q-160 -160 -385 -160t-355 136t-130 368zM601 80q153 0 245 108t92 298t-98 314
t-251 124t-242 -106t-89 -298t95 -316t248 -124z" />
    <glyph glyph-name="Ohungarumlaut" unicode="&#x150;" horiz-adv-x="1417" 
d="M1167 1599l-6 -18q-164 -82 -336 -178l-14 8l-20 43l313 242l18 -10zM881 1618l-7 -19q-164 -82 -335 -178l-17 11l-18 43l313 239l19 -8zM649 -25q-251 1 -409 177t-158 468t194 500t465 209q271 0 433 -176t162 -468t-198 -501t-489 -209zM710 80q198 0 320 148
t123 398q0 250 -130 414q-130 166 -329 166q-200 0 -318 -147t-118 -397t127 -416t325 -166z" />
    <glyph glyph-name="ohungarumlaut" unicode="&#x151;" horiz-adv-x="1198" 
d="M1024 1313l-6 -19q-164 -82 -336 -178l-14 8l-21 43l314 242l18 -10zM737 1331l-6 -18q-164 -82 -336 -178l-16 10l-19 43l314 239l18 -8zM84 486q0 232 158 392t384 160t357 -135t131 -367t-160 -394q-160 -160 -385 -160t-355 136t-130 368zM601 80q153 0 245 108
t92 298t-98 314t-251 124t-242 -106t-89 -298t95 -316t248 -124z" />
    <glyph glyph-name="OE" unicode="&#x152;" horiz-adv-x="1972" 
d="M702 82q198 0 278 78q81 78 85 266l2 530q0 152 -76 203q-77 51 -283 51t-327 -150t-121 -398q0 -250 122 -415t320 -165zM1198 2q-154 0 -326 -13t-235 -14q-245 -1 -399 177t-154 469t190 499t469 209q66 0 213 -14t236 -15q416 0 623 29l6 -12q-35 -152 -47 -340
l-99 -8q4 59 4 88q0 100 -49 123q-49 22 -208 22t-178 -11t-23 -69l-17 -397l213 -2l250 22l8 -10l-28 -121q-176 6 -287 7l-160 -15l-6 -391q0 -84 26 -103q26 -20 166 -20t213 18q72 18 104 65q32 48 48 167l90 10l6 -10q-37 -170 -55 -344l-10 -12q-430 16 -584 16z" />
    <glyph glyph-name="oe" unicode="&#x153;" horiz-adv-x="1652" 
d="M593 80q153 0 215 56t64 194l2 409q0 111 -59 150t-217 39t-249 -108t-91 -301t91 -316t244 -123zM1154 88q110 0 166 13t81 51t39 129l90 8l6 -10q-29 -135 -45 -279l-10 -10q-344 12 -475 12q-132 0 -270 -10t-189 -10q-207 0 -334 136t-127 368t154 392t387 158
q53 0 176 -10t323 -10t385 22l7 -10q-29 -127 -39 -274l-99 -9q4 45 4 68q0 76 -39 93q-40 18 -162 18q-123 0 -139 -10t-18 -50l-12 -291l170 -2l202 17l9 -10l-25 -107q-141 4 -231 4l-129 -10l-6 -281q0 -66 20 -81t130 -15z" />
    <glyph glyph-name="Racute" unicode="&#x154;" horiz-adv-x="1251" 
d="M952 1612l-8 -21q-207 -70 -422 -151l-16 10l-12 49l407 223l19 -12zM879 954q0 270 -375 271q-20 1 -28 -9t-9 -38q-18 -313 -21 -504l211 -21q76 18 146 90q29 31 52 87q24 56 24 124zM1049 1004q0 -268 -301 -406l225 -356q59 -98 115 -136t139 -38l8 -9l-12 -69
l-174 -23q-51 0 -110 52q-58 52 -108 143l-219 397h-170l-6 -305q0 -112 25 -140t123 -28l4 -8l-19 -86q0 2 -217 6l-235 -6l18 92q96 10 126 42t30 120l2 860q0 66 -15 88t-61 23l-70 -5l-4 9l15 90q150 -6 227 -6l252 8q190 0 301 -86t111 -223z" />
    <glyph glyph-name="racute" unicode="&#x155;" horiz-adv-x="1083" 
d="M846 1325l-8 -20q-207 -70 -422 -152l-17 10l-12 49l408 224l18 -13zM741 739q0 199 -292 199q-29 0 -29 -37q-16 -250 -17 -369l166 -16q172 70 172 223zM907 782q0 -211 -241 -319l174 -262q49 -74 94 -105t108 -30l9 -11l-11 -63l-157 -17q-96 0 -178 150l-173 301
h-133l-4 -219q-1 -84 19 -106t102 -23l4 -6l-16 -78q0 4 -189 4l-204 -6l14 84q77 10 101 35t24 92l2 653q0 48 -12 66t-47 18l-58 -2l-6 8l12 78q129 -4 193 -4l219 6q166 0 260 -69t94 -175z" />
    <glyph glyph-name="Rcommaaccent" unicode="&#x156;" horiz-adv-x="1251" 
d="M665 -137q47 0 79 -40t32 -106q0 -100 -78 -181t-184 -136l-37 31v20q63 39 106 95q42 56 42 108q0 78 -82 127l4 29q70 53 118 53zM879 954q0 270 -375 271q-20 1 -28 -9t-9 -38q-18 -313 -21 -504l211 -21q76 18 146 90q29 31 52 87q24 56 24 124zM1049 1004
q0 -268 -301 -406l225 -356q59 -98 115 -136t139 -38l8 -9l-12 -69l-174 -23q-51 0 -110 52q-58 52 -108 143l-219 397h-170l-6 -305q0 -112 25 -140t123 -28l4 -8l-19 -86q0 2 -217 6l-235 -6l18 92q96 10 126 42t30 120l2 860q0 66 -15 88t-61 23l-70 -5l-4 9l15 90
q150 -6 227 -6l252 8q190 0 301 -86t111 -223z" />
    <glyph glyph-name="rcommaaccent" unicode="&#x157;" horiz-adv-x="1083" 
d="M583 -137q48 0 80 -40t31 -106q0 -100 -78 -181t-184 -136l-37 31v20q63 39 106 95q42 56 42 108q0 78 -82 127l4 29q70 53 118 53zM741 739q0 199 -292 199q-29 0 -29 -37q-16 -250 -17 -369l166 -16q172 70 172 223zM907 782q0 -211 -241 -319l174 -262q49 -74 94 -105
t108 -30l9 -11l-11 -63l-157 -17q-96 0 -178 150l-173 301h-133l-4 -219q-1 -84 19 -106t102 -23l4 -6l-16 -78q0 4 -189 4l-204 -6l14 84q77 10 101 35t24 92l2 653q0 48 -12 66t-47 18l-58 -2l-6 8l12 78q129 -4 193 -4l219 6q166 0 260 -69t94 -175z" />
    <glyph glyph-name="Rcaron" unicode="&#x158;" horiz-adv-x="1251" 
d="M893 1714l29 -45l-283 -227h-29q-150 127 -282 227l28 45l19 2q137 -80 250 -133q106 49 249 133zM879 954q0 270 -375 271q-20 1 -28 -9t-9 -38q-18 -313 -21 -504l211 -21q76 18 146 90q29 31 52 87q24 56 24 124zM1049 1004q0 -268 -301 -406l225 -356
q59 -98 115 -136t139 -38l8 -9l-12 -69l-174 -23q-51 0 -110 52q-58 52 -108 143l-219 397h-170l-6 -305q0 -112 25 -140t123 -28l4 -8l-19 -86q0 2 -217 6l-235 -6l18 92q96 10 126 42t30 120l2 860q0 66 -15 88t-61 23l-70 -5l-4 9l15 90q150 -6 227 -6l252 8
q190 0 301 -86t111 -223z" />
    <glyph glyph-name="rcaron" unicode="&#x159;" horiz-adv-x="1083" 
d="M809 1427l29 -45l-283 -227h-29q-150 127 -282 227l28 45l19 3q137 -80 250 -134q106 49 250 134zM741 739q0 199 -292 199q-29 0 -29 -37q-16 -250 -17 -369l166 -16q172 70 172 223zM907 782q0 -211 -241 -319l174 -262q49 -74 94 -105t108 -30l9 -11l-11 -63l-157 -17
q-96 0 -178 150l-173 301h-133l-4 -219q-1 -84 19 -106t102 -23l4 -6l-16 -78q0 4 -189 4l-204 -6l14 84q77 10 101 35t24 92l2 653q0 48 -12 66t-47 18l-58 -2l-6 8l12 78q129 -4 193 -4l219 6q166 0 260 -69t94 -175z" />
    <glyph glyph-name="Sacute" unicode="&#x15a;" horiz-adv-x="1085" 
d="M864 1612l-8 -21q-207 -70 -422 -151l-16 10l-12 49l407 223l18 -12zM449 -25q-170 0 -322 70l-10 21q25 158 24 356l92 10q1 -221 51 -289q50 -67 197 -67t226 60q77 60 77 158t-92 167q-68 51 -136 86t-70 36q-3 1 -6 3t-80 42t-152 105q-109 90 -109 215
q0 162 136 272t335 109q156 0 314 -51l6 -12q-33 -158 -45 -346l-80 -9l-12 11q6 43 6 106q1 109 -53 150t-179 41q-125 -1 -197 -57t-73 -139q0 -83 71 -143q70 -60 240 -148t236 -146q111 -94 110 -211q0 -176 -141 -288t-364 -112z" />
    <glyph glyph-name="sacute" unicode="&#x15b;" horiz-adv-x="940" 
d="M770 1325l-8 -20q-207 -70 -422 -152l-16 10l-13 49l408 224l18 -13zM674 807q0 125 -180 125q-96 0 -152 -40t-57 -101q0 -61 56 -105t144 -85q88 -42 116 -55t79 -45q141 -88 140 -217q-1 -128 -120 -215t-290 -87t-291 55l-10 18q23 129 22 277l92 8q0 -160 41 -210
t154 -50t173 43t60 113t-73 120q-43 29 -165 88t-200 119q-86 70 -86 172q0 131 115 217t272 86t279 -39l8 -14q-29 -125 -39 -270l-80 -8l-12 8q4 31 4 92z" />
    <glyph glyph-name="Scircumflex" unicode="&#x15c;" horiz-adv-x="1085" 
d="M449 -25q-170 0 -322 70l-10 21q25 158 24 356l92 10q1 -221 51 -289q50 -67 197 -67t226 60q77 60 77 158t-92 167q-68 51 -136 86t-70 36q-3 1 -6 3t-80 42t-152 105q-109 90 -109 215q0 162 136 272t335 109q156 0 314 -51l6 -12q-33 -158 -45 -346l-80 -9l-12 11
q6 43 6 106q1 109 -53 150t-179 41q-125 -1 -197 -57t-73 -139q0 -83 71 -143q70 -60 240 -148t236 -146q111 -94 110 -211q0 -176 -141 -288t-364 -112zM332 1438l-29 45q100 104 283 313h28q150 -174 283 -313l-29 -45l-18 -2q-45 39 -250 198q-160 -119 -250 -198z" />
    <glyph glyph-name="scircumflex" unicode="&#x15d;" horiz-adv-x="940" 
d="M246 1151l-29 45q100 104 283 313h28q150 -174 283 -313l-29 -45l-18 -2q-45 39 -250 199q-160 -121 -250 -199zM674 807q0 125 -180 125q-96 0 -152 -40t-57 -101q0 -61 56 -105t144 -85q88 -42 116 -55t79 -45q141 -88 140 -217q-1 -128 -120 -215t-290 -87t-291 55
l-10 18q23 129 22 277l92 8q0 -160 41 -210t154 -50t173 43t60 113t-73 120q-43 29 -165 88t-200 119q-86 70 -86 172q0 131 115 217t272 86t279 -39l8 -14q-29 -125 -39 -270l-80 -8l-12 8q4 31 4 92z" />
    <glyph glyph-name="Scedilla" unicode="&#x15e;" horiz-adv-x="1085" 
d="M449 -25q-170 0 -322 70l-10 21q25 158 24 356l92 10q1 -221 51 -289q50 -67 197 -67t226 60q77 60 77 158t-92 167q-68 51 -136 86t-70 36q-3 1 -6 3t-80 42t-152 105q-109 90 -109 215q0 162 136 272t335 109q156 0 314 -51l6 -12q-33 -158 -45 -346l-80 -9l-12 11
q6 43 6 106q1 109 -53 150t-179 41q-125 -1 -197 -57t-73 -139q0 -83 71 -143q70 -60 240 -148t236 -146q111 -94 110 -211q0 -154 -110 -260t-291 -131l-29 -86q8 -6 36 -24q88 -58 108 -89q31 -37 30 -70q0 -78 -78 -135t-149 -57q-70 0 -114 20q-44 19 -44 53t52 115h18
q2 -55 33 -86t76 -31q46 0 74 22t28 56q0 53 -174 154l45 149h-16z" />
    <glyph glyph-name="scedilla" unicode="&#x15f;" horiz-adv-x="940" 
d="M674 807q0 125 -180 125q-96 0 -152 -40t-57 -101q0 -61 56 -105t144 -85q88 -42 116 -55t79 -45q141 -88 140 -207q-1 -118 -90 -200t-238 -104l-31 -92q8 -6 63 -42q111 -74 111 -146q0 -73 -79 -130q-78 -57 -148 -57t-114 20q-44 19 -44 53t51 115h18q2 -55 32 -86
t76 -31t75 22t28 56q0 53 -174 154l47 156h-12q-153 0 -272 55l-10 18q23 129 22 277l92 8q0 -160 41 -210t154 -50t173 43t60 113t-73 120q-43 29 -165 88t-200 119q-86 70 -86 172q0 131 115 217t272 86t279 -39l8 -14q-29 -125 -39 -270l-80 -8l-12 8q4 31 4 92z" />
    <glyph glyph-name="Scaron" unicode="&#x160;" horiz-adv-x="1085" 
d="M805 1714l29 -45l-283 -227h-29q-150 127 -282 227l28 45l19 2q137 -80 250 -133q106 49 249 133zM449 -25q-170 0 -322 70l-10 21q25 158 24 356l92 10q1 -221 51 -289q50 -67 197 -67t226 60q77 60 77 158t-92 167q-68 51 -136 86t-70 36q-3 1 -6 3t-80 42t-152 105
q-109 90 -109 215q0 162 136 272t335 109q156 0 314 -51l6 -12q-33 -158 -45 -346l-80 -9l-12 11q6 43 6 106q1 109 -53 150t-179 41q-125 -1 -197 -57t-73 -139q0 -83 71 -143q70 -60 240 -148t236 -146q111 -94 110 -211q0 -176 -141 -288t-364 -112z" />
    <glyph glyph-name="scaron" unicode="&#x161;" horiz-adv-x="940" 
d="M735 1427l29 -45l-283 -227h-28q-150 127 -283 227l29 45l18 3q137 -80 250 -134q106 49 250 134zM674 807q0 125 -180 125q-96 0 -152 -40t-57 -101q0 -61 56 -105t144 -85q88 -42 116 -55t79 -45q141 -88 140 -217q-1 -128 -120 -215t-290 -87t-291 55l-10 18
q23 129 22 277l92 8q0 -160 41 -210t154 -50t173 43t60 113t-73 120q-43 29 -165 88t-200 119q-86 70 -86 172q0 131 115 217t272 86t279 -39l8 -14q-29 -125 -39 -270l-80 -8l-12 8q4 31 4 92z" />
    <glyph glyph-name="Tcedilla" unicode="&#x162;" horiz-adv-x="1118" 
d="M477 332v893q-96 -4 -138 -6q-42 -3 -90 -15q-47 -12 -61 -22t-33 -46t-25 -67t-15 -102l-97 -9q25 180 31 355l19 16l170 -22h634l175 22l18 -16q4 -133 31 -346l-97 -9q-12 72 -18 105t-25 70q-18 37 -32 47t-58 23t-86 15q-41 2 -127 7q-33 -328 -32 -996
q1 -75 27 -107t89 -32l113 6l6 -8l-18 -94q-133 4 -234 6l-35 -102q8 -6 36 -24q88 -58 108 -89q31 -37 30 -70q-1 -78 -79 -135t-148 -57t-114 20q-44 19 -44 53t52 115h18q2 -55 33 -86t76 -31t73 22t29 56q0 53 -174 154l53 174l-262 -8l16 88q143 12 174 50t31 202z" />
    <glyph glyph-name="tcedilla" unicode="&#x163;" horiz-adv-x="970" 
d="M408 260v678q-164 -6 -209 -29t-68 -176l-96 -6q20 156 24 297l17 14l145 -16h522l150 16l16 -14q4 -150 23 -291l-94 -6q-16 112 -36 141q-18 29 -28 39q-23 24 -199 31q-27 -248 -26 -748q1 -59 23 -84t73 -24l90 4l6 -6l-14 -86q-106 4 -190 6l-35 -102q8 -6 63 -42
q111 -74 111 -146q0 -73 -79 -130t-149 -57t-113 20q-44 19 -44 53t51 115h18q2 -55 32 -86t76 -31t75 22t28 56q0 53 -174 154l54 174l-226 -8l15 82q116 8 142 38t26 148z" />
    <glyph glyph-name="Tcaron" unicode="&#x164;" horiz-adv-x="1118" 
d="M834 1714l28 -45l-282 -227h-29q-150 127 -283 227l29 45l18 2q137 -80 250 -133q106 49 250 133zM477 332v893q-96 -4 -138 -6q-42 -3 -90 -15q-47 -12 -61 -22t-33 -46t-25 -67t-15 -102l-97 -9q25 180 31 355l19 16l170 -22h634l175 22l18 -16q4 -133 31 -346l-97 -9
q-12 72 -18 105t-25 70q-18 37 -32 47t-58 23t-86 15q-41 2 -127 7q-33 -328 -32 -996q1 -75 27 -107t89 -32l113 6l6 -8l-18 -94q-205 6 -301 6l-281 -8l16 88q143 12 174 50t31 202z" />
    <glyph glyph-name="tcaron" unicode="&#x165;" horiz-adv-x="970" 
d="M758 1427l28 -45l-282 -227h-29q-150 127 -282 227l28 45l19 3q137 -80 249 -134q106 49 250 134zM408 260v678q-164 -6 -209 -29t-68 -176l-96 -6q20 156 24 297l17 14l145 -16h522l150 16l16 -14q4 -150 23 -291l-94 -6q-16 112 -36 141q-18 29 -28 39q-23 24 -199 31
q-27 -248 -26 -748q1 -59 23 -84t73 -24l90 4l6 -6l-14 -86q-178 6 -258 6l-244 -8l15 82q116 8 142 38t26 148z" />
    <glyph glyph-name="Tbar" unicode="&#x166;" horiz-adv-x="1118" 
d="M477 332v280l-190 -2l-19 19l15 80q98 -2 194 -2v518q-96 -4 -138 -6q-42 -3 -90 -15q-47 -12 -61 -22t-33 -46t-25 -67t-15 -102l-97 -9q25 180 31 355l19 16l170 -22h634l175 22l18 -16q4 -133 31 -346l-97 -9q-12 72 -18 105t-25 70q-18 37 -32 47t-58 23t-86 15
q-41 2 -127 7q-16 -150 -26 -518l157 10l27 -27l-8 -76l-178 -2q-4 -266 -4 -362q1 -96 27 -128t89 -32l113 6l6 -8l-18 -94q-205 6 -301 6l-281 -8l16 88q143 12 174 50t31 202z" />
    <glyph glyph-name="tbar" unicode="&#x167;" horiz-adv-x="970" 
d="M408 260v148l-185 -2l-18 18l14 80q94 -2 189 -2v436q-164 -6 -209 -29t-68 -176l-96 -6q20 156 24 297l17 14l145 -16h522l150 16l16 -14q4 -150 23 -291l-94 -6q-16 112 -36 141q-18 29 -28 39q-23 24 -199 31q-16 -127 -22 -436l168 10l27 -27l-9 -75l-188 -2
q-2 -76 -2 -218q1 -59 23 -84t73 -24l90 4l6 -6l-14 -86q-178 6 -258 6l-244 -8l15 82q116 8 142 38t26 148z" />
    <glyph glyph-name="Utilde" unicode="&#x168;" horiz-adv-x="1394" 
d="M826 1663q46 0 132 113h13l45 -43v-11l-156 -182l-33 -8q-35 0 -153 34t-144 33q-47 0 -131 -112h-12l-45 43v10l156 182l32 9q35 0 154 -34t142 -34zM720 92q167 0 255 89t88 257l-12 668q-3 72 -17 91t-59 20l-88 -5l-4 9l14 90q153 -6 225 -6t205 18l-8 -92
q-90 -13 -116 -33t-25 -84v-688q0 -215 -134 -333t-361 -118q-228 0 -345 118t-117 335v678q0 66 -15 88t-61 23l-69 -5l-4 9l14 90q154 -6 224 -6t222 18l-8 -92q-76 -10 -102 -34t-29 -83l-16 -602q0 -202 88 -311t255 -109z" />
    <glyph glyph-name="utilde" unicode="&#x169;" horiz-adv-x="1177" 
d="M430 1313q-46 0 -131 -113h-12l-45 43v10l155 183l33 8q35 0 154 -34t142 -34q44 0 132 113h12l45 -43v-10l-155 -183l-33 -8q-35 0 -154 34t-143 34zM608 88q262 0 262 252l-8 514q-4 54 -14 70t-45 16l-70 -2l-2 6l12 80q127 -4 191 -4l172 12l-6 -82q-72 -10 -92 -26
t-21 -62v-524q1 -170 -109 -263t-301 -93t-287 90q-95 90 -95 260v522q-1 50 -13 68t-49 18l-55 -2l-4 6l12 80q131 -4 203 -4l182 12l-8 -82q-59 -8 -79 -26t-26 -64l-12 -469q0 -145 68 -224t194 -79z" />
    <glyph glyph-name="Umacron" unicode="&#x16a;" horiz-adv-x="1394" 
d="M1004 1593l12 -20l-15 -96l-585 -4l-13 18l21 92q195 -2 315 -2zM720 92q167 0 255 89t88 257l-12 668q-3 72 -17 91t-59 20l-88 -5l-4 9l14 90q153 -6 225 -6t205 18l-8 -92q-90 -13 -116 -33t-25 -84v-688q0 -215 -134 -333t-361 -118q-228 0 -345 118t-117 335v678
q0 66 -15 88t-61 23l-69 -5l-4 9l14 90q154 -6 224 -6t222 18l-8 -92q-76 -10 -102 -34t-29 -83l-16 -602q0 -202 88 -311t255 -109z" />
    <glyph glyph-name="umacron" unicode="&#x16b;" horiz-adv-x="1177" 
d="M895 1307l12 -21l-14 -96l-586 -4l-12 18l20 92q195 -2 316 -2zM608 88q262 0 262 252l-8 514q-4 54 -14 70t-45 16l-70 -2l-2 6l12 80q127 -4 191 -4l172 12l-6 -82q-72 -10 -92 -26t-21 -62v-524q1 -170 -109 -263t-301 -93t-287 90q-95 90 -95 260v522q-1 50 -13 68
t-49 18l-55 -2l-4 6l12 80q131 -4 203 -4l182 12l-8 -82q-59 -8 -79 -26t-26 -64l-12 -469q0 -145 68 -224t194 -79z" />
    <glyph glyph-name="Ubreve" unicode="&#x16c;" horiz-adv-x="1394" 
d="M682 1620q145 0 197 135h16l33 -20q-25 -98 -86 -166q-62 -68 -160 -68t-160 68q-61 68 -86 166l33 20h16q52 -135 197 -135zM720 92q167 0 255 89t88 257l-12 668q-3 72 -17 91t-59 20l-88 -5l-4 9l14 90q153 -6 225 -6t205 18l-8 -92q-90 -13 -116 -33t-25 -84v-688
q0 -215 -134 -333t-361 -118q-228 0 -345 118t-117 335v678q0 66 -15 88t-61 23l-69 -5l-4 9l14 90q154 -6 224 -6t222 18l-8 -92q-76 -10 -102 -34t-29 -83l-16 -602q0 -202 88 -311t255 -109z" />
    <glyph glyph-name="ubreve" unicode="&#x16d;" horiz-adv-x="1177" 
d="M580 1333q144 0 198 135h17l32 -20q-25 -98 -86 -166t-159 -68t-160 68q-61 68 -86 166l33 20h16q51 -135 195 -135zM608 88q262 0 262 252l-8 514q-4 54 -14 70t-45 16l-70 -2l-2 6l12 80q127 -4 191 -4l172 12l-6 -82q-72 -10 -92 -26t-21 -62v-524q1 -170 -109 -263
t-301 -93t-287 90q-95 90 -95 260v522q-1 50 -13 68t-49 18l-55 -2l-4 6l12 80q131 -4 203 -4l182 12l-8 -82q-59 -8 -79 -26t-26 -64l-12 -469q0 -145 68 -224t194 -79z" />
    <glyph glyph-name="Uring" unicode="&#x16e;" horiz-adv-x="1394" 
d="M545 1545q0 75 47 123t125 48t118 -45q39 -45 39 -115t-47 -122q-47 -54 -124 -54t-117 45t-41 120zM715 1458q90 0 90 80q0 45 -28 72t-77 26q-90 0 -90 -80q0 -50 33 -74t72 -24zM720 92q167 0 255 89t88 257l-12 668q-3 72 -17 91t-59 20l-88 -5l-4 9l14 90
q153 -6 225 -6t205 18l-8 -92q-90 -13 -116 -33t-25 -84v-688q0 -215 -134 -333t-361 -118q-228 0 -345 118t-117 335v678q0 66 -15 88t-61 23l-69 -5l-4 9l14 90q154 -6 224 -6t222 18l-8 -92q-76 -10 -102 -34t-29 -83l-16 -602q0 -202 88 -311t255 -109z" />
    <glyph glyph-name="uring" unicode="&#x16f;" horiz-adv-x="1177" 
d="M595 1094q-77 0 -118 45t-41 119t47 123t126 49t118 -46t39 -114q0 -70 -47 -123t-124 -53zM606 1171q90 0 90 80q0 45 -27 72q-28 27 -77 27q-90 0 -90 -80q0 -49 32 -74t72 -25zM608 88q262 0 262 252l-8 514q-4 54 -14 70t-45 16l-70 -2l-2 6l12 80q127 -4 191 -4
l172 12l-6 -82q-72 -10 -92 -26t-21 -62v-524q1 -170 -109 -263t-301 -93t-287 90q-95 90 -95 260v522q-1 50 -13 68t-49 18l-55 -2l-4 6l12 80q131 -4 203 -4l182 12l-8 -82q-59 -8 -79 -26t-26 -64l-12 -469q0 -145 68 -224t194 -79z" />
    <glyph glyph-name="Uhungarumlaut" unicode="&#x170;" horiz-adv-x="1394" 
d="M1178 1599l-7 -18q-164 -82 -335 -178l-15 8l-20 43l313 242l19 -10zM891 1618l-6 -19q-164 -82 -336 -178l-17 11l-18 43l313 239l19 -8zM720 92q167 0 255 89t88 257l-12 668q-3 72 -17 91t-59 20l-88 -5l-4 9l14 90q153 -6 225 -6t205 18l-8 -92q-90 -13 -116 -33
t-25 -84v-688q0 -215 -134 -333t-361 -118q-228 0 -345 118t-117 335v678q0 66 -15 88t-61 23l-69 -5l-4 9l14 90q154 -6 224 -6t222 18l-8 -92q-76 -10 -102 -34t-29 -83l-16 -602q0 -202 88 -311t255 -109z" />
    <glyph glyph-name="uhungarumlaut" unicode="&#x171;" horiz-adv-x="1177" 
d="M1034 1313l-6 -19q-164 -82 -336 -178l-14 8l-21 43l314 242l18 -10zM748 1331l-7 -18q-164 -82 -335 -178l-17 10l-18 43l313 239l18 -8zM608 88q262 0 262 252l-8 514q-4 54 -14 70t-45 16l-70 -2l-2 6l12 80q127 -4 191 -4l172 12l-6 -82q-72 -10 -92 -26t-21 -62
v-524q1 -170 -109 -263t-301 -93t-287 90q-95 90 -95 260v522q-1 50 -13 68t-49 18l-55 -2l-4 6l12 80q131 -4 203 -4l182 12l-8 -82q-59 -8 -79 -26t-26 -64l-12 -469q0 -145 68 -224t194 -79z" />
    <glyph glyph-name="Uogonek" unicode="&#x172;" horiz-adv-x="1394" 
d="M670 -292q0 97 192 292q-86 -25 -192 -25q-215 0 -332 118t-117 335v678q0 66 -15 88t-61 23l-69 -5l-4 9l14 90q154 -6 224 -6t222 18l-8 -92q-76 -10 -102 -34t-29 -83l-16 -602q0 -204 88 -312t255 -108t255 89t88 257l-12 668q-3 72 -17 91t-59 20l-88 -5l-4 9l14 90
q153 -6 225 -6t205 18l-8 -92q-90 -15 -116 -35t-25 -82v-688q0 -205 -142 -345t-189 -209q-48 -69 -48 -126q1 -57 33 -88t92 -31t151 47l27 -39q-100 -94 -205 -129q-105 1 -166 53t-61 149z" />
    <glyph glyph-name="uogonek" unicode="&#x173;" horiz-adv-x="1177" 
d="M655 -250q1 -122 127 -123q60 0 150 47l26 -39q-100 -94 -204 -129q-103 1 -165 52t-63 129q0 77 48 147t143 164q-72 -16 -150 -16q-182 0 -277 90t-95 260v522q-1 50 -13 68t-49 18l-55 -2l-4 6l12 80q131 -4 203 -4l182 12l-8 -82q-59 -8 -79 -26t-26 -64l-12 -469
q0 -145 68 -224t194 -79q262 0 262 252l-8 514q-4 54 -14 70t-45 16l-70 -2l-2 6l12 80q127 -4 191 -4l172 12l-6 -82q-72 -12 -92 -27t-21 -61v-524q0 -160 -108 -268q-137 -140 -181 -200t-43 -120z" />
    <glyph glyph-name="Wcircumflex" unicode="&#x174;" horiz-adv-x="1908" 
d="M686 1460l-29 45l283 228h29q150 -127 282 -228l-28 -45l-19 -2q-137 80 -250 133q-106 -49 -249 -133zM267 1305q105 0 259 22l6 -14l-8 -80q-104 -9 -140 -25t-36 -55q0 -80 252 -954h12l289 786l-37 113q-20 59 -63 86t-121 30l-4 9l14 88q164 -6 260 -6t269 22l6 -14
l-8 -80q-107 -9 -143 -25t-36 -53q0 -68 254 -956h13q332 895 331 952q0 72 -139 72h-102l-4 8l14 88q154 -14 285 -14l217 6l-15 -97q-61 -4 -86 -21t-45 -77l-430 -1106l-127 -45q-117 420 -256 869h-12l-291 -824l-131 -45q-170 602 -342 1133q-37 114 -184 116l-2 9
l12 88q164 -6 269 -6z" />
    <glyph glyph-name="wcircumflex" unicode="&#x175;" horiz-adv-x="1624" 
d="M547 1174l-29 45l283 227h28q150 -127 283 -227l-29 -45l-18 -3q-137 80 -250 134q-106 -49 -250 -134zM240 1020q84 0 227 16l6 -12l-8 -74q-86 -6 -113 -18t-26 -43q0 -57 192 -717h12q41 100 122 322t104 280q-4 12 -12 33t-19 57q-20 68 -141 76l-4 6l12 78
q138 -4 216 -4t234 16l7 -12l-7 -74q-86 -6 -114 -18t-27 -52q0 -40 193 -708h14q66 160 160 423t94 294t-24 43t-83 12h-77l-4 8l12 78q129 -10 233 -10l183 4l-13 -84q-47 -4 -66 -18t-36 -62l-338 -852l-145 -35q-16 98 -195 643h-10l-224 -608l-147 -35
q-141 494 -270 873q-29 88 -144 94q0 2 -4 6l13 78q133 -4 217 -4z" />
    <glyph glyph-name="Ycircumflex" unicode="&#x176;" horiz-adv-x="1101" 
d="M315 1460l-28 45l282 228h29q150 -127 283 -228l-29 -45l-18 -2q-137 80 -250 133q-106 -49 -250 -133zM334 1165q0 -59 171 -413q56 -119 58 -119h10l234 434q33 59 33 102q0 53 -129 62l-4 8l12 80q152 -14 227 -14l189 8l8 -15l-13 -75q-94 -18 -140 -64t-113 -178
l-220 -385q-35 -62 -40 -162t-5 -193t18 -122t72 -29l101 6l4 -8l-19 -94q-170 6 -260 6t-233 -25l12 95q106 20 133 61t27 160v90q0 113 -59 231l-185 375q-70 143 -98 174q-47 51 -160 62l-4 8l12 80q131 -6 226 -6l290 16l7 -14l-7 -72q-91 -9 -123 -24t-32 -46z" />
    <glyph glyph-name="ycircumflex" unicode="&#x177;" horiz-adv-x="972" 
d="M248 1174l-29 45l283 227h28q150 -127 283 -227l-29 -45l-18 -3q-137 80 -250 134q-106 -49 -250 -134zM553 213q0 -86 15 -109t61 -22l82 4l4 -6l-17 -86q-152 6 -236 6t-202 -18l12 84q90 14 113 45t23 120v64q0 86 -50 176q-190 365 -208 393q-45 68 -152 78l-4 8
l12 74q117 -4 193 -4l245 12l7 -12l-7 -68q-70 -4 -96 -15t-24 -42q0 -31 176 -383h10l176 315q27 47 27 78q0 39 -101 45l-4 6l10 74l197 -10l160 6l6 -12l-10 -70q-78 -16 -112 -52t-105 -155l-166 -282q-23 -39 -29 -97t-6 -145z" />
    <glyph glyph-name="Ydieresis" unicode="&#x178;" horiz-adv-x="1101" 
d="M319 1577q0 39 30 69t71 30q42 0 64 -26t22 -66t-30 -70t-70 -30t-64 28q-23 26 -23 65zM659 1577q0 39 30 69t71 30q42 0 64 -26t22 -66t-30 -70t-71 -30t-63 28q-22 26 -23 65zM334 1165q0 -59 171 -413q56 -119 58 -119h10l234 434q33 59 33 102q0 53 -129 62l-4 8
l12 80q152 -14 227 -14l189 8l8 -15l-13 -75q-94 -18 -140 -64t-113 -178l-220 -385q-35 -62 -40 -162t-5 -193t18 -122t72 -29l101 6l4 -8l-19 -94q-170 6 -260 6t-233 -25l12 95q106 20 133 61t27 160v90q0 113 -59 231l-185 375q-70 143 -98 174q-47 51 -160 62l-4 8
l12 80q131 -6 226 -6l290 16l7 -14l-7 -72q-91 -9 -123 -24t-32 -46z" />
    <glyph glyph-name="Zacute" unicode="&#x179;" horiz-adv-x="1163" 
d="M926 1612l-8 -21q-207 -70 -422 -151l-17 10l-12 49l407 223l19 -12zM1014 27l-31 -33l-741 12l-144 -12l-28 65l764 1155l-355 -12q-141 -6 -200 -66t-76 -216l-97 -9q33 211 37 400l21 18l358 -22l529 -15l22 -59q-391 -520 -790 -1151l415 14q106 2 172 84t99 256
l96 10q-41 -222 -51 -419z" />
    <glyph glyph-name="zacute" unicode="&#x17a;" horiz-adv-x="1003" 
d="M823 1325l-8 -20q-207 -70 -422 -152l-16 10l-12 49l407 224l19 -13zM868 23l-26 -27l-621 8l-121 -10l-26 57l616 883l-270 -10q-115 -6 -161 -52t-58 -161l-95 -9q27 174 29 322l19 16l295 -18l446 -10l23 -51q-371 -467 -637 -881l319 14q86 4 138 66t77 192l96 10
q-35 -185 -43 -339z" />
    <glyph glyph-name="Zdotaccent" unicode="&#x17b;" horiz-adv-x="1163" 
d="M487 1580q0 46 35 82t84 36t76 -31t27 -77t-35 -82t-84 -36t-76 32q-27 30 -27 76zM1014 27l-31 -33l-741 12l-144 -12l-28 65l764 1155l-355 -12q-141 -6 -200 -66t-76 -216l-97 -9q33 211 37 400l21 18l358 -22l529 -15l22 -59q-391 -520 -790 -1151l415 14
q106 2 172 84t99 256l96 10q-41 -222 -51 -419z" />
    <glyph glyph-name="zdotaccent" unicode="&#x17c;" horiz-adv-x="1003" 
d="M514 1186q-49 0 -76 31q-26 31 -26 77t34 81q35 36 84 36t76 -31q27 -30 27 -76t-35 -82t-84 -36zM868 23l-26 -27l-621 8l-121 -10l-26 57l616 883l-270 -10q-115 -6 -161 -52t-58 -161l-95 -9q27 174 29 322l19 16l295 -18l446 -10l23 -51q-371 -467 -637 -881l319 14
q86 4 138 66t77 192l96 10q-35 -185 -43 -339z" />
    <glyph glyph-name="Zcaron" unicode="&#x17d;" horiz-adv-x="1163" 
d="M866 1714l29 -45l-283 -227h-28q-150 127 -283 227l29 45l18 2q137 -80 250 -133q106 49 250 133zM1014 27l-31 -33l-741 12l-144 -12l-28 65l764 1155l-355 -12q-141 -6 -200 -66t-76 -216l-97 -9q33 211 37 400l21 18l358 -22l529 -15l22 -59q-391 -520 -790 -1151
l415 14q106 2 172 84t99 256l96 10q-41 -222 -51 -419z" />
    <glyph glyph-name="zcaron" unicode="&#x17e;" horiz-adv-x="1003" 
d="M788 1427l29 -45l-282 -227h-29q-150 127 -283 227l29 45l18 3q137 -80 250 -134q106 49 250 134zM868 23l-26 -27l-621 8l-121 -10l-26 57l616 883l-270 -10q-115 -6 -161 -52t-58 -161l-95 -9q27 174 29 322l19 16l295 -18l446 -10l23 -51q-371 -467 -637 -881l319 14
q86 4 138 66t77 192l96 10q-35 -185 -43 -339z" />
    <glyph glyph-name="florin" unicode="&#x192;" horiz-adv-x="782" 
d="M53 -326q-61 0 -111 20t-51 51q0 30 13 80q12 50 24 62h23q23 -53 69 -91t101 -38q102 0 117 154l65 653q0 49 -19 59t-114 11l-8 12l14 70l143 20l21 199q12 127 98 208t205 81q74 0 136 -22t63 -53q0 -32 -12 -84t-25 -67h-27q-27 55 -81 97t-102 41q-48 1 -73 -17
t-43 -82t-18 -149l-15 -158l267 6l6 -6l-21 -108q-123 4 -262 6l-61 -672q-13 -123 -109 -203t-213 -80z" />
    <glyph glyph-name="Aringacute" unicode="&#x1fa;" horiz-adv-x="1183" 
d="M866 1829l-8 -19q-184 -61 -379 -135l-14 8l-12 46l368 200l17 -12zM632 1370q-68 0 -107 41q-38 41 -38 108t43 111t113 43q70 0 106 -41q35 -42 35 -104t-42 -110t-110 -48zM641 1442q82 0 82 71q0 39 -26 64t-68 25q-82 0 -82 -72q-1 -44 29 -66t65 -22zM553 559
q74 0 190 10l-161 537h-15l-194 -547h180zM858 154q0 40 -18 96l-68 223q-49 2 -180 2t-256 -16l-76 -213q-18 -55 -18 -80q0 -84 123 -84h116l4 -8l-12 -88q-150 14 -285 14l-225 -6l17 96q57 6 92 40t67 118l400 1046l129 35h16q172 -637 326 -1098q26 -77 66 -107
t130 -38l4 -8l-14 -84q-146 6 -252 6t-270 -20l-6 14l8 80q104 8 143 24t39 56z" />
    <glyph glyph-name="aringacute" unicode="&#x1fb;" 
d="M760 1542l-8 -18q-184 -61 -379 -135l-15 8l-12 45l369 200l16 -12zM393 1232q0 66 43 110t113 44q69 0 105 -40t36 -104q0 -62 -42 -110t-110 -48t-107 40q-38 41 -38 108zM547 1155q82 0 82 72q0 39 -26 63t-68 25q-82 0 -82 -72q-1 -45 29 -67t65 -21zM485 442
q72 0 150 9l-125 397h-14l-150 -406h139zM818 0q-78 0 -240 -14l-7 10l7 74q86 6 116 18t29 43q0 31 -14 68l-50 157q-41 2 -135 2t-211 -12q-72 -190 -71 -209q0 -61 96 -61h88l6 -8l-12 -78q-125 10 -236 10l-188 -4l12 84q45 6 72 32t53 87l322 813l145 26l14 -2
q143 -516 260 -846q20 -58 52 -82t102 -30l4 -8l-10 -74q-126 4 -204 4z" />
    <glyph glyph-name="AEacute" unicode="&#x1fc;" horiz-adv-x="1658" 
d="M1290 1735l-2 -23q-172 -131 -344 -287l-18 5l-41 38q150 162 307 355l20 -4zM430 635l322 22l-62 447h-18zM815 168q0 46 -51 397l-203 -16l-186 -21l-146 -282q-33 -63 -32 -94q0 -70 112 -70h117l-10 -96q-152 14 -283 14l-139 -8l-14 71q68 72 129 185l505 936
q-8 33 -51 33l-69 -5l-5 9l15 90q227 -6 325 -6q446 0 611 24l6 -12q-35 -152 -47 -340l-99 -8q4 59 5 88q1 100 -51 123q-52 22 -210 22t-180 -10t-24 -53l63 -467l242 22l188 27l8 -10l-26 -109l-176 -6l-224 -18l58 -347q12 -79 50 -109t122 -30q223 0 282 41t82 209
l90 10l7 -10q-37 -170 -56 -344l-10 -12q-426 14 -551 14h-69q-139 0 -304 -20l-4 14l4 80q121 10 160 29t39 65z" />
    <glyph glyph-name="aeacute" unicode="&#x1fd;" horiz-adv-x="1431" 
d="M1114 1448l-2 -23q-172 -131 -344 -286l-18 4l-41 39q150 162 307 354l20 -4zM393 498l250 18l-47 330h-16zM211 125q0 -49 92 -49l86 -2l-10 -84q-139 10 -244 10l-117 -6l-10 69q10 -1 47 49t58 87l399 712q-8 29 -43 29l-55 -2l-6 8l12 78q143 -4 406 -4t407 18l6 -10
q-29 -127 -39 -274l-98 -9q4 45 4 68q0 76 -41 93q-41 18 -163 18t-139 -8t-20 -42l50 -339l188 18l158 25l8 -13l-21 -100l-147 -6l-174 -15l43 -247q10 -59 41 -84t94 -25q174 0 220 32t65 161l92 8l6 -10q-31 -135 -45 -279l-10 -10q-373 10 -463 10h-60q-94 0 -251 -14
l-5 10l5 74q96 8 126 23t29 49q0 34 -37 284l-161 -12l-150 -21l-108 -198q-25 -47 -25 -70z" />
    <glyph glyph-name="Oslashacute" unicode="&#x1fe;" horiz-adv-x="1417" 
d="M981 1612l-8 -21q-207 -70 -422 -151l-16 10l-13 49l408 223l18 -12zM258 674q0 -301 158 -465l489 936q-100 61 -219 61q-190 0 -309 -147t-119 -385zM713 80q195 0 317 148t123 384q0 322 -188 490l-496 -942q109 -80 244 -80zM82 608q0 303 194 512q195 209 480 209
q121 0 223 -43l86 164l59 -14l6 -25l-83 -156q135 -78 211 -223t77 -334q1 -305 -197 -514t-489 -209q-129 0 -248 54l-122 -230l-56 13l-4 20l121 231q-122 81 -190 223t-68 322z" />
    <glyph glyph-name="oslashacute" unicode="&#x1ff;" horiz-adv-x="1198" 
d="M860 1335l-8 -20q-207 -70 -422 -152l-16 11l-13 49l408 223l18 -12zM258 513q0 -198 104 -323l390 689q-78 45 -170 45q-146 -1 -235 -107t-89 -304zM604 80q150 0 242 108t92 285q0 238 -131 363l-395 -693q81 -63 192 -63zM84 477q0 242 158 402t395 159q96 0 188 -32
l72 127l55 -17l4 -20l-69 -121q107 -61 167 -173t60 -257q0 -242 -160 -403t-399 -160q-113 0 -211 43l-104 -183l-52 15l-4 16l103 182q-203 133 -203 422z" />
    <glyph glyph-name="Scommaaccent" unicode="&#x218;" horiz-adv-x="1085" 
d="M528 -137q48 0 79 -40q32 -40 32 -106q0 -100 -78 -181t-184 -136l-37 31v20q63 39 105 95t42 108q0 78 -81 127l4 29q70 53 118 53zM449 -25q-170 0 -322 70l-10 21q25 158 24 356l92 10q1 -221 51 -289q50 -67 197 -67t226 60q77 60 77 158t-92 167q-68 51 -136 86
t-70 36q-3 1 -6 3t-80 42t-152 105q-109 90 -109 215q0 162 136 272t335 109q156 0 314 -51l6 -12q-33 -158 -45 -346l-80 -9l-12 11q6 43 6 106q1 109 -53 150t-179 41q-125 -1 -197 -57t-73 -139q0 -83 71 -143q70 -60 240 -148t236 -146q111 -94 110 -211
q0 -176 -141 -288t-364 -112z" />
    <glyph glyph-name="scommaaccent" unicode="&#x219;" horiz-adv-x="940" 
d="M464 -137q48 0 80 -40t31 -106q1 -100 -77 -181t-185 -136l-37 31v20q63 39 106 95q42 56 42 108q0 78 -82 127l4 29q70 53 118 53zM674 807q0 125 -180 125q-96 0 -152 -40t-57 -101q0 -61 56 -105t144 -85q88 -42 116 -55t79 -45q141 -88 140 -217q-1 -128 -120 -215
t-290 -87t-291 55l-10 18q23 129 22 277l92 8q0 -160 41 -210t154 -50t173 43t60 113t-73 120q-43 29 -165 88t-200 119q-86 70 -86 172q0 131 115 217t272 86t279 -39l8 -14q-29 -125 -39 -270l-80 -8l-12 8q4 31 4 92z" />
    <glyph glyph-name="uni021A" unicode="&#x21a;" horiz-adv-x="1118" 
d="M572 -137q48 0 80 -40t32 -106q0 -100 -78 -181t-184 -136l-37 31v20q63 39 105 95t42 108q0 78 -81 127l4 29q69 53 117 53zM477 332v893q-96 -4 -138 -6q-42 -3 -90 -15q-47 -12 -61 -22t-33 -46t-25 -67t-15 -102l-97 -9q25 180 31 355l19 16l170 -22h634l175 22
l18 -16q4 -133 31 -346l-97 -9q-12 72 -18 105t-25 70q-18 37 -32 47t-58 23t-86 15q-41 2 -127 7q-33 -328 -32 -996q1 -75 27 -107t89 -32l113 6l6 -8l-18 -94q-205 6 -301 6l-281 -8l16 88q143 12 174 50t31 202z" />
    <glyph glyph-name="uni021B" unicode="&#x21b;" horiz-adv-x="970" 
d="M505 -137q48 0 80 -40t31 -106q0 -100 -78 -181t-184 -136l-37 31v20q63 39 106 95q42 56 42 108q0 78 -82 127l4 29q70 53 118 53zM408 260v678q-164 -6 -209 -29t-68 -176l-96 -6q20 156 24 297l17 14l145 -16h522l150 16l16 -14q4 -150 23 -291l-94 -6
q-16 112 -36 141q-18 29 -28 39q-23 24 -199 31q-27 -248 -26 -748q1 -59 23 -84t73 -24l90 4l6 -6l-14 -86q-178 6 -258 6l-244 -8l15 82q116 8 142 38t26 148z" />
    <glyph glyph-name="dotlessj" unicode="&#x237;" horiz-adv-x="598" 
d="M231 188l2 666q0 52 -12 68t-49 16l-76 -4l-6 8l12 78h189l211 14l-8 -84q-58 -8 -74 -24t-21 -66q-20 -477 -21 -660q-1 -184 -70 -282t-220 -154l-33 58l4 14q100 61 137 134q35 73 35 218z" />
    <glyph glyph-name="circumflex" unicode="&#x2c6;" horiz-adv-x="815" 
d="M139 1081l-28 45q100 104 282 314h29q150 -174 283 -314l-29 -45l-19 -2q-45 39 -249 199q-160 -119 -250 -199z" />
    <glyph glyph-name="caron" unicode="&#x2c7;" horiz-adv-x="815" 
d="M96 1405l33 47l16 2q123 -106 263 -207q170 127 262 207l16 -2l33 -47q-106 -109 -297 -328h-29q-156 183 -297 328z" />
    <glyph glyph-name="breve" unicode="&#x2d8;" horiz-adv-x="815" 
d="M408 1262q145 0 196 135h17l32 -21q-25 -98 -86 -166t-159 -68t-160 68q-61 68 -86 166l33 21h16q52 -135 197 -135z" />
    <glyph glyph-name="dotaccent" unicode="&#x2d9;" horiz-adv-x="815" 
d="M399 1233q-49 0 -75 31q-26 30 -27 76q0 46 35 82t84 36t76 -31q26 -31 26 -77t-35 -81q-35 -36 -84 -36z" />
    <glyph glyph-name="ring" unicode="&#x2da;" horiz-adv-x="815" 
d="M400 1114q-78 0 -118 45t-40 120t47 123t125 48t118 -45t39 -115q0 -70 -47 -123t-124 -53zM412 1192q90 0 90 80q0 46 -28 72t-77 26q-90 0 -90 -80q0 -50 33 -74t72 -24z" />
    <glyph glyph-name="ogonek" unicode="&#x2db;" horiz-adv-x="815" 
d="M188 -301q0 57 24 93t43 67t95 108l119 119h86q-139 -143 -188 -211t-49 -127t32 -90q34 -31 94 -31t150 47l27 -39q-100 -94 -205 -129q-102 0 -165 52t-63 141z" />
    <glyph glyph-name="tilde" unicode="&#x2dc;" horiz-adv-x="815" 
d="M260 1241q-43 0 -108 -86l-23 -27h-12l-45 43v11l155 182l33 8q35 0 154 -34t142 -33q48 0 132 112h12l45 -43v-10l-155 -182l-33 -8q-35 0 -154 34t-143 33z" />
    <glyph glyph-name="hungarumlaut" unicode="&#x2dd;" horiz-adv-x="815" 
d="M786 1360l-4 -19q-156 -113 -317 -247l-19 4l-32 37l286 309l19 -6zM524 1360l-4 -19q-156 -113 -317 -247l-19 4l-32 37l286 309l19 -6z" />
    <glyph glyph-name="dotbelowcomb" unicode="&#x323;" horiz-adv-x="815" 
d="M402 -393q-56 0 -86 34t-29 85q0 51 35 88q35 36 91 36t87 -34t31 -84q0 -51 -36 -88q-37 -37 -93 -37z" />
    <glyph glyph-name="Delta" unicode="&#x394;" horiz-adv-x="1101" 
d="M545 1106h-15l-360 -989h670zM35 0l-19 27l486 1267l129 35h16q236 -854 389 -1315l-14 -14h-987z" />
    <glyph glyph-name="Delta" unicode="&#x2206;" horiz-adv-x="1101" 
d="M545 1106h-15l-360 -989h670zM35 0l-19 27l486 1267l129 35h16q236 -854 389 -1315l-14 -14h-987z" />
    <glyph glyph-name="Omega" unicode="&#x3a9;" horiz-adv-x="1738" 
d="M1305 718q0 206 -122 347t-322 141q-199 0 -325 -129t-126 -332t92 -387t254 -309l-15 -47l-84 14l-499 -28l-33 32q-4 145 -39 326l78 10q24 -139 66 -190t143 -51h188q-155 121 -241 281t-87 327q1 254 191 430t460 176t436 -160q167 -160 167 -413q0 -186 -94 -358
t-256 -283h219q98 0 142 48t67 183l82 10q-41 -188 -43 -336l-33 -32l-520 28l-84 -12l-15 43q189 161 271 313t82 358z" />
    <glyph glyph-name="Omega" unicode="&#x2126;" horiz-adv-x="1738" 
d="M1305 718q0 206 -122 347t-322 141q-199 0 -325 -129t-126 -332t92 -387t254 -309l-15 -47l-84 14l-499 -28l-33 32q-4 145 -39 326l78 10q24 -139 66 -190t143 -51h188q-155 121 -241 281t-87 327q1 254 191 430t460 176t436 -160q167 -160 167 -413q0 -186 -94 -358
t-256 -283h219q98 0 142 48t67 183l82 10q-41 -188 -43 -336l-33 -32l-520 28l-84 -12l-15 43q189 161 271 313t82 358z" />
    <glyph glyph-name="pi" unicode="&#x3c0;" horiz-adv-x="1228" 
d="M162 1034l732 -20q76 0 269 20l13 -14l-21 -94l-14 -15q-137 1 -179 -21t-47 -91q-32 -437 -32 -486q0 -109 45 -157t145 -50l10 -14q0 -16 -39 -66t-51 -51q-125 0 -182 65t-57 204l10 551q0 78 -26 94t-138 16t-136 -16t-28 -86q-25 -403 -24 -758l8 -207l-10 -14
l-148 -33l-12 25q10 26 23 364t14 611q1 71 -17 93t-58 22t-71 -35q-31 -34 -63 -101l-15 -2l-53 37l-2 14l123 201z" />
    <glyph glyph-name="Wgrave" unicode="&#x1e80;" horiz-adv-x="1908" 
d="M649 1591l-8 21l33 98l18 12q215 -123 408 -223l-13 -49l-16 -10zM267 1305q105 0 259 22l6 -14l-8 -80q-104 -9 -140 -25t-36 -55q0 -80 252 -954h12l289 786l-37 113q-20 59 -63 86t-121 30l-4 9l14 88q164 -6 260 -6t269 22l6 -14l-8 -80q-107 -9 -143 -25t-36 -53
q0 -68 254 -956h13q332 895 331 952q0 72 -139 72h-102l-4 8l14 88q154 -14 285 -14l217 6l-15 -97q-61 -4 -86 -21t-45 -77l-430 -1106l-127 -45q-117 420 -256 869h-12l-291 -824l-131 -45q-170 602 -342 1133q-37 114 -184 116l-2 9l12 88q164 -6 269 -6z" />
    <glyph glyph-name="wgrave" unicode="&#x1e81;" horiz-adv-x="1624" 
d="M530 1305l-8 20l33 98l18 13q215 -123 408 -224l-12 -49l-17 -10zM240 1020q84 0 227 16l6 -12l-8 -74q-86 -6 -113 -18t-26 -43q0 -57 192 -717h12q41 100 122 322t104 280q-4 12 -12 33t-19 57q-20 68 -141 76l-4 6l12 78q138 -4 216 -4t234 16l7 -12l-7 -74
q-86 -6 -114 -18t-27 -52q0 -40 193 -708h14q66 160 160 423t94 294t-24 43t-83 12h-77l-4 8l12 78q129 -10 233 -10l183 4l-13 -84q-47 -4 -66 -18t-36 -62l-338 -852l-145 -35q-16 98 -195 643h-10l-224 -608l-147 -35q-141 494 -270 873q-29 88 -144 94q0 2 -4 6l13 78
q133 -4 217 -4z" />
    <glyph glyph-name="Wacute" unicode="&#x1e82;" horiz-adv-x="1908" 
d="M1282 1612l-8 -21q-207 -70 -422 -151l-16 10l-13 49l408 223l18 -12zM267 1305q105 0 259 22l6 -14l-8 -80q-104 -9 -140 -25t-36 -55q0 -80 252 -954h12l289 786l-37 113q-20 59 -63 86t-121 30l-4 9l14 88q164 -6 260 -6t269 22l6 -14l-8 -80q-107 -9 -143 -25
t-36 -53q0 -68 254 -956h13q332 895 331 952q0 72 -139 72h-102l-4 8l14 88q154 -14 285 -14l217 6l-15 -97q-61 -4 -86 -21t-45 -77l-430 -1106l-127 -45q-117 420 -256 869h-12l-291 -824l-131 -45q-170 602 -342 1133q-37 114 -184 116l-2 9l12 88q164 -6 269 -6z" />
    <glyph glyph-name="wacute" unicode="&#x1e83;" horiz-adv-x="1624" 
d="M1118 1325l-8 -20q-207 -70 -422 -152l-16 10l-13 49l408 224l18 -13zM240 1020q84 0 227 16l6 -12l-8 -74q-86 -6 -113 -18t-26 -43q0 -57 192 -717h12q41 100 122 322t104 280q-4 12 -12 33t-19 57q-20 68 -141 76l-4 6l12 78q138 -4 216 -4t234 16l7 -12l-7 -74
q-86 -6 -114 -18t-27 -52q0 -40 193 -708h14q66 160 160 423t94 294t-24 43t-83 12h-77l-4 8l12 78q129 -10 233 -10l183 4l-13 -84q-47 -4 -66 -18t-36 -62l-338 -852l-145 -35q-16 98 -195 643h-10l-224 -608l-147 -35q-141 494 -270 873q-29 88 -144 94q0 2 -4 6l13 78
q133 -4 217 -4z" />
    <glyph glyph-name="Wdieresis" unicode="&#x1e84;" horiz-adv-x="1908" 
d="M690 1577q0 39 30 69t71 30t63 -26t23 -66q0 -40 -30 -70t-71 -30q-42 0 -64 28q-22 26 -22 65zM1030 1577q0 39 30 69t70 30t64 -26q23 -26 23 -66t-30 -70t-71 -30q-42 0 -64 28q-22 26 -22 65zM267 1305q105 0 259 22l6 -14l-8 -80q-104 -9 -140 -25t-36 -55
q0 -80 252 -954h12l289 786l-37 113q-20 59 -63 86t-121 30l-4 9l14 88q164 -6 260 -6t269 22l6 -14l-8 -80q-107 -9 -143 -25t-36 -53q0 -68 254 -956h13q332 895 331 952q0 72 -139 72h-102l-4 8l14 88q154 -14 285 -14l217 6l-15 -97q-61 -4 -86 -21t-45 -77l-430 -1106
l-127 -45q-117 420 -256 869h-12l-291 -824l-131 -45q-170 602 -342 1133q-37 114 -184 116l-2 9l12 88q164 -6 269 -6z" />
    <glyph glyph-name="wdieresis" unicode="&#x1e85;" horiz-adv-x="1624" 
d="M637 1198q-41 0 -64 27t-23 65t31 69q31 30 71 30t63 -26q23 -25 23 -65t-30 -70t-71 -30zM977 1198q-41 0 -64 27t-23 65t31 69q31 30 71 30t63 -26q23 -25 23 -65t-30 -70t-71 -30zM240 1020q84 0 227 16l6 -12l-8 -74q-86 -6 -113 -18t-26 -43q0 -57 192 -717h12
q41 100 122 322t104 280q-4 12 -12 33t-19 57q-20 68 -141 76l-4 6l12 78q138 -4 216 -4t234 16l7 -12l-7 -74q-86 -6 -114 -18t-27 -52q0 -40 193 -708h14q66 160 160 423t94 294t-24 43t-83 12h-77l-4 8l12 78q129 -10 233 -10l183 4l-13 -84q-47 -4 -66 -18t-36 -62
l-338 -852l-145 -35q-16 98 -195 643h-10l-224 -608l-147 -35q-141 494 -270 873q-29 88 -144 94q0 2 -4 6l13 78q133 -4 217 -4z" />
    <glyph glyph-name="Ygrave" unicode="&#x1ef2;" horiz-adv-x="1101" 
d="M279 1591l-9 21l33 98l19 12q215 -123 407 -223l-12 -49l-17 -10zM334 1165q0 -59 171 -413q56 -119 58 -119h10l234 434q33 59 33 102q0 53 -129 62l-4 8l12 80q152 -14 227 -14l189 8l8 -15l-13 -75q-94 -18 -140 -64t-113 -178l-220 -385q-35 -62 -40 -162t-5 -193
t18 -122t72 -29l101 6l4 -8l-19 -94q-170 6 -260 6t-233 -25l12 95q106 20 133 61t27 160v90q0 113 -59 231l-185 375q-70 143 -98 174q-47 51 -160 62l-4 8l12 80q131 -6 226 -6l290 16l7 -14l-7 -72q-91 -9 -123 -24t-32 -46z" />
    <glyph glyph-name="ygrave" unicode="&#x1ef3;" horiz-adv-x="972" 
d="M231 1305l-8 20l33 98l18 13q215 -123 408 -224l-12 -49l-17 -10zM553 213q0 -86 15 -109t61 -22l82 4l4 -6l-17 -86q-152 6 -236 6t-202 -18l12 84q90 14 113 45t23 120v64q0 86 -50 176q-190 365 -208 393q-45 68 -152 78l-4 8l12 74q117 -4 193 -4l245 12l7 -12
l-7 -68q-70 -4 -96 -15t-24 -42q0 -31 176 -383h10l176 315q27 47 27 78q0 39 -101 45l-4 6l10 74l197 -10l160 6l6 -12l-10 -70q-78 -16 -112 -52t-105 -155l-166 -282q-23 -39 -29 -97t-6 -145z" />
    <glyph glyph-name="endash" unicode="&#x2013;" horiz-adv-x="937" 
d="M934 463l-934 -4l-12 18l22 101q611 -4 769 2q159 6 159 8l12 -21z" />
    <glyph glyph-name="emdash" unicode="&#x2014;" horiz-adv-x="1880" 
d="M1876 463l-1876 -4l-12 18l22 101q608 -2 961 -3l909 13l12 -21z" />
    <glyph glyph-name="quoteleft" unicode="&#x2018;" horiz-adv-x="360" 
d="M57 1012q0 100 78 181t184 136l37 -31v-20q-63 -39 -105 -95t-42 -108q0 -78 82 -127l-4 -28q-130 -99 -198 -14q-32 40 -32 106z" />
    <glyph glyph-name="quoteright" unicode="&#x2019;" horiz-adv-x="360" 
d="M192 1329q48 0 79 -40q32 -40 32 -105q0 -100 -78 -182t-184 -136l-37 31v21q63 39 106 95q42 56 42 107q0 78 -82 127l4 29q70 53 118 53z" />
    <glyph glyph-name="quotesinglbase" unicode="&#x201a;" horiz-adv-x="487" 
d="M248 203q47 0 77 -42q29 -42 29 -133q0 -90 -86 -186t-200 -164l-37 31v21q73 48 117 116t45 141q0 73 -66 134l4 29q70 53 117 53z" />
    <glyph glyph-name="quotedblleft" unicode="&#x201c;" horiz-adv-x="677" 
d="M57 1012q0 100 78 181t184 136l37 -31v-20q-63 -39 -105 -95t-42 -108q0 -78 82 -127l-4 -28q-130 -99 -198 -14q-32 40 -32 106zM375 1012q0 100 78 181t184 136l37 -31v-20q-64 -39 -106 -95t-42 -108q0 -78 82 -127l-4 -28q-131 -99 -197 -14q-32 40 -32 106z" />
    <glyph glyph-name="quotedblright" unicode="&#x201d;" horiz-adv-x="677" 
d="M192 1329q48 0 79 -40q32 -40 32 -105q0 -100 -78 -182t-184 -136l-37 31v21q63 39 106 95q42 56 42 107q0 78 -82 127l4 29q70 53 118 53zM509 1329q48 0 80 -40t32 -105q0 -100 -78 -182t-185 -136l-36 31v21q63 39 105 95t42 107q0 78 -82 127l4 29q70 53 118 53z" />
    <glyph glyph-name="quotedblbase" unicode="&#x201e;" horiz-adv-x="813" 
d="M568 203q48 0 80 -40t32 -106q0 -100 -78 -181t-184 -136l-37 31v20q63 39 105 95t42 108q0 78 -82 127l5 29q69 53 117 53zM251 203q48 0 80 -40t31 -106q0 -100 -78 -181t-184 -136l-37 31v20q63 39 106 95q42 56 42 108q0 78 -82 127l4 29q70 53 118 53z" />
    <glyph glyph-name="dagger" unicode="&#x2020;" horiz-adv-x="1005" 
d="M418 791l-6 -109l-330 -31l-16 23l18 127zM592 682l4 109l336 26l16 -18l-18 -127zM555 827l-109 -6l-10 385l127 19l23 -17zM446 631l109 6l10 -809l-127 -18l-22 16z" />
    <glyph glyph-name="daggerdbl" unicode="&#x2021;" horiz-adv-x="1005" 
d="M418 848l-6 -109l-330 -30l-16 22l18 127zM592 739l4 109l336 26l16 -18l-18 -127zM555 883l-109 -6l-10 329l127 19l23 -17zM446 686l113 8v-307l-113 -8v307zM418 346l-6 -108l-330 -31l-16 22l18 127zM592 238l4 108l336 27l16 -19l-18 -127zM446 184l109 6l10 -362
l-127 -18l-22 16z" />
    <glyph glyph-name="bullet" unicode="&#x2022;" horiz-adv-x="696" 
d="M344 240q-100 0 -161 64q-60 65 -60 159t64 162q65 67 164 67t162 -65q62 -66 62 -160t-65 -161q-66 -66 -166 -66z" />
    <glyph glyph-name="onedotenleader" unicode="&#x2024;" horiz-adv-x="487" 
d="M239 -25q-56 0 -86 34t-30 85t35 88t91 37t87 -34t31 -85t-36 -88t-92 -37z" />
    <glyph glyph-name="twodotenleader" unicode="&#x2025;" horiz-adv-x="917" 
d="M669 -25q-56 0 -86 34t-30 85t35 88t91 37t87 -34t31 -85t-36 -88t-92 -37zM239 -25q-56 0 -86 34t-30 85t35 88t91 37t87 -34t31 -85t-36 -88t-92 -37z" />
    <glyph glyph-name="ellipsis" unicode="&#x2026;" horiz-adv-x="1347" 
d="M239 -25q-56 0 -86 34t-30 85t35 88t91 37t87 -34t31 -85t-36 -88t-92 -37zM1099 -25q-56 0 -86 34t-30 85t35 88t91 37t87 -34t31 -85t-36 -88t-92 -37zM669 -25q-56 0 -86 34t-30 85t35 88t91 37t87 -34t31 -85t-36 -88t-92 -37z" />
    <glyph glyph-name="perthousand" unicode="&#x2030;" horiz-adv-x="2056" 
d="M1202 1350l10 -29q-356 -530 -536 -819l-440 -697l-78 39l-11 25q272 414 975 1520zM1448 298q0 144 87 242t221 97q134 0 205 -90q71 -91 71 -227t-83 -240t-217 -104t-209 88q-75 90 -75 234zM1935 282q0 96 -57 158t-147 62q-91 0 -139 -49t-48 -143t63 -149
q62 -55 140 -55t133 40t55 136zM766 298q0 144 87 242t221 97q134 0 205 -90q71 -91 71 -227t-83 -240t-218 -104t-209 88q-74 90 -74 234zM1253 282q0 96 -57 158t-147 62q-91 0 -139 -49t-48 -143t63 -149q62 -55 140 -55t133 40t55 136zM355 668q-134 0 -209 89t-74 233
q0 144 87 242t221 97q134 0 205 -90q71 -91 71 -227t-84 -240q-83 -104 -217 -104zM370 799q78 0 134 40q55 40 55 136q0 95 -57 157q-58 62 -148 62t-138 -49t-48 -143t62 -149q62 -54 140 -54z" />
    <glyph glyph-name="guilsinglleft" unicode="&#x2039;" horiz-adv-x="534" 
d="M393 819l45 -31l2 -20l-219 -305l219 -318l-2 -20l-45 -31q-139 143 -352 340v31q196 186 352 354z" />
    <glyph glyph-name="guilsinglright" unicode="&#x203a;" horiz-adv-x="534" 
d="M141 94l-45 31l-2 20l219 306l-219 317l2 20l45 31q139 -143 353 -340v-30q-197 -187 -353 -355z" />
    <glyph glyph-name="fraction" unicode="&#x2044;" horiz-adv-x="256" 
d="M623 1350l10 -29q-356 -530 -537 -819l-440 -697l-78 39l-10 25q272 414 975 1520z" />
    <glyph glyph-name="zero.sups" unicode="&#x2070;" horiz-adv-x="720" 
d="M561 1088q0 116 -57 189q-58 73 -150 73t-143 -67t-51 -185t56 -189t148 -71t145 66q52 68 52 184zM349 702q-134 0 -210 102t-76 281q1 178 89 292t221 114t209 -102q76 -103 76 -279t-88 -292q-87 -116 -221 -116z" />
    <glyph glyph-name="four.sups" unicode="&#x2074;" horiz-adv-x="636" 
d="M336 1030v256h-12l-185 -256h197zM463 1030h112l11 -14l-13 -90l-110 4l8 -199l-8 -12l-125 -14l-10 12q8 119 8 215l-316 6l5 70l352 481l6 2l80 -12v-449z" />
    <glyph glyph-name="five.sups" unicode="&#x2075;" horiz-adv-x="593" 
d="M508 978q0 -97 -116 -186t-247 -90q-49 0 -71 27t-25 90l12 15q162 -44 253 23q54 40 55 101q0 125 -260 138l-13 14l23 344l10 10l256 9q37 2 54 12t28 39l59 6l-32 -174l-13 -13q-131 10 -278 11l-10 -158q163 -17 239 -69t76 -149z" />
    <glyph glyph-name="six.sups" unicode="&#x2076;" horiz-adv-x="638" 
d="M318 1077q-58 0 -117 -41q-4 -33 -4 -55q-1 -88 35 -139t96 -51q60 -1 93 35q32 36 32 100t-38 108q-39 43 -97 43zM313 702q-117 0 -185 78t-67 193q0 115 47 208q46 93 111 146q135 113 244 148l45 16l12 -8l21 -56q-11 -4 -27 -10t-62 -33q-46 -26 -85 -58t-80 -85
t-62 -115l6 -8q80 55 127 58q105 0 164 -65q60 -65 60 -164t-76 -172t-193 -73z" />
    <glyph glyph-name="seven.sups" unicode="&#x2077;" horiz-adv-x="591" 
d="M252 1475h280l41 -52q-141 -283 -274 -587l-37 -131h-16l-101 28l-12 31l307 598l-198 -10q-64 -4 -84 -26t-33 -91l-66 -8q18 139 25 248l8 6q78 -6 160 -6z" />
    <glyph glyph-name="eight.sups" unicode="&#x2078;" horiz-adv-x="669" 
d="M223 1314q0 -36 26 -65q25 -29 51 -43t79 -41q63 45 63 112t-30 99t-80 31q-49 0 -79 -29q-30 -28 -30 -64zM337 782q56 0 92 33t36 75t-29 73q-28 31 -54 45t-87 43q-94 -49 -94 -136q0 -55 40 -94t96 -39zM80 883q0 129 156 200q-137 80 -138 193q0 86 73 150t170 65
q97 0 162 -48t64 -130q0 -113 -125 -180q148 -78 148 -186q0 -109 -79 -177t-187 -68t-176 50t-68 131z" />
    <glyph glyph-name="nine.sups" unicode="&#x2079;" horiz-adv-x="638" 
d="M322 1118q59 0 116 39q4 37 4 57q0 88 -35 140q-37 51 -97 51t-92 -36q-32 -37 -32 -101t38 -107t98 -43zM326 1491q116 0 184 -77q68 -78 68 -192t-46 -207t-112 -147q-135 -113 -244 -147l-45 -16l-10 6l-23 57q10 4 47 18t127 82q39 31 80 85t62 116l-6 6
q-84 -53 -127 -55q-105 0 -164 63t-59 163t75 172q76 73 193 73z" />
    <glyph glyph-name="n.sups" unicode="&#x207f;" horiz-adv-x="780" 
d="M416 1210q-59 0 -135 -57q-13 -270 -13 -303t10 -47t33 -15l39 3l2 -7l-12 -69q-80 4 -129 4l-145 -8l8 69q70 8 69 74v291q0 43 -14 60t-49 18h-17l-4 6l7 57l215 39l10 -12q-12 -43 -15 -86l5 -4q131 102 180 102q88 0 138 -45t50 -123l-20 -303q0 -66 43 -66l43 3
l2 -7l-12 -69q-80 4 -132 4l-141 -12l6 69q68 14 68 76l4 235q0 123 -94 123z" />
    <glyph glyph-name="zero.sinf" unicode="&#x2080;" horiz-adv-x="720" 
d="M364 -127q92 0 145 67q52 68 52 184t-57 188q-58 72 -150 73q-92 0 -143 -67t-51 -184t56 -189t148 -72zM349 -262q-134 0 -210 102t-76 280q1 178 89 293q88 113 221 113t209 -102t76 -278t-88 -292q-87 -116 -221 -116z" />
    <glyph glyph-name="one.sinf" unicode="&#x2081;" horiz-adv-x="509" 
d="M322 -86q0 -48 13 -68t48 -20l66 4l4 -6l-15 -74q-115 4 -180 4l-186 -14l8 72q63 4 90 26t27 78v428q1 45 -15 58t-53 14l-68 -6l-6 6l6 65q153 20 181 24q28 5 42 7t27 4t21 3t15 3t11 2l13 2h2l10 -30q-41 -37 -49 -105q-12 -229 -12 -477z" />
    <glyph glyph-name="two.sinf" unicode="&#x2082;" horiz-adv-x="673" 
d="M385 311q0 95 -109 95t-184 -127h-14l-21 83q41 70 115 117t160 47t146 -48q125 -100 -5 -311q-66 -108 -229 -298l6 -10h168q66 1 92 23t43 93l78 9q-29 -127 -39 -228l-19 -12q-307 10 -426 10l-86 -14l-12 51l141 158q195 239 195 362z" />
    <glyph glyph-name="three.sinf" unicode="&#x2083;" horiz-adv-x="600" 
d="M200 -147q69 -1 125 37t56 98q0 119 -213 118l-10 11l-8 65l86 19q109 53 108 135q0 40 -25 62t-65 22q-76 0 -148 -58h-14l-20 76q30 23 100 56q70 32 140 32t122 -43q51 -43 51 -102q0 -121 -143 -188v-11q178 -49 178 -180q0 -94 -116 -179t-244 -85q-51 0 -73 26
t-24 91l13 14q55 -16 124 -16z" />
    <glyph glyph-name="four.sinf" unicode="&#x2084;" horiz-adv-x="636" 
d="M336 66v256h-12l-185 -256h197zM463 66h112l11 -15l-13 -90l-110 4l8 -198l-8 -13l-125 -14l-10 12q8 119 8 215l-316 6l5 70l352 481l6 2l80 -12v-448z" />
    <glyph glyph-name="five.sinf" unicode="&#x2085;" horiz-adv-x="593" 
d="M508 14q0 -98 -116 -187t-247 -89q-49 0 -71 26t-25 91l12 14q59 -16 129 -16q70 -1 124 39t55 102q0 125 -260 137l-13 14l23 344l10 11l256 8q37 2 54 12t28 39l59 6l-32 -174l-13 -12q-131 10 -278 10l-10 -158q163 -16 239 -68q76 -51 76 -149z" />
    <glyph glyph-name="six.sinf" unicode="&#x2086;" horiz-adv-x="638" 
d="M318 113q-58 0 -117 -41q-4 -33 -4 -56q-1 -88 35 -139t96 -51t93 36q32 36 32 100t-38 108q-39 43 -97 43zM313 -262q-117 0 -185 78t-67 192q0 114 47 208q46 93 111 149q135 111 244 147l45 14l12 -8l21 -55q-11 -4 -27 -10t-62 -33q-173 -102 -227 -258l6 -8
q80 55 127 57q105 0 164 -65q60 -66 60 -164t-76 -171t-193 -73z" />
    <glyph glyph-name="seven.sinf" unicode="&#x2087;" horiz-adv-x="591" 
d="M252 510h280l41 -51q-141 -283 -274 -588l-37 -131h-16l-101 29l-12 30l307 598l-198 -10q-64 -4 -84 -26t-33 -91l-66 -8q18 139 25 248l8 6q78 -6 160 -6z" />
    <glyph glyph-name="eight.sinf" unicode="&#x2088;" horiz-adv-x="669" 
d="M223 349q0 -37 26 -65q25 -28 51 -42t79 -41q63 45 63 111t-30 99q-31 32 -80 32t-79 -29t-30 -65zM337 -182q56 0 92 32t36 75q0 42 -29 73q-28 31 -54 45t-87 43q-94 -49 -94 -135q0 -55 40 -94t96 -39zM80 -82q0 129 156 201q-137 80 -138 192q0 86 73 151
q73 64 170 64t162 -48t64 -130q0 -113 -125 -180q148 -78 148 -186t-79 -176t-187 -68t-177 49q-67 49 -67 131z" />
    <glyph glyph-name="nine.sinf" unicode="&#x2089;" horiz-adv-x="638" 
d="M322 154q59 0 116 39q4 37 4 57q0 88 -35 139q-37 51 -97 51t-92 -36t-32 -100t38 -108q38 -42 98 -42zM578 258q0 -115 -46 -208t-112 -148q-135 -111 -244 -148l-45 -14l-10 6l-23 57q10 5 26 11t63 32q46 26 85 58q39 31 80 85t62 115l-6 7q-84 -53 -127 -56
q-105 1 -164 64t-59 163t75 172q76 72 193 72q116 0 184 -76t68 -192z" />
    <glyph glyph-name="franc" unicode="&#x20a3;" horiz-adv-x="917" 
d="M554 477q-58 0 -140 -10l-6 -127h192l10 -14l-10 -62h-194v-80q0 -58 13 -78t48 -20t117 4l4 -16l-19 -78h-22l-223 4q-74 0 -205 -20l10 88q94 16 115 50q20 34 20 146h-135l-14 15l12 61h137l2 528q0 48 -11 62t-44 14l-68 -2l-4 16l15 76q145 -6 247 -6h103
q139 0 383 23l10 -15q-29 -129 -41 -278l-100 -6q2 55 2 77q0 70 -35 87q-35 18 -130 18t-119 -3t-33 -19q-23 -39 -15 -132q0 -8 -8 -207q45 -2 164 -2l186 21l12 -17l-28 -104q-140 6 -198 6z" />
    <glyph glyph-name="Euro" unicode="&#x20ac;" horiz-adv-x="1204" 
d="M725 84q211 0 266 242l103 8q-33 -152 -43 -273l-13 -16q-147 -63 -347 -63q-199 0 -327 97t-165 269h-164l-10 14l10 60h153q-2 18 -2 66t9 96h-160l-10 14l10 59h178q55 173 205 277t356 104q131 0 299 -39l8 -12q-33 -123 -43 -278l-102 -7q4 41 4 80q0 143 -229 144
q-131 0 -217 -71t-115 -198h4l375 9l12 -19l-6 -61l-395 -2q-2 -16 -2 -68t8 -94h8l375 8l12 -18l-6 -62l-373 -2q37 -124 124 -194t210 -70z" />
    <glyph glyph-name="trademark" unicode="&#x2122;" horiz-adv-x="1153" 
d="M178 944v303q-66 -2 -83 -16t-25 -82l-66 -6q8 88 10 164l9 8l79 -8h256l82 8l9 -8l10 -158l-66 -6q-10 72 -26 87t-78 17q-8 -135 -8 -325q0 -53 43 -54l45 2l2 -2l-6 -53q-98 4 -140 4l-135 -4l6 49q54 4 68 18t14 62zM639 868h29l4 -4l-8 -47q-68 2 -95 2l-82 -6l7 51
q43 2 49 54q33 246 33 286t-13 45q-12 6 -49 11l-6 6l8 43q72 -4 102 -4l84 4l107 -314h8q53 143 111 312h94l84 4l4 -4l-6 -45q-35 -2 -47 -12q-22 -17 -6 -185t24 -182t29 -15l22 2l4 -4l-8 -49q-48 2 -114 2t-84 -6l6 51q47 2 47 37l-19 258h-6q-66 -156 -131 -346
l-53 -6q-88 256 -129 352h-8q-17 -247 -17 -269t25 -22z" />
    <glyph glyph-name="estimated" unicode="&#x212e;" horiz-adv-x="1632" 
d="M1317 1057q0 25 -21 45q-190 190 -458 190t-459 -196q-20 -20 -21 -47v-365q0 -10 11 -10h938q10 0 10 10v373zM369 637q-10 0 -11 -8v-371q0 -20 19 -43q186 -199 472 -199t476 224h111q-104 -123 -262 -194t-336 -71q-311 0 -534 199q-222 198 -222 480t221 481
t533 199t534 -200q221 -198 221 -481v-16h-1222z" />
    <glyph glyph-name="partialdiff" unicode="&#x2202;" horiz-adv-x="1040" 
d="M784 419q0 159 -32 302q-82 96 -244 96q-121 0 -189 -86q-67 -86 -67 -255t82 -285t221 -115q105 0 167 92t62 251zM952 496q0 -217 -130 -369t-326 -152q-196 1 -301 133q-107 132 -107 330t130 343q130 146 317 147q55 0 161 -54l4 5q-147 356 -591 563l30 67l21 9
q350 -150 571 -411t221 -611z" />
    <glyph glyph-name="product" unicode="&#x220f;" horiz-adv-x="1449" 
d="M406 0q-56 0 -172 -8q-118 -8 -119 -17l12 95q96 18 130 53t34 123l2 848q0 66 -15 88t-61 22l-86 -4l-4 8l14 103q160 -6 244 -6h631q68 0 190 6t125 12l-8 -104q-86 -10 -115 -34t-32 -83q-29 -563 -29 -873q0 -83 18 -111t72 -28l109 6l4 -8l-19 -94q-171 6 -267 6
t-239 -25l13 95q96 18 130 53t33 123l3 848q0 70 -44 86t-220 16q-175 0 -224 -16t-51 -78q-29 -563 -29 -873q0 -106 35 -127q20 -12 55 -12l109 6l4 -8l-18 -94q-159 6 -215 6z" />
    <glyph glyph-name="summation" unicode="&#x2211;" horiz-adv-x="1089" 
d="M915 27l-30 -33l-725 12l-107 -16l-39 26l478 607l-439 604l29 65l2 -2v2q670 20 831 37l21 -18q4 -186 27 -375l-86 -16q-17 150 -73 213t-204 69l-344 15l383 -537v-33l-422 -555l383 14q115 4 177 86t93 244l97 10q-46 -222 -52 -419z" />
    <glyph glyph-name="minus" unicode="&#x2212;" 
d="M987 608l12 -20l-16 -105l-934 -4l-12 19l22 100q307 -2 490 -2z" />
    <glyph glyph-name="radical" unicode="&#x221a;" 
d="M23 844h-9l-6 8l10 68l254 12l17 -17q16 -139 225 -735h12l383 1313l31 27h92l-454 -1504l-129 -41q-221 602 -291 775q-35 94 -135 94z" />
    <glyph glyph-name="infinity" unicode="&#x221e;" 
d="M745 696q-117 0 -178 -114q35 -74 60 -115t67 -77t94 -36q51 0 94 46q42 46 42 121t-47 125q-48 50 -132 50zM289 362q121 0 178 119q-78 166 -148 207q-97 47 -166 -30q-42 -46 -42 -122t47 -124q47 -50 131 -50zM299 819q145 0 240 -178q92 178 241 178q102 0 160 -81
q58 -80 59 -202t-79 -209t-174 -87t-149 47q-54 47 -101 135q-88 -182 -242 -182q-102 0 -161 81q-58 81 -58 201t80 209q80 88 184 88z" />
    <glyph glyph-name="integral" unicode="&#x222b;" horiz-adv-x="819" 
d="M676 1227q66 0 122 -22q56 -23 56 -53t-12 -83t-25 -68h-26q-23 55 -72 97t-98 41q-49 0 -81 -32t-34 -89l-64 -1051q-8 -127 -103 -209t-214 -82q-61 0 -111 20t-51 51q0 30 12 80t25 62h23q23 -53 69 -91t97 -38q50 0 83 38t37 116l66 1038q6 111 95 193t206 82z" />
    <glyph glyph-name="approxequal" unicode="&#x2248;" 
d="M754 406q51 0 118 86l21 26h12l45 -43v-10l-155 -182l-33 -9q-58 0 -248 44t-223 44q-57 0 -119 -83l-22 -29h-13l-45 43v10l156 182l33 9q54 0 247 -44t226 -44zM754 737q51 0 118 86l21 27h12l45 -43v-10l-155 -183l-33 -8q-58 0 -248 44t-223 44q-57 0 -119 -84
l-22 -28h-13l-45 43v10l156 182l33 8q54 0 247 -44t226 -44z" />
    <glyph glyph-name="notequal" unicode="&#x2260;" 
d="M983 326l-465 -2h-43l-72 -275h-53l-14 17l67 258l-354 -2l-12 18l22 100q201 -2 375 -2l53 207l-438 -2l-12 19l22 100q274 -2 459 -2l74 276h53l17 -20l-70 -256l395 12l12 -20l-16 -105l-422 -2l-55 -207q70 0 188 3t206 5q87 2 87 5l12 -21z" />
    <glyph glyph-name="lessequal" unicode="&#x2264;" 
d="M494 -37q128 0 236 3t182 5t75 4l12 -20l-16 -105l-934 -4l-12 19l22 100q307 -2 435 -2zM930 248l2 -23l-62 -82q-84 39 -160 75t-630 271l-17 23l5 96l415 176l412 166l18 -10l15 -102q-229 -80 -398 -150l-315 -123v-12l344 -143z" />
    <glyph glyph-name="greaterequal" unicode="&#x2265;" 
d="M494 -37q128 0 236 3t182 5t75 4l12 -20l-16 -105l-934 -4l-12 19l22 100q307 -2 435 -2zM106 846l-2 22l62 82q195 -92 326 -148t228 -98t236 -100l17 -22l-4 -97l-416 -176l-412 -166l-18 11l-14 102q229 80 397 150l315 122v13l-344 143z" />
    <glyph glyph-name="lozenge" unicode="&#x25ca;" 
d="M502 1192l-260 -627l141 -297l143 -319h13l260 624l-142 299l-143 320h-12zM125 537l-2 43l158 362l178 387l96 4l23 -14l174 -379l159 -332l4 -53l-155 -356l-178 -387l-97 -5l-22 15l-174 379z" />
    <glyph glyph-name="fi" unicode="&#xfb01;" horiz-adv-x="1566" 
d="M1220 0q-84 0 -198 -18l10 84q78 14 105 42t26 95l2 651q0 50 -12 68t-49 18l-68 -2l-4 8l10 78l209 -4l205 14l-8 -84q-68 -8 -90 -25t-27 -65q-23 -401 -22 -670q0 -66 14 -88t57 -22l84 6l4 -8l-14 -82q-150 4 -234 4zM318 0q-93 0 -207 -18l10 84q77 14 103 42t26 97
l2 649q0 50 -12 68t-50 18l-55 -2l-4 8l12 78q145 -4 357 -4t366 18l8 -10q-29 -131 -38 -278l-99 -7q4 49 4 70q0 74 -34 92q-35 19 -145 19t-126 -10t-18 -50l-15 -317l170 -2l177 16l8 -10l-23 -109q-127 4 -195 4t-139 -10l-6 -241q1 -63 15 -85t59 -22l115 6l6 -10
l-15 -90q-164 6 -257 6z" />
    <glyph glyph-name="fl" unicode="&#xfb02;" horiz-adv-x="1818" 
d="M1309 203q-1 -74 23 -94q24 -21 136 -21t158 41q45 41 72 193l90 10l6 -13q-29 -154 -47 -321l-10 -12q-289 14 -431 14t-268 -16l13 86q65 10 89 38t23 97l2 649q0 50 -12 68t-49 18l-55 -2l-7 8l13 78l198 -4l199 14l-8 -86q-90 -10 -105 -51q-10 -37 -10 -86
q-20 -274 -20 -608zM318 0q-93 0 -207 -18l10 84q77 14 103 42t26 97l2 649q0 50 -12 68t-50 18l-55 -2l-4 8l12 78q145 -4 357 -4t366 18l8 -10q-29 -131 -38 -278l-99 -7q4 49 4 70q0 74 -34 92q-35 19 -145 19t-126 -10t-18 -50l-15 -317l170 -2l177 16l8 -10l-23 -109
q-127 4 -195 4t-139 -10l-6 -241q1 -63 15 -85t59 -22l115 6l6 -10l-15 -90q-164 6 -257 6z" />
    <glyph glyph-name="acute.cap" horiz-adv-x="815" 
d="M715 1612l-8 -21q-207 -70 -422 -151l-17 10l-12 49l408 223l18 -12z" />
    <glyph glyph-name="breve.cap" horiz-adv-x="815" 
d="M408 1573q143 0 196 102h17l32 -20q-25 -85 -86 -143t-159 -58t-160 57q-61 57 -86 144l33 20h16q54 -102 197 -102z" />
    <glyph glyph-name="circumflex.cap" horiz-adv-x="815" 
d="M139 1460l-28 45l282 228h29q150 -127 283 -228l-29 -45l-19 -2q-137 80 -249 133q-106 -49 -250 -133z" />
    <glyph glyph-name="dieresis.cap" horiz-adv-x="815" 
d="M143 1577q0 39 30 69t71 30q42 0 64 -26t22 -66t-30 -70t-71 -30t-63 28q-22 26 -23 65zM483 1577q0 39 30 69t71 30q42 0 64 -26t22 -66t-30 -70t-71 -30t-63 28q-22 26 -23 65z" />
    <glyph glyph-name="grave.cap" horiz-adv-x="815" 
d="M109 1591l-9 21l33 98l19 12q215 -123 407 -223l-12 -49l-17 -10z" />
    <glyph glyph-name="macron.cap" horiz-adv-x="815" 
d="M702 1593l13 -20l-15 -96l-585 -4l-13 18l21 92q195 -2 315 -2z" />
    <glyph glyph-name="ring.cap" horiz-adv-x="815" 
d="M242 1545q0 75 47 123t125 48t118 -45t39 -115q0 -70 -47 -122q-47 -54 -124 -54q-78 0 -118 45t-40 120zM412 1458q90 0 90 80q0 45 -28 72t-77 26q-90 0 -90 -80q0 -50 33 -74t72 -24z" />
    <glyph glyph-name="tilde.cap" horiz-adv-x="815" 
d="M557 1587q43 0 111 70l20 22h12l45 -43v-10l-155 -162l-33 -8q-35 0 -154 34t-143 34q-47 0 -108 -70l-23 -22h-12l-45 43v10l155 162l33 8q35 0 154 -34t143 -34z" />
    <glyph glyph-name="caron.cap" horiz-adv-x="815" 
d="M676 1714l29 -45l-283 -227h-29q-150 127 -282 227l28 45l19 2q137 -80 250 -133q106 49 249 133z" />
    <glyph glyph-name="dotaccent.cap" horiz-adv-x="815" 
d="M297 1580q0 46 35 82t84 36t76 -31q26 -31 26 -77t-35 -82t-84 -36t-75 32q-26 30 -27 76z" />
    <glyph glyph-name="commaaccent" horiz-adv-x="815" 
d="M404 -137q48 0 80 -40t32 -106q0 -100 -78 -181t-184 -136l-37 31v20q63 39 106 95q42 56 42 108q0 78 -82 127l4 29q69 53 117 53z" />
    <glyph glyph-name="hungarumlaut.cap" horiz-adv-x="815" 
d="M846 1599l-6 -18q-164 -82 -336 -178l-15 8l-20 43l313 242l19 -10zM559 1618l-6 -19q-164 -82 -336 -178l-16 11l-19 43l314 239l18 -8z" />
    <glyph glyph-name="zero.lf" horiz-adv-x="1091" 
d="M551 125q156 0 250 125t94 335t-100 345t-258 135t-249 -125t-91 -337t99 -345t255 -133zM78 582q0 276 141 459t346 183t327 -164t122 -438t-141 -460q-140 -186 -347 -186q-208 0 -328 165t-120 441z" />
    <glyph glyph-name="one.lf" horiz-adv-x="724" 
d="M438 229q0 -83 20 -111t81 -28l108 6l4 -8l-18 -94q-171 6 -269 6t-262 -25l13 95q117 8 151 54t33 187v650q0 73 -26 95t-85 21l-108 -12l-6 6l8 86q0 -6 186 25t250 43l12 -35q-41 -35 -56 -69t-19 -103q-17 -435 -17 -789z" />
    <glyph glyph-name="two.lf" horiz-adv-x="974" 
d="M604 920q0 168 -189 168t-309 -224h-18l-22 92q53 113 166 191q114 78 244 78t219 -73t89 -193t-108 -300t-379 -516l8 -14h313q113 0 156 35t74 151l82 11q-47 -176 -64 -326l-24 -14q-481 14 -658 14l-110 -25l-21 37l203 232q348 438 348 676z" />
    <glyph glyph-name="three.lf" horiz-adv-x="868" 
d="M262 119q143 0 242 68q98 69 98 181t-87 166t-279 54l-11 10l-10 72l133 32q82 41 134 108q52 66 52 134t-42 110q-43 42 -108 42q-66 0 -132 -27t-111 -68h-20l-21 86q58 47 164 93t174 45q115 0 191 -68t76 -161q1 -93 -61 -171t-165 -131v-14q276 -72 277 -285
q0 -147 -174 -283t-363 -137q-69 0 -99 35t-32 115l10 12q86 -18 164 -18z" />
    <glyph glyph-name="four.lf" horiz-adv-x="911" 
d="M510 485v459h-18l-330 -459h348zM651 485h191l12 -16l-16 -113q-76 2 -187 6l15 -346l-11 -14l-145 -25l-12 19q10 211 12 371q-315 8 -506 8l8 76l566 774l8 2l65 -21v-721z" />
    <glyph glyph-name="five.lf" horiz-adv-x="860" 
d="M739 416q0 -154 -177 -297t-369 -144q-66 0 -96 34t-34 116l11 12q86 -18 166 -18q152 0 248 74t96 188q0 240 -432 248l-19 22l35 520l16 17l387 16q61 4 87 20t42 60l68 8l-49 -241l-12 -13q-211 16 -449 17l-18 -305q255 -19 377 -99q122 -81 122 -235z" />
    <glyph glyph-name="six.lf" horiz-adv-x="931" 
d="M460 584q-105 0 -208 -76q-6 -45 -6 -92q0 -156 66 -249t171 -93q106 0 165 65q58 67 58 177t-70 189q-71 79 -176 79zM504 705q166 1 260 -103t94 -233q0 -164 -115 -279t-287 -115t-274 122q-100 122 -100 306q0 449 456 719q116 68 187 90l37 13l14 -11l23 -61
q-66 -25 -150 -76q-83 -51 -149 -108t-134 -155t-98 -212l8 -4q167 107 228 107z" />
    <glyph glyph-name="seven.lf" horiz-adv-x="860" 
d="M379 1200h432l45 -57q-211 -424 -459 -991l-51 -177h-14l-123 37l-21 45l512 1004l-354 -14q-100 -4 -134 -41t-54 -150l-80 -12q29 199 39 354l12 10q123 -8 250 -8z" />
    <glyph glyph-name="eight.lf" horiz-adv-x="993" 
d="M295 952q0 -104 117 -178q46 -29 68 -40t83 -44q123 74 123 217q0 107 -56 165t-142 58t-140 -53q-53 -53 -53 -125zM507 63q99 1 167 63t67 139q0 77 -46 131t-84 76t-160 83q-186 -80 -187 -252q0 -96 72 -168t171 -72zM115 254q0 215 264 338q-106 57 -167 126
q-60 70 -60 188t105 218t249 100t238 -71q95 -72 96 -203q0 -188 -203 -297q117 -61 181 -133t65 -180q0 -152 -121 -258t-282 -106t-263 74q-102 75 -102 204z" />
    <glyph glyph-name="nine.lf" horiz-adv-x="931" 
d="M467 618q102 0 213 76q6 43 6 92q0 156 -66 249t-172 93t-164 -66t-58 -176q0 -112 69 -190q70 -78 172 -78zM428 498q-166 0 -260 103t-94 250t114 261t288 115q174 0 274 -122t100 -306q0 -125 -38 -239t-97 -194q-123 -167 -280 -261q-157 -93 -226 -115l-39 -13
l-14 11l-23 61q66 25 150 75q83 50 149 107t134 155t96 212l-7 6q-166 -106 -227 -106z" />
    <glyph glyph-name="zero.tf" horiz-adv-x="921" 
d="M466 125q136 0 218 125t82 335t-87 345t-226 135t-219 -124t-78 -337q0 -213 87 -346t223 -133zM41 582q0 276 126 459t310 183t294 -163q110 -165 110 -439t-125 -460q-126 -186 -312 -186t-294 165t-109 441z" />
    <glyph glyph-name="one.tf" horiz-adv-x="921" 
d="M537 229q-1 -83 23 -111t93 -28l127 6l4 -8l-18 -94q-194 6 -304 6t-290 -25l14 95q135 8 174 54t39 187v650q-1 73 -31 95t-98 21l-127 -12l-6 6l8 86q465 55 484 68l12 -35q-49 -35 -67 -69t-21 -103q-16 -435 -16 -789z" />
    <glyph glyph-name="two.tf" horiz-adv-x="921" 
d="M569 920q0 168 -182 168t-293 -224h-18l-23 92q51 113 161 191t237 78t213 -73t86 -193t-104 -300t-363 -516l6 -14h297q108 0 150 35t71 151l82 11q-45 -176 -62 -326l-22 -14q-465 14 -635 14l-111 -25l-18 37l197 232q331 438 331 676z" />
    <glyph glyph-name="three.tf" horiz-adv-x="921" 
d="M283 119q152 1 254 69t102 180t-91 166t-292 54l-10 10l-10 72l137 32q86 41 141 108q55 66 55 134t-45 110q-44 42 -112 42t-138 -27t-116 -68h-21l-20 86q29 24 106 64q139 72 250 73t189 -67t78 -161t-64 -171q-63 -78 -170 -131v-14q287 -72 287 -285
q-1 -147 -181 -283t-374 -137q-70 0 -101 35t-33 115l11 12q90 -18 168 -18z" />
    <glyph glyph-name="four.tf" horiz-adv-x="921" 
d="M516 485v459h-18l-334 -459h352zM657 485h193l12 -16l-16 -113q-78 2 -189 6l15 -346l-10 -14l-146 -25l-12 19q10 211 12 371q-319 8 -510 8l8 76l570 774l8 2l65 -21v-721z" />
    <glyph glyph-name="five.tf" horiz-adv-x="921" 
d="M780 416q0 -152 -183 -296t-384 -145q-69 0 -99 34t-34 116l10 12q90 -18 172 -18q160 0 262 74t103 188q0 240 -455 248l-18 22l34 520l19 17l401 16q63 4 90 20t45 60l68 8l-51 -241l-12 -13q-221 16 -469 17l-21 -305q268 -19 395 -100q127 -82 127 -234z" />
    <glyph glyph-name="six.tf" horiz-adv-x="921" 
d="M455 584q-104 0 -207 -76q-6 -45 -6 -92q0 -156 66 -249t170 -93q105 0 163 65q57 67 57 177t-69 189q-70 79 -174 79zM500 705q164 1 257 -103t93 -233q0 -164 -114 -279t-286 -115t-271 121t-99 307q0 125 37 239t97 195q124 168 276 258q151 91 266 130l12 -11l25 -61
q-66 -25 -149 -76q-82 -51 -148 -108t-134 -155t-96 -212l8 -4q165 107 226 107z" />
    <glyph glyph-name="seven.tf" horiz-adv-x="921" 
d="M410 1200h450l43 -57q-258 -496 -481 -991l-53 -177h-13l-125 37l-20 45l537 1004l-375 -14q-103 -4 -139 -40t-58 -151l-80 -12q29 199 41 354l13 10q127 -8 260 -8z" />
    <glyph glyph-name="eight.tf" horiz-adv-x="921" 
d="M639 907q0 107 -53 165t-134 58t-130 -53q-50 -53 -50 -111t18 -96t67 -76q50 -38 167 -104q115 74 115 217zM470 63q92 1 156 63t64 139t-42 130t-81 77t-87 50t-53 27q-5 2 -11 6q-174 -78 -174 -252q-1 -96 67 -168t161 -72zM94 254q0 215 250 338q-102 57 -159 126
q-56 70 -56 188t101 218q102 100 240 100t229 -71q91 -72 92 -203q0 -188 -193 -297q111 -61 172 -133t61 -180q1 -152 -115 -258t-272 -106t-253 74q-97 75 -97 204z" />
    <glyph glyph-name="nine.tf" horiz-adv-x="921" 
d="M461 618q102 0 213 76q6 43 6 92q0 154 -67 248t-171 94t-161 -66t-57 -176q0 -112 67 -190q68 -78 170 -78zM422 498q-164 0 -257 103t-93 250t114 261t285 115q172 0 271 -121t100 -307q0 -125 -37 -239t-97 -194q-125 -168 -277 -259q-151 -91 -265 -130l-12 11
l-25 61q66 25 149 75q82 50 148 107t132 155t95 212l-6 6q-164 -106 -225 -106z" />
    <glyph glyph-name="zero.tosf" horiz-adv-x="901" 
d="M756 487q0 164 -88 273q-88 108 -226 108t-217 -97q-80 -97 -80 -263t87 -271q88 -105 224 -105t218 95q82 96 82 260zM434 -25q-184 -1 -292 139t-107 373q0 233 125 391t308 156q183 0 291 -138q107 -138 107 -370t-124 -391q-124 -160 -308 -160z" />
    <glyph glyph-name="one.tosf" horiz-adv-x="901" 
d="M522 229q0 -83 24 -111t93 -28l125 6l4 -8l-18 -94q-192 6 -300 6t-288 -25l14 95q131 8 170 53t39 180v467q0 72 -31 94t-96 23l-125 -13l-6 7l10 86q25 1 200 25t271 42l13 -35q-47 -35 -65 -69t-21 -103q-13 -326 -13 -598z" />
    <glyph glyph-name="two.tosf" horiz-adv-x="901" 
d="M508 741q0 74 -39 115t-105 41t-132 -49q-65 -49 -109 -133h-17l-22 92q49 98 144 163q95 64 203 64q107 0 181 -68t74 -168q0 -102 -87 -238t-325 -421l9 -14h290q106 0 148 35q41 35 70 151l81 11q-41 -172 -55 -322l-24 -14q-461 14 -629 14l-107 -25l-20 37l153 181
q318 376 318 548z" />
    <glyph glyph-name="three.tosf" horiz-adv-x="901" 
d="M233 -72q160 0 270 78t109 195q0 205 -383 207l-10 10l-10 71l137 33q86 39 140 106q54 66 54 132t-46 106q-47 40 -119 39q-135 0 -244 -104h-20l-21 86q84 68 184 108t164 39q123 0 199 -62t76 -156q1 -94 -63 -171q-64 -78 -171 -131v-10q287 -66 287 -254
q0 -106 -87 -215t-223 -179t-268 -71q-72 0 -102 35t-31 114l8 13q90 -19 170 -19z" />
    <glyph glyph-name="four.tosf" horiz-adv-x="901" 
d="M506 293v459h-19l-325 -459h344zM647 293h189l12 -17l-17 -112q-76 2 -184 6l15 -346l-11 -14l-145 -25l-12 18q10 211 12 371q-311 8 -500 8l8 76l557 774l9 2l67 -20v-721z" />
    <glyph glyph-name="five.tosf" horiz-adv-x="901" 
d="M760 270q0 -126 -96 -240t-234 -180t-262 -65q-63 0 -94 32t-35 117l8 13q90 -18 168 -19q166 0 278 76q111 76 111 186t-96 169q-96 58 -340 100l-18 22l34 500l19 16l391 17q61 4 88 19t43 61l68 8l-50 -242l-12 -12q-215 16 -457 16l-14 -258q240 -55 370 -132
t130 -204z" />
    <glyph glyph-name="six.tosf" horiz-adv-x="901" 
d="M445 584q-101 0 -203 -76q-6 -45 -6 -92q0 -156 64 -249t168 -93q103 0 160 65q56 67 56 177t-69 189t-170 79zM489 705q162 1 254 -103t93 -233q0 -164 -113 -279t-282 -115t-268 122t-99 306q0 336 261 582q71 69 185 137t182 90l37 13l15 -11l22 -61q-61 -23 -144 -75
q-82 -52 -146 -109t-131 -155t-95 -212l8 -4q162 107 221 107z" />
    <glyph glyph-name="seven.tosf" horiz-adv-x="901" 
d="M399 1010h445l45 -58q-240 -467 -475 -991l-52 -176h-14l-125 37l-20 45l528 1003l-366 -14q-103 -4 -139 -41t-56 -149l-80 -13q29 199 39 355l12 10q127 -8 258 -8z" />
    <glyph glyph-name="eight.tosf" horiz-adv-x="901" 
d="M264 966q0 -58 18 -96t66 -76q49 -38 166 -104q113 72 113 217q-1 107 -53 165t-132 58t-129 -53t-49 -111zM459 63q92 1 154 63t63 139q0 77 -44 131t-77 74t-88 51q-55 30 -61 34q-170 -76 -170 -252q-1 -96 65 -168t158 -72zM88 254q0 215 246 338q-100 57 -156 126
q-55 70 -55 188t99 218q98 100 236 100t228 -71q90 -72 90 -203q0 -188 -188 -297q109 -61 169 -133t60 -180q0 -152 -115 -258q-114 -106 -268 -106t-250 74q-96 75 -96 204z" />
    <glyph glyph-name="nine.tosf" horiz-adv-x="901" 
d="M450 426q99 0 209 76q6 43 7 92q0 156 -65 249t-168 93t-159 -66t-57 -177q0 -111 67 -189t166 -78zM412 305q-162 -1 -254 103t-92 233q0 164 112 279q113 114 282 114t268 -122t99 -306q0 -335 -261 -581q-70 -69 -184 -137t-183 -91l-37 -12l-15 10l-22 62
q61 23 144 73t147 108t129 156q66 98 94 212l-6 6q-162 -107 -221 -107z" />
    <glyph glyph-name="caron.alt" horiz-adv-x="815" 
d="M348 1141q0 96 -14 282l143 29l15 -16q-29 -225 -72 -435l-51 -28l-23 4q2 68 2 164z" />
    <glyph glyph-name="zero.numr" horiz-adv-x="720" 
d="M561 916q0 116 -57 189q-58 73 -150 73t-143 -67t-51 -185t56 -189t148 -71t145 66q52 68 52 184zM349 530q-134 0 -210 102t-76 281q1 178 89 292t221 114t209 -102q76 -103 76 -279t-88 -292q-87 -116 -221 -116z" />
    <glyph glyph-name="one.numr" horiz-adv-x="509" 
d="M322 707q0 -49 13 -69t48 -20l66 5l4 -7l-15 -73q-115 4 -180 4l-186 -15l8 72q63 4 90 27t27 78v428q1 45 -15 58t-53 13l-68 -6l-6 6l6 66q109 14 149 19t74 11t45 8q11 1 18 3t11 2l13 2h2l10 -31q-41 -37 -49 -104q-12 -229 -12 -477z" />
    <glyph glyph-name="two.numr" horiz-adv-x="673" 
d="M385 1104q0 94 -109 94t-184 -127h-14l-21 84q41 70 115 117t160 47t146 -48t60 -126t-65 -186q-66 -108 -229 -297l6 -11h168q66 0 92 23t43 94l78 8q-29 -127 -39 -227l-19 -12q-307 10 -426 10l-86 -15l-12 52l141 157q195 240 195 363z" />
    <glyph glyph-name="three.numr" horiz-adv-x="600" 
d="M381 780q0 119 -213 119l-10 10l-8 66l86 18q109 53 108 135q0 39 -25 62t-65 22q-76 0 -148 -57h-14l-20 76q30 23 100 55t140 33q70 0 122 -43q51 -43 51 -105q0 -119 -143 -186v-10q178 -49 178 -180q0 -93 -116 -179t-244 -86q-51 0 -73 27t-24 90l13 15
q153 -44 249 21q56 38 56 97z" />
    <glyph glyph-name="four.numr" horiz-adv-x="636" 
d="M336 858v256h-12l-185 -256h197zM463 858h112l11 -14l-13 -90l-110 4l8 -199l-8 -12l-125 -15l-10 13q8 119 8 215l-316 6l5 70l352 481l6 2l80 -12v-449z" />
    <glyph glyph-name="five.numr" horiz-adv-x="593" 
d="M508 806q0 -97 -116 -186t-247 -90q-49 0 -71 27t-25 90l12 15q162 -44 253 23q54 40 55 101q0 125 -260 138l-13 14l23 344l10 10l256 8q37 2 54 12t28 40l59 6l-32 -174l-13 -13q-131 10 -278 11l-10 -158q163 -17 239 -69t76 -149z" />
    <glyph glyph-name="six.numr" horiz-adv-x="638" 
d="M318 905q-58 0 -117 -41q-4 -33 -4 -55q-1 -88 35 -139q36 -52 96 -52t93 36q32 36 32 100t-38 108q-39 43 -97 43zM313 530q-117 0 -185 78t-67 193q0 115 47 208q46 93 111 146q135 113 244 148l45 16l12 -8l21 -56q-11 -4 -27 -10t-62 -33q-46 -26 -85 -58t-80 -85
t-62 -115l6 -8q80 55 127 58q105 0 164 -65q60 -65 60 -164t-76 -172t-193 -73z" />
    <glyph glyph-name="seven.numr" horiz-adv-x="591" 
d="M252 1303h280l41 -52q-141 -283 -274 -587l-37 -132h-16l-101 29l-12 31l307 598l-198 -10q-64 -4 -84 -26t-33 -91l-66 -8q18 139 25 248l8 6q78 -6 160 -6z" />
    <glyph glyph-name="eight.numr" horiz-adv-x="669" 
d="M223 1142q0 -36 26 -65q25 -29 51 -43t79 -41q63 45 63 112t-30 99t-80 31q-49 0 -79 -29q-30 -28 -30 -64zM337 610q56 0 92 33t36 75t-29 73q-28 31 -54 45t-87 43q-94 -49 -94 -136q0 -55 40 -94t96 -39zM80 711q0 129 156 200q-137 80 -138 193q0 86 73 150t170 65
q97 0 162 -48t64 -130q0 -113 -125 -180q148 -78 148 -186q0 -109 -79 -177t-187 -68t-176 50t-68 131z" />
    <glyph glyph-name="nine.numr" horiz-adv-x="638" 
d="M322 946q59 0 116 39q4 37 4 57q0 88 -35 140q-37 51 -97 51t-92 -36q-32 -37 -32 -101t38 -107t98 -43zM326 1319q116 0 184 -77q68 -78 68 -192t-46 -207t-112 -147q-135 -113 -244 -147l-45 -17l-10 7l-23 57q10 4 47 18t127 82q39 31 80 85t62 116l-6 6
q-84 -53 -127 -55q-105 0 -164 63t-59 163t75 172q76 73 193 73z" />
    <glyph glyph-name="zero.dnom" horiz-adv-x="720" 
d="M561 369q0 117 -57 189q-58 72 -150 73q-92 0 -143 -67q-51 -66 -51 -184t56 -190t148 -72t145 68q52 66 52 183zM63 366q1 178 89 292t221 114t209 -102t76 -278t-88 -293q-87 -115 -221 -115t-210 102t-76 280z" />
    <glyph glyph-name="one.dnom" horiz-adv-x="509" 
d="M322 160q0 -48 13 -68t48 -20l66 4l4 -6l-15 -74q-115 4 -180 4l-186 -14l8 71q63 4 90 27t27 78v428q1 45 -15 58t-53 14l-68 -7l-6 7l6 65q109 14 141 18q32 3 50 7t32 6t27 4t21 3t15 3t11 2l13 2h2l10 -31q-41 -37 -49 -104q-12 -229 -12 -477z" />
    <glyph glyph-name="two.dnom" horiz-adv-x="673" 
d="M385 557q0 94 -109 94t-184 -127h-14l-21 84q41 70 115 117t160 47t146 -48q125 -100 -5 -311q-66 -108 -229 -298l6 -11h168q66 0 92 23t43 94l78 8q-29 -127 -39 -227l-19 -12q-307 10 -426 10l-86 -14l-12 51l141 158q195 239 195 362z" />
    <glyph glyph-name="three.dnom" horiz-adv-x="600" 
d="M381 233q0 119 -213 119l-10 10l-8 66l86 18q109 53 108 136q0 40 -25 62t-65 22q-76 0 -148 -58h-14l-20 76q30 24 100 56t140 32t122 -43q51 -43 51 -102q0 -121 -143 -189v-10q178 -49 178 -180q0 -94 -116 -179t-244 -85q-51 0 -73 26t-24 90l13 15q153 -44 249 21
q56 38 56 97z" />
    <glyph glyph-name="four.dnom" horiz-adv-x="636" 
d="M336 311v256h-12l-185 -256h197zM463 311h112l11 -14l-13 -90l-110 4l8 -199l-8 -12l-125 -14l-10 12q8 119 8 215l-316 6l5 70l352 481l6 2l80 -12v-449z" />
    <glyph glyph-name="five.dnom" horiz-adv-x="593" 
d="M508 260q0 -98 -116 -187t-247 -89q-49 0 -71 26t-25 90l12 15q162 -44 253 23q54 40 55 102q0 125 -260 137l-13 14l23 344l10 10l256 9q37 2 54 12t28 39l59 6l-32 -174l-13 -12q-131 10 -278 10l-10 -158q163 -16 239 -68q76 -51 76 -149z" />
    <glyph glyph-name="six.dnom" horiz-adv-x="638" 
d="M318 358q-58 0 -117 -41q-4 -33 -4 -55q-1 -88 35 -139t96 -51t93 36q32 36 32 100t-38 107q-39 43 -97 43zM61 254q0 115 47 208q46 93 111 148q135 111 244 148l45 14l12 -8l21 -55q-11 -5 -27 -11q-69 -27 -159 -101t-130 -189l6 -9q80 55 127 58q105 0 164 -65
q60 -65 60 -164t-76 -172q-76 -72 -193 -72t-185 78t-67 192z" />
    <glyph glyph-name="seven.dnom" horiz-adv-x="591" 
d="M252 756h280l41 -51q-141 -283 -274 -588l-37 -131h-16l-101 28l-12 31l307 598l-198 -10q-64 -4 -84 -26t-33 -91l-66 -8q18 139 25 248l8 6q78 -6 160 -6z" />
    <glyph glyph-name="eight.dnom" horiz-adv-x="669" 
d="M223 594q0 -36 26 -64q25 -29 51 -43t79 -41q63 45 63 112q0 66 -30 98t-80 32q-49 0 -79 -29t-30 -65zM337 63q56 0 92 33t36 75t-29 73q-28 31 -54 45t-87 43q-94 -49 -94 -135q0 -56 40 -95t96 -39zM80 164q0 129 156 201q-137 80 -138 192q0 86 73 151q73 64 170 64
t162 -48t64 -130q0 -113 -125 -180q148 -78 148 -186t-79 -176t-187 -68t-177 49q-67 49 -67 131z" />
    <glyph glyph-name="nine.dnom" horiz-adv-x="638" 
d="M322 399q59 0 116 39q4 37 4 58q0 88 -35 139q-37 51 -97 51t-92 -36t-32 -100t38 -108q38 -43 98 -43zM326 772q116 0 184 -77t68 -191t-46 -208q-46 -93 -112 -149q-135 -111 -244 -147l-45 -14l-10 6l-23 57q10 4 26 10t63 33q174 102 227 258l-6 6q-84 -53 -127 -55
q-105 1 -164 64t-60 162q0 99 76 172t193 73z" />
    <glyph glyph-name="a.sups" horiz-adv-x="657" 
d="M281 817q41 0 98 47l4 127l-156 -45q-35 -10 -35 -46t24 -60t65 -23zM387 1094q0 125 -123 125q-63 0 -125 -48l-20 -14l-10 4l-19 68q168 96 227 96q99 0 151 -47t52 -125l-24 -279q0 -55 49 -55q37 0 71 27l19 -25q-57 -98 -121 -119q-115 0 -125 103l-8 2
q-102 -98 -145 -98q-74 0 -124 50t-51 131q0 81 74 101l250 62z" />
    <glyph glyph-name="b.sups" horiz-adv-x="706" 
d="M510 994q0 96 -42 158t-102 62t-120 -53l-4 -342q52 -23 118 -23t108 52q42 51 42 146zM66 1577q-10 0 -31 -4l-4 6l6 57l235 39l9 -20q-23 -29 -33 -418q127 86 149 86q115 0 184 -77t69 -213t-95 -232q-94 -96 -236 -96q-94 0 -190 18l-12 12v770q0 72 -51 72z" />
    <glyph glyph-name="c.sups" horiz-adv-x="598" 
d="M340 702q-131 0 -207 80t-76 218t89 232t225 93q76 0 159 -27l5 -10q-23 -86 -27 -190l-72 -4v41q0 45 -26 71t-68 27q-141 0 -141 -191q0 -106 42 -166q76 -108 259 -22l10 -2l18 -57q-116 -93 -190 -93z" />
    <glyph glyph-name="d.sups" horiz-adv-x="741" 
d="M350 1229q-70 0 -112 -52q-42 -53 -41 -147q0 -94 42 -156t100 -61q58 0 124 53v338q-43 25 -113 25zM637 819q33 0 68 27l18 -25q-55 -96 -123 -119q-113 0 -125 95l-8 2q-133 -90 -158 -90q-115 -1 -183 75t-69 211t95 231t235 97q18 0 76 -4v184q0 72 -51 72l-33 -4
l8 65l231 39l11 -18q-17 -25 -29 -259t-12 -524q0 -55 49 -55z" />
    <glyph glyph-name="e.sups" horiz-adv-x="634" 
d="M195 1034v-16q4 -96 51 -150t126 -55q79 0 160 39l9 -2l18 -53q-125 -94 -213 -95q-131 0 -210 80t-79 215t87 231t214 97q211 0 211 -207l-8 -69l-16 -15h-350zM430 1139q0 98 -94 98q-55 0 -92 -37t-45 -104l202 10q29 2 29 33z" />
    <glyph glyph-name="f.sups" horiz-adv-x="477" 
d="M150 1315q0 166 86 263t231 97q80 0 149 -24l5 -17q-20 -45 -43 -102l-15 -4q-63 49 -139 49t-109 -51t-34 -166v-62l174 5l4 -5l-15 -79q-74 2 -165 4l-5 -367q0 -63 60 -63l80 2l4 -7l-10 -73q-125 4 -179 4l-161 -6l8 67q74 8 74 74v322q-2 32 -18 40t-66 11l-7 8
l11 57l80 13v10z" />
    <glyph glyph-name="g.sups" horiz-adv-x="702" 
d="M356 489q63 0 115 33q51 33 51 72t-42 53t-193 35q-63 -49 -63 -96t34 -72q35 -25 98 -25zM352 958q111 0 111 134q0 70 -35 110t-92 39q-113 0 -113 -133q0 -70 35 -110t94 -40zM598 1101q0 -85 -78 -151t-196 -65q-37 0 -78 10q-45 -25 -45 -51q0 -59 221 -60
q82 0 150 -32t69 -116q0 -83 -103 -156q-104 -72 -220 -72t-174 47t-58 129q33 41 131 104v8q-61 8 -100 44t-39 85q33 37 110 86v7q-98 52 -98 162t74 178t184 67l133 -12q59 4 183 41l6 -6l-17 -88q-51 -6 -102 -11l-6 -6q53 -57 53 -142z" />
    <glyph glyph-name="h.sups" horiz-adv-x="743" 
d="M391 1210q-61 0 -141 -61q-4 -188 -4 -297q0 -63 43 -64l39 3l4 -7l-13 -69q-82 4 -133 4l-139 -4l10 69q35 2 49 18t15 52v651q0 39 -11 55t-40 15h-29l-6 4l6 57l235 39l11 -20q-25 -31 -35 -436q35 31 95 69t89 37q90 0 140 -44t49 -124l-23 -303q0 -66 43 -66l43 3
l2 -7l-12 -69q-80 4 -129 4l-143 -12l8 69q66 14 65 76l6 235q0 123 -94 123z" />
    <glyph glyph-name="i.sups" horiz-adv-x="413" 
d="M145 856v299q0 39 -12 54t-41 16l-31 -4l7 63l223 41l10 -20q-31 -61 -31 -455q0 -61 43 -62l41 3l2 -7l-10 -69q-82 4 -133 4l-150 -14l9 69q73 14 73 82zM214 1649q38 0 60 -23q22 -22 21 -60q0 -38 -27 -65q-28 -27 -64 -27t-58 24q-22 22 -21 61q0 39 26 65
q25 26 63 25z" />
    <glyph glyph-name="j.sups" horiz-adv-x="380" 
d="M202 1649q38 0 60 -23q22 -22 21 -60q0 -38 -27 -65t-65 -27q-37 0 -59 24q-22 22 -21 61t27 65t64 25zM131 766v389q0 39 -10 54t-39 16l-37 -4l6 63l223 41l9 -20q-25 -47 -25 -605q0 -190 -192 -294l-33 32l2 13q57 55 77 121t19 194z" />
    <glyph glyph-name="k.sups" horiz-adv-x="704" 
d="M446 1225q0 27 -69 26l-4 9l12 51q86 -2 143 -2l134 6l4 -6l-11 -60q-41 -15 -69 -35l-42 -30q-21 -14 -73 -66t-70 -67l123 -170q74 -98 146 -101l4 -8l-8 -53q-72 -16 -107 -17l-43 7q-49 16 -102 100l-142 215l4 25l142 133q28 29 28 43zM246 850q0 -63 43 -64l41 2
l2 -6l-13 -67q-82 4 -133 4l-139 -8l8 69q45 6 56 28q10 22 10 85v612q0 68 -41 70h-14l-29 -2v18l4 45l235 39l11 -20q-17 -20 -29 -257t-12 -548z" />
    <glyph glyph-name="l.sups" horiz-adv-x="370" 
d="M246 850q0 -63 43 -64l45 2l2 -6l-12 -67q-84 4 -136 4l-143 -12l8 67q47 12 58 35q10 23 10 84v612q0 68 -41 70h-14l-29 -2v18l4 45l235 39l11 -20q-17 -20 -29 -258t-12 -547z" />
    <glyph glyph-name="m.sups" horiz-adv-x="1132" 
d="M143 854v291q0 43 -14 60t-49 18h-17l-4 6l7 57l215 39l10 -12q-12 -43 -15 -86l3 -4q137 102 182 102q141 0 176 -106q131 106 186 106q89 0 139 -45t50 -123l-21 -303q0 -66 43 -66l43 3l2 -7l-12 -69q-84 4 -133 4l-135 -6l6 67q61 10 63 72l4 235q0 123 -96 123
q-57 0 -131 -55l-16 -301q0 -66 43 -66l41 3l2 -7l-13 -69q-78 4 -129 4l-141 -12l8 69q66 14 66 76l4 235q0 123 -94 123q-59 0 -135 -57q-12 -276 -13 -306q0 -57 43 -59l39 3l2 -7l-12 -69q-80 4 -129 4l-145 -4l10 69q37 4 52 20t15 50z" />
    <glyph glyph-name="o.sups" horiz-adv-x="692" 
d="M352 786q137 0 137 193q0 119 -42 185t-109 67q-137 0 -137 -193q0 -118 42 -185t109 -67zM57 1001q0 137 88 231t216 93q128 0 201 -80t73 -218t-87 -231q-87 -94 -215 -94t-202 81t-74 218z" />
    <glyph glyph-name="p.sups" horiz-adv-x="735" 
d="M388 797q67 0 109 51t42 145q0 95 -41 155q-42 60 -100 60t-119 -47q-11 -174 -11 -344q53 -20 120 -20zM143 1145q0 43 -14 60t-51 18h-17l-4 6l6 57l216 39l10 -12q-10 -39 -15 -76l7 -6q113 90 139 90q118 0 188 -77t70 -212t-97 -231t-241 -96l-74 4v-125
q0 -54 10 -74t43 -21l52 3l2 -5l-13 -67l-145 2l-149 -8l8 67q39 5 51 21t12 65l6 205v373z" />
    <glyph glyph-name="q.sups" horiz-adv-x="712" 
d="M350 1229q-70 0 -112 -52q-42 -53 -41 -147q0 -94 42 -156t99 -63q57 0 125 55v338q-43 25 -113 25zM309 705q-115 1 -183 77t-69 212t95 232t235 97q63 0 133 -12l82 32l12 -14q-27 -59 -26 -743q0 -58 8 -76t35 -18h35l2 -3l-9 -67h-147l-152 -4l9 65q55 5 71 19t19 61
l4 232q-129 -90 -154 -90z" />
    <glyph glyph-name="r.sups" horiz-adv-x="561" 
d="M150 879v266q0 43 -12 60t-42 18l-24 -2l-6 8l4 55l213 41l10 -10q-12 -68 -12 -125l6 -4q90 131 182 131l45 -4l6 -8q-20 -121 -24 -215l-70 -5q0 57 -7 77t-30 20q-53 0 -102 -70q-13 -229 -13 -261t12 -45t46 -13l61 2l2 -7l-12 -73q-98 4 -156 4l-151 -6l8 69
q38 2 52 22t14 75z" />
    <glyph glyph-name="s.sups" horiz-adv-x="569" 
d="M369 849q0 27 -28 51t-114 65q-145 71 -145 161t73 144t167 55q94 0 157 -22l4 -11q-16 -78 -24 -164l-64 -4q2 20 2 29q0 88 -98 88q-39 0 -65 -17t-25 -44q0 -50 105 -102q104 -52 144 -91t40 -105t-75 -123t-173 -57t-176 33l-6 13q12 57 16 170l61 6q2 -139 121 -140
q43 0 73 18t30 47z" />
    <glyph glyph-name="t.sups" horiz-adv-x="471" 
d="M242 924q0 -111 84 -111q41 0 90 21l16 -39q-106 -92 -143 -93q-92 0 -132 38t-40 122v299q1 37 -15 51t-59 17l-8 8l6 53q84 39 197 129l32 -14q-8 -39 -14 -107l172 5l4 -5l-12 -79l-170 4q-8 -156 -8 -299z" />
    <glyph glyph-name="u.sups" horiz-adv-x="749" 
d="M643 819q35 0 70 27l20 -25q-72 -109 -127 -119q-115 0 -127 103l-8 4q-125 -104 -162 -104q-193 0 -192 155l8 299q0 66 -45 66l-35 -4l8 63l215 41l11 -20q-35 -82 -35 -371q0 -115 92 -115q51 0 133 60v278q0 39 -13 52t-48 14h-25l8 61l225 39l11 -18
q-33 -70 -33 -431q0 -55 49 -55z" />
    <glyph glyph-name="v.sups" horiz-adv-x="636" 
d="M463 1217q0 27 -49 26h-43l-4 8l8 60q78 -2 139 -2l115 2l-11 -66q-30 -4 -42 -19t-35 -65l-176 -442l-125 -21q-113 379 -148 482q-20 61 -86 65l-2 4l8 62q82 -2 119 -2l168 10l4 -8l-10 -60q-43 -2 -56 -9q-13 -8 -13 -32t93 -364h11q135 355 135 371z" />
    <glyph glyph-name="w.sups" horiz-adv-x="985" 
d="M807 1217q0 29 -45 28h-43l-4 8l8 58q74 -2 135 -2l115 2l-10 -66q-27 -2 -41 -18t-35 -66l-172 -442l-123 -21q-2 16 -96 346h-13l-118 -325l-125 -21q-111 379 -144 482q-20 63 -84 65l-2 4l8 62q78 -2 115 -2l166 10l4 -8l-10 -60q-41 -2 -54 -9q-13 -8 -13 -32
t89 -364h11q74 184 120 332q-10 35 -27 50t-54 15l-3 6l11 62q76 -2 112 -2l164 8l4 -6l-10 -62q-43 -4 -55 -9q-12 -6 -12 -30t90 -364h10q131 342 131 371z" />
    <glyph glyph-name="x.sups" horiz-adv-x="673" 
d="M410 797q0 12 -19 41l-86 116q-113 -134 -113 -156t54 -24l2 -6l-8 -55q-90 6 -119 6l-92 -4l-4 8l8 53q41 20 119 113l108 125l-92 129q-39 55 -67 75t-72 27l-2 6l8 60q82 -2 143 -2l150 6l4 -8l-8 -56q-55 0 -56 -24q0 -14 31 -60l61 -86l70 88q37 47 37 63t-51 15
l-2 6l6 56h108l103 4l4 -6l-8 -58q-49 -25 -111 -96l-108 -133l108 -148q63 -86 131 -94l2 -4l-8 -57q-84 2 -125 2l-168 -8l-2 8l8 53q56 0 56 25z" />
    <glyph glyph-name="y.sups" horiz-adv-x="634" 
d="M221 1219q0 -37 103 -353h8q135 324 135 353t-43 28h-51l-2 6l8 60q74 -4 119 -4t89 1t46 1l-10 -66q-29 -6 -43 -19t-27 -48l-168 -396q-95 -217 -157 -296t-146 -78h-10q-8 0 -41 38t-33 54l8 12q168 10 260 199q-86 258 -176 475q-31 57 -84 57l-2 6l8 62l105 -2
q180 0 180 10l4 -8l-10 -60q-70 -2 -70 -32z" />
    <glyph glyph-name="z.sups" horiz-adv-x="636" 
d="M72 715l-19 39l342 487l-137 -8q-68 -4 -92 -27t-29 -88l-59 -8q12 119 14 203l8 8l168 -10l293 -4l12 -35q-213 -272 -354 -488l162 13q55 4 84 40t41 113l61 6q-23 -129 -22 -223l-21 -20l-381 8z" />
    <glyph glyph-name="foundryicon" horiz-adv-x="1603" 
d="M369 -121q-164 0 -164 164v866q0 164 164 164h866q164 0 164 -164v-866q0 -164 -164 -164h-866zM891 618h53q20 0 21 -20v-270q0 -66 45 -108t114 -42l129 76v51q-25 -8 -53 -8q-84 0 -84 117v184q0 20 21 20h118v74h-118q-20 0 -21 21v57h-43l-182 -115v-37zM543 657
v238h-152v-705h152v369q0 25 49 25q88 0 88 -115v-279h151v365q0 66 -45 108t-114 42q-113 -66 -121 -66t-8 18z" />
    <glyph glyph-name="square1" horiz-adv-x="925" 
d="M0 0v926h926v-926h-926z" />
    <glyph glyph-name="square2" horiz-adv-x="1304" 
d="M0 0v1305h1305v-1305h-1305z" />
    <glyph glyph-name="idotaccent" horiz-adv-x="653" 
d="M324 1186q-49 0 -76 31t-27 77t35 81q35 36 84 36t76 -31q27 -30 27 -76t-35 -82t-84 -36zM395 190q1 -66 15 -88t57 -22l84 6l4 -8l-14 -82q-150 4 -234 4t-198 -18l10 84q79 14 105 42t26 95l2 651q0 50 -12 68t-50 18l-67 -2l-4 8l10 78l209 -4l205 14l-8 -84
q-68 -8 -91 -25t-26 -65q-23 -401 -23 -670z" />
  </font>
</defs>
</svg>
