<?xml version="1.0" standalone="no"?>
<!DOCTYPE svg PUBLIC "-//W3C//DTD SVG 1.1//EN" "http://www.w3.org/Graphics/SVG/1.1/DTD/svg11.dtd" >
<svg xmlns="http://www.w3.org/2000/svg">
<metadata>
Created by FontPrep 20130207 at Tue May 10 19:20:32 2016
 By Guillaume Coquoz
Copyright (c) 2011, Juan Pablo del Peral (juan@huertatipografica.com.ar), with Reserved Font Names "Alegreya" "Alegreya SC"
</metadata>
<defs>
<font id="4159e6af018f58db878f080722271d3f" horiz-adv-x='1024' >
  <font-face 
    font-family="AlegreyaSC-Italic"
    font-weight="400"
    font-style="italic"
    font-stretch="normal"
    units-per-em="2048"
    panose-1="2 0 5 3 5 0 0 2 0 4"
    ascent="1638"
    descent="-410"
    x-height="1032"
    cap-height="1323"
    bbox="-487 -600 1946 1929"
    underline-thickness="114"
    underline-position="-121"
    unicode-range="U+0020-FB02"
  />
<missing-glyph horiz-adv-x="393" 
 />
    <glyph glyph-name=".notdef" horiz-adv-x="393" 
 />
    <glyph glyph-name=".null" horiz-adv-x="0" 
 />
    <glyph glyph-name="nonmarkingreturn" horiz-adv-x="681" 
 />
    <glyph glyph-name="space" unicode=" " horiz-adv-x="393" 
 />
    <glyph glyph-name="exclam" unicode="!" horiz-adv-x="561" 
d="M205 430l96 934l18 20l173 37l16 -22l-223 -971l-60 -14zM208 219q109 0 107 -109q0 -53 -40 -94t-95 -41q-108 0 -106 110q0 50 40 92t94 42z" />
    <glyph glyph-name="quotedbl" unicode="&#x22;" horiz-adv-x="587" 
d="M606 1329l12 -16q-55 -225 -122 -434l-56 -29l-22 4q31 182 43 446zM362 1329l13 -16q-55 -225 -123 -434l-55 -29l-21 4q31 182 43 446z" />
    <glyph glyph-name="numbersign" unicode="#" horiz-adv-x="983" 
d="M442 743l-77 -225h102l106 -2l76 227l-131 2zM135 741l-4 21l39 76l211 -2l111 327l83 11l15 -13l-115 -327h103l102 -3l113 332l84 11l14 -13l-115 -330h211l6 -18l-47 -74l-205 2l-75 -225h208l7 -18l-45 -74l-201 2l-111 -338l-82 -16l-14 12l115 344l-135 2l-72 -2
l-113 -340l-84 -16l-12 12l115 344l-217 -2l-5 20l39 76l213 -2l76 223z" />
    <glyph glyph-name="dollar" unicode="$" horiz-adv-x="876" 
d="M324 776q0 -70 122 -149l5 -4l67 317q-84 -6 -139 -50t-55 -114zM616 252q0 80 -143 164l-76 -346q99 4 159 53t60 129zM778 315q0 -139 -110 -231t-289 -100l-62 -293l-55 -6l-8 14l59 283q-123 4 -237 53l-6 18q37 125 57 277l84 8q-10 -72 -10 -125t12 -82
q25 -53 121 -61l80 379q-184 102 -221 178q-18 39 -19 86q0 129 104 221t261 102l65 303l58 9l8 -19l-64 -291q117 -4 236 -41l4 -10q-41 -125 -70 -272l-74 -6l-10 8q16 66 17 114q0 98 -123 107l-76 -348q156 -86 212 -141t56 -134z" />
    <glyph glyph-name="percent" unicode="%" horiz-adv-x="1325" 
d="M1192 1350l10 -29q-356 -530 -536 -819l-441 -697l-78 39l-10 25q272 414 975 1520zM963 -25q-111 0 -179 77t-67 196q0 166 93 278t222 111q129 0 194 -78t64 -186q0 -160 -88 -279t-239 -119zM1008 502q-86 0 -140 -58t-53 -151q0 -92 52 -139q52 -48 126 -48t134 46
t61 146q0 100 -47 152t-133 52zM375 668q-111 0 -179 76t-67 196q0 166 93 278t222 112t194 -79q65 -78 64 -186q0 -161 -88 -279t-239 -118zM407 799q75 0 135 46t60 144q0 97 -48 151t-134 54t-139 -58t-53 -150t52 -140q52 -47 127 -47z" />
    <glyph glyph-name="ampersand" unicode="&#x26;" horiz-adv-x="1228" 
d="M190 483v-47q180 113 238 174q57 62 57 140t-83 78q-84 0 -148 -100q-64 -98 -64 -245zM631 815q0 -59 -29 -104l8 -4q385 276 430 571l11 10h39q45 -121 45 -176q-1 -29 -103 -153q-102 -125 -280 -255t-551 -348q29 -124 119 -192t236 -68t258 102t151 285l-107 17
q-33 0 -139 -119h-10l-47 41v10l167 189l33 10q38 0 186 -26q148 -25 182 -25t144 118h15l43 -41v-10l-166 -188l-33 -15l-156 23q-61 -213 -229 -352t-362 -139t-306 123q-112 124 -110 333q0 209 124 364t277 154q76 0 118 -38t42 -97z" />
    <glyph glyph-name="quotesingle" unicode="'" horiz-adv-x="346" 
d="M362 1329l13 -16q-55 -225 -123 -434l-55 -29l-21 4q31 182 43 446z" />
    <glyph glyph-name="parenleft" unicode="(" horiz-adv-x="608" 
d="M283 234q0 -168 58 -286t126 -165l27 -19v-10l-52 -53h-8q-4 2 -11 5q-39 17 -95 64t-81 90q-74 120 -87 193q-18 125 -18 177t8 104l43 354q25 205 111 341q86 137 174 203q87 66 161 97h10l21 -59l-4 -8q-28 -10 -90 -62t-104 -106q-42 -56 -83 -156t-55 -219l-43 -354
q-8 -71 -8 -131z" />
    <glyph glyph-name="parenright" unicode=")" horiz-adv-x="616" 
d="M342 791q0 179 -55 284q-74 135 -131 174l-27 17l2 10l49 53h8q4 -2 28 -11t80 -60q57 -50 82 -90q105 -172 105 -365q0 -55 -8 -107l-45 -354q-25 -205 -112 -341q-87 -137 -174 -203t-160 -97h-9l-20 59l2 9q29 10 90 61q61 50 103 106t84 156t57 219l43 355
q8 66 8 125z" />
    <glyph glyph-name="asterisk" unicode="*" horiz-adv-x="890" 
d="M627 1495q-23 -125 -60 -233l-69 -11l-13 9l-10 225q74 25 137 24zM866 1182q-111 -15 -241 -15l-29 60l2 16q84 27 211 80q45 -63 65 -123zM643 856q-57 115 -90 225l49 47l16 2q57 -82 140 -176q-45 -61 -96 -100zM264 969q90 90 187 155l59 -32l6 -15
q-57 -78 -123 -188q-74 25 -127 61zM254 1364q113 -59 205 -129l-13 -68l-12 -10l-217 60q0 78 19 139z" />
    <glyph glyph-name="plus" unicode="+" horiz-adv-x="995" 
d="M612 1024l19 -12q-43 -252 -64 -416l400 12l10 -20l-29 -105l-395 -2l-47 -397l-105 -23l-16 13q31 227 53 407l-387 -2l-10 19l35 100q207 -2 377 -2l51 412z" />
    <glyph glyph-name="comma" unicode="," horiz-adv-x="466" 
d="M188 203q46 0 77 -42q30 -42 30 -133q0 -90 -86 -186t-201 -164l-37 31v21q72 48 117 116t45 141t-65 134l4 29q70 53 116 53z" />
    <glyph glyph-name="hyphen" unicode="-" horiz-adv-x="636" 
d="M571 612l13 -18l-23 -111l-479 -53l-12 16l26 107l344 41z" />
    <glyph glyph-name="period" unicode="." horiz-adv-x="468" 
d="M206 219q110 0 108 -109q0 -51 -42 -93q-41 -42 -96 -42q-108 0 -106 110q0 50 41 92t95 42z" />
    <glyph glyph-name="slash" unicode="/" horiz-adv-x="647" 
d="M682 1382l12 -20q-268 -696 -600 -1587h-98l-12 16q150 360 264 672l338 919h96z" />
    <glyph glyph-name="zero" unicode="0" horiz-adv-x="1044" 
d="M504 131q150 0 256 113q106 114 106 276t-84 255t-234 93t-254 -114t-104 -277q0 -164 82 -255t232 -91zM438 -25q-170 0 -268 118t-98 313q0 266 160 447q161 181 391 181q166 0 265 -118t99 -308q0 -266 -160 -450t-389 -183z" />
    <glyph glyph-name="one" unicode="1" horiz-adv-x="696" 
d="M391 200q1 -70 19 -89q18 -20 65 -21l105 6l2 -8l-29 -94q-165 6 -259 6t-257 -25l22 95q111 10 151 54t54 179q61 494 62 520q0 63 -95 64l-106 -13l-4 7l18 86q53 0 428 67l8 -35q-43 -35 -61 -69t-33 -103q-90 -557 -90 -627z" />
    <glyph glyph-name="two" unicode="2" horiz-adv-x="933" 
d="M563 772q0 59 -34 92t-97 33t-135 -49t-125 -133h-18l-13 92q63 98 167 163q104 64 206 64t169 -58t67 -158t-98 -234q-98 -133 -400 -445l6 -14h293q109 0 154 35t88 151l84 11q-61 -172 -97 -322l-24 -14q-463 14 -633 14l-111 -25l-14 37l176 181q389 397 389 579z
" />
    <glyph glyph-name="three" unicode="3" horiz-adv-x="819" 
d="M143 -72q156 0 268 86t111 209q0 182 -323 185l-11 10v71l131 33q90 43 149 114q58 72 58 136t-38 98t-97 35q-121 0 -235 -104h-21l-10 86q217 147 335 147t180 -55t62 -146t-69 -177q-70 -85 -184 -142l-3 -10q238 -59 238 -230q0 -108 -94 -224t-236 -190t-270 -75
q-68 0 -90 31q-22 30 -21 64q0 34 2 54l13 13q79 -19 155 -19z" />
    <glyph glyph-name="four" unicode="4" horiz-adv-x="882" 
d="M512 752l-369 -459h330l57 459h-18zM629 1032l8 2l65 -20l-88 -721h183l10 -17l-31 -112q-72 2 -176 6l-29 -346l-12 -14l-147 -25l-11 18q35 211 58 371q-303 8 -484 8q2 12 9 38q6 26 8 38z" />
    <glyph glyph-name="five" unicode="5" horiz-adv-x="845" 
d="M696 289q0 -123 -103 -243t-249 -190t-270 -71q-61 0 -85 28q-24 29 -24 65t2 56l13 13q80 -18 157 -19q166 0 281 83t114 212q0 89 -85 143t-293 93l-15 22l94 500l19 16l375 17q57 4 85 19t48 61l69 8l-77 -242l-15 -12q-199 16 -426 16l-45 -264q202 -44 316 -116
t114 -195z" />
    <glyph glyph-name="six" unicode="6" horiz-adv-x="894" 
d="M456 584q-93 0 -204 -76q-23 -94 -23 -158q-1 -127 51 -202q52 -74 151 -74t165 76t66 186q-1 110 -57 179t-149 69zM518 705q143 1 222 -91t79 -213q0 -172 -129 -299t-315 -127q-143 1 -225 103t-82 250q0 280 145 471q145 190 316 287t257 126l41 13l13 -11l14 -61
q-66 -25 -152 -76t-154 -108t-146 -155q-77 -98 -119 -212l6 -4q174 107 229 107z" />
    <glyph glyph-name="seven" unicode="7" horiz-adv-x="827" 
d="M430 1010h416l39 -58q-180 -301 -559 -991l-72 -176h-14l-117 37l-14 45l610 1003l-336 -14q-98 -4 -135 -41t-70 -149l-80 -13q51 199 80 355l15 10q116 -8 237 -8z" />
    <glyph glyph-name="eight" unicode="8" horiz-adv-x="954" 
d="M543 1130q-81 0 -139 -59t-58 -140t64 -133t159 -108q145 84 146 252q0 90 -46 139t-126 49zM688 295q0 92 -66 146t-119 82q-52 28 -59 32q-209 -88 -208 -276q0 -89 58 -152t151 -63t168 69q75 70 75 162zM82 225q0 227 295 367q-182 110 -182 260q-1 150 117 262
t282 111q117 1 198 -63t80 -181q0 -207 -233 -328q199 -121 199 -281t-133 -279q-133 -118 -318 -118q-131 1 -218 67t-87 183z" />
    <glyph glyph-name="nine" unicode="9" horiz-adv-x="894" 
d="M450 426q92 0 207 76q20 88 21 155q0 127 -51 203t-149 76t-165 -77q-65 -77 -65 -188t55 -178t147 -67zM391 305q-145 0 -223 91t-78 212q0 172 129 299t316 127q143 0 225 -102t82 -250q0 -281 -146 -472q-146 -190 -317 -287q-170 -97 -256 -124l-41 -14l-12 10
l-17 62q165 62 307 182q70 57 147 155t118 212l-7 6q-170 -107 -227 -107z" />
    <glyph glyph-name="colon" unicode=":" horiz-adv-x="466" 
d="M267 793q108 0 108 -109q0 -51 -41 -93t-96 -42q-107 0 -107 109q0 50 41 92t95 43zM198 219q110 0 108 -109q0 -51 -42 -93q-41 -42 -96 -42q-107 0 -107 110q0 50 41 92q42 42 96 42z" />
    <glyph glyph-name="semicolon" unicode=";" horiz-adv-x="466" 
d="M267 793q108 0 108 -109q0 -51 -41 -93t-96 -42q-107 0 -107 109q0 50 41 92t95 43zM178 203q47 0 77 -42t30 -133q0 -90 -86 -186t-201 -164l-37 31v21q72 48 117 116t45 141t-66 134l4 29q70 53 117 53z" />
    <glyph glyph-name="less" unicode="&#x3c;" horiz-adv-x="991" 
d="M82 489l-14 23l16 96l420 176l411 166l17 -10l4 -102q-229 -80 -399 -150l-314 -123l-2 -12l309 -143l334 -162v-23l-71 -82q-193 102 -344 174z" />
    <glyph glyph-name="equal" unicode="=" horiz-adv-x="995" 
d="M987 772l10 -20l-28 -105l-897 -4l-11 19l35 100q293 -2 469 -2zM948 451l8 -21l-28 -104l-897 -4l-8 18l32 100q295 -2 469 -2z" />
    <glyph glyph-name="greater" unicode="&#x3e;" horiz-adv-x="991" 
d="M934 604l12 -22l-16 -97l-418 -176l-414 -166l-16 11l-4 102q229 80 399 150l314 122l2 13l-310 143l-333 162v22l71 82q193 -102 344 -174z" />
    <glyph glyph-name="question" unicode="?" horiz-adv-x="708" 
d="M259 219q108 0 108 -109q0 -53 -40 -94t-96 -41q-106 0 -106 110q0 50 40 92t94 42zM586 1047q0 211 -367 235l-2 23l80 108l29 8q172 -6 288 -94t117 -224q0 -136 -84 -222q-47 -45 -81 -72t-108 -72t-106 -65l-8 -19l16 -194l-8 -17l-129 -34l-16 8l-17 246l9 28
l252 156q135 86 135 201z" />
    <glyph glyph-name="at" unicode="@" horiz-adv-x="1640" 
d="M616 141q55 0 176 178q120 178 234 445q-111 68 -208 68t-179 -146q-82 -145 -82 -332q0 -86 17 -150t42 -63zM414 274q0 148 72 310t180 260q109 98 217 98l204 -33l19 52l10 2l64 -31l16 -25q-119 -408 -172 -788l8 -8q217 0 331 125t114 337q0 266 -164 417t-454 151
t-477 -210t-187 -518q0 -309 181 -521t542 -232v-14l-54 -74q-385 18 -600 248t-215 565q0 168 63 325q131 333 450 473q167 73 362 72q306 0 500 -181t194 -449t-176 -459t-484 -191q-74 0 -73 60q0 23 88 426l-12 4q-184 -350 -383 -490q-164 0 -164 299z" />
    <glyph glyph-name="A" unicode="A" horiz-adv-x="1130" 
d="M541 555q96 0 186 12l-90 547h-14l-256 -559h174zM572 481q-122 0 -253 -16l-100 -221q-29 -59 -29 -94q0 -74 109 -74h115v-6l-21 -84q-139 14 -270 14l-215 -6l26 92q59 6 98 40q38 34 79 120l507 1046l115 35l17 2q90 -629 184 -1102q14 -77 50 -107t122 -40l4 -6
l-23 -80q-141 6 -240 6t-259 -20l-4 14l16 74q113 8 151 28t37 74q0 27 -45 309q-49 2 -171 2z" />
    <glyph glyph-name="B" unicode="B" horiz-adv-x="1169" 
d="M895 1006q0 227 -320 227q-20 0 -28 -9t-15 -38q-61 -377 -75 -471q188 -16 211 -15t72 28q50 28 78 58t52 90q24 58 25 130zM383 199q0 -61 44 -93t172 -30q128 0 208 80t80 213q0 207 -240 249l-205 -4q-59 -401 -59 -415zM369 1162q1 24 -9 41t-55 18l-65 -4l-4 8
l24 84q139 -6 213 -6l209 8q172 0 271 -71q99 -72 99 -194t-72 -214q-73 -92 -200 -146q129 -28 201 -104t72 -181q-1 -165 -149 -293t-341 -128l-280 20q-88 0 -224 -25l21 88q96 19 132 55t46 124q111 896 111 920z" />
    <glyph glyph-name="C" unicode="C" horiz-adv-x="1236" 
d="M626 -25q-238 -1 -386 147q-147 148 -148 396q0 344 219 576t543 233q135 0 354 -47l6 -12q-57 -152 -92 -336l-88 -8q18 80 19 120q0 172 -269 173q-227 1 -370 -177t-144 -462q0 -234 104 -372t285 -138q266 0 381 327l88 8q-63 -184 -94 -327l-12 -19
q-158 -82 -396 -82z" />
    <glyph glyph-name="D" unicode="D" horiz-adv-x="1382" 
d="M610 1221q-41 1 -55 -9t-18 -36q-145 -909 -145 -976t49 -98q50 -31 184 -30q242 0 389 182t147 475q0 236 -141 364q-142 128 -410 128zM292 0q-92 0 -235 -25l23 88q94 19 131 55t47 122q111 898 111 922q1 24 -9 41t-53 18l-69 -4l-2 8l22 84q129 -6 205 -6l278 8
q264 0 430 -151t166 -377t-101 -409t-274 -291t-376 -108q-202 25 -294 25z" />
    <glyph glyph-name="E" unicode="E" horiz-adv-x="1161" 
d="M379 159q0 -47 29 -61q30 -14 138 -14t171 6t111 36t68 74q19 44 44 136l84 10l4 -10q-57 -168 -96 -340l-10 -10q-408 14 -566 14t-297 -20l23 88q90 12 127 48t47 124q113 898 113 922q1 24 -9 41t-55 18l-67 -4l-2 6l22 86q152 -6 419 -6t441 24l4 -10
q-51 -147 -86 -336l-90 -8q18 80 19 140q-1 59 -53 77t-194 18t-164 -11t-30 -69l-63 -407l203 -2l241 22l6 -8l-41 -115q-168 6 -260 6t-168 -14q-12 -84 -38 -244t-25 -207z" />
    <glyph glyph-name="F" unicode="F" horiz-adv-x="1003" 
d="M381 164q0 -28 12 -56q12 -26 62 -26l141 6l2 -8l-27 -88q-185 8 -281 8t-231 -25l21 88q94 19 130 55t46 122q113 898 113 922q1 24 -9 41t-55 18l-67 -4l-2 6l22 86q152 -6 402 -6t421 24l4 -10q-53 -154 -88 -342l-88 -8q18 86 19 147q0 62 -47 78t-176 16t-151 -11
t-30 -69l-67 -442l202 -2l209 23l4 -9l-38 -116q-152 6 -234 6t-164 -15q-55 -381 -55 -409z" />
    <glyph glyph-name="G" unicode="G" horiz-adv-x="1310" 
d="M629 -25q-242 -1 -389 147t-148 396q0 344 219 576t543 233q135 0 354 -47l6 -12q-57 -152 -92 -336l-88 -8q18 80 19 120q0 172 -269 173q-227 1 -370 -177t-144 -462q0 -234 104 -372t285 -138q72 0 142 19t102 40l33 20q33 279 33 307q1 28 -15 45t-84 17h-137l-2 8
l29 97h6l190 -9h52l170 11l2 -41q-61 -41 -86 -198t-25 -234l2 -62l-12 -16q-78 -39 -199 -68t-231 -29z" />
    <glyph glyph-name="H" unicode="H" horiz-adv-x="1480" 
d="M1143 1165q0 19 -10 37t-54 19l-67 -4l-4 6l26 88q122 -8 194 -8t228 20l-16 -88q-76 -10 -105 -34t-39 -83q-139 -850 -139 -922q1 -72 17 -92t57 -20l90 6q2 -2 -27 -96q-158 6 -243 6h-64q-68 0 -153 -4l26 88q92 2 127 44t51 177l37 316q-211 2 -303 2l-332 -23
q-55 -395 -55 -427t2 -50q4 -37 70 -37l90 6l2 -8l-29 -90q0 6 -124 6t-230 -8t-109 -17l23 88q110 23 142 68t44 178q102 829 103 853t-9 41t-55 18l-65 -4l-4 6l24 88q141 -8 216 -8t206 20l-16 -88q-88 -14 -113 -45t-41 -143l-53 -336l334 -2q127 0 297 20
q53 416 53 436z" />
    <glyph glyph-name="I" unicode="I" horiz-adv-x="708" 
d="M475 1303q82 0 225 20l-20 -88q-84 -10 -116 -35t-40 -82q-143 -831 -143 -944q0 -48 17 -68t59 -20l104 6l4 -8l-28 -90q-161 6 -253 6t-231 -25l25 88q94 17 132 55t48 124q111 894 111 918q-1 24 -11 42t-53 19l-84 -4q-2 4 -2 6l25 88h8l186 -8h37z" />
    <glyph glyph-name="J" unicode="J" horiz-adv-x="641" 
d="M348 1160q0 24 -10 41t-53 18l-97 -9v7l23 86h211l225 18l-16 -86q-71 -10 -95 -32t-34 -85q-63 -377 -133 -876q-27 -209 -116 -336t-261 -199l-25 66l6 16q129 74 184 168q53 94 76 276q115 903 115 927z" />
    <glyph glyph-name="K" unicode="K" horiz-adv-x="1230" 
d="M979 1169q0 49 -117 58l-4 8l25 84q139 -16 213 -16l178 8l4 -13l-21 -79q-53 -10 -100 -42t-147 -126l-365 -357l279 -452q61 -96 112 -136t119 -38l6 -7l-18 -65q-141 -25 -162 -25q-96 0 -199 176l-286 498l4 27l405 387q74 71 74 110zM369 1162q1 24 -9 41t-55 18
l-65 -4l-4 6l24 88q139 -8 215 -8t207 20l-16 -88q-76 -10 -107 -37t-41 -86l-133 -889q-6 -35 -6 -63t12 -52q12 -22 66 -22l90 6l4 -8l-31 -90q-152 6 -239 6l-224 -2l31 88q94 10 127 39t43 117q111 896 111 920z" />
    <glyph glyph-name="L" unicode="L" horiz-adv-x="993" 
d="M366 0q-158 0 -288 -20l24 88q78 12 111 49t43 123q113 896 113 920q-1 24 -11 42t-53 19l-67 -4q-2 4 -2 6l24 88q147 -8 219 -8t203 20l-16 -86q-86 -14 -108 -42q-22 -27 -50 -179t-76 -466q-47 -314 -47 -370t30 -76t126 -20q174 0 235 50t115 239l86 8l2 -8
q-57 -182 -105 -381l-10 -10q-340 18 -498 18z" />
    <glyph glyph-name="M" unicode="M" horiz-adv-x="1665" 
d="M1389 276q0 -120 13 -156t60 -36l56 4q0 -2 2 -6l-29 -88q-113 6 -187 6t-198 -16l18 88q117 14 129 102l43 909h-10q-193 -422 -520 -1110l-43 -12q-156 692 -250 1122h-8q-182 -907 -182 -953t53 -46l82 2q2 -4 2 -6l-29 -88q-123 8 -191 8t-165 -16l22 88q61 10 94 44
q32 34 45 95t102 476t89 450q0 90 -160 102l-4 8l23 66q150 -10 211 -10l129 8q98 -545 225 -1037h8q203 430 459 1035q4 2 40 -2t83 -4l215 12l2 -8l-19 -70q-87 -10 -125 -36t-43 -80t-23 -389t-19 -456z" />
    <glyph glyph-name="N" unicode="N" horiz-adv-x="1411" 
d="M1124 1219h-22l-37 -2h-14l-4 8l28 86q117 -8 191 -8t186 18l-20 -90q-135 -18 -152 -129l-168 -1159l-51 -29q-297 602 -600 1155h-8l-123 -903q-6 -44 5 -62t46 -18h100l4 -6l-28 -88q-119 8 -205 8l-182 -16l22 88q121 14 137 129q139 918 140 946q0 70 -160 86l-2 10
l22 70q113 -10 166 -10l127 8q256 -516 543 -1037h8q106 864 107 875q0 70 -56 70z" />
    <glyph glyph-name="O" unicode="O" horiz-adv-x="1361" 
d="M586 -25q-219 0 -357 152q-137 152 -137 393q0 332 212 570t509 237q223 0 365 -152q141 -153 141 -393q0 -334 -216 -570t-517 -237zM637 72q217 0 360 179t144 431t-105 392t-282 140q-210 0 -352 -181t-142 -431t104 -390t273 -140z" />
    <glyph glyph-name="P" unicode="P" horiz-adv-x="1081" 
d="M936 947q0 145 -83 209t-259 65q-39 0 -45 -4q-6 -5 -32 -133t-73 -468l205 -30q139 23 213 119t74 242zM375 147q0 -63 80 -63l108 8l2 -8l-28 -90q0 6 -128 6q-127 0 -231 -6t-108 -10l24 88q90 16 122 49t42 119q111 896 111 920q-1 24 -11 42t-53 19l-65 -4l-4 8
l24 86h6l174 -8h35l225 8q186 0 290 -80t106 -230q0 -193 -148 -345t-336 -152h-188q-49 -334 -49 -357z" />
    <glyph glyph-name="Q" unicode="Q" horiz-adv-x="1372" 
d="M637 72q217 0 360 179t144 431t-105 392t-282 140q-210 0 -352 -181t-142 -431t104 -390t273 -140zM1311 -438q-143 0 -277 76t-446 337h-2q-219 0 -357 152q-137 152 -137 393q0 332 212 570t509 237q223 0 365 -152q141 -153 141 -413t-159 -478t-400 -284v-12
q192 -152 323 -214t231 -62t179 20l8 -4l6 -31q-160 -135 -196 -135z" />
    <glyph glyph-name="R" unicode="R" horiz-adv-x="1198" 
d="M575 1233q-18 0 -26 -8q-31 -37 -96 -553l200 -21q-47 -46 -86 -86h-133q-12 -88 -21 -156q-141 -145 -3 -18q-27 -200 -27 -233t10 -49q23 -29 117 -29l2 -6l-27 -82q-113 4 -204 6l-224 -6l29 88q94 10 128 41t44 119q111 896 111 920q-1 24 -11 42t-53 19l-65 -4l-4 8
l24 86q141 -8 215 -8l219 8q168 0 272 -77t103 -209q0 -132 -82 -244t-239 -181l174 -364q49 -98 97 -136t128 -39l6 -6l-18 -65l-166 -23q-49 0 -99 53q-49 53 -86 142l-163 403h-23q53 50 117 111q186 109 192 319q0 238 -332 238zM567 565h31q-123 -116 -188 -174
q1 9 3 18q55 57 154 156z" />
    <glyph glyph-name="S" unicode="S" horiz-adv-x="1038" 
d="M393 -25q-169 0 -319 68l-8 20q45 154 69 357l84 10q-10 -94 -10 -175t22 -122q39 -67 187 -67t235 70q86 70 86 179q0 74 -55 130q-56 55 -196 139t-191 133q-98 94 -100 205q0 168 137 286t338 119q156 0 311 -49l4 -10q-49 -158 -84 -346l-74 -9l-10 11q23 90 23 162
t-48 107q-48 34 -166 34q-118 -1 -199 -63t-81 -160t150 -205q35 -23 138 -85t171 -118q98 -82 98 -197q1 -182 -143 -303t-369 -121z" />
    <glyph glyph-name="T" unicode="T" horiz-adv-x="1071" 
d="M1112 1094v-117l-90 -8q-2 73 -3 105t-14 68t-25 46t-55 23q-42 13 -81 15t-125 7q-31 -145 -95 -566t-65 -477q0 -56 23 -82q23 -24 73 -24l113 6l4 -8l-29 -88q-193 6 -286 6l-264 -8l24 82q139 14 174 53t55 205l109 901q-94 -4 -135 -6q-41 -3 -90 -15
q-50 -12 -64 -22t-37 -46t-31 -66t-26 -101l-90 -8q45 174 72 344l20 14l156 -22h610l168 22l16 -14q-12 -141 -12 -219z" />
    <glyph glyph-name="U" unicode="U" horiz-adv-x="1341" 
d="M358 414q0 -330 298 -330q153 0 250 91t118 265q74 680 74 714t-9 50t-53 17l-88 -4v8l23 84q145 -6 219 -6t192 20l-20 -88q-88 -10 -115 -32t-35 -85l-86 -696q-27 -211 -168 -329t-372 -118q-184 1 -282 97t-97 268q0 47 47 422q47 376 47 400t-10 41t-55 18l-68 -4
l-2 8l24 84q143 -6 218 -6t206 20l-18 -88q-74 -10 -102 -34t-39 -83l-90 -602q-7 -55 -7 -102z" />
    <glyph glyph-name="V" unicode="V" horiz-adv-x="1196" 
d="M338 1303q78 0 285 24l4 -14l-19 -76q-118 -7 -152 -25t-34 -61q0 -88 135 -961h16q29 61 118 239q331 665 331 724q0 74 -127 74h-104l-5 8l23 84q150 -16 278 -16l218 8l-27 -92q-61 -3 -88 -21t-57 -78l-549 -1110l-119 -45q-111 588 -215 1137q-20 115 -170 117l-2 8
l24 82q158 -6 236 -6z" />
    <glyph glyph-name="W" unicode="W" horiz-adv-x="1828" 
d="M1005 1303q83 0 267 24l2 -14l-17 -76q-119 -7 -151 -25t-33 -63q0 -90 131 -959h13q25 53 122 258t208 442q110 236 110 273q0 63 -127 64h-98l-5 8l25 84q145 -16 270 -16l207 8l-24 -92q-57 -3 -84 -21t-56 -78l-553 -1110l-116 -45l-140 885h-12l-387 -840l-121 -45
q-88 590 -188 1137q-20 115 -162 117l-4 8l22 82q156 -6 248 -6t256 24l4 -14l-14 -76q-117 -7 -151 -25q-33 -18 -33 -86t129 -936h12q6 14 379 793q-8 20 -23 115q-25 115 -166 121l-2 8l25 82q154 -6 237 -6z" />
    <glyph glyph-name="X" unicode="X" horiz-adv-x="1284" 
d="M840 152q0 25 -29 86l-170 344l-221 -256q-78 -90 -102 -127t-23 -68q0 -47 106 -55l5 -6l-25 -84q-139 14 -213 14l-191 -8l-6 14l21 78q86 26 162 90t194 195l252 278l-211 412q-76 147 -250 170v8l19 74q196 -8 314 -8t233 18l4 -14l-15 -68q-166 -12 -166 -76
q0 -47 172 -397q23 29 121 141q197 225 197 273q0 43 -109 55l-2 8l19 76q147 -16 215 -16l188 8l6 -13l-20 -71q-84 -15 -135 -55t-158 -156l-281 -316l238 -446q43 -82 100 -122t150 -48l-23 -90q-152 6 -241 6l-303 -16l-5 14l17 74q166 8 166 80z" />
    <glyph glyph-name="Y" unicode="Y" horiz-adv-x="1048" 
d="M399 1163q0 -72 158 -540h8l285 446q43 66 43 109q0 49 -117 57l-4 8l23 76q147 -16 213 -16l182 8l6 -13l-22 -71q-92 -17 -134 -55t-94 -117q-322 -479 -326 -489t-12 -34q-8 -23 -15 -41t-15 -102q-29 -188 -29 -224t6 -50q12 -31 66 -31l96 6l4 -8l-29 -88
q-160 6 -246 6t-221 -25l23 88q104 23 136 65t44 160t12 180t-30 148q-154 444 -159 458t-14 39q-9 26 -15 32q-5 6 -15 22q-11 17 -19 21t-21 14t-29 13t-34 7t-43 7l-4 8l23 74q121 -8 225 -8t266 18l4 -14l-16 -68q-98 -9 -129 -25t-31 -51z" />
    <glyph glyph-name="Z" unicode="Z" horiz-adv-x="1114" 
d="M915 27l-32 -33l-705 12l-141 -12l-17 63l879 1164l-348 -13q-135 -2 -201 -64t-100 -220l-90 -9q57 207 84 394l22 18l342 -22l500 -15l14 -57q-436 -516 -905 -1159l408 14q102 2 175 84t128 258l88 10q-68 -218 -101 -413z" />
    <glyph glyph-name="bracketleft" unicode="[" horiz-adv-x="608" 
d="M459 -281l-359 23q90 565 117 770l74 776l366 23l9 -13l-21 -63l-229 -49l-164 -1342l221 -49l6 -14z" />
    <glyph glyph-name="backslash" unicode="\" horiz-adv-x="647" 
d="M182 1362l19 20h94l113 -919l98 -672l-14 -16h-101q-74 592 -209 1587z" />
    <glyph glyph-name="bracketright" unicode="]" horiz-adv-x="608" 
d="M166 1311l358 -23q-90 -565 -116 -770l-74 -776l-369 -23l-6 13l21 63l229 49l164 1342l-221 49l-7 14z" />
    <glyph glyph-name="asciicircum" unicode="^" horiz-adv-x="993" 
d="M598 985l20 -16q78 -285 234 -791l-88 -61l-23 2q-109 369 -202 715h-13l-348 -713l-100 14l-6 19q109 225 209 411l219 416z" />
    <glyph glyph-name="underscore" unicode="_" horiz-adv-x="899" 
d="M403 -178q139 0 279 5t143 7l9 -20l-29 -105l-897 -4l-10 19l34 100h117l238 -2h116z" />
    <glyph glyph-name="grave" unicode="`" 
d="M236 1352l-3 22l78 84l21 4q160 -193 307 -352l-41 -39l-18 -4q-137 127 -344 285z" />
    <glyph glyph-name="a" unicode="a" horiz-adv-x="993" 
d="M481 440q70 0 144 9l-70 403h-14l-195 -412h135zM291 72h88v-6l-17 -76q-119 10 -225 10l-182 -4l22 82q45 4 76 30t62 89l403 813l137 28l15 -2q78 -510 151 -848q12 -61 40 -85t93 -29l4 -6l-18 -72q-120 4 -194 4t-232 -14l-4 10l14 70q90 6 119 21t29 45t-33 228
l-164 2q-68 0 -172 -12l-74 -157q-23 -43 -22 -68q0 -53 84 -53z" />
    <glyph glyph-name="b" unicode="b" horiz-adv-x="1019" 
d="M756 778q0 166 -248 166q-18 0 -28 -10t-64 -367q145 -14 167 -13t56 23q117 71 117 201zM358 168q0 -45 35 -68q35 -22 134 -22t161 57q61 57 62 154q0 152 -185 184l-164 -4q-43 -291 -43 -301zM311 896q0 18 -7 32t-42 14l-53 -2l-6 8l22 76q127 -6 187 -6l188 8
q145 0 228 -56t83 -159q0 -178 -217 -274q102 -25 160 -83t59 -139q1 -137 -121 -234t-292 -97l-236 16q-86 0 -196 -18l18 79q76 14 104 42t37 96q84 680 84 697z" />
    <glyph glyph-name="c" unicode="c" horiz-adv-x="1054" 
d="M536 -18q-198 0 -319 116t-121 312q0 274 175 451t446 177q127 0 299 -39l6 -12q-47 -123 -76 -274l-94 -8q14 68 14 98q0 129 -207 129q-173 0 -281 -131t-108 -328t79 -297t218 -100q205 0 291 246l94 8q-49 -152 -73 -269l-13 -16q-132 -63 -330 -63z" />
    <glyph glyph-name="d" unicode="d" horiz-adv-x="1175" 
d="M532 936q-31 0 -42 -7t-15 -30q-113 -651 -113 -716t38 -87t139 -20q186 0 299 137t112 362q0 176 -106 269q-107 92 -312 92zM259 0q-85 0 -191 -18l18 81q78 14 107 41t36 95q82 678 82 697q0 18 -7 32t-40 14l-57 -2l-2 8l20 76q115 -6 176 -6l234 8q217 0 353 -116
t136 -306q0 -260 -180 -441t-436 -181q-164 18 -249 18z" />
    <glyph glyph-name="e" unicode="e" horiz-adv-x="999" 
d="M541 477q-72 0 -140 -10q-7 -61 -27 -171t-20 -150t23 -51t92 -11q182 0 236 32q53 32 88 160l86 9l4 -11q-45 -135 -78 -274l-10 -10q-325 10 -465 10t-262 -16l20 82q72 8 100 36t39 99q84 676 84 695q0 18 -7 32t-42 14l-53 -2l-4 8l20 76q137 -6 357 -6t370 20l4 -10
q-41 -125 -69 -272l-92 -6q14 59 14 105t-42 59q-42 14 -151 14t-126 -9t-23 -51l-49 -297l162 -2l196 17l6 -8l-34 -105q-135 4 -207 4z" />
    <glyph glyph-name="f" unicode="f" horiz-adv-x="878" 
d="M356 145q0 -63 62 -63l112 6l5 -10l-23 -84q-158 6 -248 6t-196 -18l18 79q76 14 104 42t37 98q84 676 84 695q0 18 -7 32t-42 14l-53 -2l-4 8l20 76q137 -6 344 -6t351 20l6 -10q-43 -129 -72 -276l-90 -7q14 63 14 109t-37 60t-135 14t-116 -9t-23 -51l-51 -325h162
l172 16l4 -10l-33 -105q-123 4 -187 4t-137 -10q-41 -281 -41 -293z" />
    <glyph glyph-name="g" unicode="g" horiz-adv-x="1116" 
d="M848 489q143 0 143 9l2 -41q-53 -33 -72 -158t-20 -182l2 -49l-12 -15q-147 -71 -352 -71t-325 114t-120 310q0 272 177 452t446 180q127 0 299 -39l6 -12q-47 -119 -78 -268l-90 -8q14 63 14 96q0 127 -209 127q-175 0 -285 -132t-110 -353q0 -173 80 -275t206 -102
t226 57q25 205 25 225q-1 20 -13 34t-63 13h-107l-4 9l27 84h6l45 -2h33l82 -3h41z" />
    <glyph glyph-name="h" unicode="h" horiz-adv-x="1257" 
d="M944 901q0 13 -8 27t-45 14l-53 -2l-4 8l20 76q0 -6 172 -6l201 16l-15 -80q-63 -8 -86 -26t-30 -64q-106 -635 -106 -695q0 -59 12 -75q13 -16 47 -16l69 4q2 -4 2 -6l-22 -80q-125 4 -201 4h-55l-121 -2h-23l23 78q73 2 101 34t40 132l29 233h-229l-263 -16
q-41 -289 -41 -335t58 -46l71 4q2 -4 2 -6l-24 -80q-90 4 -156 4q-65 0 -153 -6t-90 -12l20 79q86 17 112 51t35 132q78 635 78 653q0 17 -7 31t-44 14l-51 -2l-6 8l22 76q119 -6 181 -6l188 16l-14 -82q-70 -8 -90 -31q-19 -24 -33 -106l-41 -250l258 -2q106 0 229 15
q41 309 41 323z" />
    <glyph glyph-name="i" unicode="i" horiz-adv-x="628" 
d="M356 145q0 -68 60 -67l82 4l4 -6l-25 -80q-141 4 -221 4t-193 -18l21 79q76 14 106 43t37 95q84 680 84 697q0 18 -7 32t-44 14l-65 -2q-2 6 -2 8l20 76l199 -6l196 16l-18 -82q-66 -8 -90 -25t-33 -63q-111 -625 -111 -719z" />
    <glyph glyph-name="j" unicode="j" horiz-adv-x="573" 
d="M295 896q0 18 -7 32t-42 14l-78 -6l-2 8l20 74l181 2l200 12l-16 -80q-57 -8 -75 -23t-27 -65q-63 -371 -105 -684q-20 -162 -98 -260t-230 -153l-24 55l4 14q106 59 150 132t63 218q86 692 86 710z" />
    <glyph glyph-name="k" unicode="k" horiz-adv-x="1069" 
d="M821 905q0 35 -92 41l-4 8l20 76q121 -12 183 -12l157 8l5 -12l-19 -72q-45 -12 -86 -40t-121 -101l-272 -256l215 -342q47 -74 88 -105t96 -32l6 -9l-16 -61q-127 -18 -147 -19q-84 0 -164 136l-228 391l4 24l316 287q59 55 59 90zM311 897q0 17 -7 31t-44 14l-51 -2
l-6 8l22 76q129 -6 187 -6l184 16l-16 -82q-61 -8 -86 -28t-33 -66l-103 -672q-4 -24 -4 -48t10 -42t52 -18l71 4l5 -6l-25 -80q-135 4 -207 4l-194 -2l26 78q76 10 102 32t33 91q84 680 84 698z" />
    <glyph glyph-name="l" unicode="l" horiz-adv-x="872" 
d="M358 156q0 -42 24 -56q24 -16 127 -16t153 41q49 41 90 188l88 11q0 -6 4 -11q-47 -152 -86 -317l-10 -10q-274 14 -412 14t-256 -16l22 82q63 10 91 37q27 28 34 98q84 676 84 695q0 18 -8 32t-43 14l-53 -2l-4 8l20 76l191 -6l188 16l-16 -82q-74 -10 -92 -30t-41 -136
t-59 -352t-36 -278z" />
    <glyph glyph-name="m" unicode="m" horiz-adv-x="1409" 
d="M1260 -4q-92 4 -149 4t-110 -5t-79 -7l18 80q92 12 104 79l31 658h-10q-276 -567 -399 -823l-56 -11q-66 281 -196 834h-11q-133 -657 -133 -692t45 -35h64l4 -4l-27 -80q-111 6 -163 6l-144 -12l19 80q50 6 76 32t37 75q148 671 149 706q0 66 -127 73l-4 9l18 63
q129 -8 182 -8l123 8q68 -358 174 -764h9q158 326 350 760q11 2 47 0t78 -2l174 8q2 -4 2 -6l-17 -68q-69 -8 -99 -26t-34 -60q-23 -193 -30 -639v-55q0 -41 10 -69t51 -27l45 2l2 -6z" />
    <glyph glyph-name="n" unicode="n" horiz-adv-x="1208" 
d="M979 889q0 53 -47 53l-60 -2l-4 8l25 78q106 -8 164 -8l168 14l-17 -82q-109 -14 -123 -100l-131 -887l-73 -22q-223 426 -469 841h-11l-88 -639q-4 -37 6 -51t39 -14h78l6 -6l-24 -78q-109 6 -178 6l-164 -12l20 80q100 12 111 100q109 692 108 715q0 55 -129 67
q-4 8 -4 11l19 65q96 -8 149 -8l117 8q195 -371 426 -764h8q78 619 78 627z" />
    <glyph glyph-name="o" unicode="o" horiz-adv-x="1155" 
d="M508 -18q-184 0 -298 118t-114 310q0 266 170 447t418 181q188 0 304 -118t116 -310q0 -266 -173 -447t-423 -181zM551 76q166 0 272 134t107 349q0 168 -81 269q-81 102 -229 102t-252 -135q-106 -135 -106 -327t79 -292t210 -100z" />
    <glyph glyph-name="p" unicode="p" horiz-adv-x="944" 
d="M784 743q0 193 -264 193q-31 0 -37 -2q-16 -12 -77 -447l159 -22q219 36 219 278zM316 0q-58 0 -148 -4t-92 -8l20 80q72 12 98 38t33 93q84 678 84 696q0 19 -7 33t-42 14l-53 -2l-6 8l22 76q98 -6 183 -6l196 8q162 0 250 -68t88 -182q0 -154 -122 -274t-279 -119h-154
q-35 -240 -35 -258q0 -47 66 -47l86 4q2 -4 2 -6l-25 -80q-107 4 -165 4z" />
    <glyph glyph-name="q" unicode="q" horiz-adv-x="1163" 
d="M551 76q166 0 272 134t107 349q0 168 -81 269q-81 102 -229 102t-252 -135q-106 -135 -106 -327t79 -292t210 -100zM1108 -209q82 0 147 16l9 -6l6 -37q-143 -113 -178 -112q-116 0 -222 60t-362 270q-184 0 -298 118t-114 310q0 266 170 447t418 181q188 0 304 -118
t116 -323q0 -206 -122 -372t-314 -221v-8q272 -205 440 -205z" />
    <glyph glyph-name="r" unicode="r" horiz-adv-x="1042" 
d="M766 768q0 176 -260 176q-14 0 -23 -6q-20 -23 -71 -408l159 -16q86 35 113 64q26 30 54 68t28 122zM358 140q0 -30 14 -47t91 -19l2 -6l-23 -74q-106 4 -180 4l-196 -6l24 82q76 8 103 32t34 93q84 680 84 698q0 17 -7 31t-42 14l-53 -2l-6 8l22 76q121 -6 183 -6l192 8
q146 0 236 -61t90 -166q0 -223 -258 -334l135 -266q39 -76 79 -107t101 -31l6 -8l-16 -61l-150 -17q-90 0 -155 150l-127 305h-146q-37 -260 -37 -290z" />
    <glyph glyph-name="s" unicode="s" horiz-adv-x="901" 
d="M346 -18q-139 0 -237 38l-33 15l-6 18q37 125 57 277l84 8q-8 -68 -8 -127t18 -90q33 -51 148 -51t181 49t66 117t-45 110t-165 108q-120 67 -177 124q-55 57 -55 135q0 137 117 231t269 94t282 -41l4 -10q-41 -125 -70 -272l-74 -6l-10 8q16 66 17 119q0 52 -38 78
t-130 26q-93 0 -155 -45t-62 -117t122 -151q27 -16 105 -58t153 -102q74 -59 74 -152q0 -145 -121 -239t-311 -94z" />
    <glyph glyph-name="t" unicode="t" horiz-adv-x="933" 
d="M506 160q0 -82 80 -82l90 4l4 -6l-25 -82q-166 6 -245 6l-232 -8l21 78q115 10 143 40t43 150l84 682q-160 -4 -197 -20q-55 -27 -96 -181l-90 -8q37 152 57 291l19 14l135 -18h502l145 18l14 -14l-12 -283l-90 -8q-2 149 -37 177t-192 32q-23 -109 -72 -421t-49 -361z
" />
    <glyph glyph-name="u" unicode="u" horiz-adv-x="1134" 
d="M336 319q0 -115 56 -175t163 -60q258 0 287 256q59 528 59 552t-8 37t-41 13l-68 -2l-2 6l21 78q121 -6 182 -6l168 14l-18 -80q-70 -10 -92 -25t-27 -63l-66 -528q-20 -170 -136 -262t-290 -92q-342 0 -338 286q-2 29 35 314q37 284 37 308t-8 38t-43 14l-55 -2l-2 6
l22 78q123 -6 190 -6l177 14l-17 -80q-59 -8 -82 -26t-30 -64l-70 -467q-4 -27 -4 -76z" />
    <glyph glyph-name="v" unicode="v" horiz-adv-x="1034" 
d="M387 883q0 -86 105 -717h16q342 684 342 732t-96 48h-80l-4 8l18 76q127 -12 232 -12l180 6l-23 -82q-47 -2 -67 -16t-45 -62l-430 -856l-144 -35q-90 485 -170 875q-18 92 -133 94l-2 8l20 74q131 -6 189 -6l252 18l4 -12l-16 -70q-92 -6 -120 -20t-28 -51z" />
    <glyph glyph-name="w" unicode="w" horiz-adv-x="1560" 
d="M308 1018q72 0 227 18l4 -12l-15 -70q-90 -6 -118 -20t-27 -53q0 -84 98 -715h15l290 606l-14 82q-16 86 -131 88l-2 8l20 74q131 -6 197 -6t235 18l5 -12l-17 -70q-92 -8 -119 -21t-26 -50q0 -86 100 -717h14q18 40 72 152t92 191q36 79 104 223t68 169q0 45 -96 45h-76
l-4 8l21 76q123 -12 223 -12l174 6l-20 -82q-45 -4 -67 -18t-44 -60l-430 -856l-139 -35l-107 656h-10l-293 -621l-141 -35q-76 485 -152 875q-18 92 -127 94l-4 8l21 74q127 -6 199 -6z" />
    <glyph glyph-name="x" unicode="x" horiz-adv-x="1112" 
d="M705 127q0 18 -25 63l-133 248q-223 -248 -241 -274t-19 -49q0 -37 84 -43l4 -6l-21 -76q-123 10 -182 10l-164 -6l-6 12l18 72q66 18 127 68t156 151l201 215l-168 301q-59 113 -201 133l-2 8l19 70q154 -6 256 -6t206 14l4 -12l-14 -64q-127 -8 -127 -57
q0 -35 135 -289q16 20 130 146t112 158q0 32 -86 38l-2 9l16 69l187 -12l161 6l5 -10l-17 -68q-70 -14 -112 -46t-125 -120l-224 -243l187 -326q72 -123 205 -133l-21 -82q-129 4 -201 4l-260 -12l-4 12l15 68q127 6 127 59z" />
    <glyph glyph-name="y" unicode="y" horiz-adv-x="931" 
d="M758 913q0 33 -92 39l-4 9l20 69l184 -12l154 6l6 -10l-20 -68q-88 -16 -148 -90q-33 -39 -160 -223q-127 -185 -133 -197t-12 -22t-25 -108q-20 -97 -20 -145q0 -49 9 -66t52 -17l80 4l2 -6l-22 -82q-145 6 -225 6t-195 -18l20 79q88 17 115 49t36 120t9 134
q0 44 -27 109l-110 295q-43 112 -71 140t-105 38l-4 8l20 70q111 -6 182 -6l238 14l4 -12l-14 -64q-76 -6 -101 -18t-25 -45t124 -387h10l213 323q35 51 35 84z" />
    <glyph glyph-name="z" unicode="z" horiz-adv-x="964" 
d="M797 23l-29 -27l-594 8l-117 -10l-18 57l702 887l-264 -10q-109 -2 -159 -49t-78 -166l-90 -8q47 172 67 319l19 14l282 -18l426 -8l14 -51q-303 -342 -725 -885l316 12q82 2 139 64t100 196l89 10q-55 -181 -80 -335z" />
    <glyph glyph-name="braceleft" unicode="{" horiz-adv-x="608" 
d="M383 346q0 -63 -52 -221t-52 -208q1 -50 27 -83t79 -33l98 13l6 -13l-22 -57q-51 -16 -113 -16q-102 0 -159 60t-58 141q0 81 65 227t64 188q0 123 -170 162l15 43q203 57 202 190q0 39 -19 153t-20 167q0 113 77 191t206 79l113 -12l4 -10l-23 -62q-55 10 -90 10
q-71 0 -105 -51t-34 -131l14 -278q0 -197 -172 -252l-2 -13q121 -49 121 -184z" />
    <glyph glyph-name="bar" unicode="|" horiz-adv-x="727" 
d="M567 1653l21 -13q-98 -705 -139 -1044l-138 -1124l-121 -23l-16 12l268 2169z" />
    <glyph glyph-name="braceright" unicode="}" horiz-adv-x="608" 
d="M246 711q0 63 51 221t51 207q0 117 -104 116l-101 -12l-4 12l23 58q51 16 112 16q102 0 160 -60q58 -59 58 -141t-65 -227t-65 -188q0 -121 168 -162l-12 -43q-203 -57 -203 -191q-1 -39 19 -153t20 -166q0 -113 -78 -192t-204 -78l-113 12l-4 10l22 62q55 -10 89 -11
q70 -1 104 51t35 132l-12 278q0 197 172 252v12q-119 49 -119 185z" />
    <glyph glyph-name="asciitilde" unicode="~" horiz-adv-x="995" 
d="M737 569q51 0 127 86l25 27h12l39 -43v-10l-174 -183l-33 -8q-55 0 -235 44t-211 44q-55 0 -127 -84l-25 -28h-12l-39 43v10l174 182l33 8q55 0 235 -44t211 -44z" />
    <glyph glyph-name="nbspace" unicode="&#xa0;" horiz-adv-x="393" 
 />
    <glyph glyph-name="exclamdown" unicode="&#xa1;" horiz-adv-x="559" 
d="M358 496l-96 -934l-18 -21l-172 -37l-17 23l224 971l59 14zM355 707q-109 0 -107 109q0 52 40 93t95 41q108 0 106 -109q1 -50 -39 -92t-95 -42z" />
    <glyph glyph-name="cent" unicode="&#xa2;" horiz-adv-x="704" 
d="M213 375q0 -219 96 -269l156 723q-96 -4 -174 -144t-78 -310zM70 313q0 225 127 415t292 218l84 393l58 9l8 -19l-82 -379q92 -6 150 -43l10 -22l-70 -137l-29 -7q-39 53 -90 76l-153 -721q57 10 113 58t90 120l28 -2l31 -49q-51 -96 -130 -162t-159 -81l-61 -289l-56 -6
l-8 14l60 278q-101 9 -157 99t-56 237z" />
    <glyph glyph-name="sterling" unicode="&#xa3;" horiz-adv-x="1032" 
d="M895 195q0 -91 -52 -155t-122 -64t-237 46t-250 46t-171 -62l-14 8l-20 70q219 141 243 334l13 98q2 48 -20 64t-95 20l-6 12l22 70l121 23l4 34q27 219 151 353t298 133q137 0 198 -31l9 -23l-64 -129l-37 -6q-113 68 -196 68q-168 0 -207 -254l-25 -160l316 6l6 -6
l-35 -108q-152 6 -303 6l-25 -162q-29 -164 -155 -266l110 22q59 0 171 -22t157 -23q133 0 166 154l35 -4q14 -43 14 -92z" />
    <glyph glyph-name="currency" unicode="&#xa4;" horiz-adv-x="872" 
d="M274 722q0 -82 48 -135q48 -52 127 -52q81 1 147 67t66 149t-48 135t-128 52t-146 -67t-66 -149zM176 718q0 94 76 191l-121 142l6 24l88 53q55 -70 115 -141q76 49 163 49t152 -49l154 154l25 -6l47 -82l-156 -142q35 -59 35 -149t-68 -187l123 -135l-8 -22l-90 -62
l-113 136q-82 -56 -174 -56t-160 56l-149 -138l-21 6l-39 80q5 0 144 127q-29 57 -29 151z" />
    <glyph glyph-name="yen" unicode="&#xa5;" horiz-adv-x="1081" 
d="M326 1028q66 0 252 14l6 -20l-15 -70q-77 -8 -103 -20t-26 -32t17 -71h-2l114 -321l219 326q35 52 35 82t-98 34v15l18 75q172 -12 195 -12l158 6l8 -14l-21 -76q-77 -12 -111 -40t-98 -118l-98 -139l225 4l11 -18l-15 -62h-276l-82 -116q-23 -37 -29 -80l359 8l8 -18
l-12 -62h-367q-20 -123 -20 -158t14 -46t53 -11l78 2l2 -16l-27 -78q-144 4 -216 4t-208 -20l21 88q100 16 122 54t38 181l-353 -2l-8 14l17 60h346q-6 59 -27 108l-37 88l-258 -2l-8 15l16 59h219q-12 33 -37 104q-47 132 -91 161q-43 30 -111 34v19q6 25 22 73
q115 -6 181 -6z" />
    <glyph glyph-name="brokenbar" unicode="&#xa6;" horiz-adv-x="727" 
d="M469 770l-127 -18l-8 6q74 582 108 872l125 23l21 -13q-72 -510 -119 -870zM281 340l131 25l6 -7l-107 -886l-123 -23l-16 12z" />
    <glyph glyph-name="section" unicode="&#xa7;" horiz-adv-x="1003" 
d="M807 369q0 100 -148 233q-61 55 -122 113q-154 139 -172 260q-141 -84 -141 -201t145 -246q63 -55 127 -110q152 -137 170 -266q141 88 141 217zM98 691q0 91 72 187t195 169q16 115 112 199t215 83q76 0 131 -29q55 -28 55 -62t-21 -93q-22 -59 -38 -76h-28
q-19 70 -69 115t-106 45t-92 -42q-37 -43 -37 -105q0 -111 159 -238q66 -52 132 -108t112 -129t46 -167t-78 -202t-194 -166q-16 -100 -126 -194t-239 -93q-94 0 -154 43q-59 43 -59 109q0 37 18 103t35 83h31q6 -109 60 -175t131 -67q77 0 127 48t51 115q0 112 -155 241
q-64 53 -130 108t-111 131t-45 167z" />
    <glyph glyph-name="dieresis" unicode="&#xa8;" 
d="M311 1159q-78 0 -80 85q0 38 34 72t75 34q78 0 78 -78q0 -45 -33 -79t-74 -34zM639 1159q-78 0 -80 85q0 38 34 72t75 34q78 0 77 -78q1 -45 -32 -79t-74 -34z" />
    <glyph glyph-name="copyright" unicode="&#xa9;" horiz-adv-x="1361" 
d="M698 256q-131 0 -210 77t-78 206q0 180 114 297q115 117 293 116q78 0 197 -24l4 -8q-31 -82 -49 -181l-62 -6q8 45 8 66q1 84 -125 84t-196 -86t-70 -216t51 -197t144 -67q135 0 192 164l62 4q-33 -100 -49 -176l-9 -10q-86 -43 -217 -43zM180 543q0 -205 129 -345
t324 -141q231 -1 408 179t177 403t-128 363q-129 140 -324 141q-230 0 -408 -179t-178 -421zM96 535q0 279 205 485t475 205q227 0 377 -162t150 -397q0 -279 -205 -485t-475 -206q-227 0 -377 162t-150 398z" />
    <glyph glyph-name="ordfeminine" unicode="&#xaa;" horiz-adv-x="663" 
d="M225 834q33 0 101 105t127 249q-63 41 -119 41t-98 -85q-44 -86 -44 -198t33 -112zM430 702q-53 0 -53 46q0 8 49 237l-8 2q-119 -209 -225 -285q-61 0 -97 48t-35 137q1 158 99 294t211 136l121 -23l10 31l12 6l76 -18l10 -21q-68 -238 -100 -458l4 -5q12 0 94 70l20 -2
l19 -39q-154 -156 -207 -156z" />
    <glyph glyph-name="guillemotleft" unicode="&#xab;" horiz-adv-x="841" 
d="M465 819l41 -31v-20l-246 -305l170 -318l-6 -20l-49 -31l-295 340l4 31zM793 819l41 -31v-20l-246 -305l170 -318l-6 -20l-50 -31l-294 340l4 31z" />
    <glyph glyph-name="logicalnot" unicode="&#xac;" horiz-adv-x="995" 
d="M907 608l11 -20q-31 -129 -44 -226l-32 -278l-105 -23l-16 13q31 229 53 409l-723 -4l-10 19l35 100q293 -2 469 -2z" />
    <glyph glyph-name="registered" unicode="&#xae;" horiz-adv-x="919" 
d="M518 1223q-12 0 -14 -17l-21 -141l56 -6q72 27 71 95q0 69 -92 69zM634 834q-42 0 -69 65l-41 113h-49q-14 -68 -14 -90t9 -29q9 -6 34 -6l4 -8l-8 -35q-37 2 -64 2h-24l-88 -4l8 43q33 2 43 16t16 62l27 227q2 23 -1 30t-18 7h-20l-4 8l10 35h16l68 -2h23l61 4
q70 0 109 -27t38 -74q0 -92 -110 -141l45 -88q35 -66 72 -65l6 -9q-1 -26 -19 -30t-60 -4zM502 692q137 0 251 114t113 257q0 143 -83 232t-220 89t-251 -113q-114 -114 -114 -257q0 -142 84 -232q83 -90 220 -90zM127 1010q0 172 137 309t304 137t268 -107
q100 -108 100 -281t-136 -310q-136 -138 -304 -138t-268 109q-101 109 -101 281z" />
    <glyph glyph-name="macron" unicode="&#xaf;" 
d="M784 1337l9 -20l-27 -96l-561 -4l-10 18l30 92q186 -2 303 -2z" />
    <glyph glyph-name="degree" unicode="&#xb0;" horiz-adv-x="593" 
d="M209 1060q0 -71 44 -116t112 -45q69 0 121 56t53 127q0 71 -45 116t-113 45t-120 -56t-52 -127zM123 1054q0 108 85 192t188 83q103 0 165 -66q61 -67 61 -173t-83 -192q-84 -86 -188 -85q-104 0 -166 67q-62 66 -62 174z" />
    <glyph glyph-name="plusminus" unicode="&#xb1;" horiz-adv-x="995" 
d="M477 -37q129 0 271 5t141 7l8 -20l-29 -105l-895 -4l-8 19l33 100h33l196 -2h250zM950 510l-393 -2l-45 -377l-104 -22l-17 12q29 211 49 387l-387 -2l-8 18l33 101q207 -2 377 -2l51 391l106 16l19 -12q-41 -231 -62 -395l402 12l8 -21z" />
    <glyph glyph-name="two.sups" unicode="&#xb2;" horiz-adv-x="651" 
d="M414 1292q0 78 -98 78t-187 -127h-16l-9 84q49 72 123 118t153 46t134 -43t55 -118q-1 -74 -73 -182t-267 -314l4 -11h156q63 0 91 23t52 94l80 8q-45 -127 -65 -227l-19 -12q-297 10 -411 10l-84 -14l-8 51l157 157q232 256 232 379z" />
    <glyph glyph-name="three.sups" unicode="&#xb3;" horiz-adv-x="581" 
d="M375 1309q-1 37 -21 56t-53 19q-76 0 -149 -57h-15l-12 76q151 88 227 88t123 -38t47 -97q0 -58 -44 -112t-118 -87l-2 -10q152 -45 152 -162q0 -100 -125 -191t-260 -92q-49 0 -65 24q-15 24 -15 50t2 43l14 15q150 -45 247 25q58 42 59 106q0 106 -187 106l-10 10v66
l86 18q51 25 85 66t34 78z" />
    <glyph glyph-name="acute" unicode="&#xb4;" 
d="M750 1376l-2 -22q-172 -131 -345 -287l-18 4l-41 39q150 162 307 354l21 -4z" />
    <glyph glyph-name="mu" unicode="&#xb5;" horiz-adv-x="1024" 
d="M258 276q0 -160 141 -159q53 -1 120 37t112 77l57 478l10 190l11 14l180 37l10 -24q-23 -44 -78 -352t-55 -380t70 -73q51 0 122 51l25 -33q-53 -67 -109 -115t-86 -49q-78 0 -118 38t-39 106v14l-10 4q-180 -141 -271 -162q-82 0 -139 54l-10 -6q-49 -291 -49 -424v-50
l-13 -14l-139 -31l-10 25q57 291 104 621l78 522q12 94 12 192v33l13 14l182 39l8 -24q-27 -57 -78 -329t-51 -321z" />
    <glyph glyph-name="mu" unicode="&#x3bc;" horiz-adv-x="1024" 
d="M258 276q0 -160 141 -159q53 -1 120 37t112 77l57 478l10 190l11 14l180 37l10 -24q-23 -44 -78 -352t-55 -380t70 -73q51 0 122 51l25 -33q-53 -67 -109 -115t-86 -49q-78 0 -118 38t-39 106v14l-10 4q-180 -141 -271 -162q-82 0 -139 54l-10 -6q-49 -291 -49 -424v-50
l-13 -14l-139 -31l-10 25q57 291 104 621l78 522q12 94 12 192v33l13 14l182 39l8 -24q-27 -57 -78 -329t-51 -321z" />
    <glyph glyph-name="paragraph" unicode="&#xb6;" horiz-adv-x="1103" 
d="M1026 1217q-39 1 -71 -17t-42 -76q-35 -127 -122 -809q-30 -256 -118 -393q-87 -137 -313 -137q-102 0 -172 44t-69 130q0 45 29 102q30 57 69 99h31q-4 -40 -4 -98t30 -109q41 -72 127 -72q119 0 169 85t77 308l113 910q0 20 -7 24t-44 4q-115 0 -175 -110t-60 -298
q0 -187 89 -339l-4 -31q-186 16 -306 122t-120 298t132 326t337 133l256 -8l248 6l-27 -94h-53z" />
    <glyph glyph-name="periodcentered" unicode="&#xb7;" horiz-adv-x="468" 
d="M251 588q109 0 107 -109q0 -51 -41 -93t-96 -42q-106 0 -104 110q0 50 40 92t94 42z" />
    <glyph glyph-name="cedilla" unicode="&#xb8;" horiz-adv-x="784" 
d="M477 -276q0 -78 -86 -140t-176 -61q-47 0 -87 19t-40 51t66 118h16v-34q0 -27 24 -55t68 -28t76 24q31 24 31 58q0 53 -150 150l92 221h86l-67 -149q43 -29 78 -62q69 -65 69 -112z" />
    <glyph glyph-name="one.sups" unicode="&#xb9;" horiz-adv-x="491" 
d="M305 850q0 -59 49 -59l66 4l2 -7l-23 -73q-113 4 -176 4l-184 -14l18 71q61 4 90 27t35 78l54 428q4 45 -8 58t-50 13l-65 -6l-4 6l14 66q76 10 307 45l8 -31q-47 -39 -63 -119t-43 -267t-27 -224z" />
    <glyph glyph-name="ordmasculine" unicode="&#xba;" horiz-adv-x="595" 
d="M238 702q-78 0 -124 60t-46 166q0 164 91 280t220 117q82 0 127 -54t45 -153q0 -174 -91 -295t-222 -121zM199 979q0 -186 98 -186q49 -1 84 71t35 191q0 172 -90 172q-55 1 -91 -69t-36 -179z" />
    <glyph glyph-name="guillemotright" unicode="&#xbb;" horiz-adv-x="841" 
d="M139 94l-43 31l2 20l244 306l-168 317l4 20l49 31l297 -340l-4 -30zM467 94l-43 31l2 20l244 306l-168 317l4 20l49 31l297 -340l-4 -30z" />
    <glyph glyph-name="onequarter" unicode="&#xbc;" horiz-adv-x="1402" 
d="M1120 567l-205 -256h187l31 256h-13zM786 219l13 70l393 481l8 2l80 -12l-51 -449h106l8 -14l-22 -90l-104 4l-17 -199l-10 -12l-127 -14l-8 12q23 119 35 215zM305 678q0 -59 49 -60l66 5l2 -7l-23 -73q-113 4 -176 4l-184 -15l18 72q61 4 90 27t35 78l54 428
q4 45 -8 58t-50 13l-65 -6l-4 6l14 66q76 10 307 45l8 -31q-47 -39 -63 -119t-43 -267t-27 -224zM1139 1350l10 -29q-356 -530 -537 -819l-440 -697l-78 39l-10 25q272 414 975 1520z" />
    <glyph glyph-name="onehalf" unicode="&#xbd;" horiz-adv-x="1460" 
d="M1200 573q0 78 -98 78t-187 -127h-16l-8 84q49 72 123 118t152 46t134 -43t56 -118t-73 -183t-267 -313l4 -11h156q63 0 91 23t52 94l80 8q-45 -127 -66 -227l-18 -12q-297 10 -412 10l-84 -14l-8 51l158 158q231 255 231 378zM305 678q0 -59 49 -60l66 5l2 -7l-23 -73
q-113 4 -176 4l-184 -15l18 72q61 4 90 27t35 78l54 428q4 45 -8 58t-50 13l-65 -6l-4 6l14 66q76 10 307 45l8 -31q-47 -39 -63 -119t-43 -267t-27 -224zM1139 1350l10 -29q-356 -530 -537 -819l-440 -697l-78 39l-10 25q272 414 975 1520z" />
    <glyph glyph-name="threequarters" unicode="&#xbe;" horiz-adv-x="1411" 
d="M375 1137q-1 37 -21 56t-53 19q-76 0 -149 -57h-15l-12 76q151 88 227 88t123 -38t47 -97q0 -58 -44 -112t-118 -87l-2 -10q152 -45 152 -162q0 -100 -125 -191t-260 -92q-49 0 -65 24q-15 24 -15 50t2 43l14 15q150 -45 247 25q58 42 59 106q0 106 -187 106l-10 10v66
l86 18q51 25 85 66t34 78zM1128 567l-204 -256h186l31 256h-13zM795 219l12 70l393 481l8 2l80 -12l-51 -449h106l9 -14l-23 -90l-104 4l-17 -199l-10 -12l-127 -14l-8 12q23 119 35 215zM1147 1350l10 -29q-356 -530 -536 -819l-441 -697l-78 39l-10 25q272 414 975 1520z
" />
    <glyph glyph-name="questiondown" unicode="&#xbf;" horiz-adv-x="708" 
d="M452 707q-106 0 -106 108q0 51 40 93t95 42q107 0 107 -109q0 -50 -41 -92t-95 -42zM125 -121q0 -211 367 -235l2 -23l-78 -108l-29 -9q-172 6 -289 94q-116 88 -116 225q0 136 84 222q46 45 80 72t109 71t105 66l9 18l-17 195l8 16l127 35l19 -8l16 -246l-10 -28
l-252 -156q-135 -88 -135 -201z" />
    <glyph glyph-name="Agrave" unicode="&#xc0;" horiz-adv-x="1142" 
d="M428 1591l-8 21l33 98l18 12q215 -123 408 -223l-13 -49l-16 -10zM541 555q96 0 186 12l-90 547h-14l-256 -559h174zM572 481q-122 0 -253 -16l-100 -221q-29 -59 -29 -94q0 -74 109 -74h115v-6l-21 -84q-139 14 -270 14l-215 -6l26 92q59 6 98 40q38 34 79 120l507 1046
l115 35l17 2q90 -629 184 -1102q14 -77 50 -107t122 -40l4 -6l-23 -80q-141 6 -240 6t-259 -20l-4 14l16 74q113 8 151 28t37 74q0 27 -45 309q-49 2 -171 2z" />
    <glyph glyph-name="Aacute" unicode="&#xc1;" horiz-adv-x="1142" 
d="M1049 1612l-9 -21q-207 -70 -422 -151l-16 10l-12 49l407 223l19 -12zM541 555q96 0 186 12l-90 547h-14l-256 -559h174zM572 481q-122 0 -253 -16l-100 -221q-29 -59 -29 -94q0 -74 109 -74h115v-6l-21 -84q-139 14 -270 14l-215 -6l26 92q59 6 98 40q38 34 79 120
l507 1046l115 35l17 2q90 -629 184 -1102q14 -77 50 -107t122 -40l4 -6l-23 -80q-141 6 -240 6t-259 -20l-4 14l16 74q113 8 151 28t37 74q0 27 -45 309q-49 2 -171 2z" />
    <glyph glyph-name="Acircumflex" unicode="&#xc2;" horiz-adv-x="1142" 
d="M453 1460l-23 45l301 228h29l246 -228l-35 -45l-19 -2l-225 133l-256 -133zM541 555q96 0 186 12l-90 547h-14l-256 -559h174zM572 481q-122 0 -253 -16l-100 -221q-29 -59 -29 -94q0 -74 109 -74h115v-6l-21 -84q-139 14 -270 14l-215 -6l26 92q59 6 98 40q38 34 79 120
l507 1046l115 35l17 2q90 -629 184 -1102q14 -77 50 -107t122 -40l4 -6l-23 -80q-141 6 -240 6t-259 -20l-4 14l16 74q113 8 151 28t37 74q0 27 -45 309q-49 2 -171 2z" />
    <glyph glyph-name="Atilde" unicode="&#xc3;" horiz-adv-x="1142" 
d="M872 1587q41 0 138 92h12l39 -43v-10l-170 -162l-33 -8q-36 0 -144 34t-132 34q-45 0 -115 -70l-23 -22h-12l-41 43l2 10l170 162l31 8q34 0 144 -34t134 -34zM541 555q96 0 186 12l-90 547h-14l-256 -559h174zM572 481q-122 0 -253 -16l-100 -221q-29 -59 -29 -94
q0 -74 109 -74h115v-6l-21 -84q-139 14 -270 14l-215 -6l26 92q59 6 98 40q38 34 79 120l507 1046l115 35l17 2q90 -629 184 -1102q14 -77 50 -107t122 -40l4 -6l-23 -80q-141 6 -240 6t-259 -20l-4 14l16 74q113 8 151 28t37 74q0 27 -45 309q-49 2 -171 2z" />
    <glyph glyph-name="Adieresis" unicode="&#xc4;" horiz-adv-x="1142" 
d="M575 1675q80 0 80 -84q1 -38 -33 -72t-75 -34q-78 0 -78 78q0 45 33 79t73 33zM904 1675q79 0 79 -84q0 -38 -34 -72t-75 -34q-78 0 -77 78q-1 45 33 79t74 33zM541 555q96 0 186 12l-90 547h-14l-256 -559h174zM572 481q-122 0 -253 -16l-100 -221q-29 -59 -29 -94
q0 -74 109 -74h115v-6l-21 -84q-139 14 -270 14l-215 -6l26 92q59 6 98 40q38 34 79 120l507 1046l115 35l17 2q90 -629 184 -1102q14 -77 50 -107t122 -40l4 -6l-23 -80q-141 6 -240 6t-259 -20l-4 14l16 74q113 8 151 28t37 74q0 27 -45 309q-49 2 -171 2z" />
    <glyph glyph-name="Aring" unicode="&#xc5;" horiz-adv-x="1142" 
d="M559 1530q0 74 54 130t130 56q142 0 142 -146q-1 -69 -55 -129t-128 -61q-143 0 -143 150zM715 1458q98 0 98 92q0 86 -90 86q-45 0 -71 -24t-26 -68q0 -42 28 -64t61 -22zM541 555q96 0 186 12l-90 547h-14l-256 -559h174zM572 481q-122 0 -253 -16l-100 -221
q-29 -59 -29 -94q0 -74 109 -74h115v-6l-21 -84q-139 14 -270 14l-215 -6l26 92q59 6 98 40q38 34 79 120l507 1046l115 35l17 2q90 -629 184 -1102q14 -77 50 -107t122 -40l4 -6l-23 -80q-141 6 -240 6t-259 -20l-4 14l16 74q113 8 151 28t37 74q0 27 -45 309q-49 2 -171 2
z" />
    <glyph glyph-name="AE" unicode="&#xc6;" horiz-adv-x="1593" 
d="M436 635l309 22l-2 449h-18zM752 240v73l-4 254l-379 -35l-172 -286q-43 -72 -43 -106t22 -47t78 -13h111l-23 -94q-145 14 -270 14l-135 -8l-5 69q74 72 146 187l596 938q-6 33 -45 33l-68 -5l-4 9l27 88q0 -6 374 -6t529 24l4 -12q-51 -150 -86 -338l-96 -8
q18 78 18 137q0 60 -54 78q-53 18 -193 18t-167 -13t-26 -50l4 -471l237 22l185 27l8 -10l-39 -107l-170 -4l-221 -18l12 -351q2 -75 36 -107t121 -32q157 0 215 18t81 48q47 59 78 184l90 10l6 -10q-57 -170 -96 -342l-11 -12q5 4 -247 9t-366 5t-275 -20l-3 14l13 78
q95 6 151 51t56 117z" />
    <glyph glyph-name="Ccedilla" unicode="&#xc7;" horiz-adv-x="1234" 
d="M631 -102q150 -101 148 -176q-1 -76 -87 -138t-176 -61q-47 0 -87 19t-40 51t66 118h16v-34q0 -27 24 -55q25 -28 69 -28t75 24t31 58q0 53 -150 150l62 151q-222 13 -356 159t-134 382q0 344 219 576t543 233q135 0 354 -47l6 -12q-57 -152 -92 -336l-88 -8
q18 80 19 120q0 172 -269 173q-227 1 -370 -177t-144 -462q0 -234 104 -372t285 -138q266 0 381 327l88 8q-63 -184 -94 -327l-12 -19q-141 -72 -356 -80z" />
    <glyph glyph-name="Egrave" unicode="&#xc8;" horiz-adv-x="1163" 
d="M459 1591l-8 21l32 98l19 12q215 -123 407 -223l-12 -49l-16 -10zM379 159q0 -47 29 -61q30 -14 138 -14t171 6t111 36t68 74q19 44 44 136l84 10l4 -10q-57 -168 -96 -340l-10 -10q-408 14 -566 14t-297 -20l23 88q90 12 127 48t47 124q113 898 113 922q1 24 -9 41
t-55 18l-67 -4l-2 6l22 86q152 -6 419 -6t441 24l4 -10q-51 -147 -86 -336l-90 -8q18 80 19 140q-1 59 -53 77t-194 18t-164 -11t-30 -69l-63 -407l203 -2l241 22l6 -8l-41 -115q-168 6 -260 6t-168 -14q-12 -84 -38 -244t-25 -207z" />
    <glyph glyph-name="Eacute" unicode="&#xc9;" horiz-adv-x="1163" 
d="M993 1612l-8 -21q-207 -70 -422 -151l-16 10l-12 49l407 223l19 -12zM379 159q0 -47 29 -61q30 -14 138 -14t171 6t111 36t68 74q19 44 44 136l84 10l4 -10q-57 -168 -96 -340l-10 -10q-408 14 -566 14t-297 -20l23 88q90 12 127 48t47 124q113 898 113 922q1 24 -9 41
t-55 18l-67 -4l-2 6l22 86q152 -6 419 -6t441 24l4 -10q-51 -147 -86 -336l-90 -8q18 80 19 140q-1 59 -53 77t-194 18t-164 -11t-30 -69l-63 -407l203 -2l241 22l6 -8l-41 -115q-168 6 -260 6t-168 -14q-12 -84 -38 -244t-25 -207z" />
    <glyph glyph-name="Ecircumflex" unicode="&#xca;" horiz-adv-x="1163" 
d="M483 1460l-22 45l301 228h29l245 -228l-35 -45l-18 -2l-225 133l-256 -133zM379 159q0 -47 29 -61q30 -14 138 -14t171 6t111 36t68 74q19 44 44 136l84 10l4 -10q-57 -168 -96 -340l-10 -10q-408 14 -566 14t-297 -20l23 88q90 12 127 48t47 124q113 898 113 922
q1 24 -9 41t-55 18l-67 -4l-2 6l22 86q152 -6 419 -6t441 24l4 -10q-51 -147 -86 -336l-90 -8q18 80 19 140q-1 59 -53 77t-194 18t-164 -11t-30 -69l-63 -407l203 -2l241 22l6 -8l-41 -115q-168 6 -260 6t-168 -14q-12 -84 -38 -244t-25 -207z" />
    <glyph glyph-name="Edieresis" unicode="&#xcb;" horiz-adv-x="1163" 
d="M606 1675q80 0 80 -84q0 -38 -34 -72t-74 -34q-78 0 -78 78q0 45 32 79t74 33zM935 1675q77 0 79 -84q0 -38 -34 -72t-75 -34q-78 0 -78 78q0 45 34 79t74 33zM379 159q0 -47 29 -61q30 -14 138 -14t171 6t111 36t68 74q19 44 44 136l84 10l4 -10q-57 -168 -96 -340
l-10 -10q-408 14 -566 14t-297 -20l23 88q90 12 127 48t47 124q113 898 113 922q1 24 -9 41t-55 18l-67 -4l-2 6l22 86q152 -6 419 -6t441 24l4 -10q-51 -147 -86 -336l-90 -8q18 80 19 140q-1 59 -53 77t-194 18t-164 -11t-30 -69l-63 -407l203 -2l241 22l6 -8l-41 -115
q-168 6 -260 6t-168 -14q-12 -84 -38 -244t-25 -207z" />
    <glyph glyph-name="Igrave" unicode="&#xcc;" horiz-adv-x="710" 
d="M201 1591l-8 21l32 98l19 12q215 -123 407 -223l-12 -49l-16 -10zM475 1303q82 0 225 20l-20 -88q-84 -10 -116 -35t-40 -82q-143 -831 -143 -944q0 -48 17 -68t59 -20l104 6l4 -8l-28 -90q-161 6 -253 6t-231 -25l25 88q94 17 132 55t48 124q111 894 111 918
q-1 24 -11 42t-53 19l-84 -4q-2 4 -2 6l25 88h8l186 -8h37z" />
    <glyph glyph-name="Iacute" unicode="&#xcd;" horiz-adv-x="710" 
d="M801 1612l-8 -21q-207 -70 -422 -151l-17 10l-12 49l408 223l18 -12zM475 1303q82 0 225 20l-20 -88q-84 -10 -116 -35t-40 -82q-143 -831 -143 -944q0 -48 17 -68t59 -20l104 6l4 -8l-28 -90q-161 6 -253 6t-231 -25l25 88q94 17 132 55t48 124q111 894 111 918
q-1 24 -11 42t-53 19l-84 -4q-2 4 -2 6l25 88h8l186 -8h37z" />
    <glyph glyph-name="Icircumflex" unicode="&#xce;" horiz-adv-x="710" 
d="M225 1460l-22 45l301 228h28l246 -228l-35 -45l-18 -2l-225 133l-256 -133zM475 1303q82 0 225 20l-20 -88q-84 -10 -116 -35t-40 -82q-143 -831 -143 -944q0 -48 17 -68t59 -20l104 6l4 -8l-28 -90q-161 6 -253 6t-231 -25l25 88q94 17 132 55t48 124q111 894 111 918
q-1 24 -11 42t-53 19l-84 -4q-2 4 -2 6l25 88h8l186 -8h37z" />
    <glyph glyph-name="Idieresis" unicode="&#xcf;" horiz-adv-x="710" 
d="M348 1675q80 0 80 -84q0 -38 -34 -72t-75 -34q-78 0 -77 78q0 45 32 79t74 33zM677 1675q77 0 79 -84q0 -38 -34 -72t-75 -34q-78 0 -78 78q0 45 34 79t74 33zM475 1303q82 0 225 20l-20 -88q-84 -10 -116 -35t-40 -82q-143 -831 -143 -944q0 -48 17 -68t59 -20l104 6
l4 -8l-28 -90q-161 6 -253 6t-231 -25l25 88q94 17 132 55t48 124q111 894 111 918q-1 24 -11 42t-53 19l-84 -4q-2 4 -2 6l25 88h8l186 -8h37z" />
    <glyph glyph-name="Eth" unicode="&#xd0;" horiz-adv-x="1400" 
d="M631 1221q-41 1 -55 -9t-19 -36l-78 -474h332l8 -14l-20 -65h-332q-55 -354 -55 -404q0 -86 50 -117t183 -30q242 0 389 182t148 475q0 236 -142 364t-409 128zM313 0q-92 0 -235 -25l22 88q94 19 131 55t48 122l47 383h-273l-12 14l22 65h273q53 436 53 460t-9 41
t-52 18l-70 -4l-2 8l23 84q129 -6 204 -6l279 8q264 0 430 -151t166 -377t-102 -409t-274 -291q-173 -108 -376 -108q-201 25 -293 25z" />
    <glyph glyph-name="Ntilde" unicode="&#xd1;" horiz-adv-x="1415" 
d="M1016 1587q33 0 129 92h12l39 -43v-10l-170 -162l-33 -8q-35 0 -143 34t-133 34q-45 0 -115 -70l-22 -22h-13l-41 43l2 10l170 162l31 8q34 0 144 -34t143 -34zM1124 1219h-22l-37 -2h-14l-4 8l28 86q117 -8 191 -8t186 18l-20 -90q-135 -18 -152 -129l-168 -1159
l-51 -29q-297 602 -600 1155h-8l-123 -903q-6 -44 5 -62t46 -18h100l4 -6l-28 -88q-119 8 -205 8l-182 -16l22 88q121 14 137 129q139 918 140 946q0 70 -160 86l-2 10l22 70q113 -10 166 -10l127 8q256 -516 543 -1037h8q106 864 107 875q0 70 -56 70z" />
    <glyph glyph-name="Ograve" unicode="&#xd2;" horiz-adv-x="1357" 
d="M524 1591l-8 21l33 98l18 12q215 -123 408 -223l-12 -49l-17 -10zM586 -25q-219 0 -357 152q-137 152 -137 393q0 332 212 570t509 237q223 0 365 -152q141 -153 141 -393q0 -334 -216 -570t-517 -237zM637 72q217 0 360 179t144 431t-105 392t-282 140q-210 0 -352 -181
t-142 -431t104 -390t273 -140z" />
    <glyph glyph-name="Oacute" unicode="&#xd3;" horiz-adv-x="1357" 
d="M1083 1612l-8 -21q-207 -70 -422 -151l-16 10l-12 49l407 223l19 -12zM586 -25q-219 0 -357 152q-137 152 -137 393q0 332 212 570t509 237q223 0 365 -152q141 -153 141 -393q0 -334 -216 -570t-517 -237zM637 72q217 0 360 179t144 431t-105 392t-282 140
q-210 0 -352 -181t-142 -431t104 -390t273 -140z" />
    <glyph glyph-name="Ocircumflex" unicode="&#xd4;" horiz-adv-x="1357" 
d="M528 1460l-22 45l301 228h29l245 -228l-34 -45l-19 -2l-225 133l-256 -133zM586 -25q-219 0 -357 152q-137 152 -137 393q0 332 212 570t509 237q223 0 365 -152q141 -153 141 -393q0 -334 -216 -570t-517 -237zM637 72q217 0 360 179t144 431t-105 392t-282 140
q-210 0 -352 -181t-142 -431t104 -390t273 -140z" />
    <glyph glyph-name="Otilde" unicode="&#xd5;" horiz-adv-x="1357" 
d="M967 1587q43 0 139 92h12l39 -43v-10l-170 -162l-33 -8q-36 0 -144 34t-130 34q-47 0 -115 -70l-24 -22h-13l-41 43l2 10l170 162l31 8q35 0 145 -34t132 -34zM586 -25q-219 0 -357 152q-137 152 -137 393q0 332 212 570t509 237q223 0 365 -152q141 -153 141 -393
q0 -334 -216 -570t-517 -237zM637 72q217 0 360 179t144 431t-105 392t-282 140q-210 0 -352 -181t-142 -431t104 -390t273 -140z" />
    <glyph glyph-name="Odieresis" unicode="&#xd6;" horiz-adv-x="1357" 
d="M651 1675q80 0 80 -84q0 -38 -34 -72t-74 -34q-78 0 -78 78q0 45 33 79t73 33zM980 1675q77 0 79 -84q0 -38 -34 -72t-75 -34q-78 0 -78 78q0 45 34 79t74 33zM586 -25q-219 0 -357 152q-137 152 -137 393q0 332 212 570t509 237q223 0 365 -152q141 -153 141 -393
q0 -334 -216 -570t-517 -237zM637 72q217 0 360 179t144 431t-105 392t-282 140q-210 0 -352 -181t-142 -431t104 -390t273 -140z" />
    <glyph glyph-name="multiply" unicode="&#xd7;" horiz-adv-x="995" 
d="M827 920l21 -7l53 -86l-313 -292l250 -277l-11 -25l-92 -61l-237 283l-310 -291l-20 6l-45 86q166 152 303 279l-248 294l6 23l97 53q131 -162 237 -289z" />
    <glyph glyph-name="Oslash" unicode="&#xd8;" horiz-adv-x="1357" 
d="M260 583q0 -269 137 -411l525 999q-80 43 -168 43q-212 0 -353 -181t-141 -450zM637 72q217 0 360 179t144 460q0 281 -160 419l-528 -1005q82 -53 184 -53zM92 520q0 332 212 570t509 237q92 0 174 -29l80 152l59 -14l7 -25l-78 -143q123 -66 193 -194t71 -292
q0 -334 -216 -570t-517 -237q-96 0 -193 37l-112 -213l-56 13l-4 20l109 211q-114 69 -176 193t-62 284z" />
    <glyph glyph-name="Ugrave" unicode="&#xd9;" horiz-adv-x="1335" 
d="M535 1591l-9 21l33 98l19 12q215 -123 407 -223l-12 -49l-17 -10zM358 414q0 -330 298 -330q153 0 250 91t118 265q74 680 74 714t-9 50t-53 17l-88 -4v8l23 84q145 -6 219 -6t192 20l-20 -88q-88 -10 -115 -32t-35 -85l-86 -696q-27 -211 -168 -329t-372 -118
q-184 1 -282 97t-97 268q0 47 47 422q47 376 47 400t-10 41t-55 18l-68 -4l-2 8l24 84q143 -6 218 -6t206 20l-18 -88q-74 -10 -102 -34t-39 -83l-90 -602q-7 -55 -7 -102z" />
    <glyph glyph-name="Uacute" unicode="&#xda;" horiz-adv-x="1335" 
d="M1155 1612l-8 -21q-207 -70 -422 -151l-16 10l-13 49l408 223l18 -12zM358 414q0 -330 298 -330q153 0 250 91t118 265q74 680 74 714t-9 50t-53 17l-88 -4v8l23 84q145 -6 219 -6t192 20l-20 -88q-88 -10 -115 -32t-35 -85l-86 -696q-27 -211 -168 -329t-372 -118
q-184 1 -282 97t-97 268q0 47 47 422q47 376 47 400t-10 41t-55 18l-68 -4l-2 8l24 84q143 -6 218 -6t206 20l-18 -88q-74 -10 -102 -34t-39 -83l-90 -602q-7 -55 -7 -102z" />
    <glyph glyph-name="Ucircumflex" unicode="&#xdb;" horiz-adv-x="1335" 
d="M559 1460l-22 45l301 228h28l246 -228l-35 -45l-18 -2l-225 133l-256 -133zM358 414q0 -330 298 -330q153 0 250 91t118 265q74 680 74 714t-9 50t-53 17l-88 -4v8l23 84q145 -6 219 -6t192 20l-20 -88q-88 -10 -115 -32t-35 -85l-86 -696q-27 -211 -168 -329t-372 -118
q-184 1 -282 97t-97 268q0 47 47 422q47 376 47 400t-10 41t-55 18l-68 -4l-2 8l24 84q143 -6 218 -6t206 20l-18 -88q-74 -10 -102 -34t-39 -83l-90 -602q-7 -55 -7 -102z" />
    <glyph glyph-name="Udieresis" unicode="&#xdc;" horiz-adv-x="1335" 
d="M682 1675q78 0 80 -84q0 -38 -34 -72t-75 -34q-78 0 -78 78q0 45 33 79t74 33zM1011 1675q77 0 79 -84q0 -38 -34 -72t-75 -34q-78 0 -78 78q0 45 34 79t74 33zM358 414q0 -330 298 -330q153 0 250 91t118 265q74 680 74 714t-9 50t-53 17l-88 -4v8l23 84q145 -6 219 -6
t192 20l-20 -88q-88 -10 -115 -32t-35 -85l-86 -696q-27 -211 -168 -329t-372 -118q-184 1 -282 97t-97 268q0 47 47 422q47 376 47 400t-10 41t-55 18l-68 -4l-2 8l24 84q143 -6 218 -6t206 20l-18 -88q-74 -10 -102 -34t-39 -83l-90 -602q-7 -55 -7 -102z" />
    <glyph glyph-name="Yacute" unicode="&#xdd;" horiz-adv-x="1064" 
d="M1028 1612l-8 -21q-207 -70 -422 -151l-16 10l-13 49l408 223l18 -12zM399 1163q0 -72 158 -540h8l285 446q43 66 43 109q0 49 -117 57l-4 8l23 76q147 -16 213 -16l182 8l6 -13l-22 -71q-92 -17 -134 -55t-94 -117q-322 -479 -326 -489t-12 -34q-8 -23 -15 -41t-15 -102
q-29 -188 -29 -224t6 -50q12 -31 66 -31l96 6l4 -8l-29 -88q-160 6 -246 6t-221 -25l23 88q104 23 136 65t44 160t12 180t-30 148q-154 444 -159 458t-14 39q-9 26 -15 32q-5 6 -15 22q-11 17 -19 21t-21 14t-29 13t-34 7t-43 7l-4 8l23 74q121 -8 225 -8t266 18l4 -14
l-16 -68q-98 -9 -129 -25t-31 -51z" />
    <glyph glyph-name="Thorn" unicode="&#xde;" horiz-adv-x="1071" 
d="M885 698q0 119 -81 175t-253 57q-49 0 -53 -17q-53 -328 -76 -485q84 -31 194 -35q269 35 269 305zM678 1030q186 0 286 -76t99 -217q0 -174 -159 -304t-359 -130h-139q-14 -104 -14 -137q0 -32 10 -54q11 -22 63 -22l104 6l2 -8l-28 -94q-167 6 -259 6t-235 -25l25 95
q94 18 131 54t47 122q110 886 110 910t-10 42t-53 19l-82 -5l-4 9l27 90q69 -4 116 -4l119 -2q61 0 232 18l-21 -92q-82 -10 -113 -34t-41 -83l-14 -84h160z" />
    <glyph glyph-name="germandbls" unicode="&#xdf;" horiz-adv-x="1806" 
d="M1249 -18q-139 0 -237 38l-33 15l-6 18q37 125 57 277l84 8q-8 -68 -8 -127t18 -90q33 -51 148 -51q116 0 182 49t66 117t-45 110t-166 108q-121 67 -176 124t-56 135q0 137 117 231q116 94 268 94t283 -41l4 -10q-41 -125 -70 -272l-73 -6l-11 8q16 66 17 119
q0 52 -38 78t-130 26t-154 -45t-63 -117q0 -72 123 -151q27 -16 102 -57t153 -101q77 -61 76 -154q0 -145 -121 -239t-311 -94zM346 -18q-139 0 -237 38l-33 15l-6 18q37 125 57 277l84 8q-8 -68 -8 -127t18 -90q33 -51 148 -51t181 49t66 117t-45 110t-165 108
q-120 67 -177 124q-55 57 -55 135q0 137 117 231t269 94t282 -41l4 -10q-41 -125 -70 -272l-74 -6l-10 8q16 66 17 119q0 52 -38 78t-130 26q-93 0 -155 -45t-62 -117t122 -151q27 -16 105 -58t153 -102q74 -59 74 -152q0 -145 -121 -239t-311 -94z" />
    <glyph glyph-name="agrave" unicode="&#xe0;" horiz-adv-x="1003" 
d="M350 1305l-8 20l33 98l18 13q215 -123 408 -224l-13 -49l-16 -10zM481 440q70 0 144 9l-70 403h-14l-195 -412h135zM291 72h88v-6l-17 -76q-119 10 -225 10l-182 -4l22 82q45 4 76 30t62 89l403 813l137 28l15 -2q78 -510 151 -848q12 -61 40 -85t93 -29l4 -6l-18 -72
q-120 4 -194 4t-232 -14l-4 10l14 70q90 6 119 21t29 45t-33 228l-164 2q-68 0 -172 -12l-74 -157q-23 -43 -22 -68q0 -53 84 -53z" />
    <glyph glyph-name="aacute" unicode="&#xe1;" horiz-adv-x="1003" 
d="M918 1325l-9 -20q-207 -70 -422 -152l-16 10l-12 49l407 224l19 -13zM481 440q70 0 144 9l-70 403h-14l-195 -412h135zM291 72h88v-6l-17 -76q-119 10 -225 10l-182 -4l22 82q45 4 76 30t62 89l403 813l137 28l15 -2q78 -510 151 -848q12 -61 40 -85t93 -29l4 -6l-18 -72
q-120 4 -194 4t-232 -14l-4 10l14 70q90 6 119 21t29 45t-33 228l-164 2q-68 0 -172 -12l-74 -157q-23 -43 -22 -68q0 -53 84 -53z" />
    <glyph glyph-name="acircumflex" unicode="&#xe2;" horiz-adv-x="1003" 
d="M352 1174l-22 45l301 227h28l246 -227l-35 -45l-18 -3l-225 134l-256 -134zM481 440q70 0 144 9l-70 403h-14l-195 -412h135zM291 72h88v-6l-17 -76q-119 10 -225 10l-182 -4l22 82q45 4 76 30t62 89l403 813l137 28l15 -2q78 -510 151 -848q12 -61 40 -85t93 -29l4 -6
l-18 -72q-120 4 -194 4t-232 -14l-4 10l14 70q90 6 119 21t29 45t-33 228l-164 2q-68 0 -172 -12l-74 -157q-23 -43 -22 -68q0 -53 84 -53z" />
    <glyph glyph-name="atilde" unicode="&#xe3;" horiz-adv-x="1003" 
d="M770 1300q41 0 137 93h13l38 -43v-11l-170 -161l-32 -9q-35 0 -144 34t-133 34q-45 0 -114 -70l-23 -22h-12l-41 43l2 10l170 162l31 8q34 0 144 -34t134 -34zM481 440q70 0 144 9l-70 403h-14l-195 -412h135zM291 72h88v-6l-17 -76q-119 10 -225 10l-182 -4l22 82
q45 4 76 30t62 89l403 813l137 28l15 -2q78 -510 151 -848q12 -61 40 -85t93 -29l4 -6l-18 -72q-120 4 -194 4t-232 -14l-4 10l14 70q90 6 119 21t29 45t-33 228l-164 2q-68 0 -172 -12l-74 -157q-23 -43 -22 -68q0 -53 84 -53z" />
    <glyph glyph-name="adieresis" unicode="&#xe4;" horiz-adv-x="1003" 
d="M475 1389q80 0 80 -84q0 -39 -34 -73t-75 -34q-78 0 -77 78q0 45 32 79q33 34 74 34zM804 1389q77 0 79 -84q0 -39 -34 -73t-75 -34q-78 0 -78 78q0 45 34 79t74 34zM481 440q70 0 144 9l-70 403h-14l-195 -412h135zM291 72h88v-6l-17 -76q-119 10 -225 10l-182 -4l22 82
q45 4 76 30t62 89l403 813l137 28l15 -2q78 -510 151 -848q12 -61 40 -85t93 -29l4 -6l-18 -72q-120 4 -194 4t-232 -14l-4 10l14 70q90 6 119 21t29 45t-33 228l-164 2q-68 0 -172 -12l-74 -157q-23 -43 -22 -68q0 -53 84 -53z" />
    <glyph glyph-name="aring" unicode="&#xe5;" horiz-adv-x="1003" 
d="M602 1094q-143 0 -143 149q0 74 54 130t130 57q143 0 141 -147q0 -69 -54 -129t-128 -60zM614 1171q98 -1 98 89t-89 90q-45 0 -71 -25t-26 -68t28 -65t60 -21zM481 440q70 0 144 9l-70 403h-14l-195 -412h135zM291 72h88v-6l-17 -76q-119 10 -225 10l-182 -4l22 82
q45 4 76 30t62 89l403 813l137 28l15 -2q78 -510 151 -848q12 -61 40 -85t93 -29l4 -6l-18 -72q-120 4 -194 4t-232 -14l-4 10l14 70q90 6 119 21t29 45t-33 228l-164 2q-68 0 -172 -12l-74 -157q-23 -43 -22 -68q0 -53 84 -53z" />
    <glyph glyph-name="ae" unicode="&#xe6;" horiz-adv-x="1384" 
d="M403 498l240 18l-2 330h-18zM184 117q0 -23 18 -32t66 -9l80 -2l-20 -84q-135 10 -236 10l-112 -6l-3 69q13 -1 53 49t64 87l463 712q-6 29 -37 29l-53 -2l-6 8l22 78q158 -4 407 -4t388 18l4 -10q-41 -127 -70 -274l-100 -9q14 59 14 105t-41 59q-41 15 -147 15
t-126 -12t-21 -38l6 -339l180 18l153 25l11 -13l-33 -100l-143 -6l-166 -15l10 -247q2 -59 28 -84t87 -25q162 0 210 32t83 161l92 8l6 -10q-47 -135 -78 -279l-10 -10q10 10 -490 10q-106 0 -260 -14l-4 10l12 74q162 11 162 120l2 56l-4 180l-158 -12l-145 -21l-125 -198
q-33 -55 -33 -78z" />
    <glyph glyph-name="ccedilla" unicode="&#xe7;" horiz-adv-x="1054" 
d="M553 -102q150 -101 148 -176q-1 -76 -87 -138t-176 -61q-47 0 -87 19t-40 51t66 118h16v-34q0 -27 24 -55q25 -28 69 -28t75 24t31 58q0 53 -150 150l66 158q-188 10 -300 124t-112 302q0 274 175 451t446 177q127 0 299 -39l6 -12q-47 -123 -76 -274l-94 -8q14 68 14 98
q0 129 -207 129q-173 0 -281 -131t-108 -328t79 -297t218 -100q205 0 291 246l94 8q-49 -152 -73 -269l-13 -16q-111 -51 -274 -61z" />
    <glyph glyph-name="egrave" unicode="&#xe8;" horiz-adv-x="999" 
d="M367 1305l-9 20l33 98l19 13q215 -123 407 -224l-12 -49l-17 -10zM541 477q-72 0 -140 -10q-7 -61 -27 -171t-20 -150t23 -51t92 -11q182 0 236 32q53 32 88 160l86 9l4 -11q-45 -135 -78 -274l-10 -10q-325 10 -465 10t-262 -16l20 82q72 8 100 36t39 99q84 676 84 695
q0 18 -7 32t-42 14l-53 -2l-4 8l20 76q137 -6 357 -6t370 20l4 -10q-41 -125 -69 -272l-92 -6q14 59 14 105t-42 59q-42 14 -151 14t-126 -9t-23 -51l-49 -297l162 -2l196 17l6 -8l-34 -105q-135 4 -207 4z" />
    <glyph glyph-name="eacute" unicode="&#xe9;" horiz-adv-x="999" 
d="M870 1325l-8 -20q-207 -70 -422 -152l-16 10l-12 49l407 224l19 -13zM541 477q-72 0 -140 -10q-7 -61 -27 -171t-20 -150t23 -51t92 -11q182 0 236 32q53 32 88 160l86 9l4 -11q-45 -135 -78 -274l-10 -10q-325 10 -465 10t-262 -16l20 82q72 8 100 36t39 99
q84 676 84 695q0 18 -7 32t-42 14l-53 -2l-4 8l20 76q137 -6 357 -6t370 20l4 -10q-41 -125 -69 -272l-92 -6q14 59 14 105t-42 59q-42 14 -151 14t-126 -9t-23 -51l-49 -297l162 -2l196 17l6 -8l-34 -105q-135 4 -207 4z" />
    <glyph glyph-name="ecircumflex" unicode="&#xea;" horiz-adv-x="999" 
d="M371 1174l-23 45l301 227h29l246 -227l-35 -45l-19 -3l-225 134l-256 -134zM541 477q-72 0 -140 -10q-7 -61 -27 -171t-20 -150t23 -51t92 -11q182 0 236 32q53 32 88 160l86 9l4 -11q-45 -135 -78 -274l-10 -10q-325 10 -465 10t-262 -16l20 82q72 8 100 36t39 99
q84 676 84 695q0 18 -7 32t-42 14l-53 -2l-4 8l20 76q137 -6 357 -6t370 20l4 -10q-41 -125 -69 -272l-92 -6q14 59 14 105t-42 59q-42 14 -151 14t-126 -9t-23 -51l-49 -297l162 -2l196 17l6 -8l-34 -105q-135 4 -207 4z" />
    <glyph glyph-name="edieresis" unicode="&#xeb;" horiz-adv-x="999" 
d="M494 1389q79 0 79 -84q1 -39 -33 -73t-75 -34q-78 0 -78 78q0 45 33 79t74 34zM822 1389q79 0 79 -84q0 -39 -34 -73t-74 -34q-78 0 -78 78q0 45 34 79t73 34zM541 477q-72 0 -140 -10q-7 -61 -27 -171t-20 -150t23 -51t92 -11q182 0 236 32q53 32 88 160l86 9l4 -11
q-45 -135 -78 -274l-10 -10q-325 10 -465 10t-262 -16l20 82q72 8 100 36t39 99q84 676 84 695q0 18 -7 32t-42 14l-53 -2l-4 8l20 76q137 -6 357 -6t370 20l4 -10q-41 -125 -69 -272l-92 -6q14 59 14 105t-42 59q-42 14 -151 14t-126 -9t-23 -51l-49 -297l162 -2l196 17
l6 -8l-34 -105q-135 4 -207 4z" />
    <glyph glyph-name="igrave" unicode="&#xec;" horiz-adv-x="628" 
d="M174 1305l-8 20l33 98l18 13q215 -123 408 -224l-13 -49l-16 -10zM356 145q0 -68 60 -67l82 4l4 -6l-25 -80q-141 4 -221 4t-193 -18l21 79q76 14 106 43t37 95q84 680 84 697q0 18 -7 32t-44 14l-65 -2q-2 6 -2 8l20 76l199 -6l196 16l-18 -82q-66 -8 -90 -25t-33 -63
q-111 -625 -111 -719z" />
    <glyph glyph-name="iacute" unicode="&#xed;" horiz-adv-x="628" 
d="M686 1325l-8 -20q-207 -70 -422 -152l-16 10l-13 49l408 224l18 -13zM356 145q0 -68 60 -67l82 4l4 -6l-25 -80q-141 4 -221 4t-193 -18l21 79q76 14 106 43t37 95q84 680 84 697q0 18 -7 32t-44 14l-65 -2q-2 6 -2 8l20 76l199 -6l196 16l-18 -82q-66 -8 -90 -25
t-33 -63q-111 -625 -111 -719z" />
    <glyph glyph-name="icircumflex" unicode="&#xee;" horiz-adv-x="628" 
d="M158 1174l-23 45l301 227h29l246 -227l-35 -45l-19 -3l-225 134l-256 -134zM356 145q0 -68 60 -67l82 4l4 -6l-25 -80q-141 4 -221 4t-193 -18l21 79q76 14 106 43t37 95q84 680 84 697q0 18 -7 32t-44 14l-65 -2q-2 6 -2 8l20 76l199 -6l196 16l-18 -82q-66 -8 -90 -25
t-33 -63q-111 -625 -111 -719z" />
    <glyph glyph-name="idieresis" unicode="&#xef;" horiz-adv-x="628" 
d="M281 1389q79 0 79 -84q1 -39 -33 -73t-75 -34q-78 0 -78 78q0 45 33 79t74 34zM609 1389q79 0 79 -84q0 -39 -34 -73t-74 -34q-78 0 -78 78q0 45 34 79t73 34zM356 145q0 -68 60 -67l82 4l4 -6l-25 -80q-141 4 -221 4t-193 -18l21 79q76 14 106 43t37 95q84 680 84 697
q0 18 -7 32t-44 14l-65 -2q-2 6 -2 8l20 76l199 -6l196 16l-18 -82q-66 -8 -90 -25t-33 -63q-111 -625 -111 -719z" />
    <glyph glyph-name="eth" unicode="&#xf0;" horiz-adv-x="1191" 
d="M553 936q-31 0 -42 -7t-15 -30l-60 -346h252l8 -10l-18 -66h-254q-41 -242 -41 -300t38 -80t138 -21q186 0 299 137t113 362q-1 177 -107 269t-311 92zM279 0q-85 0 -191 -18l18 81q78 14 107 41t37 95l33 278h-215l-11 10l21 66h215q39 324 39 343q0 18 -7 32t-40 14
l-58 -2l-2 8l21 76q115 -6 176 -6l233 8q217 0 353 -116t137 -306q-1 -260 -181 -441t-436 -181q-164 18 -249 18z" />
    <glyph glyph-name="ntilde" unicode="&#xf1;" horiz-adv-x="1208" 
d="M872 1300q43 0 140 93h12l39 -43v-11l-170 -161l-33 -9q-36 0 -144 34t-130 34q-47 0 -115 -70l-25 -22h-12l-41 43l2 10l170 162l31 8q34 0 144 -34t132 -34zM979 889q0 53 -47 53l-60 -2l-4 8l25 78q106 -8 164 -8l168 14l-17 -82q-109 -14 -123 -100l-131 -887
l-73 -22q-223 426 -469 841h-11l-88 -639q-4 -37 6 -51t39 -14h78l6 -6l-24 -78q-109 6 -178 6l-164 -12l20 80q100 12 111 100q109 692 108 715q0 55 -129 67q-4 8 -4 11l19 65q96 -8 149 -8l117 8q195 -371 426 -764h8q78 619 78 627z" />
    <glyph glyph-name="ograve" unicode="&#xf2;" horiz-adv-x="1155" 
d="M416 1305l-8 20l32 98l19 13q215 -123 407 -224l-12 -49l-16 -10zM508 -18q-184 0 -298 118t-114 310q0 266 170 447t418 181q188 0 304 -118t116 -310q0 -266 -173 -447t-423 -181zM551 76q166 0 272 134t107 349q0 168 -81 269q-81 102 -229 102t-252 -135
q-106 -135 -106 -327t79 -292t210 -100z" />
    <glyph glyph-name="oacute" unicode="&#xf3;" horiz-adv-x="1155" 
d="M938 1325l-8 -20q-207 -70 -422 -152l-16 10l-13 49l408 224l18 -13zM508 -18q-184 0 -298 118t-114 310q0 266 170 447t418 181q188 0 304 -118t116 -310q0 -266 -173 -447t-423 -181zM551 76q166 0 272 134t107 349q0 168 -81 269q-81 102 -229 102t-252 -135
q-106 -135 -106 -327t79 -292t210 -100z" />
    <glyph glyph-name="ocircumflex" unicode="&#xf4;" horiz-adv-x="1155" 
d="M403 1174l-22 45l301 227h29l245 -227l-34 -45l-19 -3l-225 134l-256 -134zM508 -18q-184 0 -298 118t-114 310q0 266 170 447t418 181q188 0 304 -118t116 -310q0 -266 -173 -447t-423 -181zM551 76q166 0 272 134t107 349q0 168 -81 269q-81 102 -229 102t-252 -135
q-106 -135 -106 -327t79 -292t210 -100z" />
    <glyph glyph-name="otilde" unicode="&#xf5;" horiz-adv-x="1155" 
d="M836 1300q43 0 139 93h12l39 -43v-11l-170 -161l-33 -9q-35 0 -143 34t-131 34q-47 0 -115 -70l-24 -22h-13l-41 43l2 10l170 162l31 8q34 0 144 -34t133 -34zM508 -18q-184 0 -298 118t-114 310q0 266 170 447t418 181q188 0 304 -118t116 -310q0 -266 -173 -447
t-423 -181zM551 76q166 0 272 134t107 349q0 168 -81 269q-81 102 -229 102t-252 -135q-106 -135 -106 -327t79 -292t210 -100z" />
    <glyph glyph-name="odieresis" unicode="&#xf6;" horiz-adv-x="1155" 
d="M526 1389q80 0 80 -84q0 -39 -34 -73t-74 -34q-78 0 -78 78q0 45 33 79t73 34zM855 1389q77 0 79 -84q0 -39 -34 -73t-75 -34q-78 0 -77 78q0 45 33 79q34 34 74 34zM508 -18q-184 0 -298 118t-114 310q0 266 170 447t418 181q188 0 304 -118t116 -310q0 -266 -173 -447
t-423 -181zM551 76q166 0 272 134t107 349q0 168 -81 269q-81 102 -229 102t-252 -135q-106 -135 -106 -327t79 -292t210 -100z" />
    <glyph glyph-name="divide" unicode="&#xf7;" horiz-adv-x="995" 
d="M558 1018q106 0 106 -109q0 -51 -40 -93t-96 -42q-104 0 -104 110q0 50 40 92t94 42zM470 303q107 0 105 -108q1 -52 -39 -94t-94 -42q-108 0 -106 110q0 50 40 92t94 42zM967 608l10 -20l-29 -105l-897 -4l-10 19l35 100q293 -2 469 -2z" />
    <glyph glyph-name="oslash" unicode="&#xf8;" horiz-adv-x="1155" 
d="M635 930q-162 0 -267 -135q-106 -135 -106 -332t88 -297l414 733q-61 31 -129 31zM551 76q166 0 272 134t107 342q0 208 -111 308l-420 -741q64 -43 152 -43zM684 1038q76 0 147 -22l66 117l55 -17l4 -20l-61 -107q97 -53 153 -151t56 -228q0 -266 -173 -447t-423 -181
q-84 0 -170 30l-98 -170l-52 15l-4 16l97 170q-184 115 -185 374q0 259 170 440t418 181z" />
    <glyph glyph-name="ugrave" unicode="&#xf9;" horiz-adv-x="1134" 
d="M422 1305l-8 20l32 98l19 13q215 -123 407 -224l-12 -49l-16 -10zM336 319q0 -115 56 -175t163 -60q258 0 287 256q59 528 59 552t-8 37t-41 13l-68 -2l-2 6l21 78q121 -6 182 -6l168 14l-18 -80q-70 -10 -92 -25t-27 -63l-66 -528q-20 -170 -136 -262t-290 -92
q-342 0 -338 286q-2 29 35 314q37 284 37 308t-8 38t-43 14l-55 -2l-2 6l22 78q123 -6 190 -6l177 14l-17 -80q-59 -8 -82 -26t-30 -64l-70 -467q-4 -27 -4 -76z" />
    <glyph glyph-name="uacute" unicode="&#xfa;" horiz-adv-x="1134" 
d="M989 1325l-8 -20q-207 -70 -422 -152l-16 10l-13 49l408 224l18 -13zM336 319q0 -115 56 -175t163 -60q258 0 287 256q59 528 59 552t-8 37t-41 13l-68 -2l-2 6l21 78q121 -6 182 -6l168 14l-18 -80q-70 -10 -92 -25t-27 -63l-66 -528q-20 -170 -136 -262t-290 -92
q-342 0 -338 286q-2 29 35 314q37 284 37 308t-8 38t-43 14l-55 -2l-2 6l22 78q123 -6 190 -6l177 14l-17 -80q-59 -8 -82 -26t-30 -64l-70 -467q-4 -27 -4 -76z" />
    <glyph glyph-name="ucircumflex" unicode="&#xfb;" horiz-adv-x="1134" 
d="M428 1174l-22 45l301 227h28l246 -227l-35 -45l-18 -3l-226 134l-256 -134zM336 319q0 -115 56 -175t163 -60q258 0 287 256q59 528 59 552t-8 37t-41 13l-68 -2l-2 6l21 78q121 -6 182 -6l168 14l-18 -80q-70 -10 -92 -25t-27 -63l-66 -528q-20 -170 -136 -262t-290 -92
q-342 0 -338 286q-2 29 35 314q37 284 37 308t-8 38t-43 14l-55 -2l-2 6l22 78q123 -6 190 -6l177 14l-17 -80q-59 -8 -82 -26t-30 -64l-70 -467q-4 -27 -4 -76z" />
    <glyph glyph-name="udieresis" unicode="&#xfc;" horiz-adv-x="1134" 
d="M549 1389q78 0 80 -84q0 -39 -34 -73t-75 -34q-78 0 -78 78q0 45 33 79t74 34zM878 1389q78 0 78 -84q1 -39 -33 -73t-75 -34q-78 0 -78 78q0 45 34 79t74 34zM336 319q0 -115 56 -175t163 -60q258 0 287 256q59 528 59 552t-8 37t-41 13l-68 -2l-2 6l21 78
q121 -6 182 -6l168 14l-18 -80q-70 -10 -92 -25t-27 -63l-66 -528q-20 -170 -136 -262t-290 -92q-342 0 -338 286q-2 29 35 314q37 284 37 308t-8 38t-43 14l-55 -2l-2 6l22 78q123 -6 190 -6l177 14l-17 -80q-59 -8 -82 -26t-30 -64l-70 -467q-4 -27 -4 -76z" />
    <glyph glyph-name="yacute" unicode="&#xfd;" horiz-adv-x="944" 
d="M903 1325l-8 -20q-207 -70 -422 -152l-16 10l-13 49l408 224l18 -13zM758 913q0 33 -92 39l-4 9l20 69l184 -12l154 6l6 -10l-20 -68q-88 -16 -148 -90q-33 -39 -160 -223q-127 -185 -133 -197t-12 -22t-25 -108q-20 -97 -20 -145q0 -49 9 -66t52 -17l80 4l2 -6l-22 -82
q-145 6 -225 6t-195 -18l20 79q88 17 115 49t36 120t9 134q0 44 -27 109l-110 295q-43 112 -71 140t-105 38l-4 8l20 70q111 -6 182 -6l238 14l4 -12l-14 -64q-76 -6 -101 -18t-25 -45t124 -387h10l213 323q35 51 35 84z" />
    <glyph glyph-name="thorn" unicode="&#xfe;" horiz-adv-x="927" 
d="M743 543q0 176 -262 176q-41 0 -43 -17q-12 -68 -59 -358q66 -25 156 -29q208 29 208 228zM586 807q319 0 319 -246q0 -125 -130 -226t-296 -102h-114q-11 -84 -11 -103q0 -20 10 -36t50 -16l86 6v-8l-21 -80q-145 4 -225 4t-193 -18l21 81q76 14 104 42t37 96
q86 674 86 693q0 20 -7 34t-44 14l-65 -2l-5 8l21 76l201 -4l196 14l-18 -82q-68 -10 -92 -26t-31 -60l-10 -59h131z" />
    <glyph glyph-name="ydieresis" unicode="&#xff;" horiz-adv-x="944" 
d="M463 1389q78 0 80 -84q0 -39 -34 -73t-75 -34q-78 0 -78 78q0 45 33 79t74 34zM792 1389q78 0 78 -84q1 -39 -33 -73t-75 -34q-78 0 -78 78q0 45 34 79t74 34zM758 913q0 33 -92 39l-4 9l20 69l184 -12l154 6l6 -10l-20 -68q-88 -16 -148 -90q-33 -39 -160 -223
q-127 -185 -133 -197t-12 -22t-25 -108q-20 -97 -20 -145q0 -49 9 -66t52 -17l80 4l2 -6l-22 -82q-145 6 -225 6t-195 -18l20 79q88 17 115 49t36 120t9 134q0 44 -27 109l-110 295q-43 112 -71 140t-105 38l-4 8l20 70q111 -6 182 -6l238 14l4 -12l-14 -64q-76 -6 -101 -18
t-25 -45t124 -387h10l213 323q35 51 35 84z" />
    <glyph glyph-name="Amacron" unicode="&#x100;" horiz-adv-x="1142" 
d="M1010 1614l10 -21l-27 -96l-563 -4l-10 18l33 93q186 -2 301 -2zM541 555q96 0 186 12l-90 547h-14l-256 -559h174zM572 481q-122 0 -253 -16l-100 -221q-29 -59 -29 -94q0 -74 109 -74h115v-6l-21 -84q-139 14 -270 14l-215 -6l26 92q59 6 98 40q38 34 79 120l507 1046
l115 35l17 2q90 -629 184 -1102q14 -77 50 -107t122 -40l4 -6l-23 -80q-141 6 -240 6t-259 -20l-4 14l16 74q113 8 151 28t37 74q0 27 -45 309q-49 2 -171 2z" />
    <glyph glyph-name="amacron" unicode="&#x101;" horiz-adv-x="1003" 
d="M909 1327l11 -20l-27 -97l-563 -4l-11 19l33 92q186 -2 301 -2zM481 440q70 0 144 9l-70 403h-14l-195 -412h135zM291 72h88v-6l-17 -76q-119 10 -225 10l-182 -4l22 82q45 4 76 30t62 89l403 813l137 28l15 -2q78 -510 151 -848q12 -61 40 -85t93 -29l4 -6l-18 -72
q-120 4 -194 4t-232 -14l-4 10l14 70q90 6 119 21t29 45t-33 228l-164 2q-68 0 -172 -12l-74 -157q-23 -43 -22 -68q0 -53 84 -53z" />
    <glyph glyph-name="Abreve" unicode="&#x102;" horiz-adv-x="1142" 
d="M724 1573q140 0 202 102h16l31 -20q-35 -85 -103 -143t-162 -58t-147 57t-67 144l36 20h17q37 -102 177 -102zM541 555q96 0 186 12l-90 547h-14l-256 -559h174zM572 481q-122 0 -253 -16l-100 -221q-29 -59 -29 -94q0 -74 109 -74h115v-6l-21 -84q-139 14 -270 14
l-215 -6l26 92q59 6 98 40q38 34 79 120l507 1046l115 35l17 2q90 -629 184 -1102q14 -77 50 -107t122 -40l4 -6l-23 -80q-141 6 -240 6t-259 -20l-4 14l16 74q113 8 151 28t37 74q0 27 -45 309q-49 2 -171 2z" />
    <glyph glyph-name="abreve" unicode="&#x103;" horiz-adv-x="1003" 
d="M444 1389q38 -103 178 -103t201 103h17l30 -21q-34 -86 -102 -143t-162 -57t-147 56q-53 58 -68 144l37 21h16zM481 440q70 0 144 9l-70 403h-14l-195 -412h135zM291 72h88v-6l-17 -76q-119 10 -225 10l-182 -4l22 82q45 4 76 30t62 89l403 813l137 28l15 -2
q78 -510 151 -848q12 -61 40 -85t93 -29l4 -6l-18 -72q-120 4 -194 4t-232 -14l-4 10l14 70q90 6 119 21t29 45t-33 228l-164 2q-68 0 -172 -12l-74 -157q-23 -43 -22 -68q0 -53 84 -53z" />
    <glyph glyph-name="Aogonek" unicode="&#x104;" horiz-adv-x="1142" 
d="M541 555q96 0 186 12l-90 547h-14l-256 -559h174zM805 -266q0 -109 114 -109q58 0 144 47l20 -39q-109 -94 -213 -129q-90 0 -143 45t-53 122t56 153t169 176h-18q-133 0 -293 -20l-4 14l16 74q113 8 151 28t37 74q0 27 -45 309q-49 2 -171 2t-253 -16l-100 -221
q-29 -59 -29 -94q0 -74 109 -74h115v-6l-21 -84q-139 14 -270 14l-215 -6l26 92q59 6 98 40q38 34 79 120l507 1046l115 35l17 2q90 -629 184 -1102q14 -77 50 -107t122 -40l4 -6l-23 -80l-102 4q-104 -98 -142 -154t-38 -110z" />
    <glyph glyph-name="aogonek" unicode="&#x105;" horiz-adv-x="1003" 
d="M481 440q70 0 144 9l-70 403h-14l-195 -412h135zM678 -267q0 -108 114 -108q58 0 144 47l20 -39q-109 -94 -213 -129q-90 0 -143 45t-53 122t56 153t169 176h-10q-90 0 -248 -14l-4 10l14 70q90 6 119 21t29 45t-33 228l-164 2q-68 0 -172 -12l-74 -157q-23 -43 -22 -68
q0 -53 84 -53h88v-6l-17 -76q-119 10 -225 10l-182 -4l22 82q45 4 76 30t62 89l403 813l137 28l15 -2q78 -510 151 -848q16 -86 76 -104h51l-10 -8q6 -2 16 -2l4 -6l-18 -72l-82 4q-104 -100 -142 -158t-38 -109z" />
    <glyph glyph-name="Cacute" unicode="&#x106;" horiz-adv-x="1234" 
d="M1139 1612l-9 -21q-207 -70 -421 -151l-17 10l-12 49l407 223l19 -12zM626 -25q-238 -1 -386 147q-147 148 -148 396q0 344 219 576t543 233q135 0 354 -47l6 -12q-57 -152 -92 -336l-88 -8q18 80 19 120q0 172 -269 173q-227 1 -370 -177t-144 -462q0 -234 104 -372
t285 -138q266 0 381 327l88 8q-63 -184 -94 -327l-12 -19q-158 -82 -396 -82z" />
    <glyph glyph-name="cacute" unicode="&#x107;" horiz-adv-x="1054" 
d="M975 1325l-8 -20q-207 -70 -422 -152l-17 10l-12 49l408 224l18 -13zM536 -18q-198 0 -319 116t-121 312q0 274 175 451t446 177q127 0 299 -39l6 -12q-47 -123 -76 -274l-94 -8q14 68 14 98q0 129 -207 129q-173 0 -281 -131t-108 -328t79 -297t218 -100q205 0 291 246
l94 8q-49 -152 -73 -269l-13 -16q-132 -63 -330 -63z" />
    <glyph glyph-name="Ccircumflex" unicode="&#x108;" horiz-adv-x="1234" 
d="M543 1438l-25 45l311 313h29l236 -313l-35 -45l-19 -2l-215 198l-264 -198zM626 -25q-238 -1 -386 147q-147 148 -148 396q0 344 219 576t543 233q135 0 354 -47l6 -12q-57 -152 -92 -336l-88 -8q18 80 19 120q0 172 -269 173q-227 1 -370 -177t-144 -462
q0 -234 104 -372t285 -138q266 0 381 327l88 8q-63 -184 -94 -327l-12 -19q-158 -82 -396 -82z" />
    <glyph glyph-name="ccircumflex" unicode="&#x109;" horiz-adv-x="1054" 
d="M412 1151l-25 45l311 313h29l236 -313l-35 -45l-19 -2l-215 199l-264 -199zM536 -18q-198 0 -319 116t-121 312q0 274 175 451t446 177q127 0 299 -39l6 -12q-47 -123 -76 -274l-94 -8q14 68 14 98q0 129 -207 129q-173 0 -281 -131t-108 -328t79 -297t218 -100
q205 0 291 246l94 8q-49 -152 -73 -269l-13 -16q-132 -63 -330 -63z" />
    <glyph glyph-name="Cdotaccent" unicode="&#x10a;" horiz-adv-x="1234" 
d="M876 1698q93 0 93 -100q0 -46 -39 -86t-88 -39q-96 0 -94 99q0 46 39 86q40 40 89 40zM626 -25q-238 -1 -386 147q-147 148 -148 396q0 344 219 576t543 233q135 0 354 -47l6 -12q-57 -152 -92 -336l-88 -8q18 80 19 120q0 172 -269 173q-227 1 -370 -177t-144 -462
q0 -234 104 -372t285 -138q266 0 381 327l88 8q-63 -184 -94 -327l-12 -19q-158 -82 -396 -82z" />
    <glyph glyph-name="cdotaccent" unicode="&#x10b;" horiz-adv-x="1054" 
d="M736 1411q95 0 93 -99q1 -46 -38 -86t-89 -40q-94 0 -94 99q0 46 40 86t88 40zM536 -18q-198 0 -319 116t-121 312q0 274 175 451t446 177q127 0 299 -39l6 -12q-47 -123 -76 -274l-94 -8q14 68 14 98q0 129 -207 129q-173 0 -281 -131t-108 -328t79 -297t218 -100
q205 0 291 246l94 8q-49 -152 -73 -269l-13 -16q-132 -63 -330 -63z" />
    <glyph glyph-name="Ccaron" unicode="&#x10c;" horiz-adv-x="1234" 
d="M1133 1714l24 -45l-303 -227h-27l-245 227l32 45l21 2l223 -133l256 133zM626 -25q-238 -1 -386 147q-147 148 -148 396q0 344 219 576t543 233q135 0 354 -47l6 -12q-57 -152 -92 -336l-88 -8q18 80 19 120q0 172 -269 173q-227 1 -370 -177t-144 -462q0 -234 104 -372
t285 -138q266 0 381 327l88 8q-63 -184 -94 -327l-12 -19q-158 -82 -396 -82z" />
    <glyph glyph-name="ccaron" unicode="&#x10d;" horiz-adv-x="1054" 
d="M989 1427l25 -45l-303 -227h-27l-246 227l33 45l21 3l223 -134l256 134zM536 -18q-198 0 -319 116t-121 312q0 274 175 451t446 177q127 0 299 -39l6 -12q-47 -123 -76 -274l-94 -8q14 68 14 98q0 129 -207 129q-173 0 -281 -131t-108 -328t79 -297t218 -100
q205 0 291 246l94 8q-49 -152 -73 -269l-13 -16q-132 -63 -330 -63z" />
    <glyph glyph-name="Dcaron" unicode="&#x10e;" horiz-adv-x="1380" 
d="M1075 1714l25 -45l-303 -227h-27l-246 227l33 45l21 2l223 -133l256 133zM610 1221q-41 1 -55 -9t-18 -36q-145 -909 -145 -976t49 -98q50 -31 184 -30q242 0 389 182t147 475q0 236 -141 364q-142 128 -410 128zM292 0q-92 0 -235 -25l23 88q94 19 131 55t47 122
q111 898 111 922q1 24 -9 41t-53 18l-69 -4l-2 8l22 84q129 -6 205 -6l278 8q264 0 430 -151t166 -377t-101 -409t-274 -291t-376 -108q-202 25 -294 25z" />
    <glyph glyph-name="dcaron" unicode="&#x10f;" horiz-adv-x="1175" 
d="M948 1427l25 -45l-303 -227h-27l-246 227l33 45l21 3l223 -134l256 134zM532 936q-31 0 -42 -7t-15 -30q-113 -651 -113 -716t38 -87t139 -20q186 0 299 137t112 362q0 176 -106 269q-107 92 -312 92zM259 0q-85 0 -191 -18l18 81q78 14 107 41t36 95q82 678 82 697
q0 18 -7 32t-40 14l-57 -2l-2 8l20 76q115 -6 176 -6l234 8q217 0 353 -116t136 -306q0 -260 -180 -441t-436 -181q-164 18 -249 18z" />
    <glyph glyph-name="Dcroat" unicode="&#x110;" horiz-adv-x="1400" 
d="M631 1221q-41 1 -55 -9t-19 -36l-78 -474h332l8 -14l-20 -65h-332q-55 -354 -55 -404q0 -86 50 -117t183 -30q242 0 389 182t148 475q0 236 -142 364t-409 128zM313 0q-92 0 -235 -25l22 88q94 19 131 55t48 122l47 383h-273l-12 14l22 65h273q53 436 53 460t-9 41
t-52 18l-70 -4l-2 8l23 84q129 -6 204 -6l279 8q264 0 430 -151t166 -377t-102 -409t-274 -291q-173 -108 -376 -108q-201 25 -293 25z" />
    <glyph glyph-name="dcroat" unicode="&#x111;" horiz-adv-x="1191" 
d="M553 936q-31 0 -42 -7t-15 -30l-60 -346h252l8 -10l-18 -66h-254q-41 -242 -41 -300t38 -80t138 -21q186 0 299 137t113 362q-1 177 -107 269t-311 92zM279 0q-85 0 -191 -18l18 81q78 14 107 41t37 95l33 278h-215l-11 10l21 66h215q39 324 39 343q0 18 -7 32t-40 14
l-58 -2l-2 8l21 76q115 -6 176 -6l233 8q217 0 353 -116t137 -306q-1 -260 -181 -441t-436 -181q-164 18 -249 18z" />
    <glyph glyph-name="Emacron" unicode="&#x112;" horiz-adv-x="1163" 
d="M1040 1614l11 -21l-27 -96l-563 -4l-10 18l32 93q186 -2 301 -2zM379 159q0 -47 29 -61q30 -14 138 -14t171 6t111 36t68 74q19 44 44 136l84 10l4 -10q-57 -168 -96 -340l-10 -10q-408 14 -566 14t-297 -20l23 88q90 12 127 48t47 124q113 898 113 922q1 24 -9 41
t-55 18l-67 -4l-2 6l22 86q152 -6 419 -6t441 24l4 -10q-51 -147 -86 -336l-90 -8q18 80 19 140q-1 59 -53 77t-194 18t-164 -11t-30 -69l-63 -407l203 -2l241 22l6 -8l-41 -115q-168 6 -260 6t-168 -14q-12 -84 -38 -244t-25 -207z" />
    <glyph glyph-name="emacron" unicode="&#x113;" horiz-adv-x="999" 
d="M930 1327l10 -20l-27 -97l-563 -4l-10 19l33 92q186 -2 301 -2zM541 477q-72 0 -140 -10q-7 -61 -27 -171t-20 -150t23 -51t92 -11q182 0 236 32q53 32 88 160l86 9l4 -11q-45 -135 -78 -274l-10 -10q-325 10 -465 10t-262 -16l20 82q72 8 100 36t39 99q84 676 84 695
q0 18 -7 32t-42 14l-53 -2l-4 8l20 76q137 -6 357 -6t370 20l4 -10q-41 -125 -69 -272l-92 -6q14 59 14 105t-42 59q-42 14 -151 14t-126 -9t-23 -51l-49 -297l162 -2l196 17l6 -8l-34 -105q-135 4 -207 4z" />
    <glyph glyph-name="Ebreve" unicode="&#x114;" horiz-adv-x="1163" 
d="M754 1599q139 0 204 136h19l29 -21q-35 -98 -103 -166t-164 -68t-148 68t-63 166l35 21h17q35 -136 174 -136zM379 159q0 -47 29 -61q30 -14 138 -14t171 6t111 36t68 74q19 44 44 136l84 10l4 -10q-57 -168 -96 -340l-10 -10q-408 14 -566 14t-297 -20l23 88
q90 12 127 48t47 124q113 898 113 922q1 24 -9 41t-55 18l-67 -4l-2 6l22 86q152 -6 419 -6t441 24l4 -10q-51 -147 -86 -336l-90 -8q18 80 19 140q-1 59 -53 77t-194 18t-164 -11t-30 -69l-63 -407l203 -2l241 22l6 -8l-41 -115q-168 6 -260 6t-168 -14q-12 -84 -38 -244
t-25 -207z" />
    <glyph glyph-name="ebreve" unicode="&#x115;" horiz-adv-x="999" 
d="M465 1389q37 -103 177 -103t202 103h16l31 -21q-35 -86 -103 -143t-162 -57t-148 56q-52 58 -66 144l37 21h16zM541 477q-72 0 -140 -10q-7 -61 -27 -171t-20 -150t23 -51t92 -11q182 0 236 32q53 32 88 160l86 9l4 -11q-45 -135 -78 -274l-10 -10q-325 10 -465 10
t-262 -16l20 82q72 8 100 36t39 99q84 676 84 695q0 18 -7 32t-42 14l-53 -2l-4 8l20 76q137 -6 357 -6t370 20l4 -10q-41 -125 -69 -272l-92 -6q14 59 14 105t-42 59q-42 14 -151 14t-126 -9t-23 -51l-49 -297l162 -2l196 17l6 -8l-34 -105q-135 4 -207 4z" />
    <glyph glyph-name="Edotaccent" unicode="&#x116;" horiz-adv-x="1163" 
d="M647 1572q0 46 39 86t88 40q96 0 94 -100q0 -46 -39 -86t-88 -39q-94 0 -94 99zM379 159q0 -47 29 -61q30 -14 138 -14t171 6t111 36t68 74q19 44 44 136l84 10l4 -10q-57 -168 -96 -340l-10 -10q-408 14 -566 14t-297 -20l23 88q90 12 127 48t47 124q113 898 113 922
q1 24 -9 41t-55 18l-67 -4l-2 6l22 86q152 -6 419 -6t441 24l4 -10q-51 -147 -86 -336l-90 -8q18 80 19 140q-1 59 -53 77t-194 18t-164 -11t-30 -69l-63 -407l203 -2l241 22l6 -8l-41 -115q-168 6 -260 6t-168 -14q-12 -84 -38 -244t-25 -207z" />
    <glyph glyph-name="edotaccent" unicode="&#x117;" horiz-adv-x="999" 
d="M663 1411q93 0 93 -99q0 -46 -39 -86t-88 -40q-96 0 -94 99q0 46 39 86q40 40 89 40zM541 477q-72 0 -140 -10q-7 -61 -27 -171t-20 -150t23 -51t92 -11q182 0 236 32q53 32 88 160l86 9l4 -11q-45 -135 -78 -274l-10 -10q-325 10 -465 10t-262 -16l20 82q72 8 100 36
t39 99q84 676 84 695q0 18 -7 32t-42 14l-53 -2l-4 8l20 76q137 -6 357 -6t370 20l4 -10q-41 -125 -69 -272l-92 -6q14 59 14 105t-42 59q-42 14 -151 14t-126 -9t-23 -51l-49 -297l162 -2l196 17l6 -8l-34 -105q-135 4 -207 4z" />
    <glyph glyph-name="Eogonek" unicode="&#x118;" horiz-adv-x="1163" 
d="M657 -265q1 -108 111 -108q54 0 147 47l21 -39q-109 -94 -213 -129q-90 0 -143 45t-54 121q0 76 54 149q53 73 159 171q-266 8 -403 8t-277 -20l23 88q90 12 127 48t47 124q113 898 113 922q1 24 -9 41t-55 18l-67 -4l-2 6l22 86q152 -6 419 -6t441 24l4 -10
q-51 -147 -86 -336l-90 -8q18 80 19 140q-1 59 -53 77t-194 18t-164 -11t-30 -69l-63 -407l203 -2l241 22l6 -8l-41 -115q-168 6 -260 6t-168 -14q-12 -84 -38 -244t-25 -207q0 -47 29 -61q30 -14 138 -14t171 6t111 36t68 74q19 44 44 136l84 10l4 -10q-57 -168 -96 -340
l-10 -10q-39 2 -97 4q-96 -94 -132 -148t-36 -107z" />
    <glyph glyph-name="eogonek" unicode="&#x119;" horiz-adv-x="999" 
d="M551 -265q0 -108 110 -108q54 0 148 47l20 -39q-109 -94 -213 -129q-90 0 -143 45t-53 121t54 151t163 173q-213 4 -329 4t-240 -16l20 82q72 8 100 36t39 99q84 676 84 695q0 18 -7 32t-42 14l-53 -2l-4 8l20 76q137 -6 357 -6t370 20l4 -10q-41 -125 -69 -272l-92 -6
q14 59 14 105t-42 59q-42 14 -151 14t-126 -9t-23 -51l-49 -297l162 -2l196 17l6 -8l-34 -105q-135 4 -207 4t-140 -10q-7 -61 -27 -171t-20 -150t23 -51t92 -11q182 0 236 32q53 32 88 160l86 9l4 -11q-45 -135 -78 -274l-10 -10q-29 2 -72 2q-98 -94 -135 -150t-37 -107z
" />
    <glyph glyph-name="Ecaron" unicode="&#x11a;" horiz-adv-x="1163" 
d="M1032 1714l25 -45l-303 -227h-27l-246 227l33 45l21 2l223 -133l256 133zM379 159q0 -47 29 -61q30 -14 138 -14t171 6t111 36t68 74q19 44 44 136l84 10l4 -10q-57 -168 -96 -340l-10 -10q-408 14 -566 14t-297 -20l23 88q90 12 127 48t47 124q113 898 113 922
q1 24 -9 41t-55 18l-67 -4l-2 6l22 86q152 -6 419 -6t441 24l4 -10q-51 -147 -86 -336l-90 -8q18 80 19 140q-1 59 -53 77t-194 18t-164 -11t-30 -69l-63 -407l203 -2l241 22l6 -8l-41 -115q-168 6 -260 6t-168 -14q-12 -84 -38 -244t-25 -207z" />
    <glyph glyph-name="ecaron" unicode="&#x11b;" horiz-adv-x="999" 
d="M918 1427l24 -45l-303 -227h-27l-245 227l32 45l21 3l223 -134l256 134zM541 477q-72 0 -140 -10q-7 -61 -27 -171t-20 -150t23 -51t92 -11q182 0 236 32q53 32 88 160l86 9l4 -11q-45 -135 -78 -274l-10 -10q-325 10 -465 10t-262 -16l20 82q72 8 100 36t39 99
q84 676 84 695q0 18 -7 32t-42 14l-53 -2l-4 8l20 76q137 -6 357 -6t370 20l4 -10q-41 -125 -69 -272l-92 -6q14 59 14 105t-42 59q-42 14 -151 14t-126 -9t-23 -51l-49 -297l162 -2l196 17l6 -8l-34 -105q-135 4 -207 4z" />
    <glyph glyph-name="Gcircumflex" unicode="&#x11c;" horiz-adv-x="1310" 
d="M516 1438l-24 45l311 313h28l236 -313l-35 -45l-18 -2l-215 198l-264 -198zM629 -25q-242 -1 -389 147t-148 396q0 344 219 576t543 233q135 0 354 -47l6 -12q-57 -152 -92 -336l-88 -8q18 80 19 120q0 172 -269 173q-227 1 -370 -177t-144 -462q0 -234 104 -372
t285 -138q72 0 142 19t102 40l33 20q33 279 33 307q1 28 -15 45t-84 17h-137l-2 8l29 97h6l190 -9h52l170 11l2 -41q-61 -41 -86 -198t-25 -234l2 -62l-12 -16q-78 -39 -199 -68t-231 -29z" />
    <glyph glyph-name="gcircumflex" unicode="&#x11d;" horiz-adv-x="1116" 
d="M395 1151l-24 45l311 313h29l235 -313l-35 -45l-18 -2l-215 199l-264 -199zM848 489q143 0 143 9l2 -41q-53 -33 -72 -158t-20 -182l2 -49l-12 -15q-147 -71 -352 -71t-325 114t-120 310q0 272 177 452t446 180q127 0 299 -39l6 -12q-47 -119 -78 -268l-90 -8
q14 63 14 96q0 127 -209 127q-175 0 -285 -132t-110 -353q0 -173 80 -275t206 -102t226 57q25 205 25 225q-1 20 -13 34t-63 13h-107l-4 9l27 84h6l45 -2h33l82 -3h41z" />
    <glyph glyph-name="Gbreve" unicode="&#x11e;" horiz-adv-x="1310" 
d="M828 1614q140 0 202 102h17l30 -20q-35 -86 -101 -144q-67 -57 -163 -57t-148 57t-67 144l37 20h16q37 -102 177 -102zM629 -25q-242 -1 -389 147t-148 396q0 344 219 576t543 233q135 0 354 -47l6 -12q-57 -152 -92 -336l-88 -8q18 80 19 120q0 172 -269 173
q-227 1 -370 -177t-144 -462q0 -234 104 -372t285 -138q72 0 142 19t102 40l33 20q33 279 33 307q1 28 -15 45t-84 17h-137l-2 8l29 97h6l190 -9h52l170 11l2 -41q-61 -41 -86 -198t-25 -234l2 -62l-12 -16q-78 -39 -199 -68t-231 -29z" />
    <glyph glyph-name="gbreve" unicode="&#x11f;" horiz-adv-x="1116" 
d="M518 1389q37 -103 177 -103t202 103h16l31 -21q-34 -86 -102 -143t-162 -57t-148 56q-54 58 -67 144l37 21h16zM848 489q143 0 143 9l2 -41q-53 -33 -72 -158t-20 -182l2 -49l-12 -15q-147 -71 -352 -71t-325 114t-120 310q0 272 177 452t446 180q127 0 299 -39l6 -12
q-47 -119 -78 -268l-90 -8q14 63 14 96q0 127 -209 127q-175 0 -285 -132t-110 -353q0 -173 80 -275t206 -102t226 57q25 205 25 225q-1 20 -13 34t-63 13h-107l-4 9l27 84h6l45 -2h33l82 -3h41z" />
    <glyph glyph-name="Gdotaccent" unicode="&#x120;" horiz-adv-x="1310" 
d="M848 1698q96 0 94 -100q0 -46 -39 -86t-88 -39q-96 0 -94 99q0 46 39 86t88 40zM629 -25q-242 -1 -389 147t-148 396q0 344 219 576t543 233q135 0 354 -47l6 -12q-57 -152 -92 -336l-88 -8q18 80 19 120q0 172 -269 173q-227 1 -370 -177t-144 -462q0 -234 104 -372
t285 -138q72 0 142 19t102 40l33 20q33 279 33 307q1 28 -15 45t-84 17h-137l-2 8l29 97h6l190 -9h52l170 11l2 -41q-61 -41 -86 -198t-25 -234l2 -62l-12 -16q-78 -39 -199 -68t-231 -29z" />
    <glyph glyph-name="gdotaccent" unicode="&#x121;" horiz-adv-x="1116" 
d="M720 1411q95 0 93 -99q0 -46 -39 -86t-88 -40q-96 0 -94 99q0 46 40 86t88 40zM848 489q143 0 143 9l2 -41q-53 -33 -72 -158t-20 -182l2 -49l-12 -15q-147 -71 -352 -71t-325 114t-120 310q0 272 177 452t446 180q127 0 299 -39l6 -12q-47 -119 -78 -268l-90 -8
q14 63 14 96q0 127 -209 127q-175 0 -285 -132t-110 -353q0 -173 80 -275t206 -102t226 57q25 205 25 225q-1 20 -13 34t-63 13h-107l-4 9l27 84h6l45 -2h33l82 -3h41z" />
    <glyph glyph-name="Gcommaaccent" unicode="&#x122;" horiz-adv-x="1310" 
d="M595 -137q48 0 80 -40t32 -106q0 -100 -78 -181t-185 -136l-36 31v20q63 39 105 95t42 108q0 78 -82 127l4 29q70 53 118 53zM629 -25q-242 -1 -389 147t-148 396q0 344 219 576t543 233q135 0 354 -47l6 -12q-57 -152 -92 -336l-88 -8q18 80 19 120q0 172 -269 173
q-227 1 -370 -177t-144 -462q0 -234 104 -372t285 -138q72 0 142 19t102 40l33 20q33 279 33 307q1 28 -15 45t-84 17h-137l-2 8l29 97h6l190 -9h52l170 11l2 -41q-61 -41 -86 -198t-25 -234l2 -62l-12 -16q-78 -39 -199 -68t-231 -29z" />
    <glyph glyph-name="gcommaaccent" unicode="&#x123;" horiz-adv-x="1116" 
d="M526 -137q48 0 79 -40q32 -40 32 -106q0 -100 -78 -181t-184 -136l-37 31v20q63 39 105 95t42 108q0 78 -82 127l5 29q70 53 118 53zM848 489q143 0 143 9l2 -41q-53 -33 -72 -158t-20 -182l2 -49l-12 -15q-147 -71 -352 -71t-325 114t-120 310q0 272 177 452t446 180
q127 0 299 -39l6 -12q-47 -119 -78 -268l-90 -8q14 63 14 96q0 127 -209 127q-175 0 -285 -132t-110 -353q0 -173 80 -275t206 -102t226 57q25 205 25 225q-1 20 -13 34t-63 13h-107l-4 9l27 84h6l45 -2h33l82 -3h41z" />
    <glyph glyph-name="Hcircumflex" unicode="&#x124;" horiz-adv-x="1480" 
d="M616 1491l-24 45l311 313h29l235 -313l-34 -45l-19 -2l-215 199l-264 -199zM1143 1165q0 19 -10 37t-54 19l-67 -4l-4 6l26 88q122 -8 194 -8t228 20l-16 -88q-76 -10 -105 -34t-39 -83q-139 -850 -139 -922q1 -72 17 -92t57 -20l90 6q2 -2 -27 -96q-158 6 -243 6h-64
q-68 0 -153 -4l26 88q92 2 127 44t51 177l37 316q-211 2 -303 2l-332 -23q-55 -395 -55 -427t2 -50q4 -37 70 -37l90 6l2 -8l-29 -90q0 6 -124 6t-230 -8t-109 -17l23 88q110 23 142 68t44 178q102 829 103 853t-9 41t-55 18l-65 -4l-4 6l24 88q141 -8 216 -8t206 20
l-16 -88q-88 -14 -113 -45t-41 -143l-53 -336l334 -2q127 0 297 20q53 416 53 436z" />
    <glyph glyph-name="hcircumflex" unicode="&#x125;" horiz-adv-x="1257" 
d="M473 1204l-24 45l311 314h28l236 -314l-35 -45l-18 -2l-215 199l-264 -199zM944 901q0 13 -8 27t-45 14l-53 -2l-4 8l20 76q0 -6 172 -6l201 16l-15 -80q-63 -8 -86 -26t-30 -64q-106 -635 -106 -695q0 -59 12 -75q13 -16 47 -16l69 4q2 -4 2 -6l-22 -80q-125 4 -201 4
h-55l-121 -2h-23l23 78q73 2 101 34t40 132l29 233h-229l-263 -16q-41 -289 -41 -335t58 -46l71 4q2 -4 2 -6l-24 -80q-90 4 -156 4q-65 0 -153 -6t-90 -12l20 79q86 17 112 51t35 132q78 635 78 653q0 17 -7 31t-44 14l-51 -2l-6 8l22 76q119 -6 181 -6l188 16l-14 -82
q-70 -8 -90 -31q-19 -24 -33 -106l-41 -250l258 -2q106 0 229 15q41 309 41 323z" />
    <glyph glyph-name="Hbar" unicode="&#x126;" horiz-adv-x="1480" 
d="M459 711l334 -2q127 0 297 20l24 191h-622zM396 0q-124 0 -230 -8t-109 -17l23 88q110 23 142 68t44 178l74 609h-199l-18 18l14 80q94 -2 215 -2q16 124 16 148t-8 41q-10 17 -55 18l-65 -4l-4 6l24 88q141 -8 216 -8t206 20l-16 -88q-88 -14 -113 -45t-41 -143l-6 -33
h342q184 0 278 2q16 129 17 149q0 19 -10 37t-54 19l-67 -4l-4 6l26 88q122 -8 194 -8t228 20l-16 -88q-76 -10 -105 -34t-40 -86t-15 -97l178 6l27 -27l-8 -75l-213 -2q-106 -658 -106 -728t16 -89t57 -19l90 6q2 -2 -27 -96q-158 6 -243 6h-64q-68 0 -153 -4l26 88
q92 2 127 44t51 177l37 316q-211 2 -303 2l-332 -23q-55 -395 -55 -427t2 -50q4 -37 70 -37l90 6l2 -8l-29 -90q0 6 -124 6z" />
    <glyph glyph-name="hbar" unicode="&#x127;" horiz-adv-x="1257" 
d="M416 565l258 -2q106 0 229 15l19 137h-482zM309 0q-65 0 -153 -6t-90 -12l20 79q86 17 112 51t35 132l58 469h-160l-16 14l12 68q76 -2 174 -2q10 86 10 104q0 17 -7 31t-44 14l-51 -2l-6 8l22 76q119 -6 181 -6l188 16l-14 -82q-70 -8 -89 -32t-38 -127h268q139 0 211 2
q12 92 12 106q0 13 -8 27t-45 14l-53 -2l-4 8l20 76q0 -6 172 -6l201 16l-15 -80q-63 -8 -86 -26t-30 -64l-13 -67l144 4l22 -21l-6 -63l-172 -2q-82 -487 -82 -547t13 -74q13 -16 47 -16l69 4q2 -4 2 -6l-22 -80q-125 4 -201 4h-55l-121 -2h-23l23 78q73 2 101 34t40 132
l29 233h-229l-263 -16q-41 -289 -41 -335t58 -46l71 4q2 -4 2 -6l-24 -80q-90 4 -156 4z" />
    <glyph glyph-name="Itilde" unicode="&#x128;" horiz-adv-x="710" 
d="M639 1663q41 0 117 86l24 27h13l41 -43l-3 -11l-172 -182l-32 -8q-35 0 -144 34t-132 33q-48 0 -140 -112h-14l-39 43l2 10l172 182l30 9q35 0 145 -34t132 -34zM475 1303q82 0 225 20l-20 -88q-84 -10 -116 -35t-40 -82q-143 -831 -143 -944q0 -48 17 -68t59 -20l104 6
l4 -8l-28 -90q-161 6 -253 6t-231 -25l25 88q94 17 132 55t48 124q111 894 111 918q-1 24 -11 42t-53 19l-84 -4q-2 4 -2 6l25 88h8l186 -8h37z" />
    <glyph glyph-name="itilde" unicode="&#x129;" horiz-adv-x="628" 
d="M284 1313q-48 0 -141 -113h-14l-39 43l2 10l172 183l31 8q34 0 144 -34q109 -34 141 -34t108 86l25 27h12l41 -43l-2 -10l-172 -183l-33 -8q-35 0 -143 34t-132 34zM356 145q0 -68 60 -67l82 4l4 -6l-25 -80q-141 4 -221 4t-193 -18l21 79q76 14 106 43t37 95
q84 680 84 697q0 18 -7 32t-44 14l-65 -2q-2 6 -2 8l20 76l199 -6l196 16l-18 -82q-66 -8 -90 -25t-33 -63q-111 -625 -111 -719z" />
    <glyph glyph-name="Imacron" unicode="&#x12a;" horiz-adv-x="710" 
d="M782 1614l11 -21l-27 -96l-563 -4l-10 18l32 93q186 -2 301 -2zM475 1303q82 0 225 20l-20 -88q-84 -10 -116 -35t-40 -82q-143 -831 -143 -944q0 -48 17 -68t59 -20l104 6l4 -8l-28 -90q-161 6 -253 6t-231 -25l25 88q94 17 132 55t48 124q111 894 111 918q-1 24 -11 42
t-53 19l-84 -4q-2 4 -2 6l25 88h8l186 -8h37z" />
    <glyph glyph-name="imacron" unicode="&#x12b;" horiz-adv-x="628" 
d="M715 1327l10 -20l-27 -97l-563 -4l-10 19l33 92q186 -2 301 -2zM356 145q0 -68 60 -67l82 4l4 -6l-25 -80q-141 4 -221 4t-193 -18l21 79q76 14 106 43t37 95q84 680 84 697q0 18 -7 32t-44 14l-65 -2q-2 6 -2 8l20 76l199 -6l196 16l-18 -82q-66 -8 -90 -25t-33 -63
q-111 -625 -111 -719z" />
    <glyph glyph-name="Ibreve" unicode="&#x12c;" horiz-adv-x="710" 
d="M471 1475q-94 0 -147 57t-68 143l37 21h16q37 -102 177 -102t202 102h17l30 -21q-35 -86 -103 -143t-161 -57zM475 1303q82 0 225 20l-20 -88q-84 -10 -116 -35t-40 -82q-143 -831 -143 -944q0 -48 17 -68t59 -20l104 6l4 -8l-28 -90q-161 6 -253 6t-231 -25l25 88
q94 17 132 55t48 124q111 894 111 918q-1 24 -11 42t-53 19l-84 -4q-2 4 -2 6l25 88h8l186 -8h37z" />
    <glyph glyph-name="ibreve" unicode="&#x12d;" horiz-adv-x="628" 
d="M250 1389q37 -103 177 -103t202 103h16l31 -21q-35 -86 -102 -143q-66 -57 -162 -57t-148 56q-52 58 -67 144l36 21h17zM356 145q0 -68 60 -67l82 4l4 -6l-25 -80q-141 4 -221 4t-193 -18l21 79q76 14 106 43t37 95q84 680 84 697q0 18 -7 32t-44 14l-65 -2q-2 6 -2 8
l20 76l199 -6l196 16l-18 -82q-66 -8 -90 -25t-33 -63q-111 -625 -111 -719z" />
    <glyph glyph-name="Iogonek" unicode="&#x12e;" horiz-adv-x="710" 
d="M270 -267q0 -108 114 -108q58 0 144 47l21 -39q-109 -94 -213 -129q-90 0 -143 45t-54 122q0 77 57 152q56 75 166 177h-81q-88 0 -228 -25l25 88q94 17 132 55t48 124q111 894 111 918q-1 24 -11 42t-53 19l-84 -4q-2 4 -2 6l25 88h8l186 -8h37q82 0 225 20l-20 -88
q-84 -10 -116 -35t-40 -82q-143 -831 -143 -944q0 -48 17 -68t59 -20l104 6l4 -8l-28 -90q-41 2 -88 4q-103 -98 -141 -156t-38 -109z" />
    <glyph glyph-name="iogonek" unicode="&#x12f;" horiz-adv-x="628" 
d="M223 -273q0 -106 109 -106q55 0 141 45l21 -37q-106 -92 -207 -125q-86 0 -137 43t-52 119q0 76 58 151q57 75 176 183h-72q-86 0 -197 -18l21 79q76 14 106 43t37 95q84 680 84 697q0 18 -7 32t-44 14l-65 -2q-2 6 -2 8l20 76l199 -6l196 16l-18 -82q-66 -8 -90 -25
t-33 -63q-111 -625 -111 -719q0 -68 60 -67l82 4l4 -6l-25 -80q-29 2 -63 2q-111 -104 -151 -162t-40 -109z" />
    <glyph glyph-name="Idotaccent" unicode="&#x130;" horiz-adv-x="710" 
d="M389 1572q0 46 39 86t88 40q96 0 94 -100q0 -46 -39 -86t-88 -39q-94 0 -94 99zM475 1303q82 0 225 20l-20 -88q-84 -10 -116 -35t-40 -82q-143 -831 -143 -944q0 -48 17 -68t59 -20l104 6l4 -8l-28 -90q-161 6 -253 6t-231 -25l25 88q94 17 132 55t48 124
q111 894 111 918q-1 24 -11 42t-53 19l-84 -4q-2 4 -2 6l25 88h8l186 -8h37z" />
    <glyph glyph-name="dotlessi" unicode="&#x131;" horiz-adv-x="628" 
d="M356 145q0 -68 60 -67l82 4l4 -6l-25 -80q-141 4 -221 4t-193 -18l21 79q76 14 106 43t37 95q84 680 84 697q0 18 -7 32t-44 14l-65 -2q-2 6 -2 8l20 76l199 -6l196 16l-18 -82q-66 -8 -90 -25t-33 -63q-111 -625 -111 -719z" />
    <glyph glyph-name="IJ" unicode="&#x132;" horiz-adv-x="1351" 
d="M1059 1160q0 24 -10 41t-54 18l-96 -9v7l23 86h211l225 18l-17 -86q-71 -10 -95 -32t-34 -85q-63 -377 -133 -876q-27 -209 -115 -336t-262 -199l-24 66l6 16q129 74 183 168t77 276q115 903 115 927zM475 1303q82 0 225 20l-20 -88q-84 -10 -116 -35t-40 -82
q-143 -831 -143 -944q0 -48 17 -68t59 -20l104 6l4 -8l-28 -90q-161 6 -253 6t-231 -25l25 88q94 17 132 55t48 124q111 894 111 918q-1 24 -11 42t-53 19l-84 -4q-2 4 -2 6l25 88h8l186 -8h37z" />
    <glyph glyph-name="ij" unicode="&#x133;" horiz-adv-x="1159" 
d="M1006 896q0 18 -8 32t-42 14l-77 -6l-2 8l20 74l180 2l201 12l-16 -80q-58 -8 -76 -23t-27 -65q-63 -371 -104 -684q-21 -162 -99 -260t-229 -153l-25 55l5 14q107 59 151 132t62 218q86 692 86 710zM356 145q0 -68 60 -67l82 4l4 -6l-25 -80q-141 4 -221 4t-193 -18
l21 79q76 14 106 43t37 95q84 680 84 697q0 18 -7 32t-44 14l-65 -2q-2 6 -2 8l20 76l199 -6l196 16l-18 -82q-66 -8 -90 -25t-33 -63q-111 -625 -111 -719z" />
    <glyph glyph-name="Jcircumflex" unicode="&#x134;" horiz-adv-x="643" 
d="M211 1438l-25 45l312 313h28l236 -313l-35 -45l-18 -2l-215 198l-265 -198zM348 1160q0 24 -10 41t-53 18l-97 -9v7l23 86h211l225 18l-16 -86q-71 -10 -95 -32t-34 -85q-63 -377 -133 -876q-27 -209 -116 -336t-261 -199l-25 66l6 16q129 74 184 168q53 94 76 276
q115 903 115 927z" />
    <glyph glyph-name="jcircumflex" unicode="&#x135;" horiz-adv-x="573" 
d="M145 1151l-24 45l311 313h29l235 -313l-34 -45l-19 -2l-215 199l-264 -199zM295 896q0 18 -7 32t-42 14l-78 -6l-2 8l20 74l181 2l200 12l-16 -80q-57 -8 -75 -23t-27 -65q-63 -371 -105 -684q-20 -162 -98 -260t-230 -153l-24 55l4 14q106 59 150 132t63 218
q86 692 86 710z" />
    <glyph glyph-name="Kcommaaccent" unicode="&#x136;" horiz-adv-x="1239" 
d="M572 -137q48 0 80 -40t32 -106q0 -100 -78 -181t-184 -136l-37 31v20q63 39 105 95t42 108q0 78 -81 127l4 29q69 53 117 53zM979 1169q0 49 -117 58l-4 8l25 84q139 -16 213 -16l178 8l4 -13l-21 -79q-53 -10 -100 -42t-147 -126l-365 -357l279 -452q61 -96 112 -136
t119 -38l6 -7l-18 -65q-141 -25 -162 -25q-96 0 -199 176l-286 498l4 27l405 387q74 71 74 110zM369 1162q1 24 -9 41t-55 18l-65 -4l-4 6l24 88q139 -8 215 -8t207 20l-16 -88q-76 -10 -107 -37t-41 -86l-133 -889q-6 -35 -6 -63t12 -52q12 -22 66 -22l90 6l4 -8l-31 -90
q-152 6 -239 6l-224 -2l31 88q94 10 127 39t43 117q111 896 111 920z" />
    <glyph glyph-name="kcommaaccent" unicode="&#x137;" horiz-adv-x="1069" 
d="M517 -137q48 0 80 -40t32 -106q0 -100 -78 -181t-184 -136l-37 31v20q63 39 105 95t42 108q0 78 -82 127l4 29q70 53 118 53zM821 905q0 35 -92 41l-4 8l20 76q121 -12 183 -12l157 8l5 -12l-19 -72q-45 -12 -86 -40t-121 -101l-272 -256l215 -342q47 -74 88 -105t96 -32
l6 -9l-16 -61q-127 -18 -147 -19q-84 0 -164 136l-228 391l4 24l316 287q59 55 59 90zM311 897q0 17 -7 31t-44 14l-51 -2l-6 8l22 76q129 -6 187 -6l184 16l-16 -82q-61 -8 -86 -28t-33 -66l-103 -672q-4 -24 -4 -48t10 -42t52 -18l71 4l5 -6l-25 -80q-135 4 -207 4
l-194 -2l26 78q76 10 102 32t33 91q84 680 84 698z" />
    <glyph glyph-name="kgreenlandic" unicode="&#x138;" horiz-adv-x="1069" 
d="M821 905q0 35 -92 41l-4 8l20 76q121 -12 183 -12l157 8l5 -12l-19 -72q-45 -12 -86 -40t-121 -101l-272 -256l215 -342q47 -74 88 -105t96 -32l6 -9l-16 -61q-127 -18 -147 -19q-84 0 -164 136l-228 391l4 24l316 287q59 55 59 90zM311 897q0 17 -7 31t-44 14l-51 -2
l-6 8l22 76q129 -6 187 -6l184 16l-16 -82q-61 -8 -86 -28t-33 -66l-103 -672q-4 -24 -4 -48t10 -42t52 -18l71 4l5 -6l-25 -80q-135 4 -207 4l-194 -2l26 78q76 10 102 32t33 91q84 680 84 698z" />
    <glyph glyph-name="Lacute" unicode="&#x139;" horiz-adv-x="999" 
d="M834 1612l-9 -21q-207 -70 -422 -151l-16 10l-12 49l407 223l19 -12zM366 0q-158 0 -288 -20l24 88q78 12 111 49t43 123q113 896 113 920q-1 24 -11 42t-53 19l-67 -4q-2 4 -2 6l24 88q147 -8 219 -8t203 20l-16 -86q-86 -14 -108 -42q-22 -27 -50 -179t-76 -466
q-47 -314 -47 -370t30 -76t126 -20q174 0 235 50t115 239l86 8l2 -8q-57 -182 -105 -381l-10 -10q-340 18 -498 18z" />
    <glyph glyph-name="lacute" unicode="&#x13a;" horiz-adv-x="872" 
d="M731 1325l-8 -20q-207 -70 -422 -152l-16 10l-13 49l408 224l18 -13zM358 156q0 -42 24 -56q24 -16 127 -16t153 41q49 41 90 188l88 11q0 -6 4 -11q-47 -152 -86 -317l-10 -10q-274 14 -412 14t-256 -16l22 82q63 10 91 37q27 28 34 98q84 676 84 695q0 18 -8 32t-43 14
l-53 -2l-4 8l20 76l191 -6l188 16l-16 -82q-74 -10 -92 -30t-41 -136t-59 -352t-36 -278z" />
    <glyph glyph-name="Lcommaaccent" unicode="&#x13b;" horiz-adv-x="999" 
d="M511 -137q48 0 80 -40t32 -106q0 -100 -78 -181t-185 -136l-36 31v20q63 39 105 95t42 108q0 78 -82 127l4 29q70 53 118 53zM366 0q-158 0 -288 -20l24 88q78 12 111 49t43 123q113 896 113 920q-1 24 -11 42t-53 19l-67 -4q-2 4 -2 6l24 88q147 -8 219 -8t203 20
l-16 -86q-86 -14 -108 -42q-22 -27 -50 -179t-76 -466q-47 -314 -47 -370t30 -76t126 -20q174 0 235 50t115 239l86 8l2 -8q-57 -182 -105 -381l-10 -10q-340 18 -498 18z" />
    <glyph glyph-name="lcommaaccent" unicode="&#x13c;" horiz-adv-x="872" 
d="M456 -137q48 0 80 -40t31 -106q0 -100 -78 -181t-184 -136l-37 31v20q63 39 106 95q42 56 42 108q0 78 -82 127l4 29q70 53 118 53zM358 156q0 -42 24 -56q24 -16 127 -16t153 41q49 41 90 188l88 11q0 -6 4 -11q-47 -152 -86 -317l-10 -10q-274 14 -412 14t-256 -16
l22 82q63 10 91 37q27 28 34 98q84 676 84 695q0 18 -8 32t-43 14l-53 -2l-4 8l20 76l191 -6l188 16l-16 -82q-74 -10 -92 -30t-41 -136t-59 -352t-36 -278z" />
    <glyph glyph-name="Lcaron" unicode="&#x13d;" horiz-adv-x="999" 
d="M366 0q-158 0 -288 -20l24 88q78 12 111 49t43 123q113 896 113 920q-1 24 -11 42t-53 19l-67 -4q-2 4 -2 6l24 88q147 -8 219 -8t203 20l-16 -86q-86 -14 -108 -42q-22 -27 -50 -179t-76 -466q-47 -314 -47 -370t30 -76t126 -20q174 0 235 50t115 239l86 8l2 -8
q-57 -182 -105 -381l-10 -10q-340 18 -498 18zM887 987q0 96 -15 283l144 28l14 -16q-29 -225 -72 -434l-51 -29l-22 4q2 68 2 164z" />
    <glyph glyph-name="lcaron" unicode="&#x13e;" horiz-adv-x="903" 
d="M358 156q0 -42 24 -56q24 -16 127 -16t153 41q49 41 90 188l88 11q0 -6 4 -11q-47 -152 -86 -317l-10 -10q-274 14 -412 14t-256 -16l22 82q63 10 91 37q27 28 34 98q84 676 84 695q0 18 -8 32t-43 14l-53 -2l-4 8l20 76l191 -6l188 16l-16 -82q-74 -10 -92 -30t-41 -136
t-59 -352t-36 -278zM760 743q0 75 -15 250l132 23l12 -15q-23 -174 -58 -339l-53 -25l-18 4v102z" />
    <glyph glyph-name="Ldot" unicode="&#x13f;" horiz-adv-x="999" 
d="M927 1090q109 0 107 -109q0 -51 -41 -93t-96 -42q-106 0 -104 109q0 51 40 93t94 42zM366 0q-158 0 -288 -20l24 88q78 12 111 49t43 123q113 896 113 920q-1 24 -11 42t-53 19l-67 -4q-2 4 -2 6l24 88q147 -8 219 -8t203 20l-16 -86q-86 -14 -108 -42q-22 -27 -50 -179
t-76 -466q-47 -314 -47 -370t30 -76t126 -20q174 0 235 50t115 239l86 8l2 -8q-57 -182 -105 -381l-10 -10q-340 18 -498 18z" />
    <glyph glyph-name="ldot" unicode="&#x140;" horiz-adv-x="940" 
d="M800 803q109 0 107 -109q0 -51 -41 -93t-96 -42q-106 0 -104 110q0 50 40 92t94 42zM358 156q0 -42 24 -56q24 -16 127 -16t153 41q49 41 90 188l88 11q0 -6 4 -11q-47 -152 -86 -317l-10 -10q-274 14 -412 14t-256 -16l22 82q63 10 91 37q27 28 34 98q84 676 84 695
q0 18 -8 32t-43 14l-53 -2l-4 8l20 76l191 -6l188 16l-16 -82q-74 -10 -92 -30t-41 -136t-59 -352t-36 -278z" />
    <glyph glyph-name="Lslash" unicode="&#x141;" horiz-adv-x="999" 
d="M366 0q-158 0 -288 -20l24 88q78 12 111 49t43 123l49 391l-207 -103l-18 7l-10 65l245 123q53 413 53 437t-10 42t-53 19l-67 -4q-2 4 -2 6l24 88q147 -8 219 -8t203 20l-16 -86q-86 -14 -108 -42t-46 -155l-45 -256l293 146l16 -10l10 -64l-333 -164q-68 -440 -68 -505
t30 -84t126 -19q174 0 235 50t115 239l86 8l2 -8q-57 -182 -105 -381l-10 -10q-340 18 -498 18z" />
    <glyph glyph-name="lslash" unicode="&#x142;" horiz-adv-x="872" 
d="M509 84q103 0 153 41q49 41 90 188l88 11q0 -6 4 -11q-47 -152 -86 -317l-10 -10q-274 14 -412 14t-256 -16l22 82q63 10 91 37q27 28 34 98l33 264l-135 -64l-16 5l-15 65l176 84q41 322 41 341q0 18 -8 32t-43 14l-53 -2l-4 8l20 76l191 -6l188 16l-16 -82
q-74 -10 -92 -30t-34 -98t-38 -210l246 117l14 -8l14 -66l-288 -135q-50 -307 -50 -357q0 -49 24 -65t127 -16z" />
    <glyph glyph-name="Nacute" unicode="&#x143;" horiz-adv-x="1415" 
d="M1184 1612l-8 -21q-207 -70 -422 -151l-17 10l-12 49l408 223l18 -12zM1124 1219h-22l-37 -2h-14l-4 8l28 86q117 -8 191 -8t186 18l-20 -90q-135 -18 -152 -129l-168 -1159l-51 -29q-297 602 -600 1155h-8l-123 -903q-6 -44 5 -62t46 -18h100l4 -6l-28 -88
q-119 8 -205 8l-182 -16l22 88q121 14 137 129q139 918 140 946q0 70 -160 86l-2 10l22 70q113 -10 166 -10l127 8q256 -516 543 -1037h8q106 864 107 875q0 70 -56 70z" />
    <glyph glyph-name="nacute" unicode="&#x144;" horiz-adv-x="1208" 
d="M1016 1325l-8 -20q-207 -70 -422 -152l-17 10l-12 49l408 224l18 -13zM979 889q0 53 -47 53l-60 -2l-4 8l25 78q106 -8 164 -8l168 14l-17 -82q-109 -14 -123 -100l-131 -887l-73 -22q-223 426 -469 841h-11l-88 -639q-4 -37 6 -51t39 -14h78l6 -6l-24 -78q-109 6 -178 6
l-164 -12l20 80q100 12 111 100q109 692 108 715q0 55 -129 67q-4 8 -4 11l19 65q96 -8 149 -8l117 8q195 -371 426 -764h8q78 619 78 627z" />
    <glyph glyph-name="Ncommaaccent" unicode="&#x145;" horiz-adv-x="1415" 
d="M646 -137q48 0 80 -40t32 -106q0 -100 -78 -181t-184 -136l-37 31v20q63 39 105 95t42 108q0 78 -82 127l4 29q70 53 118 53zM1124 1219h-22l-37 -2h-14l-4 8l28 86q117 -8 191 -8t186 18l-20 -90q-135 -18 -152 -129l-168 -1159l-51 -29q-297 602 -600 1155h-8
l-123 -903q-6 -44 5 -62t46 -18h100l4 -6l-28 -88q-119 8 -205 8l-182 -16l22 88q121 14 137 129q139 918 140 946q0 70 -160 86l-2 10l22 70q113 -10 166 -10l127 8q256 -516 543 -1037h8q106 864 107 875q0 70 -56 70z" />
    <glyph glyph-name="ncommaaccent" unicode="&#x146;" horiz-adv-x="1208" 
d="M572 -137q48 0 80 -40t32 -106q0 -100 -78 -181t-184 -136l-37 31v20q63 39 105 95t42 108q0 78 -81 127l4 29q69 53 117 53zM979 889q0 53 -47 53l-60 -2l-4 8l25 78q106 -8 164 -8l168 14l-17 -82q-109 -14 -123 -100l-131 -887l-73 -22q-223 426 -469 841h-11
l-88 -639q-4 -37 6 -51t39 -14h78l6 -6l-24 -78q-109 6 -178 6l-164 -12l20 80q100 12 111 100q109 692 108 715q0 55 -129 67q-4 8 -4 11l19 65q96 -8 149 -8l117 8q195 -371 426 -764h8q78 619 78 627z" />
    <glyph glyph-name="Ncaron" unicode="&#x147;" horiz-adv-x="1415" 
d="M1137 1714l24 -45l-303 -227h-27l-245 227l32 45l21 2l223 -133l256 133zM1124 1219h-22l-37 -2h-14l-4 8l28 86q117 -8 191 -8t186 18l-20 -90q-135 -18 -152 -129l-168 -1159l-51 -29q-297 602 -600 1155h-8l-123 -903q-6 -44 5 -62t46 -18h100l4 -6l-28 -88
q-119 8 -205 8l-182 -16l22 88q121 14 137 129q139 918 140 946q0 70 -160 86l-2 10l22 70q113 -10 166 -10l127 8q256 -516 543 -1037h8q106 864 107 875q0 70 -56 70z" />
    <glyph glyph-name="ncaron" unicode="&#x148;" horiz-adv-x="1208" 
d="M1004 1427l24 -45l-303 -227h-27l-245 227l32 45l21 3l223 -134l256 134zM979 889q0 53 -47 53l-60 -2l-4 8l25 78q106 -8 164 -8l168 14l-17 -82q-109 -14 -123 -100l-131 -887l-73 -22q-223 426 -469 841h-11l-88 -639q-4 -37 6 -51t39 -14h78l6 -6l-24 -78
q-109 6 -178 6l-164 -12l20 80q100 12 111 100q109 692 108 715q0 55 -129 67q-4 8 -4 11l19 65q96 -8 149 -8l117 8q195 -371 426 -764h8q78 619 78 627z" />
    <glyph glyph-name="Eng" unicode="&#x14a;" horiz-adv-x="1415" 
d="M1174 1145q0 70 -56 69l-74 -2l-4 9l31 92q125 -8 195 -8t192 16l-20 -94q-72 -8 -106 -39t-44 -90l-131 -922q-33 -200 -127 -314t-278 -177l-27 67l8 17q201 82 271 247q-242 489 -537 1031h-10q-119 -891 -119 -909t9 -34q9 -14 44 -14l98 4l5 -8l-29 -94
q-129 8 -211 8t-188 -16l22 94q68 6 98 42t47 134q129 860 129 887t-28 51t-127 37l-6 10l24 76q119 -10 162 -10l145 8q197 -406 529 -1016h10q103 838 103 848z" />
    <glyph glyph-name="eng" unicode="&#x14b;" horiz-adv-x="1210" 
d="M975 885q0 55 -47 55l-58 -2l-4 8l25 80q117 -6 168 -6l170 12l-19 -84q-59 -8 -86 -30t-32 -70l-103 -711q-27 -156 -107 -246t-239 -141l-27 55l7 15q162 66 215 190q-201 377 -422 762h-10l-87 -627q-5 -37 5 -51t41 -14l77 4l4 -8l-24 -82q-113 6 -197 6l-151 -12
l20 82q55 6 80 34t37 99q100 655 100 677t-22 40q-23 18 -105 28l-6 10l21 70q104 -8 145 -8l129 6q147 -285 418 -752h10q74 603 74 611z" />
    <glyph glyph-name="Omacron" unicode="&#x14c;" horiz-adv-x="1357" 
d="M1106 1614l10 -21l-26 -96l-564 -4l-10 18l33 93q186 -2 301 -2zM586 -25q-219 0 -357 152q-137 152 -137 393q0 332 212 570t509 237q223 0 365 -152q141 -153 141 -393q0 -334 -216 -570t-517 -237zM637 72q217 0 360 179t144 431t-105 392t-282 140q-210 0 -352 -181
t-142 -431t104 -390t273 -140z" />
    <glyph glyph-name="omacron" unicode="&#x14d;" horiz-adv-x="1155" 
d="M977 1327l10 -20l-26 -97l-564 -4l-10 19l33 92q186 -2 301 -2zM508 -18q-184 0 -298 118t-114 310q0 266 170 447t418 181q188 0 304 -118t116 -310q0 -266 -173 -447t-423 -181zM551 76q166 0 272 134t107 349q0 168 -81 269q-81 102 -229 102t-252 -135
q-106 -135 -106 -327t79 -292t210 -100z" />
    <glyph glyph-name="Obreve" unicode="&#x14e;" horiz-adv-x="1357" 
d="M791 1620q139 0 204 135h19l28 -20q-34 -98 -102 -166t-164 -68t-148 68t-63 166l35 20h16q36 -135 175 -135zM586 -25q-219 0 -357 152q-137 152 -137 393q0 332 212 570t509 237q223 0 365 -152q141 -153 141 -393q0 -334 -216 -570t-517 -237zM637 72q217 0 360 179
t144 431t-105 392t-282 140q-210 0 -352 -181t-142 -431t104 -390t273 -140z" />
    <glyph glyph-name="obreve" unicode="&#x14f;" horiz-adv-x="1155" 
d="M526 1389q37 -103 177 -103t202 103h17l30 -21q-34 -86 -102 -143t-162 -57t-147 56q-53 58 -68 144l37 21h16zM508 -18q-184 0 -298 118t-114 310q0 266 170 447t418 181q188 0 304 -118t116 -310q0 -266 -173 -447t-423 -181zM551 76q166 0 272 134t107 349
q0 168 -81 269q-81 102 -229 102t-252 -135q-106 -135 -106 -327t79 -292t210 -100z" />
    <glyph glyph-name="Ohungarumlaut" unicode="&#x150;" horiz-adv-x="1357" 
d="M1198 1599l-6 -18q-164 -82 -336 -178l-14 8l-21 43l314 242l18 -10zM911 1618l-6 -19q-164 -82 -336 -178l-16 11l-18 43l313 239l18 -8zM586 -25q-219 0 -357 152q-137 152 -137 393q0 332 212 570t509 237q223 0 365 -152q141 -153 141 -393q0 -334 -216 -570
t-517 -237zM637 72q217 0 360 179t144 431t-105 392t-282 140q-210 0 -352 -181t-142 -431t104 -390t273 -140z" />
    <glyph glyph-name="ohungarumlaut" unicode="&#x151;" horiz-adv-x="1155" 
d="M1049 1313l-7 -19q-164 -82 -335 -178l-15 8l-20 43l313 242l19 -10zM762 1331l-6 -18q-164 -82 -336 -178l-17 10l-18 43l313 239l19 -8zM508 -18q-184 0 -298 118t-114 310q0 266 170 447t418 181q188 0 304 -118t116 -310q0 -266 -173 -447t-423 -181zM551 76
q166 0 272 134t107 349q0 168 -81 269q-81 102 -229 102t-252 -135q-106 -135 -106 -327t79 -292t210 -100z" />
    <glyph glyph-name="OE" unicode="&#x152;" horiz-adv-x="1890" 
d="M639 82q174 0 260 78t113 266q72 563 71 592q0 102 -57 147t-265 45t-346 -179t-139 -458q1 -221 95 -356t268 -135zM1114 156q0 -32 18 -47q18 -17 134 -17q115 0 176 6t108 35t68 74q20 45 45 135l92 10l4 -10q-55 -170 -94 -344l-12 -12q-407 16 -557 16t-306 -13
t-217 -14q-213 0 -347 152t-134 391q0 338 207 575t500 236q63 0 214 -14t234 -15q401 0 602 29l6 -12q-53 -152 -88 -340l-100 -8q18 78 19 138q0 59 -52 77t-190 18t-158 -11t-31 -69l-65 -397l203 -2l243 22l6 -10l-43 -121q-168 6 -272 7l-156 -15l-53 -391
q-4 -27 -4 -59z" />
    <glyph glyph-name="oe" unicode="&#x153;" horiz-adv-x="1542" 
d="M527 76q136 0 203 57t89 197q55 436 55 456q0 76 -46 111t-208 35t-269 -136q-108 -136 -107 -354q-1 -168 73 -267t210 -99zM922 137q0 -27 15 -40t147 -13t185 32q52 32 89 160l86 9l2 -9q-41 -135 -74 -276l-12 -10q-328 12 -454 12t-252 -10t-177 -10
q-178 0 -290 118t-111 310q0 266 166 446t409 180q53 0 176 -10t322 -10t369 22l4 -10q-43 -125 -72 -272l-94 -8q14 59 14 105t-42 60q-42 15 -150 15t-123 -9q-16 -9 -23 -51l-51 -297l164 -2l196 17l7 -11l-35 -102q-135 4 -219 4l-127 -10q-45 -303 -45 -330z" />
    <glyph glyph-name="Racute" unicode="&#x154;" horiz-adv-x="1206" 
d="M1049 1612l-9 -21q-207 -70 -422 -151l-16 10l-12 49l407 223l19 -12zM575 1233q-18 0 -26 -8q-31 -37 -96 -553l200 -21q-47 -46 -86 -86h-133q-12 -88 -21 -156q-141 -145 -3 -18q-27 -200 -27 -233t10 -49q23 -29 117 -29l2 -6l-27 -82q-113 4 -204 6l-224 -6l29 88
q94 10 128 41t44 119q111 896 111 920q-1 24 -11 42t-53 19l-65 -4l-4 8l24 86q141 -8 215 -8l219 8q168 0 272 -77t103 -209q0 -132 -82 -244t-239 -181l174 -364q49 -98 97 -136t128 -39l6 -6l-18 -65l-166 -23q-49 0 -99 53q-49 53 -86 142l-163 403h-23q53 50 117 111
q186 109 192 319q0 238 -332 238zM567 565h31q-123 -116 -188 -174q1 9 3 18q55 57 154 156z" />
    <glyph glyph-name="racute" unicode="&#x155;" horiz-adv-x="1042" 
d="M909 1325l-8 -20q-207 -70 -422 -152l-16 10l-12 49l407 224l19 -13zM766 768q0 176 -260 176q-14 0 -23 -6q-20 -23 -71 -408l159 -16q86 35 113 64q26 30 54 68t28 122zM358 140q0 -30 14 -47t91 -19l2 -6l-23 -74q-106 4 -180 4l-196 -6l24 82q76 8 103 32t34 93
q84 680 84 698q0 17 -7 31t-42 14l-53 -2l-6 8l22 76q121 -6 183 -6l192 8q146 0 236 -61t90 -166q0 -223 -258 -334l135 -266q39 -76 79 -107t101 -31l6 -8l-16 -61l-150 -17q-90 0 -155 150l-127 305h-146q-37 -260 -37 -290z" />
    <glyph glyph-name="Rcommaaccent" unicode="&#x156;" horiz-adv-x="1206" 
d="M552 -137q48 0 80 -40t32 -106q0 -100 -78 -181t-185 -136l-36 31v20q63 39 105 95t42 108q0 78 -82 127l4 29q70 53 118 53zM575 1233q-18 0 -26 -8q-31 -37 -96 -553l200 -21q-47 -46 -86 -86h-133q-12 -88 -21 -156q-141 -145 -3 -18q-27 -200 -27 -233t10 -49
q23 -29 117 -29l2 -6l-27 -82q-113 4 -204 6l-224 -6l29 88q94 10 128 41t44 119q111 896 111 920q-1 24 -11 42t-53 19l-65 -4l-4 8l24 86q141 -8 215 -8l219 8q168 0 272 -77t103 -209q0 -132 -82 -244t-239 -181l174 -364q49 -98 97 -136t128 -39l6 -6l-18 -65l-166 -23
q-49 0 -99 53q-49 53 -86 142l-163 403h-23q53 50 117 111q186 109 192 319q0 238 -332 238zM567 565h31q-123 -116 -188 -174q1 9 3 18q55 57 154 156z" />
    <glyph glyph-name="rcommaaccent" unicode="&#x157;" horiz-adv-x="1042" 
d="M497 -137q48 0 80 -40t31 -106q0 -100 -78 -181t-184 -136l-37 31v20q63 39 106 95q42 56 42 108q0 78 -82 127l4 29q70 53 118 53zM766 768q0 176 -260 176q-14 0 -23 -6q-20 -23 -71 -408l159 -16q86 35 113 64q26 30 54 68t28 122zM358 140q0 -30 14 -47t91 -19l2 -6
l-23 -74q-106 4 -180 4l-196 -6l24 82q76 8 103 32t34 93q84 680 84 698q0 17 -7 31t-42 14l-53 -2l-6 8l22 76q121 -6 183 -6l192 8q146 0 236 -61t90 -166q0 -223 -258 -334l135 -266q39 -76 79 -107t101 -31l6 -8l-16 -61l-150 -17q-90 0 -155 150l-127 305h-146
q-37 -260 -37 -290z" />
    <glyph glyph-name="Rcaron" unicode="&#x158;" horiz-adv-x="1206" 
d="M1001 1714l25 -45l-303 -227h-27l-245 227l32 45l21 2l223 -133l256 133zM575 1233q-18 0 -26 -8q-31 -37 -96 -553l200 -21q-47 -46 -86 -86h-133q-12 -88 -21 -156q-141 -145 -3 -18q-27 -200 -27 -233t10 -49q23 -29 117 -29l2 -6l-27 -82q-113 4 -204 6l-224 -6
l29 88q94 10 128 41t44 119q111 896 111 920q-1 24 -11 42t-53 19l-65 -4l-4 8l24 86q141 -8 215 -8l219 8q168 0 272 -77t103 -209q0 -132 -82 -244t-239 -181l174 -364q49 -98 97 -136t128 -39l6 -6l-18 -65l-166 -23q-49 0 -99 53q-49 53 -86 142l-163 403h-23
q53 50 117 111q186 109 192 319q0 238 -332 238zM567 565h31q-123 -116 -188 -174q1 9 3 18q55 57 154 156z" />
    <glyph glyph-name="rcaron" unicode="&#x159;" horiz-adv-x="1042" 
d="M897 1427l25 -45l-304 -227h-26l-246 227l33 45l20 3l224 -134l256 134zM766 768q0 176 -260 176q-14 0 -23 -6q-20 -23 -71 -408l159 -16q86 35 113 64q26 30 54 68t28 122zM358 140q0 -30 14 -47t91 -19l2 -6l-23 -74q-106 4 -180 4l-196 -6l24 82q76 8 103 32t34 93
q84 680 84 698q0 17 -7 31t-42 14l-53 -2l-6 8l22 76q121 -6 183 -6l192 8q146 0 236 -61t90 -166q0 -223 -258 -334l135 -266q39 -76 79 -107t101 -31l6 -8l-16 -61l-150 -17q-90 0 -155 150l-127 305h-146q-37 -260 -37 -290z" />
    <glyph glyph-name="Sacute" unicode="&#x15a;" horiz-adv-x="1042" 
d="M981 1612l-8 -21q-207 -70 -422 -151l-16 10l-13 49l408 223l18 -12zM393 -25q-169 0 -319 68l-8 20q45 154 69 357l84 10q-10 -94 -10 -175t22 -122q39 -67 187 -67t235 70q86 70 86 179q0 74 -55 130q-56 55 -196 139t-191 133q-98 94 -100 205q0 168 137 286t338 119
q156 0 311 -49l4 -10q-49 -158 -84 -346l-74 -9l-10 11q23 90 23 162t-48 107q-48 34 -166 34q-118 -1 -199 -63t-81 -160t150 -205q35 -23 138 -85t171 -118q98 -82 98 -197q1 -182 -143 -303t-369 -121z" />
    <glyph glyph-name="sacute" unicode="&#x15b;" horiz-adv-x="903" 
d="M856 1325l-8 -20q-207 -70 -422 -152l-16 10l-13 49l408 224l18 -13zM346 -18q-139 0 -237 38l-33 15l-6 18q37 125 57 277l84 8q-8 -68 -8 -127t18 -90q33 -51 148 -51t181 49t66 117t-45 110t-165 108q-120 67 -177 124q-55 57 -55 135q0 137 117 231t269 94t282 -41
l4 -10q-41 -125 -70 -272l-74 -6l-10 8q16 66 17 119q0 52 -38 78t-130 26q-93 0 -155 -45t-62 -117t122 -151q27 -16 105 -58t153 -102q74 -59 74 -152q0 -145 -121 -239t-311 -94z" />
    <glyph glyph-name="Scircumflex" unicode="&#x15c;" horiz-adv-x="1042" 
d="M403 1438l-24 45l311 313h29l235 -313l-34 -45l-19 -2l-215 198l-264 -198zM393 -25q-169 0 -319 68l-8 20q45 154 69 357l84 10q-10 -94 -10 -175t22 -122q39 -67 187 -67t235 70q86 70 86 179q0 74 -55 130q-56 55 -196 139t-191 133q-98 94 -100 205q0 168 137 286
t338 119q156 0 311 -49l4 -10q-49 -158 -84 -346l-74 -9l-10 11q23 90 23 162t-48 107q-48 34 -166 34q-118 -1 -199 -63t-81 -160t150 -205q35 -23 138 -85t171 -118q98 -82 98 -197q1 -182 -143 -303t-369 -121z" />
    <glyph glyph-name="scircumflex" unicode="&#x15d;" horiz-adv-x="903" 
d="M305 1151l-24 45l311 313h29l235 -313l-35 -45l-18 -2l-215 199l-264 -199zM346 -18q-139 0 -237 38l-33 15l-6 18q37 125 57 277l84 8q-8 -68 -8 -127t18 -90q33 -51 148 -51t181 49t66 117t-45 110t-165 108q-120 67 -177 124q-55 57 -55 135q0 137 117 231t269 94
t282 -41l4 -10q-41 -125 -70 -272l-74 -6l-10 8q16 66 17 119q0 52 -38 78t-130 26q-93 0 -155 -45t-62 -117t122 -151q27 -16 105 -58t153 -102q74 -59 74 -152q0 -145 -121 -239t-311 -94z" />
    <glyph glyph-name="Scedilla" unicode="&#x15e;" horiz-adv-x="1042" 
d="M209 255q0 -81 22 -122q39 -67 187 -67t235 70q86 70 86 179q0 74 -55 130q-56 55 -196 139t-191 133q-98 94 -100 205q0 168 137 286t338 119q156 0 311 -49l4 -10q-49 -158 -84 -346l-74 -9l-10 11q23 90 23 162t-48 107q-48 34 -166 34q-118 -1 -199 -63t-81 -160
t150 -205q35 -23 138 -85t171 -118q98 -82 98 -197q0 -165 -119 -281t-309 -136l-37 -84q43 -29 78 -62q70 -66 70 -112q0 -78 -86 -140t-176 -61q-47 0 -87 19t-40 51t65 118h17v-34q-1 -27 23 -55t69 -28t76 24t30 58q0 53 -149 150l61 149q-167 0 -317 68l-8 20
q45 154 69 357l84 10q-10 -94 -10 -175z" />
    <glyph glyph-name="scedilla" unicode="&#x15f;" horiz-adv-x="903" 
d="M346 -18q-139 0 -237 38l-33 15l-6 18q37 125 57 277l84 8q-8 -68 -8 -127t18 -90q33 -51 148 -51t181 49t66 117t-45 110t-165 108q-120 67 -177 124q-55 57 -55 135q0 137 117 231t269 94t282 -41l4 -10q-41 -125 -70 -272l-74 -6l-10 8q16 66 17 119q0 52 -38 78
t-130 26q-93 0 -155 -45t-62 -117t122 -151q27 -16 105 -58t153 -102q74 -59 74 -168t-91 -198t-243 -111l-41 -92q43 -29 78 -62q70 -66 70 -112q0 -78 -86 -140t-176 -61q-47 0 -87 19t-40 51t65 118h17v-34q0 -27 24 -55t68 -28q45 0 76 24t30 58q0 53 -149 150l63 156
h-10z" />
    <glyph glyph-name="Scaron" unicode="&#x160;" horiz-adv-x="1042" 
d="M954 1714l25 -45l-303 -227h-27l-246 227l33 45l21 2l223 -133l256 133zM393 -25q-169 0 -319 68l-8 20q45 154 69 357l84 10q-10 -94 -10 -175t22 -122q39 -67 187 -67t235 70q86 70 86 179q0 74 -55 130q-56 55 -196 139t-191 133q-98 94 -100 205q0 168 137 286
t338 119q156 0 311 -49l4 -10q-49 -158 -84 -346l-74 -9l-10 11q23 90 23 162t-48 107q-48 34 -166 34q-118 -1 -199 -63t-81 -160t150 -205q35 -23 138 -85t171 -118q98 -82 98 -197q1 -182 -143 -303t-369 -121z" />
    <glyph glyph-name="scaron" unicode="&#x161;" horiz-adv-x="903" 
d="M856 1427l25 -45l-303 -227h-27l-246 227l33 45l20 3l224 -134l256 134zM346 -18q-139 0 -237 38l-33 15l-6 18q37 125 57 277l84 8q-8 -68 -8 -127t18 -90q33 -51 148 -51t181 49t66 117t-45 110t-165 108q-120 67 -177 124q-55 57 -55 135q0 137 117 231t269 94
t282 -41l4 -10q-41 -125 -70 -272l-74 -6l-10 8q16 66 17 119q0 52 -38 78t-130 26q-93 0 -155 -45t-62 -117t122 -151q27 -16 105 -58t153 -102q74 -59 74 -152q0 -145 -121 -239t-311 -94z" />
    <glyph glyph-name="Tcedilla" unicode="&#x162;" horiz-adv-x="1077" 
d="M1112 1094v-117l-90 -8q-2 73 -3 105t-14 68t-25 46t-55 23q-42 13 -81 15t-125 7q-31 -145 -95 -566t-65 -477q0 -56 23 -82q23 -24 73 -24l113 6l4 -8l-29 -88q-117 4 -213 6l-45 -102q43 -29 78 -62q70 -66 70 -112q0 -78 -86 -140t-176 -61q-47 0 -87 19t-40 51
t65 118h17v-34q0 -27 24 -55t68 -28q45 0 76 24t30 58q0 53 -149 150l71 174l-253 -8l24 82q139 14 174 53t55 205l109 901q-94 -4 -135 -6q-41 -3 -90 -15q-50 -12 -64 -22t-37 -46t-31 -66t-26 -101l-90 -8q45 174 72 344l20 14l156 -22h610l168 22l16 -14
q-12 -141 -12 -219z" />
    <glyph glyph-name="tcedilla" unicode="&#x163;" horiz-adv-x="933" 
d="M442 -102q148 -100 148 -176t-86 -138t-176 -61q-47 0 -87 19t-40 51t65 118h17v-34q-1 -27 23 -55t69 -28t76 24t30 58q0 53 -149 150l71 174l-225 -8l21 78q115 10 143 40t43 150l84 682q-160 -4 -197 -20q-55 -27 -96 -181l-90 -8q37 152 57 291l19 14l135 -18h502
l145 18l14 -14l-12 -283l-90 -8q-2 149 -37 177t-192 32q-23 -109 -72 -421t-49 -361q0 -82 80 -82l90 4l4 -6l-25 -82q-90 4 -168 6z" />
    <glyph glyph-name="Tcaron" unicode="&#x164;" horiz-adv-x="1077" 
d="M963 1714l24 -45l-303 -227h-27l-245 227l32 45l21 2l223 -133l256 133zM1112 1094v-117l-90 -8q-2 73 -3 105t-14 68t-25 46t-55 23q-42 13 -81 15t-125 7q-31 -145 -95 -566t-65 -477q0 -56 23 -82q23 -24 73 -24l113 6l4 -8l-29 -88q-193 6 -286 6l-264 -8l24 82
q139 14 174 53t55 205l109 901q-94 -4 -135 -6q-41 -3 -90 -15q-50 -12 -64 -22t-37 -46t-31 -66t-26 -101l-90 -8q45 174 72 344l20 14l156 -22h610l168 22l16 -14q-12 -141 -12 -219z" />
    <glyph glyph-name="tcaron" unicode="&#x165;" horiz-adv-x="933" 
d="M862 1427l25 -45l-303 -227h-27l-246 227l33 45l21 3l223 -134l256 134zM506 160q0 -82 80 -82l90 4l4 -6l-25 -82q-166 6 -245 6l-232 -8l21 78q115 10 143 40t43 150l84 682q-160 -4 -197 -20q-55 -27 -96 -181l-90 -8q37 152 57 291l19 14l135 -18h502l145 18l14 -14
l-12 -283l-90 -8q-2 149 -37 177t-192 32q-23 -109 -72 -421t-49 -361z" />
    <glyph glyph-name="Tbar" unicode="&#x166;" horiz-adv-x="1077" 
d="M1112 1094v-117l-90 -8q-2 73 -3 105t-14 68t-25 46t-55 23q-42 13 -81 15t-125 7q-29 -133 -86 -504l164 8l26 -26l-8 -76l-197 -2q-59 -385 -59 -443t23 -82t73 -24l113 6l4 -8l-29 -88q-193 6 -286 6l-264 -8l24 82q139 14 174 53t55 205l35 301l-182 -2l-18 18l14 80
l199 -2l61 506q-94 -4 -135 -6q-41 -3 -90 -15q-50 -12 -64 -22t-37 -46t-31 -66t-26 -101l-90 -8q45 174 72 344l20 14l156 -22h610l168 22l16 -14q-12 -141 -12 -219z" />
    <glyph glyph-name="tbar" unicode="&#x167;" horiz-adv-x="933" 
d="M506 160q0 -82 80 -82l90 4l4 -6l-25 -82q-166 6 -245 6l-232 -8l21 78q115 10 143 40t43 150l21 168l-189 -2l-18 18l14 80l203 -2l53 420q-160 -4 -197 -20q-55 -27 -96 -181l-90 -8q37 152 57 291l19 14l135 -18h502l145 18l14 -14l-12 -283l-90 -8q-2 149 -37 177
t-192 32q-25 -111 -72 -418l160 8l26 -26l-8 -76l-192 -2q-35 -223 -35 -268z" />
    <glyph glyph-name="Utilde" unicode="&#x168;" horiz-adv-x="1335" 
d="M958 1663q32 0 107 86l25 27h12l41 -43l-2 -11l-172 -182l-33 -8q-36 0 -144 34t-132 33q-48 0 -140 -112h-14l-39 43l2 10l172 182l31 9q34 0 144 -34t142 -34zM358 414q0 -330 298 -330q153 0 250 91t118 265q74 680 74 714t-9 50t-53 17l-88 -4v8l23 84q145 -6 219 -6
t192 20l-20 -88q-88 -10 -115 -32t-35 -85l-86 -696q-27 -211 -168 -329t-372 -118q-184 1 -282 97t-97 268q0 47 47 422q47 376 47 400t-10 41t-55 18l-68 -4l-2 8l24 84q143 -6 218 -6t206 20l-18 -88q-74 -10 -102 -34t-39 -83l-90 -602q-7 -55 -7 -102z" />
    <glyph glyph-name="utilde" unicode="&#x169;" horiz-adv-x="1134" 
d="M536 1313q-48 0 -141 -113h-14l-39 43l2 10l172 183l31 8q34 0 144 -34t132 -34q41 0 117 86l25 27h12l41 -43l-2 -10l-172 -183l-33 -8q-35 0 -143 34t-132 34zM336 319q0 -115 56 -175t163 -60q258 0 287 256q59 528 59 552t-8 37t-41 13l-68 -2l-2 6l21 78
q121 -6 182 -6l168 14l-18 -80q-70 -10 -92 -25t-27 -63l-66 -528q-20 -170 -136 -262t-290 -92q-342 0 -338 286q-2 29 35 314q37 284 37 308t-8 38t-43 14l-55 -2l-2 6l22 78q123 -6 190 -6l177 14l-17 -80q-59 -8 -82 -26t-30 -64l-70 -467q-4 -27 -4 -76z" />
    <glyph glyph-name="Umacron" unicode="&#x16a;" horiz-adv-x="1335" 
d="M1116 1614l10 -21l-26 -96l-563 -4l-11 18l33 93q186 -2 301 -2zM358 414q0 -330 298 -330q153 0 250 91t118 265q74 680 74 714t-9 50t-53 17l-88 -4v8l23 84q145 -6 219 -6t192 20l-20 -88q-88 -10 -115 -32t-35 -85l-86 -696q-27 -211 -168 -329t-372 -118
q-184 1 -282 97t-97 268q0 47 47 422q47 376 47 400t-10 41t-55 18l-68 -4l-2 8l24 84q143 -6 218 -6t206 20l-18 -88q-74 -10 -102 -34t-39 -83l-90 -602q-7 -55 -7 -102z" />
    <glyph glyph-name="umacron" unicode="&#x16b;" horiz-adv-x="1134" 
d="M985 1327l10 -20l-26 -97l-563 -4l-11 19l33 92q186 -2 301 -2zM336 319q0 -115 56 -175t163 -60q258 0 287 256q59 528 59 552t-8 37t-41 13l-68 -2l-2 6l21 78q121 -6 182 -6l168 14l-18 -80q-70 -10 -92 -25t-27 -63l-66 -528q-20 -170 -136 -262t-290 -92
q-342 0 -338 286q-2 29 35 314q37 284 37 308t-8 38t-43 14l-55 -2l-2 6l22 78q123 -6 190 -6l177 14l-17 -80q-59 -8 -82 -26t-30 -64l-70 -467q-4 -27 -4 -76z" />
    <glyph glyph-name="Ubreve" unicode="&#x16c;" horiz-adv-x="1335" 
d="M807 1620q139 0 205 135h18l29 -20q-35 -98 -103 -166t-164 -68t-148 68t-62 166l34 20h17q35 -135 174 -135zM358 414q0 -330 298 -330q153 0 250 91t118 265q74 680 74 714t-9 50t-53 17l-88 -4v8l23 84q145 -6 219 -6t192 20l-20 -88q-88 -10 -115 -32t-35 -85
l-86 -696q-27 -211 -168 -329t-372 -118q-184 1 -282 97t-97 268q0 47 47 422q47 376 47 400t-10 41t-55 18l-68 -4l-2 8l24 84q143 -6 218 -6t206 20l-18 -88q-74 -10 -102 -34t-39 -83l-90 -602q-7 -55 -7 -102z" />
    <glyph glyph-name="ubreve" unicode="&#x16d;" horiz-adv-x="1134" 
d="M485 1389q37 -103 177 -103t202 103h17l30 -21q-35 -86 -103 -143t-161 -57q-94 0 -147 56q-53 58 -68 144l37 21h16zM336 319q0 -115 56 -175t163 -60q258 0 287 256q59 528 59 552t-8 37t-41 13l-68 -2l-2 6l21 78q121 -6 182 -6l168 14l-18 -80q-70 -10 -92 -25
t-27 -63l-66 -528q-20 -170 -136 -262t-290 -92q-342 0 -338 286q-2 29 35 314q37 284 37 308t-8 38t-43 14l-55 -2l-2 6l22 78q123 -6 190 -6l177 14l-17 -80q-59 -8 -82 -26t-30 -64l-70 -467q-4 -27 -4 -76z" />
    <glyph glyph-name="Uring" unicode="&#x16e;" horiz-adv-x="1335" 
d="M850 1716q141 0 141 -146q0 -69 -54 -129t-128 -61q-145 0 -143 150q0 74 54 130t130 56zM821 1458q98 0 99 92q0 86 -91 86q-45 0 -71 -24t-25 -68q-1 -42 27 -64t61 -22zM358 414q0 -330 298 -330q153 0 250 91t118 265q74 680 74 714t-9 50t-53 17l-88 -4v8l23 84
q145 -6 219 -6t192 20l-20 -88q-88 -10 -115 -32t-35 -85l-86 -696q-27 -211 -168 -329t-372 -118q-184 1 -282 97t-97 268q0 47 47 422q47 376 47 400t-10 41t-55 18l-68 -4l-2 8l24 84q143 -6 218 -6t206 20l-18 -88q-74 -10 -102 -34t-39 -83l-90 -602q-7 -55 -7 -102z
" />
    <glyph glyph-name="uring" unicode="&#x16f;" horiz-adv-x="1134" 
d="M860 1283q0 -69 -54 -129t-128 -60q-145 0 -143 149q0 74 54 130t130 57q141 0 141 -147zM690 1171q98 0 98 93q0 86 -90 86q-44 0 -70 -25t-26 -68t28 -65t60 -21zM336 319q0 -115 56 -175t163 -60q258 0 287 256q59 528 59 552t-8 37t-41 13l-68 -2l-2 6l21 78
q121 -6 182 -6l168 14l-18 -80q-70 -10 -92 -25t-27 -63l-66 -528q-20 -170 -136 -262t-290 -92q-342 0 -338 286q-2 29 35 314q37 284 37 308t-8 38t-43 14l-55 -2l-2 6l22 78q123 -6 190 -6l177 14l-17 -80q-59 -8 -82 -26t-30 -64l-70 -467q-4 -27 -4 -76z" />
    <glyph glyph-name="Uhungarumlaut" unicode="&#x170;" horiz-adv-x="1335" 
d="M1270 1599l-6 -18q-164 -82 -336 -178l-15 8l-20 43l313 242l19 -10zM983 1618l-6 -19q-164 -82 -336 -178l-16 11l-19 43l314 239l18 -8zM358 414q0 -330 298 -330q153 0 250 91t118 265q74 680 74 714t-9 50t-53 17l-88 -4v8l23 84q145 -6 219 -6t192 20l-20 -88
q-88 -10 -115 -32t-35 -85l-86 -696q-27 -211 -168 -329t-372 -118q-184 1 -282 97t-97 268q0 47 47 422q47 376 47 400t-10 41t-55 18l-68 -4l-2 8l24 84q143 -6 218 -6t206 20l-18 -88q-74 -10 -102 -34t-39 -83l-90 -602q-7 -55 -7 -102z" />
    <glyph glyph-name="uhungarumlaut" unicode="&#x171;" horiz-adv-x="1134" 
d="M1102 1313l-6 -19q-164 -82 -336 -178l-15 8l-20 43l313 242l19 -10zM815 1331l-6 -18q-164 -82 -336 -178l-16 10l-19 43l314 239l18 -8zM336 319q0 -115 56 -175t163 -60q258 0 287 256q59 528 59 552t-8 37t-41 13l-68 -2l-2 6l21 78q121 -6 182 -6l168 14l-18 -80
q-70 -10 -92 -25t-27 -63l-66 -528q-20 -170 -136 -262t-290 -92q-342 0 -338 286q-2 29 35 314q37 284 37 308t-8 38t-43 14l-55 -2l-2 6l22 78q123 -6 190 -6l177 14l-17 -80q-59 -8 -82 -26t-30 -64l-70 -467q-4 -27 -4 -76z" />
    <glyph glyph-name="Uogonek" unicode="&#x172;" horiz-adv-x="1335" 
d="M657 84q152 0 249 91t118 265q74 680 74 714t-9 50t-53 17l-88 -4v8l23 84q145 -6 219 -6t192 20l-20 -88q-92 -15 -119 -35t-31 -82l-86 -696q-25 -197 -157 -330q-170 -172 -220 -240q-51 -68 -51 -120q0 -51 28 -78t82 -27t148 47l21 -39q-109 -94 -213 -129
q-90 0 -144 46t-53 124q0 117 209 324q-86 -25 -190 -25q-184 -1 -282 95t-97 270q0 47 47 422q47 376 47 400t-10 41t-55 18l-68 -4l-2 8l24 84q143 -6 218 -6t206 20l-18 -88q-76 -10 -104 -34t-37 -83l-90 -602q-6 -55 -7 -102q0 -330 299 -330z" />
    <glyph glyph-name="uogonek" unicode="&#x173;" horiz-adv-x="1134" 
d="M492 -252q0 92 165 250q-72 -16 -151 -16q-156 0 -238 74t-82 212q0 43 36 325t36 302q0 19 -8 33t-43 14l-55 -2l-2 6l22 78q123 -6 190 -6l177 14l-17 -80q-59 -8 -82 -26t-30 -64l-70 -467q-4 -27 -4 -76q0 -115 56 -175t163 -60q254 0 289 256q57 528 57 552t-8 37
t-41 13l-68 -2l-2 6l21 78q121 -6 182 -6l168 14l-18 -80q-72 -10 -94 -26t-25 -62l-66 -528q-18 -158 -140 -277t-163 -173t-41 -92t23 -58q55 -48 184 16l18 -35q-90 -76 -174 -102q-77 0 -121 36t-44 97z" />
    <glyph glyph-name="Wcircumflex" unicode="&#x174;" horiz-adv-x="1837" 
d="M803 1460l-23 45l301 228h29l246 -228l-35 -45l-18 -2l-226 133l-256 -133zM1005 1303q83 0 267 24l2 -14l-17 -76q-119 -7 -151 -25t-33 -63q0 -90 131 -959h13q25 53 122 258t208 442q110 236 110 273q0 63 -127 64h-98l-5 8l25 84q145 -16 270 -16l207 8l-24 -92
q-57 -3 -84 -21t-56 -78l-553 -1110l-116 -45l-140 885h-12l-387 -840l-121 -45q-88 590 -188 1137q-20 115 -162 117l-4 8l22 82q156 -6 248 -6t256 24l4 -14l-14 -76q-117 -7 -151 -25q-33 -18 -33 -86t129 -936h12q6 14 379 793q-8 20 -23 115q-25 115 -166 121l-2 8
l25 82q154 -6 237 -6z" />
    <glyph glyph-name="wcircumflex" unicode="&#x175;" horiz-adv-x="1560" 
d="M641 1174l-23 45l302 227h28l246 -227l-35 -45l-18 -3l-226 134l-256 -134zM308 1018q72 0 227 18l4 -12l-15 -70q-90 -6 -118 -20t-27 -53q0 -84 98 -715h15l290 606l-14 82q-16 86 -131 88l-2 8l20 74q131 -6 197 -6t235 18l5 -12l-17 -70q-92 -8 -119 -21t-26 -50
q0 -86 100 -717h14q18 40 72 152t92 191q36 79 104 223t68 169q0 45 -96 45h-76l-4 8l21 76q123 -12 223 -12l174 6l-20 -82q-45 -4 -67 -18t-44 -60l-430 -856l-139 -35l-107 656h-10l-293 -621l-141 -35q-76 485 -152 875q-18 92 -127 94l-4 8l21 74q127 -6 199 -6z" />
    <glyph glyph-name="Ycircumflex" unicode="&#x176;" horiz-adv-x="1064" 
d="M432 1460l-22 45l301 228h28l246 -228l-35 -45l-18 -2l-225 133l-256 -133zM399 1163q0 -72 158 -540h8l285 446q43 66 43 109q0 49 -117 57l-4 8l23 76q147 -16 213 -16l182 8l6 -13l-22 -71q-92 -17 -134 -55t-94 -117q-322 -479 -326 -489t-12 -34q-8 -23 -15 -41
t-15 -102q-29 -188 -29 -224t6 -50q12 -31 66 -31l96 6l4 -8l-29 -88q-160 6 -246 6t-221 -25l23 88q104 23 136 65t44 160t12 180t-30 148q-154 444 -159 458t-14 39q-9 26 -15 32q-5 6 -15 22q-11 17 -19 21t-21 14t-29 13t-34 7t-43 7l-4 8l23 74q121 -8 225 -8t266 18
l4 -14l-16 -68q-98 -9 -129 -25t-31 -51z" />
    <glyph glyph-name="ycircumflex" unicode="&#x177;" horiz-adv-x="944" 
d="M340 1174l-23 45l301 227h29l246 -227l-35 -45l-18 -3l-226 134l-256 -134zM758 913q0 33 -92 39l-4 9l20 69l184 -12l154 6l6 -10l-20 -68q-88 -16 -148 -90q-33 -39 -160 -223q-127 -185 -133 -197t-12 -22t-25 -108q-20 -97 -20 -145q0 -49 9 -66t52 -17l80 4l2 -6
l-22 -82q-145 6 -225 6t-195 -18l20 79q88 17 115 49t36 120t9 134q0 44 -27 109l-110 295q-43 112 -71 140t-105 38l-4 8l20 70q111 -6 182 -6l238 14l4 -12l-14 -64q-76 -6 -101 -18t-25 -45t124 -387h10l213 323q35 51 35 84z" />
    <glyph glyph-name="Ydieresis" unicode="&#x178;" horiz-adv-x="1064" 
d="M555 1675q78 0 80 -84q0 -38 -34 -72t-75 -34q-78 0 -77 78q1 45 33 79t73 33zM884 1675q77 0 79 -84q0 -38 -34 -72t-75 -34q-78 0 -78 78q0 45 34 79t74 33zM399 1163q0 -72 158 -540h8l285 446q43 66 43 109q0 49 -117 57l-4 8l23 76q147 -16 213 -16l182 8l6 -13
l-22 -71q-92 -17 -134 -55t-94 -117q-322 -479 -326 -489t-12 -34q-8 -23 -15 -41t-15 -102q-29 -188 -29 -224t6 -50q12 -31 66 -31l96 6l4 -8l-29 -88q-160 6 -246 6t-221 -25l23 88q104 23 136 65t44 160t12 180t-30 148q-154 444 -159 458t-14 39q-9 26 -15 32
q-5 6 -15 22q-11 17 -19 21t-21 14t-29 13t-34 7t-43 7l-4 8l23 74q121 -8 225 -8t266 18l4 -14l-16 -68q-98 -9 -129 -25t-31 -51z" />
    <glyph glyph-name="Zacute" unicode="&#x179;" horiz-adv-x="1118" 
d="M1042 1612l-8 -21q-207 -70 -422 -151l-16 10l-12 49l407 223l19 -12zM915 27l-32 -33l-705 12l-141 -12l-17 63l879 1164l-348 -13q-135 -2 -201 -64t-100 -220l-90 -9q57 207 84 394l22 18l342 -22l500 -15l14 -57q-436 -516 -905 -1159l408 14q102 2 175 84t128 258
l88 10q-68 -218 -101 -413z" />
    <glyph glyph-name="zacute" unicode="&#x17a;" horiz-adv-x="964" 
d="M907 1325l-8 -20q-207 -70 -422 -152l-16 10l-12 49l407 224l18 -13zM797 23l-29 -27l-594 8l-117 -10l-18 57l702 887l-264 -10q-109 -2 -159 -49t-78 -166l-90 -8q47 172 67 319l19 14l282 -18l426 -8l14 -51q-303 -342 -725 -885l316 12q82 2 139 64t100 196l89 10
q-55 -181 -80 -335z" />
    <glyph glyph-name="Zdotaccent" unicode="&#x17b;" horiz-adv-x="1118" 
d="M610 1572q0 46 39 86t88 40q96 0 94 -100q1 -46 -38 -86t-88 -39q-95 0 -95 99zM915 27l-32 -33l-705 12l-141 -12l-17 63l879 1164l-348 -13q-135 -2 -201 -64t-100 -220l-90 -9q57 207 84 394l22 18l342 -22l500 -15l14 -57q-436 -516 -905 -1159l408 14q102 2 175 84
t128 258l88 10q-68 -218 -101 -413z" />
    <glyph glyph-name="zdotaccent" unicode="&#x17c;" horiz-adv-x="964" 
d="M638 1411q95 0 93 -99q0 -46 -39 -86t-88 -40q-96 0 -94 99q0 46 40 86t88 40zM797 23l-29 -27l-594 8l-117 -10l-18 57l702 887l-264 -10q-109 -2 -159 -49t-78 -166l-90 -8q47 172 67 319l19 14l282 -18l426 -8l14 -51q-303 -342 -725 -885l316 12q82 2 139 64t100 196
l89 10q-55 -181 -80 -335z" />
    <glyph glyph-name="Zcaron" unicode="&#x17d;" horiz-adv-x="1118" 
d="M995 1714l25 -45l-303 -227h-27l-246 227l33 45l21 2l223 -133l256 133zM915 27l-32 -33l-705 12l-141 -12l-17 63l879 1164l-348 -13q-135 -2 -201 -64t-100 -220l-90 -9q57 207 84 394l22 18l342 -22l500 -15l14 -57q-436 -516 -905 -1159l408 14q102 2 175 84t128 258
l88 10q-68 -218 -101 -413z" />
    <glyph glyph-name="zcaron" unicode="&#x17e;" horiz-adv-x="964" 
d="M893 1427l25 -45l-304 -227h-26l-246 227l33 45l20 3l223 -134l256 134zM797 23l-29 -27l-594 8l-117 -10l-18 57l702 887l-264 -10q-109 -2 -159 -49t-78 -166l-90 -8q47 172 67 319l19 14l282 -18l426 -8l14 -51q-303 -342 -725 -885l316 12q82 2 139 64t100 196l89 10
q-55 -181 -80 -335z" />
    <glyph glyph-name="florin" unicode="&#x192;" horiz-adv-x="755" 
d="M39 -326q-61 0 -111 20t-51 51q0 30 12 80t25 62h23q23 -53 69 -91t100 -38q102 0 117 154l66 653q1 49 -19 59t-114 11l-9 12l15 70l143 20l21 199q12 127 98 208t205 81q74 0 136 -22q62 -21 62 -53t-12 -84t-24 -67h-27q-27 55 -81 97t-102 41q-48 1 -73 -17
q-26 -18 -44 -82t-18 -149l-14 -158l266 6l7 -6l-21 -108l-262 6l-62 -672q-12 -123 -108 -203t-213 -80z" />
    <glyph glyph-name="Aringacute" unicode="&#x1fa;" horiz-adv-x="1142" 
d="M971 1829l-6 -19q-186 -61 -381 -135l-15 8l-10 46l367 200l16 -12zM752 1673q129 0 129 -131q-1 -62 -50 -117t-115 -55q-132 0 -130 136q0 67 49 117t117 50zM727 1442q88 0 88 80t-84 80t-84 -84q-1 -36 25 -56t55 -20zM541 555q96 0 186 12l-90 547h-14l-256 -559
h174zM572 481q-122 0 -253 -16l-100 -221q-29 -59 -29 -94q0 -74 109 -74h115v-6l-21 -84q-139 14 -270 14l-215 -6l26 92q59 6 98 40q38 34 79 120l507 1046l115 35l17 2q90 -629 184 -1102q14 -77 50 -107t122 -40l4 -6l-23 -80q-141 6 -240 6t-259 -20l-4 14l16 74
q113 8 151 28t37 74q0 27 -45 309q-49 2 -171 2z" />
    <glyph glyph-name="aringacute" unicode="&#x1fb;" horiz-adv-x="1003" 
d="M842 1542l-6 -18q-186 -61 -381 -135l-15 8l-10 45l367 200l16 -12zM471 1220q0 66 49 116t117 50q129 0 129 -131q0 -61 -49 -116t-116 -56q-130 0 -130 137zM612 1155q88 0 88 80t-84 80t-84 -84q0 -37 26 -57t54 -19zM481 440q70 0 144 9l-70 403h-14l-195 -412h135z
M291 72h88v-6l-17 -76q-119 10 -225 10l-182 -4l22 82q45 4 76 30t62 89l403 813l137 28l15 -2q78 -510 151 -848q12 -61 40 -85t93 -29l4 -6l-18 -72q-120 4 -194 4t-232 -14l-4 10l14 70q90 6 119 21t29 45t-33 228l-164 2q-68 0 -172 -12l-74 -157q-23 -43 -22 -68
q0 -53 84 -53z" />
    <glyph glyph-name="AEacute" unicode="&#x1fc;" horiz-adv-x="1599" 
d="M1309 1735l-2 -23q-172 -131 -344 -287l-19 5l-41 38q150 162 307 355l21 -4zM436 635l309 22l-2 449h-18zM752 240v73l-4 254l-379 -35l-172 -286q-43 -72 -43 -106t22 -47t78 -13h111l-23 -94q-145 14 -270 14l-135 -8l-5 69q74 72 146 187l596 938q-6 33 -45 33
l-68 -5l-4 9l27 88q0 -6 374 -6t529 24l4 -12q-51 -150 -86 -338l-96 -8q18 78 18 137q0 60 -54 78q-53 18 -193 18t-167 -13t-26 -50l4 -471l237 22l185 27l8 -10l-39 -107l-170 -4l-221 -18l12 -351q2 -75 36 -107t121 -32q157 0 215 18t81 48q47 59 78 184l90 10l6 -10
q-57 -170 -96 -342l-11 -12q5 4 -247 9t-366 5t-275 -20l-3 14l13 78q95 6 151 51t56 117z" />
    <glyph glyph-name="aeacute" unicode="&#x1fd;" horiz-adv-x="1384" 
d="M1126 1448l-2 -23q-172 -131 -344 -286l-18 4l-41 39q150 162 307 354l21 -4zM403 498l240 18l-2 330h-18zM184 117q0 -23 18 -32t66 -9l80 -2l-20 -84q-135 10 -236 10l-112 -6l-3 69q13 -1 53 49t64 87l463 712q-6 29 -37 29l-53 -2l-6 8l22 78q158 -4 407 -4t388 18
l4 -10q-41 -127 -70 -274l-100 -9q14 59 14 105t-41 59q-41 15 -147 15t-126 -12t-21 -38l6 -339l180 18l153 25l11 -13l-33 -100l-143 -6l-166 -15l10 -247q2 -59 28 -84t87 -25q162 0 210 32t83 161l92 8l6 -10q-47 -135 -78 -279l-10 -10q10 10 -490 10q-106 0 -260 -14
l-4 10l12 74q162 11 162 120l2 56l-4 180l-158 -12l-145 -21l-125 -198q-33 -55 -33 -78z" />
    <glyph glyph-name="Oslashacute" unicode="&#x1fe;" horiz-adv-x="1357" 
d="M1077 1612l-8 -21q-207 -70 -422 -151l-16 10l-13 49l408 223l18 -12zM260 583q0 -269 137 -411l525 999q-80 43 -168 43q-212 0 -353 -181t-141 -450zM637 72q217 0 360 179t144 460q0 281 -160 419l-528 -1005q82 -53 184 -53zM92 520q0 332 212 570t509 237
q92 0 174 -29l80 152l59 -14l7 -25l-78 -143q123 -66 193 -194t71 -292q0 -334 -216 -570t-517 -237q-96 0 -193 37l-112 -213l-56 13l-4 20l109 211q-114 69 -176 193t-62 284z" />
    <glyph glyph-name="oslashacute" unicode="&#x1ff;" horiz-adv-x="1155" 
d="M936 1376l-8 -20q-207 -70 -422 -152l-17 10l-12 50l408 223l18 -12zM635 930q-162 0 -267 -135q-106 -135 -106 -332t88 -297l414 733q-61 31 -129 31zM551 76q166 0 272 134t107 342q0 208 -111 308l-420 -741q64 -43 152 -43zM684 1038q76 0 147 -22l66 117l55 -17
l4 -20l-61 -107q97 -53 153 -151t56 -228q0 -266 -173 -447t-423 -181q-84 0 -170 30l-98 -170l-52 15l-4 16l97 170q-184 115 -185 374q0 259 170 440t418 181z" />
    <glyph glyph-name="Scommaaccent" unicode="&#x218;" horiz-adv-x="1042" 
d="M415 -137q48 0 80 -40t31 -106q0 -100 -78 -181t-184 -136l-37 31v20q63 39 106 95q42 56 42 108q0 78 -82 127l4 29q70 53 118 53zM393 -25q-169 0 -319 68l-8 20q45 154 69 357l84 10q-10 -94 -10 -175t22 -122q39 -67 187 -67t235 70q86 70 86 179q0 74 -55 130
q-56 55 -196 139t-191 133q-98 94 -100 205q0 168 137 286t338 119q156 0 311 -49l4 -10q-49 -158 -84 -346l-74 -9l-10 11q23 90 23 162t-48 107q-48 34 -166 34q-118 -1 -199 -63t-81 -160t150 -205q35 -23 138 -85t171 -118q98 -82 98 -197q1 -182 -143 -303t-369 -121z
" />
    <glyph glyph-name="scommaaccent" unicode="&#x219;" horiz-adv-x="903" 
d="M382 -137q48 0 80 -40t32 -106q0 -100 -78 -181t-185 -136l-36 31v20q63 39 105 95t42 108q0 78 -82 127l4 29q70 53 118 53zM346 -18q-139 0 -237 38l-33 15l-6 18q37 125 57 277l84 8q-8 -68 -8 -127t18 -90q33 -51 148 -51t181 49t66 117t-45 110t-165 108
q-120 67 -177 124q-55 57 -55 135q0 137 117 231t269 94t282 -41l4 -10q-41 -125 -70 -272l-74 -6l-10 8q16 66 17 119q0 52 -38 78t-130 26q-93 0 -155 -45t-62 -117t122 -151q27 -16 105 -58t153 -102q74 -59 74 -152q0 -145 -121 -239t-311 -94z" />
    <glyph glyph-name="uni021A" unicode="&#x21a;" horiz-adv-x="1077" 
d="M460 -137q48 0 80 -40t31 -106q1 -100 -77 -181t-185 -136l-37 31v20q63 39 106 95q42 56 42 108q0 78 -82 127l4 29q70 53 118 53zM1112 1094v-117l-90 -8q-2 73 -3 105t-14 68t-25 46t-55 23q-42 13 -81 15t-125 7q-31 -145 -95 -566t-65 -477q0 -56 23 -82
q23 -24 73 -24l113 6l4 -8l-29 -88q-193 6 -286 6l-264 -8l24 82q139 14 174 53t55 205l109 901q-94 -4 -135 -6q-41 -3 -90 -15q-50 -12 -64 -22t-37 -46t-31 -66t-26 -101l-90 -8q45 174 72 344l20 14l156 -22h610l168 22l16 -14q-12 -141 -12 -219z" />
    <glyph glyph-name="uni021B" unicode="&#x21b;" horiz-adv-x="933" 
d="M419 -137q48 0 80 -40t31 -106q0 -100 -78 -181t-184 -136l-37 31v20q63 39 106 95q42 56 42 108q0 78 -82 127l4 29q70 53 118 53zM506 160q0 -82 80 -82l90 4l4 -6l-25 -82q-166 6 -245 6l-232 -8l21 78q115 10 143 40t43 150l84 682q-160 -4 -197 -20
q-55 -27 -96 -181l-90 -8q37 152 57 291l19 14l135 -18h502l145 18l14 -14l-12 -283l-90 -8q-2 149 -37 177t-192 32q-23 -109 -72 -421t-49 -361z" />
    <glyph glyph-name="dotlessj" unicode="&#x237;" horiz-adv-x="573" 
d="M295 896q0 18 -7 32t-42 14l-78 -6l-2 8l20 74l181 2l200 12l-16 -80q-57 -8 -75 -23t-27 -65q-63 -371 -105 -684q-20 -162 -98 -260t-230 -153l-24 55l4 14q106 59 150 132t63 218q86 692 86 710z" />
    <glyph glyph-name="circumflex" unicode="&#x2c6;" 
d="M211 1081l-25 45l312 314h28l236 -314l-35 -45l-18 -2l-215 199l-265 -199z" />
    <glyph glyph-name="caron" unicode="&#x2c7;" 
d="M209 1405l39 47l16 2q96 -98 225 -207q201 145 277 207l16 -2l27 -47q-135 -131 -328 -328h-26q-129 183 -246 328z" />
    <glyph glyph-name="breve" unicode="&#x2d8;" 
d="M492 1262q139 0 204 135h19l28 -21q-35 -98 -103 -166t-163 -68q-96 0 -148 68t-63 166l35 21h16q36 -135 175 -135z" />
    <glyph glyph-name="dotaccent" unicode="&#x2d9;" 
d="M518 1458q96 0 94 -99q0 -46 -40 -86t-88 -40q-93 0 -93 99q0 46 39 86t88 40z" />
    <glyph glyph-name="ring" unicode="&#x2da;" 
d="M330 1264q0 74 54 130t130 56q143 0 141 -146q0 -69 -54 -129t-128 -61q-143 0 -143 150zM485 1192q98 0 99 92q0 86 -90 86q-45 0 -71 -24t-26 -68q-1 -42 27 -64t61 -22z" />
    <glyph glyph-name="ogonek" unicode="&#x2db;" 
d="M217 -260q0 -113 110 -113q54 0 148 47l21 -39q-109 -94 -213 -129q-91 0 -144 45t-53 114q0 119 135 249q96 98 182 172h84q-166 -158 -218 -224t-52 -122z" />
    <glyph glyph-name="tilde" unicode="&#x2dc;" 
d="M349 1241q-43 0 -140 -113h-14l-39 43l2 11l172 182l30 8q35 0 145 -34t134 -33q43 0 115 84l24 28h13l40 -43l-2 -10l-172 -182l-32 -8q-35 0 -144 34t-132 33z" />
    <glyph glyph-name="hungarumlaut" unicode="&#x2dd;" 
d="M866 1360l-4 -19q-156 -113 -317 -247l-19 4l-32 37l286 309l19 -6zM604 1360l-4 -19q-156 -113 -317 -247l-19 4l-33 37l287 309l19 -6z" />
    <glyph glyph-name="dotbelowcomb" unicode="&#x323;" horiz-adv-x="774" 
d="M420 -259q0 -52 -40 -93t-95 -41q-107 0 -107 109q0 50 40 92t94 42q108 0 108 -109z" />
    <glyph glyph-name="Delta" unicode="&#x394;" horiz-adv-x="1064" 
d="M608 1106h-14l-463 -989h633zM-20 0l-17 27l612 1267l140 35h16q127 -854 219 -1315l-16 -14h-954z" />
    <glyph glyph-name="Delta" unicode="&#x2206;" horiz-adv-x="1064" 
d="M608 1106h-14l-463 -989h633zM-20 0l-17 27l612 1267l140 35h16q127 -854 219 -1315l-16 -14h-954z" />
    <glyph glyph-name="Omega" unicode="&#x3a9;" horiz-adv-x="1671" 
d="M317 115h179q-114 105 -178 249t-64 293q0 279 202 476t484 196q234 0 382 -140t148 -353q0 -212 -114 -404t-301 -317h207q94 0 141 48t86 183l84 10q-61 -188 -82 -336l-35 -32l-500 28l-84 -12l-8 43q231 190 325 355q93 165 93 366q0 202 -97 320t-261 118
q-215 0 -355 -152q-139 -153 -139 -401q0 -174 66 -336t184 -268l-21 -47l-81 14l-486 -28l-29 32q14 140 5 326l79 10q2 -139 38 -190t132 -51z" />
    <glyph glyph-name="Omega" unicode="&#x2126;" horiz-adv-x="1671" 
d="M317 115h179q-114 105 -178 249t-64 293q0 279 202 476t484 196q234 0 382 -140t148 -353q0 -212 -114 -404t-301 -317h207q94 0 141 48t86 183l84 10q-61 -188 -82 -336l-35 -32l-500 28l-84 -12l-8 43q231 190 325 355q93 165 93 366q0 202 -97 320t-261 118
q-215 0 -355 -152q-139 -153 -139 -401q0 -174 66 -336t184 -268l-21 -47l-81 14l-486 -28l-29 32q14 140 5 326l79 10q2 -139 38 -190t132 -51z" />
    <glyph glyph-name="pi" unicode="&#x3c0;" horiz-adv-x="1181" 
d="M227 1034l703 -20q74 0 262 20l10 -14l-33 -94l-14 -15q-131 0 -173 -20t-56 -91t-32 -160t-40 -200q-23 -111 -23 -184q0 -150 160 -150l10 -14q-2 -16 -48 -66t-58 -51q-205 0 -205 199q0 33 44 338t44 335t-19 44t-125 14t-130 -15q-25 -15 -37 -87
q-70 -381 -117 -758l-18 -207l-10 -14l-152 -33l-10 25q14 24 87 484t72 517q0 57 -16 73t-49 15q-60 0 -141 -135l-15 -2l-47 37v14l146 201z" />
    <glyph glyph-name="Wgrave" unicode="&#x1e80;" horiz-adv-x="1837" 
d="M778 1591l-8 21l33 98l18 12q215 -123 408 -223l-12 -49l-17 -10zM1005 1303q83 0 267 24l2 -14l-17 -76q-119 -7 -151 -25t-33 -63q0 -90 131 -959h13q25 53 122 258t208 442q110 236 110 273q0 63 -127 64h-98l-5 8l25 84q145 -16 270 -16l207 8l-24 -92
q-57 -3 -84 -21t-56 -78l-553 -1110l-116 -45l-140 885h-12l-387 -840l-121 -45q-88 590 -188 1137q-20 115 -162 117l-4 8l22 82q156 -6 248 -6t256 24l4 -14l-14 -76q-117 -7 -151 -25q-33 -18 -33 -86t129 -936h12q6 14 379 793q-8 20 -23 115q-25 115 -166 121l-2 8
l25 82q154 -6 237 -6z" />
    <glyph glyph-name="wgrave" unicode="&#x1e81;" horiz-adv-x="1560" 
d="M635 1305l-8 20l32 98l19 13q215 -123 407 -224l-12 -49l-16 -10zM308 1018q72 0 227 18l4 -12l-15 -70q-90 -6 -118 -20t-27 -53q0 -84 98 -715h15l290 606l-14 82q-16 86 -131 88l-2 8l20 74q131 -6 197 -6t235 18l5 -12l-17 -70q-92 -8 -119 -21t-26 -50
q0 -86 100 -717h14q18 40 72 152t92 191q36 79 104 223t68 169q0 45 -96 45h-76l-4 8l21 76q123 -12 223 -12l174 6l-20 -82q-45 -4 -67 -18t-44 -60l-430 -856l-139 -35l-107 656h-10l-293 -621l-141 -35q-76 485 -152 875q-18 92 -127 94l-4 8l21 74q127 -6 199 -6z" />
    <glyph glyph-name="Wacute" unicode="&#x1e82;" horiz-adv-x="1837" 
d="M1399 1612l-8 -21q-207 -70 -422 -151l-17 10l-12 49l408 223l18 -12zM1005 1303q83 0 267 24l2 -14l-17 -76q-119 -7 -151 -25t-33 -63q0 -90 131 -959h13q25 53 122 258t208 442q110 236 110 273q0 63 -127 64h-98l-5 8l25 84q145 -16 270 -16l207 8l-24 -92
q-57 -3 -84 -21t-56 -78l-553 -1110l-116 -45l-140 885h-12l-387 -840l-121 -45q-88 590 -188 1137q-20 115 -162 117l-4 8l22 82q156 -6 248 -6t256 24l4 -14l-14 -76q-117 -7 -151 -25q-33 -18 -33 -86t129 -936h12q6 14 379 793q-8 20 -23 115q-25 115 -166 121l-2 8
l25 82q154 -6 237 -6z" />
    <glyph glyph-name="wacute" unicode="&#x1e83;" horiz-adv-x="1560" 
d="M1204 1325l-8 -20q-207 -70 -422 -152l-16 10l-13 49l408 224l18 -13zM308 1018q72 0 227 18l4 -12l-15 -70q-90 -6 -118 -20t-27 -53q0 -84 98 -715h15l290 606l-14 82q-16 86 -131 88l-2 8l20 74q131 -6 197 -6t235 18l5 -12l-17 -70q-92 -8 -119 -21t-26 -50
q0 -86 100 -717h14q18 40 72 152t92 191q36 79 104 223t68 169q0 45 -96 45h-76l-4 8l21 76q123 -12 223 -12l174 6l-20 -82q-45 -4 -67 -18t-44 -60l-430 -856l-139 -35l-107 656h-10l-293 -621l-141 -35q-76 485 -152 875q-18 92 -127 94l-4 8l21 74q127 -6 199 -6z" />
    <glyph glyph-name="Wdieresis" unicode="&#x1e84;" horiz-adv-x="1837" 
d="M926 1675q78 0 80 -84q0 -38 -34 -72t-75 -34q-78 0 -78 78q0 45 33 79t74 33zM1254 1675q79 0 79 -84q0 -38 -34 -72t-74 -34q-78 0 -78 78q0 45 34 79t73 33zM1005 1303q83 0 267 24l2 -14l-17 -76q-119 -7 -151 -25t-33 -63q0 -90 131 -959h13q25 53 122 258t208 442
q110 236 110 273q0 63 -127 64h-98l-5 8l25 84q145 -16 270 -16l207 8l-24 -92q-57 -3 -84 -21t-56 -78l-553 -1110l-116 -45l-140 885h-12l-387 -840l-121 -45q-88 590 -188 1137q-20 115 -162 117l-4 8l22 82q156 -6 248 -6t256 24l4 -14l-14 -76q-117 -7 -151 -25
q-33 -18 -33 -86t129 -936h12q6 14 379 793q-8 20 -23 115q-25 115 -166 121l-2 8l25 82q154 -6 237 -6z" />
    <glyph glyph-name="wdieresis" unicode="&#x1e85;" horiz-adv-x="1560" 
d="M1093 1389q78 0 78 -84q1 -39 -33 -73t-75 -34q-78 0 -78 78q0 45 34 79t74 34zM764 1389q78 0 80 -84q0 -39 -34 -73t-75 -34q-78 0 -78 78q0 45 33 79t74 34zM308 1018q72 0 227 18l4 -12l-15 -70q-90 -6 -118 -20t-27 -53q0 -84 98 -715h15l290 606l-14 82
q-16 86 -131 88l-2 8l20 74q131 -6 197 -6t235 18l5 -12l-17 -70q-92 -8 -119 -21t-26 -50q0 -86 100 -717h14q18 40 72 152t92 191q36 79 104 223t68 169q0 45 -96 45h-76l-4 8l21 76q123 -12 223 -12l174 6l-20 -82q-45 -4 -67 -18t-44 -60l-430 -856l-139 -35l-107 656
h-10l-293 -621l-141 -35q-76 485 -152 875q-18 92 -127 94l-4 8l21 74q127 -6 199 -6z" />
    <glyph glyph-name="Ygrave" unicode="&#x1ef2;" horiz-adv-x="1064" 
d="M408 1591l-9 21l33 98l19 12q215 -123 407 -223l-12 -49l-17 -10zM399 1163q0 -72 158 -540h8l285 446q43 66 43 109q0 49 -117 57l-4 8l23 76q147 -16 213 -16l182 8l6 -13l-22 -71q-92 -17 -134 -55t-94 -117q-322 -479 -326 -489t-12 -34q-8 -23 -15 -41t-15 -102
q-29 -188 -29 -224t6 -50q12 -31 66 -31l96 6l4 -8l-29 -88q-160 6 -246 6t-221 -25l23 88q104 23 136 65t44 160t12 180t-30 148q-154 444 -159 458t-14 39q-9 26 -15 32q-5 6 -15 22q-11 17 -19 21t-21 14t-29 13t-34 7t-43 7l-4 8l23 74q121 -8 225 -8t266 18l4 -14
l-16 -68q-98 -9 -129 -25t-31 -51z" />
    <glyph glyph-name="ygrave" unicode="&#x1ef3;" horiz-adv-x="944" 
d="M334 1305l-8 20l32 98l19 13q215 -123 407 -224l-12 -49l-16 -10zM758 913q0 33 -92 39l-4 9l20 69l184 -12l154 6l6 -10l-20 -68q-88 -16 -148 -90q-33 -39 -160 -223q-127 -185 -133 -197t-12 -22t-25 -108q-20 -97 -20 -145q0 -49 9 -66t52 -17l80 4l2 -6l-22 -82
q-145 6 -225 6t-195 -18l20 79q88 17 115 49t36 120t9 134q0 44 -27 109l-110 295q-43 112 -71 140t-105 38l-4 8l20 70q111 -6 182 -6l238 14l4 -12l-14 -64q-76 -6 -101 -18t-25 -45t124 -387h10l213 323q35 51 35 84z" />
    <glyph glyph-name="endash" unicode="&#x2013;" horiz-adv-x="899" 
d="M897 463l-897 -4l-8 18l33 101q295 -2 552 -2t341 12l8 -21z" />
    <glyph glyph-name="emdash" unicode="&#x2014;" horiz-adv-x="1800" 
d="M1798 463l-1798 -4l-8 18l33 101h231l465 -3h223l873 13l10 -21z" />
    <glyph glyph-name="quoteleft" unicode="&#x2018;" horiz-adv-x="350" 
d="M129 1012q0 100 78 181t184 136l37 -31v-20q-63 -39 -105 -95t-42 -108q0 -78 81 -127l-4 -28q-130 -98 -197 -14q-32 40 -32 106z" />
    <glyph glyph-name="quoteright" unicode="&#x2019;" horiz-adv-x="350" 
d="M272 1329q48 0 79 -40q32 -40 32 -105q0 -100 -78 -182t-184 -136l-37 31v21q63 39 105 95t42 107q0 78 -81 127l4 29q70 53 118 53z" />
    <glyph glyph-name="quotesinglbase" unicode="&#x201a;" horiz-adv-x="466" 
d="M178 203q47 0 77 -42t30 -133q0 -90 -86 -186t-201 -164l-37 31v21q72 48 117 116t45 141t-66 134l4 29q70 53 117 53z" />
    <glyph glyph-name="quotedblleft" unicode="&#x201c;" horiz-adv-x="659" 
d="M256 1012q0 100 78 181t184 136l37 -31v-20q-63 -39 -105 -95t-42 -108q0 -78 81 -127l-4 -28q-130 -98 -197 -14q-32 40 -32 106zM563 1012q0 100 78 181t184 136l37 -31v-20q-63 -39 -105 -95t-42 -108q0 -78 82 -127l-4 -28q-130 -99 -198 -14q-32 40 -32 106z" />
    <glyph glyph-name="quotedblright" unicode="&#x201d;" horiz-adv-x="659" 
d="M404 1329q48 0 80 -40t32 -105q0 -100 -78 -182t-184 -136l-37 31v21q63 39 106 95q42 56 42 107q0 78 -82 127l4 29q69 53 117 53zM712 1329q48 0 80 -40t31 -105q0 -100 -78 -182t-184 -136l-37 31v21q63 39 106 95q42 56 42 107q0 78 -82 127l4 29q70 53 118 53z" />
    <glyph glyph-name="quotedblbase" unicode="&#x201e;" horiz-adv-x="784" 
d="M499 203q48 0 80 -40t31 -106q0 -100 -78 -181t-184 -136l-37 31v20q63 39 106 95q42 56 42 108q0 78 -82 127l4 29q70 53 118 53zM181 203q48 0 80 -40t32 -106q0 -100 -78 -181t-184 -136l-37 31v20q63 39 105 95t42 108q0 78 -82 127l4 29q70 53 118 53z" />
    <glyph glyph-name="dagger" unicode="&#x2020;" horiz-adv-x="929" 
d="M438 791l-18 -109l-322 -31l-12 23l33 127zM592 682l18 109l326 26l12 -18l-33 -127zM575 827l-104 -6l37 385l123 19l20 -17zM446 631l105 6l-88 -809l-125 -18l-21 16z" />
    <glyph glyph-name="daggerdbl" unicode="&#x2021;" horiz-adv-x="929" 
d="M446 848l-20 -109l-320 -30l-12 22l33 127zM600 739l16 109l326 26l14 -18l-32 -127zM582 883l-105 -6l31 329l123 19l20 -17zM453 686l110 8l-39 -307l-108 -8zM385 346l-20 -108l-320 -31l-14 22l35 127zM539 238l16 108l326 27l14 -19l-35 -127zM391 184l107 6
l-35 -362l-125 -18l-21 16z" />
    <glyph glyph-name="bullet" unicode="&#x2022;" horiz-adv-x="667" 
d="M117 446q0 94 72 170q73 76 169 76t148 -57t51 -151q0 -94 -73 -170q-73 -74 -170 -74t-147 56t-50 150z" />
    <glyph glyph-name="onedotenleader" unicode="&#x2024;" horiz-adv-x="468" 
d="M206 219q110 0 108 -109q0 -51 -42 -93q-41 -42 -96 -42q-108 0 -106 110q0 50 41 92t95 42z" />
    <glyph glyph-name="twodotenleader" unicode="&#x2025;" horiz-adv-x="882" 
d="M605 219q108 0 108 -108q0 -52 -41 -94t-97 -42q-106 0 -106 110q0 50 41 92t95 42zM218 219q108 0 108 -108q0 -52 -41 -94t-97 -42q-106 0 -106 110q0 50 41 92t95 42z" />
    <glyph glyph-name="ellipsis" unicode="&#x2026;" horiz-adv-x="1296" 
d="M204 219q110 0 108 -109q0 -51 -42 -93q-41 -42 -96 -42q-108 0 -106 110q0 50 41 92t95 42zM1033 219q108 0 108 -108q0 -52 -41 -94t-96 -42q-107 0 -107 110q0 50 41 92t95 42zM617 219q108 0 108 -108q0 -52 -41 -94t-96 -42q-107 0 -107 110q0 50 41 92t95 42z" />
    <glyph glyph-name="perthousand" unicode="&#x2030;" horiz-adv-x="1978" 
d="M1192 1350l10 -29q-356 -530 -536 -819l-441 -697l-78 39l-10 25q272 414 975 1520zM1616 -25q-108 0 -176 77t-68 196q0 166 92 278t222 111q130 0 196 -78q64 -78 64 -186q0 -158 -90 -278t-240 -120zM1843 298q0 100 -47 152t-133 52t-139 -58t-53 -151q0 -92 51 -139
q51 -48 126 -48t135 46t60 146zM963 -25q-111 0 -179 77t-67 196q0 166 93 278t222 111q129 0 194 -78t64 -186q0 -160 -88 -279t-239 -119zM1008 502q-86 0 -140 -58t-53 -151q0 -92 52 -139q52 -48 126 -48t134 46t61 146q0 100 -47 152t-133 52zM375 668q-111 0 -179 76
t-67 196q0 166 93 278t222 112t194 -79q65 -78 64 -186q0 -161 -88 -279t-239 -118zM407 799q75 0 135 46t60 144q0 97 -48 151t-134 54t-139 -58t-53 -150t52 -140q52 -47 127 -47z" />
    <glyph glyph-name="guilsinglleft" unicode="&#x2039;" horiz-adv-x="514" 
d="M422 819l41 -31v-20l-246 -305l170 -318l-6 -20l-49 -31l-295 340l4 31z" />
    <glyph glyph-name="guilsinglright" unicode="&#x203a;" horiz-adv-x="514" 
d="M94 94l-43 31l2 20l244 306l-168 317l4 20l49 31l297 -340l-4 -30z" />
    <glyph glyph-name="fraction" unicode="&#x2044;" horiz-adv-x="256" 
d="M567 1350l11 -29q-356 -530 -537 -819l-440 -697l-78 39l-10 25q272 414 974 1520z" />
    <glyph glyph-name="zero.sups" unicode="&#x2070;" horiz-adv-x="692" 
d="M174 1071q0 -233 176 -233q88 0 149 80q60 80 60 196q0 234 -178 236q-87 0 -147 -81t-60 -198zM303 702q-109 0 -168 83t-59 229q0 207 102 342t256 135q104 0 164 -83t61 -224q0 -210 -101 -346t-255 -136z" />
    <glyph glyph-name="four.sups" unicode="&#x2074;" horiz-adv-x="616" 
d="M354 1286l-204 -256h186l31 256h-13zM20 938l13 70l393 481l8 2l80 -12l-51 -449h106l9 -14l-23 -90l-104 4l-17 -199l-10 -12l-127 -14l-8 12q23 119 35 215z" />
    <glyph glyph-name="five.sups" unicode="&#x2075;" horiz-adv-x="573" 
d="M502 1006q0 -111 -125 -207t-260 -97q-47 0 -66 26q-18 26 -18 56v35l16 15q153 -46 249 27q58 44 58 110q0 113 -233 125l-8 14l63 344l12 10l246 9q63 2 86 51l62 6l-56 -174l-14 -13q-123 10 -262 11l-31 -158q145 -16 213 -62t68 -128z" />
    <glyph glyph-name="six.sups" unicode="&#x2076;" horiz-adv-x="618" 
d="M322 1077q-52 0 -113 -41q-12 -53 -12 -94q0 -152 106 -151q61 0 96 43t35 106t-30 100t-82 37zM569 983q0 -117 -83 -199q-82 -82 -194 -82t-170 67t-58 177t51 210q51 99 123 159q150 121 270 160l51 16l10 -8l15 -56q-10 -4 -45 -17t-131 -83q-111 -86 -160 -201l2 -8
q84 55 129 58q90 0 140 -56t50 -137z" />
    <glyph glyph-name="seven.sups" unicode="&#x2077;" horiz-adv-x="571" 
d="M309 1475h271l34 -52q-117 -193 -333 -587l-52 -131h-16l-96 28l-11 31l369 598l-190 -10q-59 -4 -82 -26t-43 -91l-68 -8q35 139 55 248l9 6q73 -6 153 -6z" />
    <glyph glyph-name="eight.sups" unicode="&#x2078;" horiz-adv-x="645" 
d="M264 1308q0 -36 22 -64t42 -41t65 -38q76 49 76 140q0 49 -25 75q-26 26 -70 27q-44 0 -77 -32q-33 -31 -33 -67zM310 782q52 0 92 37t40 76t-10 58q-20 38 -133 98q-106 -53 -106 -150q-1 -49 32 -84t85 -35zM68 866q0 139 176 217q-109 72 -109 169t77 168t173 71
q95 0 153 -43t58 -117q0 -125 -141 -198q117 -71 117 -175t-86 -180q-85 -76 -191 -76q-107 0 -167 45t-60 119z" />
    <glyph glyph-name="nine.sups" unicode="&#x2079;" horiz-adv-x="616" 
d="M333 1118q50 0 116 39q14 51 14 109t-28 98q-28 41 -85 41t-92 -43q-35 -44 -35 -108t30 -100t80 -36zM90 1212q0 117 82 198t195 81t171 -66q58 -67 58 -177t-51 -210t-123 -157q-152 -121 -270 -160l-52 -16l-10 6l-14 57q10 4 47 18t103 63q130 98 186 220l-4 6
q-84 -53 -127 -55q-90 0 -141 56q-50 56 -50 136z" />
    <glyph glyph-name="n.sups" unicode="&#x207f;" horiz-adv-x="708" 
d="M496 1136q0 44 -41 44q-35 0 -95 -94t-122 -240l-13 -98q-2 -10 -41 -24t-69 -15l-15 16q68 409 70 447t-10 50t-43 13h-49l12 65l233 9l13 -19q-47 -139 -70 -276l8 -2q121 244 236 313q55 0 90 -36t35 -87t-47 -195t-54 -171l4 -5q16 0 95 70l18 -4l21 -39
q-152 -154 -206 -154t-55 48q-1 36 47 188t48 196z" />
    <glyph glyph-name="zero.sinf" unicode="&#x2080;" horiz-adv-x="692" 
d="M174 106q0 -233 176 -233q88 0 149 80q60 80 60 197q0 235 -178 235q-87 0 -147 -81t-60 -198zM303 -262q-109 0 -168 83t-59 228q0 207 102 342t256 135q104 0 164 -83t61 -224q0 -209 -101 -345t-255 -136z" />
    <glyph glyph-name="one.sinf" unicode="&#x2081;" horiz-adv-x="491" 
d="M305 -115q0 -59 49 -59l66 4l2 -6l-23 -74q-113 4 -176 4l-184 -14l18 72q61 4 90 26t35 78l54 428q4 45 -8 58t-50 14l-65 -6l-4 6l14 65q76 10 307 45l8 -30q-47 -39 -63 -119q-16 -79 -43 -267t-27 -225z" />
    <glyph glyph-name="two.sinf" unicode="&#x2082;" horiz-adv-x="651" 
d="M414 328q0 78 -98 78t-187 -127h-16l-9 83q49 72 123 118t153 46t134 -43t55 -117q-1 -74 -73 -183q-72 -108 -267 -314l4 -10h156q63 1 91 23t52 93l80 9q-45 -127 -65 -228l-19 -12q-297 10 -411 10l-84 -14l-8 51l157 158q232 256 232 379z" />
    <glyph glyph-name="three.sinf" unicode="&#x2083;" horiz-adv-x="581" 
d="M182 -147q68 0 126 42t59 105q0 106 -187 106l-10 11v65l86 19q51 25 85 65t34 78q-1 37 -21 56t-53 20q-76 0 -149 -58h-15l-12 76q151 88 227 88t123 -38t47 -97t-44 -112t-118 -86l-2 -11q152 -45 152 -162q0 -100 -125 -191t-260 -91q-49 0 -65 23q-15 24 -15 51
t2 43l14 14q53 -16 121 -16z" />
    <glyph glyph-name="four.sinf" unicode="&#x2084;" horiz-adv-x="616" 
d="M354 322l-204 -256h186l31 256h-13zM20 -27l13 70l393 481l8 2l80 -12l-51 -448h106l9 -15l-23 -90l-104 4l-17 -198l-10 -13l-127 -14l-8 12q23 119 35 215z" />
    <glyph glyph-name="five.sinf" unicode="&#x2085;" horiz-adv-x="573" 
d="M502 41q0 -111 -125 -207t-260 -96q-47 0 -66 25q-18 26 -18 56v36l16 14q53 -16 122 -16t127 44t58 109q0 113 -233 125l-8 14l63 344l12 11l246 8q63 2 86 51l62 6l-56 -174l-14 -12q-123 10 -262 10l-31 -158q145 -16 213 -62t68 -128z" />
    <glyph glyph-name="six.sinf" unicode="&#x2086;" horiz-adv-x="618" 
d="M322 113q-52 0 -113 -41q-12 -53 -12 -95q0 -152 106 -151q61 0 96 43t35 107t-30 100q-30 37 -82 37zM569 18q0 -116 -83 -198q-82 -82 -194 -82t-170 66t-59 178t51 210t124 158q150 121 270 160l51 16l10 -8l15 -55q-10 -4 -26 -10t-63 -33q-182 -107 -247 -258l2 -8
q84 55 129 57q90 -1 140 -57t50 -136z" />
    <glyph glyph-name="seven.sinf" unicode="&#x2087;" horiz-adv-x="571" 
d="M309 510h271l34 -51q-117 -193 -333 -588l-52 -131h-16l-96 29l-11 30l369 598l-190 -10q-59 -4 -82 -26t-43 -91l-68 -8q35 139 55 248l9 6q73 -6 153 -6z" />
    <glyph glyph-name="eight.sinf" unicode="&#x2088;" horiz-adv-x="645" 
d="M264 343q0 -35 22 -63t42 -41t65 -38q76 49 76 139q0 49 -25 76q-26 27 -70 27t-77 -32t-33 -68zM310 -182q52 0 92 37t40 75t-10 58q-21 40 -133 98q-106 -53 -106 -149q-1 -49 32 -84t85 -35zM68 -98q0 139 176 217q-109 72 -109 169t77 168q77 70 173 70q95 0 153 -43
t58 -116q0 -125 -141 -199q117 -70 117 -174t-86 -180q-85 -76 -191 -76t-167 45q-60 45 -60 119z" />
    <glyph glyph-name="nine.sinf" unicode="&#x2089;" horiz-adv-x="616" 
d="M463 301q0 57 -28 98t-85 41t-92 -43t-35 -107t30 -101q62 -75 196 4q14 51 14 108zM90 248q0 118 82 198t195 80t171 -66t58 -176t-51 -210t-123 -160q-152 -119 -270 -158l-52 -16l-10 6l-14 57q156 62 261 186q46 54 75 115l-4 7q-84 -53 -127 -56q-91 1 -141 57
t-50 136z" />
    <glyph glyph-name="franc" unicode="&#x20a3;" horiz-adv-x="882" 
d="M409 86q34 0 111 4l2 -16l-26 -78h-23l-219 4q-72 0 -199 -20l21 88q92 16 116 50t37 146h-131l-10 15l18 61h132l67 528q4 48 -3 62t-40 14l-65 -2l-2 16l22 76q139 -6 240 -6h98q139 0 373 23l8 -15q-43 -129 -72 -278l-102 -6q14 72 14 114t-37 54q-37 14 -119 14
t-103 -3q-22 -3 -32 -17t-16 -40q-6 -25 -10 -44t-7 -51t-32 -206q43 -2 158 -2l180 21l10 -17l-41 -104q-135 6 -158 6l-166 -10l-22 -127h186l8 -14l-16 -62h-186q-15 -94 -15 -120t8 -42t43 -16z" />
    <glyph glyph-name="Euro" unicode="&#x20ac;" horiz-adv-x="1155" 
d="M647 76q205 0 291 246l94 8q-49 -152 -74 -269l-12 -16q-133 -63 -322 -63t-308 98q-118 98 -138 268h-162l-8 14l17 60h151q0 76 21 162h-152l-8 14l16 59h168q68 174 220 278q153 103 356 103q127 0 299 -39l6 -12q-47 -123 -76 -274l-94 -8q14 68 14 98
q0 129 -207 129q-129 0 -223 -73t-135 -202h10l359 9l10 -19l-15 -61l-383 -2q-12 -61 -12 -133v-29h12l359 8l10 -18l-14 -62l-359 -2q24 -128 98 -200t191 -72z" />
    <glyph glyph-name="trademark" unicode="&#x2122;" horiz-adv-x="1112" 
d="M258 918q0 -48 37 -50l45 2l2 -4l-14 -51q-92 4 -133 4l-132 -4l13 47q53 6 67 20t21 62l39 305q-63 -2 -81 -16t-36 -82l-63 -6q16 88 28 162l8 6l76 -8h248l80 8l8 -6l-10 -156l-64 -6q-2 72 -15 87q-14 15 -73 17q-51 -283 -51 -331zM1102 1308q0 -1 2 -1l-10 -45
q-35 -2 -47 -10q-11 -8 -17 -47q-6 -38 -10 -174t2 -150t25 -15l22 2l4 -4l-14 -47q-47 2 -113 2t-78 -6l11 49q47 6 49 37l16 262h-6q-78 -150 -168 -348l-53 -6q-41 201 -82 354h-6q-51 -262 -51 -278t22 -17l29 2l2 -4l-15 -47q-66 2 -90 2l-80 -6l13 49q43 6 53 56
q68 286 68 312t-58 32l-2 4l10 43q72 -4 99 -4l84 4q25 -150 65 -318h6q68 144 144 316l92 -2l80 4q2 0 2 -1z" />
    <glyph glyph-name="estimated" unicode="&#x212e;" horiz-adv-x="1632" 
d="M1317 1057q0 25 -21 45q-190 190 -458 190t-459 -196q-20 -20 -21 -47v-365q0 -10 11 -10h938q10 0 10 10v373zM369 637q-10 0 -11 -8v-371q0 -20 19 -43q186 -199 472 -199t476 224h111q-104 -123 -262 -194t-336 -71q-311 0 -534 199q-222 198 -222 480t221 481
t533 199t534 -200q221 -198 221 -481v-16h-1222z" />
    <glyph glyph-name="partialdiff" unicode="&#x2202;" horiz-adv-x="999" 
d="M756 567q0 96 -6 154q-68 96 -209 96t-218 -106q-77 -105 -77 -275t63 -265t179 -95t192 126t76 365zM930 598q0 -262 -150 -442t-360 -181q-170 0 -257 113t-87 277q0 229 148 396t343 167q53 0 148 -54l4 5q-98 358 -496 563l41 67l21 9q287 -133 466 -371t179 -549z
" />
    <glyph glyph-name="product" unicode="&#x220f;" horiz-adv-x="1392" 
d="M332 0q-52 0 -166 -8q-113 -8 -117 -17l25 95q92 18 129 53t49 132t60 465t48 410t-14 58t-49 16l-82 -4l-2 8l27 103q154 -6 235 -6h606q66 0 185 6t123 12l-21 -104q-84 -10 -115 -34t-41 -83q-139 -827 -139 -900q1 -73 17 -92t57 -20l104 6l2 -8l-28 -94
q-165 6 -257 6t-235 -25l23 95q94 18 131 53t48 131t59 452t46 410q0 52 -45 66t-201 14t-205 -16q-48 -16 -59 -78q-139 -803 -139 -894q0 -90 22 -104t52 -14l102 6l4 -8l-28 -94q-159 6 -211 6z" />
    <glyph glyph-name="summation" unicode="&#x2211;" horiz-adv-x="1050" 
d="M899 944q0 132 -44 192t-183 66l-326 15l299 -537l-4 -33l-471 -555l367 14q111 4 181 86t118 244l98 10q-72 -223 -100 -419l-35 -33l-699 12l-106 -16l-35 26l530 607l-344 604l35 65l4 -2q0 2 318 12t489 27l19 -18q-16 -168 -21 -375l-90 -16v24z" />
    <glyph glyph-name="minus" unicode="&#x2212;" horiz-adv-x="995" 
d="M967 608l10 -20l-29 -105l-897 -4l-10 19l35 100q293 -2 469 -2z" />
    <glyph glyph-name="radical" unicode="&#x221a;" horiz-adv-x="995" 
d="M70 844h-9l-6 8l19 68q90 4 252 12l12 -17q0 -137 123 -735h12l526 1313l35 27h92l-620 -1504l-137 -41q-137 602 -183 775q-22 94 -116 94z" />
    <glyph glyph-name="infinity" unicode="&#x221e;" horiz-adv-x="995" 
d="M745 696q-106 0 -182 -114q27 -76 44 -116t53 -76t88 -36t100 54q47 54 47 128q0 76 -39 118t-111 42zM266 362q113 0 185 119q-25 72 -42 112t-55 76t-89 36q-52 1 -99 -53t-47 -129q1 -75 39 -118t108 -43zM326 819q143 0 217 -178q106 178 243 178q88 0 140 -68
q51 -69 51 -165q0 -146 -87 -246t-200 -100q-147 0 -219 182q-104 -182 -242 -182q-90 0 -141 68t-51 165q0 145 88 245t201 101z" />
    <glyph glyph-name="integral" unicode="&#x222b;" horiz-adv-x="790" 
d="M670 1227q66 0 122 -22q56 -23 56 -53t-12 -83t-25 -68h-27q-23 55 -71 97q-49 41 -99 41t-80 -32q-32 -32 -34 -89l-64 -1051q-8 -127 -103 -209t-214 -82q-61 0 -111 20t-51 51q0 30 12 80t25 62h22q23 -53 70 -91t97 -38t83 38t37 116l66 1038q6 111 95 193t206 82z
" />
    <glyph glyph-name="approxequal" unicode="&#x2248;" horiz-adv-x="995" 
d="M724 406q40 0 116 86l24 26h13l41 -43l-3 -10l-174 -182l-32 -9q-53 0 -231 44t-208 44q-55 0 -127 -83l-24 -29h-13l-38 43v10l174 182l32 9q54 0 232 -44t218 -44zM756 737q49 0 125 86l24 27h13l40 -43l-2 -10l-174 -183l-32 -8q-52 0 -230 44t-209 44q-55 0 -127 -84
l-24 -28h-13l-38 43v10l174 182l32 8q54 0 232 -44t209 -44z" />
    <glyph glyph-name="notequal" unicode="&#x2260;" horiz-adv-x="995" 
d="M928 326l-443 -2h-41l-102 -275h-57l-11 17l95 258l-338 -2l-11 18l35 100q193 -2 359 -2l75 207l-417 -2l-11 19l35 100q260 -2 436 -2l105 276h55l15 -20l-99 -256l379 12l10 -20l-30 -105l-402 -2l-78 -207q68 0 181 3q112 3 196 5t84 5l8 -21z" />
    <glyph glyph-name="lessequal" unicode="&#x2264;" horiz-adv-x="991" 
d="M443 -37q95 0 197 3t174 5q71 2 73 4l8 -20l-29 -105l-893 -4l-8 19l33 100h33l196 -2h216zM864 238v-13l-69 -82q-199 104 -713 346l-12 23l14 96l420 176l414 166l16 -10l2 -102q-154 -55 -711 -273l-2 -12l309 -143l334 -162q-2 -4 -2 -10z" />
    <glyph glyph-name="greaterequal" unicode="&#x2265;" horiz-adv-x="993" 
d="M443 -37q95 0 197 3t174 5q71 2 73 4l8 -20l-29 -105l-893 -4l-10 19l35 100h33l196 -2h216zM934 604l12 -22l-14 -97l-420 -176l-412 -166l-18 11l-2 102q229 80 397 150l316 122v13l-308 143l-333 162v22l69 82q169 -90 439 -220t274 -126z" />
    <glyph glyph-name="lozenge" unicode="&#x25ca;" horiz-adv-x="997" 
d="M420 899l-170 -334l96 -297l98 -319h13l325 624l-98 299l-98 320h-13zM129 537l4 43l195 362l219 387l98 4l21 -14l120 -379l113 -332l-4 -53l-193 -356l-219 -387l-98 -5l-20 15l-119 379z" />
    <glyph glyph-name="fi" unicode="&#xfb01;" horiz-adv-x="1507" 
d="M1235 145q0 -68 59 -67l82 4l4 -6l-24 -80q-141 4 -222 4t-192 -18l21 79q75 14 105 43t38 95q84 680 84 697q0 18 -7 32t-44 14l-66 -2q-2 6 -2 8l21 76l198 -6l197 16l-19 -82q-66 -8 -90 -25t-32 -63q-111 -625 -111 -719zM356 145q0 -63 62 -63l112 6l5 -10l-23 -84
q-158 6 -248 6t-196 -18l18 79q76 14 104 42t37 98q84 676 84 695q0 18 -7 32t-42 14l-53 -2l-4 8l20 76q137 -6 344 -6t351 20l6 -10q-43 -129 -72 -276l-90 -7q14 63 14 109t-37 60t-135 14t-116 -9t-23 -51l-51 -325h162l172 16l4 -10l-33 -105q-123 4 -187 4t-137 -10
q-41 -281 -41 -293z" />
    <glyph glyph-name="fl" unicode="&#xfb02;" horiz-adv-x="1751" 
d="M1237 156q0 -42 24 -56q24 -16 127 -16t152 41t90 188l88 11q0 -6 4 -11q-47 -152 -86 -317l-10 -10q-274 14 -412 14t-256 -16l23 82q63 10 90 38t35 97q84 676 84 695q0 18 -8 32t-43 14l-54 -2l-4 8l21 76l190 -6l189 16l-17 -82q-74 -10 -92 -30t-41 -136t-59 -352
t-35 -278zM356 145q0 -63 62 -63l112 6l5 -10l-23 -84q-158 6 -248 6t-196 -18l18 79q76 14 104 42t37 98q84 676 84 695q0 18 -7 32t-42 14l-53 -2l-4 8l20 76q137 -6 344 -6t351 20l6 -10q-43 -129 -72 -276l-90 -7q14 63 14 109t-37 60t-135 14t-116 -9t-23 -51l-51 -325
h162l172 16l4 -10l-33 -105q-123 4 -187 4t-137 -10q-41 -281 -41 -293z" />
    <glyph glyph-name="acute.cap" 
d="M831 1612l-8 -21q-207 -70 -422 -151l-16 10l-12 49l407 223l19 -12z" />
    <glyph glyph-name="breve.cap" 
d="M529 1573q140 0 202 102h17l30 -20q-35 -86 -101 -144q-67 -57 -163 -57t-148 57t-67 144l37 20h16q37 -102 177 -102z" />
    <glyph glyph-name="circumflex.cap" 
d="M256 1460l-23 45l302 228h28l246 -228l-35 -45l-18 -2l-226 133l-256 -133z" />
    <glyph glyph-name="dieresis.cap" 
d="M379 1675q78 0 80 -84q0 -38 -34 -72t-75 -34q-78 0 -78 78q0 45 33 79t74 33zM708 1675q78 0 78 -84q1 -38 -33 -72t-75 -34q-78 0 -78 78q0 45 34 79t74 33z" />
    <glyph glyph-name="grave.cap" horiz-adv-x="784" 
d="M238 1591l-9 21l33 98l19 12q215 -123 407 -223l-12 -49l-17 -10z" />
    <glyph glyph-name="macron.cap" 
d="M815 1614l10 -21l-26 -96l-563 -4l-11 18l33 93q186 -2 301 -2z" />
    <glyph glyph-name="ring.cap" 
d="M362 1530q0 74 54 130t131 56q141 0 141 -146q0 -69 -54 -129t-128 -61q-144 0 -144 150zM518 1458q98 0 98 92q0 86 -90 86q-44 0 -70 -24t-26 -68q0 -42 28 -64t60 -22z" />
    <glyph glyph-name="tilde.cap" 
d="M672 1587q43 0 139 92h12l39 -43v-10l-170 -162l-33 -8q-35 0 -143 34t-131 34q-47 0 -115 -70l-24 -22h-13l-40 43l2 10l170 162l30 8q35 0 145 -34t132 -34z" />
    <glyph glyph-name="caron.cap" 
d="M805 1714l24 -45l-303 -227h-26l-246 227l33 45l20 2l223 -133l256 133z" />
    <glyph glyph-name="dotaccent.cap" 
d="M548 1698q93 0 93 -100q0 -46 -39 -86t-88 -39q-96 0 -94 99q0 46 40 86t88 40z" />
    <glyph glyph-name="commaaccent" 
d="M292 -137q48 0 80 -40t31 -106q1 -100 -77 -181t-185 -136l-37 31v20q63 39 106 95q42 56 42 108q0 78 -82 127l4 29q70 53 118 53z" />
    <glyph glyph-name="hungarumlaut.cap" 
d="M958 1599l-6 -18q-164 -82 -336 -178l-14 8l-20 43l313 242l18 -10zM672 1618l-6 -19q-164 -82 -336 -178l-17 11l-18 43l313 239l19 -8z" />
    <glyph glyph-name="zero.lf" horiz-adv-x="1044" 
d="M492 125q166 1 276 151t109 383q0 182 -79 294t-212 112q-168 0 -274 -152t-107 -389q0 -182 77 -290t210 -109zM438 -25q-166 -1 -261 135t-95 363q0 317 166 535t399 217q162 0 258 -136t96 -356q0 -317 -165 -537t-398 -221z" />
    <glyph glyph-name="one.lf" horiz-adv-x="696" 
d="M393 182q1 -52 19 -71q18 -20 65 -21l105 6l2 -8l-29 -94q-167 6 -261 6t-257 -25l24 95q96 8 142 45q45 37 57 131q90 733 90 764t-18 49t-76 18l-104 -12l-7 6l19 86q76 0 432 68l8 -35q-43 -35 -62 -70q-19 -36 -42 -160t-65 -425t-42 -353z" />
    <glyph glyph-name="two.lf" horiz-adv-x="937" 
d="M637 950q0 137 -158 137q-184 0 -325 -223h-19l-10 92q63 113 183 191t240 78t196 -65q76 -66 77 -180q0 -114 -120 -292t-447 -545l6 -14h295q106 0 152 35q45 35 90 151l84 11q-68 -176 -101 -326l-26 -14q-461 14 -631 14l-111 -25l-16 37l225 232q416 473 416 706z
" />
    <glyph glyph-name="three.lf" horiz-adv-x="835" 
d="M211 119q147 0 251 78q103 79 103 187t-78 156t-243 48l-11 10l-2 72l134 32q90 45 148 117q58 71 58 137t-34 103q-35 37 -95 37q-127 0 -239 -95h-21l-10 86q215 137 331 137q117 0 181 -58q64 -60 64 -151t-70 -177t-184 -144l-2 -14q233 -66 233 -250
q0 -158 -190 -306t-383 -149q-68 0 -90 31t-21 65q0 34 2 54l12 12q80 -18 156 -18z" />
    <glyph glyph-name="four.lf" horiz-adv-x="878" 
d="M530 944l-368 -459h330l57 459h-19zM-6 375l18 76l635 774l8 2l68 -21l-88 -721h180l10 -16l-28 -113l-179 6l-28 -346l-12 -14l-148 -25l-10 19q37 211 57 371z" />
    <glyph glyph-name="five.lf" horiz-adv-x="827" 
d="M713 457q0 -111 -92 -225q-91 -114 -229 -186t-265 -71q-63 0 -86 32t-23 95v23l15 12q80 -18 155 -18q156 0 259 82t104 207q0 213 -385 221l-14 22l96 520l18 17l375 16q59 4 86 20t47 60l70 8l-78 -241l-14 -13q-199 16 -426 17l-56 -305q443 -33 443 -293z" />
    <glyph glyph-name="six.lf" horiz-adv-x="894" 
d="M459 584q-90 0 -207 -76q-23 -96 -23 -158q-1 -127 51 -202q52 -74 151 -74t165 76t66 186t-56 180q-56 68 -147 68zM518 705q143 1 222 -91t79 -213q0 -172 -129 -299t-315 -127q-143 1 -225 103t-82 250q0 280 145 471q145 190 316 287t257 126l41 13l13 -11l14 -61
q-266 -100 -453 -338q-76 -98 -116 -211l4 -6q153 107 229 107z" />
    <glyph glyph-name="seven.lf" horiz-adv-x="827" 
d="M455 1200h415l37 -57q-168 -283 -557 -991l-71 -177h-17l-117 37l-14 45l612 1004l-337 -14q-96 -4 -134 -41t-69 -150l-82 -12q53 199 82 354l12 10q117 -8 240 -8z" />
    <glyph glyph-name="eight.lf" horiz-adv-x="954" 
d="M543 1130q-81 0 -139 -59t-58 -140t64 -133t159 -108q145 84 146 252q0 90 -46 139t-126 49zM688 295q0 92 -66 146t-119 82q-52 28 -59 32q-209 -88 -208 -276q0 -89 58 -152t151 -63t168 69q75 70 75 162zM82 225q0 227 295 367q-182 112 -182 262q1 150 113 260
t276 111q116 1 202 -63t86 -181q0 -207 -233 -328q199 -121 199 -283t-129 -278q-129 -117 -312 -117q-131 1 -223 67t-92 183z" />
    <glyph glyph-name="nine.lf" horiz-adv-x="894" 
d="M473 618q90 0 207 76q22 84 22 184t-51 176q-51 74 -150 74t-165 -76t-66 -186q0 -112 57 -180q56 -68 146 -68zM416 498q-145 0 -223 91t-78 212q0 172 129 299t315 127q143 -1 225 -103t82 -250q0 -280 -144 -469q-144 -188 -316 -287t-259 -126l-41 -15l-14 11l-14 61
q270 102 451 338q77 98 120 211l-6 6q-149 -106 -227 -106z" />
    <glyph glyph-name="zero.tf" horiz-adv-x="921" 
d="M434 125q154 0 254 153q100 152 100 360t-70 318t-190 109q-156 0 -254 -154t-98 -393q0 -178 70 -286t188 -107zM383 -25q-152 -1 -239 133t-87 357q0 322 156 541t375 219q147 0 235 -133t88 -351q-1 -322 -155 -544t-373 -222z" />
    <glyph glyph-name="one.tf" horiz-adv-x="921" 
d="M498 186q0 -56 22 -75q22 -20 80 -21l125 6l2 -8l-29 -94q-193 6 -300 6t-292 -25l25 95q113 8 166 45t65 131q92 729 93 760q0 72 -115 71l-125 -12l-6 6l18 86q51 0 259 30t229 38l8 -35q-49 -35 -72 -70q-23 -34 -45 -158t-65 -422t-43 -354z" />
    <glyph glyph-name="two.tf" horiz-adv-x="921" 
d="M627 950q0 137 -156 137q-182 0 -319 -223h-19l-10 92q66 113 183 191q118 78 236 78t194 -65q76 -66 75 -180q0 -114 -119 -293t-442 -544l6 -14h291q102 0 147 35t90 151l84 11q-68 -176 -100 -326l-27 -14q-455 14 -622 14l-109 -25l-16 37l223 232q410 473 410 706z
" />
    <glyph glyph-name="three.tf" horiz-adv-x="921" 
d="M242 119q158 0 268 77q110 76 111 186q0 110 -84 158t-265 48l-10 10l-2 72l141 32q96 43 159 116q62 72 62 138t-38 103t-100 37t-134 -27t-123 -68h-22l-10 86q65 47 179 93t203 45t157 -61t67 -151q0 -91 -74 -176t-195 -143l-2 -14q250 -66 250 -252
q0 -156 -200 -304t-402 -149q-70 0 -92 31t-23 66q0 35 3 53l10 12q86 -18 166 -18z" />
    <glyph glyph-name="four.tf" horiz-adv-x="921" 
d="M553 944l-381 -459h342l59 459h-20zM2 375l18 76l652 774l10 2l66 -21l-89 -721h187l10 -16l-29 -113l-184 6l-29 -346l-12 -14l-149 -25l-11 19q37 211 58 371z" />
    <glyph glyph-name="five.tf" horiz-adv-x="921" 
d="M772 467q0 -123 -96 -237t-240 -184t-280 -71q-68 0 -92 32t-23 95v23l12 12q86 -18 166 -18q166 0 279 82t112 205q0 215 -415 223l-17 22l98 520l21 17l397 16q63 4 91 20t51 60l71 8l-82 -241l-12 -13q-215 16 -459 17l-57 -305q475 -33 475 -283z" />
    <glyph glyph-name="six.tf" horiz-adv-x="921" 
d="M474 584q-92 0 -216 -76q-23 -96 -22 -158q0 -127 53 -202q53 -74 155 -74t169 76t67 186t-57 179t-149 69zM530 705q148 1 228 -91t80 -213q0 -172 -131 -299t-320 -127q-147 1 -230 103t-83 252q0 281 149 470q149 190 321 287q173 96 259 125l43 13l12 -11l14 -61
q-57 -17 -149 -71t-163 -111q-70 -57 -148 -155t-121 -212l4 -6q159 107 235 107z" />
    <glyph glyph-name="seven.tf" horiz-adv-x="921" 
d="M498 1200h442l37 -57q-266 -424 -592 -991l-74 -177h-14l-121 37l-16 45l651 1004l-367 -14q-104 -4 -142 -40t-73 -151l-84 -12q55 199 84 354l13 10q125 -8 256 -8z" />
    <glyph glyph-name="eight.tf" horiz-adv-x="921" 
d="M694 942q0 90 -44 139t-122 49t-135 -59t-57 -140t60 -130t157 -111q141 84 141 252zM666 297q0 94 -78 154q-57 47 -158 104q-205 -88 -205 -276q1 -89 57 -152t147 -63t164 69q73 70 73 164zM74 225q0 227 288 367q-176 108 -176 260t111 262t272 111q115 0 199 -65
t84 -179q0 -205 -229 -328q193 -121 193 -283t-127 -278q-126 -117 -306 -117q-129 1 -219 67t-90 183z" />
    <glyph glyph-name="nine.tf" horiz-adv-x="921" 
d="M483 618q90 0 215 76q23 84 23 184t-52 176q-53 74 -155 74t-170 -76t-68 -186q0 -112 59 -180q58 -68 148 -68zM428 498q-147 0 -227 91t-80 212q0 172 130 299t320 127q145 1 229 -103t85 -252q0 -282 -148 -470t-322 -285q-173 -98 -259 -125l-43 -15l-15 11l-14 61
q57 17 149 71t164 111t150 155t121 212l-6 6q-154 -106 -234 -106z" />
    <glyph glyph-name="zero.tosf" horiz-adv-x="901" 
d="M438 131q135 0 232 114q96 115 96 277t-75 254t-210 92t-229 -114t-94 -279q0 -164 72 -254q73 -90 208 -90zM373 -25q-154 0 -242 116t-88 308q0 267 148 451t362 184q152 0 241 -116t89 -304q-1 -268 -149 -454t-361 -185z" />
    <glyph glyph-name="one.tosf" horiz-adv-x="901" 
d="M485 215q0 -84 23 -104t78 -21l123 6l2 -8l-29 -94q-188 6 -294 6t-288 -25l23 95q127 10 173 54t60 179q61 489 62 516q0 68 -111 68l-125 -13l-4 7l19 86q25 1 233 29t224 33q17 5 20 5l8 -35q-49 -33 -70 -67t-37 -105q-90 -528 -90 -612z" />
    <glyph glyph-name="two.tosf" horiz-adv-x="901" 
d="M545 772q0 59 -33 92t-94 33t-131 -49t-123 -133h-19l-12 92q63 98 163 163q100 64 202 64t168 -58t66 -158t-97 -234q-96 -133 -391 -445l6 -14h282q104 0 150 35q45 35 86 151l84 11q-59 -172 -94 -322l-25 -14q-453 14 -618 14l-111 -25l-12 37l172 181
q381 399 381 579z" />
    <glyph glyph-name="three.tosf" horiz-adv-x="901" 
d="M168 -72q166 0 286 85t119 208q0 184 -348 187l-10 10l-2 71l139 33q96 43 159 114q62 72 62 136t-41 98t-106 35q-127 0 -250 -104h-20l-11 86q76 55 185 101q108 46 198 46t157 -55t67 -146t-73 -177t-194 -142l-2 -10q252 -57 252 -232q0 -110 -98 -224
q-99 -114 -247 -188t-284 -75q-70 0 -95 35t-17 114l10 13q86 -19 164 -19z" />
    <glyph glyph-name="four.tosf" horiz-adv-x="901" 
d="M522 752l-377 -459h338l58 459h-19zM641 1032l8 2l64 -20l-88 -721h186l10 -17l-30 -112q-74 2 -181 6l-28 -346l-13 -14l-147 -25l-10 18q35 211 57 371q-307 8 -492 8q2 12 9 38q6 26 8 38z" />
    <glyph glyph-name="five.tosf" horiz-adv-x="901" 
d="M731 288q1 -124 -107 -244t-258 -190t-278 -69q-63 0 -88 28q-25 29 -25 65t2 56l13 13q84 -18 164 -19q174 0 294 83t119 212q0 89 -89 143t-308 93l-14 22l94 500l18 16l391 17q59 4 89 19q29 15 49 61l69 8l-78 -242l-14 -12q-209 16 -446 16l-45 -264
q210 -43 329 -116q119 -72 119 -196z" />
    <glyph glyph-name="six.tosf" horiz-adv-x="901" 
d="M461 584q-92 0 -209 -76q-23 -94 -23 -158q1 -127 53 -202q52 -74 152 -74t166 76t66 186t-56 180q-56 68 -149 68zM520 705q145 1 224 -91t79 -213q0 -172 -129 -299t-317 -127q-143 1 -226 103t-83 250q0 281 147 472q147 190 316 287q169 96 260 125l40 13l13 -11
l14 -61q-152 -57 -309 -184q-70 -57 -147 -155t-119 -212l6 -4q174 107 231 107z" />
    <glyph glyph-name="seven.tosf" horiz-adv-x="901" 
d="M463 1010h438l39 -58q-305 -489 -588 -991l-71 -176h-15l-119 37l-16 45l641 1003l-358 -14q-104 -4 -144 -41t-71 -149l-82 -13q53 199 82 355l14 10q123 -8 250 -8z" />
    <glyph glyph-name="eight.tosf" horiz-adv-x="901" 
d="M330 934q0 -106 147 -201q14 -10 66 -43q139 84 139 254q0 88 -43 137t-120 49t-133 -59t-56 -137zM221 279q0 -89 55 -152q54 -63 144 -63t161 69q71 70 71 163t-79 155q-59 51 -153 104q-199 -88 -199 -276zM70 223q0 229 282 369q-172 110 -172 260t115 262t274 111
q113 1 191 -63t78 -179q0 -207 -226 -330q188 -121 188 -281t-128 -279q-129 -118 -310 -118q-124 1 -208 67t-84 181z" />
    <glyph glyph-name="nine.tosf" horiz-adv-x="901" 
d="M453 426q92 0 209 76q20 88 20 155q0 129 -51 204t-151 75t-166 -77t-66 -187t56 -178t149 -68zM393 305q-145 0 -224 91t-79 212q0 172 129 299t318 127q145 0 227 -102t82 -250q0 -283 -148 -473q-148 -189 -317 -286q-168 -97 -258 -124l-41 -14l-12 10l-17 62
q9 4 25 10q112 41 261 156q209 164 290 383l-6 6q-171 -107 -230 -107z" />
    <glyph glyph-name="caron.alt" 
d="M584 1452l10 -16q-55 -225 -121 -435l-57 -28l-21 4q31 182 43 446z" />
    <glyph glyph-name="zero.numr" horiz-adv-x="692" 
d="M174 899q0 -233 176 -233q88 0 149 79q60 80 60 197q0 234 -178 236q-87 0 -147 -81t-60 -198zM303 530q-109 0 -168 83t-59 229q0 207 102 342t256 135q104 0 164 -83t61 -224q0 -210 -101 -346t-255 -136z" />
    <glyph glyph-name="one.numr" horiz-adv-x="491" 
d="M305 678q0 -59 49 -60l66 5l2 -7l-23 -73q-113 4 -176 4l-184 -15l18 72q61 4 90 27t35 78l54 428q4 45 -8 58t-50 13l-65 -6l-4 6l14 66q76 10 307 45l8 -31q-47 -39 -63 -119t-43 -267t-27 -224z" />
    <glyph glyph-name="two.numr" horiz-adv-x="651" 
d="M414 1120q0 78 -98 78t-187 -127h-16l-9 84q49 72 123 118t153 46t134 -43t55 -118q-1 -74 -73 -182t-267 -314l4 -11h156q63 0 91 23t52 94l80 8q-45 -127 -65 -227l-19 -12q-297 10 -411 10l-84 -15l-8 52l157 157q232 256 232 379z" />
    <glyph glyph-name="three.numr" horiz-adv-x="581" 
d="M375 1137q-1 37 -21 56t-53 19q-76 0 -149 -57h-15l-12 76q151 88 227 88t123 -38t47 -97q0 -58 -44 -112t-118 -87l-2 -10q152 -45 152 -162q0 -100 -125 -191t-260 -92q-49 0 -65 24q-15 24 -15 50t2 43l14 15q150 -45 247 25q58 42 59 106q0 106 -187 106l-10 10v66
l86 18q51 25 85 66t34 78z" />
    <glyph glyph-name="four.numr" horiz-adv-x="616" 
d="M354 1114l-204 -256h186l31 256h-13zM20 766l13 70l393 481l8 2l80 -12l-51 -449h106l9 -14l-23 -90l-104 4l-17 -199l-10 -12l-127 -15l-8 13q23 119 35 215z" />
    <glyph glyph-name="five.numr" horiz-adv-x="573" 
d="M502 834q0 -111 -125 -207t-260 -97q-47 0 -66 26q-18 26 -18 56v35l16 15q153 -46 249 27q58 44 58 110q0 113 -233 125l-8 14l63 344l12 10l246 8q63 2 86 52l62 6l-56 -174l-14 -13q-123 10 -262 11l-31 -158q145 -16 213 -62t68 -128z" />
    <glyph glyph-name="six.numr" horiz-adv-x="618" 
d="M322 905q-52 0 -113 -41q-12 -53 -12 -94q0 -152 106 -152q61 0 96 44t35 106q0 63 -30 100t-82 37zM569 811q0 -117 -83 -199q-82 -82 -194 -82t-170 67t-58 177t51 210q51 99 123 159q150 121 270 160l51 16l10 -8l15 -56q-10 -4 -45 -17t-131 -83q-111 -86 -160 -201
l2 -8q84 55 129 58q90 0 140 -56t50 -137z" />
    <glyph glyph-name="seven.numr" horiz-adv-x="571" 
d="M309 1303h271l34 -52q-117 -193 -333 -587l-52 -132h-16l-96 29l-11 31l369 598l-190 -10q-59 -4 -82 -26t-43 -91l-68 -8q35 139 55 248l9 6q73 -6 153 -6z" />
    <glyph glyph-name="eight.numr" horiz-adv-x="645" 
d="M264 1136q0 -36 22 -64t42 -41t65 -38q76 49 76 140q0 49 -25 75q-26 26 -70 27q-44 0 -77 -32q-33 -31 -33 -67zM310 610q52 0 92 37t40 76t-10 58q-20 38 -133 98q-106 -53 -106 -150q-1 -49 32 -84t85 -35zM68 694q0 139 176 217q-109 72 -109 169t77 168t173 71
q95 0 153 -43t58 -117q0 -125 -141 -198q117 -71 117 -175t-86 -180q-85 -76 -191 -76t-167 45q-60 45 -60 119z" />
    <glyph glyph-name="nine.numr" horiz-adv-x="616" 
d="M333 946q50 0 116 39q14 51 14 109t-28 98q-28 41 -85 41t-92 -43q-35 -44 -35 -108t30 -100t80 -36zM90 1040q0 117 82 198t195 81t171 -66q58 -67 58 -177t-51 -210t-123 -157q-152 -121 -270 -160l-52 -17l-10 7l-14 57q10 4 47 18t103 63q130 98 186 220l-4 6
q-84 -53 -127 -55q-90 0 -141 56q-50 56 -50 136z" />
    <glyph glyph-name="zero.dnom" horiz-adv-x="692" 
d="M174 352q0 -233 176 -233q88 0 149 80q60 80 60 196q0 234 -178 236q-87 0 -147 -81t-60 -198zM303 -16q-109 0 -168 83t-59 228q0 207 102 342t256 135q104 0 164 -83t61 -224q0 -209 -101 -345t-255 -136z" />
    <glyph glyph-name="one.dnom" horiz-adv-x="491" 
d="M305 131q0 -59 49 -59l66 4l2 -6l-23 -74q-113 4 -176 4l-184 -14l18 71q61 4 90 27t35 78l54 428q4 45 -8 58t-50 14l-65 -7l-4 7l14 65q76 10 307 45l8 -31q-47 -39 -63 -119t-43 -266q-27 -188 -27 -225z" />
    <glyph glyph-name="two.dnom" horiz-adv-x="651" 
d="M414 573q0 78 -98 78t-187 -127h-16l-9 84q49 72 123 118t153 46t134 -43t55 -118q-1 -75 -73 -183t-267 -313l4 -11h156q63 0 91 23t52 94l80 8q-45 -127 -65 -227l-19 -12q-297 10 -411 10l-84 -14l-8 51l157 158q232 255 232 378z" />
    <glyph glyph-name="three.dnom" horiz-adv-x="581" 
d="M375 590q-1 37 -21 56t-53 20q-76 0 -149 -58h-15l-12 76q151 88 227 88t123 -38t47 -97t-44 -113t-118 -86l-2 -10q152 -45 152 -162q0 -100 -125 -191t-260 -91q-49 0 -65 23q-15 25 -15 51t2 42l14 15q150 -45 247 25q58 42 59 106q0 106 -187 106l-10 10v66l86 18
q51 25 85 66t34 78z" />
    <glyph glyph-name="four.dnom" horiz-adv-x="616" 
d="M354 567l-204 -256h186l31 256h-13zM20 219l13 70l393 481l8 2l80 -12l-51 -449h106l9 -14l-23 -90l-104 4l-17 -199l-10 -12l-127 -14l-8 12q23 119 35 215z" />
    <glyph glyph-name="five.dnom" horiz-adv-x="573" 
d="M502 287q0 -111 -125 -207t-260 -96q-47 0 -66 25q-18 26 -18 56v35l16 15q153 -46 249 27q58 44 58 110q0 113 -233 125l-8 14l63 344l12 10l246 9q63 2 86 51l62 6l-56 -174l-14 -12q-123 10 -262 10l-31 -158q145 -16 213 -62t68 -128z" />
    <glyph glyph-name="six.dnom" horiz-adv-x="618" 
d="M197 223q0 -152 106 -151q61 0 96 43t35 107t-30 100t-82 36t-113 -41q-12 -51 -12 -94zM569 264q0 -116 -83 -198q-82 -82 -194 -82t-170 66t-58 178q0 110 51 209t123 159q150 121 270 160l51 16l10 -8l15 -55q-10 -4 -52 -21t-124 -82q-111 -84 -160 -198l2 -9
q84 55 129 58q90 -1 140 -57t50 -136z" />
    <glyph glyph-name="seven.dnom" horiz-adv-x="571" 
d="M309 756h271l34 -51q-117 -193 -333 -588l-52 -131h-16l-96 28l-11 31l369 598l-190 -10q-59 -4 -82 -26t-43 -91l-68 -8q35 139 55 248l9 6q73 -6 153 -6z" />
    <glyph glyph-name="eight.dnom" horiz-adv-x="645" 
d="M264 588q0 -36 22 -63q22 -28 42 -41t65 -38q76 49 76 140q0 49 -25 76q-26 26 -70 26t-77 -32t-33 -68zM310 63q52 0 92 37t40 76t-10 58q-20 38 -133 98q-106 -53 -106 -150q-1 -49 32 -84t85 -35zM68 147q0 139 176 218q-109 72 -109 169q0 98 77 168t173 70
q95 0 153 -43t58 -117q0 -125 -141 -198q117 -70 117 -174t-86 -180q-85 -76 -191 -76q-107 0 -167 44t-60 119z" />
    <glyph glyph-name="nine.dnom" horiz-adv-x="616" 
d="M333 399q50 0 116 39q14 50 14 108t-28 99t-85 41t-92 -43t-35 -107t30 -101q30 -36 80 -36zM90 494q0 118 82 198t195 80t171 -66t58 -176q0 -111 -51 -211t-123 -159q-152 -119 -270 -158l-52 -16l-10 6l-14 57q10 4 26 10t62 33q174 101 248 258l-4 6
q-84 -53 -127 -55q-90 0 -141 56q-50 57 -50 137z" />
    <glyph glyph-name="a.sups" horiz-adv-x="663" 
d="M225 834q33 0 101 105t127 249q-63 41 -119 41t-98 -85q-44 -86 -44 -198t33 -112zM430 702q-53 0 -53 46q0 8 49 237l-8 2q-119 -209 -225 -285q-61 0 -97 48t-35 137q1 158 99 294t211 136l121 -23l10 31l12 6l76 -18l10 -21q-68 -238 -100 -458l4 -5q12 0 94 70l20 -2
l19 -39q-154 -156 -207 -156z" />
    <glyph glyph-name="b.sups" horiz-adv-x="655" 
d="M432 1194q-27 0 -86 -100t-125 -263q92 -31 127 -30q53 0 93 77q40 76 40 154t-14 120q-15 42 -35 42zM205 1544q0 49 -51 49h-50l11 66l233 8l14 -18q-78 -336 -124 -635h6q115 227 213 307q69 0 111 -56t42 -151q0 -160 -95 -284t-205 -124t-206 46l-16 26
q117 717 117 766z" />
    <glyph glyph-name="c.sups" horiz-adv-x="503" 
d="M193 979q0 -170 83 -170q35 0 72 30t60 76l20 -2l33 -43q-35 -72 -100 -120t-135 -48t-116 58q-44 58 -44 162q0 156 96 280t217 123q72 0 121 -29l6 -16l-51 -109l-27 -4q-39 59 -93 59t-98 -80q-44 -81 -44 -167z" />
    <glyph glyph-name="d.sups" horiz-adv-x="665" 
d="M225 834q33 0 100 105t126 251q-66 39 -119 39t-96 -86q-44 -85 -44 -197t33 -112zM429 702q-52 0 -52 43t49 240l-10 2q-115 -209 -223 -285q-61 0 -97 48t-35 137q1 158 99 294t211 136l92 -19q33 242 33 248q0 47 -52 47h-49l11 66l233 8l14 -18q-113 -537 -153 -815
l4 -5q12 0 94 70l20 -2l19 -39q-156 -156 -208 -156z" />
    <glyph glyph-name="e.sups" horiz-adv-x="532" 
d="M338 1227q-47 1 -88 -57t-55 -144q190 61 190 150q0 51 -47 51zM506 1210q0 -82 -73 -140t-243 -112v-38q0 -33 23 -72t63 -39q82 0 138 104l22 -2l33 -43q-37 -72 -103 -118t-138 -48q-70 0 -116 60t-46 162q0 154 97 278t218 123q59 0 92 -31t33 -84z" />
    <glyph glyph-name="f.sups" horiz-adv-x="397" 
d="M477 1675q98 0 148 -18l6 -15l-49 -104l-27 -4q-72 45 -125 45q-96 0 -115 -135l-16 -141h182l6 -5l-10 -63h-174l-12 -6l-64 -582q-11 -104 -77 -172t-156 -67q-47 0 -85 18t-48 45q20 70 57 125h21q1 -49 25 -77q24 -27 63 -27t65 28t31 70q12 127 12 184l35 447l-12 8
l-92 4l-5 6l9 49l106 17l10 92q15 116 104 197t187 81z" />
    <glyph glyph-name="g.sups" horiz-adv-x="638" 
d="M158 408q-102 0 -167 50t-65 109q0 8 2 21q74 51 236 141l2 10q-76 39 -76 179t95 269q95 130 202 130l123 -23l12 31l13 6l75 -18l13 -19q-78 -147 -91 -254q-4 -38 -11 -160t-9 -149q-14 -111 -133 -217t-221 -106zM57 594q0 -32 45 -60t111 -28t120 54t66 149l31 256
l-12 2q-109 -190 -185 -244q-176 -113 -176 -129zM262 850q27 0 83 93t124 249q-74 37 -122 37t-88 -79t-40 -153q0 -147 43 -147z" />
    <glyph glyph-name="h.sups" horiz-adv-x="692" 
d="M385 752q0 36 47 188t47 196t-41 44q-35 0 -95 -92t-122 -240l-12 -100q-2 -10 -41 -24t-70 -15l-14 16q123 776 123 822t-51 46h-50l11 66l233 8l15 -18q-80 -336 -125 -635l8 -2q121 244 235 313q55 0 91 -37t36 -87t-48 -193t-54 -172l4 -5q16 0 94 70l19 -4l20 -39
q-152 -154 -206 -154t-54 48z" />
    <glyph glyph-name="i.sups" horiz-adv-x="397" 
d="M262 1466q-68 0 -67 70q0 43 28 73q29 30 66 29q74 0 73 -67q0 -45 -28 -75t-72 -30zM158 702q-12 0 -14 8t12 96q14 89 14 302v76q0 51 -53 51h-49l10 65l233 9l15 -19q-68 -229 -99 -456l4 -5q12 0 95 70l18 -2l21 -39q-148 -156 -207 -156z" />
    <glyph glyph-name="j.sups" horiz-adv-x="376" 
d="M266 1466q-68 0 -67 70q0 45 28 74q29 29 66 28q74 0 74 -67q0 -45 -30 -75t-71 -30zM121 1235h-49l12 65l231 9l15 -19q-76 -294 -110 -538t-245 -346l-28 32l4 13q76 55 110 121t50 194q66 373 65 421q0 48 -55 48z" />
    <glyph glyph-name="k.sups" horiz-adv-x="622" 
d="M481 1137q0 43 -37 43t-99 -94t-124 -240l-12 -98q-2 -10 -41 -24t-70 -15l-14 16q123 770 123 819t-51 49h-50l11 66l233 8l15 -18q-80 -336 -125 -635l8 -2q123 246 235 313q57 0 93 -36t36 -89q0 -125 -188 -237q53 -82 147 -215v-19l-114 -37l-17 8l-123 256l7 21
q157 80 157 160z" />
    <glyph glyph-name="l.sups" horiz-adv-x="378" 
d="M156 1593h-50l11 66l233 8l15 -18q-115 -520 -154 -815l4 -5q12 0 94 70l19 -2l20 -39q-148 -156 -204 -156t-56 52l119 790q0 49 -51 49z" />
    <glyph glyph-name="m.sups" horiz-adv-x="1021" 
d="M713 752q0 36 50 188t50 196t-38 44q-37 0 -103 -100t-131 -255l-13 -77q-2 -10 -41 -24t-69 -15l-15 16q86 359 86 407q-1 48 -37 48t-96 -92t-118 -240l-13 -100q-2 -10 -41 -24t-69 -15l-15 16q68 409 70 447t-10 50t-43 13h-49l12 65l233 9l13 -19q-47 -139 -70 -276
l6 -2q123 248 232 313q53 0 89 -36q35 -36 35 -83t-43 -192l5 -2q121 240 239 313q55 0 90 -35t35 -86t-50 -197t-56 -171l4 -5q14 0 94 70l20 -4l19 -39q-152 -154 -207 -154t-55 48z" />
    <glyph glyph-name="o.sups" horiz-adv-x="595" 
d="M238 702q-78 0 -124 60t-46 166q0 164 91 280t220 117q82 0 127 -54t45 -153q0 -174 -91 -295t-222 -121zM199 979q0 -186 98 -186q49 -1 84 71t35 191q0 172 -90 172q-55 1 -91 -69t-36 -179z" />
    <glyph glyph-name="p.sups" horiz-adv-x="671" 
d="M449 1198q-27 0 -87 -100t-122 -256q84 -37 134 -37t88 82q38 81 38 155t-16 115q-15 41 -35 41zM170 1186q0 49 -53 49h-49l12 65l233 9l13 -17q-47 -135 -70 -270l6 -2q119 233 211 305q70 0 112 -56t42 -149q0 -150 -93 -280t-198 -129l-125 20l-27 -178q-4 -37 7 -49
t49 -12h57v-9l-10 -59l-297 -8l12 61q31 3 46 21t29 73q13 55 53 317t40 298z" />
    <glyph glyph-name="q.sups" horiz-adv-x="638" 
d="M236 834q27 0 86 98t129 258q-74 39 -123 39t-92 -82t-43 -158q-1 -75 13 -115t30 -40zM63 901q-1 152 97 284t211 132l118 -23l25 66l14 6l78 -14l8 -21q-26 -43 -90 -365t-63 -423q0 -51 37 -51h49l2 -7l-10 -61q-168 0 -301 -14l12 65q54 7 72 23t28 71l76 416l-10 2
q-113 -205 -209 -285q-66 0 -105 54t-39 145z" />
    <glyph glyph-name="r.sups" horiz-adv-x="514" 
d="M170 1172q0 38 -11 50t-42 13h-49l12 65l233 9l13 -19q-39 -125 -62 -239h6q47 111 112 191t105 79q49 -39 50 -111q0 -20 -11 -57l-14 -6q-18 12 -45 12q-55 0 -115 -75t-110 -205l-17 -131q-2 -10 -41 -24t-69 -15l-15 16q70 409 70 447z" />
    <glyph glyph-name="s.sups" horiz-adv-x="503" 
d="M221 788q94 0 92 75q0 36 -84 98q-41 31 -60 47t-41 50t-22 70q0 82 67 140t165 57q98 0 147 -53q-25 -59 -55 -119h-22q-29 84 -105 84q-29 0 -47 -17q-18 -16 -18 -48t26 -54t63 -50q36 -28 56 -46q59 -53 59 -126t-72 -133t-153 -61q-162 0 -184 76q20 86 55 133h23
q1 -57 33 -90t77 -33z" />
    <glyph glyph-name="t.sups" horiz-adv-x="425" 
d="M206 702q-56 0 -82 27t-26 51t2 33l68 410l-8 6l-86 4l-4 6l6 49l102 17l21 151l145 45l10 -14q-27 -88 -49 -184h150l6 -5l-10 -63h-148l-14 -8l-72 -357q-4 -43 29 -43t116 82l21 -4l18 -39q-139 -164 -195 -164z" />
    <glyph glyph-name="u.sups" horiz-adv-x="688" 
d="M90 813q0 45 45 197t45 180q0 45 -53 45h-49l12 65l234 9l14 -19q-121 -344 -121 -411q0 -41 34 -41q35 0 99 97t131 251l21 121l14 6l94 -8l15 -17q-68 -233 -101 -454l4 -5q14 0 95 70l20 -2l19 -39q-156 -156 -208 -156t-53 46q0 4 52 243l-11 2q-111 -213 -217 -288
q-63 -1 -99 31t-36 77z" />
    <glyph glyph-name="v.sups" horiz-adv-x="610" 
d="M291 825h14q154 240 154 338q0 39 -24 66t-42 33l8 32l144 31q43 -33 43 -106q0 -139 -260 -510l-117 -4l-21 18q-12 252 -49 459q-8 49 -49 49l-61 -6l4 63l215 29l14 -12q27 -201 27 -480z" />
    <glyph glyph-name="w.sups" horiz-adv-x="907" 
d="M291 825h14q106 174 144 279l-27 178l10 14l107 29q45 -33 45 -104q0 -35 -23 -95l31 -301h14q150 240 150 338q0 39 -24 66t-40 33l8 32l142 31q43 -37 43 -108q0 -139 -256 -508l-105 -4l-20 18l-27 233h-10q-47 -96 -143 -247l-113 -4l-21 18q-10 231 -49 459
q-8 49 -49 49l-61 -6l4 63l215 29l14 -12q27 -206 27 -480z" />
    <glyph glyph-name="x.sups" horiz-adv-x="655" 
d="M578 1325q58 0 92 -43q-33 -80 -56 -125h-22q-18 72 -55 72q-29 0 -60 -43t-78 -148q35 -131 53 -176t34 -45q17 0 104 68h16l21 -43q-80 -80 -123 -110t-78 -30q-36 0 -60 46t-63 176q-53 -117 -103 -169q-50 -53 -115 -53t-85 50q23 72 57 131h23q0 -88 45 -88
q61 0 147 206q-39 135 -55 173q-15 38 -33 36q-18 0 -92 -67h-16l-21 43q131 139 203 139q34 0 56 -42t57 -167q51 111 100 160t107 49z" />
    <glyph glyph-name="y.sups" horiz-adv-x="628" 
d="M606 1219q0 -129 -241 -480q-125 -178 -213 -256t-164 -77q-43 0 -76 16t-41 41q8 55 41 125h22q25 -68 91 -68q86 0 192 139q-44 535 -74 562q-10 10 -34 10l-60 -6l4 63l215 29l15 -12q23 -209 22 -494h14q158 254 158 352q0 61 -65 99l8 32l143 31q43 -32 43 -106z
" />
    <glyph glyph-name="z.sups" horiz-adv-x="577" 
d="M417 702q-46 0 -122 30t-129 30t-125 -43l-21 33l367 444h-113q-54 0 -80 -18t-42 -66l-62 -8q33 115 47 207l29 14q156 -37 264 -37q35 0 53 23l25 28l65 -28l7 -25q-219 -242 -379 -438l35 8l170 -22q76 0 94 90l26 -2q39 -103 -24 -176q-39 -44 -85 -44z" />
    <glyph glyph-name="foundryicon" horiz-adv-x="1603" 
d="M369 -121q-164 0 -164 164v866q0 164 164 164h866q164 0 164 -164v-866q0 -164 -164 -164h-866zM891 618h53q20 0 21 -20v-270q0 -66 45 -108t114 -42l129 76v51q-25 -8 -53 -8q-84 0 -84 117v184q0 20 21 20h118v74h-118q-20 0 -21 21v57h-43l-182 -115v-37zM543 657
v238h-152v-705h152v369q0 25 49 25q88 0 88 -115v-279h151v365q0 66 -45 108t-114 42q-113 -66 -121 -66t-8 18z" />
    <glyph glyph-name="square1" horiz-adv-x="888" 
d="M-53 0l114 926h889l-112 -926h-891z" />
    <glyph glyph-name="square2" horiz-adv-x="1253" 
d="M-53 0l159 1305h1254l-160 -1305h-1253z" />
    <glyph glyph-name="idotaccent" horiz-adv-x="628" 
d="M450 1411q93 0 93 -99q0 -46 -39 -86t-88 -40q-96 0 -94 99q0 46 39 86q40 40 89 40zM356 145q0 -68 60 -67l82 4l4 -6l-25 -80q-141 4 -221 4t-193 -18l21 79q76 14 106 43t37 95q84 680 84 697q0 18 -7 32t-44 14l-65 -2q-2 6 -2 8l20 76l199 -6l196 16l-18 -82
q-66 -8 -90 -25t-33 -63q-111 -625 -111 -719z" />
  </font>
</defs>
</svg>
